# Blender 4.2.3 LTS
# www.blender.org
mtllib Untitled.019.mtl
o Untitled.019
v -1.533332 0.000000 1.377783
v -1.533332 0.000000 -1.722217
v -1.533332 8.600000 1.377782
v -1.533332 8.600000 -1.722217
v -1.433332 0.000000 -1.622217
v -1.433332 0.000000 -1.722217
v -1.433332 8.600000 -1.622218
v -1.433332 8.600000 -1.722217
v -1.333333 0.000000 -1.522216
v -1.333333 0.000000 -1.622217
v -1.333333 8.600000 -1.522217
v -1.333333 8.600000 -1.622218
v -1.233332 0.000000 -1.422217
v -1.233332 0.000000 -1.522216
v -1.233332 8.600000 -1.422217
v -1.233332 8.600000 -1.522217
v -1.133332 0.000000 -1.322217
v -1.133332 0.000000 -1.422217
v -1.133332 8.600000 -1.322217
v -1.133332 8.600000 -1.422217
v -1.033332 0.000000 -1.222216
v -1.033332 0.000000 -1.322217
v -1.033332 8.600000 -1.222217
v -1.033332 8.600000 -1.322217
v -0.933332 0.000000 -1.122217
v -0.933332 0.000000 -1.222216
v -0.933332 8.600000 -1.122218
v -0.933332 8.600000 -1.222217
v -0.833333 0.000000 -1.022216
v -0.833333 0.000000 -1.122217
v -0.833333 8.600000 -1.022217
v -0.833333 8.600000 -1.122218
v -0.733332 0.000000 -0.922217
v -0.733332 0.000000 -1.022216
v -0.733332 8.600000 -0.922218
v -0.733332 8.600000 -1.022217
v -0.633332 0.000000 -0.822217
v -0.633332 0.000000 -0.922217
v -0.633332 8.600000 -0.822217
v -0.633332 8.600000 -0.922218
v -0.533332 0.000000 -0.722216
v -0.533332 0.000000 -0.822217
v -0.533332 8.600000 -0.722217
v -0.533332 8.600000 -0.822217
v -0.433332 0.000000 -0.622217
v -0.433332 0.000000 -0.722216
v -0.433332 8.600000 -0.622217
v -0.433332 8.600000 -0.722217
v -0.333333 0.000000 -0.522216
v -0.333333 0.000000 -0.622217
v -0.333333 8.600000 -0.522217
v -0.333333 8.600000 -0.622217
v -0.233332 0.000000 -0.422217
v -0.233332 0.000000 -0.522216
v -0.233332 8.600000 -0.422218
v -0.233332 8.600000 -0.522217
v -0.133332 0.000000 -0.322217
v -0.133332 0.000000 -0.422217
v -0.133332 8.600000 -0.322217
v -0.133332 8.600000 -0.422218
v -0.033332 0.000000 -0.222216
v -0.033332 0.000000 -0.322217
v -0.033332 8.600000 -0.222217
v -0.033332 8.600000 -0.322217
v 0.066668 0.000000 -0.122217
v 0.066668 0.000000 -0.222216
v 0.066668 8.600000 -0.122217
v 0.066668 8.600000 -0.222217
v 0.166668 0.000000 -0.022216
v 0.166668 0.000000 -0.122217
v 0.166668 8.600000 -0.022217
v 0.166668 8.600000 -0.122217
v 0.266668 0.000000 0.077783
v 0.266668 0.000000 -0.022216
v 0.266668 8.600000 0.077782
v 0.266668 8.600000 -0.022217
v 0.366668 0.000000 0.177783
v 0.366668 0.000000 0.077783
v 0.366668 8.600000 0.177783
v 0.366668 8.600000 0.077782
v 0.466668 0.000000 0.277784
v 0.466668 0.000000 0.177783
v 0.466668 8.600000 0.277783
v 0.466668 8.600000 0.177783
v 0.566668 0.000000 0.377783
v 0.566668 0.000000 0.277784
v 0.566668 8.600000 0.377782
v 0.566668 8.600000 0.277783
v 0.666668 0.000000 0.477784
v 0.666668 0.000000 0.377783
v 0.666668 8.600000 0.477783
v 0.666668 8.600000 0.377782
v 0.766668 0.000000 0.577783
v 0.766668 0.000000 0.477784
v 0.766668 8.600000 0.577782
v 0.766668 8.600000 0.477783
v 0.866668 0.000000 0.677783
v 0.866668 0.000000 0.577783
v 0.866668 8.600000 0.677783
v 0.866668 8.600000 0.577782
v 0.966668 0.000000 0.777784
v 0.966668 0.000000 0.677783
v 0.966668 8.600000 0.777783
v 0.966668 8.600000 0.677783
v 1.066668 0.000000 0.877783
v 1.066668 0.000000 0.777784
v 1.066668 8.600000 0.877783
v 1.066668 8.600000 0.777783
v 1.166668 0.000000 0.977784
v 1.166668 0.000000 0.877783
v 1.166668 8.600000 0.977783
v 1.166668 8.600000 0.877783
v 1.266668 0.000000 1.077783
v 1.266668 0.000000 0.977784
v 1.266668 8.600000 1.077782
v 1.266668 8.600000 0.977783
v 1.366668 0.000000 1.177783
v 1.366668 0.000000 1.077783
v 1.366668 8.600000 1.177783
v 1.366668 8.600000 1.077782
v 1.466668 0.000000 1.277784
v 1.466668 0.000000 1.177783
v 1.466668 8.600000 1.277783
v 1.466668 8.600000 1.177783
v 1.566668 0.000000 1.377783
v 1.566668 0.000000 1.277784
v 1.566668 8.600000 1.377782
v 1.566668 8.600000 1.277783
v -1.533332 0.000000 1.377783
v -1.533332 8.600000 1.377782
v -1.033332 1.300000 1.377783
v -1.033332 1.900000 1.377783
v -1.033332 2.500000 1.377783
v -1.033332 3.100000 1.377783
v -1.033332 3.700000 1.377783
v -1.033332 4.300000 1.377783
v -1.033332 4.900000 1.377783
v -1.033332 5.500000 1.377783
v -1.033332 6.100000 1.377783
v -1.033332 6.700000 1.377783
v -1.033332 7.300000 1.377783
v -1.033332 7.900000 1.377783
v -0.433332 1.300000 1.377783
v -0.433332 1.900000 1.377783
v -0.433332 2.500000 1.377783
v -0.433332 3.100000 1.377783
v -0.433332 3.700000 1.377783
v -0.433332 4.300000 1.377783
v -0.433332 4.900000 1.377783
v -0.433332 5.500000 1.377783
v -0.433332 6.100000 1.377783
v -0.433332 6.700000 1.377783
v -0.433332 7.300000 1.377783
v -0.433332 7.900000 1.377783
v 0.166668 1.300000 1.377783
v 0.166668 1.900000 1.377783
v 0.166668 2.500000 1.377783
v 0.166668 3.100000 1.377783
v 0.166668 3.700000 1.377783
v 0.166668 4.300000 1.377783
v 0.166668 4.900000 1.377783
v 0.166668 5.500000 1.377783
v 0.166668 6.100000 1.377783
v 0.166668 6.700000 1.377783
v 0.166668 7.300000 1.377783
v 0.166668 7.900000 1.377783
v 0.766668 1.300000 1.377783
v 0.766668 1.900000 1.377783
v 0.766668 2.500000 1.377783
v 0.766668 3.100000 1.377783
v 0.766668 3.700000 1.377783
v 0.766668 4.300000 1.377783
v 0.766668 4.900000 1.377783
v 0.766668 5.500000 1.377783
v 0.766668 6.100000 1.377783
v 0.766668 6.700000 1.377783
v 0.766668 7.300000 1.377783
v 0.766668 7.900000 1.377783
v 1.566668 0.000000 1.377783
v 1.566668 8.600000 1.377782
v 1.466668 0.000000 1.277784
v 1.466668 8.600000 1.277783
v 1.566668 0.000000 1.277784
v 1.566668 8.600000 1.277783
v 1.366668 0.000000 1.177783
v 1.366668 8.600000 1.177783
v 1.466668 0.000000 1.177783
v 1.466668 8.600000 1.177783
v 1.266668 0.000000 1.077783
v 1.266668 8.600000 1.077782
v 1.366668 0.000000 1.077783
v 1.366668 8.600000 1.077782
v 1.166668 0.000000 0.977784
v 1.166668 8.600000 0.977783
v 1.266668 0.000000 0.977784
v 1.266668 8.600000 0.977783
v 1.066668 0.000000 0.877783
v 1.066668 8.600000 0.877783
v 1.166668 0.000000 0.877783
v 1.166668 8.600000 0.877783
v 0.966668 0.000000 0.777784
v 0.966668 8.600000 0.777783
v 1.066668 0.000000 0.777784
v 1.066668 8.600000 0.777783
v 0.866668 0.000000 0.677783
v 0.866668 8.600000 0.677783
v 0.966668 0.000000 0.677783
v 0.966668 8.600000 0.677783
v 0.766668 0.000000 0.577783
v 0.766668 8.600000 0.577782
v 0.866668 0.000000 0.577783
v 0.866668 8.600000 0.577782
v 0.666668 0.000000 0.477784
v 0.666668 8.600000 0.477783
v 0.766668 0.000000 0.477784
v 0.766668 8.600000 0.477783
v 0.566668 0.000000 0.377783
v 0.566668 8.600000 0.377782
v 0.666668 0.000000 0.377783
v 0.666668 8.600000 0.377782
v 0.466668 0.000000 0.277784
v 0.466668 8.600000 0.277783
v 0.566668 0.000000 0.277784
v 0.566668 8.600000 0.277783
v 0.366668 0.000000 0.177783
v 0.366668 8.600000 0.177783
v 0.466668 0.000000 0.177783
v 0.466668 8.600000 0.177783
v 0.266668 0.000000 0.077783
v 0.266668 8.600000 0.077782
v 0.366668 0.000000 0.077783
v 0.366668 8.600000 0.077782
v 0.166668 0.000000 -0.022216
v 0.166668 8.600000 -0.022217
v 0.266668 0.000000 -0.022216
v 0.266668 8.600000 -0.022217
v 0.066668 0.000000 -0.122217
v 0.066668 8.600000 -0.122217
v 0.166668 0.000000 -0.122217
v 0.166668 8.600000 -0.122217
v -0.033332 0.000000 -0.222216
v -0.033332 8.600000 -0.222217
v 0.066668 0.000000 -0.222216
v 0.066668 8.600000 -0.222217
v -0.133332 0.000000 -0.322217
v -0.133332 8.600000 -0.322217
v -0.033332 0.000000 -0.322217
v -0.033332 8.600000 -0.322217
v -0.233332 0.000000 -0.422217
v -0.233332 8.600000 -0.422218
v -0.133332 0.000000 -0.422217
v -0.133332 8.600000 -0.422218
v -0.333333 0.000000 -0.522216
v -0.333333 8.600000 -0.522217
v -0.233332 0.000000 -0.522216
v -0.233332 8.600000 -0.522217
v -0.433332 0.000000 -0.622217
v -0.433332 8.600000 -0.622217
v -0.333333 0.000000 -0.622217
v -0.333333 8.600000 -0.622217
v -0.533332 0.000000 -0.722216
v -0.533332 8.600000 -0.722217
v -0.433332 0.000000 -0.722216
v -0.433332 8.600000 -0.722217
v -0.633332 0.000000 -0.822217
v -0.633332 8.600000 -0.822217
v -0.533332 0.000000 -0.822217
v -0.533332 8.600000 -0.822217
v -0.733332 0.000000 -0.922217
v -0.733332 8.600000 -0.922218
v -0.633332 0.000000 -0.922217
v -0.633332 8.600000 -0.922218
v -0.833333 0.000000 -1.022216
v -0.833333 8.600000 -1.022217
v -0.733332 0.000000 -1.022216
v -0.733332 8.600000 -1.022217
v -0.933332 0.000000 -1.122217
v -0.933332 8.600000 -1.122218
v -0.833333 0.000000 -1.122217
v -0.833333 8.600000 -1.122218
v -1.033332 0.000000 -1.222216
v -1.033332 8.600000 -1.222217
v -0.933332 0.000000 -1.222216
v -0.933332 8.600000 -1.222217
v -1.133332 0.000000 -1.322217
v -1.133332 8.600000 -1.322217
v -1.033332 0.000000 -1.322217
v -1.033332 8.600000 -1.322217
v -1.233332 0.000000 -1.422217
v -1.233332 8.600000 -1.422217
v -1.133332 0.000000 -1.422217
v -1.133332 8.600000 -1.422217
v -1.333333 0.000000 -1.522216
v -1.333333 8.600000 -1.522217
v -1.233332 0.000000 -1.522216
v -1.233332 8.600000 -1.522217
v -1.433332 0.000000 -1.622217
v -1.433332 8.600000 -1.622218
v -1.333333 0.000000 -1.622217
v -1.333333 8.600000 -1.622218
v -1.533332 0.000000 -1.722217
v -1.533332 8.600000 -1.722217
v -1.433332 0.000000 -1.722217
v -1.433332 8.600000 -1.722217
v -1.533332 0.000000 1.377783
v 1.566668 0.000000 1.377783
v 1.466668 0.000000 1.277784
v 1.566668 0.000000 1.277784
v 1.366668 0.000000 1.177783
v 1.466668 0.000000 1.177783
v 1.266668 0.000000 1.077783
v 1.366668 0.000000 1.077783
v 1.166668 0.000000 0.977784
v 1.266668 0.000000 0.977784
v 1.066668 0.000000 0.877783
v 1.166668 0.000000 0.877783
v 0.966668 0.000000 0.777784
v 1.066668 0.000000 0.777784
v 0.866668 0.000000 0.677783
v 0.966668 0.000000 0.677783
v 0.766668 0.000000 0.577783
v 0.866668 0.000000 0.577783
v 0.666668 0.000000 0.477784
v 0.766668 0.000000 0.477784
v 0.566668 0.000000 0.377783
v 0.666668 0.000000 0.377783
v 0.466668 0.000000 0.277784
v 0.566668 0.000000 0.277784
v 0.366668 0.000000 0.177783
v 0.466668 0.000000 0.177783
v 0.266668 0.000000 0.077783
v 0.366668 0.000000 0.077783
v 0.166668 0.000000 -0.022216
v 0.266668 0.000000 -0.022216
v 0.066668 0.000000 -0.122217
v 0.166668 0.000000 -0.122217
v -0.033332 0.000000 -0.222216
v 0.066668 0.000000 -0.222216
v -0.133332 0.000000 -0.322217
v -0.033332 0.000000 -0.322217
v -0.233332 0.000000 -0.422217
v -0.133332 0.000000 -0.422217
v -0.333333 0.000000 -0.522216
v -0.233332 0.000000 -0.522216
v -0.433332 0.000000 -0.622217
v -0.333333 0.000000 -0.622217
v -0.533332 0.000000 -0.722216
v -0.433332 0.000000 -0.722216
v -0.633332 0.000000 -0.822217
v -0.533332 0.000000 -0.822217
v -0.733332 0.000000 -0.922217
v -0.633332 0.000000 -0.922217
v -0.833333 0.000000 -1.022216
v -0.733332 0.000000 -1.022216
v -0.933332 0.000000 -1.122217
v -0.833333 0.000000 -1.122217
v -1.033332 0.000000 -1.222216
v -0.933332 0.000000 -1.222216
v -1.133332 0.000000 -1.322217
v -1.033332 0.000000 -1.322217
v -1.233332 0.000000 -1.422217
v -1.133332 0.000000 -1.422217
v -1.333333 0.000000 -1.522216
v -1.233332 0.000000 -1.522216
v -1.433332 0.000000 -1.622217
v -1.333333 0.000000 -1.622217
v -1.533332 0.000000 -1.722217
v -1.433332 0.000000 -1.722217
v -1.533332 8.600000 1.377782
v 1.566668 8.600000 1.377782
v 1.466668 8.600000 1.277783
v 1.566668 8.600000 1.277783
v 1.366668 8.600000 1.177783
v 1.466668 8.600000 1.177783
v 1.266668 8.600000 1.077782
v 1.366668 8.600000 1.077782
v 1.166668 8.600000 0.977783
v 1.266668 8.600000 0.977783
v 1.066668 8.600000 0.877783
v 1.166668 8.600000 0.877783
v 0.966668 8.600000 0.777783
v 1.066668 8.600000 0.777783
v 0.866668 8.600000 0.677783
v 0.966668 8.600000 0.677783
v 0.766668 8.600000 0.577782
v 0.866668 8.600000 0.577782
v 0.666668 8.600000 0.477783
v 0.766668 8.600000 0.477783
v 0.566668 8.600000 0.377782
v 0.666668 8.600000 0.377782
v 0.466668 8.600000 0.277783
v 0.566668 8.600000 0.277783
v 0.366668 8.600000 0.177783
v 0.466668 8.600000 0.177783
v 0.266668 8.600000 0.077782
v 0.366668 8.600000 0.077782
v 0.166668 8.600000 -0.022217
v 0.266668 8.600000 -0.022217
v 0.066668 8.600000 -0.122217
v 0.166668 8.600000 -0.122217
v -0.033332 8.600000 -0.222217
v 0.066668 8.600000 -0.222217
v -0.133332 8.600000 -0.322217
v -0.033332 8.600000 -0.322217
v -0.233332 8.600000 -0.422218
v -0.133332 8.600000 -0.422218
v -0.333333 8.600000 -0.522217
v -0.233332 8.600000 -0.522217
v -0.433332 8.600000 -0.622217
v -0.333333 8.600000 -0.622217
v -0.533332 8.600000 -0.722217
v -0.433332 8.600000 -0.722217
v -0.633332 8.600000 -0.822217
v -0.533332 8.600000 -0.822217
v -0.733332 8.600000 -0.922218
v -0.633332 8.600000 -0.922218
v -0.833333 8.600000 -1.022217
v -0.733332 8.600000 -1.022217
v -0.933332 8.600000 -1.122218
v -0.833333 8.600000 -1.122218
v -1.033332 8.600000 -1.222217
v -0.933332 8.600000 -1.222217
v -1.133332 8.600000 -1.322217
v -1.033332 8.600000 -1.322217
v -1.233332 8.600000 -1.422217
v -1.133332 8.600000 -1.422217
v -1.333333 8.600000 -1.522217
v -1.233332 8.600000 -1.522217
v -1.433332 8.600000 -1.622218
v -1.333333 8.600000 -1.622218
v -1.533332 8.600000 -1.722217
v -1.433332 8.600000 -1.722217
vn -1.0000 -0.0000 -0.0000
vn 1.0000 -0.0000 -0.0000
vn -0.0000 -0.0000 1.0000
vn -0.0000 -0.0000 -1.0000
vn -0.0000 -1.0000 -0.0000
vn -0.0000 1.0000 -0.0000
vt 0.978516 0.500000
vt 0.994141 0.500000
s 0
usemtl palette.019
f 3/1/1 2/1/1 1/1/1
f 4/1/1 2/1/1 3/1/1
f 5/1/2 6/1/2 7/1/2
f 7/1/2 6/1/2 8/1/2
f 9/1/2 10/1/2 11/1/2
f 11/1/2 10/1/2 12/1/2
f 13/1/2 14/1/2 15/1/2
f 15/1/2 14/1/2 16/1/2
f 17/1/2 18/1/2 19/1/2
f 19/1/2 18/1/2 20/1/2
f 21/1/2 22/1/2 23/1/2
f 23/1/2 22/1/2 24/1/2
f 25/1/2 26/1/2 27/1/2
f 27/1/2 26/1/2 28/1/2
f 29/1/2 30/1/2 31/1/2
f 31/1/2 30/1/2 32/1/2
f 33/1/2 34/1/2 35/1/2
f 35/1/2 34/1/2 36/1/2
f 37/1/2 38/1/2 39/1/2
f 39/1/2 38/1/2 40/1/2
f 41/1/2 42/1/2 43/1/2
f 43/1/2 42/1/2 44/1/2
f 45/1/2 46/1/2 47/1/2
f 47/1/2 46/1/2 48/1/2
f 49/1/2 50/1/2 51/1/2
f 51/1/2 50/1/2 52/1/2
f 53/1/2 54/1/2 55/1/2
f 55/1/2 54/1/2 56/1/2
f 57/1/2 58/1/2 59/1/2
f 59/1/2 58/1/2 60/1/2
f 61/1/2 62/1/2 63/1/2
f 63/1/2 62/1/2 64/1/2
f 65/1/2 66/1/2 67/1/2
f 67/1/2 66/1/2 68/1/2
f 69/1/2 70/1/2 71/1/2
f 71/1/2 70/1/2 72/1/2
f 73/1/2 74/1/2 75/1/2
f 75/1/2 74/1/2 76/1/2
f 77/1/2 78/1/2 79/1/2
f 79/1/2 78/1/2 80/1/2
f 81/1/2 82/1/2 83/1/2
f 83/1/2 82/1/2 84/1/2
f 85/1/2 86/1/2 87/1/2
f 87/1/2 86/1/2 88/1/2
f 89/1/2 90/1/2 91/1/2
f 91/1/2 90/1/2 92/1/2
f 93/1/2 94/1/2 95/1/2
f 95/1/2 94/1/2 96/1/2
f 97/1/2 98/1/2 99/1/2
f 99/1/2 98/1/2 100/1/2
f 101/1/2 102/1/2 103/1/2
f 103/1/2 102/1/2 104/1/2
f 105/1/2 106/1/2 107/1/2
f 107/1/2 106/1/2 108/1/2
f 109/1/2 110/1/2 111/1/2
f 111/1/2 110/1/2 112/1/2
f 113/1/2 114/1/2 115/1/2
f 115/1/2 114/1/2 116/1/2
f 117/1/2 118/1/2 119/1/2
f 119/1/2 118/1/2 120/1/2
f 121/1/2 122/1/2 123/1/2
f 123/1/2 122/1/2 124/1/2
f 125/1/2 126/1/2 127/1/2
f 127/1/2 126/1/2 128/1/2
f 131/1/3 130/1/3 129/1/3
f 132/1/3 130/1/3 131/1/3
f 133/1/3 130/1/3 132/1/3
f 134/1/3 130/1/3 133/1/3
f 135/1/3 130/1/3 134/1/3
f 136/1/3 130/1/3 135/1/3
f 137/1/3 130/1/3 136/1/3
f 138/1/3 130/1/3 137/1/3
f 139/1/3 130/1/3 138/1/3
f 140/1/3 130/1/3 139/1/3
f 141/1/3 130/1/3 140/1/3
f 142/1/3 130/1/3 141/1/3
f 143/1/3 131/1/3 129/1/3
f 143/2/3 132/2/3 131/2/3
f 144/1/3 133/1/3 132/1/3
f 144/2/3 132/2/3 143/2/3
f 145/2/3 134/2/3 133/2/3
f 145/1/3 133/1/3 144/1/3
f 146/1/3 135/1/3 134/1/3
f 146/2/3 134/2/3 145/2/3
f 147/2/3 136/2/3 135/2/3
f 147/1/3 135/1/3 146/1/3
f 148/1/3 137/1/3 136/1/3
f 148/2/3 136/2/3 147/2/3
f 149/2/3 138/2/3 137/2/3
f 149/1/3 137/1/3 148/1/3
f 150/1/3 139/1/3 138/1/3
f 150/2/3 138/2/3 149/2/3
f 151/2/3 140/2/3 139/2/3
f 151/1/3 139/1/3 150/1/3
f 152/1/3 141/1/3 140/1/3
f 152/2/3 140/2/3 151/2/3
f 153/2/3 142/2/3 141/2/3
f 153/1/3 141/1/3 152/1/3
f 154/1/3 130/1/3 142/1/3
f 154/2/3 142/2/3 153/2/3
f 155/1/3 153/1/3 152/1/3
f 155/1/3 152/1/3 151/1/3
f 155/1/3 154/1/3 153/1/3
f 155/1/3 151/1/3 150/1/3
f 155/1/3 150/1/3 149/1/3
f 155/1/3 149/1/3 148/1/3
f 155/1/3 148/1/3 147/1/3
f 155/1/3 147/1/3 146/1/3
f 155/1/3 146/1/3 145/1/3
f 155/1/3 145/1/3 144/1/3
f 155/1/3 144/1/3 143/1/3
f 155/1/3 143/1/3 129/1/3
f 156/1/3 154/1/3 155/1/3
f 157/1/3 154/1/3 156/1/3
f 158/1/3 154/1/3 157/1/3
f 159/1/3 154/1/3 158/1/3
f 160/1/3 154/1/3 159/1/3
f 161/1/3 154/1/3 160/1/3
f 162/1/3 154/1/3 161/1/3
f 163/1/3 154/1/3 162/1/3
f 164/1/3 154/1/3 163/1/3
f 165/1/3 154/1/3 164/1/3
f 166/1/3 130/1/3 154/1/3
f 166/1/3 154/1/3 165/1/3
f 167/1/3 155/1/3 129/1/3
f 167/2/3 156/2/3 155/2/3
f 168/1/3 157/1/3 156/1/3
f 168/2/3 156/2/3 167/2/3
f 169/2/3 158/2/3 157/2/3
f 169/1/3 157/1/3 168/1/3
f 170/1/3 159/1/3 158/1/3
f 170/2/3 158/2/3 169/2/3
f 171/2/3 160/2/3 159/2/3
f 171/1/3 159/1/3 170/1/3
f 172/1/3 161/1/3 160/1/3
f 172/2/3 160/2/3 171/2/3
f 173/2/3 162/2/3 161/2/3
f 173/1/3 161/1/3 172/1/3
f 174/1/3 163/1/3 162/1/3
f 174/2/3 162/2/3 173/2/3
f 175/2/3 164/2/3 163/2/3
f 175/1/3 163/1/3 174/1/3
f 176/1/3 165/1/3 164/1/3
f 176/2/3 164/2/3 175/2/3
f 177/2/3 166/2/3 165/2/3
f 177/1/3 165/1/3 176/1/3
f 178/1/3 130/1/3 166/1/3
f 178/2/3 166/2/3 177/2/3
f 179/1/3 175/1/3 174/1/3
f 179/1/3 177/1/3 176/1/3
f 179/1/3 178/1/3 177/1/3
f 179/1/3 174/1/3 173/1/3
f 179/1/3 173/1/3 172/1/3
f 179/1/3 172/1/3 171/1/3
f 179/1/3 171/1/3 170/1/3
f 179/1/3 170/1/3 169/1/3
f 179/1/3 169/1/3 168/1/3
f 179/1/3 168/1/3 167/1/3
f 179/1/3 167/1/3 129/1/3
f 179/1/3 176/1/3 175/1/3
f 180/1/3 130/1/3 178/1/3
f 180/1/3 178/1/3 179/1/3
f 181/1/4 182/1/4 183/1/4
f 183/1/4 182/1/4 184/1/4
f 185/1/4 186/1/4 187/1/4
f 187/1/4 186/1/4 188/1/4
f 189/1/4 190/1/4 191/1/4
f 191/1/4 190/1/4 192/1/4
f 193/1/4 194/1/4 195/1/4
f 195/1/4 194/1/4 196/1/4
f 197/1/4 198/1/4 199/1/4
f 199/1/4 198/1/4 200/1/4
f 201/1/4 202/1/4 203/1/4
f 203/1/4 202/1/4 204/1/4
f 205/1/4 206/1/4 207/1/4
f 207/1/4 206/1/4 208/1/4
f 209/1/4 210/1/4 211/1/4
f 211/1/4 210/1/4 212/1/4
f 213/1/4 214/1/4 215/1/4
f 215/1/4 214/1/4 216/1/4
f 217/1/4 218/1/4 219/1/4
f 219/1/4 218/1/4 220/1/4
f 221/1/4 222/1/4 223/1/4
f 223/1/4 222/1/4 224/1/4
f 225/1/4 226/1/4 227/1/4
f 227/1/4 226/1/4 228/1/4
f 229/1/4 230/1/4 231/1/4
f 231/1/4 230/1/4 232/1/4
f 233/1/4 234/1/4 235/1/4
f 235/1/4 234/1/4 236/1/4
f 237/1/4 238/1/4 239/1/4
f 239/1/4 238/1/4 240/1/4
f 241/1/4 242/1/4 243/1/4
f 243/1/4 242/1/4 244/1/4
f 245/1/4 246/1/4 247/1/4
f 247/1/4 246/1/4 248/1/4
f 249/1/4 250/1/4 251/1/4
f 251/1/4 250/1/4 252/1/4
f 253/1/4 254/1/4 255/1/4
f 255/1/4 254/1/4 256/1/4
f 257/1/4 258/1/4 259/1/4
f 259/1/4 258/1/4 260/1/4
f 261/1/4 262/1/4 263/1/4
f 263/1/4 262/1/4 264/1/4
f 265/1/4 266/1/4 267/1/4
f 267/1/4 266/1/4 268/1/4
f 269/1/4 270/1/4 271/1/4
f 271/1/4 270/1/4 272/1/4
f 273/1/4 274/1/4 275/1/4
f 275/1/4 274/1/4 276/1/4
f 277/1/4 278/1/4 279/1/4
f 279/1/4 278/1/4 280/1/4
f 281/1/4 282/1/4 283/1/4
f 283/1/4 282/1/4 284/1/4
f 285/1/4 286/1/4 287/1/4
f 287/1/4 286/1/4 288/1/4
f 289/1/4 290/1/4 291/1/4
f 291/1/4 290/1/4 292/1/4
f 293/1/4 294/1/4 295/1/4
f 295/1/4 294/1/4 296/1/4
f 297/1/4 298/1/4 299/1/4
f 299/1/4 298/1/4 300/1/4
f 301/1/4 302/1/4 303/1/4
f 303/1/4 302/1/4 304/1/4
f 307/1/5 306/1/5 305/1/5
f 308/1/5 306/1/5 307/1/5
f 309/1/5 307/1/5 305/1/5
f 310/1/5 307/1/5 309/1/5
f 311/1/5 309/1/5 305/1/5
f 312/1/5 309/1/5 311/1/5
f 313/1/5 311/1/5 305/1/5
f 314/1/5 311/1/5 313/1/5
f 315/1/5 313/1/5 305/1/5
f 316/1/5 313/1/5 315/1/5
f 317/1/5 315/1/5 305/1/5
f 318/1/5 315/1/5 317/1/5
f 319/1/5 317/1/5 305/1/5
f 320/1/5 317/1/5 319/1/5
f 321/1/5 319/1/5 305/1/5
f 322/1/5 319/1/5 321/1/5
f 323/1/5 321/1/5 305/1/5
f 324/1/5 321/1/5 323/1/5
f 325/1/5 323/1/5 305/1/5
f 326/1/5 323/1/5 325/1/5
f 327/1/5 325/1/5 305/1/5
f 328/1/5 325/1/5 327/1/5
f 329/1/5 327/1/5 305/1/5
f 330/1/5 327/1/5 329/1/5
f 331/1/5 329/1/5 305/1/5
f 332/1/5 329/1/5 331/1/5
f 333/1/5 331/1/5 305/1/5
f 334/1/5 331/1/5 333/1/5
f 335/1/5 333/1/5 305/1/5
f 336/1/5 333/1/5 335/1/5
f 337/1/5 335/1/5 305/1/5
f 338/1/5 335/1/5 337/1/5
f 339/1/5 337/1/5 305/1/5
f 340/1/5 337/1/5 339/1/5
f 341/1/5 339/1/5 305/1/5
f 342/1/5 339/1/5 341/1/5
f 343/1/5 341/1/5 305/1/5
f 344/1/5 341/1/5 343/1/5
f 345/1/5 343/1/5 305/1/5
f 346/1/5 343/1/5 345/1/5
f 347/1/5 345/1/5 305/1/5
f 348/1/5 345/1/5 347/1/5
f 349/1/5 347/1/5 305/1/5
f 350/1/5 347/1/5 349/1/5
f 351/1/5 349/1/5 305/1/5
f 352/1/5 349/1/5 351/1/5
f 353/1/5 351/1/5 305/1/5
f 354/1/5 351/1/5 353/1/5
f 355/1/5 353/1/5 305/1/5
f 356/1/5 353/1/5 355/1/5
f 357/1/5 355/1/5 305/1/5
f 358/1/5 355/1/5 357/1/5
f 359/1/5 357/1/5 305/1/5
f 360/1/5 357/1/5 359/1/5
f 361/1/5 359/1/5 305/1/5
f 362/1/5 359/1/5 361/1/5
f 363/1/5 361/1/5 305/1/5
f 364/1/5 361/1/5 363/1/5
f 365/1/5 363/1/5 305/1/5
f 366/1/5 363/1/5 365/1/5
f 367/1/5 365/1/5 305/1/5
f 368/1/5 365/1/5 367/1/5
f 369/1/6 370/1/6 371/1/6
f 371/1/6 370/1/6 372/1/6
f 369/1/6 371/1/6 373/1/6
f 373/1/6 371/1/6 374/1/6
f 369/1/6 373/1/6 375/1/6
f 375/1/6 373/1/6 376/1/6
f 369/1/6 375/1/6 377/1/6
f 377/1/6 375/1/6 378/1/6
f 369/1/6 377/1/6 379/1/6
f 379/1/6 377/1/6 380/1/6
f 369/1/6 379/1/6 381/1/6
f 381/1/6 379/1/6 382/1/6
f 369/1/6 381/1/6 383/1/6
f 383/1/6 381/1/6 384/1/6
f 369/1/6 383/1/6 385/1/6
f 385/1/6 383/1/6 386/1/6
f 369/1/6 385/1/6 387/1/6
f 387/1/6 385/1/6 388/1/6
f 369/1/6 387/1/6 389/1/6
f 389/1/6 387/1/6 390/1/6
f 369/1/6 389/1/6 391/1/6
f 391/1/6 389/1/6 392/1/6
f 369/1/6 391/1/6 393/1/6
f 393/1/6 391/1/6 394/1/6
f 369/1/6 393/1/6 395/1/6
f 395/1/6 393/1/6 396/1/6
f 369/1/6 395/1/6 397/1/6
f 397/1/6 395/1/6 398/1/6
f 369/1/6 397/1/6 399/1/6
f 399/1/6 397/1/6 400/1/6
f 369/1/6 399/1/6 401/1/6
f 401/1/6 399/1/6 402/1/6
f 369/1/6 401/1/6 403/1/6
f 403/1/6 401/1/6 404/1/6
f 369/1/6 403/1/6 405/1/6
f 405/1/6 403/1/6 406/1/6
f 369/1/6 405/1/6 407/1/6
f 407/1/6 405/1/6 408/1/6
f 369/1/6 407/1/6 409/1/6
f 409/1/6 407/1/6 410/1/6
f 369/1/6 409/1/6 411/1/6
f 411/1/6 409/1/6 412/1/6
f 369/1/6 411/1/6 413/1/6
f 413/1/6 411/1/6 414/1/6
f 369/1/6 413/1/6 415/1/6
f 415/1/6 413/1/6 416/1/6
f 369/1/6 415/1/6 417/1/6
f 417/1/6 415/1/6 418/1/6
f 369/1/6 417/1/6 419/1/6
f 419/1/6 417/1/6 420/1/6
f 369/1/6 419/1/6 421/1/6
f 421/1/6 419/1/6 422/1/6
f 369/1/6 421/1/6 423/1/6
f 423/1/6 421/1/6 424/1/6
f 369/1/6 423/1/6 425/1/6
f 425/1/6 423/1/6 426/1/6
f 369/1/6 425/1/6 427/1/6
f 427/1/6 425/1/6 428/1/6
f 369/1/6 427/1/6 429/1/6
f 429/1/6 427/1/6 430/1/6
f 369/1/6 429/1/6 431/1/6
f 431/1/6 429/1/6 432/1/6
