# Blender 4.2.3 LTS
# www.blender.org
mtllib Untitled.004.mtl
o Untitled.004
v -0.233566 0.100000 0.020979
v -0.233566 0.100000 -0.079021
v -0.233566 0.200000 0.020979
v -0.233566 0.200000 -0.079021
v -0.133566 0.000000 0.020979
v -0.133566 0.000000 -0.179021
v -0.133566 0.100000 0.020979
v -0.133566 0.100000 -0.079021
v -0.133566 0.100000 -0.179021
v -0.033566 0.000000 0.120979
v -0.033566 0.000000 0.020979
v -0.033566 0.100000 0.220979
v -0.033566 0.100000 0.120979
v -0.033566 0.100000 0.020979
v -0.033566 0.100000 -0.079021
v -0.033566 0.200000 0.220979
v -0.033566 0.200000 0.120979
v -0.033566 0.200000 0.020979
v -0.033566 0.200000 -0.079021
v -0.033566 0.300000 0.020979
v -0.033566 0.300000 -0.079021
v -0.133566 0.100000 0.020979
v -0.133566 0.100000 -0.079021
v -0.133566 0.200000 0.020979
v -0.133566 0.200000 -0.079021
v 0.066434 0.000000 0.120979
v 0.066434 0.000000 0.020979
v 0.066434 0.000000 -0.079021
v 0.066434 0.000000 -0.179021
v 0.066434 0.100000 0.220979
v 0.066434 0.100000 0.120979
v 0.066434 0.100000 0.020979
v 0.066434 0.100000 -0.079021
v 0.066434 0.100000 -0.179021
v 0.066434 0.200000 0.220979
v 0.066434 0.200000 0.120979
v 0.066434 0.200000 0.020979
v 0.066434 0.200000 -0.079021
v 0.066434 0.300000 0.020979
v 0.066434 0.300000 -0.079021
v 0.266434 0.000000 0.020979
v 0.266434 0.000000 -0.079021
v 0.266434 0.100000 0.020979
v 0.266434 0.100000 -0.079021
v -0.033566 0.100000 0.220979
v -0.033566 0.200000 0.220979
v 0.066434 0.100000 0.220979
v 0.066434 0.200000 0.220979
v -0.033566 0.000000 0.120979
v -0.033566 0.100000 0.120979
v 0.066434 0.000000 0.120979
v 0.066434 0.100000 0.120979
v -0.233566 0.100000 0.020979
v -0.233566 0.200000 0.020979
v -0.133566 0.000000 0.020979
v -0.133566 0.100000 0.020979
v -0.133566 0.200000 0.020979
v -0.033566 0.000000 0.020979
v -0.033566 0.100000 0.020979
v -0.033566 0.200000 0.020979
v -0.033566 0.300000 0.020979
v 0.066434 0.000000 0.020979
v 0.066434 0.100000 0.020979
v 0.066434 0.200000 0.020979
v 0.066434 0.300000 0.020979
v 0.166434 0.000000 0.020979
v 0.166434 0.100000 0.020979
v 0.266434 0.000000 0.020979
v 0.266434 0.100000 0.020979
v -0.033566 0.100000 0.120979
v -0.033566 0.200000 0.120979
v 0.066434 0.100000 0.120979
v 0.066434 0.200000 0.120979
v -0.233566 0.100000 -0.079021
v -0.233566 0.200000 -0.079021
v -0.133566 0.100000 -0.079021
v -0.133566 0.200000 -0.079021
v -0.033566 0.100000 -0.079021
v -0.033566 0.200000 -0.079021
v -0.033566 0.300000 -0.079021
v 0.066434 0.000000 -0.079021
v 0.066434 0.100000 -0.079021
v 0.066434 0.200000 -0.079021
v 0.066434 0.300000 -0.079021
v 0.166434 0.000000 -0.079021
v 0.166434 0.100000 -0.079021
v 0.266434 0.000000 -0.079021
v 0.266434 0.100000 -0.079021
v -0.133566 0.000000 -0.179021
v -0.133566 0.100000 -0.179021
v -0.033566 0.000000 -0.179021
v -0.033566 0.100000 -0.179021
v 0.066434 0.000000 -0.179021
v 0.066434 0.100000 -0.179021
v -0.033566 0.000000 0.120979
v 0.066434 0.000000 0.120979
v -0.133566 0.000000 0.020979
v -0.033566 0.000000 0.020979
v 0.066434 0.000000 0.020979
v 0.166434 0.000000 0.020979
v 0.266434 0.000000 0.020979
v -0.033566 0.000000 -0.079021
v 0.066434 0.000000 -0.079021
v 0.166434 0.000000 -0.079021
v 0.266434 0.000000 -0.079021
v -0.133566 0.000000 -0.179021
v -0.033566 0.000000 -0.179021
v 0.066434 0.000000 -0.179021
v -0.033566 0.100000 0.220979
v 0.066434 0.100000 0.220979
v -0.033566 0.100000 0.120979
v 0.066434 0.100000 0.120979
v -0.233566 0.100000 0.020979
v -0.133566 0.100000 0.020979
v -0.233566 0.100000 -0.079021
v -0.133566 0.100000 -0.079021
v -0.033566 0.100000 0.120979
v 0.066434 0.100000 0.120979
v -0.133566 0.100000 0.020979
v -0.033566 0.100000 0.020979
v 0.066434 0.100000 0.020979
v 0.166434 0.100000 0.020979
v 0.266434 0.100000 0.020979
v -0.133566 0.100000 -0.079021
v -0.033566 0.100000 -0.079021
v 0.066434 0.100000 -0.079021
v 0.166434 0.100000 -0.079021
v 0.266434 0.100000 -0.079021
v -0.133566 0.100000 -0.179021
v -0.033566 0.100000 -0.179021
v 0.066434 0.100000 -0.179021
v -0.033566 0.200000 0.220979
v 0.066434 0.200000 0.220979
v -0.033566 0.200000 0.120979
v 0.066434 0.200000 0.120979
v -0.233566 0.200000 0.020979
v -0.133566 0.200000 0.020979
v -0.233566 0.200000 -0.079021
v -0.133566 0.200000 -0.079021
v -0.033566 0.300000 0.020979
v 0.066434 0.300000 0.020979
v -0.033566 0.300000 -0.079021
v 0.066434 0.300000 -0.079021
vn -1.0000 -0.0000 -0.0000
vn 1.0000 -0.0000 -0.0000
vn -0.0000 -0.0000 1.0000
vn -0.0000 -0.0000 -1.0000
vn -0.0000 -1.0000 -0.0000
vn -0.0000 1.0000 -0.0000
vt 0.185547 0.500000
vt 0.017578 0.500000
vt 0.990234 0.500000
s 1
usemtl palette.004
f 3/1/1 2/1/1 1/1/1
f 4/1/1 2/1/1 3/1/1
f 7/2/1 6/2/1 5/2/1
f 8/2/1 6/2/1 7/2/1
f 9/2/1 6/2/1 8/2/1
f 13/2/1 11/2/1 10/2/1
f 14/2/1 11/2/1 13/2/1
f 16/2/1 13/2/1 12/2/1
f 17/2/1 13/2/1 16/2/1
f 18/1/1 15/1/1 14/1/1
f 19/1/1 15/1/1 18/1/1
f 20/3/1 19/3/1 18/3/1
f 21/3/1 19/3/1 20/3/1
f 22/1/2 23/1/2 24/1/2
f 24/1/2 23/1/2 25/1/2
f 26/2/2 27/2/2 31/2/2
f 31/2/2 27/2/2 32/2/2
f 28/1/2 29/1/2 33/1/2
f 33/1/2 29/1/2 34/1/2
f 30/2/2 31/2/2 35/2/2
f 35/2/2 31/2/2 36/2/2
f 32/1/2 33/1/2 37/1/2
f 37/1/2 33/1/2 38/1/2
f 37/3/2 38/3/2 39/3/2
f 39/3/2 38/3/2 40/3/2
f 41/1/2 42/1/2 43/1/2
f 43/1/2 42/1/2 44/1/2
f 47/2/3 46/2/3 45/2/3
f 48/2/3 46/2/3 47/2/3
f 51/2/3 50/2/3 49/2/3
f 52/2/3 50/2/3 51/2/3
f 56/1/3 54/1/3 53/1/3
f 57/1/3 54/1/3 56/1/3
f 58/2/3 56/2/3 55/2/3
f 59/2/3 56/2/3 58/2/3
f 63/1/3 60/1/3 59/1/3
f 64/3/3 61/3/3 60/3/3
f 64/1/3 60/1/3 63/1/3
f 65/3/3 61/3/3 64/3/3
f 66/2/3 63/2/3 62/2/3
f 67/2/3 63/2/3 66/2/3
f 68/1/3 67/1/3 66/1/3
f 69/1/3 67/1/3 68/1/3
f 70/2/4 71/2/4 72/2/4
f 72/2/4 71/2/4 73/2/4
f 74/1/4 75/1/4 76/1/4
f 76/1/4 75/1/4 77/1/4
f 78/1/4 79/1/4 82/1/4
f 79/3/4 80/3/4 83/3/4
f 82/1/4 79/1/4 83/1/4
f 83/3/4 80/3/4 84/3/4
f 81/2/4 82/2/4 85/2/4
f 85/2/4 82/2/4 86/2/4
f 85/1/4 86/1/4 87/1/4
f 87/1/4 86/1/4 88/1/4
f 89/2/4 90/2/4 91/2/4
f 91/2/4 90/2/4 92/2/4
f 91/1/4 92/1/4 93/1/4
f 93/1/4 92/1/4 94/1/4
f 98/2/5 96/2/5 95/2/5
f 99/2/5 96/2/5 98/2/5
f 102/2/5 98/2/5 97/2/5
f 102/2/5 99/2/5 98/2/5
f 102/2/5 100/2/5 99/2/5
f 103/2/5 100/2/5 102/2/5
f 104/1/5 101/1/5 100/1/5
f 104/2/5 100/2/5 103/2/5
f 105/1/5 101/1/5 104/1/5
f 106/2/5 102/2/5 97/2/5
f 107/1/5 103/1/5 102/1/5
f 107/2/5 102/2/5 106/2/5
f 108/1/5 103/1/5 107/1/5
f 111/2/5 110/2/5 109/2/5
f 112/2/5 110/2/5 111/2/5
f 115/1/5 114/1/5 113/1/5
f 116/1/5 114/1/5 115/1/5
f 117/2/6 118/2/6 120/2/6
f 120/2/6 118/2/6 121/2/6
f 119/2/6 120/2/6 124/2/6
f 124/2/6 120/2/6 125/2/6
f 121/2/6 122/2/6 126/2/6
f 122/1/6 123/1/6 127/1/6
f 126/2/6 122/2/6 127/2/6
f 127/1/6 123/1/6 128/1/6
f 124/2/6 125/2/6 129/2/6
f 125/1/6 126/1/6 130/1/6
f 129/2/6 125/2/6 130/2/6
f 130/1/6 126/1/6 131/1/6
f 132/2/6 133/2/6 134/2/6
f 134/2/6 133/2/6 135/2/6
f 136/1/6 137/1/6 138/1/6
f 138/1/6 137/1/6 139/1/6
f 140/3/6 141/3/6 142/3/6
f 142/3/6 141/3/6 143/3/6
