# Blender 4.2.3 LTS
# www.blender.org
mtllib Untitled.040.mtl
o Untitled.040
v -0.250000 0.300000 0.062000
v -0.250000 0.300000 -0.038000
v -0.250000 0.400000 0.062000
v -0.250000 0.400000 -0.038000
v -0.150000 0.000000 0.162000
v -0.150000 0.000000 -0.138000
v -0.150000 0.100000 0.162000
v -0.150000 0.100000 0.062000
v -0.150000 0.100000 -0.038000
v -0.150000 0.100000 -0.138000
v -0.150000 0.300000 0.062000
v -0.150000 0.300000 -0.038000
v -0.150000 0.400000 0.062000
v -0.150000 0.400000 -0.038000
v -0.150000 0.500000 0.162000
v -0.150000 0.500000 0.062000
v -0.150000 0.500000 -0.038000
v -0.150000 0.500000 -0.138000
v -0.150000 0.600000 0.162000
v -0.150000 0.600000 0.062000
v -0.150000 0.600000 -0.038000
v -0.150000 0.600000 -0.138000
v -0.150000 0.700000 0.062000
v -0.150000 0.700000 -0.038000
v -0.050000 0.100000 0.162000
v -0.050000 0.100000 0.062000
v -0.050000 0.100000 -0.038000
v -0.050000 0.100000 -0.138000
v -0.050000 0.300000 0.162000
v -0.050000 0.300000 0.062000
v -0.050000 0.300000 -0.038000
v -0.050000 0.300000 -0.138000
v -0.050000 0.300000 -0.238000
v -0.050000 0.400000 0.162000
v -0.050000 0.400000 0.062000
v -0.050000 0.400000 -0.038000
v -0.050000 0.400000 -0.138000
v -0.050000 0.400000 -0.238000
v -0.050000 0.500000 0.162000
v -0.050000 0.500000 0.062000
v -0.050000 0.500000 -0.038000
v -0.050000 0.500000 -0.138000
v -0.050000 0.600000 0.162000
v -0.050000 0.600000 0.062000
v -0.050000 0.600000 -0.038000
v -0.050000 0.600000 -0.138000
v -0.050000 0.700000 0.162000
v -0.050000 0.700000 0.062000
v -0.050000 0.700000 -0.038000
v -0.050000 0.700000 -0.138000
v -0.050000 0.800000 0.062000
v -0.050000 0.800000 -0.038000
v 0.050000 0.100000 0.162000
v 0.050000 0.100000 0.062000
v 0.050000 0.100000 -0.038000
v 0.050000 0.100000 -0.138000
v 0.050000 0.300000 0.162000
v 0.050000 0.300000 0.062000
v 0.050000 0.300000 -0.038000
v 0.050000 0.300000 -0.138000
v 0.050000 0.300000 -0.238000
v 0.050000 0.400000 0.162000
v 0.050000 0.400000 0.062000
v 0.050000 0.400000 -0.038000
v 0.050000 0.400000 -0.138000
v 0.050000 0.400000 -0.238000
v 0.050000 0.500000 0.162000
v 0.050000 0.500000 0.062000
v 0.050000 0.500000 -0.038000
v 0.050000 0.500000 -0.138000
v 0.050000 0.600000 0.162000
v 0.050000 0.600000 0.062000
v 0.050000 0.600000 -0.038000
v 0.050000 0.600000 -0.138000
v 0.050000 0.700000 0.162000
v 0.050000 0.700000 0.062000
v 0.050000 0.700000 -0.038000
v 0.050000 0.700000 -0.138000
v 0.050000 0.800000 0.062000
v 0.050000 0.800000 -0.038000
v 0.150000 0.000000 0.162000
v 0.150000 0.000000 -0.138000
v 0.150000 0.100000 0.162000
v 0.150000 0.100000 0.062000
v 0.150000 0.100000 -0.038000
v 0.150000 0.100000 -0.138000
v 0.150000 0.300000 0.062000
v 0.150000 0.300000 -0.038000
v 0.150000 0.400000 0.062000
v 0.150000 0.400000 -0.038000
v 0.150000 0.500000 0.162000
v 0.150000 0.500000 0.062000
v 0.150000 0.500000 -0.038000
v 0.150000 0.500000 -0.138000
v 0.150000 0.600000 0.162000
v 0.150000 0.600000 0.062000
v 0.150000 0.600000 -0.038000
v 0.150000 0.600000 -0.138000
v 0.150000 0.700000 0.062000
v 0.150000 0.700000 -0.038000
v 0.250000 0.300000 0.062000
v 0.250000 0.300000 -0.038000
v 0.250000 0.400000 0.062000
v 0.250000 0.400000 -0.038000
v -0.150000 0.000000 0.162000
v -0.150000 0.100000 0.162000
v -0.150000 0.500000 0.162000
v -0.150000 0.600000 0.162000
v -0.050000 0.100000 0.162000
v -0.050000 0.300000 0.162000
v -0.050000 0.400000 0.162000
v -0.050000 0.500000 0.162000
v -0.050000 0.600000 0.162000
v -0.050000 0.700000 0.162000
v 0.050000 0.100000 0.162000
v 0.050000 0.300000 0.162000
v 0.050000 0.400000 0.162000
v 0.050000 0.500000 0.162000
v 0.050000 0.600000 0.162000
v 0.050000 0.700000 0.162000
v 0.150000 0.000000 0.162000
v 0.150000 0.100000 0.162000
v 0.150000 0.500000 0.162000
v 0.150000 0.600000 0.162000
v -0.250000 0.300000 0.062000
v -0.250000 0.400000 0.062000
v -0.150000 0.100000 0.062000
v -0.150000 0.300000 0.062000
v -0.150000 0.400000 0.062000
v -0.150000 0.500000 0.062000
v -0.150000 0.600000 0.062000
v -0.150000 0.700000 0.062000
v -0.050000 0.100000 0.062000
v -0.050000 0.300000 0.062000
v -0.050000 0.400000 0.062000
v -0.050000 0.500000 0.062000
v -0.050000 0.600000 0.062000
v -0.050000 0.700000 0.062000
v -0.050000 0.800000 0.062000
v 0.050000 0.100000 0.062000
v 0.050000 0.300000 0.062000
v 0.050000 0.400000 0.062000
v 0.050000 0.500000 0.062000
v 0.050000 0.600000 0.062000
v 0.050000 0.700000 0.062000
v 0.050000 0.800000 0.062000
v 0.150000 0.100000 0.062000
v 0.150000 0.300000 0.062000
v 0.150000 0.400000 0.062000
v 0.150000 0.500000 0.062000
v 0.150000 0.600000 0.062000
v 0.150000 0.700000 0.062000
v 0.250000 0.300000 0.062000
v 0.250000 0.400000 0.062000
v -0.250000 0.300000 -0.038000
v -0.250000 0.400000 -0.038000
v -0.150000 0.100000 -0.038000
v -0.150000 0.300000 -0.038000
v -0.150000 0.400000 -0.038000
v -0.150000 0.500000 -0.038000
v -0.150000 0.600000 -0.038000
v -0.150000 0.700000 -0.038000
v -0.050000 0.100000 -0.038000
v -0.050000 0.300000 -0.038000
v -0.050000 0.400000 -0.038000
v -0.050000 0.500000 -0.038000
v -0.050000 0.600000 -0.038000
v -0.050000 0.700000 -0.038000
v -0.050000 0.800000 -0.038000
v 0.050000 0.100000 -0.038000
v 0.050000 0.300000 -0.038000
v 0.050000 0.400000 -0.038000
v 0.050000 0.500000 -0.038000
v 0.050000 0.600000 -0.038000
v 0.050000 0.700000 -0.038000
v 0.050000 0.800000 -0.038000
v 0.150000 0.100000 -0.038000
v 0.150000 0.300000 -0.038000
v 0.150000 0.400000 -0.038000
v 0.150000 0.500000 -0.038000
v 0.150000 0.600000 -0.038000
v 0.150000 0.700000 -0.038000
v 0.250000 0.300000 -0.038000
v 0.250000 0.400000 -0.038000
v -0.150000 0.000000 -0.138000
v -0.150000 0.100000 -0.138000
v -0.150000 0.500000 -0.138000
v -0.150000 0.600000 -0.138000
v -0.050000 0.100000 -0.138000
v -0.050000 0.300000 -0.138000
v -0.050000 0.400000 -0.138000
v -0.050000 0.500000 -0.138000
v -0.050000 0.600000 -0.138000
v -0.050000 0.700000 -0.138000
v 0.050000 0.100000 -0.138000
v 0.050000 0.300000 -0.138000
v 0.050000 0.400000 -0.138000
v 0.050000 0.500000 -0.138000
v 0.050000 0.600000 -0.138000
v 0.050000 0.700000 -0.138000
v 0.150000 0.000000 -0.138000
v 0.150000 0.100000 -0.138000
v 0.150000 0.500000 -0.138000
v 0.150000 0.600000 -0.138000
v -0.050000 0.300000 -0.238000
v -0.050000 0.400000 -0.238000
v 0.050000 0.300000 -0.238000
v 0.050000 0.400000 -0.238000
v -0.150000 0.000000 0.162000
v 0.150000 0.000000 0.162000
v -0.150000 0.000000 -0.138000
v 0.150000 0.000000 -0.138000
v -0.250000 0.300000 0.062000
v -0.150000 0.300000 0.062000
v 0.150000 0.300000 0.062000
v 0.250000 0.300000 0.062000
v -0.250000 0.300000 -0.038000
v -0.150000 0.300000 -0.038000
v 0.150000 0.300000 -0.038000
v 0.250000 0.300000 -0.038000
v -0.050000 0.300000 -0.138000
v 0.050000 0.300000 -0.138000
v -0.050000 0.300000 -0.238000
v 0.050000 0.300000 -0.238000
v -0.150000 0.500000 0.162000
v -0.050000 0.500000 0.162000
v 0.050000 0.500000 0.162000
v 0.150000 0.500000 0.162000
v -0.150000 0.500000 0.062000
v -0.050000 0.500000 0.062000
v 0.050000 0.500000 0.062000
v 0.150000 0.500000 0.062000
v -0.150000 0.500000 -0.038000
v -0.050000 0.500000 -0.038000
v 0.050000 0.500000 -0.038000
v 0.150000 0.500000 -0.038000
v -0.150000 0.500000 -0.138000
v -0.050000 0.500000 -0.138000
v 0.050000 0.500000 -0.138000
v 0.150000 0.500000 -0.138000
v -0.150000 0.100000 0.162000
v -0.050000 0.100000 0.162000
v 0.050000 0.100000 0.162000
v 0.150000 0.100000 0.162000
v -0.150000 0.100000 0.062000
v -0.050000 0.100000 0.062000
v 0.050000 0.100000 0.062000
v 0.150000 0.100000 0.062000
v -0.150000 0.100000 -0.038000
v -0.050000 0.100000 -0.038000
v 0.050000 0.100000 -0.038000
v 0.150000 0.100000 -0.038000
v -0.150000 0.100000 -0.138000
v -0.050000 0.100000 -0.138000
v 0.050000 0.100000 -0.138000
v 0.150000 0.100000 -0.138000
v -0.250000 0.400000 0.062000
v -0.150000 0.400000 0.062000
v 0.150000 0.400000 0.062000
v 0.250000 0.400000 0.062000
v -0.250000 0.400000 -0.038000
v -0.150000 0.400000 -0.038000
v 0.150000 0.400000 -0.038000
v 0.250000 0.400000 -0.038000
v -0.050000 0.400000 -0.138000
v 0.050000 0.400000 -0.138000
v -0.050000 0.400000 -0.238000
v 0.050000 0.400000 -0.238000
v -0.150000 0.600000 0.162000
v -0.050000 0.600000 0.162000
v 0.050000 0.600000 0.162000
v 0.150000 0.600000 0.162000
v -0.150000 0.600000 0.062000
v -0.050000 0.600000 0.062000
v 0.050000 0.600000 0.062000
v 0.150000 0.600000 0.062000
v -0.150000 0.600000 -0.038000
v -0.050000 0.600000 -0.038000
v 0.050000 0.600000 -0.038000
v 0.150000 0.600000 -0.038000
v -0.150000 0.600000 -0.138000
v -0.050000 0.600000 -0.138000
v 0.050000 0.600000 -0.138000
v 0.150000 0.600000 -0.138000
v -0.050000 0.700000 0.162000
v 0.050000 0.700000 0.162000
v -0.150000 0.700000 0.062000
v -0.050000 0.700000 0.062000
v 0.050000 0.700000 0.062000
v 0.150000 0.700000 0.062000
v -0.150000 0.700000 -0.038000
v -0.050000 0.700000 -0.038000
v 0.050000 0.700000 -0.038000
v 0.150000 0.700000 -0.038000
v -0.050000 0.700000 -0.138000
v 0.050000 0.700000 -0.138000
v -0.050000 0.800000 0.062000
v 0.050000 0.800000 0.062000
v -0.050000 0.800000 -0.038000
v 0.050000 0.800000 -0.038000
vn -1.0000 -0.0000 -0.0000
vn 1.0000 -0.0000 -0.0000
vn -0.0000 -0.0000 1.0000
vn -0.0000 -0.0000 -1.0000
vn -0.0000 -1.0000 -0.0000
vn -0.0000 1.0000 -0.0000
vt 0.982422 0.500000
vt 0.861328 0.500000
vt 0.853516 0.500000
vt 0.845703 0.500000
vt 0.857422 0.500000
s 0
usemtl palette.039
f 3/1/1 2/1/1 1/1/1
f 4/1/1 2/1/1 3/1/1
f 7/2/1 6/2/1 5/2/1
f 8/2/1 6/2/1 7/2/1
f 9/2/1 6/2/1 8/2/1
f 10/2/1 6/2/1 9/2/1
f 11/3/1 9/3/1 8/3/1
f 12/3/1 9/3/1 11/3/1
f 16/3/1 14/3/1 13/3/1
f 17/3/1 14/3/1 16/3/1
f 19/4/1 17/4/1 16/4/1
f 19/4/1 18/4/1 17/4/1
f 19/4/1 16/4/1 15/4/1
f 20/4/1 18/4/1 19/4/1
f 21/4/1 18/4/1 20/4/1
f 22/4/1 18/4/1 21/4/1
f 23/3/1 21/3/1 20/3/1
f 24/3/1 21/3/1 23/3/1
f 29/3/1 26/3/1 25/3/1
f 30/3/1 26/3/1 29/3/1
f 31/3/1 28/3/1 27/3/1
f 32/3/1 28/3/1 31/3/1
f 34/5/1 30/5/1 29/5/1
f 35/5/1 30/5/1 34/5/1
f 36/5/1 32/5/1 31/5/1
f 37/1/1 33/1/1 32/1/1
f 37/5/1 32/5/1 36/5/1
f 38/1/1 33/1/1 37/1/1
f 39/3/1 35/3/1 34/3/1
f 40/3/1 35/3/1 39/3/1
f 41/3/1 37/3/1 36/3/1
f 42/3/1 37/3/1 41/3/1
f 47/3/1 44/3/1 43/3/1
f 48/3/1 44/3/1 47/3/1
f 49/3/1 46/3/1 45/3/1
f 50/3/1 46/3/1 49/3/1
f 51/3/1 49/3/1 48/3/1
f 52/3/1 49/3/1 51/3/1
f 53/3/2 54/3/2 57/3/2
f 57/3/2 54/3/2 58/3/2
f 55/3/2 56/3/2 59/3/2
f 59/3/2 56/3/2 60/3/2
f 57/5/2 58/5/2 62/5/2
f 62/5/2 58/5/2 63/5/2
f 59/5/2 60/5/2 64/5/2
f 60/1/2 61/1/2 65/1/2
f 64/5/2 60/5/2 65/5/2
f 65/1/2 61/1/2 66/1/2
f 62/3/2 63/3/2 67/3/2
f 67/3/2 63/3/2 68/3/2
f 64/3/2 65/3/2 69/3/2
f 69/3/2 65/3/2 70/3/2
f 71/3/2 72/3/2 75/3/2
f 75/3/2 72/3/2 76/3/2
f 73/3/2 74/3/2 77/3/2
f 77/3/2 74/3/2 78/3/2
f 76/3/2 77/3/2 79/3/2
f 79/3/2 77/3/2 80/3/2
f 81/2/2 82/2/2 83/2/2
f 83/2/2 82/2/2 84/2/2
f 84/2/2 82/2/2 85/2/2
f 85/2/2 82/2/2 86/2/2
f 84/3/2 85/3/2 87/3/2
f 87/3/2 85/3/2 88/3/2
f 89/3/2 90/3/2 92/3/2
f 92/3/2 90/3/2 93/3/2
f 92/4/2 93/4/2 95/4/2
f 93/4/2 94/4/2 95/4/2
f 91/4/2 92/4/2 95/4/2
f 95/4/2 94/4/2 96/4/2
f 96/4/2 94/4/2 97/4/2
f 97/4/2 94/4/2 98/4/2
f 96/3/2 97/3/2 99/3/2
f 99/3/2 97/3/2 100/3/2
f 101/1/2 102/1/2 103/1/2
f 103/1/2 102/1/2 104/1/2
f 109/2/3 106/2/3 105/2/3
f 112/4/3 108/4/3 107/4/3
f 113/4/3 108/4/3 112/4/3
f 115/2/3 109/2/3 105/2/3
f 115/3/3 110/3/3 109/3/3
f 116/5/3 111/5/3 110/5/3
f 116/3/3 110/3/3 115/3/3
f 117/3/3 112/3/3 111/3/3
f 117/5/3 111/5/3 116/5/3
f 118/4/3 113/4/3 112/4/3
f 118/3/3 112/3/3 117/3/3
f 119/3/3 114/3/3 113/3/3
f 119/4/3 113/4/3 118/4/3
f 120/3/3 114/3/3 119/3/3
f 121/2/3 115/2/3 105/2/3
f 122/2/3 115/2/3 121/2/3
f 123/4/3 119/4/3 118/4/3
f 124/4/3 119/4/3 123/4/3
f 128/1/3 126/1/3 125/1/3
f 129/1/3 126/1/3 128/1/3
f 133/3/3 128/3/3 127/3/3
f 134/5/3 129/5/3 128/5/3
f 134/3/3 128/3/3 133/3/3
f 135/3/3 130/3/3 129/3/3
f 135/5/3 129/5/3 134/5/3
f 136/3/3 130/3/3 135/3/3
f 137/3/3 132/3/3 131/3/3
f 138/3/3 132/3/3 137/3/3
f 145/3/3 139/3/3 138/3/3
f 146/3/3 139/3/3 145/3/3
f 147/3/3 141/3/3 140/3/3
f 148/5/3 142/5/3 141/5/3
f 148/3/3 141/3/3 147/3/3
f 149/3/3 143/3/3 142/3/3
f 149/5/3 142/5/3 148/5/3
f 150/3/3 143/3/3 149/3/3
f 151/3/3 145/3/3 144/3/3
f 152/3/3 145/3/3 151/3/3
f 153/1/3 149/1/3 148/1/3
f 154/1/3 149/1/3 153/1/3
f 155/1/4 156/1/4 158/1/4
f 158/1/4 156/1/4 159/1/4
f 157/3/4 158/3/4 163/3/4
f 158/5/4 159/5/4 164/5/4
f 163/3/4 158/3/4 164/3/4
f 159/3/4 160/3/4 165/3/4
f 164/5/4 159/5/4 165/5/4
f 165/3/4 160/3/4 166/3/4
f 161/3/4 162/3/4 167/3/4
f 167/3/4 162/3/4 168/3/4
f 168/3/4 169/3/4 175/3/4
f 175/3/4 169/3/4 176/3/4
f 170/3/4 171/3/4 177/3/4
f 171/5/4 172/5/4 178/5/4
f 177/3/4 171/3/4 178/3/4
f 172/3/4 173/3/4 179/3/4
f 178/5/4 172/5/4 179/5/4
f 179/3/4 173/3/4 180/3/4
f 174/3/4 175/3/4 181/3/4
f 181/3/4 175/3/4 182/3/4
f 178/1/4 179/1/4 183/1/4
f 183/1/4 179/1/4 184/1/4
f 185/2/4 186/2/4 189/2/4
f 187/4/4 188/4/4 192/4/4
f 192/4/4 188/4/4 193/4/4
f 189/3/4 190/3/4 195/3/4
f 185/2/4 189/2/4 195/2/4
f 195/3/4 190/3/4 196/3/4
f 191/3/4 192/3/4 197/3/4
f 192/4/4 193/4/4 198/4/4
f 197/3/4 192/3/4 198/3/4
f 193/3/4 194/3/4 199/3/4
f 198/4/4 193/4/4 199/4/4
f 199/3/4 194/3/4 200/3/4
f 185/2/4 195/2/4 201/2/4
f 201/2/4 195/2/4 202/2/4
f 198/4/4 199/4/4 203/4/4
f 203/4/4 199/4/4 204/4/4
f 205/1/4 206/1/4 207/1/4
f 207/1/4 206/1/4 208/1/4
f 211/2/5 210/2/5 209/2/5
f 212/2/5 210/2/5 211/2/5
f 217/1/5 214/1/5 213/1/5
f 218/1/5 214/1/5 217/1/5
f 219/1/5 216/1/5 215/1/5
f 220/1/5 216/1/5 219/1/5
f 223/1/5 222/1/5 221/1/5
f 224/1/5 222/1/5 223/1/5
f 229/4/5 226/4/5 225/4/5
f 230/4/5 226/4/5 229/4/5
f 231/4/5 228/4/5 227/4/5
f 232/4/5 228/4/5 231/4/5
f 237/4/5 234/4/5 233/4/5
f 238/4/5 234/4/5 237/4/5
f 239/4/5 236/4/5 235/4/5
f 240/4/5 236/4/5 239/4/5
f 241/2/6 242/2/6 245/2/6
f 245/2/6 242/2/6 246/2/6
f 243/2/6 244/2/6 247/2/6
f 247/2/6 244/2/6 248/2/6
f 249/2/6 250/2/6 253/2/6
f 253/2/6 250/2/6 254/2/6
f 251/2/6 252/2/6 255/2/6
f 255/2/6 252/2/6 256/2/6
f 257/1/6 258/1/6 261/1/6
f 261/1/6 258/1/6 262/1/6
f 259/1/6 260/1/6 263/1/6
f 263/1/6 260/1/6 264/1/6
f 265/1/6 266/1/6 267/1/6
f 267/1/6 266/1/6 268/1/6
f 269/4/6 270/4/6 273/4/6
f 273/4/6 270/4/6 274/4/6
f 271/4/6 272/4/6 275/4/6
f 275/4/6 272/4/6 276/4/6
f 277/4/6 278/4/6 281/4/6
f 281/4/6 278/4/6 282/4/6
f 279/4/6 280/4/6 283/4/6
f 283/4/6 280/4/6 284/4/6
f 285/3/6 286/3/6 288/3/6
f 288/3/6 286/3/6 289/3/6
f 287/3/6 288/3/6 291/3/6
f 291/3/6 288/3/6 292/3/6
f 289/3/6 290/3/6 293/3/6
f 293/3/6 290/3/6 294/3/6
f 292/3/6 293/3/6 295/3/6
f 295/3/6 293/3/6 296/3/6
f 297/3/6 298/3/6 299/3/6
f 299/3/6 298/3/6 300/3/6
