# Blender 4.2.3 LTS
# www.blender.org
mtllib Untitled.101.mtl
o Untitled.101
v -0.450000 2.100000 0.064368
v -0.450000 2.100000 -0.035632
v -0.450000 2.300000 0.064368
v -0.450000 2.300000 -0.035632
v -0.350000 2.300000 0.064368
v -0.350000 2.300000 -0.035632
v -0.350000 2.500000 0.064368
v -0.350000 2.500000 -0.035632
v -0.250000 2.500000 0.064368
v -0.250000 2.500000 -0.035632
v -0.250000 2.600000 0.064368
v -0.250000 2.600000 -0.035632
v -0.150000 2.600000 0.064368
v -0.150000 2.600000 -0.035632
v -0.150000 2.700000 0.064368
v -0.150000 2.700000 -0.035632
v -0.050000 0.000000 -0.035632
v -0.050000 0.000000 -0.135632
v -0.050000 2.100000 -0.035632
v -0.050000 2.200000 -0.035632
v -0.050000 2.600000 -0.035632
v -0.050000 2.700000 0.064368
v -0.050000 2.700000 -0.035632
v -0.050000 2.700000 -0.135632
v -0.050000 2.800000 0.064368
v -0.050000 2.800000 -0.035632
v 0.050000 0.000000 -0.035632
v 0.050000 0.000000 -0.135632
v 0.050000 2.100000 -0.035632
v 0.050000 2.200000 -0.035632
v 0.050000 2.600000 -0.035632
v 0.050000 2.700000 0.064368
v 0.050000 2.700000 -0.035632
v 0.050000 2.700000 -0.135632
v 0.050000 2.800000 0.064368
v 0.050000 2.800000 -0.035632
v 0.150000 2.600000 0.064368
v 0.150000 2.600000 -0.035632
v 0.150000 2.700000 0.064368
v 0.150000 2.700000 -0.035632
v 0.250000 2.500000 0.064368
v 0.250000 2.500000 -0.035632
v 0.250000 2.600000 0.064368
v 0.250000 2.600000 -0.035632
v 0.350000 2.300000 0.064368
v 0.350000 2.300000 -0.035632
v 0.350000 2.500000 0.064368
v 0.350000 2.500000 -0.035632
v 0.450000 2.100000 0.064368
v 0.450000 2.100000 -0.035632
v 0.450000 2.300000 0.064368
v 0.450000 2.300000 -0.035632
v -0.450000 2.100000 0.064368
v -0.450000 2.300000 0.064368
v -0.350000 2.200000 0.064368
v -0.350000 2.300000 0.064368
v -0.350000 2.500000 0.064368
v -0.250000 2.300000 0.064368
v -0.250000 2.500000 0.064368
v -0.250000 2.600000 0.064368
v -0.150000 2.500000 0.064368
v -0.150000 2.600000 0.064368
v -0.150000 2.700000 0.064368
v -0.050000 2.200000 0.064368
v -0.050000 2.300000 0.064368
v -0.050000 2.400000 0.064368
v -0.050000 2.600000 0.064368
v -0.050000 2.700000 0.064368
v -0.050000 2.800000 0.064368
v 0.050000 2.200000 0.064368
v 0.050000 2.300000 0.064368
v 0.050000 2.400000 0.064368
v 0.050000 2.600000 0.064368
v 0.050000 2.700000 0.064368
v 0.050000 2.800000 0.064368
v 0.150000 2.500000 0.064368
v 0.150000 2.600000 0.064368
v 0.150000 2.700000 0.064368
v 0.250000 2.300000 0.064368
v 0.250000 2.500000 0.064368
v 0.250000 2.600000 0.064368
v 0.350000 2.200000 0.064368
v 0.350000 2.300000 0.064368
v 0.350000 2.500000 0.064368
v 0.450000 2.100000 0.064368
v 0.450000 2.300000 0.064368
v -0.050000 0.000000 -0.035632
v -0.050000 2.100000 -0.035632
v 0.050000 0.000000 -0.035632
v 0.050000 2.100000 -0.035632
v -0.450000 2.100000 -0.035632
v -0.450000 2.300000 -0.035632
v -0.350000 2.200000 -0.035632
v -0.350000 2.300000 -0.035632
v -0.350000 2.500000 -0.035632
v -0.250000 2.300000 -0.035632
v -0.250000 2.500000 -0.035632
v -0.250000 2.600000 -0.035632
v -0.150000 2.500000 -0.035632
v -0.150000 2.600000 -0.035632
v -0.150000 2.700000 -0.035632
v -0.050000 2.100000 -0.035632
v -0.050000 2.200000 -0.035632
v -0.050000 2.600000 -0.035632
v -0.050000 2.700000 -0.035632
v -0.050000 2.800000 -0.035632
v 0.050000 2.100000 -0.035632
v 0.050000 2.200000 -0.035632
v 0.050000 2.600000 -0.035632
v 0.050000 2.700000 -0.035632
v 0.050000 2.800000 -0.035632
v 0.150000 2.500000 -0.035632
v 0.150000 2.600000 -0.035632
v 0.150000 2.700000 -0.035632
v 0.250000 2.300000 -0.035632
v 0.250000 2.500000 -0.035632
v 0.250000 2.600000 -0.035632
v 0.350000 2.200000 -0.035632
v 0.350000 2.300000 -0.035632
v 0.350000 2.500000 -0.035632
v 0.450000 2.100000 -0.035632
v 0.450000 2.300000 -0.035632
v -0.050000 0.000000 -0.135632
v -0.050000 2.700000 -0.135632
v 0.050000 0.000000 -0.135632
v 0.050000 2.700000 -0.135632
v -0.050000 0.000000 -0.035632
v 0.050000 0.000000 -0.035632
v -0.050000 0.000000 -0.135632
v 0.050000 0.000000 -0.135632
v -0.450000 2.100000 0.064368
v 0.450000 2.100000 0.064368
v -0.450000 2.100000 -0.035632
v -0.050000 2.100000 -0.035632
v 0.050000 2.100000 -0.035632
v 0.450000 2.100000 -0.035632
v -0.450000 2.300000 0.064368
v -0.350000 2.300000 0.064368
v 0.350000 2.300000 0.064368
v 0.450000 2.300000 0.064368
v -0.450000 2.300000 -0.035632
v -0.350000 2.300000 -0.035632
v 0.350000 2.300000 -0.035632
v 0.450000 2.300000 -0.035632
v -0.350000 2.500000 0.064368
v -0.250000 2.500000 0.064368
v 0.250000 2.500000 0.064368
v 0.350000 2.500000 0.064368
v -0.350000 2.500000 -0.035632
v -0.250000 2.500000 -0.035632
v 0.250000 2.500000 -0.035632
v 0.350000 2.500000 -0.035632
v -0.250000 2.600000 0.064368
v -0.150000 2.600000 0.064368
v 0.150000 2.600000 0.064368
v 0.250000 2.600000 0.064368
v -0.250000 2.600000 -0.035632
v -0.150000 2.600000 -0.035632
v 0.150000 2.600000 -0.035632
v 0.250000 2.600000 -0.035632
v -0.150000 2.700000 0.064368
v -0.050000 2.700000 0.064368
v 0.050000 2.700000 0.064368
v 0.150000 2.700000 0.064368
v -0.150000 2.700000 -0.035632
v -0.050000 2.700000 -0.035632
v 0.050000 2.700000 -0.035632
v 0.150000 2.700000 -0.035632
v -0.050000 2.700000 -0.135632
v 0.050000 2.700000 -0.135632
v -0.050000 2.800000 0.064368
v 0.050000 2.800000 0.064368
v -0.050000 2.800000 -0.035632
v 0.050000 2.800000 -0.035632
vn -1.0000 -0.0000 -0.0000
vn 1.0000 -0.0000 -0.0000
vn -0.0000 -0.0000 1.0000
vn -0.0000 -0.0000 -1.0000
vn -0.0000 -1.0000 -0.0000
vn -0.0000 1.0000 -0.0000
vt 0.841797 0.500000
vt 0.974609 0.500000
vt 0.181641 0.500000
vt 0.994141 0.500000
s 0
usemtl palette.100
f 3/1/1 2/1/1 1/1/1
f 4/1/1 2/1/1 3/1/1
f 7/1/1 6/1/1 5/1/1
f 8/1/1 6/1/1 7/1/1
f 11/1/1 10/1/1 9/1/1
f 12/1/1 10/1/1 11/1/1
f 15/1/1 14/1/1 13/1/1
f 16/1/1 14/1/1 15/1/1
f 19/2/1 18/2/1 17/2/1
f 20/2/1 18/2/1 19/2/1
f 21/2/1 18/2/1 20/2/1
f 23/2/1 18/2/1 21/2/1
f 24/2/1 18/2/1 23/2/1
f 25/1/1 23/1/1 22/1/1
f 26/1/1 23/1/1 25/1/1
f 27/2/2 28/2/2 29/2/2
f 29/2/2 28/2/2 30/2/2
f 30/2/2 28/2/2 31/2/2
f 31/2/2 28/2/2 33/2/2
f 33/2/2 28/2/2 34/2/2
f 32/1/2 33/1/2 35/1/2
f 35/1/2 33/1/2 36/1/2
f 37/1/2 38/1/2 39/1/2
f 39/1/2 38/1/2 40/1/2
f 41/1/2 42/1/2 43/1/2
f 43/1/2 42/1/2 44/1/2
f 45/1/2 46/1/2 47/1/2
f 47/1/2 46/1/2 48/1/2
f 49/1/2 50/1/2 51/1/2
f 51/1/2 50/1/2 52/1/2
f 55/1/3 54/1/3 53/1/3
f 56/1/3 54/1/3 55/1/3
f 58/3/3 56/3/3 55/3/3
f 58/1/3 57/1/3 56/1/3
f 59/1/3 57/1/3 58/1/3
f 61/3/3 59/3/3 58/3/3
f 61/1/3 60/1/3 59/1/3
f 62/1/3 60/1/3 61/1/3
f 64/1/3 55/1/3 53/1/3
f 64/3/3 58/3/3 55/3/3
f 64/3/3 62/3/3 61/3/3
f 64/3/3 61/3/3 58/3/3
f 65/3/3 62/3/3 64/3/3
f 66/3/3 62/3/3 65/3/3
f 67/1/3 63/1/3 62/1/3
f 67/3/3 62/3/3 66/3/3
f 68/1/3 63/1/3 67/1/3
f 70/1/3 64/1/3 53/1/3
f 70/4/3 65/4/3 64/4/3
f 71/3/3 66/3/3 65/3/3
f 71/4/3 65/4/3 70/4/3
f 72/4/3 67/4/3 66/4/3
f 72/3/3 66/3/3 71/3/3
f 73/3/3 68/3/3 67/3/3
f 73/4/3 67/4/3 72/4/3
f 74/1/3 69/1/3 68/1/3
f 74/3/3 68/3/3 73/3/3
f 75/1/3 69/1/3 74/1/3
f 76/3/3 73/3/3 72/3/3
f 76/3/3 72/3/3 71/3/3
f 76/3/3 71/3/3 70/3/3
f 77/1/3 74/1/3 73/1/3
f 77/3/3 73/3/3 76/3/3
f 78/1/3 74/1/3 77/1/3
f 79/3/3 76/3/3 70/3/3
f 80/1/3 77/1/3 76/1/3
f 80/3/3 76/3/3 79/3/3
f 81/1/3 77/1/3 80/1/3
f 82/1/3 70/1/3 53/1/3
f 82/3/3 79/3/3 70/3/3
f 83/1/3 80/1/3 79/1/3
f 83/3/3 79/3/3 82/3/3
f 84/1/3 80/1/3 83/1/3
f 85/1/3 82/1/3 53/1/3
f 85/1/3 83/1/3 82/1/3
f 86/1/3 83/1/3 85/1/3
f 89/2/3 88/2/3 87/2/3
f 90/2/3 88/2/3 89/2/3
f 91/1/4 92/1/4 93/1/4
f 93/1/4 92/1/4 94/1/4
f 93/3/4 94/3/4 96/3/4
f 94/1/4 95/1/4 96/1/4
f 96/1/4 95/1/4 97/1/4
f 96/3/4 97/3/4 99/3/4
f 97/1/4 98/1/4 99/1/4
f 99/1/4 98/1/4 100/1/4
f 91/1/4 93/1/4 102/1/4
f 93/3/4 96/3/4 103/3/4
f 102/1/4 93/1/4 103/1/4
f 96/3/4 99/3/4 103/3/4
f 99/3/4 100/3/4 103/3/4
f 100/1/4 101/1/4 104/1/4
f 103/3/4 100/3/4 104/3/4
f 104/1/4 101/1/4 105/1/4
f 105/1/4 106/1/4 110/1/4
f 110/1/4 106/1/4 111/1/4
f 108/3/4 109/3/4 112/3/4
f 109/1/4 110/1/4 113/1/4
f 112/3/4 109/3/4 113/3/4
f 113/1/4 110/1/4 114/1/4
f 108/3/4 112/3/4 115/3/4
f 112/1/4 113/1/4 116/1/4
f 115/3/4 112/3/4 116/3/4
f 116/1/4 113/1/4 117/1/4
f 107/1/4 108/1/4 118/1/4
f 108/3/4 115/3/4 118/3/4
f 115/1/4 116/1/4 119/1/4
f 118/3/4 115/3/4 119/3/4
f 119/1/4 116/1/4 120/1/4
f 107/1/4 118/1/4 121/1/4
f 118/1/4 119/1/4 121/1/4
f 121/1/4 119/1/4 122/1/4
f 123/2/4 124/2/4 125/2/4
f 125/2/4 124/2/4 126/2/4
f 129/2/5 128/2/5 127/2/5
f 130/2/5 128/2/5 129/2/5
f 133/1/5 132/1/5 131/1/5
f 134/1/5 132/1/5 133/1/5
f 135/1/5 132/1/5 134/1/5
f 136/1/5 132/1/5 135/1/5
f 137/1/6 138/1/6 141/1/6
f 141/1/6 138/1/6 142/1/6
f 139/1/6 140/1/6 143/1/6
f 143/1/6 140/1/6 144/1/6
f 145/1/6 146/1/6 149/1/6
f 149/1/6 146/1/6 150/1/6
f 147/1/6 148/1/6 151/1/6
f 151/1/6 148/1/6 152/1/6
f 153/1/6 154/1/6 157/1/6
f 157/1/6 154/1/6 158/1/6
f 155/1/6 156/1/6 159/1/6
f 159/1/6 156/1/6 160/1/6
f 161/1/6 162/1/6 165/1/6
f 165/1/6 162/1/6 166/1/6
f 163/1/6 164/1/6 167/1/6
f 167/1/6 164/1/6 168/1/6
f 166/2/6 167/2/6 169/2/6
f 169/2/6 167/2/6 170/2/6
f 171/1/6 172/1/6 173/1/6
f 173/1/6 172/1/6 174/1/6
