# Blender 4.2.3 LTS
# www.blender.org
mtllib Untitled.073.mtl
o Untitled.073
v -5.106756 0.000001 6.518919
v -5.106756 0.000000 -6.181081
v -5.106756 0.100001 6.518919
v -5.106756 0.100000 -6.181081
v 0.193244 0.000001 6.518919
v 0.193244 0.000001 3.018919
v 0.193244 0.000000 -2.681081
v 0.193244 0.000000 -6.181081
v 0.193244 0.100001 6.518919
v 0.193244 0.100001 3.018919
v 0.193244 0.100000 -2.681081
v 0.193244 0.100000 -6.181081
v 0.293244 0.000001 3.018919
v 0.293244 0.000001 2.918919
v 0.293244 0.000000 -2.581081
v 0.293244 0.000000 -2.681081
v 0.293244 0.100001 3.018919
v 0.293244 0.100001 2.918919
v 0.293244 0.100000 -2.581081
v 0.293244 0.100000 -2.681081
v 0.393244 0.000001 2.918919
v 0.393244 0.000001 2.818919
v 0.393244 0.000000 -2.481081
v 0.393244 0.000000 -2.581081
v 0.393244 0.100001 2.918919
v 0.393244 0.100001 2.818919
v 0.393244 0.100000 -2.481081
v 0.393244 0.100000 -2.581081
v 3.893244 0.000001 2.818919
v 3.893244 0.000001 2.618919
v 3.893244 0.000001 2.518919
v 3.893244 0.000000 0.318919
v 3.893244 0.000000 0.218919
v 3.893244 0.000000 0.118919
v 3.893244 0.000000 0.018919
v 3.893244 0.000000 -2.181081
v 3.893244 0.000000 -2.281081
v 3.893244 0.000000 -2.481081
v 3.893244 0.100001 2.818919
v 3.893244 0.100001 2.618919
v 3.893244 0.100001 2.518919
v 3.893244 0.100000 0.318919
v 3.893244 0.100000 0.218919
v 3.893244 0.100000 0.118919
v 3.893244 0.100000 0.018919
v 3.893244 0.100000 -2.181081
v 3.893244 0.100000 -2.281081
v 3.893244 0.100000 -2.481081
v -5.106756 0.000001 6.518919
v -5.106756 0.100001 6.518919
v -4.906756 0.000001 6.518919
v -4.906756 0.100001 6.518919
v -4.806756 0.000001 6.518919
v -4.806756 0.100001 6.518919
v -2.606756 0.000001 6.518919
v -2.606756 0.100001 6.518919
v -2.506756 0.000001 6.518919
v -2.506756 0.100001 6.518919
v -2.406756 0.000001 6.518919
v -2.406756 0.100001 6.518919
v -2.306756 0.000001 6.518919
v -2.306756 0.100001 6.518919
v -0.106756 0.000001 6.518919
v -0.106756 0.100001 6.518919
v -0.006756 0.000001 6.518919
v -0.006756 0.100001 6.518919
v 0.193244 0.000001 6.518919
v 0.193244 0.100001 6.518919
v 0.193244 0.000001 3.018919
v 0.193244 0.100001 3.018919
v 0.293244 0.000001 3.018919
v 0.293244 0.100001 3.018919
v 0.293244 0.000001 2.918919
v 0.293244 0.100001 2.918919
v 0.393244 0.000001 2.918919
v 0.393244 0.100001 2.918919
v 0.393244 0.000001 2.818919
v 0.393244 0.100001 2.818919
v 3.893244 0.000001 2.818919
v 3.893244 0.100001 2.818919
v 0.393244 0.000000 -2.481081
v 0.393244 0.100000 -2.481081
v 3.893244 0.000000 -2.481081
v 3.893244 0.100000 -2.481081
v 0.293244 0.000000 -2.581081
v 0.293244 0.100000 -2.581081
v 0.393244 0.000000 -2.581081
v 0.393244 0.100000 -2.581081
v 0.193244 0.000000 -2.681081
v 0.193244 0.100000 -2.681081
v 0.293244 0.000000 -2.681081
v 0.293244 0.100000 -2.681081
v -5.106756 0.000000 -6.181081
v -5.106756 0.100000 -6.181081
v -4.906756 0.000000 -6.181081
v -4.906756 0.100000 -6.181081
v -4.806756 0.000000 -6.181081
v -4.806756 0.100000 -6.181081
v -2.606756 0.000000 -6.181081
v -2.606756 0.100000 -6.181081
v -2.506756 0.000000 -6.181081
v -2.506756 0.100000 -6.181081
v -2.406756 0.000000 -6.181081
v -2.406756 0.100000 -6.181081
v -2.306756 0.000000 -6.181081
v -2.306756 0.100000 -6.181081
v -0.106756 0.000000 -6.181081
v -0.106756 0.100000 -6.181081
v -0.006756 0.000000 -6.181081
v -0.006756 0.100000 -6.181081
v 0.193244 0.000000 -6.181081
v 0.193244 0.100000 -6.181081
v -5.106756 0.000001 6.518919
v -4.906756 0.000001 6.518919
v -4.806756 0.000001 6.518919
v -2.606756 0.000001 6.518919
v -2.506756 0.000001 6.518919
v -2.406756 0.000001 6.518919
v -2.306756 0.000001 6.518919
v -0.106756 0.000001 6.518919
v -0.006756 0.000001 6.518919
v 0.193244 0.000001 6.518919
v -0.006756 0.000001 3.018919
v 0.093244 0.000001 3.018919
v 0.193244 0.000001 3.018919
v 0.293244 0.000001 3.018919
v -0.106756 0.000001 2.918919
v -0.006756 0.000001 2.918919
v 0.293244 0.000001 2.918919
v 0.393244 0.000001 2.918919
v 0.093244 0.000001 2.818919
v 0.193244 0.000001 2.818919
v 0.393244 0.000001 2.818919
v 3.893244 0.000001 2.818919
v -0.006756 0.000001 2.718919
v 0.093244 0.000001 2.718919
v 0.193244 0.000001 2.718919
v 0.393244 0.000001 2.718919
v 0.093244 0.000001 2.618919
v 0.293244 0.000001 2.618919
v 0.393244 0.000001 2.618919
v 3.893244 0.000001 2.618919
v 0.293244 0.000001 2.518919
v 3.893244 0.000001 2.518919
v 0.293244 0.000000 0.318919
v 3.893244 0.000000 0.318919
v 0.293244 0.000000 0.218919
v 3.893244 0.000000 0.218919
v 0.293244 0.000000 0.118919
v 3.893244 0.000000 0.118919
v 0.293244 0.000000 0.018919
v 3.893244 0.000000 0.018919
v 0.293244 0.000000 -0.081081
v 0.493244 0.000000 -0.081081
v 0.293244 0.000000 -0.381081
v 0.493244 0.000000 -0.381081
v 0.293244 0.000000 -0.481081
v 0.493244 0.000000 -0.481081
v 0.293244 0.000000 -0.781081
v 0.493244 0.000000 -0.781081
v 0.293244 0.000000 -0.881081
v 0.493244 0.000000 -0.881081
v 0.293244 0.000000 -1.281081
v 0.493244 0.000000 -1.281081
v 0.293244 0.000000 -1.381081
v 0.493244 0.000000 -1.381081
v 0.293244 0.000000 -1.681081
v 0.493244 0.000000 -1.681081
v 0.293244 0.000000 -1.781081
v 0.493244 0.000000 -1.781081
v 0.293244 0.000000 -2.081081
v 0.493244 0.000000 -2.081081
v 0.293244 0.000000 -2.181081
v 3.893244 0.000000 -2.181081
v 0.093244 0.000000 -2.281081
v 0.293244 0.000000 -2.281081
v 0.393244 0.000000 -2.281081
v 3.893244 0.000000 -2.281081
v -0.006756 0.000000 -2.381081
v 0.093244 0.000000 -2.381081
v 0.193244 0.000000 -2.381081
v 0.393244 0.000000 -2.381081
v 0.093244 0.000000 -2.481081
v 0.193244 0.000000 -2.481081
v 0.393244 0.000000 -2.481081
v 3.893244 0.000000 -2.481081
v -0.106756 0.000000 -2.581081
v -0.006756 0.000000 -2.581081
v 0.293244 0.000000 -2.581081
v 0.393244 0.000000 -2.581081
v -0.006756 0.000000 -2.681081
v 0.093244 0.000000 -2.681081
v 0.193244 0.000000 -2.681081
v 0.293244 0.000000 -2.681081
v -5.106756 0.000000 -6.181081
v -4.906756 0.000000 -6.181081
v -4.806756 0.000000 -6.181081
v -2.606756 0.000000 -6.181081
v -2.506756 0.000000 -6.181081
v -2.406756 0.000000 -6.181081
v -2.306756 0.000000 -6.181081
v -0.106756 0.000000 -6.181081
v -0.006756 0.000000 -6.181081
v 0.193244 0.000000 -6.181081
v -5.106756 0.100001 6.518919
v -4.906756 0.100001 6.518919
v -4.806756 0.100001 6.518919
v -2.606756 0.100001 6.518919
v -2.506756 0.100001 6.518919
v -2.406756 0.100001 6.518919
v -2.306756 0.100001 6.518919
v -0.106756 0.100001 6.518919
v -0.006756 0.100001 6.518919
v 0.193244 0.100001 6.518919
v -0.006756 0.100001 3.018919
v 0.093244 0.100001 3.018919
v 0.193244 0.100001 3.018919
v 0.293244 0.100001 3.018919
v -0.106756 0.100001 2.918919
v -0.006756 0.100001 2.918919
v 0.293244 0.100001 2.918919
v 0.393244 0.100001 2.918919
v 0.093244 0.100001 2.818919
v 0.193244 0.100001 2.818919
v 0.393244 0.100001 2.818919
v 3.893244 0.100001 2.818919
v -0.006756 0.100001 2.718919
v 0.093244 0.100001 2.718919
v 0.193244 0.100001 2.718919
v 0.393244 0.100001 2.718919
v 0.093244 0.100001 2.618919
v 0.293244 0.100001 2.618919
v 0.393244 0.100001 2.618919
v 3.893244 0.100001 2.618919
v 0.293244 0.100001 2.518919
v 3.893244 0.100001 2.518919
v 0.293244 0.100000 0.318919
v 3.893244 0.100000 0.318919
v 0.293244 0.100000 0.218919
v 3.893244 0.100000 0.218919
v 0.293244 0.100000 0.118919
v 3.893244 0.100000 0.118919
v 0.293244 0.100000 0.018919
v 3.893244 0.100000 0.018919
v 0.293244 0.100000 -0.081081
v 0.493244 0.100000 -0.081081
v 0.293244 0.100000 -0.381081
v 0.493244 0.100000 -0.381081
v 0.293244 0.100000 -0.481081
v 0.493244 0.100000 -0.481081
v 0.293244 0.100000 -0.781081
v 0.493244 0.100000 -0.781081
v 0.293244 0.100000 -0.881081
v 0.493244 0.100000 -0.881081
v 0.293244 0.100000 -1.281081
v 0.493244 0.100000 -1.281081
v 0.293244 0.100000 -1.381081
v 0.493244 0.100000 -1.381081
v 0.293244 0.100000 -1.681081
v 0.493244 0.100000 -1.681081
v 0.293244 0.100000 -1.781081
v 0.493244 0.100000 -1.781081
v 0.293244 0.100000 -2.081081
v 0.493244 0.100000 -2.081081
v 0.293244 0.100000 -2.181081
v 3.893244 0.100000 -2.181081
v 0.093244 0.100000 -2.281081
v 0.293244 0.100000 -2.281081
v 0.393244 0.100000 -2.281081
v 3.893244 0.100000 -2.281081
v -0.006756 0.100000 -2.381081
v 0.093244 0.100000 -2.381081
v 0.193244 0.100000 -2.381081
v 0.393244 0.100000 -2.381081
v 0.093244 0.100000 -2.481081
v 0.193244 0.100000 -2.481081
v 0.393244 0.100000 -2.481081
v 3.893244 0.100000 -2.481081
v -0.106756 0.100000 -2.581081
v -0.006756 0.100000 -2.581081
v 0.293244 0.100000 -2.581081
v 0.393244 0.100000 -2.581081
v -0.006756 0.100000 -2.681081
v 0.093244 0.100000 -2.681081
v 0.193244 0.100000 -2.681081
v 0.293244 0.100000 -2.681081
v -5.106756 0.100000 -6.181081
v -4.906756 0.100000 -6.181081
v -4.806756 0.100000 -6.181081
v -2.606756 0.100000 -6.181081
v -2.506756 0.100000 -6.181081
v -2.406756 0.100000 -6.181081
v -2.306756 0.100000 -6.181081
v -0.106756 0.100000 -6.181081
v -0.006756 0.100000 -6.181081
v 0.193244 0.100000 -6.181081
vn -1.0000 -0.0000 -0.0000
vn 1.0000 -0.0000 -0.0000
vn -0.0000 -0.0000 1.0000
vn -0.0000 -0.0000 -1.0000
vn -0.0000 -1.0000 -0.0000
vn -0.0000 1.0000 -0.0000
vt 0.986328 0.500000
vt 0.958984 0.500000
s 0
usemtl palette.072
f 3/1/1 2/1/1 1/1/1
f 4/1/1 2/1/1 3/1/1
f 5/1/2 6/1/2 9/1/2
f 9/1/2 6/1/2 10/1/2
f 7/1/2 8/1/2 11/1/2
f 11/1/2 8/1/2 12/1/2
f 13/1/2 14/1/2 17/1/2
f 17/1/2 14/1/2 18/1/2
f 15/1/2 16/1/2 19/1/2
f 19/1/2 16/1/2 20/1/2
f 21/1/2 22/1/2 25/1/2
f 25/1/2 22/1/2 26/1/2
f 23/1/2 24/1/2 27/1/2
f 27/1/2 24/1/2 28/1/2
f 29/1/2 30/1/2 39/1/2
f 30/2/2 31/2/2 40/2/2
f 39/1/2 30/1/2 40/1/2
f 31/1/2 32/1/2 41/1/2
f 40/2/2 31/2/2 41/2/2
f 32/2/2 33/2/2 42/2/2
f 41/1/2 32/1/2 42/1/2
f 33/1/2 34/1/2 43/1/2
f 42/2/2 33/2/2 43/2/2
f 34/2/2 35/2/2 44/2/2
f 43/1/2 34/1/2 44/1/2
f 35/1/2 36/1/2 45/1/2
f 44/2/2 35/2/2 45/2/2
f 36/2/2 37/2/2 46/2/2
f 45/1/2 36/1/2 46/1/2
f 37/1/2 38/1/2 47/1/2
f 46/2/2 37/2/2 47/2/2
f 47/1/2 38/1/2 48/1/2
f 51/1/3 50/1/3 49/1/3
f 52/1/3 50/1/3 51/1/3
f 53/2/3 52/2/3 51/2/3
f 54/2/3 52/2/3 53/2/3
f 55/1/3 54/1/3 53/1/3
f 56/1/3 54/1/3 55/1/3
f 57/2/3 56/2/3 55/2/3
f 58/2/3 56/2/3 57/2/3
f 59/1/3 58/1/3 57/1/3
f 60/1/3 58/1/3 59/1/3
f 61/2/3 60/2/3 59/2/3
f 62/2/3 60/2/3 61/2/3
f 63/1/3 62/1/3 61/1/3
f 64/1/3 62/1/3 63/1/3
f 65/2/3 64/2/3 63/2/3
f 66/2/3 64/2/3 65/2/3
f 67/1/3 66/1/3 65/1/3
f 68/1/3 66/1/3 67/1/3
f 71/1/3 70/1/3 69/1/3
f 72/1/3 70/1/3 71/1/3
f 75/1/3 74/1/3 73/1/3
f 76/1/3 74/1/3 75/1/3
f 79/1/3 78/1/3 77/1/3
f 80/1/3 78/1/3 79/1/3
f 81/1/4 82/1/4 83/1/4
f 83/1/4 82/1/4 84/1/4
f 85/1/4 86/1/4 87/1/4
f 87/1/4 86/1/4 88/1/4
f 89/1/4 90/1/4 91/1/4
f 91/1/4 90/1/4 92/1/4
f 93/1/4 94/1/4 95/1/4
f 95/1/4 94/1/4 96/1/4
f 95/2/4 96/2/4 97/2/4
f 97/2/4 96/2/4 98/2/4
f 97/1/4 98/1/4 99/1/4
f 99/1/4 98/1/4 100/1/4
f 99/2/4 100/2/4 101/2/4
f 101/2/4 100/2/4 102/2/4
f 101/1/4 102/1/4 103/1/4
f 103/1/4 102/1/4 104/1/4
f 103/2/4 104/2/4 105/2/4
f 105/2/4 104/2/4 106/2/4
f 105/1/4 106/1/4 107/1/4
f 107/1/4 106/1/4 108/1/4
f 107/2/4 108/2/4 109/2/4
f 109/2/4 108/2/4 110/2/4
f 109/1/4 110/1/4 111/1/4
f 111/1/4 110/1/4 112/1/4
f 123/2/5 121/2/5 120/2/5
f 123/1/5 122/1/5 121/1/5
f 124/1/5 122/1/5 123/1/5
f 125/1/5 122/1/5 124/1/5
f 127/1/5 120/1/5 119/1/5
f 127/2/5 123/2/5 120/2/5
f 127/2/5 124/2/5 123/2/5
f 128/2/5 124/2/5 127/2/5
f 129/1/5 126/1/5 125/1/5
f 129/1/5 125/1/5 124/1/5
f 131/2/5 124/2/5 128/2/5
f 131/1/5 130/1/5 129/1/5
f 131/1/5 129/1/5 124/1/5
f 132/1/5 130/1/5 131/1/5
f 133/1/5 130/1/5 132/1/5
f 135/1/5 128/1/5 127/1/5
f 135/2/5 131/2/5 128/2/5
f 135/2/5 132/2/5 131/2/5
f 136/2/5 132/2/5 135/2/5
f 137/1/5 134/1/5 133/1/5
f 137/2/5 132/2/5 136/2/5
f 137/1/5 133/1/5 132/1/5
f 138/1/5 134/1/5 137/1/5
f 139/1/5 136/1/5 135/1/5
f 139/2/5 137/2/5 136/2/5
f 139/2/5 138/2/5 137/2/5
f 140/2/5 138/2/5 139/2/5
f 141/1/5 134/1/5 138/1/5
f 141/2/5 138/2/5 140/2/5
f 142/1/5 134/1/5 141/1/5
f 143/1/5 140/1/5 139/1/5
f 143/2/5 141/2/5 140/2/5
f 143/2/5 142/2/5 141/2/5
f 144/2/5 142/2/5 143/2/5
f 145/1/5 143/1/5 139/1/5
f 145/1/5 144/1/5 143/1/5
f 146/1/5 144/1/5 145/1/5
f 147/1/5 145/1/5 139/1/5
f 147/2/5 146/2/5 145/2/5
f 148/2/5 146/2/5 147/2/5
f 149/1/5 147/1/5 139/1/5
f 149/1/5 148/1/5 147/1/5
f 150/1/5 148/1/5 149/1/5
f 151/1/5 149/1/5 139/1/5
f 151/2/5 150/2/5 149/2/5
f 152/2/5 150/2/5 151/2/5
f 153/1/5 151/1/5 139/1/5
f 153/1/5 152/1/5 151/1/5
f 154/1/5 152/1/5 153/1/5
f 155/1/5 153/1/5 139/1/5
f 155/2/5 154/2/5 153/2/5
f 156/1/5 152/1/5 154/1/5
f 156/2/5 154/2/5 155/2/5
f 157/1/5 155/1/5 139/1/5
f 157/1/5 156/1/5 155/1/5
f 158/1/5 152/1/5 156/1/5
f 158/1/5 156/1/5 157/1/5
f 159/1/5 157/1/5 139/1/5
f 159/2/5 158/2/5 157/2/5
f 160/1/5 152/1/5 158/1/5
f 160/2/5 158/2/5 159/2/5
f 161/1/5 159/1/5 139/1/5
f 161/1/5 160/1/5 159/1/5
f 162/1/5 152/1/5 160/1/5
f 162/1/5 160/1/5 161/1/5
f 163/1/5 161/1/5 139/1/5
f 163/2/5 162/2/5 161/2/5
f 164/1/5 152/1/5 162/1/5
f 164/2/5 162/2/5 163/2/5
f 165/1/5 163/1/5 139/1/5
f 165/1/5 164/1/5 163/1/5
f 166/1/5 152/1/5 164/1/5
f 166/1/5 164/1/5 165/1/5
f 167/1/5 165/1/5 139/1/5
f 167/2/5 166/2/5 165/2/5
f 168/1/5 152/1/5 166/1/5
f 168/2/5 166/2/5 167/2/5
f 169/1/5 167/1/5 139/1/5
f 169/1/5 168/1/5 167/1/5
f 170/1/5 152/1/5 168/1/5
f 170/1/5 168/1/5 169/1/5
f 171/1/5 169/1/5 139/1/5
f 171/2/5 170/2/5 169/2/5
f 172/1/5 152/1/5 170/1/5
f 172/2/5 170/2/5 171/2/5
f 173/1/5 171/1/5 139/1/5
f 173/1/5 172/1/5 171/1/5
f 174/1/5 152/1/5 172/1/5
f 174/1/5 172/1/5 173/1/5
f 175/1/5 139/1/5 135/1/5
f 175/1/5 173/1/5 139/1/5
f 176/2/5 174/2/5 173/2/5
f 176/1/5 173/1/5 175/1/5
f 177/2/5 174/2/5 176/2/5
f 178/2/5 174/2/5 177/2/5
f 179/1/5 135/1/5 127/1/5
f 179/1/5 175/1/5 135/1/5
f 180/2/5 176/2/5 175/2/5
f 180/1/5 175/1/5 179/1/5
f 180/2/5 177/2/5 176/2/5
f 181/2/5 177/2/5 180/2/5
f 182/1/5 178/1/5 177/1/5
f 182/2/5 177/2/5 181/2/5
f 183/2/5 181/2/5 180/2/5
f 183/2/5 180/2/5 179/2/5
f 184/1/5 182/1/5 181/1/5
f 184/2/5 181/2/5 183/2/5
f 185/1/5 178/1/5 182/1/5
f 185/1/5 182/1/5 184/1/5
f 186/1/5 178/1/5 185/1/5
f 187/1/5 127/1/5 119/1/5
f 187/1/5 179/1/5 127/1/5
f 188/2/5 183/2/5 179/2/5
f 188/1/5 179/1/5 187/1/5
f 189/1/5 184/1/5 183/1/5
f 189/1/5 185/1/5 184/1/5
f 190/1/5 185/1/5 189/1/5
f 191/2/5 183/2/5 188/2/5
f 191/2/5 188/2/5 187/2/5
f 192/1/5 189/1/5 183/1/5
f 192/2/5 183/2/5 191/2/5
f 193/1/5 189/1/5 192/1/5
f 194/1/5 189/1/5 193/1/5
f 195/1/5 114/1/5 113/1/5
f 196/2/5 115/2/5 114/2/5
f 196/1/5 114/1/5 195/1/5
f 197/1/5 116/1/5 115/1/5
f 197/2/5 115/2/5 196/2/5
f 198/2/5 117/2/5 116/2/5
f 198/1/5 116/1/5 197/1/5
f 199/1/5 118/1/5 117/1/5
f 199/2/5 117/2/5 198/2/5
f 200/2/5 119/2/5 118/2/5
f 200/1/5 118/1/5 199/1/5
f 201/1/5 187/1/5 119/1/5
f 201/2/5 119/2/5 200/2/5
f 202/2/5 191/2/5 187/2/5
f 202/1/5 187/1/5 201/1/5
f 203/1/5 192/1/5 191/1/5
f 203/2/5 191/2/5 202/2/5
f 203/1/5 193/1/5 192/1/5
f 204/1/5 193/1/5 203/1/5
f 212/2/6 213/2/6 215/2/6
f 213/1/6 214/1/6 215/1/6
f 215/1/6 214/1/6 216/1/6
f 216/1/6 214/1/6 217/1/6
f 211/1/6 212/1/6 219/1/6
f 212/2/6 215/2/6 219/2/6
f 215/2/6 216/2/6 219/2/6
f 219/2/6 216/2/6 220/2/6
f 217/1/6 218/1/6 221/1/6
f 216/1/6 217/1/6 221/1/6
f 220/2/6 216/2/6 223/2/6
f 221/1/6 222/1/6 223/1/6
f 216/1/6 221/1/6 223/1/6
f 223/1/6 222/1/6 224/1/6
f 224/1/6 222/1/6 225/1/6
f 219/1/6 220/1/6 227/1/6
f 220/2/6 223/2/6 227/2/6
f 223/2/6 224/2/6 227/2/6
f 227/2/6 224/2/6 228/2/6
f 225/1/6 226/1/6 229/1/6
f 228/2/6 224/2/6 229/2/6
f 224/1/6 225/1/6 229/1/6
f 229/1/6 226/1/6 230/1/6
f 227/1/6 228/1/6 231/1/6
f 228/2/6 229/2/6 231/2/6
f 229/2/6 230/2/6 231/2/6
f 231/2/6 230/2/6 232/2/6
f 230/1/6 226/1/6 233/1/6
f 232/2/6 230/2/6 233/2/6
f 233/1/6 226/1/6 234/1/6
f 231/1/6 232/1/6 235/1/6
f 232/2/6 233/2/6 235/2/6
f 233/2/6 234/2/6 235/2/6
f 235/2/6 234/2/6 236/2/6
f 231/1/6 235/1/6 237/1/6
f 235/1/6 236/1/6 237/1/6
f 237/1/6 236/1/6 238/1/6
f 231/1/6 237/1/6 239/1/6
f 237/2/6 238/2/6 239/2/6
f 239/2/6 238/2/6 240/2/6
f 231/1/6 239/1/6 241/1/6
f 239/1/6 240/1/6 241/1/6
f 241/1/6 240/1/6 242/1/6
f 231/1/6 241/1/6 243/1/6
f 241/2/6 242/2/6 243/2/6
f 243/2/6 242/2/6 244/2/6
f 231/1/6 243/1/6 245/1/6
f 243/1/6 244/1/6 245/1/6
f 245/1/6 244/1/6 246/1/6
f 231/1/6 245/1/6 247/1/6
f 245/2/6 246/2/6 247/2/6
f 246/1/6 244/1/6 248/1/6
f 247/2/6 246/2/6 248/2/6
f 231/1/6 247/1/6 249/1/6
f 247/1/6 248/1/6 249/1/6
f 248/1/6 244/1/6 250/1/6
f 249/1/6 248/1/6 250/1/6
f 231/1/6 249/1/6 251/1/6
f 249/2/6 250/2/6 251/2/6
f 250/1/6 244/1/6 252/1/6
f 251/2/6 250/2/6 252/2/6
f 231/1/6 251/1/6 253/1/6
f 251/1/6 252/1/6 253/1/6
f 252/1/6 244/1/6 254/1/6
f 253/1/6 252/1/6 254/1/6
f 231/1/6 253/1/6 255/1/6
f 253/2/6 254/2/6 255/2/6
f 254/1/6 244/1/6 256/1/6
f 255/2/6 254/2/6 256/2/6
f 231/1/6 255/1/6 257/1/6
f 255/1/6 256/1/6 257/1/6
f 256/1/6 244/1/6 258/1/6
f 257/1/6 256/1/6 258/1/6
f 231/1/6 257/1/6 259/1/6
f 257/2/6 258/2/6 259/2/6
f 258/1/6 244/1/6 260/1/6
f 259/2/6 258/2/6 260/2/6
f 231/1/6 259/1/6 261/1/6
f 259/1/6 260/1/6 261/1/6
f 260/1/6 244/1/6 262/1/6
f 261/1/6 260/1/6 262/1/6
f 231/1/6 261/1/6 263/1/6
f 261/2/6 262/2/6 263/2/6
f 262/1/6 244/1/6 264/1/6
f 263/2/6 262/2/6 264/2/6
f 231/1/6 263/1/6 265/1/6
f 263/1/6 264/1/6 265/1/6
f 264/1/6 244/1/6 266/1/6
f 265/1/6 264/1/6 266/1/6
f 227/1/6 231/1/6 267/1/6
f 231/1/6 265/1/6 267/1/6
f 265/2/6 266/2/6 268/2/6
f 267/1/6 265/1/6 268/1/6
f 268/2/6 266/2/6 269/2/6
f 269/2/6 266/2/6 270/2/6
f 219/1/6 227/1/6 271/1/6
f 227/1/6 267/1/6 271/1/6
f 267/2/6 268/2/6 272/2/6
f 271/1/6 267/1/6 272/1/6
f 268/2/6 269/2/6 272/2/6
f 272/2/6 269/2/6 273/2/6
f 269/1/6 270/1/6 274/1/6
f 273/2/6 269/2/6 274/2/6
f 272/2/6 273/2/6 275/2/6
f 271/2/6 272/2/6 275/2/6
f 273/1/6 274/1/6 276/1/6
f 275/2/6 273/2/6 276/2/6
f 274/1/6 270/1/6 277/1/6
f 276/1/6 274/1/6 277/1/6
f 277/1/6 270/1/6 278/1/6
f 211/1/6 219/1/6 279/1/6
f 219/1/6 271/1/6 279/1/6
f 271/2/6 275/2/6 280/2/6
f 279/1/6 271/1/6 280/1/6
f 275/1/6 276/1/6 281/1/6
f 276/1/6 277/1/6 281/1/6
f 281/1/6 277/1/6 282/1/6
f 280/2/6 275/2/6 283/2/6
f 279/2/6 280/2/6 283/2/6
f 275/1/6 281/1/6 284/1/6
f 283/2/6 275/2/6 284/2/6
f 284/1/6 281/1/6 285/1/6
f 285/1/6 281/1/6 286/1/6
f 205/1/6 206/1/6 287/1/6
f 206/2/6 207/2/6 288/2/6
f 287/1/6 206/1/6 288/1/6
f 207/1/6 208/1/6 289/1/6
f 288/2/6 207/2/6 289/2/6
f 208/2/6 209/2/6 290/2/6
f 289/1/6 208/1/6 290/1/6
f 209/1/6 210/1/6 291/1/6
f 290/2/6 209/2/6 291/2/6
f 210/2/6 211/2/6 292/2/6
f 291/1/6 210/1/6 292/1/6
f 211/1/6 279/1/6 293/1/6
f 292/2/6 211/2/6 293/2/6
f 279/2/6 283/2/6 294/2/6
f 293/1/6 279/1/6 294/1/6
f 283/1/6 284/1/6 295/1/6
f 294/2/6 283/2/6 295/2/6
f 284/1/6 285/1/6 295/1/6
f 295/1/6 285/1/6 296/1/6
