# Blender 4.2.3 LTS
# www.blender.org
mtllib Untitled.098.mtl
o Untitled.098
v -0.621910 0.000000 0.061236
v -0.621910 0.000000 -0.038764
v -0.621910 0.000000 -0.138764
v -0.621910 0.100000 0.061236
v -0.621910 0.100000 -0.038764
v -0.621910 0.100000 -0.138764
v -0.521910 0.000000 0.161236
v -0.521910 0.000000 0.061236
v -0.521910 0.000000 -0.138764
v -0.521910 0.000000 -0.238764
v -0.521910 0.100000 0.161236
v -0.521910 0.100000 0.061236
v -0.521910 0.100000 -0.138764
v -0.521910 0.100000 -0.238764
v -0.421910 0.000000 0.461236
v -0.421910 0.000000 0.161236
v -0.421910 0.000000 -0.238764
v -0.421910 0.000000 -0.338764
v -0.421910 0.000000 -0.438764
v -0.421910 0.100000 0.461236
v -0.421910 0.100000 0.161236
v -0.421910 0.100000 -0.238764
v -0.421910 0.100000 -0.338764
v -0.421910 0.100000 -0.438764
v -0.321910 0.000000 0.561236
v -0.321910 0.000000 0.461236
v -0.321910 0.100000 0.561236
v -0.321910 0.100000 0.461236
v 0.378090 0.000000 -0.138764
v 0.378090 0.000000 -0.238764
v 0.378090 0.100000 -0.138764
v 0.378090 0.100000 -0.238764
v 0.478090 0.000000 -0.238764
v 0.478090 0.000000 -0.338764
v 0.478090 0.100000 -0.238764
v 0.478090 0.100000 -0.338764
v -0.021910 0.000000 0.561236
v -0.021910 0.000000 0.461236
v -0.021910 0.100000 0.561236
v -0.021910 0.100000 0.461236
v 0.078090 0.000000 -0.338764
v 0.078090 0.000000 -0.438764
v 0.078090 0.100000 -0.338764
v 0.078090 0.100000 -0.438764
v 0.178090 0.000000 0.461236
v 0.178090 0.000000 0.361236
v 0.178090 0.000000 0.261236
v 0.178090 0.000000 -0.238764
v 0.178090 0.000000 -0.338764
v 0.178090 0.100000 0.461236
v 0.178090 0.100000 0.361236
v 0.178090 0.100000 0.261236
v 0.178090 0.100000 -0.238764
v 0.178090 0.100000 -0.338764
v 0.278090 0.000000 -0.138764
v 0.278090 0.000000 -0.238764
v 0.278090 0.100000 -0.138764
v 0.278090 0.100000 -0.238764
v 0.378090 0.000000 0.261236
v 0.378090 0.000000 0.161236
v 0.378090 0.000000 -0.038764
v 0.378090 0.000000 -0.138764
v 0.378090 0.100000 0.261236
v 0.378090 0.100000 0.161236
v 0.378090 0.100000 -0.038764
v 0.378090 0.100000 -0.138764
v 0.478090 0.000000 0.161236
v 0.478090 0.000000 -0.038764
v 0.478090 0.100000 0.161236
v 0.478090 0.100000 -0.038764
v 0.578090 0.000000 -0.138764
v 0.578090 0.000000 -0.238764
v 0.578090 0.100000 -0.138764
v 0.578090 0.100000 -0.238764
v 0.678090 0.000000 -0.238764
v 0.678090 0.000000 -0.338764
v 0.678090 0.100000 -0.238764
v 0.678090 0.100000 -0.338764
v -0.321910 0.000000 0.561236
v -0.321910 0.100000 0.561236
v -0.221910 0.000000 0.561236
v -0.221910 0.100000 0.561236
v -0.121910 0.000000 0.561236
v -0.121910 0.100000 0.561236
v -0.021910 0.000000 0.561236
v -0.021910 0.100000 0.561236
v -0.421910 0.000000 0.461236
v -0.421910 0.100000 0.461236
v -0.321910 0.000000 0.461236
v -0.321910 0.100000 0.461236
v -0.021910 0.000000 0.461236
v -0.021910 0.100000 0.461236
v 0.078090 0.000000 0.461236
v 0.078090 0.100000 0.461236
v 0.178090 0.000000 0.461236
v 0.178090 0.100000 0.461236
v 0.178090 0.000000 0.261236
v 0.178090 0.100000 0.261236
v 0.278090 0.000000 0.261236
v 0.278090 0.100000 0.261236
v 0.378090 0.000000 0.261236
v 0.378090 0.100000 0.261236
v -0.521910 0.000000 0.161236
v -0.521910 0.100000 0.161236
v -0.421910 0.000000 0.161236
v -0.421910 0.100000 0.161236
v 0.378090 0.000000 0.161236
v 0.378090 0.100000 0.161236
v 0.478090 0.000000 0.161236
v 0.478090 0.100000 0.161236
v -0.621910 0.000000 0.061236
v -0.621910 0.100000 0.061236
v -0.521910 0.000000 0.061236
v -0.521910 0.100000 0.061236
v 0.378090 0.000000 -0.138764
v 0.378090 0.100000 -0.138764
v 0.478090 0.000000 -0.138764
v 0.478090 0.100000 -0.138764
v 0.578090 0.000000 -0.138764
v 0.578090 0.100000 -0.138764
v 0.578090 0.000000 -0.238764
v 0.578090 0.100000 -0.238764
v 0.678090 0.000000 -0.238764
v 0.678090 0.100000 -0.238764
v 0.378090 0.000000 -0.038764
v 0.378090 0.100000 -0.038764
v 0.478090 0.000000 -0.038764
v 0.478090 0.100000 -0.038764
v -0.621910 0.000000 -0.138764
v -0.621910 0.100000 -0.138764
v -0.521910 0.000000 -0.138764
v -0.521910 0.100000 -0.138764
v 0.278090 0.000000 -0.138764
v 0.278090 0.100000 -0.138764
v 0.378090 0.000000 -0.138764
v 0.378090 0.100000 -0.138764
v -0.521910 0.000000 -0.238764
v -0.521910 0.100000 -0.238764
v -0.421910 0.000000 -0.238764
v -0.421910 0.100000 -0.238764
v 0.178090 0.000000 -0.238764
v 0.178090 0.100000 -0.238764
v 0.278090 0.000000 -0.238764
v 0.278090 0.100000 -0.238764
v 0.378090 0.000000 -0.238764
v 0.378090 0.100000 -0.238764
v 0.478090 0.000000 -0.238764
v 0.478090 0.100000 -0.238764
v 0.078090 0.000000 -0.338764
v 0.078090 0.100000 -0.338764
v 0.178090 0.000000 -0.338764
v 0.178090 0.100000 -0.338764
v 0.478090 0.000000 -0.338764
v 0.478090 0.100000 -0.338764
v 0.678090 0.000000 -0.338764
v 0.678090 0.100000 -0.338764
v -0.421910 0.000000 -0.438764
v -0.421910 0.100000 -0.438764
v -0.321910 0.000000 -0.438764
v -0.321910 0.100000 -0.438764
v -0.221910 0.000000 -0.438764
v -0.221910 0.100000 -0.438764
v -0.121910 0.000000 -0.438764
v -0.121910 0.100000 -0.438764
v 0.078090 0.000000 -0.438764
v 0.078090 0.100000 -0.438764
v -0.321910 0.000000 0.561236
v -0.221910 0.000000 0.561236
v -0.121910 0.000000 0.561236
v -0.021910 0.000000 0.561236
v -0.421910 0.000000 0.461236
v -0.321910 0.000000 0.461236
v -0.221910 0.000000 0.461236
v -0.121910 0.000000 0.461236
v -0.021910 0.000000 0.461236
v 0.078090 0.000000 0.461236
v 0.178090 0.000000 0.461236
v -0.221910 0.000000 0.361236
v -0.121910 0.000000 0.361236
v -0.021910 0.000000 0.361236
v 0.078090 0.000000 0.361236
v 0.178090 0.000000 0.361236
v -0.321910 0.000000 0.261236
v -0.221910 0.000000 0.261236
v -0.121910 0.000000 0.261236
v -0.021910 0.000000 0.261236
v 0.078090 0.000000 0.261236
v 0.178090 0.000000 0.261236
v 0.278090 0.000000 0.261236
v 0.378090 0.000000 0.261236
v -0.521910 0.000000 0.161236
v -0.421910 0.000000 0.161236
v -0.321910 0.000000 0.161236
v -0.221910 0.000000 0.161236
v -0.121910 0.000000 0.161236
v -0.021910 0.000000 0.161236
v 0.078090 0.000000 0.161236
v 0.278090 0.000000 0.161236
v 0.378090 0.000000 0.161236
v 0.478090 0.000000 0.161236
v -0.621910 0.000000 0.061236
v -0.521910 0.000000 0.061236
v -0.421910 0.000000 0.061236
v -0.321910 0.000000 0.061236
v -0.221910 0.000000 0.061236
v -0.121910 0.000000 0.061236
v -0.021910 0.000000 0.061236
v 0.078090 0.000000 0.061236
v 0.178090 0.000000 0.061236
v 0.278090 0.000000 0.061236
v 0.378090 0.000000 0.061236
v -0.621910 0.000000 -0.038764
v -0.521910 0.000000 -0.038764
v -0.421910 0.000000 -0.038764
v -0.221910 0.000000 -0.038764
v -0.121910 0.000000 -0.038764
v -0.021910 0.000000 -0.038764
v 0.078090 0.000000 -0.038764
v 0.178090 0.000000 -0.038764
v 0.278090 0.000000 -0.038764
v 0.378090 0.000000 -0.038764
v 0.478090 0.000000 -0.038764
v -0.621910 0.000000 -0.138764
v -0.521910 0.000000 -0.138764
v -0.421910 0.000000 -0.138764
v -0.321910 0.000000 -0.138764
v -0.221910 0.000000 -0.138764
v -0.121910 0.000000 -0.138764
v -0.021910 0.000000 -0.138764
v 0.178090 0.000000 -0.138764
v 0.278090 0.000000 -0.138764
v 0.378090 0.000000 -0.138764
v 0.478090 0.000000 -0.138764
v 0.578090 0.000000 -0.138764
v -0.521910 0.000000 -0.238764
v -0.421910 0.000000 -0.238764
v -0.321910 0.000000 -0.238764
v -0.221910 0.000000 -0.238764
v -0.121910 0.000000 -0.238764
v -0.021910 0.000000 -0.238764
v 0.078090 0.000000 -0.238764
v 0.178090 0.000000 -0.238764
v 0.278090 0.000000 -0.238764
v 0.378090 0.000000 -0.238764
v 0.478090 0.000000 -0.238764
v 0.578090 0.000000 -0.238764
v 0.678090 0.000000 -0.238764
v -0.421910 0.000000 -0.338764
v -0.321910 0.000000 -0.338764
v -0.221910 0.000000 -0.338764
v -0.121910 0.000000 -0.338764
v -0.021910 0.000000 -0.338764
v 0.078090 0.000000 -0.338764
v 0.178090 0.000000 -0.338764
v 0.478090 0.000000 -0.338764
v 0.678090 0.000000 -0.338764
v -0.421910 0.000000 -0.438764
v -0.321910 0.000000 -0.438764
v -0.221910 0.000000 -0.438764
v -0.121910 0.000000 -0.438764
v 0.078090 0.000000 -0.438764
v -0.321910 0.100000 0.561236
v -0.221910 0.100000 0.561236
v -0.121910 0.100000 0.561236
v -0.021910 0.100000 0.561236
v -0.421910 0.100000 0.461236
v -0.321910 0.100000 0.461236
v -0.221910 0.100000 0.461236
v -0.121910 0.100000 0.461236
v -0.021910 0.100000 0.461236
v 0.078090 0.100000 0.461236
v 0.178090 0.100000 0.461236
v -0.221910 0.100000 0.361236
v -0.121910 0.100000 0.361236
v -0.021910 0.100000 0.361236
v 0.078090 0.100000 0.361236
v 0.178090 0.100000 0.361236
v -0.321910 0.100000 0.261236
v -0.221910 0.100000 0.261236
v -0.121910 0.100000 0.261236
v -0.021910 0.100000 0.261236
v 0.078090 0.100000 0.261236
v 0.178090 0.100000 0.261236
v 0.278090 0.100000 0.261236
v 0.378090 0.100000 0.261236
v -0.521910 0.100000 0.161236
v -0.421910 0.100000 0.161236
v -0.321910 0.100000 0.161236
v -0.221910 0.100000 0.161236
v -0.121910 0.100000 0.161236
v -0.021910 0.100000 0.161236
v 0.078090 0.100000 0.161236
v 0.278090 0.100000 0.161236
v 0.378090 0.100000 0.161236
v 0.478090 0.100000 0.161236
v -0.621910 0.100000 0.061236
v -0.521910 0.100000 0.061236
v -0.421910 0.100000 0.061236
v -0.321910 0.100000 0.061236
v -0.221910 0.100000 0.061236
v -0.121910 0.100000 0.061236
v -0.021910 0.100000 0.061236
v 0.078090 0.100000 0.061236
v 0.178090 0.100000 0.061236
v 0.278090 0.100000 0.061236
v 0.378090 0.100000 0.061236
v -0.621910 0.100000 -0.038764
v -0.521910 0.100000 -0.038764
v -0.421910 0.100000 -0.038764
v -0.221910 0.100000 -0.038764
v -0.121910 0.100000 -0.038764
v -0.021910 0.100000 -0.038764
v 0.078090 0.100000 -0.038764
v 0.178090 0.100000 -0.038764
v 0.278090 0.100000 -0.038764
v 0.378090 0.100000 -0.038764
v 0.478090 0.100000 -0.038764
v -0.621910 0.100000 -0.138764
v -0.521910 0.100000 -0.138764
v -0.421910 0.100000 -0.138764
v -0.321910 0.100000 -0.138764
v -0.221910 0.100000 -0.138764
v -0.121910 0.100000 -0.138764
v -0.021910 0.100000 -0.138764
v 0.178090 0.100000 -0.138764
v 0.278090 0.100000 -0.138764
v 0.378090 0.100000 -0.138764
v 0.478090 0.100000 -0.138764
v 0.578090 0.100000 -0.138764
v -0.521910 0.100000 -0.238764
v -0.421910 0.100000 -0.238764
v -0.321910 0.100000 -0.238764
v -0.221910 0.100000 -0.238764
v -0.121910 0.100000 -0.238764
v -0.021910 0.100000 -0.238764
v 0.078090 0.100000 -0.238764
v 0.178090 0.100000 -0.238764
v 0.278090 0.100000 -0.238764
v 0.378090 0.100000 -0.238764
v 0.478090 0.100000 -0.238764
v 0.578090 0.100000 -0.238764
v 0.678090 0.100000 -0.238764
v -0.421910 0.100000 -0.338764
v -0.321910 0.100000 -0.338764
v -0.221910 0.100000 -0.338764
v -0.121910 0.100000 -0.338764
v -0.021910 0.100000 -0.338764
v 0.078090 0.100000 -0.338764
v 0.178090 0.100000 -0.338764
v 0.478090 0.100000 -0.338764
v 0.678090 0.100000 -0.338764
v -0.421910 0.100000 -0.438764
v -0.321910 0.100000 -0.438764
v -0.221910 0.100000 -0.438764
v -0.121910 0.100000 -0.438764
v 0.078090 0.100000 -0.438764
vn -1.0000 -0.0000 -0.0000
vn 1.0000 -0.0000 -0.0000
vn -0.0000 -0.0000 1.0000
vn -0.0000 -0.0000 -1.0000
vn -0.0000 -1.0000 -0.0000
vn -0.0000 1.0000 -0.0000
vt 0.958984 0.500000
vt 0.962891 0.500000
vt 0.966797 0.500000
vt 0.779297 0.500000
vt 0.970703 0.500000
s 0
usemtl palette.097
f 4/1/1 2/1/1 1/1/1
f 5/2/1 3/2/1 2/2/1
f 5/1/1 2/1/1 4/1/1
f 6/2/1 3/2/1 5/2/1
f 11/1/1 8/1/1 7/1/1
f 12/1/1 8/1/1 11/1/1
f 13/2/1 10/2/1 9/2/1
f 14/2/1 10/2/1 13/2/1
f 20/1/1 16/1/1 15/1/1
f 21/1/1 16/1/1 20/1/1
f 22/2/1 18/2/1 17/2/1
f 23/1/1 19/1/1 18/1/1
f 23/2/1 18/2/1 22/2/1
f 24/1/1 19/1/1 23/1/1
f 27/1/1 26/1/1 25/1/1
f 28/1/1 26/1/1 27/1/1
f 31/1/1 30/1/1 29/1/1
f 32/1/1 30/1/1 31/1/1
f 35/1/1 34/1/1 33/1/1
f 36/1/1 34/1/1 35/1/1
f 37/1/2 38/1/2 39/1/2
f 39/1/2 38/1/2 40/1/2
f 41/3/2 42/3/2 43/3/2
f 43/3/2 42/3/2 44/3/2
f 45/3/2 46/3/2 50/3/2
f 46/4/2 47/4/2 51/4/2
f 50/3/2 46/3/2 51/3/2
f 51/4/2 47/4/2 52/4/2
f 48/3/2 49/3/2 53/3/2
f 53/3/2 49/3/2 54/3/2
f 55/1/2 56/1/2 57/1/2
f 57/1/2 56/1/2 58/1/2
f 59/1/2 60/1/2 63/1/2
f 63/1/2 60/1/2 64/1/2
f 61/1/2 62/1/2 65/1/2
f 65/1/2 62/1/2 66/1/2
f 67/1/2 68/1/2 69/1/2
f 69/1/2 68/1/2 70/1/2
f 71/2/2 72/2/2 73/2/2
f 73/2/2 72/2/2 74/2/2
f 75/1/2 76/1/2 77/1/2
f 77/1/2 76/1/2 78/1/2
f 81/1/3 80/1/3 79/1/3
f 82/1/3 80/1/3 81/1/3
f 83/2/3 82/2/3 81/2/3
f 84/2/3 82/2/3 83/2/3
f 85/1/3 84/1/3 83/1/3
f 86/1/3 84/1/3 85/1/3
f 89/1/3 88/1/3 87/1/3
f 90/1/3 88/1/3 89/1/3
f 93/5/3 92/5/3 91/5/3
f 94/5/3 92/5/3 93/5/3
f 95/3/3 94/3/3 93/3/3
f 96/3/3 94/3/3 95/3/3
f 99/3/3 98/3/3 97/3/3
f 100/3/3 98/3/3 99/3/3
f 101/1/3 100/1/3 99/1/3
f 102/1/3 100/1/3 101/1/3
f 105/1/3 104/1/3 103/1/3
f 106/1/3 104/1/3 105/1/3
f 109/1/3 108/1/3 107/1/3
f 110/1/3 108/1/3 109/1/3
f 113/1/3 112/1/3 111/1/3
f 114/1/3 112/1/3 113/1/3
f 117/1/3 116/1/3 115/1/3
f 118/1/3 116/1/3 117/1/3
f 119/2/3 118/2/3 117/2/3
f 120/2/3 118/2/3 119/2/3
f 123/1/3 122/1/3 121/1/3
f 124/1/3 122/1/3 123/1/3
f 125/1/4 126/1/4 127/1/4
f 127/1/4 126/1/4 128/1/4
f 129/2/4 130/2/4 131/2/4
f 131/2/4 130/2/4 132/2/4
f 133/1/4 134/1/4 135/1/4
f 135/1/4 134/1/4 136/1/4
f 137/2/4 138/2/4 139/2/4
f 139/2/4 138/2/4 140/2/4
f 141/1/4 142/1/4 143/1/4
f 143/1/4 142/1/4 144/1/4
f 145/1/4 146/1/4 147/1/4
f 147/1/4 146/1/4 148/1/4
f 149/3/4 150/3/4 151/3/4
f 151/3/4 150/3/4 152/3/4
f 153/1/4 154/1/4 155/1/4
f 155/1/4 154/1/4 156/1/4
f 157/1/4 158/1/4 159/1/4
f 159/1/4 158/1/4 160/1/4
f 159/3/4 160/3/4 161/3/4
f 161/3/4 160/3/4 162/3/4
f 161/5/4 162/5/4 163/5/4
f 163/5/4 162/5/4 164/5/4
f 163/3/4 164/3/4 165/3/4
f 165/3/4 164/3/4 166/3/4
f 172/1/5 168/1/5 167/1/5
f 173/2/5 169/2/5 168/2/5
f 173/1/5 168/1/5 172/1/5
f 174/1/5 170/1/5 169/1/5
f 174/2/5 169/2/5 173/2/5
f 175/1/5 170/1/5 174/1/5
f 178/2/5 173/2/5 172/2/5
f 178/2/5 174/2/5 173/2/5
f 179/5/5 176/5/5 175/5/5
f 179/2/5 174/2/5 178/2/5
f 179/5/5 175/5/5 174/5/5
f 180/5/5 176/5/5 179/5/5
f 181/3/5 177/3/5 176/3/5
f 181/5/5 176/5/5 180/5/5
f 182/3/5 177/3/5 181/3/5
f 183/1/5 172/1/5 171/1/5
f 183/2/5 178/2/5 172/2/5
f 184/3/5 180/3/5 179/3/5
f 184/2/5 178/2/5 183/2/5
f 184/3/5 179/3/5 178/3/5
f 185/3/5 180/3/5 184/3/5
f 186/5/5 181/5/5 180/5/5
f 186/3/5 180/3/5 185/3/5
f 187/4/5 182/4/5 181/4/5
f 187/5/5 181/5/5 186/5/5
f 188/4/5 182/4/5 187/4/5
f 192/1/5 183/1/5 171/1/5
f 193/5/5 185/5/5 184/5/5
f 193/5/5 184/5/5 183/5/5
f 193/1/5 183/1/5 192/1/5
f 194/5/5 185/5/5 193/5/5
f 195/3/5 186/3/5 185/3/5
f 195/5/5 185/5/5 194/5/5
f 196/2/5 187/2/5 186/2/5
f 196/3/5 186/3/5 195/3/5
f 197/3/5 188/3/5 187/3/5
f 197/2/5 187/2/5 196/2/5
f 197/3/5 189/3/5 188/3/5
f 198/1/5 190/1/5 189/1/5
f 198/3/5 189/3/5 197/3/5
f 199/1/5 190/1/5 198/1/5
f 202/1/5 192/1/5 191/1/5
f 203/3/5 194/3/5 193/3/5
f 203/3/5 193/3/5 192/3/5
f 203/1/5 192/1/5 202/1/5
f 204/3/5 194/3/5 203/3/5
f 205/5/5 195/5/5 194/5/5
f 205/3/5 194/3/5 204/3/5
f 206/1/5 196/1/5 195/1/5
f 206/5/5 195/5/5 205/5/5
f 207/2/5 197/2/5 196/2/5
f 207/1/5 196/1/5 206/1/5
f 208/5/5 198/5/5 197/5/5
f 208/2/5 197/2/5 207/2/5
f 209/5/5 198/5/5 208/5/5
f 210/1/5 200/1/5 199/1/5
f 210/5/5 198/5/5 209/5/5
f 210/1/5 199/1/5 198/1/5
f 211/1/5 200/1/5 210/1/5
f 212/1/5 202/1/5 201/1/5
f 213/5/5 204/5/5 203/5/5
f 213/1/5 202/1/5 212/1/5
f 213/5/5 203/5/5 202/5/5
f 214/5/5 204/5/5 213/5/5
f 215/1/5 206/1/5 205/1/5
f 215/3/5 205/3/5 204/3/5
f 215/1/5 207/1/5 206/1/5
f 216/1/5 207/1/5 215/1/5
f 217/3/5 209/3/5 208/3/5
f 217/1/5 207/1/5 216/1/5
f 217/3/5 208/3/5 207/3/5
f 218/3/5 209/3/5 217/3/5
f 219/5/5 210/5/5 209/5/5
f 219/3/5 209/3/5 218/3/5
f 220/3/5 211/3/5 210/3/5
f 220/5/5 210/5/5 219/5/5
f 221/1/5 200/1/5 211/1/5
f 221/3/5 211/3/5 220/3/5
f 222/1/5 200/1/5 221/1/5
f 223/2/5 213/2/5 212/2/5
f 224/3/5 214/3/5 213/3/5
f 224/2/5 213/2/5 223/2/5
f 225/5/5 204/5/5 214/5/5
f 225/3/5 214/3/5 224/3/5
f 226/3/5 216/3/5 215/3/5
f 226/5/5 204/5/5 225/5/5
f 226/3/5 215/3/5 204/3/5
f 227/3/5 216/3/5 226/3/5
f 228/5/5 218/5/5 217/5/5
f 228/3/5 216/3/5 227/3/5
f 228/5/5 217/5/5 216/5/5
f 229/5/5 218/5/5 228/5/5
f 230/2/5 220/2/5 219/2/5
f 230/3/5 219/3/5 218/3/5
f 231/1/5 221/1/5 220/1/5
f 231/2/5 220/2/5 230/2/5
f 232/1/5 221/1/5 231/1/5
f 235/2/5 225/2/5 224/2/5
f 235/2/5 226/2/5 225/2/5
f 236/2/5 226/2/5 235/2/5
f 237/4/5 227/4/5 226/4/5
f 237/2/5 226/2/5 236/2/5
f 238/3/5 229/3/5 228/3/5
f 238/4/5 227/4/5 237/4/5
f 238/3/5 228/3/5 227/3/5
f 239/3/5 229/3/5 238/3/5
f 240/5/5 218/5/5 229/5/5
f 240/3/5 229/3/5 239/3/5
f 241/3/5 230/3/5 218/3/5
f 241/5/5 218/5/5 240/5/5
f 242/1/5 231/1/5 230/1/5
f 242/3/5 230/3/5 241/3/5
f 243/1/5 231/1/5 242/1/5
f 244/1/5 233/1/5 232/1/5
f 245/2/5 234/2/5 233/2/5
f 245/1/5 233/1/5 244/1/5
f 246/2/5 234/2/5 245/2/5
f 248/2/5 237/2/5 236/2/5
f 249/5/5 239/5/5 238/5/5
f 249/2/5 237/2/5 248/2/5
f 249/5/5 238/5/5 237/5/5
f 250/5/5 239/5/5 249/5/5
f 251/1/5 240/1/5 239/1/5
f 251/5/5 239/5/5 250/5/5
f 252/3/5 241/3/5 240/3/5
f 252/1/5 240/1/5 251/1/5
f 252/3/5 242/3/5 241/3/5
f 253/3/5 242/3/5 252/3/5
f 254/3/5 242/3/5 253/3/5
f 255/1/5 247/1/5 246/1/5
f 255/1/5 246/1/5 245/1/5
f 256/1/5 247/1/5 255/1/5
f 257/1/5 249/1/5 248/1/5
f 258/3/5 250/3/5 249/3/5
f 258/1/5 249/1/5 257/1/5
f 259/5/5 251/5/5 250/5/5
f 259/3/5 250/3/5 258/3/5
f 260/3/5 253/3/5 252/3/5
f 260/5/5 251/5/5 259/5/5
f 260/3/5 252/3/5 251/3/5
f 261/3/5 253/3/5 260/3/5
f 262/1/6 263/1/6 267/1/6
f 263/2/6 264/2/6 268/2/6
f 267/1/6 263/1/6 268/1/6
f 264/1/6 265/1/6 269/1/6
f 268/2/6 264/2/6 269/2/6
f 269/1/6 265/1/6 270/1/6
f 267/2/6 268/2/6 273/2/6
f 268/2/6 269/2/6 273/2/6
f 270/5/6 271/5/6 274/5/6
f 273/2/6 269/2/6 274/2/6
f 269/5/6 270/5/6 274/5/6
f 274/5/6 271/5/6 275/5/6
f 271/3/6 272/3/6 276/3/6
f 275/5/6 271/5/6 276/5/6
f 276/3/6 272/3/6 277/3/6
f 266/1/6 267/1/6 278/1/6
f 267/2/6 273/2/6 278/2/6
f 274/3/6 275/3/6 279/3/6
f 278/2/6 273/2/6 279/2/6
f 273/3/6 274/3/6 279/3/6
f 279/3/6 275/3/6 280/3/6
f 275/5/6 276/5/6 281/5/6
f 280/3/6 275/3/6 281/3/6
f 276/4/6 277/4/6 282/4/6
f 281/5/6 276/5/6 282/5/6
f 282/4/6 277/4/6 283/4/6
f 266/1/6 278/1/6 287/1/6
f 279/5/6 280/5/6 288/5/6
f 278/5/6 279/5/6 288/5/6
f 287/1/6 278/1/6 288/1/6
f 288/5/6 280/5/6 289/5/6
f 280/3/6 281/3/6 290/3/6
f 289/5/6 280/5/6 290/5/6
f 281/2/6 282/2/6 291/2/6
f 290/3/6 281/3/6 291/3/6
f 282/3/6 283/3/6 292/3/6
f 291/2/6 282/2/6 292/2/6
f 283/3/6 284/3/6 292/3/6
f 284/1/6 285/1/6 293/1/6
f 292/3/6 284/3/6 293/3/6
f 293/1/6 285/1/6 294/1/6
f 286/1/6 287/1/6 297/1/6
f 288/3/6 289/3/6 298/3/6
f 287/3/6 288/3/6 298/3/6
f 297/1/6 287/1/6 298/1/6
f 298/3/6 289/3/6 299/3/6
f 289/5/6 290/5/6 300/5/6
f 299/3/6 289/3/6 300/3/6
f 290/1/6 291/1/6 301/1/6
f 300/5/6 290/5/6 301/5/6
f 291/2/6 292/2/6 302/2/6
f 301/1/6 291/1/6 302/1/6
f 292/5/6 293/5/6 303/5/6
f 302/2/6 292/2/6 303/2/6
f 303/5/6 293/5/6 304/5/6
f 294/1/6 295/1/6 305/1/6
f 304/5/6 293/5/6 305/5/6
f 293/1/6 294/1/6 305/1/6
f 305/1/6 295/1/6 306/1/6
f 296/1/6 297/1/6 307/1/6
f 298/5/6 299/5/6 308/5/6
f 307/1/6 297/1/6 308/1/6
f 297/5/6 298/5/6 308/5/6
f 308/5/6 299/5/6 309/5/6
f 300/1/6 301/1/6 310/1/6
f 299/3/6 300/3/6 310/3/6
f 301/1/6 302/1/6 310/1/6
f 310/1/6 302/1/6 311/1/6
f 303/3/6 304/3/6 312/3/6
f 311/1/6 302/1/6 312/1/6
f 302/3/6 303/3/6 312/3/6
f 312/3/6 304/3/6 313/3/6
f 304/5/6 305/5/6 314/5/6
f 313/3/6 304/3/6 314/3/6
f 305/3/6 306/3/6 315/3/6
f 314/5/6 305/5/6 315/5/6
f 306/1/6 295/1/6 316/1/6
f 315/3/6 306/3/6 316/3/6
f 316/1/6 295/1/6 317/1/6
f 307/2/6 308/2/6 318/2/6
f 308/3/6 309/3/6 319/3/6
f 318/2/6 308/2/6 319/2/6
f 309/5/6 299/5/6 320/5/6
f 319/3/6 309/3/6 320/3/6
f 310/3/6 311/3/6 321/3/6
f 320/5/6 299/5/6 321/5/6
f 299/3/6 310/3/6 321/3/6
f 321/3/6 311/3/6 322/3/6
f 312/5/6 313/5/6 323/5/6
f 322/3/6 311/3/6 323/3/6
f 311/5/6 312/5/6 323/5/6
f 323/5/6 313/5/6 324/5/6
f 314/2/6 315/2/6 325/2/6
f 313/3/6 314/3/6 325/3/6
f 315/1/6 316/1/6 326/1/6
f 325/2/6 315/2/6 326/2/6
f 326/1/6 316/1/6 327/1/6
f 319/2/6 320/2/6 330/2/6
f 320/2/6 321/2/6 330/2/6
f 330/2/6 321/2/6 331/2/6
f 321/4/6 322/4/6 332/4/6
f 331/2/6 321/2/6 332/2/6
f 323/3/6 324/3/6 333/3/6
f 332/4/6 322/4/6 333/4/6
f 322/3/6 323/3/6 333/3/6
f 333/3/6 324/3/6 334/3/6
f 324/5/6 313/5/6 335/5/6
f 334/3/6 324/3/6 335/3/6
f 313/3/6 325/3/6 336/3/6
f 335/5/6 313/5/6 336/5/6
f 325/1/6 326/1/6 337/1/6
f 336/3/6 325/3/6 337/3/6
f 337/1/6 326/1/6 338/1/6
f 327/1/6 328/1/6 339/1/6
f 328/2/6 329/2/6 340/2/6
f 339/1/6 328/1/6 340/1/6
f 340/2/6 329/2/6 341/2/6
f 331/2/6 332/2/6 343/2/6
f 333/5/6 334/5/6 344/5/6
f 343/2/6 332/2/6 344/2/6
f 332/5/6 333/5/6 344/5/6
f 344/5/6 334/5/6 345/5/6
f 334/1/6 335/1/6 346/1/6
f 345/5/6 334/5/6 346/5/6
f 335/3/6 336/3/6 347/3/6
f 346/1/6 335/1/6 347/1/6
f 336/3/6 337/3/6 347/3/6
f 347/3/6 337/3/6 348/3/6
f 348/3/6 337/3/6 349/3/6
f 341/1/6 342/1/6 350/1/6
f 340/1/6 341/1/6 350/1/6
f 350/1/6 342/1/6 351/1/6
f 343/1/6 344/1/6 352/1/6
f 344/3/6 345/3/6 353/3/6
f 352/1/6 344/1/6 353/1/6
f 345/5/6 346/5/6 354/5/6
f 353/3/6 345/3/6 354/3/6
f 347/3/6 348/3/6 355/3/6
f 354/5/6 346/5/6 355/5/6
f 346/3/6 347/3/6 355/3/6
f 355/3/6 348/3/6 356/3/6
