# Blender 4.2.3 LTS
# www.blender.org
mtllib Untitled.013.mtl
o Untitled.013
v -0.243570 0.000000 0.253281
v -0.243570 0.000000 -0.246719
v -0.243570 0.200000 0.253281
v -0.243570 0.200000 0.053281
v -0.243570 0.200000 -0.046719
v -0.243570 0.200000 -0.246719
v -0.243570 0.300000 0.053281
v -0.243570 0.300000 -0.046719
v -0.243570 0.300000 -0.146719
v -0.243570 0.300000 -0.246719
v -0.243570 0.400000 0.253281
v -0.243570 0.400000 0.153281
v -0.243570 0.400000 -0.146719
v -0.243570 0.400000 -0.246719
v -0.243570 0.500000 0.253281
v -0.243570 0.500000 0.153281
v -0.243570 0.600000 0.253281
v -0.243570 0.600000 0.153281
v -0.243570 0.700000 0.253281
v -0.243570 0.700000 0.153281
v -0.243570 0.700000 0.053281
v -0.243570 0.700000 -0.146719
v -0.243570 0.800000 0.153281
v -0.243570 0.800000 0.053281
v -0.243570 0.800000 -0.146719
v -0.243570 0.900000 0.253281
v -0.243570 0.900000 0.153281
v -0.243570 0.900000 0.053281
v -0.243570 1.000000 -0.046719
v -0.243570 1.000000 -0.146719
v -0.243570 1.100000 0.253281
v -0.243570 1.100000 0.153281
v -0.243570 1.100000 -0.046719
v -0.243570 1.100000 -0.146719
v -0.243570 1.200000 0.253281
v -0.243570 1.200000 0.153281
v -0.243570 1.200000 -0.046719
v -0.243570 1.200000 -0.146719
v -0.243570 1.300000 0.153281
v -0.243570 1.300000 0.053281
v -0.243570 1.300000 -0.046719
v -0.243570 1.300000 -0.146719
v -0.243570 1.300000 -0.246719
v -0.243570 1.400000 -0.146719
v -0.243570 1.400000 -0.246719
v -0.243570 1.600000 0.153281
v -0.243570 1.600000 0.053281
v -0.243570 1.600000 -0.146719
v -0.243570 1.600000 -0.246719
v -0.243570 1.700000 0.253281
v -0.243570 1.700000 0.153281
v -0.243570 1.700000 -0.146719
v -0.243570 1.700000 -0.246719
v -0.243570 1.800000 0.253281
v -0.243570 1.800000 0.153281
v -0.243570 1.900000 -0.046719
v -0.243570 1.900000 -0.146719
v -0.243570 2.000000 0.253281
v -0.243570 2.000000 0.153281
v -0.243570 2.000000 -0.046719
v -0.243570 2.000000 -0.146719
v -0.243570 2.100000 0.253281
v -0.243570 2.100000 0.153281
v -0.243570 2.100000 -0.246719
v -0.243570 2.200000 0.253281
v -0.243570 2.200000 -0.246719
v -0.143570 0.700000 0.253281
v -0.143570 0.700000 0.153281
v -0.143570 0.800000 0.153281
v -0.143570 0.900000 0.253281
v -0.143570 0.900000 0.153281
v -0.043570 1.500000 -0.146719
v -0.043570 1.500000 -0.246719
v -0.043570 1.600000 -0.146719
v -0.043570 1.600000 -0.246719
v 0.056430 1.100000 0.253281
v 0.056430 1.100000 0.153281
v 0.056430 1.200000 0.253281
v 0.056430 1.200000 0.153281
v 0.056430 1.600000 -0.146719
v 0.056430 1.600000 -0.246719
v 0.056430 1.700000 -0.146719
v 0.056430 1.700000 -0.246719
v 0.156430 0.500000 -0.146719
v 0.156430 0.500000 -0.246719
v 0.156430 0.600000 -0.146719
v 0.156430 0.600000 -0.246719
v -0.143570 1.500000 -0.146719
v -0.143570 1.500000 -0.246719
v -0.143570 1.600000 -0.146719
v -0.143570 1.600000 -0.246719
v -0.043570 1.100000 0.253281
v -0.043570 1.100000 0.153281
v -0.043570 1.200000 0.253281
v -0.043570 1.200000 0.153281
v -0.043570 1.600000 -0.146719
v -0.043570 1.600000 -0.246719
v -0.043570 1.700000 -0.146719
v -0.043570 1.700000 -0.246719
v 0.056430 0.500000 -0.146719
v 0.056430 0.500000 -0.246719
v 0.056430 0.600000 -0.146719
v 0.056430 0.600000 -0.246719
v 0.156430 1.100000 0.153281
v 0.156430 1.100000 0.053281
v 0.156430 1.300000 0.153281
v 0.156430 1.300000 0.053281
v 0.256430 0.000000 0.253281
v 0.256430 0.000000 -0.246719
v 0.256430 0.200000 0.253281
v 0.256430 0.200000 -0.246719
v 0.256430 0.300000 0.153281
v 0.256430 0.300000 -0.046719
v 0.256430 0.400000 0.153281
v 0.256430 0.400000 -0.046719
v 0.256430 0.400000 -0.146719
v 0.256430 0.400000 -0.246719
v 0.256430 0.500000 -0.146719
v 0.256430 0.500000 -0.246719
v 0.256430 0.600000 0.253281
v 0.256430 0.600000 0.153281
v 0.256430 0.600000 0.053281
v 0.256430 0.600000 -0.146719
v 0.256430 0.700000 0.053281
v 0.256430 0.700000 -0.146719
v 0.256430 0.900000 0.253281
v 0.256430 0.900000 0.153281
v 0.256430 0.900000 -0.046719
v 0.256430 0.900000 -0.246719
v 0.256430 1.000000 0.153281
v 0.256430 1.000000 0.053281
v 0.256430 1.000000 -0.046719
v 0.256430 1.000000 -0.246719
v 0.256430 1.100000 0.153281
v 0.256430 1.100000 0.053281
v 0.256430 1.100000 -0.146719
v 0.256430 1.100000 -0.246719
v 0.256430 1.300000 0.253281
v 0.256430 1.300000 0.153281
v 0.256430 1.300000 0.053281
v 0.256430 1.300000 -0.146719
v 0.256430 1.300000 -0.246719
v 0.256430 1.400000 0.253281
v 0.256430 1.400000 0.153281
v 0.256430 1.400000 -0.146719
v 0.256430 1.400000 -0.246719
v 0.256430 1.500000 0.153281
v 0.256430 1.500000 -0.046719
v 0.256430 1.600000 0.153281
v 0.256430 1.600000 -0.046719
v 0.256430 1.700000 -0.146719
v 0.256430 1.700000 -0.246719
v 0.256430 1.800000 0.253281
v 0.256430 1.800000 0.153281
v 0.256430 1.900000 0.253281
v 0.256430 1.900000 0.153281
v 0.256430 2.000000 0.053281
v 0.256430 2.000000 -0.246719
v 0.256430 2.100000 0.253281
v 0.256430 2.100000 0.053281
v 0.256430 2.100000 -0.246719
v 0.256430 2.200000 0.253281
v 0.256430 2.200000 -0.246719
v -0.243570 0.000000 0.253281
v -0.243570 0.200000 0.253281
v -0.243570 0.400000 0.253281
v -0.243570 0.500000 0.253281
v -0.243570 0.600000 0.253281
v -0.243570 0.700000 0.253281
v -0.243570 0.900000 0.253281
v -0.243570 1.100000 0.253281
v -0.243570 1.200000 0.253281
v -0.243570 1.700000 0.253281
v -0.243570 1.800000 0.253281
v -0.243570 2.000000 0.253281
v -0.243570 2.100000 0.253281
v -0.243570 2.200000 0.253281
v -0.143570 0.400000 0.253281
v -0.143570 0.500000 0.253281
v -0.143570 0.600000 0.253281
v -0.143570 0.700000 0.253281
v -0.143570 0.900000 0.253281
v -0.143570 1.500000 0.253281
v -0.143570 1.600000 0.253281
v -0.143570 1.700000 0.253281
v -0.143570 1.800000 0.253281
v -0.043570 0.200000 0.253281
v -0.043570 0.300000 0.253281
v -0.043570 0.800000 0.253281
v -0.043570 0.900000 0.253281
v -0.043570 1.100000 0.253281
v -0.043570 1.200000 0.253281
v -0.043570 2.000000 0.253281
v -0.043570 2.100000 0.253281
v 0.056430 0.400000 0.253281
v 0.056430 0.500000 0.253281
v 0.056430 0.600000 0.253281
v 0.056430 0.700000 0.253281
v 0.056430 0.800000 0.253281
v 0.056430 0.900000 0.253281
v 0.056430 1.000000 0.253281
v 0.056430 1.100000 0.253281
v 0.056430 1.200000 0.253281
v 0.056430 1.500000 0.253281
v 0.056430 1.600000 0.253281
v 0.056430 1.700000 0.253281
v 0.056430 1.800000 0.253281
v 0.056430 1.900000 0.253281
v 0.156430 0.200000 0.253281
v 0.156430 0.300000 0.253281
v 0.156430 0.400000 0.253281
v 0.156430 0.500000 0.253281
v 0.156430 0.700000 0.253281
v 0.156430 0.900000 0.253281
v 0.156430 1.000000 0.253281
v 0.156430 1.300000 0.253281
v 0.156430 1.400000 0.253281
v 0.156430 1.600000 0.253281
v 0.156430 1.700000 0.253281
v 0.256430 0.000000 0.253281
v 0.256430 0.200000 0.253281
v 0.256430 0.600000 0.253281
v 0.256430 0.900000 0.253281
v 0.256430 1.300000 0.253281
v 0.256430 1.400000 0.253281
v 0.256430 1.800000 0.253281
v 0.256430 1.900000 0.253281
v 0.256430 2.100000 0.253281
v 0.256430 2.200000 0.253281
v -0.243570 0.700000 0.153281
v -0.243570 0.800000 0.153281
v -0.243570 0.900000 0.153281
v -0.143570 0.700000 0.153281
v -0.143570 0.800000 0.153281
v -0.143570 0.900000 0.153281
v -0.043570 1.100000 0.153281
v -0.043570 1.200000 0.153281
v 0.056430 1.100000 0.153281
v 0.056430 1.200000 0.153281
v 0.156430 1.100000 0.053281
v 0.156430 1.300000 0.053281
v 0.256430 1.100000 0.053281
v 0.256430 1.300000 0.053281
v 0.156430 1.100000 0.153281
v 0.156430 1.300000 0.153281
v 0.256430 1.100000 0.153281
v 0.256430 1.300000 0.153281
v -0.143570 1.500000 -0.146719
v -0.143570 1.600000 -0.146719
v -0.043570 1.500000 -0.146719
v -0.043570 1.600000 -0.146719
v -0.043570 1.700000 -0.146719
v 0.056430 0.500000 -0.146719
v 0.056430 0.600000 -0.146719
v 0.056430 1.600000 -0.146719
v 0.056430 1.700000 -0.146719
v 0.156430 0.500000 -0.146719
v 0.156430 0.600000 -0.146719
v -0.243570 0.000000 -0.246719
v -0.243570 0.200000 -0.246719
v -0.243570 0.300000 -0.246719
v -0.243570 0.400000 -0.246719
v -0.243570 1.300000 -0.246719
v -0.243570 1.400000 -0.246719
v -0.243570 1.600000 -0.246719
v -0.243570 1.700000 -0.246719
v -0.243570 2.100000 -0.246719
v -0.243570 2.200000 -0.246719
v -0.143570 0.200000 -0.246719
v -0.143570 0.300000 -0.246719
v -0.143570 0.400000 -0.246719
v -0.143570 0.700000 -0.246719
v -0.143570 0.800000 -0.246719
v -0.143570 1.000000 -0.246719
v -0.143570 1.100000 -0.246719
v -0.143570 1.300000 -0.246719
v -0.143570 1.400000 -0.246719
v -0.143570 1.500000 -0.246719
v -0.143570 1.600000 -0.246719
v -0.143570 1.700000 -0.246719
v -0.143570 1.800000 -0.246719
v -0.143570 1.900000 -0.246719
v -0.043570 0.200000 -0.246719
v -0.043570 0.300000 -0.246719
v -0.043570 0.400000 -0.246719
v -0.043570 0.500000 -0.246719
v -0.043570 1.000000 -0.246719
v -0.043570 1.100000 -0.246719
v -0.043570 1.300000 -0.246719
v -0.043570 1.500000 -0.246719
v -0.043570 1.600000 -0.246719
v -0.043570 1.700000 -0.246719
v 0.056430 0.500000 -0.246719
v 0.056430 0.600000 -0.246719
v 0.056430 0.700000 -0.246719
v 0.056430 0.800000 -0.246719
v 0.056430 1.300000 -0.246719
v 0.056430 1.400000 -0.246719
v 0.056430 1.600000 -0.246719
v 0.056430 1.700000 -0.246719
v 0.056430 1.800000 -0.246719
v 0.056430 1.900000 -0.246719
v 0.156430 0.500000 -0.246719
v 0.156430 0.600000 -0.246719
v 0.156430 0.900000 -0.246719
v 0.156430 1.000000 -0.246719
v 0.156430 1.100000 -0.246719
v 0.156430 1.300000 -0.246719
v 0.156430 1.500000 -0.246719
v 0.156430 1.700000 -0.246719
v 0.156430 2.000000 -0.246719
v 0.156430 2.100000 -0.246719
v 0.256430 0.000000 -0.246719
v 0.256430 0.200000 -0.246719
v 0.256430 0.400000 -0.246719
v 0.256430 0.500000 -0.246719
v 0.256430 0.900000 -0.246719
v 0.256430 1.000000 -0.246719
v 0.256430 1.100000 -0.246719
v 0.256430 1.300000 -0.246719
v 0.256430 1.400000 -0.246719
v 0.256430 1.700000 -0.246719
v 0.256430 2.000000 -0.246719
v 0.256430 2.100000 -0.246719
v 0.256430 2.200000 -0.246719
v -0.243570 0.000000 0.253281
v 0.256430 0.000000 0.253281
v -0.243570 0.000000 -0.246719
v 0.256430 0.000000 -0.246719
v 0.056430 0.600000 -0.146719
v 0.156430 0.600000 -0.146719
v 0.056430 0.600000 -0.246719
v 0.156430 0.600000 -0.246719
v -0.243570 0.900000 0.253281
v -0.143570 0.900000 0.253281
v -0.243570 0.900000 0.153281
v -0.143570 0.900000 0.153281
v -0.043570 1.200000 0.253281
v 0.056430 1.200000 0.253281
v -0.043570 1.200000 0.153281
v 0.056430 1.200000 0.153281
v 0.156430 1.300000 0.153281
v 0.256430 1.300000 0.153281
v 0.156430 1.300000 0.053281
v 0.256430 1.300000 0.053281
v -0.143570 1.600000 -0.146719
v -0.043570 1.600000 -0.146719
v -0.143570 1.600000 -0.246719
v -0.043570 1.600000 -0.246719
v -0.043570 1.700000 -0.146719
v 0.056430 1.700000 -0.146719
v -0.043570 1.700000 -0.246719
v 0.056430 1.700000 -0.246719
v 0.056430 0.500000 -0.146719
v 0.156430 0.500000 -0.146719
v 0.056430 0.500000 -0.246719
v 0.156430 0.500000 -0.246719
v -0.243570 0.700000 0.253281
v -0.143570 0.700000 0.253281
v -0.243570 0.700000 0.153281
v -0.143570 0.700000 0.153281
v -0.043570 1.100000 0.253281
v 0.056430 1.100000 0.253281
v -0.043570 1.100000 0.153281
v 0.056430 1.100000 0.153281
v 0.156430 1.100000 0.153281
v 0.256430 1.100000 0.153281
v 0.156430 1.100000 0.053281
v 0.256430 1.100000 0.053281
v -0.143570 1.500000 -0.146719
v -0.043570 1.500000 -0.146719
v -0.143570 1.500000 -0.246719
v -0.043570 1.500000 -0.246719
v -0.043570 1.600000 -0.146719
v 0.056430 1.600000 -0.146719
v -0.043570 1.600000 -0.246719
v 0.056430 1.600000 -0.246719
v -0.243570 2.200000 0.253281
v 0.256430 2.200000 0.253281
v -0.243570 2.200000 -0.246719
v 0.256430 2.200000 -0.246719
vn -1.0000 -0.0000 -0.0000
vn 1.0000 -0.0000 -0.0000
vn -0.0000 -0.0000 1.0000
vn -0.0000 -0.0000 -1.0000
vn -0.0000 -1.0000 -0.0000
vn -0.0000 1.0000 -0.0000
vt 0.974609 0.500000
vt 0.986328 0.500000
vt 0.982422 0.500000
vt 0.978516 0.500000
vt 0.990234 0.500000
s 0
usemtl palette.013
f 3/1/1 2/1/1 1/1/1
f 4/1/1 2/1/1 3/1/1
f 5/1/1 2/1/1 4/1/1
f 6/1/1 2/1/1 5/1/1
f 7/2/1 4/2/1 3/2/1
f 7/3/1 5/3/1 4/3/1
f 8/2/1 6/2/1 5/2/1
f 8/3/1 5/3/1 7/3/1
f 9/2/1 6/2/1 8/2/1
f 10/2/1 6/2/1 9/2/1
f 11/2/1 7/2/1 3/2/1
f 11/2/1 8/2/1 7/2/1
f 11/2/1 9/2/1 8/2/1
f 12/2/1 9/2/1 11/2/1
f 13/4/1 10/4/1 9/4/1
f 13/2/1 9/2/1 12/2/1
f 14/4/1 10/4/1 13/4/1
f 15/3/1 12/3/1 11/3/1
f 16/2/1 13/2/1 12/2/1
f 16/3/1 12/3/1 15/3/1
f 16/2/1 14/2/1 13/2/1
f 17/2/1 16/2/1 15/2/1
f 18/2/1 14/2/1 16/2/1
f 18/2/1 16/2/1 17/2/1
f 19/4/1 18/4/1 17/4/1
f 20/2/1 14/2/1 18/2/1
f 20/4/1 18/4/1 19/4/1
f 21/2/1 14/2/1 20/2/1
f 22/2/1 14/2/1 21/2/1
f 23/2/1 21/2/1 20/2/1
f 24/4/1 22/4/1 21/4/1
f 24/2/1 21/2/1 23/2/1
f 25/2/1 14/2/1 22/2/1
f 25/4/1 22/4/1 24/4/1
f 27/4/1 24/4/1 23/4/1
f 28/2/1 25/2/1 24/2/1
f 28/4/1 24/4/1 27/4/1
f 29/2/1 27/2/1 26/2/1
f 29/2/1 25/2/1 28/2/1
f 29/2/1 28/2/1 27/2/1
f 30/2/1 14/2/1 25/2/1
f 30/2/1 25/2/1 29/2/1
f 31/2/1 29/2/1 26/2/1
f 32/2/1 29/2/1 31/2/1
f 33/4/1 30/4/1 29/4/1
f 33/2/1 29/2/1 32/2/1
f 34/2/1 14/2/1 30/2/1
f 34/4/1 30/4/1 33/4/1
f 35/3/1 32/3/1 31/3/1
f 36/2/1 33/2/1 32/2/1
f 36/3/1 32/3/1 35/3/1
f 36/2/1 34/2/1 33/2/1
f 37/2/1 34/2/1 36/2/1
f 38/2/1 14/2/1 34/2/1
f 38/2/1 34/2/1 37/2/1
f 39/2/1 37/2/1 36/2/1
f 39/2/1 36/2/1 35/2/1
f 40/2/1 37/2/1 39/2/1
f 41/3/1 38/3/1 37/3/1
f 41/2/1 37/2/1 40/2/1
f 42/2/1 14/2/1 38/2/1
f 42/3/1 38/3/1 41/3/1
f 43/2/1 14/2/1 42/2/1
f 44/2/1 41/2/1 40/2/1
f 44/2/1 42/2/1 41/2/1
f 44/3/1 43/3/1 42/3/1
f 45/3/1 43/3/1 44/3/1
f 46/3/1 40/3/1 39/3/1
f 46/2/1 39/2/1 35/2/1
f 47/2/1 45/2/1 44/2/1
f 47/3/1 40/3/1 46/3/1
f 47/2/1 44/2/1 40/2/1
f 48/2/1 45/2/1 47/2/1
f 49/2/1 45/2/1 48/2/1
f 50/2/1 46/2/1 35/2/1
f 50/2/1 47/2/1 46/2/1
f 50/2/1 48/2/1 47/2/1
f 51/2/1 48/2/1 50/2/1
f 52/4/1 49/4/1 48/4/1
f 52/2/1 48/2/1 51/2/1
f 53/4/1 49/4/1 52/4/1
f 54/4/1 51/4/1 50/4/1
f 55/2/1 52/2/1 51/2/1
f 55/4/1 51/4/1 54/4/1
f 55/2/1 53/2/1 52/2/1
f 56/2/1 55/2/1 54/2/1
f 56/2/1 53/2/1 55/2/1
f 57/2/1 53/2/1 56/2/1
f 58/2/1 56/2/1 54/2/1
f 59/2/1 56/2/1 58/2/1
f 60/3/1 57/3/1 56/3/1
f 60/2/1 56/2/1 59/2/1
f 61/2/1 53/2/1 57/2/1
f 61/3/1 57/3/1 60/3/1
f 62/3/1 59/3/1 58/3/1
f 63/2/1 60/2/1 59/2/1
f 63/3/1 59/3/1 62/3/1
f 63/2/1 61/2/1 60/2/1
f 64/2/1 53/2/1 61/2/1
f 64/2/1 61/2/1 63/2/1
f 65/5/1 63/5/1 62/5/1
f 65/5/1 64/5/1 63/5/1
f 66/5/1 64/5/1 65/5/1
f 69/2/1 68/2/1 67/2/1
f 70/2/1 69/2/1 67/2/1
f 71/2/1 69/2/1 70/2/1
f 74/2/1 73/2/1 72/2/1
f 75/2/1 73/2/1 74/2/1
f 78/2/1 77/2/1 76/2/1
f 79/2/1 77/2/1 78/2/1
f 82/2/1 81/2/1 80/2/1
f 83/2/1 81/2/1 82/2/1
f 86/2/1 85/2/1 84/2/1
f 87/2/1 85/2/1 86/2/1
f 88/2/2 89/2/2 90/2/2
f 90/2/2 89/2/2 91/2/2
f 92/3/2 93/3/2 94/3/2
f 94/3/2 93/3/2 95/3/2
f 96/2/2 97/2/2 98/2/2
f 98/2/2 97/2/2 99/2/2
f 100/2/2 101/2/2 102/2/2
f 102/2/2 101/2/2 103/2/2
f 104/2/2 105/2/2 106/2/2
f 106/2/2 105/2/2 107/2/2
f 108/1/2 109/1/2 110/1/2
f 110/1/2 109/1/2 111/1/2
f 110/2/2 111/2/2 112/2/2
f 112/2/2 111/2/2 113/2/2
f 110/2/2 112/2/2 114/2/2
f 112/4/2 113/4/2 114/4/2
f 113/2/2 111/2/2 115/2/2
f 114/4/2 113/4/2 115/4/2
f 115/2/2 111/2/2 116/2/2
f 116/2/2 111/2/2 117/2/2
f 114/2/2 115/2/2 118/2/2
f 115/2/2 116/2/2 118/2/2
f 116/3/2 117/3/2 118/3/2
f 118/3/2 117/3/2 119/3/2
f 110/2/2 114/2/2 120/2/2
f 114/2/2 118/2/2 120/2/2
f 118/2/2 119/2/2 120/2/2
f 120/2/2 119/2/2 121/2/2
f 121/2/2 119/2/2 122/2/2
f 122/2/2 119/2/2 123/2/2
f 121/2/2 122/2/2 124/2/2
f 122/4/2 123/4/2 124/4/2
f 123/2/2 119/2/2 125/2/2
f 124/4/2 123/4/2 125/4/2
f 120/3/2 121/3/2 126/3/2
f 121/2/2 124/2/2 127/2/2
f 126/3/2 121/3/2 127/3/2
f 124/2/2 125/2/2 127/2/2
f 127/2/2 125/2/2 128/2/2
f 125/2/2 119/2/2 129/2/2
f 128/2/2 125/2/2 129/2/2
f 127/2/2 128/2/2 130/2/2
f 126/2/2 127/2/2 130/2/2
f 130/2/2 128/2/2 131/2/2
f 128/3/2 129/3/2 132/3/2
f 131/2/2 128/2/2 132/2/2
f 132/3/2 129/3/2 133/3/2
f 130/4/2 131/4/2 134/4/2
f 126/2/2 130/2/2 134/2/2
f 132/2/2 133/2/2 135/2/2
f 134/4/2 131/4/2 135/4/2
f 131/2/2 132/2/2 135/2/2
f 135/2/2 133/2/2 136/2/2
f 136/2/2 133/2/2 137/2/2
f 126/2/2 134/2/2 138/2/2
f 138/2/2 134/2/2 139/2/2
f 135/2/2 136/2/2 140/2/2
f 136/4/2 137/4/2 141/4/2
f 140/2/2 136/2/2 141/2/2
f 141/4/2 137/4/2 142/4/2
f 138/3/2 139/3/2 143/3/2
f 139/2/2 140/2/2 144/2/2
f 143/3/2 139/3/2 144/3/2
f 140/2/2 141/2/2 144/2/2
f 141/2/2 142/2/2 144/2/2
f 144/2/2 142/2/2 145/2/2
f 145/2/2 142/2/2 146/2/2
f 143/2/2 144/2/2 147/2/2
f 144/2/2 145/2/2 147/2/2
f 147/2/2 145/2/2 148/2/2
f 143/2/2 147/2/2 149/2/2
f 147/4/2 148/4/2 149/4/2
f 148/2/2 145/2/2 150/2/2
f 149/4/2 148/4/2 150/4/2
f 145/3/2 146/3/2 151/3/2
f 150/2/2 145/2/2 151/2/2
f 149/2/2 150/2/2 151/2/2
f 151/3/2 146/3/2 152/3/2
f 143/2/2 149/2/2 153/2/2
f 149/2/2 151/2/2 153/2/2
f 151/2/2 152/2/2 153/2/2
f 153/2/2 152/2/2 154/2/2
f 153/4/2 154/4/2 155/4/2
f 154/2/2 152/2/2 156/2/2
f 155/4/2 154/4/2 156/4/2
f 155/2/2 156/2/2 157/2/2
f 156/2/2 152/2/2 157/2/2
f 157/2/2 152/2/2 158/2/2
f 155/2/2 157/2/2 159/2/2
f 157/4/2 158/4/2 160/4/2
f 159/2/2 157/2/2 160/2/2
f 160/4/2 158/4/2 161/4/2
f 159/5/2 160/5/2 162/5/2
f 160/5/2 161/5/2 162/5/2
f 162/5/2 161/5/2 163/5/2
f 178/2/3 166/2/3 165/2/3
f 178/3/3 167/3/3 166/3/3
f 179/2/3 168/2/3 167/2/3
f 179/3/3 167/3/3 178/3/3
f 180/4/3 169/4/3 168/4/3
f 180/2/3 168/2/3 179/2/3
f 181/4/3 169/4/3 180/4/3
f 182/2/3 171/2/3 170/2/3
f 183/2/3 173/2/3 172/2/3
f 184/2/3 173/2/3 183/2/3
f 185/4/3 174/4/3 173/4/3
f 185/2/3 173/2/3 184/2/3
f 186/2/3 175/2/3 174/2/3
f 186/4/3 174/4/3 185/4/3
f 187/1/3 165/1/3 164/1/3
f 187/2/3 178/2/3 165/2/3
f 187/2/3 179/2/3 178/2/3
f 187/2/3 181/2/3 180/2/3
f 187/2/3 182/2/3 181/2/3
f 187/2/3 180/2/3 179/2/3
f 188/2/3 182/2/3 187/2/3
f 189/2/3 182/2/3 188/2/3
f 190/2/3 171/2/3 182/2/3
f 190/2/3 182/2/3 189/2/3
f 191/3/3 172/3/3 171/3/3
f 191/2/3 171/2/3 190/2/3
f 192/2/3 183/2/3 172/2/3
f 192/3/3 172/3/3 191/3/3
f 193/2/3 175/2/3 186/2/3
f 193/3/3 176/3/3 175/3/3
f 193/2/3 186/2/3 185/2/3
f 193/2/3 185/2/3 184/2/3
f 194/5/3 177/5/3 176/5/3
f 194/3/3 176/3/3 193/3/3
f 195/2/3 189/2/3 188/2/3
f 196/2/3 189/2/3 195/2/3
f 197/2/3 189/2/3 196/2/3
f 198/2/3 189/2/3 197/2/3
f 199/4/3 190/4/3 189/4/3
f 199/2/3 189/2/3 198/2/3
f 200/2/3 191/2/3 190/2/3
f 200/4/3 190/4/3 199/4/3
f 201/2/3 191/2/3 200/2/3
f 202/2/3 191/2/3 201/2/3
f 203/2/3 183/2/3 192/2/3
f 204/3/3 184/3/3 183/3/3
f 204/2/3 183/2/3 203/2/3
f 205/2/3 193/2/3 184/2/3
f 205/3/3 184/3/3 204/3/3
f 205/2/3 194/2/3 193/2/3
f 206/2/3 194/2/3 205/2/3
f 207/2/3 194/2/3 206/2/3
f 208/2/3 194/2/3 207/2/3
f 209/4/3 188/4/3 187/4/3
f 209/1/3 187/1/3 164/1/3
f 210/2/3 195/2/3 188/2/3
f 210/4/3 188/4/3 209/4/3
f 211/3/3 196/3/3 195/3/3
f 211/2/3 195/2/3 210/2/3
f 212/2/3 197/2/3 196/2/3
f 212/3/3 196/3/3 211/3/3
f 213/2/3 199/2/3 198/2/3
f 213/3/3 198/3/3 197/3/3
f 213/2/3 200/2/3 199/2/3
f 214/4/3 201/4/3 200/4/3
f 214/2/3 200/2/3 213/2/3
f 215/2/3 202/2/3 201/2/3
f 215/4/3 201/4/3 214/4/3
f 215/2/3 204/2/3 203/2/3
f 215/2/3 203/2/3 202/2/3
f 215/2/3 205/2/3 204/2/3
f 216/2/3 205/2/3 215/2/3
f 217/2/3 205/2/3 216/2/3
f 218/3/3 206/3/3 205/3/3
f 218/2/3 205/2/3 217/2/3
f 219/2/3 207/2/3 206/2/3
f 219/3/3 206/3/3 218/3/3
f 220/1/3 209/1/3 164/1/3
f 221/2/3 212/2/3 211/2/3
f 221/1/3 209/1/3 220/1/3
f 221/2/3 210/2/3 209/2/3
f 221/2/3 211/2/3 210/2/3
f 222/3/3 214/3/3 213/3/3
f 222/2/3 212/2/3 221/2/3
f 222/2/3 197/2/3 212/2/3
f 222/3/3 213/3/3 197/3/3
f 223/2/3 215/2/3 214/2/3
f 223/3/3 214/3/3 222/3/3
f 223/2/3 216/2/3 215/2/3
f 224/3/3 217/3/3 216/3/3
f 224/2/3 216/2/3 223/2/3
f 225/2/3 218/2/3 217/2/3
f 225/3/3 217/3/3 224/3/3
f 225/2/3 219/2/3 218/2/3
f 226/4/3 208/4/3 207/4/3
f 226/2/3 219/2/3 225/2/3
f 226/2/3 207/2/3 219/2/3
f 227/2/3 194/2/3 208/2/3
f 227/4/3 208/4/3 226/4/3
f 228/5/3 177/5/3 194/5/3
f 228/2/3 194/2/3 227/2/3
f 229/5/3 177/5/3 228/5/3
f 233/2/3 231/2/3 230/2/3
f 234/4/3 232/4/3 231/4/3
f 234/2/3 231/2/3 233/2/3
f 235/4/3 232/4/3 234/4/3
f 238/2/3 237/2/3 236/2/3
f 239/2/3 237/2/3 238/2/3
f 242/2/3 241/2/3 240/2/3
f 243/2/3 241/2/3 242/2/3
f 244/2/4 245/2/4 246/2/4
f 246/2/4 245/2/4 247/2/4
f 248/2/4 249/2/4 250/2/4
f 250/2/4 249/2/4 251/2/4
f 251/2/4 252/2/4 255/2/4
f 255/2/4 252/2/4 256/2/4
f 253/2/4 254/2/4 257/2/4
f 257/2/4 254/2/4 258/2/4
f 259/1/4 260/1/4 269/1/4
f 260/2/4 261/2/4 269/2/4
f 261/4/4 262/4/4 270/4/4
f 269/2/4 261/2/4 270/2/4
f 262/2/4 263/2/4 271/2/4
f 270/4/4 262/4/4 271/4/4
f 271/2/4 263/2/4 272/2/4
f 272/2/4 263/2/4 273/2/4
f 273/2/4 263/2/4 274/2/4
f 274/2/4 263/2/4 275/2/4
f 263/3/4 264/3/4 276/3/4
f 275/2/4 263/2/4 276/2/4
f 264/2/4 265/2/4 277/2/4
f 276/3/4 264/3/4 277/3/4
f 277/2/4 265/2/4 278/2/4
f 265/4/4 266/4/4 279/4/4
f 278/2/4 265/2/4 279/2/4
f 266/2/4 267/2/4 280/2/4
f 279/4/4 266/4/4 280/4/4
f 280/2/4 267/2/4 281/2/4
f 281/2/4 267/2/4 282/2/4
f 259/1/4 269/1/4 283/1/4
f 269/4/4 270/4/4 283/4/4
f 270/2/4 271/2/4 284/2/4
f 283/4/4 270/4/4 284/4/4
f 271/2/4 272/2/4 284/2/4
f 284/2/4 272/2/4 285/2/4
f 285/2/4 272/2/4 286/2/4
f 274/4/4 275/4/4 287/4/4
f 273/2/4 274/2/4 287/2/4
f 275/2/4 276/2/4 288/2/4
f 287/4/4 275/4/4 288/4/4
f 277/2/4 278/2/4 288/2/4
f 276/2/4 277/2/4 288/2/4
f 288/2/4 278/2/4 289/2/4
f 289/2/4 278/2/4 290/2/4
f 280/2/4 281/2/4 291/2/4
f 279/2/4 280/2/4 291/2/4
f 291/2/4 281/2/4 292/2/4
f 286/2/4 272/2/4 293/2/4
f 285/3/4 286/3/4 293/3/4
f 293/2/4 272/2/4 294/2/4
f 272/3/4 273/3/4 295/3/4
f 294/2/4 272/2/4 295/2/4
f 273/2/4 287/2/4 296/2/4
f 295/3/4 273/3/4 296/3/4
f 288/2/4 289/2/4 296/2/4
f 287/2/4 288/2/4 296/2/4
f 289/3/4 290/3/4 297/3/4
f 296/2/4 289/2/4 297/2/4
f 297/3/4 290/3/4 298/3/4
f 290/2/4 291/2/4 299/2/4
f 292/2/4 281/2/4 300/2/4
f 281/4/4 282/4/4 301/4/4
f 300/2/4 281/2/4 301/2/4
f 282/2/4 267/2/4 302/2/4
f 301/4/4 282/4/4 302/4/4
f 285/3/4 293/3/4 303/3/4
f 295/2/4 296/2/4 304/2/4
f 294/2/4 295/2/4 304/2/4
f 296/2/4 297/2/4 304/2/4
f 297/2/4 298/2/4 304/2/4
f 304/2/4 298/2/4 305/2/4
f 305/2/4 298/2/4 306/2/4
f 306/2/4 298/2/4 307/2/4
f 307/2/4 298/2/4 308/2/4
f 300/2/4 301/2/4 309/2/4
f 299/2/4 300/2/4 309/2/4
f 290/2/4 299/2/4 309/2/4
f 301/2/4 302/2/4 309/2/4
f 298/3/4 290/3/4 309/3/4
f 309/2/4 302/2/4 310/2/4
f 302/2/4 267/2/4 311/2/4
f 310/2/4 302/2/4 311/2/4
f 267/5/4 268/5/4 312/5/4
f 311/2/4 267/2/4 312/2/4
f 259/1/4 283/1/4 313/1/4
f 284/2/4 285/2/4 314/2/4
f 313/1/4 283/1/4 314/1/4
f 283/2/4 284/2/4 314/2/4
f 285/3/4 303/3/4 315/3/4
f 314/2/4 285/2/4 315/2/4
f 304/2/4 305/2/4 316/2/4
f 315/3/4 303/3/4 316/3/4
f 303/2/4 304/2/4 316/2/4
f 305/3/4 306/3/4 317/3/4
f 316/2/4 305/2/4 317/2/4
f 306/2/4 307/2/4 318/2/4
f 317/3/4 306/3/4 318/3/4
f 307/4/4 308/4/4 319/4/4
f 318/2/4 307/2/4 319/2/4
f 308/2/4 298/2/4 320/2/4
f 319/4/4 308/4/4 320/4/4
f 309/3/4 310/3/4 321/3/4
f 320/2/4 298/2/4 321/2/4
f 298/3/4 309/3/4 321/3/4
f 310/2/4 311/2/4 322/2/4
f 321/3/4 310/3/4 322/3/4
f 311/4/4 312/4/4 323/4/4
f 322/2/4 311/2/4 323/2/4
f 312/5/4 268/5/4 324/5/4
f 323/4/4 312/4/4 324/4/4
f 324/5/4 268/5/4 325/5/4
f 328/1/5 327/1/5 326/1/5
f 329/1/5 327/1/5 328/1/5
f 332/2/5 331/2/5 330/2/5
f 333/2/5 331/2/5 332/2/5
f 336/2/5 335/2/5 334/2/5
f 337/2/5 335/2/5 336/2/5
f 340/2/5 339/2/5 338/2/5
f 341/2/5 339/2/5 340/2/5
f 344/2/5 343/2/5 342/2/5
f 345/2/5 343/2/5 344/2/5
f 348/2/5 347/2/5 346/2/5
f 349/2/5 347/2/5 348/2/5
f 352/2/5 351/2/5 350/2/5
f 353/2/5 351/2/5 352/2/5
f 354/3/6 355/3/6 356/3/6
f 356/3/6 355/3/6 357/3/6
f 358/4/6 359/4/6 360/4/6
f 360/4/6 359/4/6 361/4/6
f 362/2/6 363/2/6 364/2/6
f 364/2/6 363/2/6 365/2/6
f 366/4/6 367/4/6 368/4/6
f 368/4/6 367/4/6 369/4/6
f 370/2/6 371/2/6 372/2/6
f 372/2/6 371/2/6 373/2/6
f 374/2/6 375/2/6 376/2/6
f 376/2/6 375/2/6 377/2/6
f 378/5/6 379/5/6 380/5/6
f 380/5/6 379/5/6 381/5/6
