# Blender 4.3.2
# www.blender.org
mtllib 3x3_tire_2.mtl
o Untitled
v -0.250000 -0.150000 0.100000
v -0.250000 -0.150000 -0.100000
v -0.250000 0.150000 0.100000
v -0.250000 0.150000 -0.100000
v -0.150000 -0.250000 0.100000
v -0.150000 -0.250000 -0.100000
v -0.150000 -0.150000 0.100000
v -0.150000 -0.150000 -0.100000
v -0.150000 0.150000 0.100000
v -0.150000 0.150000 -0.100000
v -0.150000 0.250000 0.100000
v -0.150000 0.250000 -0.100000
v 0.150000 -0.250000 0.100000
v 0.150000 -0.250000 -0.100000
v 0.150000 -0.150000 0.100000
v 0.150000 -0.150000 -0.100000
v 0.150000 0.150000 0.100000
v 0.150000 0.150000 -0.100000
v 0.150000 0.250000 0.100000
v 0.150000 0.250000 -0.100000
v 0.250000 -0.150000 0.100000
v 0.250000 -0.150000 -0.100000
v 0.250000 0.150000 0.100000
v 0.250000 0.150000 -0.100000
v -0.250000 -0.150000 0.100000
v -0.250000 0.150000 0.100000
v -0.150000 -0.250000 0.100000
v -0.150000 -0.150000 0.100000
v -0.150000 -0.050000 0.100000
v -0.150000 0.150000 0.100000
v -0.150000 0.250000 0.100000
v -0.050000 -0.050000 0.100000
v -0.050000 0.050000 0.100000
v 0.050000 -0.050000 0.100000
v 0.050000 0.050000 0.100000
v 0.150000 -0.250000 0.100000
v 0.150000 -0.150000 0.100000
v 0.150000 0.050000 0.100000
v 0.150000 0.150000 0.100000
v 0.150000 0.250000 0.100000
v 0.250000 -0.150000 0.100000
v 0.250000 0.150000 0.100000
v -0.250000 -0.150000 -0.100000
v -0.250000 0.150000 -0.100000
v -0.150000 -0.250000 -0.100000
v -0.150000 -0.150000 -0.100000
v -0.150000 -0.050000 -0.100000
v -0.150000 0.150000 -0.100000
v -0.150000 0.250000 -0.100000
v -0.050000 -0.050000 -0.100000
v -0.050000 0.050000 -0.100000
v 0.050000 -0.050000 -0.100000
v 0.050000 0.050000 -0.100000
v 0.150000 -0.250000 -0.100000
v 0.150000 -0.150000 -0.100000
v 0.150000 0.050000 -0.100000
v 0.150000 0.150000 -0.100000
v 0.150000 0.250000 -0.100000
v 0.250000 -0.150000 -0.100000
v 0.250000 0.150000 -0.100000
v -0.150000 -0.250000 0.100000
v 0.150000 -0.250000 0.100000
v -0.150000 -0.250000 -0.100000
v 0.150000 -0.250000 -0.100000
v -0.250000 -0.150000 0.100000
v -0.150000 -0.150000 0.100000
v 0.150000 -0.150000 0.100000
v 0.250000 -0.150000 0.100000
v -0.250000 -0.150000 -0.100000
v -0.150000 -0.150000 -0.100000
v 0.150000 -0.150000 -0.100000
v 0.250000 -0.150000 -0.100000
v -0.250000 0.150000 0.100000
v -0.150000 0.150000 0.100000
v 0.150000 0.150000 0.100000
v 0.250000 0.150000 0.100000
v -0.250000 0.150000 -0.100000
v -0.150000 0.150000 -0.100000
v 0.150000 0.150000 -0.100000
v 0.250000 0.150000 -0.100000
v -0.150000 0.250000 0.100000
v 0.150000 0.250000 0.100000
v -0.150000 0.250000 -0.100000
v 0.150000 0.250000 -0.100000
vn -1.0000 -0.0000 -0.0000
vn 1.0000 -0.0000 -0.0000
vn -0.0000 -0.0000 1.0000
vn -0.0000 -0.0000 -1.0000
vn -0.0000 -1.0000 -0.0000
vn -0.0000 1.0000 -0.0000
vt 0.994141 0.500000
vt 0.982422 0.500000
vt 0.958984 0.500000
s 1
usemtl palette.001
f 3/1/1 2/1/1 1/1/1
f 4/1/1 2/1/1 3/1/1
f 7/1/1 6/1/1 5/1/1
f 8/1/1 6/1/1 7/1/1
f 11/1/1 10/1/1 9/1/1
f 12/1/1 10/1/1 11/1/1
f 13/1/2 14/1/2 15/1/2
f 15/1/2 14/1/2 16/1/2
f 17/1/2 18/1/2 19/1/2
f 19/1/2 18/1/2 20/1/2
f 21/1/2 22/1/2 23/1/2
f 23/1/2 22/1/2 24/1/2
f 28/1/3 26/1/3 25/1/3
f 29/1/3 26/1/3 28/1/3
f 30/1/3 26/1/3 29/1/3
f 32/2/3 29/2/3 28/2/3
f 32/3/3 30/3/3 29/3/3
f 33/3/3 30/3/3 32/3/3
f 34/2/3 32/2/3 28/2/3
f 34/1/3 33/1/3 32/1/3
f 35/3/3 30/3/3 33/3/3
f 35/1/3 33/1/3 34/1/3
f 36/1/3 28/1/3 27/1/3
f 37/2/3 34/2/3 28/2/3
f 37/1/3 28/1/3 36/1/3
f 37/2/3 35/2/3 34/2/3
f 38/3/3 30/3/3 35/3/3
f 38/2/3 35/2/3 37/2/3
f 39/1/3 31/1/3 30/1/3
f 39/3/3 30/3/3 38/3/3
f 40/1/3 31/1/3 39/1/3
f 41/1/3 38/1/3 37/1/3
f 41/1/3 39/1/3 38/1/3
f 42/1/3 39/1/3 41/1/3
f 43/1/4 44/1/4 46/1/4
f 46/1/4 44/1/4 47/1/4
f 47/1/4 44/1/4 48/1/4
f 46/2/4 47/2/4 50/2/4
f 47/3/4 48/3/4 50/3/4
f 50/3/4 48/3/4 51/3/4
f 46/2/4 50/2/4 52/2/4
f 50/1/4 51/1/4 52/1/4
f 51/3/4 48/3/4 53/3/4
f 52/1/4 51/1/4 53/1/4
f 45/1/4 46/1/4 54/1/4
f 46/2/4 52/2/4 55/2/4
f 54/1/4 46/1/4 55/1/4
f 52/2/4 53/2/4 55/2/4
f 53/3/4 48/3/4 56/3/4
f 55/2/4 53/2/4 56/2/4
f 48/1/4 49/1/4 57/1/4
f 56/3/4 48/3/4 57/3/4
f 57/1/4 49/1/4 58/1/4
f 55/1/4 56/1/4 59/1/4
f 56/1/4 57/1/4 59/1/4
f 59/1/4 57/1/4 60/1/4
f 63/1/5 62/1/5 61/1/5
f 64/1/5 62/1/5 63/1/5
f 69/1/5 66/1/5 65/1/5
f 70/1/5 66/1/5 69/1/5
f 71/1/5 68/1/5 67/1/5
f 72/1/5 68/1/5 71/1/5
f 73/1/6 74/1/6 77/1/6
f 77/1/6 74/1/6 78/1/6
f 75/1/6 76/1/6 79/1/6
f 79/1/6 76/1/6 80/1/6
f 81/1/6 82/1/6 83/1/6
f 83/1/6 82/1/6 84/1/6
