# Blender 4.2.3 LTS
# www.blender.org
mtllib Untitled.005.mtl
o Untitled.005
v -0.264583 0.000000 0.056944
v -0.264583 0.000000 -0.043056
v -0.264583 0.100000 0.056944
v -0.264583 0.100000 -0.043056
v -0.064583 0.000000 0.256944
v -0.064583 0.000000 0.056944
v -0.064583 0.000000 -0.043056
v -0.064583 0.000000 -0.143056
v -0.064583 0.100000 0.256944
v -0.064583 0.100000 0.056944
v -0.064583 0.100000 -0.043056
v -0.064583 0.100000 -0.143056
v -0.064583 0.100000 -0.243056
v -0.064583 0.200000 0.056944
v -0.064583 0.200000 -0.043056
v -0.064583 0.200000 -0.143056
v -0.064583 0.200000 -0.243056
v -0.064583 0.300000 0.056944
v -0.064583 0.300000 -0.043056
v 0.135417 0.000000 0.156944
v 0.135417 0.000000 0.056944
v 0.135417 0.100000 0.156944
v 0.135417 0.100000 0.056944
v 0.035417 0.000000 0.256944
v 0.035417 0.000000 0.056944
v 0.035417 0.000000 -0.043056
v 0.035417 0.000000 -0.143056
v 0.035417 0.100000 0.256944
v 0.035417 0.100000 0.056944
v 0.035417 0.100000 -0.043056
v 0.035417 0.100000 -0.143056
v 0.035417 0.100000 -0.243056
v 0.035417 0.200000 0.056944
v 0.035417 0.200000 -0.043056
v 0.035417 0.200000 -0.143056
v 0.035417 0.200000 -0.243056
v 0.035417 0.300000 0.056944
v 0.035417 0.300000 -0.043056
v 0.135417 0.000000 0.056944
v 0.135417 0.000000 -0.043056
v 0.135417 0.100000 0.056944
v 0.135417 0.100000 -0.043056
v 0.235417 0.000000 0.156944
v 0.235417 0.000000 0.056944
v 0.235417 0.100000 0.156944
v 0.235417 0.100000 0.056944
v -0.064583 0.000000 0.256944
v -0.064583 0.100000 0.256944
v 0.035417 0.000000 0.256944
v 0.035417 0.100000 0.256944
v 0.135417 0.000000 0.156944
v 0.135417 0.100000 0.156944
v 0.235417 0.000000 0.156944
v 0.235417 0.100000 0.156944
v -0.264583 0.000000 0.056944
v -0.264583 0.100000 0.056944
v -0.164583 0.000000 0.056944
v -0.164583 0.100000 0.056944
v -0.064583 0.000000 0.056944
v -0.064583 0.100000 0.056944
v -0.064583 0.200000 0.056944
v -0.064583 0.300000 0.056944
v 0.035417 0.000000 0.056944
v 0.035417 0.100000 0.056944
v 0.035417 0.200000 0.056944
v 0.035417 0.300000 0.056944
v 0.135417 0.000000 0.056944
v 0.135417 0.100000 0.056944
v -0.064583 0.100000 -0.143056
v -0.064583 0.200000 -0.143056
v 0.035417 0.100000 -0.143056
v 0.035417 0.200000 -0.143056
v 0.135417 0.000000 0.056944
v 0.135417 0.100000 0.056944
v 0.235417 0.000000 0.056944
v 0.235417 0.100000 0.056944
v -0.264583 0.000000 -0.043056
v -0.264583 0.100000 -0.043056
v -0.164583 0.000000 -0.043056
v -0.164583 0.100000 -0.043056
v -0.064583 0.000000 -0.043056
v -0.064583 0.100000 -0.043056
v -0.064583 0.200000 -0.043056
v -0.064583 0.300000 -0.043056
v 0.035417 0.000000 -0.043056
v 0.035417 0.100000 -0.043056
v 0.035417 0.200000 -0.043056
v 0.035417 0.300000 -0.043056
v 0.135417 0.000000 -0.043056
v 0.135417 0.100000 -0.043056
v -0.064583 0.000000 -0.143056
v -0.064583 0.100000 -0.143056
v 0.035417 0.000000 -0.143056
v 0.035417 0.100000 -0.143056
v -0.064583 0.100000 -0.243056
v -0.064583 0.200000 -0.243056
v 0.035417 0.100000 -0.243056
v 0.035417 0.200000 -0.243056
v -0.064583 0.000000 0.256944
v 0.035417 0.000000 0.256944
v 0.135417 0.000000 0.156944
v 0.235417 0.000000 0.156944
v -0.264583 0.000000 0.056944
v -0.164583 0.000000 0.056944
v -0.064583 0.000000 0.056944
v 0.035417 0.000000 0.056944
v 0.135417 0.000000 0.056944
v 0.235417 0.000000 0.056944
v -0.264583 0.000000 -0.043056
v -0.164583 0.000000 -0.043056
v -0.064583 0.000000 -0.043056
v 0.035417 0.000000 -0.043056
v 0.135417 0.000000 -0.043056
v -0.064583 0.000000 -0.143056
v 0.035417 0.000000 -0.143056
v -0.064583 0.100000 -0.143056
v 0.035417 0.100000 -0.143056
v -0.064583 0.100000 -0.243056
v 0.035417 0.100000 -0.243056
v -0.064583 0.100000 0.256944
v 0.035417 0.100000 0.256944
v 0.135417 0.100000 0.156944
v 0.235417 0.100000 0.156944
v -0.264583 0.100000 0.056944
v -0.164583 0.100000 0.056944
v -0.064583 0.100000 0.056944
v 0.035417 0.100000 0.056944
v 0.135417 0.100000 0.056944
v 0.235417 0.100000 0.056944
v -0.264583 0.100000 -0.043056
v -0.164583 0.100000 -0.043056
v -0.064583 0.100000 -0.043056
v 0.035417 0.100000 -0.043056
v 0.135417 0.100000 -0.043056
v -0.064583 0.100000 -0.143056
v 0.035417 0.100000 -0.143056
v -0.064583 0.200000 -0.143056
v 0.035417 0.200000 -0.143056
v -0.064583 0.200000 -0.243056
v 0.035417 0.200000 -0.243056
v -0.064583 0.300000 0.056944
v 0.035417 0.300000 0.056944
v -0.064583 0.300000 -0.043056
v 0.035417 0.300000 -0.043056
vn -1.0000 -0.0000 -0.0000
vn 1.0000 -0.0000 -0.0000
vn -0.0000 -0.0000 1.0000
vn -0.0000 -0.0000 -1.0000
vn -0.0000 -1.0000 -0.0000
vn -0.0000 1.0000 -0.0000
vt 0.185547 0.500000
vt 0.017578 0.500000
vt 0.990234 0.500000
s 0
usemtl palette.005
f 3/1/1 2/1/1 1/1/1
f 4/1/1 2/1/1 3/1/1
f 9/2/1 6/2/1 5/2/1
f 10/2/1 6/2/1 9/2/1
f 11/1/1 8/1/1 7/1/1
f 12/1/1 8/1/1 11/1/1
f 14/2/1 11/2/1 10/2/1
f 15/2/1 11/2/1 14/2/1
f 16/1/1 13/1/1 12/1/1
f 17/1/1 13/1/1 16/1/1
f 18/3/1 15/3/1 14/3/1
f 19/3/1 15/3/1 18/3/1
f 22/2/1 21/2/1 20/2/1
f 23/2/1 21/2/1 22/2/1
f 24/2/2 25/2/2 28/2/2
f 28/2/2 25/2/2 29/2/2
f 26/1/2 27/1/2 30/1/2
f 30/1/2 27/1/2 31/1/2
f 29/2/2 30/2/2 33/2/2
f 33/2/2 30/2/2 34/2/2
f 31/1/2 32/1/2 35/1/2
f 35/1/2 32/1/2 36/1/2
f 33/3/2 34/3/2 37/3/2
f 37/3/2 34/3/2 38/3/2
f 39/2/2 40/2/2 41/2/2
f 41/2/2 40/2/2 42/2/2
f 43/2/2 44/2/2 45/2/2
f 45/2/2 44/2/2 46/2/2
f 49/2/3 48/2/3 47/2/3
f 50/2/3 48/2/3 49/2/3
f 53/2/3 52/2/3 51/2/3
f 54/2/3 52/2/3 53/2/3
f 57/1/3 56/1/3 55/1/3
f 58/1/3 56/1/3 57/1/3
f 59/2/3 58/2/3 57/2/3
f 60/2/3 58/2/3 59/2/3
f 64/2/3 61/2/3 60/2/3
f 65/3/3 62/3/3 61/3/3
f 65/2/3 61/2/3 64/2/3
f 66/3/3 62/3/3 65/3/3
f 67/2/3 64/2/3 63/2/3
f 68/2/3 64/2/3 67/2/3
f 71/1/3 70/1/3 69/1/3
f 72/1/3 70/1/3 71/1/3
f 73/2/4 74/2/4 75/2/4
f 75/2/4 74/2/4 76/2/4
f 77/1/4 78/1/4 79/1/4
f 79/1/4 78/1/4 80/1/4
f 79/2/4 80/2/4 81/2/4
f 81/2/4 80/2/4 82/2/4
f 82/2/4 83/2/4 86/2/4
f 83/3/4 84/3/4 87/3/4
f 86/2/4 83/2/4 87/2/4
f 87/3/4 84/3/4 88/3/4
f 85/2/4 86/2/4 89/2/4
f 89/2/4 86/2/4 90/2/4
f 91/1/4 92/1/4 93/1/4
f 93/1/4 92/1/4 94/1/4
f 95/1/4 96/1/4 97/1/4
f 97/1/4 96/1/4 98/1/4
f 105/2/5 100/2/5 99/2/5
f 106/2/5 100/2/5 105/2/5
f 107/2/5 102/2/5 101/2/5
f 108/2/5 102/2/5 107/2/5
f 109/1/5 104/1/5 103/1/5
f 110/2/5 106/2/5 105/2/5
f 110/1/5 104/1/5 109/1/5
f 110/2/5 105/2/5 104/2/5
f 110/2/5 107/2/5 106/2/5
f 111/2/5 107/2/5 110/2/5
f 112/2/5 107/2/5 111/2/5
f 113/2/5 107/2/5 112/2/5
f 114/1/5 112/1/5 111/1/5
f 115/1/5 112/1/5 114/1/5
f 118/1/5 117/1/5 116/1/5
f 119/1/5 117/1/5 118/1/5
f 120/2/6 121/2/6 126/2/6
f 126/2/6 121/2/6 127/2/6
f 122/2/6 123/2/6 128/2/6
f 128/2/6 123/2/6 129/2/6
f 124/1/6 125/1/6 130/1/6
f 125/2/6 126/2/6 131/2/6
f 130/1/6 125/1/6 131/1/6
f 131/2/6 126/2/6 132/2/6
f 127/2/6 128/2/6 133/2/6
f 133/2/6 128/2/6 134/2/6
f 132/1/6 133/1/6 135/1/6
f 135/1/6 133/1/6 136/1/6
f 137/1/6 138/1/6 139/1/6
f 139/1/6 138/1/6 140/1/6
f 141/3/6 142/3/6 143/3/6
f 143/3/6 142/3/6 144/3/6
