# MagicaVoxel @ Ephtracy

# group
o 

# material
mtllib checkpoint.mtl
usemtl palette

# normals
vn -1 0 0
vn 1 0 0
vn 0 0 1
vn 0 0 -1
vn 0 -1 0
vn 0 1 0

# texcoords
vt 0.0175781 0.5
vt 0.978516 0.5

# verts
v -3.8 1.6 0.1
v -3.8 1.6 2.83122e-07
v -3.8 2.1 0.1
v -3.8 2.1 2.83122e-07
v -3.5 1.6 2.83122e-07
v -3.5 1.6 -0.0999997
v -3.5 2.1 2.83122e-07
v -3.5 2.1 -0.0999997
v -3.2 -0.1 2.83122e-07
v -3.2 -0.1 -0.0999997
v -3.2 1.6 2.83122e-07
v -3.2 1.6 -0.0999997
v 3.2 -0.1 2.83122e-07
v 3.2 -0.1 -0.0999997
v 3.2 2.1 2.83122e-07
v 3.2 2.1 -0.0999997
v 3.5 1.6 0.1
v 3.5 1.6 2.83122e-07
v 3.5 2.1 0.1
v 3.5 2.1 2.83122e-07
v -3.4 1.6 0.1
v -3.4 1.6 2.83122e-07
v -3.4 2.1 0.1
v -3.4 2.1 2.83122e-07
v -3.1 -0.1 2.83122e-07
v -3.1 -0.1 -0.0999997
v -3.1 2.1 2.83122e-07
v -3.1 2.1 -0.0999997
v 3.3 -0.1 2.83122e-07
v 3.3 -0.1 -0.0999997
v 3.3 1.6 2.83122e-07
v 3.3 1.6 -0.0999997
v 3.6 1.6 2.83122e-07
v 3.6 1.6 -0.0999997
v 3.6 2.1 2.83122e-07
v 3.6 2.1 -0.0999997
v 3.9 1.6 0.1
v 3.9 1.6 2.83122e-07
v 3.9 2.1 0.1
v 3.9 2.1 2.83122e-07
v -3.8 1.6 0.1
v -3.8 2.1 0.1
v -3.4 1.6 0.1
v -3.4 2.1 0.1
v 3.5 1.6 0.1
v 3.5 2.1 0.1
v 3.9 1.6 0.1
v 3.9 2.1 0.1
v -3.4 1.6 2.83122e-07
v -3.4 2.1 2.83122e-07
v -3.2 -0.1 2.83122e-07
v -3.2 1.6 2.83122e-07
v -3.2 2.1 2.83122e-07
v -3.1 -0.1 2.83122e-07
v -3.1 2.1 2.83122e-07
v 3.2 -0.1 2.83122e-07
v 3.2 2.1 2.83122e-07
v 3.3 -0.1 2.83122e-07
v 3.3 1.6 2.83122e-07
v 3.3 2.1 2.83122e-07
v 3.5 1.6 2.83122e-07
v 3.5 2.1 2.83122e-07
v -3.8 1.6 2.83122e-07
v -3.8 2.1 2.83122e-07
v -3.5 1.6 2.83122e-07
v -3.5 2.1 2.83122e-07
v 3.6 1.6 2.83122e-07
v 3.6 2.1 2.83122e-07
v 3.9 1.6 2.83122e-07
v 3.9 2.1 2.83122e-07
v -3.5 1.6 -0.0999997
v -3.5 2.1 -0.0999997
v -3.2 -0.1 -0.0999997
v -3.2 1.6 -0.0999997
v -3.2 2.1 -0.0999997
v -3.1 -0.1 -0.0999997
v -3.1 2.1 -0.0999997
v 3.2 -0.1 -0.0999997
v 3.2 2.1 -0.0999997
v 3.3 -0.1 -0.0999997
v 3.3 1.6 -0.0999997
v 3.3 2.1 -0.0999997
v 3.6 1.6 -0.0999997
v 3.6 2.1 -0.0999997
v -3.2 -0.1 2.83122e-07
v -3.1 -0.1 2.83122e-07
v 3.2 -0.1 2.83122e-07
v 3.3 -0.1 2.83122e-07
v -3.2 -0.1 -0.0999997
v -3.1 -0.1 -0.0999997
v 3.2 -0.1 -0.0999997
v 3.3 -0.1 -0.0999997
v -3.8 1.6 0.1
v -3.4 1.6 0.1
v 3.5 1.6 0.1
v 3.9 1.6 0.1
v -3.8 1.6 2.83122e-07
v -3.5 1.6 2.83122e-07
v -3.4 1.6 2.83122e-07
v -3.2 1.6 2.83122e-07
v 3.3 1.6 2.83122e-07
v 3.5 1.6 2.83122e-07
v 3.6 1.6 2.83122e-07
v 3.9 1.6 2.83122e-07
v -3.5 1.6 -0.0999997
v -3.2 1.6 -0.0999997
v 3.3 1.6 -0.0999997
v 3.6 1.6 -0.0999997
v -3.8 2.1 0.1
v -3.4 2.1 0.1
v 3.5 2.1 0.1
v 3.9 2.1 0.1
v -3.8 2.1 2.83122e-07
v -3.5 2.1 2.83122e-07
v -3.4 2.1 2.83122e-07
v -3.2 2.1 2.83122e-07
v -3.1 2.1 2.83122e-07
v 3.2 2.1 2.83122e-07
v 3.3 2.1 2.83122e-07
v 3.5 2.1 2.83122e-07
v 3.6 2.1 2.83122e-07
v 3.9 2.1 2.83122e-07
v -3.5 2.1 -0.0999997
v -3.2 2.1 -0.0999997
v -3.1 2.1 -0.0999997
v 3.2 2.1 -0.0999997
v 3.3 2.1 -0.0999997
v 3.6 2.1 -0.0999997

# faces
f 3/1/1 2/1/1 1/1/1
f 4/1/1 2/1/1 3/1/1
f 7/1/1 6/1/1 5/1/1
f 8/1/1 6/1/1 7/1/1
f 11/2/1 10/2/1 9/2/1
f 12/2/1 10/2/1 11/2/1
f 15/2/1 14/2/1 13/2/1
f 16/2/1 14/2/1 15/2/1
f 19/1/1 18/1/1 17/1/1
f 20/1/1 18/1/1 19/1/1
f 21/1/2 22/1/2 23/1/2
f 23/1/2 22/1/2 24/1/2
f 25/2/2 26/2/2 27/2/2
f 27/2/2 26/2/2 28/2/2
f 29/2/2 30/2/2 31/2/2
f 31/2/2 30/2/2 32/2/2
f 33/1/2 34/1/2 35/1/2
f 35/1/2 34/1/2 36/1/2
f 37/1/2 38/1/2 39/1/2
f 39/1/2 38/1/2 40/1/2
f 43/1/3 42/1/3 41/1/3
f 44/1/3 42/1/3 43/1/3
f 47/1/3 46/1/3 45/1/3
f 48/1/3 46/1/3 47/1/3
f 52/1/3 50/1/3 49/1/3
f 53/1/3 50/1/3 52/1/3
f 54/2/3 52/2/3 51/2/3
f 54/2/3 53/2/3 52/2/3
f 55/2/3 53/2/3 54/2/3
f 58/2/3 57/2/3 56/2/3
f 59/2/3 57/2/3 58/2/3
f 60/2/3 57/2/3 59/2/3
f 61/1/3 60/1/3 59/1/3
f 62/1/3 60/1/3 61/1/3
f 63/1/4 64/1/4 65/1/4
f 65/1/4 64/1/4 66/1/4
f 67/1/4 68/1/4 69/1/4
f 69/1/4 68/1/4 70/1/4
f 71/1/4 72/1/4 74/1/4
f 74/1/4 72/1/4 75/1/4
f 73/2/4 74/2/4 76/2/4
f 74/2/4 75/2/4 76/2/4
f 76/2/4 75/2/4 77/2/4
f 78/2/4 79/2/4 80/2/4
f 80/2/4 79/2/4 81/2/4
f 81/2/4 79/2/4 82/2/4
f 81/1/4 82/1/4 83/1/4
f 83/1/4 82/1/4 84/1/4
f 89/2/5 86/2/5 85/2/5
f 90/2/5 86/2/5 89/2/5
f 91/2/5 88/2/5 87/2/5
f 92/2/5 88/2/5 91/2/5
f 97/1/5 94/1/5 93/1/5
f 98/1/5 94/1/5 97/1/5
f 99/1/5 94/1/5 98/1/5
f 102/1/5 96/1/5 95/1/5
f 103/1/5 96/1/5 102/1/5
f 104/1/5 96/1/5 103/1/5
f 105/1/5 100/1/5 99/1/5
f 105/1/5 99/1/5 98/1/5
f 106/1/5 100/1/5 105/1/5
f 107/1/5 103/1/5 102/1/5
f 107/1/5 102/1/5 101/1/5
f 108/1/5 103/1/5 107/1/5
f 109/1/6 110/1/6 113/1/6
f 113/1/6 110/1/6 114/1/6
f 114/1/6 110/1/6 115/1/6
f 111/1/6 112/1/6 120/1/6
f 120/1/6 112/1/6 121/1/6
f 121/1/6 112/1/6 122/1/6
f 114/1/6 115/1/6 123/1/6
f 115/1/6 116/1/6 123/1/6
f 116/2/6 117/2/6 124/2/6
f 123/1/6 116/1/6 124/1/6
f 124/2/6 117/2/6 125/2/6
f 118/2/6 119/2/6 126/2/6
f 120/1/6 121/1/6 127/1/6
f 126/2/6 119/2/6 127/2/6
f 119/1/6 120/1/6 127/1/6
f 127/1/6 121/1/6 128/1/6
