# MagicaVoxel @ Ephtracy

# group
o 

# material
mtllib nitroPowerUp.mtl
usemtl palette

# normals
vn -1 0 0
vn 1 0 0
vn 0 0 1
vn 0 0 -1
vn 0 -1 0
vn 0 1 0

# texcoords
vt 0.806641 0.5
vt 0.837891 0.5
vt 0.931641 0.5
vt 0.943359 0.5
vt 0.947266 0.5
vt 0.962891 0.5

# verts
v -0.4 0.1 0.1
v -0.4 0.1 -0.1
v -0.4 0.2 0.2
v -0.4 0.2 0.1
v -0.4 0.2 -0.1
v -0.4 0.2 -0.2
v -0.4 0.3 0
v -0.4 0.3 -0.1
v -0.4 0.4 0.1
v -0.4 0.4 0
v -0.4 0.6 0
v -0.4 0.6 -0.1
v -0.4 0.7 0.1
v -0.4 0.7 0
v -0.4 0.8 0.2
v -0.4 0.8 0.1
v -0.4 0.8 -0.1
v -0.4 0.8 -0.2
v -0.4 0.9 0.1
v -0.4 0.9 -0.1
v -0.3 0 0.2
v -0.3 0 -0.2
v -0.3 0.1 0.3
v -0.3 0.1 0.2
v -0.3 0.1 0.1
v -0.3 0.1 -0.1
v -0.3 0.1 -0.2
v -0.3 0.1 -0.3
v -0.3 0.2 0.2
v -0.3 0.2 0.1
v -0.3 0.2 -0.1
v -0.3 0.2 -0.2
v -0.3 0.3 0.3
v -0.3 0.3 0.2
v -0.3 0.3 -0.2
v -0.3 0.3 -0.3
v -0.3 0.7 0.3
v -0.3 0.7 0.2
v -0.3 0.7 -0.2
v -0.3 0.7 -0.3
v -0.3 0.8 0.2
v -0.3 0.8 0.1
v -0.3 0.8 -0.1
v -0.3 0.8 -0.2
v -0.3 0.9 0.3
v -0.3 0.9 0.2
v -0.3 0.9 0.1
v -0.3 0.9 -0.1
v -0.3 0.9 -0.2
v -0.3 0.9 -0.3
v -0.3 1 0.2
v -0.3 1 -0.2
v -0.2 0 0.3
v -0.2 0 0.2
v -0.2 0 -0.2
v -0.2 0 -0.3
v -0.2 0.1 0.3
v -0.2 0.1 0.2
v -0.2 0.1 -0.2
v -0.2 0.1 -0.3
v -0.2 0.2 0.4
v -0.2 0.2 0.3
v -0.2 0.2 -0.3
v -0.2 0.2 -0.4
v -0.2 0.3 0.3
v -0.2 0.3 -0.3
v -0.2 0.7 0.3
v -0.2 0.7 -0.3
v -0.2 0.8 0.4
v -0.2 0.8 0.3
v -0.2 0.8 -0.3
v -0.2 0.8 -0.4
v -0.2 0.9 0.3
v -0.2 0.9 0.2
v -0.2 0.9 -0.2
v -0.2 0.9 -0.3
v -0.2 1 0.3
v -0.2 1 0.2
v -0.2 1 -0.2
v -0.2 1 -0.3
v -0.1 0.1 0.4
v -0.1 0.1 0.3
v -0.1 0.1 -0.3
v -0.1 0.1 -0.4
v -0.1 0.2 0.4
v -0.1 0.2 0.3
v -0.1 0.2 -0.3
v -0.1 0.2 -0.4
v -0.1 0.8 0.4
v -0.1 0.8 0.3
v -0.1 0.8 -0.3
v -0.1 0.8 -0.4
v -0.1 0.9 0.4
v -0.1 0.9 0.3
v -0.1 0.9 -0.3
v -0.1 0.9 -0.4
v 0.1 0.1 0.4
v 0.1 0.1 0.3
v 0.1 0.1 -0.3
v 0.1 0.1 -0.4
v 0.1 0.2 0.4
v 0.1 0.2 0.3
v 0.1 0.2 -0.3
v 0.1 0.2 -0.4
v 0.1 0.8 0.4
v 0.1 0.8 0.3
v 0.1 0.8 -0.3
v 0.1 0.8 -0.4
v 0.1 0.9 0.4
v 0.1 0.9 0.3
v 0.1 0.9 -0.3
v 0.1 0.9 -0.4
v 0.2 0 0.3
v 0.2 0 0.2
v 0.2 0 -0.2
v 0.2 0 -0.3
v 0.2 0.1 0.3
v 0.2 0.1 0.2
v 0.2 0.1 -0.2
v 0.2 0.1 -0.3
v 0.2 0.2 0.4
v 0.2 0.2 0.3
v 0.2 0.2 -0.3
v 0.2 0.2 -0.4
v 0.2 0.3 0.3
v 0.2 0.3 -0.3
v 0.2 0.7 0.3
v 0.2 0.7 -0.3
v 0.2 0.8 0.4
v 0.2 0.8 0.3
v 0.2 0.8 -0.3
v 0.2 0.8 -0.4
v 0.2 0.9 0.3
v 0.2 0.9 0.2
v 0.2 0.9 -0.2
v 0.2 0.9 -0.3
v 0.2 1 0.3
v 0.2 1 0.2
v 0.2 1 -0.2
v 0.2 1 -0.3
v 0.3 0 0.2
v 0.3 0 -0.2
v 0.3 0.1 0.3
v 0.3 0.1 0.2
v 0.3 0.1 0.1
v 0.3 0.1 -0.1
v 0.3 0.1 -0.2
v 0.3 0.1 -0.3
v 0.3 0.2 0.2
v 0.3 0.2 0.1
v 0.3 0.2 -0.1
v 0.3 0.2 -0.2
v 0.3 0.3 0.3
v 0.3 0.3 0.2
v 0.3 0.3 -0.2
v 0.3 0.3 -0.3
v 0.3 0.7 0.3
v 0.3 0.7 0.2
v 0.3 0.7 -0.2
v 0.3 0.7 -0.3
v 0.3 0.8 0.2
v 0.3 0.8 0.1
v 0.3 0.8 -0.1
v 0.3 0.8 -0.2
v 0.3 0.9 0.3
v 0.3 0.9 0.2
v 0.3 0.9 0.1
v 0.3 0.9 -0.1
v 0.3 0.9 -0.2
v 0.3 0.9 -0.3
v 0.3 1 0.2
v 0.3 1 -0.2
v 0.4 0.1 0.1
v 0.4 0.1 -0.1
v 0.4 0.2 0.2
v 0.4 0.2 0.1
v 0.4 0.2 -0.1
v 0.4 0.2 -0.2
v 0.4 0.3 0.1
v 0.4 0.3 0
v 0.4 0.4 0
v 0.4 0.4 -0.1
v 0.4 0.6 0.1
v 0.4 0.6 0
v 0.4 0.7 0
v 0.4 0.7 -0.1
v 0.4 0.8 0.2
v 0.4 0.8 0.1
v 0.4 0.8 -0.1
v 0.4 0.8 -0.2
v 0.4 0.9 0.1
v 0.4 0.9 -0.1
v -0.2 0.2 0.4
v -0.2 0.8 0.4
v -0.1 0.1 0.4
v -0.1 0.2 0.4
v -0.1 0.3 0.4
v -0.1 0.6 0.4
v -0.1 0.8 0.4
v -0.1 0.9 0.4
v 0 0.3 0.4
v 0 0.4 0.4
v 0 0.6 0.4
v 0 0.7 0.4
v 0.1 0.1 0.4
v 0.1 0.2 0.4
v 0.1 0.4 0.4
v 0.1 0.7 0.4
v 0.1 0.8 0.4
v 0.1 0.9 0.4
v 0.2 0.2 0.4
v 0.2 0.8 0.4
v -0.3 0.1 0.3
v -0.3 0.3 0.3
v -0.3 0.7 0.3
v -0.3 0.9 0.3
v -0.2 0 0.3
v -0.2 0.1 0.3
v -0.2 0.2 0.3
v -0.2 0.3 0.3
v -0.2 0.7 0.3
v -0.2 0.8 0.3
v -0.2 0.9 0.3
v -0.2 1 0.3
v -0.1 0.1 0.3
v -0.1 0.2 0.3
v -0.1 0.8 0.3
v -0.1 0.9 0.3
v 0.1 0.1 0.3
v 0.1 0.2 0.3
v 0.1 0.8 0.3
v 0.1 0.9 0.3
v 0.2 0 0.3
v 0.2 0.1 0.3
v 0.2 0.2 0.3
v 0.2 0.3 0.3
v 0.2 0.7 0.3
v 0.2 0.8 0.3
v 0.2 0.9 0.3
v 0.2 1 0.3
v 0.3 0.1 0.3
v 0.3 0.3 0.3
v 0.3 0.7 0.3
v 0.3 0.9 0.3
v -0.4 0.2 0.2
v -0.4 0.8 0.2
v -0.3 0 0.2
v -0.3 0.1 0.2
v -0.3 0.2 0.2
v -0.3 0.3 0.2
v -0.3 0.7 0.2
v -0.3 0.8 0.2
v -0.3 0.9 0.2
v -0.3 1 0.2
v -0.2 0 0.2
v -0.2 0.1 0.2
v -0.2 0.9 0.2
v -0.2 1 0.2
v 0.2 0 0.2
v 0.2 0.1 0.2
v 0.2 0.9 0.2
v 0.2 1 0.2
v 0.3 0 0.2
v 0.3 0.1 0.2
v 0.3 0.2 0.2
v 0.3 0.3 0.2
v 0.3 0.7 0.2
v 0.3 0.8 0.2
v 0.3 0.9 0.2
v 0.3 1 0.2
v 0.4 0.2 0.2
v 0.4 0.8 0.2
v -0.4 0.1 0.1
v -0.4 0.2 0.1
v -0.4 0.8 0.1
v -0.4 0.9 0.1
v -0.3 0.1 0.1
v -0.3 0.2 0.1
v -0.3 0.8 0.1
v -0.3 0.9 0.1
v 0.3 0.1 0.1
v 0.3 0.2 0.1
v 0.3 0.8 0.1
v 0.3 0.9 0.1
v 0.4 0.1 0.1
v 0.4 0.2 0.1
v 0.4 0.8 0.1
v 0.4 0.9 0.1
v -0.4 0.1 -0.1
v -0.4 0.2 -0.1
v -0.4 0.8 -0.1
v -0.4 0.9 -0.1
v -0.3 0.1 -0.1
v -0.3 0.2 -0.1
v -0.3 0.8 -0.1
v -0.3 0.9 -0.1
v 0.3 0.1 -0.1
v 0.3 0.2 -0.1
v 0.3 0.8 -0.1
v 0.3 0.9 -0.1
v 0.4 0.1 -0.1
v 0.4 0.2 -0.1
v 0.4 0.8 -0.1
v 0.4 0.9 -0.1
v -0.4 0.2 -0.2
v -0.4 0.8 -0.2
v -0.3 0 -0.2
v -0.3 0.1 -0.2
v -0.3 0.2 -0.2
v -0.3 0.3 -0.2
v -0.3 0.7 -0.2
v -0.3 0.8 -0.2
v -0.3 0.9 -0.2
v -0.3 1 -0.2
v -0.2 0 -0.2
v -0.2 0.1 -0.2
v -0.2 0.9 -0.2
v -0.2 1 -0.2
v 0.2 0 -0.2
v 0.2 0.1 -0.2
v 0.2 0.9 -0.2
v 0.2 1 -0.2
v 0.3 0 -0.2
v 0.3 0.1 -0.2
v 0.3 0.2 -0.2
v 0.3 0.3 -0.2
v 0.3 0.7 -0.2
v 0.3 0.8 -0.2
v 0.3 0.9 -0.2
v 0.3 1 -0.2
v 0.4 0.2 -0.2
v 0.4 0.8 -0.2
v -0.3 0.1 -0.3
v -0.3 0.3 -0.3
v -0.3 0.7 -0.3
v -0.3 0.9 -0.3
v -0.2 0 -0.3
v -0.2 0.1 -0.3
v -0.2 0.2 -0.3
v -0.2 0.3 -0.3
v -0.2 0.7 -0.3
v -0.2 0.8 -0.3
v -0.2 0.9 -0.3
v -0.2 1 -0.3
v -0.1 0.1 -0.3
v -0.1 0.2 -0.3
v -0.1 0.8 -0.3
v -0.1 0.9 -0.3
v 0.1 0.1 -0.3
v 0.1 0.2 -0.3
v 0.1 0.8 -0.3
v 0.1 0.9 -0.3
v 0.2 0 -0.3
v 0.2 0.1 -0.3
v 0.2 0.2 -0.3
v 0.2 0.3 -0.3
v 0.2 0.7 -0.3
v 0.2 0.8 -0.3
v 0.2 0.9 -0.3
v 0.2 1 -0.3
v 0.3 0.1 -0.3
v 0.3 0.3 -0.3
v 0.3 0.7 -0.3
v 0.3 0.9 -0.3
v -0.2 0.2 -0.4
v -0.2 0.8 -0.4
v -0.1 0.1 -0.4
v -0.1 0.2 -0.4
v -0.1 0.4 -0.4
v -0.1 0.7 -0.4
v -0.1 0.8 -0.4
v -0.1 0.9 -0.4
v 0 0.3 -0.4
v 0 0.4 -0.4
v 0 0.6 -0.4
v 0 0.7 -0.4
v 0.1 0.1 -0.4
v 0.1 0.2 -0.4
v 0.1 0.3 -0.4
v 0.1 0.6 -0.4
v 0.1 0.8 -0.4
v 0.1 0.9 -0.4
v 0.2 0.2 -0.4
v 0.2 0.8 -0.4
v -0.2 0 0.3
v 0.2 0 0.3
v -0.3 0 0.2
v -0.2 0 0.2
v -0.1 0 0.2
v 0.1 0 0.2
v 0.2 0 0.2
v 0.3 0 0.2
v -0.2 0 0.1
v -0.1 0 0.1
v 0.1 0 0.1
v 0.2 0 0.1
v -0.2 0 -0.1
v -0.1 0 -0.1
v 0.1 0 -0.1
v 0.2 0 -0.1
v -0.3 0 -0.2
v -0.2 0 -0.2
v -0.1 0 -0.2
v 0.1 0 -0.2
v 0.2 0 -0.2
v 0.3 0 -0.2
v -0.2 0 -0.3
v 0.2 0 -0.3
v -0.1 0.1 0.4
v 0.1 0.1 0.4
v -0.3 0.1 0.3
v -0.2 0.1 0.3
v -0.1 0.1 0.3
v 0.1 0.1 0.3
v 0.2 0.1 0.3
v 0.3 0.1 0.3
v -0.3 0.1 0.2
v -0.2 0.1 0.2
v 0.2 0.1 0.2
v 0.3 0.1 0.2
v -0.4 0.1 0.1
v -0.3 0.1 0.1
v 0.3 0.1 0.1
v 0.4 0.1 0.1
v -0.4 0.1 -0.1
v -0.3 0.1 -0.1
v 0.3 0.1 -0.1
v 0.4 0.1 -0.1
v -0.3 0.1 -0.2
v -0.2 0.1 -0.2
v 0.2 0.1 -0.2
v 0.3 0.1 -0.2
v -0.3 0.1 -0.3
v -0.2 0.1 -0.3
v -0.1 0.1 -0.3
v 0.1 0.1 -0.3
v 0.2 0.1 -0.3
v 0.3 0.1 -0.3
v -0.1 0.1 -0.4
v 0.1 0.1 -0.4
v -0.2 0.2 0.4
v -0.1 0.2 0.4
v 0.1 0.2 0.4
v 0.2 0.2 0.4
v -0.2 0.2 0.3
v -0.1 0.2 0.3
v 0.1 0.2 0.3
v 0.2 0.2 0.3
v -0.4 0.2 0.2
v -0.3 0.2 0.2
v 0.3 0.2 0.2
v 0.4 0.2 0.2
v -0.4 0.2 0.1
v -0.3 0.2 0.1
v 0.3 0.2 0.1
v 0.4 0.2 0.1
v -0.4 0.2 -0.1
v -0.3 0.2 -0.1
v 0.3 0.2 -0.1
v 0.4 0.2 -0.1
v -0.4 0.2 -0.2
v -0.3 0.2 -0.2
v 0.3 0.2 -0.2
v 0.4 0.2 -0.2
v -0.2 0.2 -0.3
v -0.1 0.2 -0.3
v 0.1 0.2 -0.3
v 0.2 0.2 -0.3
v -0.2 0.2 -0.4
v -0.1 0.2 -0.4
v 0.1 0.2 -0.4
v 0.2 0.2 -0.4
v -0.2 0.8 0.4
v -0.1 0.8 0.4
v 0.1 0.8 0.4
v 0.2 0.8 0.4
v -0.2 0.8 0.3
v -0.1 0.8 0.3
v 0.1 0.8 0.3
v 0.2 0.8 0.3
v -0.4 0.8 0.2
v -0.3 0.8 0.2
v 0.3 0.8 0.2
v 0.4 0.8 0.2
v -0.4 0.8 0.1
v -0.3 0.8 0.1
v 0.3 0.8 0.1
v 0.4 0.8 0.1
v -0.4 0.8 -0.1
v -0.3 0.8 -0.1
v 0.3 0.8 -0.1
v 0.4 0.8 -0.1
v -0.4 0.8 -0.2
v -0.3 0.8 -0.2
v 0.3 0.8 -0.2
v 0.4 0.8 -0.2
v -0.2 0.8 -0.3
v -0.1 0.8 -0.3
v 0.1 0.8 -0.3
v 0.2 0.8 -0.3
v -0.2 0.8 -0.4
v -0.1 0.8 -0.4
v 0.1 0.8 -0.4
v 0.2 0.8 -0.4
v -0.1 0.9 0.4
v 0.1 0.9 0.4
v -0.3 0.9 0.3
v -0.2 0.9 0.3
v -0.1 0.9 0.3
v 0.1 0.9 0.3
v 0.2 0.9 0.3
v 0.3 0.9 0.3
v -0.3 0.9 0.2
v -0.2 0.9 0.2
v 0.2 0.9 0.2
v 0.3 0.9 0.2
v -0.4 0.9 0.1
v -0.3 0.9 0.1
v 0.3 0.9 0.1
v 0.4 0.9 0.1
v -0.4 0.9 -0.1
v -0.3 0.9 -0.1
v 0.3 0.9 -0.1
v 0.4 0.9 -0.1
v -0.3 0.9 -0.2
v -0.2 0.9 -0.2
v 0.2 0.9 -0.2
v 0.3 0.9 -0.2
v -0.3 0.9 -0.3
v -0.2 0.9 -0.3
v -0.1 0.9 -0.3
v 0.1 0.9 -0.3
v 0.2 0.9 -0.3
v 0.3 0.9 -0.3
v -0.1 0.9 -0.4
v 0.1 0.9 -0.4
v -0.2 1 0.3
v 0.2 1 0.3
v -0.3 1 0.2
v -0.2 1 0.2
v 0.2 1 0.2
v 0.3 1 0.2
v -0.2 1 0.1
v 0.1 1 0.1
v -0.2 1 -0.1
v 0.1 1 -0.1
v -0.3 1 -0.2
v -0.2 1 -0.2
v 0.2 1 -0.2
v 0.3 1 -0.2
v -0.2 1 -0.3
v 0.2 1 -0.3

# faces
f 4/1/1 2/1/1 1/1/1
f 5/1/1 2/1/1 4/1/1
f 7/1/1 4/1/1 3/1/1
f 7/1/1 6/1/1 5/1/1
f 7/1/1 5/1/1 4/1/1
f 8/1/1 6/1/1 7/1/1
f 9/1/1 7/1/1 3/1/1
f 10/6/1 8/6/1 7/6/1
f 10/1/1 7/1/1 9/1/1
f 11/6/1 10/6/1 9/6/1
f 11/6/1 8/6/1 10/6/1
f 12/1/1 6/1/1 8/1/1
f 12/6/1 8/6/1 11/6/1
f 13/6/1 11/6/1 9/6/1
f 13/1/1 9/1/1 3/1/1
f 14/1/1 12/1/1 11/1/1
f 14/6/1 11/6/1 13/6/1
f 15/1/1 13/1/1 3/1/1
f 15/1/1 14/1/1 13/1/1
f 16/1/1 14/1/1 15/1/1
f 17/1/1 6/1/1 12/1/1
f 17/1/1 14/1/1 16/1/1
f 17/1/1 12/1/1 14/1/1
f 18/1/1 6/1/1 17/1/1
f 19/1/1 17/1/1 16/1/1
f 20/1/1 17/1/1 19/1/1
f 24/4/1 22/4/1 21/4/1
f 25/4/1 22/4/1 24/4/1
f 26/4/1 22/4/1 25/4/1
f 27/4/1 22/4/1 26/4/1
f 29/3/1 24/3/1 23/3/1
f 29/3/1 25/3/1 24/3/1
f 30/3/1 25/3/1 29/3/1
f 31/3/1 28/3/1 27/3/1
f 31/3/1 27/3/1 26/3/1
f 32/3/1 28/3/1 31/3/1
f 33/3/1 29/3/1 23/3/1
f 34/3/1 29/3/1 33/3/1
f 35/3/1 28/3/1 32/3/1
f 36/3/1 28/3/1 35/3/1
f 37/1/1 34/1/1 33/1/1
f 38/1/1 34/1/1 37/1/1
f 39/1/1 36/1/1 35/1/1
f 40/1/1 36/1/1 39/1/1
f 41/3/1 38/3/1 37/3/1
f 44/3/1 40/3/1 39/3/1
f 45/3/1 42/3/1 41/3/1
f 45/3/1 41/3/1 37/3/1
f 46/3/1 42/3/1 45/3/1
f 47/3/1 42/3/1 46/3/1
f 48/3/1 44/3/1 43/3/1
f 49/3/1 40/3/1 44/3/1
f 49/3/1 44/3/1 48/3/1
f 50/3/1 40/3/1 49/3/1
f 51/4/1 47/4/1 46/4/1
f 51/4/1 48/4/1 47/4/1
f 51/4/1 49/4/1 48/4/1
f 52/4/1 49/4/1 51/4/1
f 57/4/1 54/4/1 53/4/1
f 58/4/1 54/4/1 57/4/1
f 59/4/1 56/4/1 55/4/1
f 60/4/1 56/4/1 59/4/1
f 65/1/1 62/1/1 61/1/1
f 66/1/1 64/1/1 63/1/1
f 67/1/1 65/1/1 61/1/1
f 68/1/1 64/1/1 66/1/1
f 69/1/1 67/1/1 61/1/1
f 70/1/1 67/1/1 69/1/1
f 71/1/1 64/1/1 68/1/1
f 72/1/1 64/1/1 71/1/1
f 77/4/1 74/4/1 73/4/1
f 78/4/1 74/4/1 77/4/1
f 79/4/1 76/4/1 75/4/1
f 80/4/1 76/4/1 79/4/1
f 85/1/1 82/1/1 81/1/1
f 86/1/1 82/1/1 85/1/1
f 87/1/1 84/1/1 83/1/1
f 88/1/1 84/1/1 87/1/1
f 93/1/1 90/1/1 89/1/1
f 94/1/1 90/1/1 93/1/1
f 95/1/1 92/1/1 91/1/1
f 96/1/1 92/1/1 95/1/1
f 97/1/2 98/1/2 101/1/2
f 101/1/2 98/1/2 102/1/2
f 99/1/2 100/1/2 103/1/2
f 103/1/2 100/1/2 104/1/2
f 105/1/2 106/1/2 109/1/2
f 109/1/2 106/1/2 110/1/2
f 107/1/2 108/1/2 111/1/2
f 111/1/2 108/1/2 112/1/2
f 113/4/2 114/4/2 117/4/2
f 117/4/2 114/4/2 118/4/2
f 115/4/2 116/4/2 119/4/2
f 119/4/2 116/4/2 120/4/2
f 121/1/2 122/1/2 125/1/2
f 123/1/2 124/1/2 126/1/2
f 121/1/2 125/1/2 127/1/2
f 126/1/2 124/1/2 128/1/2
f 121/1/2 127/1/2 129/1/2
f 129/1/2 127/1/2 130/1/2
f 128/1/2 124/1/2 131/1/2
f 131/1/2 124/1/2 132/1/2
f 133/4/2 134/4/2 137/4/2
f 137/4/2 134/4/2 138/4/2
f 135/4/2 136/4/2 139/4/2
f 139/4/2 136/4/2 140/4/2
f 141/4/2 142/4/2 144/4/2
f 144/4/2 142/4/2 145/4/2
f 145/4/2 142/4/2 146/4/2
f 146/4/2 142/4/2 147/4/2
f 143/3/2 144/3/2 149/3/2
f 144/3/2 145/3/2 149/3/2
f 149/3/2 145/3/2 150/3/2
f 147/3/2 148/3/2 151/3/2
f 146/3/2 147/3/2 151/3/2
f 151/3/2 148/3/2 152/3/2
f 143/3/2 149/3/2 153/3/2
f 153/3/2 149/3/2 154/3/2
f 152/3/2 148/3/2 155/3/2
f 155/3/2 148/3/2 156/3/2
f 153/1/2 154/1/2 157/1/2
f 157/1/2 154/1/2 158/1/2
f 155/1/2 156/1/2 159/1/2
f 159/1/2 156/1/2 160/1/2
f 157/3/2 158/3/2 161/3/2
f 159/3/2 160/3/2 164/3/2
f 161/3/2 162/3/2 165/3/2
f 157/3/2 161/3/2 165/3/2
f 165/3/2 162/3/2 166/3/2
f 166/3/2 162/3/2 167/3/2
f 163/3/2 164/3/2 168/3/2
f 164/3/2 160/3/2 169/3/2
f 168/3/2 164/3/2 169/3/2
f 169/3/2 160/3/2 170/3/2
f 166/4/2 167/4/2 171/4/2
f 167/4/2 168/4/2 171/4/2
f 168/4/2 169/4/2 171/4/2
f 171/4/2 169/4/2 172/4/2
f 173/1/2 174/1/2 176/1/2
f 176/1/2 174/1/2 177/1/2
f 175/1/2 176/1/2 179/1/2
f 177/1/2 178/1/2 179/1/2
f 176/1/2 177/1/2 179/1/2
f 179/1/2 178/1/2 180/1/2
f 179/6/2 180/6/2 181/6/2
f 180/1/2 178/1/2 181/1/2
f 181/1/2 178/1/2 182/1/2
f 175/1/2 179/1/2 183/1/2
f 179/6/2 181/6/2 183/6/2
f 181/6/2 182/6/2 183/6/2
f 183/6/2 182/6/2 184/6/2
f 183/1/2 184/1/2 185/1/2
f 184/6/2 182/6/2 185/6/2
f 182/1/2 178/1/2 186/1/2
f 185/6/2 182/6/2 186/6/2
f 183/1/2 185/1/2 187/1/2
f 175/1/2 183/1/2 187/1/2
f 185/1/2 186/1/2 187/1/2
f 187/1/2 186/1/2 188/1/2
f 186/1/2 178/1/2 189/1/2
f 188/1/2 186/1/2 189/1/2
f 189/1/2 178/1/2 190/1/2
f 188/1/2 189/1/2 191/1/2
f 191/1/2 189/1/2 192/1/2
f 196/1/3 194/1/3 193/1/3
f 197/1/3 194/1/3 196/1/3
f 198/1/3 194/1/3 197/1/3
f 199/1/3 194/1/3 198/1/3
f 201/1/3 196/1/3 195/1/3
f 201/1/3 197/1/3 196/1/3
f 201/6/3 198/6/3 197/6/3
f 202/6/3 198/6/3 201/6/3
f 203/1/3 200/1/3 199/1/3
f 203/6/3 198/6/3 202/6/3
f 203/1/3 199/1/3 198/1/3
f 204/1/3 200/1/3 203/1/3
f 205/1/3 202/1/3 201/1/3
f 205/1/3 201/1/3 195/1/3
f 206/1/3 202/1/3 205/1/3
f 207/6/3 204/6/3 203/6/3
f 207/1/3 202/1/3 206/1/3
f 207/6/3 203/6/3 202/6/3
f 208/1/3 200/1/3 204/1/3
f 208/6/3 204/6/3 207/6/3
f 209/1/3 200/1/3 208/1/3
f 210/1/3 200/1/3 209/1/3
f 211/1/3 207/1/3 206/1/3
f 211/1/3 209/1/3 208/1/3
f 211/1/3 208/1/3 207/1/3
f 212/1/3 209/1/3 211/1/3
f 218/3/3 214/3/3 213/3/3
f 219/3/3 214/3/3 218/3/3
f 220/1/3 215/1/3 214/1/3
f 220/3/3 214/3/3 219/3/3
f 221/3/3 216/3/3 215/3/3
f 221/1/3 215/1/3 220/1/3
f 222/3/3 216/3/3 221/3/3
f 223/3/3 216/3/3 222/3/3
f 225/3/3 219/3/3 218/3/3
f 225/4/3 218/4/3 217/4/3
f 226/3/3 219/3/3 225/3/3
f 227/3/3 223/3/3 222/3/3
f 228/4/3 224/4/3 223/4/3
f 228/3/3 223/3/3 227/3/3
f 229/4/3 225/4/3 217/4/3
f 232/4/3 224/4/3 228/4/3
f 233/4/3 229/4/3 217/4/3
f 234/3/3 230/3/3 229/3/3
f 234/4/3 229/4/3 233/4/3
f 235/3/3 230/3/3 234/3/3
f 238/3/3 232/3/3 231/3/3
f 239/4/3 224/4/3 232/4/3
f 239/3/3 232/3/3 238/3/3
f 240/4/3 224/4/3 239/4/3
f 241/3/3 235/3/3 234/3/3
f 241/3/3 236/3/3 235/3/3
f 242/1/3 237/1/3 236/1/3
f 242/3/3 236/3/3 241/3/3
f 243/3/3 238/3/3 237/3/3
f 243/1/3 237/1/3 242/1/3
f 243/3/3 239/3/3 238/3/3
f 244/3/3 239/3/3 243/3/3
f 249/1/3 246/1/3 245/1/3
f 250/1/3 246/1/3 249/1/3
f 251/1/3 246/1/3 250/1/3
f 252/1/3 246/1/3 251/1/3
f 255/4/3 248/4/3 247/4/3
f 256/4/3 248/4/3 255/4/3
f 257/4/3 254/4/3 253/4/3
f 258/4/3 254/4/3 257/4/3
f 263/4/3 260/4/3 259/4/3
f 264/4/3 260/4/3 263/4/3
f 269/4/3 262/4/3 261/4/3
f 270/4/3 262/4/3 269/4/3
f 271/1/3 268/1/3 267/1/3
f 271/1/3 266/1/3 265/1/3
f 271/1/3 267/1/3 266/1/3
f 272/1/3 268/1/3 271/1/3
f 277/1/3 274/1/3 273/1/3
f 278/1/3 274/1/3 277/1/3
f 279/1/3 276/1/3 275/1/3
f 280/1/3 276/1/3 279/1/3
f 285/1/3 282/1/3 281/1/3
f 286/1/3 282/1/3 285/1/3
f 287/1/3 284/1/3 283/1/3
f 288/1/3 284/1/3 287/1/3
f 289/1/4 290/1/4 293/1/4
f 293/1/4 290/1/4 294/1/4
f 291/1/4 292/1/4 295/1/4
f 295/1/4 292/1/4 296/1/4
f 297/1/4 298/1/4 301/1/4
f 301/1/4 298/1/4 302/1/4
f 299/1/4 300/1/4 303/1/4
f 303/1/4 300/1/4 304/1/4
f 305/1/4 306/1/4 309/1/4
f 309/1/4 306/1/4 310/1/4
f 310/1/4 306/1/4 311/1/4
f 311/1/4 306/1/4 312/1/4
f 307/4/4 308/4/4 315/4/4
f 315/4/4 308/4/4 316/4/4
f 313/4/4 314/4/4 317/4/4
f 317/4/4 314/4/4 318/4/4
f 319/4/4 320/4/4 323/4/4
f 323/4/4 320/4/4 324/4/4
f 321/4/4 322/4/4 329/4/4
f 329/4/4 322/4/4 330/4/4
f 327/1/4 328/1/4 331/1/4
f 325/1/4 326/1/4 331/1/4
f 326/1/4 327/1/4 331/1/4
f 331/1/4 328/1/4 332/1/4
f 333/3/4 334/3/4 338/3/4
f 338/3/4 334/3/4 339/3/4
f 334/1/4 335/1/4 340/1/4
f 339/3/4 334/3/4 340/3/4
f 335/3/4 336/3/4 341/3/4
f 340/1/4 335/1/4 341/1/4
f 341/3/4 336/3/4 342/3/4
f 342/3/4 336/3/4 343/3/4
f 338/3/4 339/3/4 345/3/4
f 337/4/4 338/4/4 345/4/4
f 345/3/4 339/3/4 346/3/4
f 342/3/4 343/3/4 347/3/4
f 343/4/4 344/4/4 348/4/4
f 347/3/4 343/3/4 348/3/4
f 337/4/4 345/4/4 349/4/4
f 348/4/4 344/4/4 352/4/4
f 337/4/4 349/4/4 353/4/4
f 349/3/4 350/3/4 354/3/4
f 353/4/4 349/4/4 354/4/4
f 354/3/4 350/3/4 355/3/4
f 351/3/4 352/3/4 358/3/4
f 352/4/4 344/4/4 359/4/4
f 358/3/4 352/3/4 359/3/4
f 359/4/4 344/4/4 360/4/4
f 354/3/4 355/3/4 361/3/4
f 355/3/4 356/3/4 361/3/4
f 356/1/4 357/1/4 362/1/4
f 361/3/4 356/3/4 362/3/4
f 357/3/4 358/3/4 363/3/4
f 362/1/4 357/1/4 363/1/4
f 358/3/4 359/3/4 363/3/4
f 363/3/4 359/3/4 364/3/4
f 365/1/4 366/1/4 368/1/4
f 368/1/4 366/1/4 369/1/4
f 369/1/4 366/1/4 370/1/4
f 370/1/4 366/1/4 371/1/4
f 367/1/4 368/1/4 373/1/4
f 368/1/4 369/1/4 373/1/4
f 369/6/4 370/6/4 374/6/4
f 373/1/4 369/1/4 374/1/4
f 374/6/4 370/6/4 375/6/4
f 371/1/4 372/1/4 376/1/4
f 375/6/4 370/6/4 376/6/4
f 370/1/4 371/1/4 376/1/4
f 367/1/4 373/1/4 377/1/4
f 377/1/4 373/1/4 378/1/4
f 374/6/4 375/6/4 379/6/4
f 378/1/4 373/1/4 379/1/4
f 373/6/4 374/6/4 379/6/4
f 375/1/4 376/1/4 380/1/4
f 379/6/4 375/6/4 380/6/4
f 376/1/4 372/1/4 381/1/4
f 380/1/4 376/1/4 381/1/4
f 381/1/4 372/1/4 382/1/4
f 379/1/4 380/1/4 383/1/4
f 380/1/4 381/1/4 383/1/4
f 378/1/4 379/1/4 383/1/4
f 383/1/4 381/1/4 384/1/4
f 388/4/5 386/4/5 385/4/5
f 389/4/5 386/4/5 388/4/5
f 390/4/5 386/4/5 389/4/5
f 391/4/5 386/4/5 390/4/5
f 393/4/5 388/4/5 387/4/5
f 393/4/5 389/4/5 388/4/5
f 394/5/5 390/5/5 389/5/5
f 394/4/5 389/4/5 393/4/5
f 395/4/5 392/4/5 391/4/5
f 395/5/5 390/5/5 394/5/5
f 395/4/5 391/4/5 390/4/5
f 396/4/5 392/4/5 395/4/5
f 397/5/5 394/5/5 393/5/5
f 397/4/5 393/4/5 387/4/5
f 397/5/5 396/5/5 395/5/5
f 397/5/5 395/5/5 394/5/5
f 398/5/5 396/5/5 397/5/5
f 399/5/5 396/5/5 398/5/5
f 400/4/5 392/4/5 396/4/5
f 400/5/5 396/5/5 399/5/5
f 401/4/5 397/4/5 387/4/5
f 401/4/5 398/4/5 397/4/5
f 402/4/5 398/4/5 401/4/5
f 403/5/5 399/5/5 398/5/5
f 403/4/5 398/4/5 402/4/5
f 404/4/5 400/4/5 399/4/5
f 404/5/5 399/5/5 403/5/5
f 405/4/5 392/4/5 400/4/5
f 405/4/5 400/4/5 404/4/5
f 406/4/5 392/4/5 405/4/5
f 407/4/5 404/4/5 403/4/5
f 407/4/5 405/4/5 404/4/5
f 407/4/5 403/4/5 402/4/5
f 408/4/5 405/4/5 407/4/5
f 413/1/5 410/1/5 409/1/5
f 414/1/5 410/1/5 413/1/5
f 417/3/5 412/3/5 411/3/5
f 418/3/5 412/3/5 417/3/5
f 419/3/5 416/3/5 415/3/5
f 420/3/5 416/3/5 419/3/5
f 425/1/5 422/1/5 421/1/5
f 426/1/5 422/1/5 425/1/5
f 427/1/5 424/1/5 423/1/5
f 428/1/5 424/1/5 427/1/5
f 433/3/5 430/3/5 429/3/5
f 434/3/5 430/3/5 433/3/5
f 437/3/5 432/3/5 431/3/5
f 438/3/5 432/3/5 437/3/5
f 439/1/5 436/1/5 435/1/5
f 440/1/5 436/1/5 439/1/5
f 445/1/5 442/1/5 441/1/5
f 446/1/5 442/1/5 445/1/5
f 447/1/5 444/1/5 443/1/5
f 448/1/5 444/1/5 447/1/5
f 453/1/5 450/1/5 449/1/5
f 454/1/5 450/1/5 453/1/5
f 455/1/5 452/1/5 451/1/5
f 456/1/5 452/1/5 455/1/5
f 461/1/5 458/1/5 457/1/5
f 462/1/5 458/1/5 461/1/5
f 463/1/5 460/1/5 459/1/5
f 464/1/5 460/1/5 463/1/5
f 469/1/5 466/1/5 465/1/5
f 470/1/5 466/1/5 469/1/5
f 471/1/5 468/1/5 467/1/5
f 472/1/5 468/1/5 471/1/5
f 473/1/6 474/1/6 477/1/6
f 477/1/6 474/1/6 478/1/6
f 475/1/6 476/1/6 479/1/6
f 479/1/6 476/1/6 480/1/6
f 481/1/6 482/1/6 485/1/6
f 485/1/6 482/1/6 486/1/6
f 483/1/6 484/1/6 487/1/6
f 487/1/6 484/1/6 488/1/6
f 489/1/6 490/1/6 493/1/6
f 493/1/6 490/1/6 494/1/6
f 491/1/6 492/1/6 495/1/6
f 495/1/6 492/1/6 496/1/6
f 497/1/6 498/1/6 501/1/6
f 501/1/6 498/1/6 502/1/6
f 499/1/6 500/1/6 503/1/6
f 503/1/6 500/1/6 504/1/6
f 505/1/6 506/1/6 509/1/6
f 509/1/6 506/1/6 510/1/6
f 507/3/6 508/3/6 513/3/6
f 513/3/6 508/3/6 514/3/6
f 511/3/6 512/3/6 515/3/6
f 515/3/6 512/3/6 516/3/6
f 517/1/6 518/1/6 521/1/6
f 521/1/6 518/1/6 522/1/6
f 519/1/6 520/1/6 523/1/6
f 523/1/6 520/1/6 524/1/6
f 525/3/6 526/3/6 529/3/6
f 529/3/6 526/3/6 530/3/6
f 527/3/6 528/3/6 533/3/6
f 533/3/6 528/3/6 534/3/6
f 531/1/6 532/1/6 535/1/6
f 535/1/6 532/1/6 536/1/6
f 537/4/6 538/4/6 540/4/6
f 540/4/6 538/4/6 541/4/6
f 539/4/6 540/4/6 543/4/6
f 540/5/6 541/5/6 543/5/6
f 543/5/6 541/5/6 544/5/6
f 539/4/6 543/4/6 545/4/6
f 543/2/6 544/2/6 545/2/6
f 544/5/6 541/5/6 546/5/6
f 545/2/6 544/2/6 546/2/6
f 539/4/6 545/4/6 547/4/6
f 545/5/6 546/5/6 548/5/6
f 547/4/6 545/4/6 548/4/6
f 541/4/6 542/4/6 549/4/6
f 548/5/6 546/5/6 549/5/6
f 546/5/6 541/5/6 549/5/6
f 549/4/6 542/4/6 550/4/6
f 548/4/6 549/4/6 551/4/6
f 551/4/6 549/4/6 552/4/6
