# MagicaVoxel @ Ephtracy

# group
o 

# material
mtllib puchar.mtl
usemtl palette

# normals
vn -1 0 0
vn 1 0 0
vn 0 0 1
vn 0 0 -1
vn 0 -1 0
vn 0 1 0

# texcoords
vt 0.169922 0.5
vt 0.185547 0.5
vt 0.369141 0.5
vt 0.373047 0.5
vt 0.962891 0.5

# verts
v -1.5 2 0
v -1.5 2 -0.1
v -1.5 2.5 0
v -1.5 2.5 -0.1
v -1.4 1.9 0
v -1.4 1.9 -0.1
v -1.4 2 0
v -1.4 2 -0.1
v -1.4 2.5 0
v -1.4 2.5 -0.1
v -1.4 2.7 0
v -1.4 2.7 -0.1
v -1.3 1.7 0
v -1.3 1.7 -0.1
v -1.3 1.9 0
v -1.3 1.9 -0.1
v -1.3 2.7 0
v -1.3 2.7 -0.1
v -1.3 2.8 0
v -1.3 2.8 -0.1
v -1.2 1.6 0
v -1.2 1.6 -0.1
v -1.2 1.7 0
v -1.2 1.7 -0.1
v -0.9 0 0
v -0.9 0 -0.1
v -0.9 0.3 0
v -0.9 0.3 -0.1
v -0.9 1.4 0
v -0.9 1.4 -0.1
v -0.9 1.6 0
v -0.9 1.6 -0.1
v -0.9 1.7 0
v -0.9 1.7 -0.1
v -0.9 2.7 0
v -0.9 2.7 -0.1
v -0.9 2.8 0
v -0.9 2.8 -0.1
v -0.9 2.9 0
v -0.9 2.9 -0.1
v -0.8 0.3 0
v -0.8 0.3 -0.1
v -0.8 0.5 0
v -0.8 0.5 -0.1
v -0.8 1.3 0
v -0.8 1.3 -0.1
v -0.8 1.4 0
v -0.8 1.4 -0.1
v -0.7 0.5 0
v -0.7 0.5 -0.1
v -0.7 0.6 0
v -0.7 0.6 -0.1
v -0.7 1.2 0
v -0.7 1.2 -0.1
v -0.7 1.3 0
v -0.7 1.3 -0.1
v -0.6 0.6 0
v -0.6 0.6 -0.1
v -0.6 0.7 0
v -0.6 0.7 -0.1
v -0.5 0.7 0
v -0.5 0.7 -0.1
v -0.5 1.2 0
v -0.5 1.2 -0.1
v 1.1 1.7 0
v 1.1 1.7 -0.1
v 1.1 1.8 0
v 1.1 1.8 -0.1
v 1.2 1.8 0
v 1.2 1.8 -0.1
v 1.2 2 0
v 1.2 2 -0.1
v 1.2 2.6 0
v 1.2 2.6 -0.1
v 1.2 2.7 0
v 1.2 2.7 -0.1
v 1.3 2 0
v 1.3 2 -0.1
v 1.3 2.1 0
v 1.3 2.1 -0.1
v 1.3 2.4 0
v 1.3 2.4 -0.1
v 1.3 2.6 0
v 1.3 2.6 -0.1
v 1.4 2.1 0
v 1.4 2.1 -0.1
v 1.4 2.4 0
v 1.4 2.4 -0.1
v -1.4 2.1 0
v -1.4 2.1 -0.1
v -1.4 2.4 0
v -1.4 2.4 -0.1
v -1.3 2 0
v -1.3 2 -0.1
v -1.3 2.1 0
v -1.3 2.1 -0.1
v -1.3 2.4 0
v -1.3 2.4 -0.1
v -1.3 2.6 0
v -1.3 2.6 -0.1
v -1.2 1.8 0
v -1.2 1.8 -0.1
v -1.2 2 0
v -1.2 2 -0.1
v -1.2 2.6 0
v -1.2 2.6 -0.1
v -1.2 2.7 0
v -1.2 2.7 -0.1
v -1.1 1.7 0
v -1.1 1.7 -0.1
v -1.1 1.8 0
v -1.1 1.8 -0.1
v 0.5 0.7 0
v 0.5 0.7 -0.1
v 0.5 1.2 0
v 0.5 1.2 -0.1
v 0.6 0.6 0
v 0.6 0.6 -0.1
v 0.6 0.7 0
v 0.6 0.7 -0.1
v 0.7 0.5 0
v 0.7 0.5 -0.1
v 0.7 0.6 0
v 0.7 0.6 -0.1
v 0.7 1.2 0
v 0.7 1.2 -0.1
v 0.7 1.3 0
v 0.7 1.3 -0.1
v 0.8 0.3 0
v 0.8 0.3 -0.1
v 0.8 0.5 0
v 0.8 0.5 -0.1
v 0.8 1.3 0
v 0.8 1.3 -0.1
v 0.8 1.4 0
v 0.8 1.4 -0.1
v 0.9 0 0
v 0.9 0 -0.1
v 0.9 0.3 0
v 0.9 0.3 -0.1
v 0.9 1.4 0
v 0.9 1.4 -0.1
v 0.9 1.6 0
v 0.9 1.6 -0.1
v 0.9 1.7 0
v 0.9 1.7 -0.1
v 0.9 2.7 0
v 0.9 2.7 -0.1
v 0.9 2.8 0
v 0.9 2.8 -0.1
v 0.9 2.9 0
v 0.9 2.9 -0.1
v 1.2 1.6 0
v 1.2 1.6 -0.1
v 1.2 1.7 0
v 1.2 1.7 -0.1
v 1.3 1.7 0
v 1.3 1.7 -0.1
v 1.3 1.9 0
v 1.3 1.9 -0.1
v 1.3 2.7 0
v 1.3 2.7 -0.1
v 1.3 2.8 0
v 1.3 2.8 -0.1
v 1.4 1.9 0
v 1.4 1.9 -0.1
v 1.4 2 0
v 1.4 2 -0.1
v 1.4 2.5 0
v 1.4 2.5 -0.1
v 1.4 2.7 0
v 1.4 2.7 -0.1
v 1.5 2 0
v 1.5 2 -0.1
v 1.5 2.5 0
v 1.5 2.5 -0.1
v -1.5 2 0
v -1.5 2.5 0
v -1.4 1.9 0
v -1.4 2 0
v -1.4 2.1 0
v -1.4 2.4 0
v -1.4 2.5 0
v -1.4 2.7 0
v -1.3 1.7 0
v -1.3 1.9 0
v -1.3 2 0
v -1.3 2.1 0
v -1.3 2.4 0
v -1.3 2.6 0
v -1.3 2.7 0
v -1.3 2.8 0
v -1.2 1.6 0
v -1.2 1.7 0
v -1.2 1.8 0
v -1.2 2 0
v -1.2 2.6 0
v -1.2 2.7 0
v -1.1 1.7 0
v -1.1 1.8 0
v -0.9 0 0
v -0.9 0.3 0
v -0.9 1.4 0
v -0.9 1.6 0
v -0.9 1.7 0
v -0.9 2.7 0
v -0.9 2.8 0
v -0.9 2.9 0
v -0.8 0.3 0
v -0.8 0.5 0
v -0.8 1.3 0
v -0.8 1.4 0
v -0.7 0.5 0
v -0.7 0.6 0
v -0.7 1.2 0
v -0.7 1.3 0
v -0.6 0.6 0
v -0.6 0.7 0
v -0.6 1.9 0
v -0.6 2.6 0
v -0.5 0.7 0
v -0.5 1.2 0
v -0.5 1.6 0
v -0.5 1.9 0
v -0.5 2.6 0
v -0.4 0.2 0
v -0.4 0.3 0
v -0.4 1.6 0
v -0.4 1.9 0
v -0.3 0.1 0
v -0.3 0.2 0
v -0.3 0.3 0
v -0.3 0.4 0
v 0.3 0.1 0
v 0.3 0.2 0
v 0.3 0.3 0
v 0.3 0.4 0
v 0.4 0.2 0
v 0.4 0.3 0
v 0.4 0.5 0
v 0.4 1.3 0
v 0.5 0.7 0
v 0.5 1.2 0
v 0.5 1.3 0
v 0.5 1.5 0
v 0.6 0.6 0
v 0.6 0.7 0
v 0.6 1.5 0
v 0.6 1.6 0
v 0.7 0.5 0
v 0.7 0.6 0
v 0.7 1.2 0
v 0.7 1.3 0
v 0.7 1.6 0
v 0.7 2.9 0
v 0.8 0.3 0
v 0.8 0.5 0
v 0.8 1.3 0
v 0.8 1.4 0
v 0.9 0 0
v 0.9 0.3 0
v 0.9 1.4 0
v 0.9 1.6 0
v 0.9 1.7 0
v 0.9 2.7 0
v 0.9 2.8 0
v 0.9 2.9 0
v 1.1 1.7 0
v 1.1 1.8 0
v 1.2 1.6 0
v 1.2 1.7 0
v 1.2 1.8 0
v 1.2 2 0
v 1.2 2.6 0
v 1.2 2.7 0
v 1.3 1.7 0
v 1.3 1.9 0
v 1.3 2 0
v 1.3 2.1 0
v 1.3 2.4 0
v 1.3 2.6 0
v 1.3 2.7 0
v 1.3 2.8 0
v 1.4 1.9 0
v 1.4 2 0
v 1.4 2.1 0
v 1.4 2.4 0
v 1.4 2.5 0
v 1.4 2.7 0
v 1.5 2 0
v 1.5 2.5 0
v -1.5 2 -0.1
v -1.5 2.5 -0.1
v -1.4 1.9 -0.1
v -1.4 2 -0.1
v -1.4 2.1 -0.1
v -1.4 2.4 -0.1
v -1.4 2.5 -0.1
v -1.4 2.7 -0.1
v -1.3 1.7 -0.1
v -1.3 1.9 -0.1
v -1.3 2 -0.1
v -1.3 2.1 -0.1
v -1.3 2.4 -0.1
v -1.3 2.6 -0.1
v -1.3 2.7 -0.1
v -1.3 2.8 -0.1
v -1.2 1.6 -0.1
v -1.2 1.7 -0.1
v -1.2 1.8 -0.1
v -1.2 2 -0.1
v -1.2 2.6 -0.1
v -1.2 2.7 -0.1
v -1.1 1.7 -0.1
v -1.1 1.8 -0.1
v -0.9 0 -0.1
v -0.9 0.3 -0.1
v -0.9 1.4 -0.1
v -0.9 1.6 -0.1
v -0.9 1.7 -0.1
v -0.9 2.7 -0.1
v -0.9 2.8 -0.1
v -0.9 2.9 -0.1
v -0.8 0.3 -0.1
v -0.8 0.5 -0.1
v -0.8 1.3 -0.1
v -0.8 1.4 -0.1
v -0.7 0.5 -0.1
v -0.7 0.6 -0.1
v -0.7 1.2 -0.1
v -0.7 1.3 -0.1
v -0.6 0.6 -0.1
v -0.6 0.7 -0.1
v -0.6 1.9 -0.1
v -0.6 2.6 -0.1
v -0.5 0.7 -0.1
v -0.5 1.2 -0.1
v -0.5 1.6 -0.1
v -0.5 1.9 -0.1
v -0.5 2.6 -0.1
v -0.4 0.2 -0.1
v -0.4 0.3 -0.1
v -0.4 1.6 -0.1
v -0.4 1.9 -0.1
v -0.3 0.1 -0.1
v -0.3 0.2 -0.1
v -0.3 0.3 -0.1
v -0.3 0.4 -0.1
v 0.3 0.1 -0.1
v 0.3 0.2 -0.1
v 0.3 0.3 -0.1
v 0.3 0.4 -0.1
v 0.4 0.2 -0.1
v 0.4 0.3 -0.1
v 0.4 0.5 -0.1
v 0.4 1.3 -0.1
v 0.5 0.7 -0.1
v 0.5 1.2 -0.1
v 0.5 1.3 -0.1
v 0.5 1.5 -0.1
v 0.6 0.6 -0.1
v 0.6 0.7 -0.1
v 0.6 1.5 -0.1
v 0.6 1.6 -0.1
v 0.7 0.5 -0.1
v 0.7 0.6 -0.1
v 0.7 1.2 -0.1
v 0.7 1.3 -0.1
v 0.7 1.6 -0.1
v 0.7 2.9 -0.1
v 0.8 0.3 -0.1
v 0.8 0.5 -0.1
v 0.8 1.3 -0.1
v 0.8 1.4 -0.1
v 0.9 0 -0.1
v 0.9 0.3 -0.1
v 0.9 1.4 -0.1
v 0.9 1.6 -0.1
v 0.9 1.7 -0.1
v 0.9 2.7 -0.1
v 0.9 2.8 -0.1
v 0.9 2.9 -0.1
v 1.1 1.7 -0.1
v 1.1 1.8 -0.1
v 1.2 1.6 -0.1
v 1.2 1.7 -0.1
v 1.2 1.8 -0.1
v 1.2 2 -0.1
v 1.2 2.6 -0.1
v 1.2 2.7 -0.1
v 1.3 1.7 -0.1
v 1.3 1.9 -0.1
v 1.3 2 -0.1
v 1.3 2.1 -0.1
v 1.3 2.4 -0.1
v 1.3 2.6 -0.1
v 1.3 2.7 -0.1
v 1.3 2.8 -0.1
v 1.4 1.9 -0.1
v 1.4 2 -0.1
v 1.4 2.1 -0.1
v 1.4 2.4 -0.1
v 1.4 2.5 -0.1
v 1.4 2.7 -0.1
v 1.5 2 -0.1
v 1.5 2.5 -0.1
v -0.9 0 0
v 0.9 0 0
v -0.9 0 -0.1
v 0.9 0 -0.1
v -0.7 1.2 0
v -0.5 1.2 0
v 0.5 1.2 0
v 0.7 1.2 0
v -0.7 1.2 -0.1
v -0.5 1.2 -0.1
v 0.5 1.2 -0.1
v 0.7 1.2 -0.1
v -0.8 1.3 0
v -0.7 1.3 0
v 0.7 1.3 0
v 0.8 1.3 0
v -0.8 1.3 -0.1
v -0.7 1.3 -0.1
v 0.7 1.3 -0.1
v 0.8 1.3 -0.1
v -0.9 1.4 0
v -0.8 1.4 0
v 0.8 1.4 0
v 0.9 1.4 0
v -0.9 1.4 -0.1
v -0.8 1.4 -0.1
v 0.8 1.4 -0.1
v 0.9 1.4 -0.1
v -1.2 1.6 0
v -0.9 1.6 0
v 0.9 1.6 0
v 1.2 1.6 0
v -1.2 1.6 -0.1
v -0.9 1.6 -0.1
v 0.9 1.6 -0.1
v 1.2 1.6 -0.1
v -1.3 1.7 0
v -1.2 1.7 0
v 1.2 1.7 0
v 1.3 1.7 0
v -1.3 1.7 -0.1
v -1.2 1.7 -0.1
v 1.2 1.7 -0.1
v 1.3 1.7 -0.1
v -1.4 1.9 0
v -1.3 1.9 0
v 1.3 1.9 0
v 1.4 1.9 0
v -1.4 1.9 -0.1
v -1.3 1.9 -0.1
v 1.3 1.9 -0.1
v 1.4 1.9 -0.1
v -1.5 2 0
v -1.4 2 0
v 1.4 2 0
v 1.5 2 0
v -1.5 2 -0.1
v -1.4 2 -0.1
v 1.4 2 -0.1
v 1.5 2 -0.1
v -1.4 2.4 0
v -1.3 2.4 0
v 1.3 2.4 0
v 1.4 2.4 0
v -1.4 2.4 -0.1
v -1.3 2.4 -0.1
v 1.3 2.4 -0.1
v 1.4 2.4 -0.1
v -1.3 2.6 0
v -1.2 2.6 0
v 1.2 2.6 0
v 1.3 2.6 0
v -1.3 2.6 -0.1
v -1.2 2.6 -0.1
v 1.2 2.6 -0.1
v 1.3 2.6 -0.1
v -1.2 2.7 0
v -0.9 2.7 0
v 0.9 2.7 0
v 1.2 2.7 0
v -1.2 2.7 -0.1
v -0.9 2.7 -0.1
v 0.9 2.7 -0.1
v 1.2 2.7 -0.1
v -0.9 0.3 0
v -0.8 0.3 0
v 0.8 0.3 0
v 0.9 0.3 0
v -0.9 0.3 -0.1
v -0.8 0.3 -0.1
v 0.8 0.3 -0.1
v 0.9 0.3 -0.1
v -0.8 0.5 0
v -0.7 0.5 0
v 0.7 0.5 0
v 0.8 0.5 0
v -0.8 0.5 -0.1
v -0.7 0.5 -0.1
v 0.7 0.5 -0.1
v 0.8 0.5 -0.1
v -0.7 0.6 0
v -0.6 0.6 0
v 0.6 0.6 0
v 0.7 0.6 0
v -0.7 0.6 -0.1
v -0.6 0.6 -0.1
v 0.6 0.6 -0.1
v 0.7 0.6 -0.1
v -0.6 0.7 0
v -0.5 0.7 0
v 0.5 0.7 0
v 0.6 0.7 0
v -0.6 0.7 -0.1
v -0.5 0.7 -0.1
v 0.5 0.7 -0.1
v 0.6 0.7 -0.1
v -1.1 1.7 0
v -0.9 1.7 0
v 0.9 1.7 0
v 1.1 1.7 0
v -1.1 1.7 -0.1
v -0.9 1.7 -0.1
v 0.9 1.7 -0.1
v 1.1 1.7 -0.1
v -1.2 1.8 0
v -1.1 1.8 0
v 1.1 1.8 0
v 1.2 1.8 0
v -1.2 1.8 -0.1
v -1.1 1.8 -0.1
v 1.1 1.8 -0.1
v 1.2 1.8 -0.1
v -1.3 2 0
v -1.2 2 0
v 1.2 2 0
v 1.3 2 0
v -1.3 2 -0.1
v -1.2 2 -0.1
v 1.2 2 -0.1
v 1.3 2 -0.1
v -1.4 2.1 0
v -1.3 2.1 0
v 1.3 2.1 0
v 1.4 2.1 0
v -1.4 2.1 -0.1
v -1.3 2.1 -0.1
v 1.3 2.1 -0.1
v 1.4 2.1 -0.1
v -1.5 2.5 0
v -1.4 2.5 0
v 1.4 2.5 0
v 1.5 2.5 0
v -1.5 2.5 -0.1
v -1.4 2.5 -0.1
v 1.4 2.5 -0.1
v 1.5 2.5 -0.1
v -1.4 2.7 0
v -1.3 2.7 0
v 1.3 2.7 0
v 1.4 2.7 0
v -1.4 2.7 -0.1
v -1.3 2.7 -0.1
v 1.3 2.7 -0.1
v 1.4 2.7 -0.1
v -1.3 2.8 0
v -0.9 2.8 0
v 0.9 2.8 0
v 1.3 2.8 0
v -1.3 2.8 -0.1
v -0.9 2.8 -0.1
v 0.9 2.8 -0.1
v 1.3 2.8 -0.1
v -0.9 2.9 0
v 0.7 2.9 0
v 0.9 2.9 0
v -0.9 2.9 -0.1
v 0.7 2.9 -0.1
v 0.9 2.9 -0.1

# faces
f 3/2/1 2/2/1 1/2/1
f 4/2/1 2/2/1 3/2/1
f 7/2/1 6/2/1 5/2/1
f 8/2/1 6/2/1 7/2/1
f 11/2/1 10/2/1 9/2/1
f 12/2/1 10/2/1 11/2/1
f 15/2/1 14/2/1 13/2/1
f 16/2/1 14/2/1 15/2/1
f 19/2/1 18/2/1 17/2/1
f 20/2/1 18/2/1 19/2/1
f 23/2/1 22/2/1 21/2/1
f 24/2/1 22/2/1 23/2/1
f 27/3/1 26/3/1 25/3/1
f 28/3/1 26/3/1 27/3/1
f 31/2/1 30/2/1 29/2/1
f 32/2/1 30/2/1 31/2/1
f 35/2/1 34/2/1 33/2/1
f 36/2/1 34/2/1 35/2/1
f 39/2/1 38/2/1 37/2/1
f 40/2/1 38/2/1 39/2/1
f 43/3/1 42/3/1 41/3/1
f 44/3/1 42/3/1 43/3/1
f 47/2/1 46/2/1 45/2/1
f 48/2/1 46/2/1 47/2/1
f 51/2/1 50/2/1 49/2/1
f 52/2/1 50/2/1 51/2/1
f 55/2/1 54/2/1 53/2/1
f 56/2/1 54/2/1 55/2/1
f 59/2/1 58/2/1 57/2/1
f 60/2/1 58/2/1 59/2/1
f 63/2/1 62/2/1 61/2/1
f 64/2/1 62/2/1 63/2/1
f 67/2/1 66/2/1 65/2/1
f 68/2/1 66/2/1 67/2/1
f 71/2/1 70/2/1 69/2/1
f 72/2/1 70/2/1 71/2/1
f 75/2/1 74/2/1 73/2/1
f 76/2/1 74/2/1 75/2/1
f 79/2/1 78/2/1 77/2/1
f 80/2/1 78/2/1 79/2/1
f 83/2/1 82/2/1 81/2/1
f 84/2/1 82/2/1 83/2/1
f 87/2/1 86/2/1 85/2/1
f 88/2/1 86/2/1 87/2/1
f 89/2/2 90/2/2 91/2/2
f 91/2/2 90/2/2 92/2/2
f 93/2/2 94/2/2 95/2/2
f 95/2/2 94/2/2 96/2/2
f 97/2/2 98/2/2 99/2/2
f 99/2/2 98/2/2 100/2/2
f 101/2/2 102/2/2 103/2/2
f 103/2/2 102/2/2 104/2/2
f 105/2/2 106/2/2 107/2/2
f 107/2/2 106/2/2 108/2/2
f 109/2/2 110/2/2 111/2/2
f 111/2/2 110/2/2 112/2/2
f 113/4/2 114/4/2 115/4/2
f 115/4/2 114/4/2 116/4/2
f 117/4/2 118/4/2 119/4/2
f 119/4/2 118/4/2 120/4/2
f 121/4/2 122/4/2 123/4/2
f 123/4/2 122/4/2 124/4/2
f 125/4/2 126/4/2 127/4/2
f 127/4/2 126/4/2 128/4/2
f 129/3/2 130/3/2 131/3/2
f 131/3/2 130/3/2 132/3/2
f 133/4/2 134/4/2 135/4/2
f 135/4/2 134/4/2 136/4/2
f 137/3/2 138/3/2 139/3/2
f 139/3/2 138/3/2 140/3/2
f 141/4/2 142/4/2 143/4/2
f 143/4/2 142/4/2 144/4/2
f 145/4/2 146/4/2 147/4/2
f 147/4/2 146/4/2 148/4/2
f 149/4/2 150/4/2 151/4/2
f 151/4/2 150/4/2 152/4/2
f 153/2/2 154/2/2 155/2/2
f 155/2/2 154/2/2 156/2/2
f 157/2/2 158/2/2 159/2/2
f 159/2/2 158/2/2 160/2/2
f 161/2/2 162/2/2 163/2/2
f 163/2/2 162/2/2 164/2/2
f 165/2/2 166/2/2 167/2/2
f 167/2/2 166/2/2 168/2/2
f 169/2/2 170/2/2 171/2/2
f 171/2/2 170/2/2 172/2/2
f 173/2/2 174/2/2 175/2/2
f 175/2/2 174/2/2 176/2/2
f 180/2/3 178/2/3 177/2/3
f 181/2/3 178/2/3 180/2/3
f 182/2/3 178/2/3 181/2/3
f 183/2/3 178/2/3 182/2/3
f 186/2/3 180/2/3 179/2/3
f 186/2/3 181/2/3 180/2/3
f 187/2/3 181/2/3 186/2/3
f 188/2/3 181/2/3 187/2/3
f 189/2/3 183/2/3 182/2/3
f 189/2/3 184/2/3 183/2/3
f 190/2/3 184/2/3 189/2/3
f 191/2/3 184/2/3 190/2/3
f 194/2/3 187/2/3 186/2/3
f 194/2/3 186/2/3 185/2/3
f 195/2/3 187/2/3 194/2/3
f 196/2/3 187/2/3 195/2/3
f 197/2/3 192/2/3 191/2/3
f 197/2/3 191/2/3 190/2/3
f 198/2/3 192/2/3 197/2/3
f 199/2/3 195/2/3 194/2/3
f 199/2/3 194/2/3 193/2/3
f 200/2/3 195/2/3 199/2/3
f 204/2/3 199/2/3 193/2/3
f 205/2/3 199/2/3 204/2/3
f 206/2/3 192/2/3 198/2/3
f 207/2/3 192/2/3 206/2/3
f 209/3/3 202/3/3 201/3/3
f 212/2/3 205/2/3 204/2/3
f 212/2/3 208/2/3 207/2/3
f 212/2/3 204/2/3 203/2/3
f 212/2/3 207/2/3 206/2/3
f 212/2/3 206/2/3 205/2/3
f 213/3/3 210/3/3 209/3/3
f 216/2/3 212/2/3 211/2/3
f 217/2/3 214/2/3 213/2/3
f 219/2/3 216/2/3 215/2/3
f 219/2/3 208/2/3 212/2/3
f 219/2/3 212/2/3 216/2/3
f 220/2/3 208/2/3 219/2/3
f 221/2/3 218/2/3 217/2/3
f 222/2/3 219/2/3 215/2/3
f 223/2/3 219/2/3 222/2/3
f 224/5/3 220/5/3 219/5/3
f 224/2/3 219/2/3 223/2/3
f 225/2/3 208/2/3 220/2/3
f 225/5/3 220/5/3 224/5/3
f 226/3/3 209/3/3 201/3/3
f 226/3/3 213/3/3 209/3/3
f 227/3/3 213/3/3 226/3/3
f 228/5/3 224/5/3 223/5/3
f 228/2/3 223/2/3 222/2/3
f 228/2/3 222/2/3 221/2/3
f 229/2/3 225/2/3 224/2/3
f 229/5/3 224/5/3 228/5/3
f 230/3/3 226/3/3 201/3/3
f 231/1/3 227/1/3 226/1/3
f 231/3/3 226/3/3 230/3/3
f 232/3/3 213/3/3 227/3/3
f 232/1/3 227/1/3 231/1/3
f 233/3/3 213/3/3 232/3/3
f 234/1/3 231/1/3 230/1/3
f 234/3/3 230/3/3 201/3/3
f 234/1/3 233/1/3 232/1/3
f 234/1/3 232/1/3 231/1/3
f 235/1/3 233/1/3 234/1/3
f 236/1/3 233/1/3 235/1/3
f 237/3/3 213/3/3 233/3/3
f 237/1/3 233/1/3 236/1/3
f 238/1/3 236/1/3 235/1/3
f 238/3/3 235/3/3 234/3/3
f 239/3/3 237/3/3 236/3/3
f 239/1/3 236/1/3 238/1/3
f 240/3/3 213/3/3 237/3/3
f 240/3/3 237/3/3 239/3/3
f 240/2/3 217/2/3 213/2/3
f 240/2/3 228/2/3 221/2/3
f 240/2/3 221/2/3 217/2/3
f 240/2/3 229/2/3 228/2/3
f 241/2/3 229/2/3 240/2/3
f 242/4/3 241/4/3 240/4/3
f 243/4/3 241/4/3 242/4/3
f 244/2/3 229/2/3 241/2/3
f 244/4/3 241/4/3 243/4/3
f 245/2/3 229/2/3 244/2/3
f 246/4/3 242/4/3 240/4/3
f 247/4/3 242/4/3 246/4/3
f 248/2/3 229/2/3 245/2/3
f 248/4/3 245/4/3 244/4/3
f 248/4/3 244/4/3 243/4/3
f 249/2/3 229/2/3 248/2/3
f 250/3/3 239/3/3 238/3/3
f 250/3/3 240/3/3 239/3/3
f 250/4/3 246/4/3 240/4/3
f 251/4/3 246/4/3 250/4/3
f 252/4/3 249/4/3 248/4/3
f 252/4/3 248/4/3 243/4/3
f 253/4/3 249/4/3 252/4/3
f 254/2/3 229/2/3 249/2/3
f 254/4/3 249/4/3 253/4/3
f 255/2/3 208/2/3 225/2/3
f 255/2/3 229/2/3 254/2/3
f 255/2/3 225/2/3 229/2/3
f 256/3/3 250/3/3 238/3/3
f 257/3/3 250/3/3 256/3/3
f 258/4/3 254/4/3 253/4/3
f 258/4/3 255/4/3 254/4/3
f 259/4/3 255/4/3 258/4/3
f 260/3/3 238/3/3 234/3/3
f 260/3/3 234/3/3 201/3/3
f 260/3/3 256/3/3 238/3/3
f 261/3/3 256/3/3 260/3/3
f 262/4/3 255/4/3 259/4/3
f 263/4/3 255/4/3 262/4/3
f 264/4/3 255/4/3 263/4/3
f 265/4/3 255/4/3 264/4/3
f 266/4/3 255/4/3 265/4/3
f 267/4/3 255/4/3 266/4/3
f 268/2/3 264/2/3 263/2/3
f 270/2/3 268/2/3 263/2/3
f 270/2/3 269/2/3 268/2/3
f 271/2/3 269/2/3 270/2/3
f 272/2/3 269/2/3 271/2/3
f 275/2/3 266/2/3 265/2/3
f 276/2/3 273/2/3 272/2/3
f 276/2/3 272/2/3 271/2/3
f 277/2/3 273/2/3 276/2/3
f 278/2/3 273/2/3 277/2/3
f 281/2/3 275/2/3 274/2/3
f 282/2/3 266/2/3 275/2/3
f 282/2/3 275/2/3 281/2/3
f 283/2/3 266/2/3 282/2/3
f 284/2/3 279/2/3 278/2/3
f 284/2/3 278/2/3 277/2/3
f 285/2/3 279/2/3 284/2/3
f 286/2/3 279/2/3 285/2/3
f 287/2/3 281/2/3 280/2/3
f 287/2/3 282/2/3 281/2/3
f 288/2/3 282/2/3 287/2/3
f 289/2/3 282/2/3 288/2/3
f 290/2/3 286/2/3 285/2/3
f 290/2/3 288/2/3 287/2/3
f 290/2/3 287/2/3 286/2/3
f 291/2/3 288/2/3 290/2/3
f 292/2/4 293/2/4 295/2/4
f 295/2/4 293/2/4 296/2/4
f 296/2/4 293/2/4 297/2/4
f 297/2/4 293/2/4 298/2/4
f 294/2/4 295/2/4 301/2/4
f 295/2/4 296/2/4 301/2/4
f 301/2/4 296/2/4 302/2/4
f 302/2/4 296/2/4 303/2/4
f 297/2/4 298/2/4 304/2/4
f 298/2/4 299/2/4 304/2/4
f 304/2/4 299/2/4 305/2/4
f 305/2/4 299/2/4 306/2/4
f 301/2/4 302/2/4 309/2/4
f 300/2/4 301/2/4 309/2/4
f 309/2/4 302/2/4 310/2/4
f 310/2/4 302/2/4 311/2/4
f 306/2/4 307/2/4 312/2/4
f 305/2/4 306/2/4 312/2/4
f 312/2/4 307/2/4 313/2/4
f 309/2/4 310/2/4 314/2/4
f 308/2/4 309/2/4 314/2/4
f 314/2/4 310/2/4 315/2/4
f 308/2/4 314/2/4 319/2/4
f 319/2/4 314/2/4 320/2/4
f 313/2/4 307/2/4 321/2/4
f 321/2/4 307/2/4 322/2/4
f 316/3/4 317/3/4 324/3/4
f 319/2/4 320/2/4 327/2/4
f 322/2/4 323/2/4 327/2/4
f 318/2/4 319/2/4 327/2/4
f 321/2/4 322/2/4 327/2/4
f 320/2/4 321/2/4 327/2/4
f 324/3/4 325/3/4 328/3/4
f 326/2/4 327/2/4 331/2/4
f 328/2/4 329/2/4 332/2/4
f 330/2/4 331/2/4 334/2/4
f 327/2/4 323/2/4 334/2/4
f 331/2/4 327/2/4 334/2/4
f 334/2/4 323/2/4 335/2/4
f 332/2/4 333/2/4 336/2/4
f 330/2/4 334/2/4 337/2/4
f 337/2/4 334/2/4 338/2/4
f 334/5/4 335/5/4 339/5/4
f 338/2/4 334/2/4 339/2/4
f 335/2/4 323/2/4 340/2/4
f 339/5/4 335/5/4 340/5/4
f 316/3/4 324/3/4 341/3/4
f 324/3/4 328/3/4 341/3/4
f 341/3/4 328/3/4 342/3/4
f 338/5/4 339/5/4 343/5/4
f 337/2/4 338/2/4 343/2/4
f 336/2/4 337/2/4 343/2/4
f 339/2/4 340/2/4 344/2/4
f 343/5/4 339/5/4 344/5/4
f 316/3/4 341/3/4 345/3/4
f 341/1/4 342/1/4 346/1/4
f 345/3/4 341/3/4 346/3/4
f 342/3/4 328/3/4 347/3/4
f 346/1/4 342/1/4 347/1/4
f 347/3/4 328/3/4 348/3/4
f 345/1/4 346/1/4 349/1/4
f 316/3/4 345/3/4 349/3/4
f 347/1/4 348/1/4 349/1/4
f 346/1/4 347/1/4 349/1/4
f 349/1/4 348/1/4 350/1/4
f 350/1/4 348/1/4 351/1/4
f 348/3/4 328/3/4 352/3/4
f 351/1/4 348/1/4 352/1/4
f 350/1/4 351/1/4 353/1/4
f 349/3/4 350/3/4 353/3/4
f 351/3/4 352/3/4 354/3/4
f 353/1/4 351/1/4 354/1/4
f 352/3/4 328/3/4 355/3/4
f 354/3/4 352/3/4 355/3/4
f 328/2/4 332/2/4 355/2/4
f 336/2/4 343/2/4 355/2/4
f 332/2/4 336/2/4 355/2/4
f 343/2/4 344/2/4 355/2/4
f 355/2/4 344/2/4 356/2/4
f 355/4/4 356/4/4 357/4/4
f 357/4/4 356/4/4 358/4/4
f 356/2/4 344/2/4 359/2/4
f 358/4/4 356/4/4 359/4/4
f 359/2/4 344/2/4 360/2/4
f 355/4/4 357/4/4 361/4/4
f 361/4/4 357/4/4 362/4/4
f 360/2/4 344/2/4 363/2/4
f 359/4/4 360/4/4 363/4/4
f 358/4/4 359/4/4 363/4/4
f 363/2/4 344/2/4 364/2/4
f 353/3/4 354/3/4 365/3/4
f 354/3/4 355/3/4 365/3/4
f 355/4/4 361/4/4 365/4/4
f 365/4/4 361/4/4 366/4/4
f 363/4/4 364/4/4 367/4/4
f 358/4/4 363/4/4 367/4/4
f 367/4/4 364/4/4 368/4/4
f 364/2/4 344/2/4 369/2/4
f 368/4/4 364/4/4 369/4/4
f 340/2/4 323/2/4 370/2/4
f 369/2/4 344/2/4 370/2/4
f 344/2/4 340/2/4 370/2/4
f 353/3/4 365/3/4 371/3/4
f 371/3/4 365/3/4 372/3/4
f 368/4/4 369/4/4 373/4/4
f 369/4/4 370/4/4 373/4/4
f 373/4/4 370/4/4 374/4/4
f 349/3/4 353/3/4 375/3/4
f 316/3/4 349/3/4 375/3/4
f 353/3/4 371/3/4 375/3/4
f 375/3/4 371/3/4 376/3/4
f 374/4/4 370/4/4 377/4/4
f 377/4/4 370/4/4 378/4/4
f 378/4/4 370/4/4 379/4/4
f 379/4/4 370/4/4 380/4/4
f 380/4/4 370/4/4 381/4/4
f 381/4/4 370/4/4 382/4/4
f 378/2/4 379/2/4 383/2/4
f 378/2/4 383/2/4 385/2/4
f 383/2/4 384/2/4 385/2/4
f 385/2/4 384/2/4 386/2/4
f 386/2/4 384/2/4 387/2/4
f 380/2/4 381/2/4 390/2/4
f 387/2/4 388/2/4 391/2/4
f 386/2/4 387/2/4 391/2/4
f 391/2/4 388/2/4 392/2/4
f 392/2/4 388/2/4 393/2/4
f 389/2/4 390/2/4 396/2/4
f 390/2/4 381/2/4 397/2/4
f 396/2/4 390/2/4 397/2/4
f 397/2/4 381/2/4 398/2/4
f 393/2/4 394/2/4 399/2/4
f 392/2/4 393/2/4 399/2/4
f 399/2/4 394/2/4 400/2/4
f 400/2/4 394/2/4 401/2/4
f 395/2/4 396/2/4 402/2/4
f 396/2/4 397/2/4 402/2/4
f 402/2/4 397/2/4 403/2/4
f 403/2/4 397/2/4 404/2/4
f 400/2/4 401/2/4 405/2/4
f 402/2/4 403/2/4 405/2/4
f 401/2/4 402/2/4 405/2/4
f 405/2/4 403/2/4 406/2/4
f 409/3/5 408/3/5 407/3/5
f 410/3/5 408/3/5 409/3/5
f 415/2/5 412/2/5 411/2/5
f 416/2/5 412/2/5 415/2/5
f 417/4/5 414/4/5 413/4/5
f 418/4/5 414/4/5 417/4/5
f 423/2/5 420/2/5 419/2/5
f 424/2/5 420/2/5 423/2/5
f 425/4/5 422/4/5 421/4/5
f 426/4/5 422/4/5 425/4/5
f 431/2/5 428/2/5 427/2/5
f 432/2/5 428/2/5 431/2/5
f 433/4/5 430/4/5 429/4/5
f 434/4/5 430/4/5 433/4/5
f 439/2/5 436/2/5 435/2/5
f 440/2/5 436/2/5 439/2/5
f 441/2/5 438/2/5 437/2/5
f 442/2/5 438/2/5 441/2/5
f 447/2/5 444/2/5 443/2/5
f 448/2/5 444/2/5 447/2/5
f 449/2/5 446/2/5 445/2/5
f 450/2/5 446/2/5 449/2/5
f 455/2/5 452/2/5 451/2/5
f 456/2/5 452/2/5 455/2/5
f 457/2/5 454/2/5 453/2/5
f 458/2/5 454/2/5 457/2/5
f 463/2/5 460/2/5 459/2/5
f 464/2/5 460/2/5 463/2/5
f 465/2/5 462/2/5 461/2/5
f 466/2/5 462/2/5 465/2/5
f 471/2/5 468/2/5 467/2/5
f 472/2/5 468/2/5 471/2/5
f 473/2/5 470/2/5 469/2/5
f 474/2/5 470/2/5 473/2/5
f 479/2/5 476/2/5 475/2/5
f 480/2/5 476/2/5 479/2/5
f 481/2/5 478/2/5 477/2/5
f 482/2/5 478/2/5 481/2/5
f 487/2/5 484/2/5 483/2/5
f 488/2/5 484/2/5 487/2/5
f 489/2/5 486/2/5 485/2/5
f 490/2/5 486/2/5 489/2/5
f 491/3/6 492/3/6 495/3/6
f 495/3/6 492/3/6 496/3/6
f 493/3/6 494/3/6 497/3/6
f 497/3/6 494/3/6 498/3/6
f 499/3/6 500/3/6 503/3/6
f 503/3/6 500/3/6 504/3/6
f 501/3/6 502/3/6 505/3/6
f 505/3/6 502/3/6 506/3/6
f 507/2/6 508/2/6 511/2/6
f 511/2/6 508/2/6 512/2/6
f 509/4/6 510/4/6 513/4/6
f 513/4/6 510/4/6 514/4/6
f 515/2/6 516/2/6 519/2/6
f 519/2/6 516/2/6 520/2/6
f 517/4/6 518/4/6 521/4/6
f 521/4/6 518/4/6 522/4/6
f 523/2/6 524/2/6 527/2/6
f 527/2/6 524/2/6 528/2/6
f 525/2/6 526/2/6 529/2/6
f 529/2/6 526/2/6 530/2/6
f 531/2/6 532/2/6 535/2/6
f 535/2/6 532/2/6 536/2/6
f 533/2/6 534/2/6 537/2/6
f 537/2/6 534/2/6 538/2/6
f 539/2/6 540/2/6 543/2/6
f 543/2/6 540/2/6 544/2/6
f 541/2/6 542/2/6 545/2/6
f 545/2/6 542/2/6 546/2/6
f 547/2/6 548/2/6 551/2/6
f 551/2/6 548/2/6 552/2/6
f 549/2/6 550/2/6 553/2/6
f 553/2/6 550/2/6 554/2/6
f 555/2/6 556/2/6 559/2/6
f 559/2/6 556/2/6 560/2/6
f 557/2/6 558/2/6 561/2/6
f 561/2/6 558/2/6 562/2/6
f 563/2/6 564/2/6 567/2/6
f 567/2/6 564/2/6 568/2/6
f 565/2/6 566/2/6 569/2/6
f 569/2/6 566/2/6 570/2/6
f 571/2/6 572/2/6 575/2/6
f 575/2/6 572/2/6 576/2/6
f 573/2/6 574/2/6 577/2/6
f 577/2/6 574/2/6 578/2/6
f 579/2/6 580/2/6 582/2/6
f 580/4/6 581/4/6 583/4/6
f 582/2/6 580/2/6 583/2/6
f 583/4/6 581/4/6 584/4/6
