# MagicaVoxel @ Ephtracy

# group
o 

# material
mtllib speedPowerUp.mtl
usemtl palette

# normals
vn -1 0 0
vn 1 0 0
vn 0 0 1
vn 0 0 -1
vn 0 -1 0
vn 0 1 0

# texcoords
vt 0.337891 0.5
vt 0.857422 0.5
vt 0.908203 0.5
vt 0.990234 0.5

# verts
v -0.5 0.2 0.1
v -0.5 0.2 -0.1
v -0.5 0.3 0.2
v -0.5 0.3 0.1
v -0.5 0.3 -0.1
v -0.5 0.3 -0.2
v -0.5 0.7 0.2
v -0.5 0.7 0.1
v -0.5 0.7 -0.1
v -0.5 0.7 -0.2
v -0.5 0.8 0.1
v -0.5 0.8 -0.1
v -0.4 0.1 0.1
v -0.4 0.1 -0.1
v -0.4 0.2 0.2
v -0.4 0.2 0.1
v -0.4 0.2 -0.1
v -0.4 0.2 -0.2
v -0.4 0.3 0.2
v -0.4 0.3 0.1
v -0.4 0.3 -0.1
v -0.4 0.3 -0.2
v -0.4 0.7 0.2
v -0.4 0.7 0.1
v -0.4 0.7 -0.1
v -0.4 0.7 -0.2
v -0.4 0.8 0.2
v -0.4 0.8 0.1
v -0.4 0.8 -0.1
v -0.4 0.8 -0.2
v -0.4 0.9 0.1
v -0.4 0.9 -0.1
v -0.3 0 0.1
v -0.3 0 -0.1
v -0.3 0.1 0.2
v -0.3 0.1 0.1
v -0.3 0.1 -0.1
v -0.3 0.1 -0.2
v -0.3 0.2 0.2
v -0.3 0.2 0.1
v -0.3 0.2 -0.1
v -0.3 0.2 -0.2
v -0.3 0.8 0.2
v -0.3 0.8 0.1
v -0.3 0.8 -0.1
v -0.3 0.8 -0.2
v -0.3 0.9 0.2
v -0.3 0.9 0.1
v -0.3 0.9 -0.1
v -0.3 0.9 -0.2
v -0.3 1 0.1
v -0.3 1 -0.1
v -0.2 0 0.2
v -0.2 0 0.1
v -0.2 0 -0.1
v -0.2 0 -0.2
v -0.2 0.1 0.2
v -0.2 0.1 0.1
v -0.2 0.1 -0.1
v -0.2 0.1 -0.2
v -0.2 0.9 0.2
v -0.2 0.9 0.1
v -0.2 0.9 -0.1
v -0.2 0.9 -0.2
v -0.2 1 0.2
v -0.2 1 0.1
v -0.2 1 -0.1
v -0.2 1 -0.2
v 0.2 0 0.2
v 0.2 0 0.1
v 0.2 0 -0.1
v 0.2 0 -0.2
v 0.2 0.1 0.2
v 0.2 0.1 0.1
v 0.2 0.1 -0.1
v 0.2 0.1 -0.2
v 0.2 0.9 0.2
v 0.2 0.9 0.1
v 0.2 0.9 -0.1
v 0.2 0.9 -0.2
v 0.2 1 0.2
v 0.2 1 0.1
v 0.2 1 -0.1
v 0.2 1 -0.2
v 0.3 0 0.1
v 0.3 0 -0.1
v 0.3 0.1 0.2
v 0.3 0.1 0.1
v 0.3 0.1 -0.1
v 0.3 0.1 -0.2
v 0.3 0.2 0.2
v 0.3 0.2 0.1
v 0.3 0.2 -0.1
v 0.3 0.2 -0.2
v 0.3 0.8 0.2
v 0.3 0.8 0.1
v 0.3 0.8 -0.1
v 0.3 0.8 -0.2
v 0.3 0.9 0.2
v 0.3 0.9 0.1
v 0.3 0.9 -0.1
v 0.3 0.9 -0.2
v 0.3 1 0.1
v 0.3 1 -0.1
v 0.4 0.1 0.1
v 0.4 0.1 -0.1
v 0.4 0.2 0.2
v 0.4 0.2 0.1
v 0.4 0.2 -0.1
v 0.4 0.2 -0.2
v 0.4 0.3 0.2
v 0.4 0.3 0.1
v 0.4 0.3 -0.1
v 0.4 0.3 -0.2
v 0.4 0.7 0.2
v 0.4 0.7 0.1
v 0.4 0.7 -0.1
v 0.4 0.7 -0.2
v 0.4 0.8 0.2
v 0.4 0.8 0.1
v 0.4 0.8 -0.1
v 0.4 0.8 -0.2
v 0.4 0.9 0.1
v 0.4 0.9 -0.1
v 0.5 0.2 0.1
v 0.5 0.2 -0.1
v 0.5 0.3 0.2
v 0.5 0.3 0.1
v 0.5 0.3 -0.1
v 0.5 0.3 -0.2
v 0.5 0.7 0.2
v 0.5 0.7 0.1
v 0.5 0.7 -0.1
v 0.5 0.7 -0.2
v 0.5 0.8 0.1
v 0.5 0.8 -0.1
v -0.5 0.3 0.2
v -0.5 0.7 0.2
v -0.4 0.2 0.2
v -0.4 0.3 0.2
v -0.4 0.4 0.2
v -0.4 0.6 0.2
v -0.4 0.7 0.2
v -0.4 0.8 0.2
v -0.3 0.1 0.2
v -0.3 0.2 0.2
v -0.3 0.3 0.2
v -0.3 0.4 0.2
v -0.3 0.6 0.2
v -0.3 0.7 0.2
v -0.3 0.8 0.2
v -0.3 0.9 0.2
v -0.2 0 0.2
v -0.2 0.1 0.2
v -0.2 0.2 0.2
v -0.2 0.5 0.2
v -0.2 0.6 0.2
v -0.2 0.7 0.2
v -0.2 0.8 0.2
v -0.2 0.9 0.2
v -0.2 1 0.2
v -0.1 0.3 0.2
v -0.1 0.4 0.2
v -0.1 0.5 0.2
v -0.1 0.6 0.2
v -0.1 0.8 0.2
v -0.1 0.9 0.2
v 0 0.4 0.2
v 0 0.5 0.2
v 0.1 0.3 0.2
v 0.1 0.5 0.2
v 0.1 0.8 0.2
v 0.1 0.9 0.2
v 0.2 0 0.2
v 0.2 0.1 0.2
v 0.2 0.2 0.2
v 0.2 0.7 0.2
v 0.2 0.8 0.2
v 0.2 0.9 0.2
v 0.2 1 0.2
v 0.3 0.1 0.2
v 0.3 0.2 0.2
v 0.3 0.3 0.2
v 0.3 0.4 0.2
v 0.3 0.6 0.2
v 0.3 0.7 0.2
v 0.3 0.8 0.2
v 0.3 0.9 0.2
v 0.4 0.2 0.2
v 0.4 0.3 0.2
v 0.4 0.4 0.2
v 0.4 0.6 0.2
v 0.4 0.7 0.2
v 0.4 0.8 0.2
v 0.5 0.3 0.2
v 0.5 0.7 0.2
v -0.5 0.2 0.1
v -0.5 0.3 0.1
v -0.5 0.7 0.1
v -0.5 0.8 0.1
v -0.4 0.1 0.1
v -0.4 0.2 0.1
v -0.4 0.3 0.1
v -0.4 0.7 0.1
v -0.4 0.8 0.1
v -0.4 0.9 0.1
v -0.3 0 0.1
v -0.3 0.1 0.1
v -0.3 0.2 0.1
v -0.3 0.8 0.1
v -0.3 0.9 0.1
v -0.3 1 0.1
v -0.2 0 0.1
v -0.2 0.1 0.1
v -0.2 0.9 0.1
v -0.2 1 0.1
v 0.2 0 0.1
v 0.2 0.1 0.1
v 0.2 0.9 0.1
v 0.2 1 0.1
v 0.3 0 0.1
v 0.3 0.1 0.1
v 0.3 0.2 0.1
v 0.3 0.8 0.1
v 0.3 0.9 0.1
v 0.3 1 0.1
v 0.4 0.1 0.1
v 0.4 0.2 0.1
v 0.4 0.3 0.1
v 0.4 0.7 0.1
v 0.4 0.8 0.1
v 0.4 0.9 0.1
v 0.5 0.2 0.1
v 0.5 0.3 0.1
v 0.5 0.7 0.1
v 0.5 0.8 0.1
v -0.5 0.2 -0.1
v -0.5 0.3 -0.1
v -0.5 0.7 -0.1
v -0.5 0.8 -0.1
v -0.4 0.1 -0.1
v -0.4 0.2 -0.1
v -0.4 0.3 -0.1
v -0.4 0.7 -0.1
v -0.4 0.8 -0.1
v -0.4 0.9 -0.1
v -0.3 0 -0.1
v -0.3 0.1 -0.1
v -0.3 0.2 -0.1
v -0.3 0.8 -0.1
v -0.3 0.9 -0.1
v -0.3 1 -0.1
v -0.2 0 -0.1
v -0.2 0.1 -0.1
v -0.2 0.9 -0.1
v -0.2 1 -0.1
v 0.2 0 -0.1
v 0.2 0.1 -0.1
v 0.2 0.9 -0.1
v 0.2 1 -0.1
v 0.3 0 -0.1
v 0.3 0.1 -0.1
v 0.3 0.2 -0.1
v 0.3 0.8 -0.1
v 0.3 0.9 -0.1
v 0.3 1 -0.1
v 0.4 0.1 -0.1
v 0.4 0.2 -0.1
v 0.4 0.3 -0.1
v 0.4 0.7 -0.1
v 0.4 0.8 -0.1
v 0.4 0.9 -0.1
v 0.5 0.2 -0.1
v 0.5 0.3 -0.1
v 0.5 0.7 -0.1
v 0.5 0.8 -0.1
v -0.5 0.3 -0.2
v -0.5 0.7 -0.2
v -0.4 0.2 -0.2
v -0.4 0.3 -0.2
v -0.4 0.4 -0.2
v -0.4 0.6 -0.2
v -0.4 0.7 -0.2
v -0.4 0.8 -0.2
v -0.3 0.1 -0.2
v -0.3 0.2 -0.2
v -0.3 0.3 -0.2
v -0.3 0.4 -0.2
v -0.3 0.6 -0.2
v -0.3 0.7 -0.2
v -0.3 0.8 -0.2
v -0.3 0.9 -0.2
v -0.2 0 -0.2
v -0.2 0.1 -0.2
v -0.2 0.2 -0.2
v -0.2 0.5 -0.2
v -0.2 0.6 -0.2
v -0.2 0.7 -0.2
v -0.2 0.8 -0.2
v -0.2 0.9 -0.2
v -0.2 1 -0.2
v -0.1 0.3 -0.2
v -0.1 0.4 -0.2
v -0.1 0.5 -0.2
v -0.1 0.6 -0.2
v -0.1 0.8 -0.2
v -0.1 0.9 -0.2
v 0 0.4 -0.2
v 0 0.5 -0.2
v 0.1 0.3 -0.2
v 0.1 0.5 -0.2
v 0.1 0.8 -0.2
v 0.1 0.9 -0.2
v 0.2 0 -0.2
v 0.2 0.1 -0.2
v 0.2 0.2 -0.2
v 0.2 0.7 -0.2
v 0.2 0.8 -0.2
v 0.2 0.9 -0.2
v 0.2 1 -0.2
v 0.3 0.1 -0.2
v 0.3 0.2 -0.2
v 0.3 0.3 -0.2
v 0.3 0.4 -0.2
v 0.3 0.6 -0.2
v 0.3 0.7 -0.2
v 0.3 0.8 -0.2
v 0.3 0.9 -0.2
v 0.4 0.2 -0.2
v 0.4 0.3 -0.2
v 0.4 0.4 -0.2
v 0.4 0.6 -0.2
v 0.4 0.7 -0.2
v 0.4 0.8 -0.2
v 0.5 0.3 -0.2
v 0.5 0.7 -0.2
v -0.2 0 0.2
v 0.2 0 0.2
v -0.3 0 0.1
v -0.2 0 0.1
v 0.2 0 0.1
v 0.3 0 0.1
v -0.3 0 -0.1
v -0.2 0 -0.1
v 0.2 0 -0.1
v 0.3 0 -0.1
v -0.2 0 -0.2
v 0.2 0 -0.2
v -0.3 0.1 0.2
v -0.2 0.1 0.2
v 0.2 0.1 0.2
v 0.3 0.1 0.2
v -0.4 0.1 0.1
v -0.3 0.1 0.1
v -0.2 0.1 0.1
v 0.2 0.1 0.1
v 0.3 0.1 0.1
v 0.4 0.1 0.1
v -0.4 0.1 -0.1
v -0.3 0.1 -0.1
v -0.2 0.1 -0.1
v 0.2 0.1 -0.1
v 0.3 0.1 -0.1
v 0.4 0.1 -0.1
v -0.3 0.1 -0.2
v -0.2 0.1 -0.2
v 0.2 0.1 -0.2
v 0.3 0.1 -0.2
v -0.4 0.2 0.2
v -0.3 0.2 0.2
v 0.3 0.2 0.2
v 0.4 0.2 0.2
v -0.5 0.2 0.1
v -0.4 0.2 0.1
v -0.3 0.2 0.1
v 0.3 0.2 0.1
v 0.4 0.2 0.1
v 0.5 0.2 0.1
v -0.5 0.2 -0.1
v -0.4 0.2 -0.1
v -0.3 0.2 -0.1
v 0.3 0.2 -0.1
v 0.4 0.2 -0.1
v 0.5 0.2 -0.1
v -0.4 0.2 -0.2
v -0.3 0.2 -0.2
v 0.3 0.2 -0.2
v 0.4 0.2 -0.2
v -0.5 0.3 0.2
v -0.4 0.3 0.2
v 0.4 0.3 0.2
v 0.5 0.3 0.2
v -0.5 0.3 0.1
v -0.4 0.3 0.1
v 0.4 0.3 0.1
v 0.5 0.3 0.1
v -0.5 0.3 -0.1
v -0.4 0.3 -0.1
v 0.4 0.3 -0.1
v 0.5 0.3 -0.1
v -0.5 0.3 -0.2
v -0.4 0.3 -0.2
v 0.4 0.3 -0.2
v 0.5 0.3 -0.2
v -0.5 0.7 0.2
v -0.4 0.7 0.2
v 0.4 0.7 0.2
v 0.5 0.7 0.2
v -0.5 0.7 0.1
v -0.4 0.7 0.1
v 0.4 0.7 0.1
v 0.5 0.7 0.1
v -0.5 0.7 -0.1
v -0.4 0.7 -0.1
v 0.4 0.7 -0.1
v 0.5 0.7 -0.1
v -0.5 0.7 -0.2
v -0.4 0.7 -0.2
v 0.4 0.7 -0.2
v 0.5 0.7 -0.2
v -0.4 0.8 0.2
v -0.3 0.8 0.2
v 0.3 0.8 0.2
v 0.4 0.8 0.2
v -0.5 0.8 0.1
v -0.4 0.8 0.1
v -0.3 0.8 0.1
v 0.3 0.8 0.1
v 0.4 0.8 0.1
v 0.5 0.8 0.1
v -0.5 0.8 -0.1
v -0.4 0.8 -0.1
v -0.3 0.8 -0.1
v 0.3 0.8 -0.1
v 0.4 0.8 -0.1
v 0.5 0.8 -0.1
v -0.4 0.8 -0.2
v -0.3 0.8 -0.2
v 0.3 0.8 -0.2
v 0.4 0.8 -0.2
v -0.3 0.9 0.2
v -0.2 0.9 0.2
v 0.2 0.9 0.2
v 0.3 0.9 0.2
v -0.4 0.9 0.1
v -0.3 0.9 0.1
v -0.2 0.9 0.1
v 0.2 0.9 0.1
v 0.3 0.9 0.1
v 0.4 0.9 0.1
v -0.4 0.9 -0.1
v -0.3 0.9 -0.1
v -0.2 0.9 -0.1
v 0.2 0.9 -0.1
v 0.3 0.9 -0.1
v 0.4 0.9 -0.1
v -0.3 0.9 -0.2
v -0.2 0.9 -0.2
v 0.2 0.9 -0.2
v 0.3 0.9 -0.2
v -0.2 1 0.2
v 0.2 1 0.2
v -0.3 1 0.1
v -0.2 1 0.1
v 0.2 1 0.1
v 0.3 1 0.1
v -0.3 1 -0.1
v -0.2 1 -0.1
v 0.2 1 -0.1
v 0.3 1 -0.1
v -0.2 1 -0.2
v 0.2 1 -0.2

# faces
f 4/3/1 2/3/1 1/3/1
f 5/3/1 2/3/1 4/3/1
f 7/3/1 4/3/1 3/3/1
f 7/3/1 6/3/1 5/3/1
f 7/3/1 5/3/1 4/3/1
f 8/3/1 6/3/1 7/3/1
f 9/3/1 6/3/1 8/3/1
f 10/3/1 6/3/1 9/3/1
f 11/3/1 9/3/1 8/3/1
f 12/3/1 9/3/1 11/3/1
f 16/3/1 14/3/1 13/3/1
f 17/3/1 14/3/1 16/3/1
f 19/3/1 16/3/1 15/3/1
f 20/3/1 16/3/1 19/3/1
f 21/3/1 18/3/1 17/3/1
f 22/3/1 18/3/1 21/3/1
f 27/3/1 24/3/1 23/3/1
f 28/3/1 24/3/1 27/3/1
f 29/3/1 26/3/1 25/3/1
f 30/3/1 26/3/1 29/3/1
f 31/3/1 29/3/1 28/3/1
f 32/3/1 29/3/1 31/3/1
f 36/3/1 34/3/1 33/3/1
f 37/3/1 34/3/1 36/3/1
f 39/3/1 36/3/1 35/3/1
f 40/3/1 36/3/1 39/3/1
f 41/3/1 38/3/1 37/3/1
f 42/3/1 38/3/1 41/3/1
f 47/3/1 44/3/1 43/3/1
f 48/3/1 44/3/1 47/3/1
f 49/3/1 46/3/1 45/3/1
f 50/3/1 46/3/1 49/3/1
f 51/3/1 49/3/1 48/3/1
f 52/3/1 49/3/1 51/3/1
f 57/3/1 54/3/1 53/3/1
f 58/3/1 54/3/1 57/3/1
f 59/3/1 56/3/1 55/3/1
f 60/3/1 56/3/1 59/3/1
f 65/3/1 62/3/1 61/3/1
f 66/3/1 62/3/1 65/3/1
f 67/3/1 64/3/1 63/3/1
f 68/3/1 64/3/1 67/3/1
f 69/3/2 70/3/2 73/3/2
f 73/3/2 70/3/2 74/3/2
f 71/3/2 72/3/2 75/3/2
f 75/3/2 72/3/2 76/3/2
f 77/3/2 78/3/2 81/3/2
f 81/3/2 78/3/2 82/3/2
f 79/3/2 80/3/2 83/3/2
f 83/3/2 80/3/2 84/3/2
f 85/3/2 86/3/2 88/3/2
f 88/3/2 86/3/2 89/3/2
f 87/3/2 88/3/2 91/3/2
f 91/3/2 88/3/2 92/3/2
f 89/3/2 90/3/2 93/3/2
f 93/3/2 90/3/2 94/3/2
f 95/3/2 96/3/2 99/3/2
f 99/3/2 96/3/2 100/3/2
f 97/3/2 98/3/2 101/3/2
f 101/3/2 98/3/2 102/3/2
f 100/3/2 101/3/2 103/3/2
f 103/3/2 101/3/2 104/3/2
f 105/3/2 106/3/2 108/3/2
f 108/3/2 106/3/2 109/3/2
f 107/3/2 108/3/2 111/3/2
f 111/3/2 108/3/2 112/3/2
f 109/3/2 110/3/2 113/3/2
f 113/3/2 110/3/2 114/3/2
f 115/3/2 116/3/2 119/3/2
f 119/3/2 116/3/2 120/3/2
f 117/3/2 118/3/2 121/3/2
f 121/3/2 118/3/2 122/3/2
f 120/3/2 121/3/2 123/3/2
f 123/3/2 121/3/2 124/3/2
f 125/3/2 126/3/2 128/3/2
f 128/3/2 126/3/2 129/3/2
f 127/3/2 128/3/2 131/3/2
f 129/3/2 130/3/2 131/3/2
f 128/3/2 129/3/2 131/3/2
f 131/3/2 130/3/2 132/3/2
f 132/3/2 130/3/2 133/3/2
f 133/3/2 130/3/2 134/3/2
f 132/3/2 133/3/2 135/3/2
f 135/3/2 133/3/2 136/3/2
f 140/3/3 138/3/3 137/3/3
f 141/3/3 138/3/3 140/3/3
f 142/3/3 138/3/3 141/3/3
f 143/3/3 138/3/3 142/3/3
f 146/3/3 140/3/3 139/3/3
f 147/1/3 141/1/3 140/1/3
f 147/3/3 140/3/3 146/3/3
f 148/4/3 142/4/3 141/4/3
f 148/1/3 141/1/3 147/1/3
f 149/1/3 143/1/3 142/1/3
f 149/4/3 142/4/3 148/4/3
f 150/3/3 144/3/3 143/3/3
f 150/1/3 143/1/3 149/1/3
f 151/3/3 144/3/3 150/3/3
f 154/3/3 146/3/3 145/3/3
f 155/1/3 149/1/3 148/1/3
f 155/1/3 147/1/3 146/1/3
f 155/3/3 146/3/3 154/3/3
f 155/1/3 148/1/3 147/1/3
f 156/1/3 149/1/3 155/1/3
f 157/2/3 150/2/3 149/2/3
f 157/1/3 149/1/3 156/1/3
f 158/4/3 151/4/3 150/4/3
f 158/2/3 150/2/3 157/2/3
f 159/3/3 152/3/3 151/3/3
f 159/4/3 151/4/3 158/4/3
f 160/3/3 152/3/3 159/3/3
f 162/1/3 156/1/3 155/1/3
f 162/1/3 155/1/3 154/1/3
f 163/1/3 156/1/3 162/1/3
f 164/2/3 157/2/3 156/2/3
f 164/1/3 156/1/3 163/1/3
f 165/1/3 158/1/3 157/1/3
f 165/2/3 157/2/3 164/2/3
f 165/1/3 160/1/3 159/1/3
f 165/1/3 159/1/3 158/1/3
f 166/1/3 160/1/3 165/1/3
f 167/3/3 161/3/3 160/3/3
f 167/1/3 160/1/3 166/1/3
f 168/2/3 164/2/3 163/2/3
f 168/4/3 163/4/3 162/4/3
f 169/1/3 166/1/3 165/1/3
f 169/2/3 164/2/3 168/2/3
f 169/1/3 165/1/3 164/1/3
f 170/4/3 168/4/3 162/4/3
f 170/1/3 162/1/3 154/1/3
f 170/4/3 169/4/3 168/4/3
f 171/1/3 166/1/3 169/1/3
f 171/4/3 169/4/3 170/4/3
f 172/4/3 167/4/3 166/4/3
f 172/1/3 166/1/3 171/1/3
f 173/3/3 161/3/3 167/3/3
f 173/4/3 167/4/3 172/4/3
f 174/3/3 154/3/3 153/3/3
f 175/1/3 172/1/3 171/1/3
f 175/3/3 154/3/3 174/3/3
f 175/1/3 171/1/3 170/1/3
f 175/1/3 173/1/3 172/1/3
f 175/1/3 170/1/3 154/1/3
f 176/1/3 173/1/3 175/1/3
f 177/1/3 173/1/3 176/1/3
f 178/1/3 173/1/3 177/1/3
f 179/3/3 161/3/3 173/3/3
f 179/1/3 173/1/3 178/1/3
f 180/3/3 161/3/3 179/3/3
f 181/3/3 176/3/3 175/3/3
f 182/1/3 177/1/3 176/1/3
f 182/3/3 176/3/3 181/3/3
f 183/1/3 177/1/3 182/1/3
f 184/1/3 177/1/3 183/1/3
f 185/1/3 177/1/3 184/1/3
f 186/4/3 178/4/3 177/4/3
f 186/1/3 177/1/3 185/1/3
f 187/3/3 179/3/3 178/3/3
f 187/4/3 178/4/3 186/4/3
f 188/3/3 179/3/3 187/3/3
f 189/3/3 183/3/3 182/3/3
f 190/1/3 184/1/3 183/1/3
f 190/3/3 183/3/3 189/3/3
f 191/4/3 185/4/3 184/4/3
f 191/1/3 184/1/3 190/1/3
f 192/1/3 186/1/3 185/1/3
f 192/4/3 185/4/3 191/4/3
f 193/3/3 187/3/3 186/3/3
f 193/1/3 186/1/3 192/1/3
f 194/3/3 187/3/3 193/3/3
f 195/3/3 191/3/3 190/3/3
f 195/3/3 193/3/3 192/3/3
f 195/3/3 192/3/3 191/3/3
f 196/3/3 193/3/3 195/3/3
f 202/3/3 198/3/3 197/3/3
f 203/3/3 198/3/3 202/3/3
f 204/3/3 200/3/3 199/3/3
f 205/3/3 200/3/3 204/3/3
f 208/3/3 202/3/3 201/3/3
f 209/3/3 202/3/3 208/3/3
f 210/3/3 206/3/3 205/3/3
f 211/3/3 206/3/3 210/3/3
f 213/3/3 208/3/3 207/3/3
f 214/3/3 208/3/3 213/3/3
f 215/3/3 212/3/3 211/3/3
f 216/3/3 212/3/3 215/3/3
f 221/3/3 218/3/3 217/3/3
f 222/3/3 218/3/3 221/3/3
f 225/3/3 220/3/3 219/3/3
f 226/3/3 220/3/3 225/3/3
f 227/3/3 223/3/3 222/3/3
f 228/3/3 223/3/3 227/3/3
f 231/3/3 225/3/3 224/3/3
f 232/3/3 225/3/3 231/3/3
f 233/3/3 229/3/3 228/3/3
f 234/3/3 229/3/3 233/3/3
f 235/3/3 231/3/3 230/3/3
f 236/3/3 231/3/3 235/3/3
f 237/3/4 238/3/4 242/3/4
f 242/3/4 238/3/4 243/3/4
f 239/3/4 240/3/4 244/3/4
f 244/3/4 240/3/4 245/3/4
f 241/3/4 242/3/4 248/3/4
f 248/3/4 242/3/4 249/3/4
f 245/3/4 246/3/4 250/3/4
f 250/3/4 246/3/4 251/3/4
f 247/3/4 248/3/4 253/3/4
f 253/3/4 248/3/4 254/3/4
f 251/3/4 252/3/4 255/3/4
f 255/3/4 252/3/4 256/3/4
f 257/3/4 258/3/4 261/3/4
f 261/3/4 258/3/4 262/3/4
f 259/3/4 260/3/4 265/3/4
f 265/3/4 260/3/4 266/3/4
f 262/3/4 263/3/4 267/3/4
f 267/3/4 263/3/4 268/3/4
f 264/3/4 265/3/4 271/3/4
f 271/3/4 265/3/4 272/3/4
f 268/3/4 269/3/4 273/3/4
f 273/3/4 269/3/4 274/3/4
f 270/3/4 271/3/4 275/3/4
f 275/3/4 271/3/4 276/3/4
f 277/3/4 278/3/4 280/3/4
f 280/3/4 278/3/4 281/3/4
f 281/3/4 278/3/4 282/3/4
f 282/3/4 278/3/4 283/3/4
f 279/3/4 280/3/4 286/3/4
f 280/1/4 281/1/4 287/1/4
f 286/3/4 280/3/4 287/3/4
f 281/4/4 282/4/4 288/4/4
f 287/1/4 281/1/4 288/1/4
f 282/1/4 283/1/4 289/1/4
f 288/4/4 282/4/4 289/4/4
f 283/3/4 284/3/4 290/3/4
f 289/1/4 283/1/4 290/1/4
f 290/3/4 284/3/4 291/3/4
f 285/3/4 286/3/4 294/3/4
f 288/1/4 289/1/4 295/1/4
f 286/1/4 287/1/4 295/1/4
f 294/3/4 286/3/4 295/3/4
f 287/1/4 288/1/4 295/1/4
f 295/1/4 289/1/4 296/1/4
f 289/2/4 290/2/4 297/2/4
f 296/1/4 289/1/4 297/1/4
f 290/4/4 291/4/4 298/4/4
f 297/2/4 290/2/4 298/2/4
f 291/3/4 292/3/4 299/3/4
f 298/4/4 291/4/4 299/4/4
f 299/3/4 292/3/4 300/3/4
f 295/1/4 296/1/4 302/1/4
f 294/1/4 295/1/4 302/1/4
f 302/1/4 296/1/4 303/1/4
f 296/2/4 297/2/4 304/2/4
f 303/1/4 296/1/4 304/1/4
f 297/1/4 298/1/4 305/1/4
f 304/2/4 297/2/4 305/2/4
f 299/1/4 300/1/4 305/1/4
f 298/1/4 299/1/4 305/1/4
f 305/1/4 300/1/4 306/1/4
f 300/3/4 301/3/4 307/3/4
f 306/1/4 300/1/4 307/1/4
f 303/2/4 304/2/4 308/2/4
f 302/4/4 303/4/4 308/4/4
f 305/1/4 306/1/4 309/1/4
f 308/2/4 304/2/4 309/2/4
f 304/1/4 305/1/4 309/1/4
f 302/4/4 308/4/4 310/4/4
f 294/1/4 302/1/4 310/1/4
f 308/4/4 309/4/4 310/4/4
f 309/1/4 306/1/4 311/1/4
f 310/4/4 309/4/4 311/4/4
f 306/4/4 307/4/4 312/4/4
f 311/1/4 306/1/4 312/1/4
f 307/3/4 301/3/4 313/3/4
f 312/4/4 307/4/4 313/4/4
f 293/3/4 294/3/4 314/3/4
f 311/1/4 312/1/4 315/1/4
f 314/3/4 294/3/4 315/3/4
f 310/1/4 311/1/4 315/1/4
f 312/1/4 313/1/4 315/1/4
f 294/1/4 310/1/4 315/1/4
f 315/1/4 313/1/4 316/1/4
f 316/1/4 313/1/4 317/1/4
f 317/1/4 313/1/4 318/1/4
f 313/3/4 301/3/4 319/3/4
f 318/1/4 313/1/4 319/1/4
f 319/3/4 301/3/4 320/3/4
f 315/3/4 316/3/4 321/3/4
f 316/1/4 317/1/4 322/1/4
f 321/3/4 316/3/4 322/3/4
f 322/1/4 317/1/4 323/1/4
f 323/1/4 317/1/4 324/1/4
f 324/1/4 317/1/4 325/1/4
f 317/4/4 318/4/4 326/4/4
f 325/1/4 317/1/4 326/1/4
f 318/3/4 319/3/4 327/3/4
f 326/4/4 318/4/4 327/4/4
f 327/3/4 319/3/4 328/3/4
f 322/3/4 323/3/4 329/3/4
f 323/1/4 324/1/4 330/1/4
f 329/3/4 323/3/4 330/3/4
f 324/4/4 325/4/4 331/4/4
f 330/1/4 324/1/4 331/1/4
f 325/1/4 326/1/4 332/1/4
f 331/4/4 325/4/4 332/4/4
f 326/3/4 327/3/4 333/3/4
f 332/1/4 326/1/4 333/1/4
f 333/3/4 327/3/4 334/3/4
f 330/3/4 331/3/4 335/3/4
f 332/3/4 333/3/4 335/3/4
f 331/3/4 332/3/4 335/3/4
f 335/3/4 333/3/4 336/3/4
f 340/3/5 338/3/5 337/3/5
f 341/3/5 338/3/5 340/3/5
f 343/3/5 340/3/5 339/3/5
f 343/3/5 342/3/5 341/3/5
f 343/3/5 341/3/5 340/3/5
f 344/3/5 342/3/5 343/3/5
f 345/3/5 342/3/5 344/3/5
f 346/3/5 342/3/5 345/3/5
f 347/3/5 345/3/5 344/3/5
f 348/3/5 345/3/5 347/3/5
f 354/3/5 350/3/5 349/3/5
f 355/3/5 350/3/5 354/3/5
f 356/3/5 352/3/5 351/3/5
f 357/3/5 352/3/5 356/3/5
f 359/3/5 354/3/5 353/3/5
f 360/3/5 354/3/5 359/3/5
f 363/3/5 358/3/5 357/3/5
f 364/3/5 358/3/5 363/3/5
f 365/3/5 361/3/5 360/3/5
f 366/3/5 361/3/5 365/3/5
f 367/3/5 363/3/5 362/3/5
f 368/3/5 363/3/5 367/3/5
f 374/3/5 370/3/5 369/3/5
f 375/3/5 370/3/5 374/3/5
f 376/3/5 372/3/5 371/3/5
f 377/3/5 372/3/5 376/3/5
f 379/3/5 374/3/5 373/3/5
f 380/3/5 374/3/5 379/3/5
f 383/3/5 378/3/5 377/3/5
f 384/3/5 378/3/5 383/3/5
f 385/3/5 381/3/5 380/3/5
f 386/3/5 381/3/5 385/3/5
f 387/3/5 383/3/5 382/3/5
f 388/3/5 383/3/5 387/3/5
f 393/3/5 390/3/5 389/3/5
f 394/3/5 390/3/5 393/3/5
f 395/3/5 392/3/5 391/3/5
f 396/3/5 392/3/5 395/3/5
f 401/3/5 398/3/5 397/3/5
f 402/3/5 398/3/5 401/3/5
f 403/3/5 400/3/5 399/3/5
f 404/3/5 400/3/5 403/3/5
f 405/3/6 406/3/6 409/3/6
f 409/3/6 406/3/6 410/3/6
f 407/3/6 408/3/6 411/3/6
f 411/3/6 408/3/6 412/3/6
f 413/3/6 414/3/6 417/3/6
f 417/3/6 414/3/6 418/3/6
f 415/3/6 416/3/6 419/3/6
f 419/3/6 416/3/6 420/3/6
f 421/3/6 422/3/6 426/3/6
f 426/3/6 422/3/6 427/3/6
f 423/3/6 424/3/6 428/3/6
f 428/3/6 424/3/6 429/3/6
f 425/3/6 426/3/6 431/3/6
f 431/3/6 426/3/6 432/3/6
f 429/3/6 430/3/6 435/3/6
f 435/3/6 430/3/6 436/3/6
f 432/3/6 433/3/6 437/3/6
f 437/3/6 433/3/6 438/3/6
f 434/3/6 435/3/6 439/3/6
f 439/3/6 435/3/6 440/3/6
f 441/3/6 442/3/6 446/3/6
f 446/3/6 442/3/6 447/3/6
f 443/3/6 444/3/6 448/3/6
f 448/3/6 444/3/6 449/3/6
f 445/3/6 446/3/6 451/3/6
f 451/3/6 446/3/6 452/3/6
f 449/3/6 450/3/6 455/3/6
f 455/3/6 450/3/6 456/3/6
f 452/3/6 453/3/6 457/3/6
f 457/3/6 453/3/6 458/3/6
f 454/3/6 455/3/6 459/3/6
f 459/3/6 455/3/6 460/3/6
f 461/3/6 462/3/6 464/3/6
f 464/3/6 462/3/6 465/3/6
f 463/3/6 464/3/6 467/3/6
f 465/3/6 466/3/6 467/3/6
f 464/3/6 465/3/6 467/3/6
f 467/3/6 466/3/6 468/3/6
f 468/3/6 466/3/6 469/3/6
f 469/3/6 466/3/6 470/3/6
f 468/3/6 469/3/6 471/3/6
f 471/3/6 469/3/6 472/3/6
