# MagicaVoxel @ Ephtracy

# group
o 

# material
mtllib calosc-5.mtl
usemtl palette

# normals
vn 1 0 0
vn -1 0 0
vn 0 0 -1
vn 0 0 1
vn 0 -1 0
vn 0 1 0

# texcoords
vt 0.0175781 0.5
vt 0.974609 0.5
vt 0.982422 0.5

# verts
v 6.9 0.1 9.8
v 6.9 0.1 9.9
v 6.9 4.2 9.8
v 6.9 4.2 9.9
v 6.9 4.6 9.8
v 6.9 4.6 9.9
v 6.5 4.5 9.7
v 6.5 4.5 9.8
v 6.5 4.5 9.9
v 6.5 4.5 10
v 6.5 4.6 9.7
v 6.5 4.6 9.8
v 6.5 4.6 9.9
v 6.5 4.6 10
v 6.4 4.4 9.8
v 6.4 4.4 9.9
v 6.4 4.5 9.8
v 6.4 4.5 9.9
v 6.8 0.1 9.8
v 6.8 0.1 9.9
v 6.8 4.2 9.8
v 6.8 4.2 9.9
v 6.8 4.5 9.8
v 6.8 4.5 9.9
v 6.3 4.4 9.8
v 6.3 4.4 9.9
v 6.3 4.5 9.8
v 6.3 4.5 9.9
v 6.2 4.5 9.7
v 6.2 4.5 10
v 6.2 4.6 9.7
v 6.2 4.6 10
v 6.5 4.5 9.7
v 6.5 4.6 9.7
v 6.2 4.5 9.7
v 6.2 4.6 9.7
v 6.9 0.1 9.8
v 6.9 4.2 9.8
v 6.9 4.6 9.8
v 6.8 0.1 9.8
v 6.8 4.2 9.8
v 6.8 4.5 9.8
v 6.5 4.5 9.8
v 6.5 4.6 9.8
v 6.4 4.4 9.8
v 6.4 4.5 9.8
v 6.3 4.4 9.8
v 6.3 4.5 9.8
v 6.9 0.1 9.9
v 6.9 4.2 9.9
v 6.9 4.6 9.9
v 6.8 0.1 9.9
v 6.8 4.2 9.9
v 6.8 4.5 9.9
v 6.5 4.5 9.9
v 6.5 4.6 9.9
v 6.4 4.4 9.9
v 6.4 4.5 9.9
v 6.3 4.4 9.9
v 6.3 4.5 9.9
v 6.5 4.5 10
v 6.5 4.6 10
v 6.2 4.5 10
v 6.2 4.6 10
v 6.9 0.1 9.8
v 6.8 0.1 9.8
v 6.9 0.1 9.9
v 6.8 0.1 9.9
v 6.4 4.4 9.8
v 6.3 4.4 9.8
v 6.4 4.4 9.9
v 6.3 4.4 9.9
v 6.5 4.5 9.7
v 6.2 4.5 9.7
v 6.8 4.5 9.8
v 6.5 4.5 9.8
v 6.4 4.5 9.8
v 6.3 4.5 9.8
v 6.8 4.5 9.9
v 6.5 4.5 9.9
v 6.4 4.5 9.9
v 6.3 4.5 9.9
v 6.5 4.5 10
v 6.2 4.5 10
v 6.5 4.6 9.7
v 6.2 4.6 9.7
v 6.9 4.6 9.8
v 6.5 4.6 9.8
v 6.9 4.6 9.9
v 6.5 4.6 9.9
v 6.5 4.6 10
v 6.2 4.6 10

# faces
f 3/2/1 2/2/1 1/2/1
f 4/2/1 2/2/1 3/2/1
f 5/3/1 4/3/1 3/3/1
f 6/3/1 4/3/1 5/3/1
f 11/3/1 8/3/1 7/3/1
f 12/3/1 8/3/1 11/3/1
f 13/3/1 10/3/1 9/3/1
f 14/3/1 10/3/1 13/3/1
f 17/1/1 16/1/1 15/1/1
f 18/1/1 16/1/1 17/1/1
f 19/2/2 20/2/2 21/2/2
f 21/2/2 20/2/2 22/2/2
f 21/3/2 22/3/2 23/3/2
f 23/3/2 22/3/2 24/3/2
f 25/1/2 26/1/2 27/1/2
f 27/1/2 26/1/2 28/1/2
f 29/3/2 30/3/2 31/3/2
f 31/3/2 30/3/2 32/3/2
f 35/3/3 34/3/3 33/3/3
f 36/3/3 34/3/3 35/3/3
f 40/2/3 38/2/3 37/2/3
f 41/3/3 39/3/3 38/3/3
f 41/2/3 38/2/3 40/2/3
f 42/3/3 39/3/3 41/3/3
f 43/3/3 39/3/3 42/3/3
f 44/3/3 39/3/3 43/3/3
f 47/1/3 46/1/3 45/1/3
f 48/1/3 46/1/3 47/1/3
f 49/2/4 50/2/4 52/2/4
f 50/3/4 51/3/4 53/3/4
f 52/2/4 50/2/4 53/2/4
f 53/3/4 51/3/4 54/3/4
f 54/3/4 51/3/4 55/3/4
f 55/3/4 51/3/4 56/3/4
f 57/1/4 58/1/4 59/1/4
f 59/1/4 58/1/4 60/1/4
f 61/3/4 62/3/4 63/3/4
f 63/3/4 62/3/4 64/3/4
f 67/2/5 66/2/5 65/2/5
f 68/2/5 66/2/5 67/2/5
f 71/1/5 70/1/5 69/1/5
f 72/1/5 70/1/5 71/1/5
f 76/3/5 74/3/5 73/3/5
f 77/3/5 74/3/5 76/3/5
f 78/3/5 74/3/5 77/3/5
f 79/3/5 76/3/5 75/3/5
f 79/3/5 77/3/5 76/3/5
f 80/3/5 77/3/5 79/3/5
f 81/3/5 77/3/5 80/3/5
f 82/3/5 74/3/5 78/3/5
f 83/3/5 81/3/5 80/3/5
f 83/3/5 82/3/5 81/3/5
f 84/3/5 74/3/5 82/3/5
f 84/3/5 82/3/5 83/3/5
f 85/3/6 86/3/6 88/3/6
f 87/3/6 88/3/6 89/3/6
f 88/3/6 86/3/6 90/3/6
f 89/3/6 88/3/6 90/3/6
f 90/3/6 86/3/6 91/3/6
f 91/3/6 86/3/6 92/3/6
