# Blender 4.2.3 LTS
# www.blender.org
mtllib Untitled.096.mtl
o Untitled.096
v -0.519138 0.000000 0.133154
v -0.519138 0.000000 0.033154
v -0.519138 0.100000 0.133154
v -0.519138 0.100000 0.033154
v -0.419137 0.000000 0.233154
v -0.419137 0.000000 0.133154
v -0.419137 0.100000 0.233154
v -0.419137 0.100000 0.133154
v -0.319137 0.000000 0.433154
v -0.319137 0.000000 0.233154
v -0.319137 0.000000 0.033154
v -0.319137 0.000000 -0.066846
v -0.319137 0.000000 -0.166846
v -0.319137 0.000000 -0.266846
v -0.319137 0.100000 0.433154
v -0.319137 0.100000 0.233154
v -0.319137 0.100000 0.133154
v -0.319137 0.100000 0.033154
v -0.319137 0.100000 -0.066846
v -0.319137 0.100000 -0.166846
v -0.319137 0.100000 -0.266846
v -0.319137 0.200000 0.233154
v -0.319137 0.200000 0.133154
v -0.319137 0.200000 0.033154
v -0.219137 0.000000 0.533154
v -0.219137 0.000000 0.433154
v -0.219137 0.000000 -0.066846
v -0.219137 0.000000 -0.166846
v -0.219137 0.000000 -0.266846
v -0.219137 0.000000 -0.366846
v -0.219137 0.100000 0.533154
v -0.219137 0.100000 0.433154
v -0.219137 0.100000 0.333154
v -0.219137 0.100000 0.233154
v -0.219137 0.100000 0.033154
v -0.219137 0.100000 -0.066846
v -0.219137 0.100000 -0.166846
v -0.219137 0.100000 -0.266846
v -0.219137 0.100000 -0.366846
v -0.219137 0.200000 0.333154
v -0.219137 0.200000 0.233154
v -0.219137 0.200000 0.033154
v -0.219137 0.200000 -0.066846
v -0.119137 0.100000 -0.066846
v -0.119137 0.100000 -0.266846
v -0.119137 0.200000 -0.066846
v -0.119137 0.200000 -0.266846
v -0.019137 0.000000 -0.366846
v -0.019137 0.000000 -0.466846
v -0.019137 0.100000 -0.366846
v -0.019137 0.100000 -0.466846
v 0.380863 0.000000 -0.166846
v 0.380863 0.000000 -0.266846
v 0.380863 0.100000 -0.166846
v 0.380863 0.100000 -0.266846
v 0.480863 0.000000 -0.066846
v 0.480863 0.000000 -0.166846
v 0.480863 0.000000 -0.266846
v 0.480863 0.000000 -0.366846
v 0.480863 0.100000 -0.066846
v 0.480863 0.100000 -0.166846
v 0.480863 0.100000 -0.266846
v 0.480863 0.100000 -0.366846
v -0.119137 0.000000 0.533154
v -0.119137 0.000000 0.433154
v -0.119137 0.100000 0.533154
v -0.119137 0.100000 0.433154
v -0.119137 0.100000 0.333154
v -0.119137 0.100000 0.233154
v -0.119137 0.200000 0.333154
v -0.119137 0.200000 0.233154
v -0.019137 0.000000 0.433154
v -0.019137 0.000000 0.333154
v -0.019137 0.100000 0.433154
v -0.019137 0.100000 0.333154
v 0.080862 0.000000 -0.266846
v 0.080862 0.000000 -0.466846
v 0.080862 0.100000 0.233154
v 0.080862 0.100000 0.133154
v 0.080862 0.100000 -0.166846
v 0.080862 0.100000 -0.266846
v 0.080862 0.100000 -0.466846
v 0.080862 0.200000 0.233154
v 0.080862 0.200000 0.133154
v 0.080862 0.200000 -0.166846
v 0.080862 0.200000 -0.266846
v 0.180863 0.000000 0.333154
v 0.180863 0.000000 0.233154
v 0.180863 0.000000 0.133154
v 0.180863 0.000000 -0.166846
v 0.180863 0.000000 -0.266846
v 0.180863 0.100000 0.333154
v 0.180863 0.100000 0.233154
v 0.180863 0.100000 0.133154
v 0.180863 0.100000 0.033154
v 0.180863 0.100000 -0.166846
v 0.180863 0.100000 -0.266846
v 0.180863 0.200000 0.133154
v 0.180863 0.200000 0.033154
v 0.180863 0.200000 -0.166846
v 0.280863 0.000000 0.133154
v 0.280863 0.000000 -0.166846
v 0.280863 0.100000 0.133154
v 0.280863 0.100000 -0.166846
v 0.580863 0.000000 -0.066846
v 0.580863 0.000000 -0.166846
v 0.580863 0.000000 -0.266846
v 0.580863 0.100000 -0.066846
v 0.580863 0.100000 -0.166846
v 0.580863 0.100000 -0.266846
v 0.680863 0.000000 -0.266846
v 0.680863 0.000000 -0.366846
v 0.680863 0.100000 -0.266846
v 0.680863 0.100000 -0.366846
v -0.219137 0.000000 0.533154
v -0.219137 0.100000 0.533154
v -0.119137 0.000000 0.533154
v -0.119137 0.100000 0.533154
v -0.319137 0.000000 0.433154
v -0.319137 0.100000 0.433154
v -0.219137 0.000000 0.433154
v -0.219137 0.100000 0.433154
v -0.119137 0.000000 0.433154
v -0.119137 0.100000 0.433154
v -0.019137 0.000000 0.433154
v -0.019137 0.100000 0.433154
v -0.219137 0.100000 0.333154
v -0.219137 0.200000 0.333154
v -0.119137 0.100000 0.333154
v -0.119137 0.200000 0.333154
v -0.019137 0.000000 0.333154
v -0.019137 0.100000 0.333154
v 0.080862 0.000000 0.333154
v 0.080862 0.100000 0.333154
v 0.180863 0.000000 0.333154
v 0.180863 0.100000 0.333154
v -0.419137 0.000000 0.233154
v -0.419137 0.100000 0.233154
v -0.319137 0.000000 0.233154
v -0.319137 0.100000 0.233154
v -0.319137 0.200000 0.233154
v -0.219137 0.100000 0.233154
v -0.219137 0.200000 0.233154
v -0.119137 0.100000 0.233154
v -0.119137 0.200000 0.233154
v -0.019137 0.100000 0.233154
v -0.019137 0.200000 0.233154
v 0.080862 0.100000 0.233154
v 0.080862 0.200000 0.233154
v -0.519138 0.000000 0.133154
v -0.519138 0.100000 0.133154
v -0.419137 0.000000 0.133154
v -0.419137 0.100000 0.133154
v 0.080862 0.100000 0.133154
v 0.080862 0.200000 0.133154
v 0.180863 0.000000 0.133154
v 0.180863 0.100000 0.133154
v 0.180863 0.200000 0.133154
v 0.280863 0.000000 0.133154
v 0.280863 0.100000 0.133154
v 0.480863 0.000000 -0.066846
v 0.480863 0.100000 -0.066846
v 0.580863 0.000000 -0.066846
v 0.580863 0.100000 -0.066846
v -0.319137 0.000000 -0.166846
v -0.319137 0.100000 -0.166846
v -0.219137 0.000000 -0.166846
v -0.219137 0.100000 -0.166846
v 0.380863 0.000000 -0.166846
v 0.380863 0.100000 -0.166846
v 0.480863 0.000000 -0.166846
v 0.480863 0.100000 -0.166846
v 0.580863 0.000000 -0.266846
v 0.580863 0.100000 -0.266846
v 0.680863 0.000000 -0.266846
v 0.680863 0.100000 -0.266846
v -0.519138 0.000000 0.033154
v -0.519138 0.100000 0.033154
v -0.419137 0.000000 0.033154
v -0.419137 0.100000 0.033154
v -0.319137 0.000000 0.033154
v -0.319137 0.100000 0.033154
v -0.319137 0.200000 0.033154
v -0.219137 0.100000 0.033154
v -0.219137 0.200000 0.033154
v -0.319137 0.000000 -0.066846
v -0.319137 0.100000 -0.066846
v -0.219137 0.000000 -0.066846
v -0.219137 0.100000 -0.066846
v -0.219137 0.200000 -0.066846
v -0.119137 0.100000 -0.066846
v -0.119137 0.200000 -0.066846
v 0.080862 0.100000 -0.166846
v 0.080862 0.200000 -0.166846
v 0.180863 0.000000 -0.166846
v 0.180863 0.100000 -0.166846
v 0.180863 0.200000 -0.166846
v 0.280863 0.000000 -0.166846
v 0.280863 0.100000 -0.166846
v -0.319137 0.000000 -0.266846
v -0.319137 0.100000 -0.266846
v -0.219137 0.000000 -0.266846
v -0.219137 0.100000 -0.266846
v -0.119137 0.100000 -0.266846
v -0.119137 0.200000 -0.266846
v -0.019137 0.100000 -0.266846
v -0.019137 0.200000 -0.266846
v 0.080862 0.000000 -0.266846
v 0.080862 0.100000 -0.266846
v 0.080862 0.200000 -0.266846
v 0.180863 0.000000 -0.266846
v 0.180863 0.100000 -0.266846
v 0.380863 0.000000 -0.266846
v 0.380863 0.100000 -0.266846
v 0.480863 0.000000 -0.266846
v 0.480863 0.100000 -0.266846
v -0.219137 0.000000 -0.366846
v -0.219137 0.100000 -0.366846
v -0.119137 0.000000 -0.366846
v -0.119137 0.100000 -0.366846
v -0.019137 0.000000 -0.366846
v -0.019137 0.100000 -0.366846
v 0.480863 0.000000 -0.366846
v 0.480863 0.100000 -0.366846
v 0.680863 0.000000 -0.366846
v 0.680863 0.100000 -0.366846
v -0.019137 0.000000 -0.466846
v -0.019137 0.100000 -0.466846
v 0.080862 0.000000 -0.466846
v 0.080862 0.100000 -0.466846
v -0.219137 0.000000 0.533154
v -0.119137 0.000000 0.533154
v -0.319137 0.000000 0.433154
v -0.219137 0.000000 0.433154
v -0.119137 0.000000 0.433154
v -0.019137 0.000000 0.433154
v -0.219137 0.000000 0.333154
v -0.119137 0.000000 0.333154
v -0.019137 0.000000 0.333154
v 0.080862 0.000000 0.333154
v 0.180863 0.000000 0.333154
v -0.419137 0.000000 0.233154
v -0.319137 0.000000 0.233154
v 0.080862 0.000000 0.233154
v 0.180863 0.000000 0.233154
v -0.519138 0.000000 0.133154
v -0.419137 0.000000 0.133154
v -0.319137 0.000000 0.133154
v -0.219137 0.000000 0.133154
v 0.080862 0.000000 0.133154
v 0.180863 0.000000 0.133154
v 0.280863 0.000000 0.133154
v -0.519138 0.000000 0.033154
v -0.419137 0.000000 0.033154
v -0.319137 0.000000 0.033154
v -0.219137 0.000000 0.033154
v -0.319137 0.000000 -0.066846
v -0.219137 0.000000 -0.066846
v -0.119137 0.000000 -0.066846
v -0.019137 0.000000 -0.066846
v 0.080862 0.000000 -0.066846
v 0.480863 0.000000 -0.066846
v 0.580863 0.000000 -0.066846
v -0.319137 0.000000 -0.166846
v -0.219137 0.000000 -0.166846
v 0.080862 0.000000 -0.166846
v 0.180863 0.000000 -0.166846
v 0.280863 0.000000 -0.166846
v 0.380863 0.000000 -0.166846
v 0.480863 0.000000 -0.166846
v 0.580863 0.000000 -0.166846
v -0.319137 0.000000 -0.266846
v -0.219137 0.000000 -0.266846
v -0.119137 0.000000 -0.266846
v 0.080862 0.000000 -0.266846
v 0.180863 0.000000 -0.266846
v 0.380863 0.000000 -0.266846
v 0.480863 0.000000 -0.266846
v 0.580863 0.000000 -0.266846
v 0.680863 0.000000 -0.266846
v -0.219137 0.000000 -0.366846
v -0.119137 0.000000 -0.366846
v -0.019137 0.000000 -0.366846
v 0.480863 0.000000 -0.366846
v 0.680863 0.000000 -0.366846
v -0.019137 0.000000 -0.466846
v 0.080862 0.000000 -0.466846
v -0.219137 0.100000 0.533154
v -0.119137 0.100000 0.533154
v -0.319137 0.100000 0.433154
v -0.219137 0.100000 0.433154
v -0.119137 0.100000 0.433154
v -0.019137 0.100000 0.433154
v -0.219137 0.100000 0.333154
v -0.119137 0.100000 0.333154
v -0.019137 0.100000 0.333154
v 0.080862 0.100000 0.333154
v 0.180863 0.100000 0.333154
v -0.419137 0.100000 0.233154
v -0.319137 0.100000 0.233154
v -0.219137 0.100000 0.233154
v -0.119137 0.100000 0.233154
v -0.019137 0.100000 0.233154
v 0.080862 0.100000 0.233154
v 0.180863 0.100000 0.233154
v -0.519138 0.100000 0.133154
v -0.419137 0.100000 0.133154
v -0.319137 0.100000 0.133154
v 0.080862 0.100000 0.133154
v 0.180863 0.100000 0.133154
v 0.280863 0.100000 0.133154
v -0.519138 0.100000 0.033154
v -0.419137 0.100000 0.033154
v -0.319137 0.100000 0.033154
v -0.219137 0.100000 0.033154
v 0.180863 0.100000 0.033154
v -0.319137 0.100000 -0.066846
v -0.219137 0.100000 -0.066846
v -0.119137 0.100000 -0.066846
v 0.480863 0.100000 -0.066846
v 0.580863 0.100000 -0.066846
v -0.319137 0.100000 -0.166846
v -0.219137 0.100000 -0.166846
v 0.080862 0.100000 -0.166846
v 0.180863 0.100000 -0.166846
v 0.280863 0.100000 -0.166846
v 0.380863 0.100000 -0.166846
v 0.480863 0.100000 -0.166846
v 0.580863 0.100000 -0.166846
v -0.319137 0.100000 -0.266846
v -0.219137 0.100000 -0.266846
v -0.119137 0.100000 -0.266846
v -0.019137 0.100000 -0.266846
v 0.080862 0.100000 -0.266846
v 0.180863 0.100000 -0.266846
v 0.380863 0.100000 -0.266846
v 0.480863 0.100000 -0.266846
v 0.580863 0.100000 -0.266846
v 0.680863 0.100000 -0.266846
v -0.219137 0.100000 -0.366846
v -0.119137 0.100000 -0.366846
v -0.019137 0.100000 -0.366846
v 0.480863 0.100000 -0.366846
v 0.680863 0.100000 -0.366846
v -0.019137 0.100000 -0.466846
v 0.080862 0.100000 -0.466846
v -0.219137 0.200000 0.333154
v -0.119137 0.200000 0.333154
v -0.319137 0.200000 0.233154
v -0.219137 0.200000 0.233154
v -0.119137 0.200000 0.233154
v -0.019137 0.200000 0.233154
v 0.080862 0.200000 0.233154
v -0.319137 0.200000 0.133154
v -0.219137 0.200000 0.133154
v -0.019137 0.200000 0.133154
v 0.080862 0.200000 0.133154
v 0.180863 0.200000 0.133154
v -0.319137 0.200000 0.033154
v -0.219137 0.200000 0.033154
v -0.119137 0.200000 0.033154
v 0.080862 0.200000 0.033154
v 0.180863 0.200000 0.033154
v -0.219137 0.200000 -0.066846
v -0.119137 0.200000 -0.066846
v -0.019137 0.200000 -0.066846
v 0.080862 0.200000 -0.166846
v 0.180863 0.200000 -0.166846
v -0.119137 0.200000 -0.266846
v -0.019137 0.200000 -0.266846
v 0.080862 0.200000 -0.266846
vn -1.0000 -0.0000 -0.0000
vn 1.0000 -0.0000 -0.0000
vn -0.0000 -0.0000 1.0000
vn -0.0000 -0.0000 -1.0000
vn -0.0000 -1.0000 -0.0000
vn -0.0000 1.0000 -0.0000
vt 0.958984 0.500000
vt 0.962891 0.500000
vt 0.966797 0.500000
vt 0.779297 0.500000
s 0
usemtl palette.095
f 3/1/1 2/1/1 1/1/1
f 4/1/1 2/1/1 3/1/1
f 7/1/1 6/1/1 5/1/1
f 8/1/1 6/1/1 7/1/1
f 15/2/1 10/2/1 9/2/1
f 16/2/1 10/2/1 15/2/1
f 18/3/1 12/3/1 11/3/1
f 19/3/1 12/3/1 18/3/1
f 20/4/1 14/4/1 13/4/1
f 21/4/1 14/4/1 20/4/1
f 22/3/1 17/3/1 16/3/1
f 23/1/1 18/1/1 17/1/1
f 23/3/1 17/3/1 22/3/1
f 24/1/1 18/1/1 23/1/1
f 31/2/1 26/2/1 25/2/1
f 32/2/1 26/2/1 31/2/1
f 36/3/1 28/3/1 27/3/1
f 37/3/1 28/3/1 36/3/1
f 38/2/1 30/2/1 29/2/1
f 39/2/1 30/2/1 38/2/1
f 40/1/1 34/1/1 33/1/1
f 41/1/1 34/1/1 40/1/1
f 42/1/1 36/1/1 35/1/1
f 43/1/1 36/1/1 42/1/1
f 46/2/1 45/2/1 44/2/1
f 47/2/1 45/2/1 46/2/1
f 50/3/1 49/3/1 48/3/1
f 51/3/1 49/3/1 50/3/1
f 54/1/1 53/1/1 52/1/1
f 55/1/1 53/1/1 54/1/1
f 60/2/1 57/2/1 56/2/1
f 61/2/1 57/2/1 60/2/1
f 62/1/1 59/1/1 58/1/1
f 63/1/1 59/1/1 62/1/1
f 64/2/2 65/2/2 66/2/2
f 66/2/2 65/2/2 67/2/2
f 68/1/2 69/1/2 70/1/2
f 70/1/2 69/1/2 71/1/2
f 72/1/2 73/1/2 74/1/2
f 74/1/2 73/1/2 75/1/2
f 76/3/2 77/3/2 81/3/2
f 81/3/2 77/3/2 82/3/2
f 78/2/2 79/2/2 83/2/2
f 83/2/2 79/2/2 84/2/2
f 80/1/2 81/1/2 85/1/2
f 85/1/2 81/1/2 86/1/2
f 87/4/2 88/4/2 92/4/2
f 88/3/2 89/3/2 93/3/2
f 92/4/2 88/4/2 93/4/2
f 93/3/2 89/3/2 94/3/2
f 90/3/2 91/3/2 96/3/2
f 96/3/2 91/3/2 97/3/2
f 94/4/2 95/4/2 98/4/2
f 95/1/2 96/1/2 99/1/2
f 98/4/2 95/4/2 99/4/2
f 99/1/2 96/1/2 100/1/2
f 101/2/2 102/2/2 103/2/2
f 103/2/2 102/2/2 104/2/2
f 105/2/2 106/2/2 108/2/2
f 106/1/2 107/1/2 109/1/2
f 108/2/2 106/2/2 109/2/2
f 109/1/2 107/1/2 110/1/2
f 111/1/2 112/1/2 113/1/2
f 113/1/2 112/1/2 114/1/2
f 117/2/3 116/2/3 115/2/3
f 118/2/3 116/2/3 117/2/3
f 121/2/3 120/2/3 119/2/3
f 122/2/3 120/2/3 121/2/3
f 125/1/3 124/1/3 123/1/3
f 126/1/3 124/1/3 125/1/3
f 129/1/3 128/1/3 127/1/3
f 130/1/3 128/1/3 129/1/3
f 133/2/3 132/2/3 131/2/3
f 134/2/3 132/2/3 133/2/3
f 135/4/3 134/4/3 133/4/3
f 136/4/3 134/4/3 135/4/3
f 139/1/3 138/1/3 137/1/3
f 140/1/3 138/1/3 139/1/3
f 142/3/3 141/3/3 140/3/3
f 143/3/3 141/3/3 142/3/3
f 146/1/3 145/1/3 144/1/3
f 147/1/3 145/1/3 146/1/3
f 148/2/3 147/2/3 146/2/3
f 149/2/3 147/2/3 148/2/3
f 152/1/3 151/1/3 150/1/3
f 153/1/3 151/1/3 152/1/3
f 157/4/3 155/4/3 154/4/3
f 158/4/3 155/4/3 157/4/3
f 159/2/3 157/2/3 156/2/3
f 160/2/3 157/2/3 159/2/3
f 163/2/3 162/2/3 161/2/3
f 164/2/3 162/2/3 163/2/3
f 167/4/3 166/4/3 165/4/3
f 168/4/3 166/4/3 167/4/3
f 171/1/3 170/1/3 169/1/3
f 172/1/3 170/1/3 171/1/3
f 175/1/3 174/1/3 173/1/3
f 176/1/3 174/1/3 175/1/3
f 177/1/4 178/1/4 179/1/4
f 179/1/4 178/1/4 180/1/4
f 179/3/4 180/3/4 181/3/4
f 181/3/4 180/3/4 182/3/4
f 182/1/4 183/1/4 184/1/4
f 184/1/4 183/1/4 185/1/4
f 186/3/4 187/3/4 188/3/4
f 188/3/4 187/3/4 189/3/4
f 189/1/4 190/1/4 191/1/4
f 191/1/4 190/1/4 192/1/4
f 193/1/4 194/1/4 196/1/4
f 196/1/4 194/1/4 197/1/4
f 195/2/4 196/2/4 198/2/4
f 198/2/4 196/2/4 199/2/4
f 200/4/4 201/4/4 202/4/4
f 202/4/4 201/4/4 203/4/4
f 204/2/4 205/2/4 206/2/4
f 206/2/4 205/2/4 207/2/4
f 206/1/4 207/1/4 209/1/4
f 209/1/4 207/1/4 210/1/4
f 208/3/4 209/3/4 211/3/4
f 211/3/4 209/3/4 212/3/4
f 213/1/4 214/1/4 215/1/4
f 215/1/4 214/1/4 216/1/4
f 217/2/4 218/2/4 219/2/4
f 219/2/4 218/2/4 220/2/4
f 219/1/4 220/1/4 221/1/4
f 221/1/4 220/1/4 222/1/4
f 223/1/4 224/1/4 225/1/4
f 225/1/4 224/1/4 226/1/4
f 227/3/4 228/3/4 229/3/4
f 229/3/4 228/3/4 230/3/4
f 234/2/5 232/2/5 231/2/5
f 235/2/5 232/2/5 234/2/5
f 237/2/5 234/2/5 233/2/5
f 237/2/5 235/2/5 234/2/5
f 238/1/5 236/1/5 235/1/5
f 238/2/5 235/2/5 237/2/5
f 239/1/5 236/1/5 238/1/5
f 243/2/5 237/2/5 233/2/5
f 244/4/5 241/4/5 240/4/5
f 244/2/5 240/2/5 239/2/5
f 245/4/5 241/4/5 244/4/5
f 247/1/5 243/1/5 242/1/5
f 248/2/5 237/2/5 243/2/5
f 248/1/5 243/1/5 247/1/5
f 249/1/5 238/1/5 237/1/5
f 249/2/5 237/2/5 248/2/5
f 249/1/5 239/1/5 238/1/5
f 250/2/5 244/2/5 239/2/5
f 250/3/5 245/3/5 244/3/5
f 251/3/5 245/3/5 250/3/5
f 253/1/5 247/1/5 246/1/5
f 254/3/5 248/3/5 247/3/5
f 254/1/5 247/1/5 253/1/5
f 255/1/5 249/1/5 248/1/5
f 255/3/5 248/3/5 254/3/5
f 256/1/5 239/1/5 249/1/5
f 256/1/5 249/1/5 255/1/5
f 257/3/5 256/3/5 255/3/5
f 258/1/5 239/1/5 256/1/5
f 258/3/5 256/3/5 257/3/5
f 259/1/5 239/1/5 258/1/5
f 260/2/5 251/2/5 250/2/5
f 260/1/5 239/1/5 259/1/5
f 260/2/5 252/2/5 251/2/5
f 260/2/5 250/2/5 239/2/5
f 261/2/5 252/2/5 260/2/5
f 265/3/5 259/3/5 258/3/5
f 266/2/5 252/2/5 261/2/5
f 266/3/5 261/3/5 260/3/5
f 267/2/5 252/2/5 266/2/5
f 268/2/5 252/2/5 267/2/5
f 270/2/5 263/2/5 262/2/5
f 271/2/5 263/2/5 270/2/5
f 272/4/5 265/4/5 264/4/5
f 273/3/5 259/3/5 265/3/5
f 273/4/5 265/4/5 272/4/5
f 274/1/5 260/1/5 259/1/5
f 274/3/5 259/3/5 273/3/5
f 275/3/5 266/3/5 260/3/5
f 275/3/5 267/3/5 266/3/5
f 276/3/5 267/3/5 275/3/5
f 277/1/5 271/1/5 270/1/5
f 277/1/5 270/1/5 269/1/5
f 278/1/5 271/1/5 277/1/5
f 279/1/5 271/1/5 278/1/5
f 281/2/5 274/2/5 273/2/5
f 282/1/5 260/1/5 274/1/5
f 282/2/5 274/2/5 281/2/5
f 283/3/5 275/3/5 260/3/5
f 283/1/5 260/1/5 282/1/5
f 284/1/5 279/1/5 278/1/5
f 284/1/5 280/1/5 279/1/5
f 285/1/5 280/1/5 284/1/5
f 286/3/5 275/3/5 283/3/5
f 287/3/5 275/3/5 286/3/5
f 288/2/6 289/2/6 291/2/6
f 291/2/6 289/2/6 292/2/6
f 290/2/6 291/2/6 294/2/6
f 291/2/6 292/2/6 294/2/6
f 292/1/6 293/1/6 295/1/6
f 294/2/6 292/2/6 295/2/6
f 295/1/6 293/1/6 296/1/6
f 290/2/6 294/2/6 300/2/6
f 300/2/6 294/2/6 301/2/6
f 295/1/6 296/1/6 302/1/6
f 296/2/6 297/2/6 303/2/6
f 302/1/6 296/1/6 303/1/6
f 297/4/6 298/4/6 304/4/6
f 303/2/6 297/2/6 304/2/6
f 304/4/6 298/4/6 305/4/6
f 299/1/6 300/1/6 307/1/6
f 307/1/6 300/1/6 308/1/6
f 304/3/6 305/3/6 309/3/6
f 309/3/6 305/3/6 310/3/6
f 306/1/6 307/1/6 312/1/6
f 307/3/6 308/3/6 313/3/6
f 312/1/6 307/1/6 313/1/6
f 313/3/6 308/3/6 314/3/6
f 310/2/6 311/2/6 316/2/6
f 314/3/6 315/3/6 317/3/6
f 317/3/6 315/3/6 318/3/6
f 318/3/6 319/3/6 323/3/6
f 316/2/6 311/2/6 325/2/6
f 325/2/6 311/2/6 326/2/6
f 320/2/6 321/2/6 328/2/6
f 328/2/6 321/2/6 329/2/6
f 322/4/6 323/4/6 330/4/6
f 323/3/6 319/3/6 331/3/6
f 330/4/6 323/4/6 331/4/6
f 331/3/6 319/3/6 332/3/6
f 324/3/6 325/3/6 334/3/6
f 334/3/6 325/3/6 335/3/6
f 328/1/6 329/1/6 336/1/6
f 327/1/6 328/1/6 336/1/6
f 336/1/6 329/1/6 337/1/6
f 337/1/6 329/1/6 338/1/6
f 331/2/6 332/2/6 340/2/6
f 332/1/6 333/1/6 341/1/6
f 340/2/6 332/2/6 341/2/6
f 333/3/6 334/3/6 342/3/6
f 341/1/6 333/1/6 342/1/6
f 337/1/6 338/1/6 343/1/6
f 338/1/6 339/1/6 343/1/6
f 343/1/6 339/1/6 344/1/6
f 342/3/6 334/3/6 345/3/6
f 345/3/6 334/3/6 346/3/6
f 347/1/6 348/1/6 350/1/6
f 350/1/6 348/1/6 351/1/6
f 349/3/6 350/3/6 354/3/6
f 350/3/6 351/3/6 354/3/6
f 354/3/6 351/3/6 355/3/6
f 352/2/6 353/2/6 356/2/6
f 351/1/6 352/1/6 356/1/6
f 356/2/6 353/2/6 357/2/6
f 354/1/6 355/1/6 359/1/6
f 355/3/6 351/3/6 360/3/6
f 359/1/6 355/1/6 360/1/6
f 351/1/6 356/1/6 361/1/6
f 360/3/6 351/3/6 361/3/6
f 356/1/6 357/1/6 361/1/6
f 357/4/6 358/4/6 362/4/6
f 361/1/6 357/1/6 362/1/6
f 362/4/6 358/4/6 363/4/6
f 360/1/6 361/1/6 364/1/6
f 362/1/6 363/1/6 364/1/6
f 361/1/6 362/1/6 364/1/6
f 364/1/6 363/1/6 365/1/6
f 365/1/6 363/1/6 366/1/6
f 366/1/6 363/1/6 367/1/6
f 367/1/6 363/1/6 368/1/6
f 365/2/6 366/2/6 369/2/6
f 366/1/6 367/1/6 370/1/6
f 369/2/6 366/2/6 370/2/6
f 370/1/6 367/1/6 371/1/6
