# MagicaVoxel @ Ephtracy

# group
o 

# material
mtllib 1.mtl
usemtl palette

# normals
vn -1 0 0
vn 1 0 0
vn 0 0 1
vn 0 0 -1
vn 0 -1 0
vn 0 1 0

# texcoords
vt 0.857422 0.5
vt 0.861328 0.5
vt 0.865234 0.5

# verts
v -0.7 0 -0.8
v -0.7 0 -1
v -0.7 0.2 -0.8
v -0.7 0.2 -1
v -0.6 0 -0.6
v -0.6 0 -0.7
v -0.6 0 -0.8
v -0.6 0 -1
v -0.6 0 -1.1
v -0.6 0.2 -0.6
v -0.6 0.2 -0.7
v -0.6 0.2 -0.8
v -0.6 0.2 -1
v -0.6 0.2 -1.1
v -0.5 0 -0.5
v -0.5 0 -0.6
v -0.5 0 -1.1
v -0.5 0 -1.2
v -0.5 0.2 -0.5
v -0.5 0.2 -0.6
v -0.5 0.2 -1.1
v -0.5 0.2 -1.2
v -0.4 0 -1.2
v -0.4 0 -1.3
v -0.4 0.2 -1.2
v -0.4 0.2 -1.3
v -0.3 0 -1.3
v -0.3 0 -1.4
v -0.3 0.2 -1.3
v -0.3 0.2 -1.4
v -0.2 0 -1.4
v -0.2 0 -1.5
v -0.2 0.2 -1.4
v -0.2 0.2 -1.5
v -0.1 0 -1.5
v -0.1 0 -1.6
v -0.1 0.2 -1.5
v -0.1 0.2 -1.6
v 0 0 -1.6
v 0 0 -1.7
v 0 0.2 -1.6
v 0 0.2 -1.7
v 0.1 0 -1.7
v 0.1 0 -1.8
v 0.1 0.2 -1.7
v 0.1 0.2 -1.8
v 0.2 0 -1.8
v 0.2 0 -1.9
v 0.2 0.2 -1.8
v 0.2 0.2 -1.9
v 0.3 0 -1.9
v 0.3 0 -2
v 0.3 0.2 -1.9
v 0.3 0.2 -2
v 0.4 0 -2
v 0.4 0 -2.1
v 0.4 0.2 -2
v 0.4 0.2 -2.1
v 0.5 0 -2.1
v 0.5 0 -2.2
v 0.5 0.2 -2.1
v 0.5 0.2 -2.2
v 0.6 0 -2.2
v 0.6 0 -2.3
v 0.6 0.2 -2.2
v 0.6 0.2 -2.3
v 0.7 0 -2.3
v 0.7 0 -2.4
v 0.7 0.2 -2.3
v 0.7 0.2 -2.4
v 0.8 0 -2.4
v 0.8 0 -2.5
v 0.8 0.2 -2.4
v 0.8 0.2 -2.5
v 0.9 0 -2.5
v 0.9 0 -2.6
v 0.9 0.2 -2.5
v 0.9 0.2 -2.6
v 1 0.1 -2.6
v 1 0.1 -2.7
v 1 0.2 -2.6
v 1 0.2 -2.7
v 1.1 0 2.6
v 1.1 0 -1.7
v 1.1 0 -2.6
v 1.1 0 -2.7
v 1.1 0 -2.8
v 1.1 0.1 -2.6
v 1.1 0.1 -2.7
v 1.1 0.2 2.6
v 1.1 0.2 -1.7
v 1.1 0.2 -2.7
v 1.1 0.2 -2.8
v 1.2 0 2.7
v 1.2 0 2.6
v 1.2 0.2 2.7
v 1.2 0.2 2.6
v 1.3 0 2.8
v 1.3 0 2.7
v 1.3 0.2 2.8
v 1.3 0.2 2.7
v -0.1 0 -0.5
v -0.1 0 -0.6
v -0.1 0.2 -0.5
v -0.1 0.2 -0.6
v 0 0 -0.6
v 0 0 -0.7
v 0 0.2 -0.6
v 0 0.2 -0.7
v 0.1 0 -0.7
v 0.1 0 -0.8
v 0.1 0.2 -0.7
v 0.1 0.2 -0.8
v 0.2 0 -0.8
v 0.2 0 -0.9
v 0.2 0.2 -0.8
v 0.2 0.2 -0.9
v 0.3 0 -0.9
v 0.3 0 -1
v 0.3 0.2 -0.9
v 0.3 0.2 -1
v 0.4 0 -1
v 0.4 0 -1.1
v 0.4 0.2 -1
v 0.4 0.2 -1.1
v 0.5 0 -1.1
v 0.5 0 -1.2
v 0.5 0.2 -1.1
v 0.5 0.2 -1.2
v 0.6 0 -1.2
v 0.6 0 -1.3
v 0.6 0.2 -1.2
v 0.6 0.2 -1.3
v 0.7 0 -1.3
v 0.7 0 -1.4
v 0.7 0.2 -1.3
v 0.7 0.2 -1.4
v 0.8 0 -1.4
v 0.8 0 -1.5
v 0.8 0.2 -1.4
v 0.8 0.2 -1.5
v 0.9 0 -1.5
v 0.9 0 -1.6
v 0.9 0.2 -1.5
v 0.9 0.2 -1.6
v 1 0 -1.6
v 1 0 -1.7
v 1 0.2 -1.6
v 1 0.2 -1.7
v 1.7 0 2.8
v 1.7 0 2.7
v 1.7 0 -2.7
v 1.7 0 -2.8
v 1.7 0.2 2.8
v 1.7 0.2 2.7
v 1.7 0.2 -2.7
v 1.7 0.2 -2.8
v 1.8 0 2.7
v 1.8 0 2.6
v 1.8 0 -2.6
v 1.8 0 -2.7
v 1.8 0.2 2.7
v 1.8 0.2 2.6
v 1.8 0.2 -2.6
v 1.8 0.2 -2.7
v 1.9 0 2.6
v 1.9 0 -2.6
v 1.9 0.2 2.6
v 1.9 0.2 -2.6
v 1.3 0 2.8
v 1.3 0.2 2.8
v 1.7 0 2.8
v 1.7 0.2 2.8
v 1.2 0 2.7
v 1.2 0.2 2.7
v 1.3 0 2.7
v 1.3 0.2 2.7
v 1.7 0 2.7
v 1.7 0.2 2.7
v 1.8 0 2.7
v 1.8 0.2 2.7
v 1.1 0 2.6
v 1.1 0.2 2.6
v 1.2 0 2.6
v 1.2 0.2 2.6
v 1.8 0 2.6
v 1.8 0.2 2.6
v 1.9 0 2.6
v 1.9 0.2 2.6
v -0.5 0 -0.5
v -0.5 0.2 -0.5
v -0.1 0 -0.5
v -0.1 0.2 -0.5
v -0.6 0 -0.6
v -0.6 0.2 -0.6
v -0.5 0 -0.6
v -0.5 0.2 -0.6
v -0.1 0 -0.6
v -0.1 0.2 -0.6
v 0 0 -0.6
v 0 0.2 -0.6
v 0 0 -0.7
v 0 0.2 -0.7
v 0.1 0 -0.7
v 0.1 0.2 -0.7
v -0.7 0 -0.8
v -0.7 0.2 -0.8
v -0.6 0 -0.8
v -0.6 0.2 -0.8
v 0.1 0 -0.8
v 0.1 0.2 -0.8
v 0.2 0 -0.8
v 0.2 0.2 -0.8
v 0.2 0 -0.9
v 0.2 0.2 -0.9
v 0.3 0 -0.9
v 0.3 0.2 -0.9
v 0.3 0 -1
v 0.3 0.2 -1
v 0.4 0 -1
v 0.4 0.2 -1
v 0.4 0 -1.1
v 0.4 0.2 -1.1
v 0.5 0 -1.1
v 0.5 0.2 -1.1
v 0.5 0 -1.2
v 0.5 0.2 -1.2
v 0.6 0 -1.2
v 0.6 0.2 -1.2
v 0.6 0 -1.3
v 0.6 0.2 -1.3
v 0.7 0 -1.3
v 0.7 0.2 -1.3
v 0.7 0 -1.4
v 0.7 0.2 -1.4
v 0.8 0 -1.4
v 0.8 0.2 -1.4
v 0.8 0 -1.5
v 0.8 0.2 -1.5
v 0.9 0 -1.5
v 0.9 0.2 -1.5
v 0.9 0 -1.6
v 0.9 0.2 -1.6
v 1 0 -1.6
v 1 0.2 -1.6
v 1 0 -1.7
v 1 0.2 -1.7
v 1.1 0 -1.7
v 1.1 0.2 -1.7
v -0.7 0 -1
v -0.7 0.2 -1
v -0.6 0 -1
v -0.6 0.2 -1
v -0.6 0 -1.1
v -0.6 0.2 -1.1
v -0.5 0 -1.1
v -0.5 0.2 -1.1
v -0.5 0 -1.2
v -0.5 0.2 -1.2
v -0.4 0 -1.2
v -0.4 0.2 -1.2
v -0.4 0 -1.3
v -0.4 0.2 -1.3
v -0.3 0 -1.3
v -0.3 0.2 -1.3
v -0.3 0 -1.4
v -0.3 0.2 -1.4
v -0.2 0 -1.4
v -0.2 0.2 -1.4
v -0.2 0 -1.5
v -0.2 0.2 -1.5
v -0.1 0 -1.5
v -0.1 0.2 -1.5
v -0.1 0 -1.6
v -0.1 0.2 -1.6
v 0 0 -1.6
v 0 0.2 -1.6
v 0 0 -1.7
v 0 0.2 -1.7
v 0.1 0 -1.7
v 0.1 0.2 -1.7
v 0.1 0 -1.8
v 0.1 0.2 -1.8
v 0.2 0 -1.8
v 0.2 0.2 -1.8
v 0.2 0 -1.9
v 0.2 0.2 -1.9
v 0.3 0 -1.9
v 0.3 0.2 -1.9
v 0.3 0 -2
v 0.3 0.2 -2
v 0.4 0 -2
v 0.4 0.2 -2
v 0.4 0 -2.1
v 0.4 0.2 -2.1
v 0.5 0 -2.1
v 0.5 0.2 -2.1
v 0.5 0 -2.2
v 0.5 0.2 -2.2
v 0.6 0 -2.2
v 0.6 0.2 -2.2
v 0.6 0 -2.3
v 0.6 0.2 -2.3
v 0.7 0 -2.3
v 0.7 0.2 -2.3
v 0.7 0 -2.4
v 0.7 0.2 -2.4
v 0.8 0 -2.4
v 0.8 0.2 -2.4
v 0.8 0 -2.5
v 0.8 0.2 -2.5
v 0.9 0 -2.5
v 0.9 0.2 -2.5
v 0.9 0 -2.6
v 0.9 0.2 -2.6
v 1 0 -2.6
v 1 0.1 -2.6
v 1 0.2 -2.6
v 1.1 0 -2.6
v 1.1 0.1 -2.6
v 1.8 0 -2.6
v 1.8 0.2 -2.6
v 1.9 0 -2.6
v 1.9 0.2 -2.6
v 1 0.1 -2.7
v 1 0.2 -2.7
v 1.1 0.1 -2.7
v 1.1 0.2 -2.7
v 1.7 0 -2.7
v 1.7 0.2 -2.7
v 1.8 0 -2.7
v 1.8 0.2 -2.7
v 1.1 0 -2.8
v 1.1 0.2 -2.8
v 1.7 0 -2.8
v 1.7 0.2 -2.8
v 1.3 0 2.8
v 1.7 0 2.8
v 1.2 0 2.7
v 1.3 0 2.7
v 1.7 0 2.7
v 1.8 0 2.7
v 1.1 0 2.6
v 1.2 0 2.6
v 1.3 0 2.6
v 1.7 0 2.6
v 1.8 0 2.6
v 1.9 0 2.6
v 1.2 0 1.7
v 1.3 0 1.7
v -0.5 0 -0.5
v -0.1 0 -0.5
v -0.6 0 -0.6
v -0.5 0 -0.6
v -0.1 0 -0.6
v 0 0 -0.6
v -0.6 0 -0.7
v -0.5 0 -0.7
v -0.1 0 -0.7
v 0 0 -0.7
v 0.1 0 -0.7
v -0.7 0 -0.8
v -0.6 0 -0.8
v -0.1 0 -0.8
v 0 0 -0.8
v 0.1 0 -0.8
v 0.2 0 -0.8
v -0.6 0 -0.9
v -0.5 0 -0.9
v 0 0 -0.9
v 0.1 0 -0.9
v 0.2 0 -0.9
v 0.3 0 -0.9
v -0.7 0 -1
v -0.6 0 -1
v -0.5 0 -1
v 0.1 0 -1
v 0.2 0 -1
v 0.3 0 -1
v 0.4 0 -1
v -0.6 0 -1.1
v -0.5 0 -1.1
v -0.4 0 -1.1
v 0.2 0 -1.1
v 0.3 0 -1.1
v 0.4 0 -1.1
v 0.5 0 -1.1
v -0.5 0 -1.2
v -0.4 0 -1.2
v -0.3 0 -1.2
v 0.3 0 -1.2
v 0.4 0 -1.2
v 0.5 0 -1.2
v 0.6 0 -1.2
v -0.4 0 -1.3
v -0.3 0 -1.3
v -0.2 0 -1.3
v 0.4 0 -1.3
v 0.5 0 -1.3
v 0.6 0 -1.3
v 0.7 0 -1.3
v -0.3 0 -1.4
v -0.2 0 -1.4
v -0.1 0 -1.4
v 0.5 0 -1.4
v 0.6 0 -1.4
v 0.7 0 -1.4
v 0.8 0 -1.4
v -0.2 0 -1.5
v -0.1 0 -1.5
v 0 0 -1.5
v 0.6 0 -1.5
v 0.7 0 -1.5
v 0.8 0 -1.5
v 0.9 0 -1.5
v -0.1 0 -1.6
v 0 0 -1.6
v 0.1 0 -1.6
v 0.7 0 -1.6
v 0.8 0 -1.6
v 0.9 0 -1.6
v 1 0 -1.6
v 0 0 -1.7
v 0.1 0 -1.7
v 0.2 0 -1.7
v 0.8 0 -1.7
v 0.9 0 -1.7
v 1 0 -1.7
v 1.1 0 -1.7
v 0.1 0 -1.8
v 0.2 0 -1.8
v 0.3 0 -1.8
v 0.9 0 -1.8
v 1 0 -1.8
v 1.2 0 -1.8
v 0.2 0 -1.9
v 0.3 0 -1.9
v 0.4 0 -1.9
v 0.3 0 -2
v 0.4 0 -2
v 0.5 0 -2
v 0.4 0 -2.1
v 0.5 0 -2.1
v 0.6 0 -2.1
v 0.5 0 -2.2
v 0.6 0 -2.2
v 0.7 0 -2.2
v 0.6 0 -2.3
v 0.7 0 -2.3
v 0.8 0 -2.3
v 0.7 0 -2.4
v 0.8 0 -2.4
v 0.9 0 -2.4
v 0.8 0 -2.5
v 0.9 0 -2.5
v 1 0 -2.5
v 0.9 0 -2.6
v 1 0 -2.6
v 1.1 0 -2.6
v 1.7 0 -2.6
v 1.8 0 -2.6
v 1.9 0 -2.6
v 1.1 0 -2.7
v 1.7 0 -2.7
v 1.8 0 -2.7
v 1.1 0 -2.8
v 1.7 0 -2.8
v 1 0.1 -2.6
v 1.1 0.1 -2.6
v 1 0.1 -2.7
v 1.1 0.1 -2.7
v 1.3 0.2 2.8
v 1.7 0.2 2.8
v 1.2 0.2 2.7
v 1.3 0.2 2.7
v 1.7 0.2 2.7
v 1.8 0.2 2.7
v 1.1 0.2 2.6
v 1.2 0.2 2.6
v 1.3 0.2 2.6
v 1.7 0.2 2.6
v 1.8 0.2 2.6
v 1.9 0.2 2.6
v 1.2 0.2 1.7
v 1.3 0.2 1.7
v -0.5 0.2 -0.5
v -0.1 0.2 -0.5
v -0.6 0.2 -0.6
v -0.5 0.2 -0.6
v -0.1 0.2 -0.6
v 0 0.2 -0.6
v -0.6 0.2 -0.7
v -0.5 0.2 -0.7
v -0.1 0.2 -0.7
v 0 0.2 -0.7
v 0.1 0.2 -0.7
v -0.7 0.2 -0.8
v -0.6 0.2 -0.8
v -0.1 0.2 -0.8
v 0 0.2 -0.8
v 0.1 0.2 -0.8
v 0.2 0.2 -0.8
v -0.6 0.2 -0.9
v -0.5 0.2 -0.9
v 0 0.2 -0.9
v 0.1 0.2 -0.9
v 0.2 0.2 -0.9
v 0.3 0.2 -0.9
v -0.7 0.2 -1
v -0.6 0.2 -1
v -0.5 0.2 -1
v 0.1 0.2 -1
v 0.2 0.2 -1
v 0.3 0.2 -1
v 0.4 0.2 -1
v -0.6 0.2 -1.1
v -0.5 0.2 -1.1
v -0.4 0.2 -1.1
v 0.2 0.2 -1.1
v 0.3 0.2 -1.1
v 0.4 0.2 -1.1
v 0.5 0.2 -1.1
v -0.5 0.2 -1.2
v -0.4 0.2 -1.2
v -0.3 0.2 -1.2
v 0.3 0.2 -1.2
v 0.4 0.2 -1.2
v 0.5 0.2 -1.2
v 0.6 0.2 -1.2
v -0.4 0.2 -1.3
v -0.3 0.2 -1.3
v -0.2 0.2 -1.3
v 0.4 0.2 -1.3
v 0.5 0.2 -1.3
v 0.6 0.2 -1.3
v 0.7 0.2 -1.3
v -0.3 0.2 -1.4
v -0.2 0.2 -1.4
v -0.1 0.2 -1.4
v 0.5 0.2 -1.4
v 0.6 0.2 -1.4
v 0.7 0.2 -1.4
v 0.8 0.2 -1.4
v -0.2 0.2 -1.5
v -0.1 0.2 -1.5
v 0 0.2 -1.5
v 0.6 0.2 -1.5
v 0.7 0.2 -1.5
v 0.8 0.2 -1.5
v 0.9 0.2 -1.5
v -0.1 0.2 -1.6
v 0 0.2 -1.6
v 0.1 0.2 -1.6
v 0.7 0.2 -1.6
v 0.8 0.2 -1.6
v 0.9 0.2 -1.6
v 1 0.2 -1.6
v 0 0.2 -1.7
v 0.1 0.2 -1.7
v 0.2 0.2 -1.7
v 0.8 0.2 -1.7
v 0.9 0.2 -1.7
v 1 0.2 -1.7
v 1.1 0.2 -1.7
v 0.1 0.2 -1.8
v 0.2 0.2 -1.8
v 0.3 0.2 -1.8
v 0.9 0.2 -1.8
v 1 0.2 -1.8
v 1.2 0.2 -1.8
v 0.2 0.2 -1.9
v 0.3 0.2 -1.9
v 0.4 0.2 -1.9
v 0.3 0.2 -2
v 0.4 0.2 -2
v 0.5 0.2 -2
v 0.4 0.2 -2.1
v 0.5 0.2 -2.1
v 0.6 0.2 -2.1
v 0.5 0.2 -2.2
v 0.6 0.2 -2.2
v 0.7 0.2 -2.2
v 0.6 0.2 -2.3
v 0.7 0.2 -2.3
v 0.8 0.2 -2.3
v 0.7 0.2 -2.4
v 0.8 0.2 -2.4
v 0.9 0.2 -2.4
v 0.8 0.2 -2.5
v 0.9 0.2 -2.5
v 1 0.2 -2.5
v 0.9 0.2 -2.6
v 1 0.2 -2.6
v 1.1 0.2 -2.6
v 1.7 0.2 -2.6
v 1.8 0.2 -2.6
v 1.9 0.2 -2.6
v 1 0.2 -2.7
v 1.1 0.2 -2.7
v 1.7 0.2 -2.7
v 1.8 0.2 -2.7
v 1.1 0.2 -2.8
v 1.7 0.2 -2.8

# faces
f 3/3/1 2/3/1 1/3/1
f 4/3/1 2/3/1 3/3/1
f 10/3/1 6/3/1 5/3/1
f 11/2/1 7/2/1 6/2/1
f 11/3/1 6/3/1 10/3/1
f 12/2/1 7/2/1 11/2/1
f 13/3/1 9/3/1 8/3/1
f 14/3/1 9/3/1 13/3/1
f 19/3/1 16/3/1 15/3/1
f 20/3/1 16/3/1 19/3/1
f 21/3/1 18/3/1 17/3/1
f 22/3/1 18/3/1 21/3/1
f 25/3/1 24/3/1 23/3/1
f 26/3/1 24/3/1 25/3/1
f 29/3/1 28/3/1 27/3/1
f 30/3/1 28/3/1 29/3/1
f 33/3/1 32/3/1 31/3/1
f 34/3/1 32/3/1 33/3/1
f 37/3/1 36/3/1 35/3/1
f 38/3/1 36/3/1 37/3/1
f 41/3/1 40/3/1 39/3/1
f 42/3/1 40/3/1 41/3/1
f 45/3/1 44/3/1 43/3/1
f 46/3/1 44/3/1 45/3/1
f 49/3/1 48/3/1 47/3/1
f 50/3/1 48/3/1 49/3/1
f 53/3/1 52/3/1 51/3/1
f 54/3/1 52/3/1 53/3/1
f 57/3/1 56/3/1 55/3/1
f 58/3/1 56/3/1 57/3/1
f 61/3/1 60/3/1 59/3/1
f 62/3/1 60/3/1 61/3/1
f 65/3/1 64/3/1 63/3/1
f 66/3/1 64/3/1 65/3/1
f 69/3/1 68/3/1 67/3/1
f 70/3/1 68/3/1 69/3/1
f 73/3/1 72/3/1 71/3/1
f 74/3/1 72/3/1 73/3/1
f 77/3/1 76/3/1 75/3/1
f 78/3/1 76/3/1 77/3/1
f 81/3/1 80/3/1 79/3/1
f 82/3/1 80/3/1 81/3/1
f 88/1/1 86/1/1 85/1/1
f 89/3/1 87/3/1 86/3/1
f 89/1/1 86/1/1 88/1/1
f 90/3/1 84/3/1 83/3/1
f 91/3/1 84/3/1 90/3/1
f 92/3/1 87/3/1 89/3/1
f 93/3/1 87/3/1 92/3/1
f 96/3/1 95/3/1 94/3/1
f 97/3/1 95/3/1 96/3/1
f 100/3/1 99/3/1 98/3/1
f 101/3/1 99/3/1 100/3/1
f 102/3/2 103/3/2 104/3/2
f 104/3/2 103/3/2 105/3/2
f 106/3/2 107/3/2 108/3/2
f 108/3/2 107/3/2 109/3/2
f 110/3/2 111/3/2 112/3/2
f 112/3/2 111/3/2 113/3/2
f 114/3/2 115/3/2 116/3/2
f 116/3/2 115/3/2 117/3/2
f 118/3/2 119/3/2 120/3/2
f 120/3/2 119/3/2 121/3/2
f 122/3/2 123/3/2 124/3/2
f 124/3/2 123/3/2 125/3/2
f 126/3/2 127/3/2 128/3/2
f 128/3/2 127/3/2 129/3/2
f 130/3/2 131/3/2 132/3/2
f 132/3/2 131/3/2 133/3/2
f 134/3/2 135/3/2 136/3/2
f 136/3/2 135/3/2 137/3/2
f 138/3/2 139/3/2 140/3/2
f 140/3/2 139/3/2 141/3/2
f 142/3/2 143/3/2 144/3/2
f 144/3/2 143/3/2 145/3/2
f 146/3/2 147/3/2 148/3/2
f 148/3/2 147/3/2 149/3/2
f 150/3/2 151/3/2 154/3/2
f 154/3/2 151/3/2 155/3/2
f 152/3/2 153/3/2 156/3/2
f 156/3/2 153/3/2 157/3/2
f 158/3/2 159/3/2 162/3/2
f 162/3/2 159/3/2 163/3/2
f 160/3/2 161/3/2 164/3/2
f 164/3/2 161/3/2 165/3/2
f 166/3/2 167/3/2 168/3/2
f 168/3/2 167/3/2 169/3/2
f 172/3/3 171/3/3 170/3/3
f 173/3/3 171/3/3 172/3/3
f 176/3/3 175/3/3 174/3/3
f 177/3/3 175/3/3 176/3/3
f 180/3/3 179/3/3 178/3/3
f 181/3/3 179/3/3 180/3/3
f 184/3/3 183/3/3 182/3/3
f 185/3/3 183/3/3 184/3/3
f 188/3/3 187/3/3 186/3/3
f 189/3/3 187/3/3 188/3/3
f 192/3/3 191/3/3 190/3/3
f 193/3/3 191/3/3 192/3/3
f 196/3/3 195/3/3 194/3/3
f 197/3/3 195/3/3 196/3/3
f 200/3/3 199/3/3 198/3/3
f 201/3/3 199/3/3 200/3/3
f 204/3/3 203/3/3 202/3/3
f 205/3/3 203/3/3 204/3/3
f 208/3/3 207/3/3 206/3/3
f 209/3/3 207/3/3 208/3/3
f 212/3/3 211/3/3 210/3/3
f 213/3/3 211/3/3 212/3/3
f 216/3/3 215/3/3 214/3/3
f 217/3/3 215/3/3 216/3/3
f 220/3/3 219/3/3 218/3/3
f 221/3/3 219/3/3 220/3/3
f 224/3/3 223/3/3 222/3/3
f 225/3/3 223/3/3 224/3/3
f 228/3/3 227/3/3 226/3/3
f 229/3/3 227/3/3 228/3/3
f 232/3/3 231/3/3 230/3/3
f 233/3/3 231/3/3 232/3/3
f 236/3/3 235/3/3 234/3/3
f 237/3/3 235/3/3 236/3/3
f 240/3/3 239/3/3 238/3/3
f 241/3/3 239/3/3 240/3/3
f 244/3/3 243/3/3 242/3/3
f 245/3/3 243/3/3 244/3/3
f 248/3/3 247/3/3 246/3/3
f 249/3/3 247/3/3 248/3/3
f 250/3/4 251/3/4 252/3/4
f 252/3/4 251/3/4 253/3/4
f 254/3/4 255/3/4 256/3/4
f 256/3/4 255/3/4 257/3/4
f 258/3/4 259/3/4 260/3/4
f 260/3/4 259/3/4 261/3/4
f 262/3/4 263/3/4 264/3/4
f 264/3/4 263/3/4 265/3/4
f 266/3/4 267/3/4 268/3/4
f 268/3/4 267/3/4 269/3/4
f 270/3/4 271/3/4 272/3/4
f 272/3/4 271/3/4 273/3/4
f 274/3/4 275/3/4 276/3/4
f 276/3/4 275/3/4 277/3/4
f 278/3/4 279/3/4 280/3/4
f 280/3/4 279/3/4 281/3/4
f 282/3/4 283/3/4 284/3/4
f 284/3/4 283/3/4 285/3/4
f 286/3/4 287/3/4 288/3/4
f 288/3/4 287/3/4 289/3/4
f 290/3/4 291/3/4 292/3/4
f 292/3/4 291/3/4 293/3/4
f 294/3/4 295/3/4 296/3/4
f 296/3/4 295/3/4 297/3/4
f 298/3/4 299/3/4 300/3/4
f 300/3/4 299/3/4 301/3/4
f 302/3/4 303/3/4 304/3/4
f 304/3/4 303/3/4 305/3/4
f 306/3/4 307/3/4 308/3/4
f 308/3/4 307/3/4 309/3/4
f 310/3/4 311/3/4 312/3/4
f 312/3/4 311/3/4 313/3/4
f 314/3/4 315/3/4 316/3/4
f 316/3/4 315/3/4 317/3/4
f 317/3/4 315/3/4 318/3/4
f 316/1/4 317/1/4 319/1/4
f 319/1/4 317/1/4 320/1/4
f 321/3/4 322/3/4 323/3/4
f 323/3/4 322/3/4 324/3/4
f 325/3/4 326/3/4 327/3/4
f 327/3/4 326/3/4 328/3/4
f 329/3/4 330/3/4 331/3/4
f 331/3/4 330/3/4 332/3/4
f 333/3/4 334/3/4 335/3/4
f 335/3/4 334/3/4 336/3/4
f 340/3/5 338/3/5 337/3/5
f 341/3/5 338/3/5 340/3/5
f 344/3/5 340/3/5 339/3/5
f 345/1/5 341/1/5 340/1/5
f 345/3/5 340/3/5 344/3/5
f 346/3/5 342/3/5 341/3/5
f 346/1/5 341/1/5 345/1/5
f 347/3/5 342/3/5 346/3/5
f 349/2/5 345/2/5 344/2/5
f 349/3/5 344/3/5 343/3/5
f 350/1/5 346/1/5 345/1/5
f 350/2/5 345/2/5 349/2/5
f 354/3/5 352/3/5 351/3/5
f 355/3/5 352/3/5 354/3/5
f 357/3/5 354/3/5 353/3/5
f 358/2/5 355/2/5 354/2/5
f 358/3/5 354/3/5 357/3/5
f 359/3/5 356/3/5 355/3/5
f 359/2/5 355/2/5 358/2/5
f 360/3/5 356/3/5 359/3/5
f 363/2/5 358/2/5 357/2/5
f 364/1/5 359/1/5 358/1/5
f 364/2/5 360/2/5 359/2/5
f 365/3/5 361/3/5 360/3/5
f 365/2/5 360/2/5 364/2/5
f 366/3/5 361/3/5 365/3/5
f 368/3/5 363/3/5 362/3/5
f 368/2/5 358/2/5 363/2/5
f 369/1/5 364/1/5 358/1/5
f 369/2/5 358/2/5 368/2/5
f 369/1/5 365/1/5 364/1/5
f 370/2/5 366/2/5 365/2/5
f 370/1/5 365/1/5 369/1/5
f 371/3/5 367/3/5 366/3/5
f 371/2/5 366/2/5 370/2/5
f 372/3/5 367/3/5 371/3/5
f 374/3/5 368/3/5 362/3/5
f 375/1/5 370/1/5 369/1/5
f 375/3/5 368/3/5 374/3/5
f 375/1/5 369/1/5 368/1/5
f 375/1/5 371/1/5 370/1/5
f 376/1/5 371/1/5 375/1/5
f 377/2/5 372/2/5 371/2/5
f 377/1/5 371/1/5 376/1/5
f 378/3/5 373/3/5 372/3/5
f 378/2/5 372/2/5 377/2/5
f 379/3/5 373/3/5 378/3/5
f 381/3/5 376/3/5 375/3/5
f 382/1/5 377/1/5 376/1/5
f 382/3/5 376/3/5 381/3/5
f 382/1/5 378/1/5 377/1/5
f 383/1/5 378/1/5 382/1/5
f 384/2/5 379/2/5 378/2/5
f 384/1/5 378/1/5 383/1/5
f 385/3/5 380/3/5 379/3/5
f 385/2/5 379/2/5 384/2/5
f 386/3/5 380/3/5 385/3/5
f 388/3/5 383/3/5 382/3/5
f 389/1/5 384/1/5 383/1/5
f 389/3/5 383/3/5 388/3/5
f 389/1/5 385/1/5 384/1/5
f 390/1/5 385/1/5 389/1/5
f 391/2/5 386/2/5 385/2/5
f 391/1/5 385/1/5 390/1/5
f 392/3/5 387/3/5 386/3/5
f 392/2/5 386/2/5 391/2/5
f 393/3/5 387/3/5 392/3/5
f 395/3/5 390/3/5 389/3/5
f 396/1/5 391/1/5 390/1/5
f 396/3/5 390/3/5 395/3/5
f 396/1/5 392/1/5 391/1/5
f 397/1/5 392/1/5 396/1/5
f 398/2/5 393/2/5 392/2/5
f 398/1/5 392/1/5 397/1/5
f 399/3/5 394/3/5 393/3/5
f 399/2/5 393/2/5 398/2/5
f 400/3/5 394/3/5 399/3/5
f 402/3/5 397/3/5 396/3/5
f 403/1/5 398/1/5 397/1/5
f 403/3/5 397/3/5 402/3/5
f 403/1/5 399/1/5 398/1/5
f 404/1/5 399/1/5 403/1/5
f 405/2/5 400/2/5 399/2/5
f 405/1/5 399/1/5 404/1/5
f 406/3/5 401/3/5 400/3/5
f 406/2/5 400/2/5 405/2/5
f 407/3/5 401/3/5 406/3/5
f 409/3/5 404/3/5 403/3/5
f 410/1/5 405/1/5 404/1/5
f 410/3/5 404/3/5 409/3/5
f 410/1/5 406/1/5 405/1/5
f 411/1/5 406/1/5 410/1/5
f 412/2/5 407/2/5 406/2/5
f 412/1/5 406/1/5 411/1/5
f 413/3/5 408/3/5 407/3/5
f 413/2/5 407/2/5 412/2/5
f 414/3/5 408/3/5 413/3/5
f 416/3/5 411/3/5 410/3/5
f 417/1/5 412/1/5 411/1/5
f 417/3/5 411/3/5 416/3/5
f 417/1/5 413/1/5 412/1/5
f 418/1/5 413/1/5 417/1/5
f 419/2/5 414/2/5 413/2/5
f 419/1/5 413/1/5 418/1/5
f 420/3/5 415/3/5 414/3/5
f 420/2/5 414/2/5 419/2/5
f 421/3/5 415/3/5 420/3/5
f 423/3/5 418/3/5 417/3/5
f 424/1/5 419/1/5 418/1/5
f 424/3/5 418/3/5 423/3/5
f 424/1/5 420/1/5 419/1/5
f 425/1/5 420/1/5 424/1/5
f 426/2/5 421/2/5 420/2/5
f 426/1/5 420/1/5 425/1/5
f 427/3/5 422/3/5 421/3/5
f 427/2/5 421/2/5 426/2/5
f 428/3/5 422/3/5 427/3/5
f 429/3/5 349/3/5 343/3/5
f 430/3/5 425/3/5 424/3/5
f 431/1/5 426/1/5 425/1/5
f 431/3/5 425/3/5 430/3/5
f 431/1/5 427/1/5 426/1/5
f 432/1/5 427/1/5 431/1/5
f 433/2/5 428/2/5 427/2/5
f 433/1/5 427/1/5 432/1/5
f 434/3/5 429/3/5 428/3/5
f 434/2/5 428/2/5 433/2/5
f 435/1/5 350/1/5 349/1/5
f 435/3/5 429/3/5 434/3/5
f 435/3/5 349/3/5 429/3/5
f 436/3/5 432/3/5 431/3/5
f 437/1/5 434/1/5 433/1/5
f 437/3/5 432/3/5 436/3/5
f 437/1/5 433/1/5 432/1/5
f 437/1/5 435/1/5 434/1/5
f 438/1/5 435/1/5 437/1/5
f 439/3/5 438/3/5 437/3/5
f 440/1/5 435/1/5 438/1/5
f 440/3/5 438/3/5 439/3/5
f 441/1/5 435/1/5 440/1/5
f 442/3/5 441/3/5 440/3/5
f 443/1/5 435/1/5 441/1/5
f 443/3/5 441/3/5 442/3/5
f 444/1/5 435/1/5 443/1/5
f 445/3/5 444/3/5 443/3/5
f 446/1/5 435/1/5 444/1/5
f 446/3/5 444/3/5 445/3/5
f 447/1/5 435/1/5 446/1/5
f 448/3/5 447/3/5 446/3/5
f 449/1/5 435/1/5 447/1/5
f 449/3/5 447/3/5 448/3/5
f 450/1/5 435/1/5 449/1/5
f 451/3/5 450/3/5 449/3/5
f 452/1/5 435/1/5 450/1/5
f 452/3/5 450/3/5 451/3/5
f 453/1/5 435/1/5 452/1/5
f 454/3/5 453/3/5 452/3/5
f 455/1/5 435/1/5 453/1/5
f 455/3/5 453/3/5 454/3/5
f 456/1/5 435/1/5 455/1/5
f 457/3/5 456/3/5 455/3/5
f 458/1/5 435/1/5 456/1/5
f 458/3/5 456/3/5 457/3/5
f 459/1/5 435/1/5 458/1/5
f 460/2/5 347/2/5 346/2/5
f 460/1/5 435/1/5 459/1/5
f 460/1/5 350/1/5 435/1/5
f 460/1/5 346/1/5 350/1/5
f 461/3/5 348/3/5 347/3/5
f 461/2/5 347/2/5 460/2/5
f 462/3/5 348/3/5 461/3/5
f 463/1/5 460/1/5 459/1/5
f 464/3/5 461/3/5 460/3/5
f 464/1/5 460/1/5 463/1/5
f 465/3/5 461/3/5 464/3/5
f 466/3/5 464/3/5 463/3/5
f 467/3/5 464/3/5 466/3/5
f 470/3/5 469/3/5 468/3/5
f 471/3/5 469/3/5 470/3/5
f 472/3/6 473/3/6 475/3/6
f 475/3/6 473/3/6 476/3/6
f 474/3/6 475/3/6 479/3/6
f 475/1/6 476/1/6 480/1/6
f 479/3/6 475/3/6 480/3/6
f 476/3/6 477/3/6 481/3/6
f 480/1/6 476/1/6 481/1/6
f 481/3/6 477/3/6 482/3/6
f 479/2/6 480/2/6 484/2/6
f 478/3/6 479/3/6 484/3/6
f 480/1/6 481/1/6 485/1/6
f 484/2/6 480/2/6 485/2/6
f 486/3/6 487/3/6 489/3/6
f 489/3/6 487/3/6 490/3/6
f 488/3/6 489/3/6 492/3/6
f 489/2/6 490/2/6 493/2/6
f 492/3/6 489/3/6 493/3/6
f 490/3/6 491/3/6 494/3/6
f 493/2/6 490/2/6 494/2/6
f 494/3/6 491/3/6 495/3/6
f 492/2/6 493/2/6 498/2/6
f 493/1/6 494/1/6 499/1/6
f 494/2/6 495/2/6 499/2/6
f 495/3/6 496/3/6 500/3/6
f 499/2/6 495/2/6 500/2/6
f 500/3/6 496/3/6 501/3/6
f 497/3/6 498/3/6 503/3/6
f 498/2/6 493/2/6 503/2/6
f 493/1/6 499/1/6 504/1/6
f 503/2/6 493/2/6 504/2/6
f 499/1/6 500/1/6 504/1/6
f 500/2/6 501/2/6 505/2/6
f 504/1/6 500/1/6 505/1/6
f 501/3/6 502/3/6 506/3/6
f 505/2/6 501/2/6 506/2/6
f 506/3/6 502/3/6 507/3/6
f 497/3/6 503/3/6 509/3/6
f 504/1/6 505/1/6 510/1/6
f 509/3/6 503/3/6 510/3/6
f 503/1/6 504/1/6 510/1/6
f 505/1/6 506/1/6 510/1/6
f 510/1/6 506/1/6 511/1/6
f 506/2/6 507/2/6 512/2/6
f 511/1/6 506/1/6 512/1/6
f 507/3/6 508/3/6 513/3/6
f 512/2/6 507/2/6 513/2/6
f 513/3/6 508/3/6 514/3/6
f 510/3/6 511/3/6 516/3/6
f 511/1/6 512/1/6 517/1/6
f 516/3/6 511/3/6 517/3/6
f 512/1/6 513/1/6 517/1/6
f 517/1/6 513/1/6 518/1/6
f 513/2/6 514/2/6 519/2/6
f 518/1/6 513/1/6 519/1/6
f 514/3/6 515/3/6 520/3/6
f 519/2/6 514/2/6 520/2/6
f 520/3/6 515/3/6 521/3/6
f 517/3/6 518/3/6 523/3/6
f 518/1/6 519/1/6 524/1/6
f 523/3/6 518/3/6 524/3/6
f 519/1/6 520/1/6 524/1/6
f 524/1/6 520/1/6 525/1/6
f 520/2/6 521/2/6 526/2/6
f 525/1/6 520/1/6 526/1/6
f 521/3/6 522/3/6 527/3/6
f 526/2/6 521/2/6 527/2/6
f 527/3/6 522/3/6 528/3/6
f 524/3/6 525/3/6 530/3/6
f 525/1/6 526/1/6 531/1/6
f 530/3/6 525/3/6 531/3/6
f 526/1/6 527/1/6 531/1/6
f 531/1/6 527/1/6 532/1/6
f 527/2/6 528/2/6 533/2/6
f 532/1/6 527/1/6 533/1/6
f 528/3/6 529/3/6 534/3/6
f 533/2/6 528/2/6 534/2/6
f 534/3/6 529/3/6 535/3/6
f 531/3/6 532/3/6 537/3/6
f 532/1/6 533/1/6 538/1/6
f 537/3/6 532/3/6 538/3/6
f 533/1/6 534/1/6 538/1/6
f 538/1/6 534/1/6 539/1/6
f 534/2/6 535/2/6 540/2/6
f 539/1/6 534/1/6 540/1/6
f 535/3/6 536/3/6 541/3/6
f 540/2/6 535/2/6 541/2/6
f 541/3/6 536/3/6 542/3/6
f 538/3/6 539/3/6 544/3/6
f 539/1/6 540/1/6 545/1/6
f 544/3/6 539/3/6 545/3/6
f 540/1/6 541/1/6 545/1/6
f 545/1/6 541/1/6 546/1/6
f 541/2/6 542/2/6 547/2/6
f 546/1/6 541/1/6 547/1/6
f 542/3/6 543/3/6 548/3/6
f 547/2/6 542/2/6 548/2/6
f 548/3/6 543/3/6 549/3/6
f 545/3/6 546/3/6 551/3/6
f 546/1/6 547/1/6 552/1/6
f 551/3/6 546/3/6 552/3/6
f 547/1/6 548/1/6 552/1/6
f 552/1/6 548/1/6 553/1/6
f 548/2/6 549/2/6 554/2/6
f 553/1/6 548/1/6 554/1/6
f 549/3/6 550/3/6 555/3/6
f 554/2/6 549/2/6 555/2/6
f 555/3/6 550/3/6 556/3/6
f 552/3/6 553/3/6 558/3/6
f 553/1/6 554/1/6 559/1/6
f 558/3/6 553/3/6 559/3/6
f 554/1/6 555/1/6 559/1/6
f 559/1/6 555/1/6 560/1/6
f 555/2/6 556/2/6 561/2/6
f 560/1/6 555/1/6 561/1/6
f 556/3/6 557/3/6 562/3/6
f 561/2/6 556/2/6 562/2/6
f 562/3/6 557/3/6 563/3/6
f 478/3/6 484/3/6 564/3/6
f 559/3/6 560/3/6 565/3/6
f 560/1/6 561/1/6 566/1/6
f 565/3/6 560/3/6 566/3/6
f 561/1/6 562/1/6 566/1/6
f 566/1/6 562/1/6 567/1/6
f 562/2/6 563/2/6 568/2/6
f 567/1/6 562/1/6 568/1/6
f 563/3/6 564/3/6 569/3/6
f 568/2/6 563/2/6 569/2/6
f 484/1/6 485/1/6 570/1/6
f 569/3/6 564/3/6 570/3/6
f 564/3/6 484/3/6 570/3/6
f 566/3/6 567/3/6 571/3/6
f 568/1/6 569/1/6 572/1/6
f 571/3/6 567/3/6 572/3/6
f 567/1/6 568/1/6 572/1/6
f 569/1/6 570/1/6 572/1/6
f 572/1/6 570/1/6 573/1/6
f 572/3/6 573/3/6 574/3/6
f 573/1/6 570/1/6 575/1/6
f 574/3/6 573/3/6 575/3/6
f 575/1/6 570/1/6 576/1/6
f 575/3/6 576/3/6 577/3/6
f 576/1/6 570/1/6 578/1/6
f 577/3/6 576/3/6 578/3/6
f 578/1/6 570/1/6 579/1/6
f 578/3/6 579/3/6 580/3/6
f 579/1/6 570/1/6 581/1/6
f 580/3/6 579/3/6 581/3/6
f 581/1/6 570/1/6 582/1/6
f 581/3/6 582/3/6 583/3/6
f 582/1/6 570/1/6 584/1/6
f 583/3/6 582/3/6 584/3/6
f 584/1/6 570/1/6 585/1/6
f 584/3/6 585/3/6 586/3/6
f 585/1/6 570/1/6 587/1/6
f 586/3/6 585/3/6 587/3/6
f 587/1/6 570/1/6 588/1/6
f 587/3/6 588/3/6 589/3/6
f 588/1/6 570/1/6 590/1/6
f 589/3/6 588/3/6 590/3/6
f 590/1/6 570/1/6 591/1/6
f 590/3/6 591/3/6 592/3/6
f 591/1/6 570/1/6 593/1/6
f 592/3/6 591/3/6 593/3/6
f 593/1/6 570/1/6 594/1/6
f 481/2/6 482/2/6 595/2/6
f 594/1/6 570/1/6 595/1/6
f 570/1/6 485/1/6 595/1/6
f 485/1/6 481/1/6 595/1/6
f 482/3/6 483/3/6 596/3/6
f 595/2/6 482/2/6 596/2/6
f 596/3/6 483/3/6 597/3/6
f 593/3/6 594/3/6 598/3/6
f 594/1/6 595/1/6 599/1/6
f 598/3/6 594/3/6 599/3/6
f 595/3/6 596/3/6 600/3/6
f 599/1/6 595/1/6 600/1/6
f 600/3/6 596/3/6 601/3/6
f 599/3/6 600/3/6 602/3/6
f 602/3/6 600/3/6 603/3/6
