# MagicaVoxel @ Ephtracy

# group
o 

# material
mtllib 3.mtl
usemtl palette

# normals
vn -1 0 0
vn 1 0 0
vn 0 0 1
vn 0 0 -1
vn 0 -1 0
vn 0 1 0

# texcoords
vt 0.857422 0.5
vt 0.861328 0.5
vt 0.865234 0.5

# verts
v -1.4 0.1 2.6
v -1.4 0.1 2.4
v -1.4 0.1 0.2
v -1.4 0.1 -0.0999999
v -1.4 0.1 -2.4
v -1.4 0.1 -2.6
v -1.4 0.2 2.6
v -1.4 0.2 2.4
v -1.4 0.2 0.2
v -1.4 0.2 -0.0999999
v -1.4 0.2 -2.4
v -1.4 0.2 -2.6
v -1.3 0.1 2.7
v -1.3 0.1 2.6
v -1.3 0.1 2.4
v -1.3 0.1 2.3
v -1.3 0.1 0.3
v -1.3 0.1 0.2
v -1.3 0.1 -0.0999999
v -1.3 0.1 -0.2
v -1.3 0.1 -2.3
v -1.3 0.1 -2.4
v -1.3 0.1 -2.6
v -1.3 0.1 -2.7
v -1.3 0.2 2.7
v -1.3 0.2 2.6
v -1.3 0.2 2.4
v -1.3 0.2 2.3
v -1.3 0.2 0.3
v -1.3 0.2 0.2
v -1.3 0.2 -0.0999999
v -1.3 0.2 -0.2
v -1.3 0.2 -2.3
v -1.3 0.2 -2.4
v -1.3 0.2 -2.6
v -1.3 0.2 -2.7
v -1.2 0.1 2.8
v -1.2 0.1 2.7
v -1.2 0.1 2.3
v -1.2 0.1 2.2
v -1.2 0.1 0.4
v -1.2 0.1 0.3
v -1.2 0.1 -0.2
v -1.2 0.1 -0.3
v -1.2 0.1 -2.2
v -1.2 0.1 -2.3
v -1.2 0.1 -2.7
v -1.2 0.1 -2.8
v -1.2 0.2 2.8
v -1.2 0.2 2.7
v -1.2 0.2 2.3
v -1.2 0.2 2.2
v -1.2 0.2 0.4
v -1.2 0.2 0.3
v -1.2 0.2 -0.2
v -1.2 0.2 -0.3
v -1.2 0.2 -2.2
v -1.2 0.2 -2.3
v -1.2 0.2 -2.7
v -1.2 0.2 -2.8
v 0.8 0.1 2.2
v 0.8 0.1 0.4
v 0.8 0.1 -0.3
v 0.8 0.1 -2.2
v 0.8 0.2 2.2
v 0.8 0.2 0.4
v 0.8 0.2 -0.3
v 0.8 0.2 -2.2
v 1.2 0.1 2.8
v 1.2 0.1 2.7
v 1.2 0.1 -2.7
v 1.2 0.1 -2.8
v 1.2 0.2 2.8
v 1.2 0.2 2.7
v 1.2 0.2 -2.7
v 1.2 0.2 -2.8
v 1.3 0.1 2.7
v 1.3 0.1 2.6
v 1.3 0.1 -2.6
v 1.3 0.1 -2.7
v 1.3 0.2 2.7
v 1.3 0.2 2.6
v 1.3 0.2 -2.6
v 1.3 0.2 -2.7
v 1.4 0.1 2.6
v 1.4 0.1 -2.6
v 1.4 0.2 2.6
v 1.4 0.2 -2.6
v -1.2 0.1 2.8
v -1.2 0.2 2.8
v 1.2 0.1 2.8
v 1.2 0.2 2.8
v -1.3 0.1 2.7
v -1.3 0.2 2.7
v -1.2 0.1 2.7
v -1.2 0.2 2.7
v 1.2 0.1 2.7
v 1.2 0.2 2.7
v 1.3 0.1 2.7
v 1.3 0.2 2.7
v -1.4 0.1 2.6
v -1.4 0.2 2.6
v -1.3 0.1 2.6
v -1.3 0.2 2.6
v 1.3 0.1 2.6
v 1.3 0.2 2.6
v 1.4 0.1 2.6
v 1.4 0.2 2.6
v -1.2 0.1 0.4
v -1.2 0.2 0.4
v 0.8 0.1 0.4
v 0.8 0.2 0.4
v -1.3 0.1 0.3
v -1.3 0.2 0.3
v -1.2 0.1 0.3
v -1.2 0.2 0.3
v -1.4 0.1 0.2
v -1.4 0.2 0.2
v -1.3 0.1 0.2
v -1.3 0.2 0.2
v -1.2 0.1 -2.2
v -1.2 0.2 -2.2
v 0.8 0.1 -2.2
v 0.8 0.2 -2.2
v -1.3 0.1 -2.3
v -1.3 0.2 -2.3
v -1.2 0.1 -2.3
v -1.2 0.2 -2.3
v -1.4 0.1 -2.4
v -1.4 0.2 -2.4
v -1.3 0.1 -2.4
v -1.3 0.2 -2.4
v -1.4 0.1 2.4
v -1.4 0.2 2.4
v -1.3 0.1 2.4
v -1.3 0.2 2.4
v -1.3 0.1 2.3
v -1.3 0.2 2.3
v -1.2 0.1 2.3
v -1.2 0.2 2.3
v -1.2 0.1 2.2
v -1.2 0.2 2.2
v 0.8 0.1 2.2
v 0.8 0.2 2.2
v -1.4 0.1 -0.0999999
v -1.4 0.2 -0.0999999
v -1.3 0.1 -0.0999999
v -1.3 0.2 -0.0999999
v -1.3 0.1 -0.2
v -1.3 0.2 -0.2
v -1.2 0.1 -0.2
v -1.2 0.2 -0.2
v -1.2 0.1 -0.3
v -1.2 0.2 -0.3
v 0.8 0.1 -0.3
v 0.8 0.2 -0.3
v -1.4 0.1 -2.6
v -1.4 0.2 -2.6
v -1.3 0.1 -2.6
v -1.3 0.2 -2.6
v 1.3 0.1 -2.6
v 1.3 0.2 -2.6
v 1.4 0.1 -2.6
v 1.4 0.2 -2.6
v -1.3 0.1 -2.7
v -1.3 0.2 -2.7
v -1.2 0.1 -2.7
v -1.2 0.2 -2.7
v 1.2 0.1 -2.7
v 1.2 0.2 -2.7
v 1.3 0.1 -2.7
v 1.3 0.2 -2.7
v -1.2 0.1 -2.8
v -1.2 0.2 -2.8
v 1.2 0.1 -2.8
v 1.2 0.2 -2.8
v -1.2 0.1 2.8
v 1.2 0.1 2.8
v -1.3 0.1 2.7
v -1.2 0.1 2.7
v 1.2 0.1 2.7
v 1.3 0.1 2.7
v -1.4 0.1 2.6
v -1.3 0.1 2.6
v -1.2 0.1 2.6
v 1.1 0.1 2.6
v 1.2 0.1 2.6
v 1.3 0.1 2.6
v 1.4 0.1 2.6
v -1.3 0.1 2.5
v -1.2 0.1 2.5
v 1.1 0.1 2.5
v 1.2 0.1 2.5
v -1.4 0.1 2.4
v -1.3 0.1 2.4
v -1.2 0.1 2.4
v -1.3 0.1 2.3
v -1.2 0.1 2.3
v 0.8 0.1 2.3
v -1.2 0.1 2.2
v 0.8 0.1 2.2
v 0.9 0.1 2.2
v -1.2 0.1 0.4
v 0.8 0.1 0.4
v 0.9 0.1 0.4
v -1.3 0.1 0.3
v -1.2 0.1 0.3
v 0.8 0.1 0.3
v 0.9 0.1 0.3
v -1.4 0.1 0.2
v -1.3 0.1 0.2
v -1.2 0.1 0.2
v -1.1 0.1 0.2
v 0.8 0.1 0.2
v -1.2 0.1 0.1
v -1.1 0.1 0.1
v -1.3 0.1 0
v -1.2 0.1 0
v -1.4 0.1 -0.0999999
v -1.3 0.1 -0.0999999
v -1.2 0.1 -0.0999999
v -1.3 0.1 -0.2
v -1.2 0.1 -0.2
v 0.8 0.1 -0.2
v -1.2 0.1 -0.3
v 0.8 0.1 -0.3
v 0.9 0.1 -0.3
v -1.2 0.1 -2.2
v 0.8 0.1 -2.2
v 0.9 0.1 -2.2
v -1.3 0.1 -2.3
v -1.2 0.1 -2.3
v 0.8 0.1 -2.3
v 0.9 0.1 -2.3
v -1.4 0.1 -2.4
v -1.3 0.1 -2.4
v -1.2 0.1 -2.4
v 0.8 0.1 -2.4
v -1.4 0.1 -2.6
v -1.3 0.1 -2.6
v -1.2 0.1 -2.6
v 1.2 0.1 -2.6
v 1.3 0.1 -2.6
v 1.4 0.1 -2.6
v -1.3 0.1 -2.7
v -1.2 0.1 -2.7
v 1.2 0.1 -2.7
v 1.3 0.1 -2.7
v -1.2 0.1 -2.8
v 1.2 0.1 -2.8
v -1.2 0.2 2.8
v 1.2 0.2 2.8
v -1.3 0.2 2.7
v -1.2 0.2 2.7
v 1.2 0.2 2.7
v 1.3 0.2 2.7
v -1.4 0.2 2.6
v -1.3 0.2 2.6
v -1.2 0.2 2.6
v 1.1 0.2 2.6
v 1.2 0.2 2.6
v 1.3 0.2 2.6
v 1.4 0.2 2.6
v -1.3 0.2 2.5
v -1.2 0.2 2.5
v 1.1 0.2 2.5
v 1.2 0.2 2.5
v -1.4 0.2 2.4
v -1.3 0.2 2.4
v -1.2 0.2 2.4
v -1.3 0.2 2.3
v -1.2 0.2 2.3
v 0.8 0.2 2.3
v -1.2 0.2 2.2
v 0.8 0.2 2.2
v 0.9 0.2 2.2
v -1.2 0.2 0.4
v 0.8 0.2 0.4
v 0.9 0.2 0.4
v -1.3 0.2 0.3
v -1.2 0.2 0.3
v 0.8 0.2 0.3
v 0.9 0.2 0.3
v -1.4 0.2 0.2
v -1.3 0.2 0.2
v -1.2 0.2 0.2
v -1.1 0.2 0.2
v 0.8 0.2 0.2
v -1.2 0.2 0.1
v -1.1 0.2 0.1
v -1.3 0.2 0
v -1.2 0.2 0
v -1.4 0.2 -0.0999999
v -1.3 0.2 -0.0999999
v -1.2 0.2 -0.0999999
v -1.3 0.2 -0.2
v -1.2 0.2 -0.2
v 0.8 0.2 -0.2
v -1.2 0.2 -0.3
v 0.8 0.2 -0.3
v 0.9 0.2 -0.3
v -1.2 0.2 -2.2
v 0.8 0.2 -2.2
v 0.9 0.2 -2.2
v -1.3 0.2 -2.3
v -1.2 0.2 -2.3
v 0.8 0.2 -2.3
v 0.9 0.2 -2.3
v -1.4 0.2 -2.4
v -1.3 0.2 -2.4
v -1.2 0.2 -2.4
v 0.8 0.2 -2.4
v -1.4 0.2 -2.6
v -1.3 0.2 -2.6
v -1.2 0.2 -2.6
v 1.2 0.2 -2.6
v 1.3 0.2 -2.6
v 1.4 0.2 -2.6
v -1.3 0.2 -2.7
v -1.2 0.2 -2.7
v 1.2 0.2 -2.7
v 1.3 0.2 -2.7
v -1.2 0.2 -2.8
v 1.2 0.2 -2.8

# faces
f 7/3/1 2/3/1 1/3/1
f 8/3/1 2/3/1 7/3/1
f 9/3/1 4/3/1 3/3/1
f 10/3/1 4/3/1 9/3/1
f 11/3/1 6/3/1 5/3/1
f 12/3/1 6/3/1 11/3/1
f 25/3/1 14/3/1 13/3/1
f 26/3/1 14/3/1 25/3/1
f 27/3/1 16/3/1 15/3/1
f 28/3/1 16/3/1 27/3/1
f 29/3/1 18/3/1 17/3/1
f 30/3/1 18/3/1 29/3/1
f 31/3/1 20/3/1 19/3/1
f 32/3/1 20/3/1 31/3/1
f 33/3/1 22/3/1 21/3/1
f 34/3/1 22/3/1 33/3/1
f 35/3/1 24/3/1 23/3/1
f 36/3/1 24/3/1 35/3/1
f 49/3/1 38/3/1 37/3/1
f 50/3/1 38/3/1 49/3/1
f 51/3/1 40/3/1 39/3/1
f 52/3/1 40/3/1 51/3/1
f 53/3/1 42/3/1 41/3/1
f 54/3/1 42/3/1 53/3/1
f 55/3/1 44/3/1 43/3/1
f 56/3/1 44/3/1 55/3/1
f 57/3/1 46/3/1 45/3/1
f 58/3/1 46/3/1 57/3/1
f 59/3/1 48/3/1 47/3/1
f 60/3/1 48/3/1 59/3/1
f 65/3/1 62/3/1 61/3/1
f 66/3/1 62/3/1 65/3/1
f 67/3/1 64/3/1 63/3/1
f 68/3/1 64/3/1 67/3/1
f 69/3/2 70/3/2 73/3/2
f 73/3/2 70/3/2 74/3/2
f 71/3/2 72/3/2 75/3/2
f 75/3/2 72/3/2 76/3/2
f 77/3/2 78/3/2 81/3/2
f 81/3/2 78/3/2 82/3/2
f 79/3/2 80/3/2 83/3/2
f 83/3/2 80/3/2 84/3/2
f 85/3/2 86/3/2 87/3/2
f 87/3/2 86/3/2 88/3/2
f 91/3/3 90/3/3 89/3/3
f 92/3/3 90/3/3 91/3/3
f 95/3/3 94/3/3 93/3/3
f 96/3/3 94/3/3 95/3/3
f 99/3/3 98/3/3 97/3/3
f 100/3/3 98/3/3 99/3/3
f 103/3/3 102/3/3 101/3/3
f 104/3/3 102/3/3 103/3/3
f 107/3/3 106/3/3 105/3/3
f 108/3/3 106/3/3 107/3/3
f 111/3/3 110/3/3 109/3/3
f 112/3/3 110/3/3 111/3/3
f 115/3/3 114/3/3 113/3/3
f 116/3/3 114/3/3 115/3/3
f 119/3/3 118/3/3 117/3/3
f 120/3/3 118/3/3 119/3/3
f 123/3/3 122/3/3 121/3/3
f 124/3/3 122/3/3 123/3/3
f 127/3/3 126/3/3 125/3/3
f 128/3/3 126/3/3 127/3/3
f 131/3/3 130/3/3 129/3/3
f 132/3/3 130/3/3 131/3/3
f 133/3/4 134/3/4 135/3/4
f 135/3/4 134/3/4 136/3/4
f 137/3/4 138/3/4 139/3/4
f 139/3/4 138/3/4 140/3/4
f 141/3/4 142/3/4 143/3/4
f 143/3/4 142/3/4 144/3/4
f 145/3/4 146/3/4 147/3/4
f 147/3/4 146/3/4 148/3/4
f 149/3/4 150/3/4 151/3/4
f 151/3/4 150/3/4 152/3/4
f 153/3/4 154/3/4 155/3/4
f 155/3/4 154/3/4 156/3/4
f 157/3/4 158/3/4 159/3/4
f 159/3/4 158/3/4 160/3/4
f 161/3/4 162/3/4 163/3/4
f 163/3/4 162/3/4 164/3/4
f 165/3/4 166/3/4 167/3/4
f 167/3/4 166/3/4 168/3/4
f 169/3/4 170/3/4 171/3/4
f 171/3/4 170/3/4 172/3/4
f 173/3/4 174/3/4 175/3/4
f 175/3/4 174/3/4 176/3/4
f 180/3/5 178/3/5 177/3/5
f 181/3/5 178/3/5 180/3/5
f 184/3/5 180/3/5 179/3/5
f 185/2/5 181/2/5 180/2/5
f 185/3/5 180/3/5 184/3/5
f 186/2/5 181/2/5 185/2/5
f 187/3/5 182/3/5 181/3/5
f 187/2/5 181/2/5 186/2/5
f 188/3/5 182/3/5 187/3/5
f 190/3/5 184/3/5 183/3/5
f 190/2/5 185/2/5 184/2/5
f 191/1/5 186/1/5 185/1/5
f 191/2/5 185/2/5 190/2/5
f 192/2/5 188/2/5 187/2/5
f 192/1/5 186/1/5 191/1/5
f 192/2/5 187/2/5 186/2/5
f 193/2/5 188/2/5 192/2/5
f 194/3/5 190/3/5 183/3/5
f 195/1/5 191/1/5 190/1/5
f 195/3/5 190/3/5 194/3/5
f 195/1/5 192/1/5 191/1/5
f 195/1/5 193/1/5 192/1/5
f 196/1/5 193/1/5 195/1/5
f 197/3/5 196/3/5 195/3/5
f 198/1/5 193/1/5 196/1/5
f 198/3/5 196/3/5 197/3/5
f 199/1/5 193/1/5 198/1/5
f 200/3/5 199/3/5 198/3/5
f 201/1/5 193/1/5 199/1/5
f 201/3/5 199/3/5 200/3/5
f 202/1/5 193/1/5 201/1/5
f 204/3/5 202/3/5 201/3/5
f 205/1/5 193/1/5 202/1/5
f 205/3/5 202/3/5 204/3/5
f 207/3/5 204/3/5 203/3/5
f 208/2/5 205/2/5 204/2/5
f 208/3/5 204/3/5 207/3/5
f 209/1/5 193/1/5 205/1/5
f 209/2/5 205/2/5 208/2/5
f 211/3/5 207/3/5 206/3/5
f 212/2/5 208/2/5 207/2/5
f 212/3/5 207/3/5 211/3/5
f 213/2/5 208/2/5 212/2/5
f 214/1/5 209/1/5 208/1/5
f 214/2/5 208/2/5 213/2/5
f 215/2/5 213/2/5 212/2/5
f 215/2/5 212/2/5 211/2/5
f 216/1/5 214/1/5 213/1/5
f 216/2/5 213/2/5 215/2/5
f 217/3/5 211/3/5 210/3/5
f 217/2/5 215/2/5 211/2/5
f 218/1/5 216/1/5 215/1/5
f 218/2/5 215/2/5 217/2/5
f 219/3/5 217/3/5 210/3/5
f 220/1/5 218/1/5 217/1/5
f 220/3/5 217/3/5 219/3/5
f 221/1/5 216/1/5 218/1/5
f 221/1/5 218/1/5 220/1/5
f 222/3/5 221/3/5 220/3/5
f 223/1/5 216/1/5 221/1/5
f 223/3/5 221/3/5 222/3/5
f 224/1/5 214/1/5 216/1/5
f 224/1/5 216/1/5 223/1/5
f 224/1/5 209/1/5 214/1/5
f 225/3/5 224/3/5 223/3/5
f 226/1/5 209/1/5 224/1/5
f 226/3/5 224/3/5 225/3/5
f 227/1/5 193/1/5 209/1/5
f 227/1/5 209/1/5 226/1/5
f 229/3/5 227/3/5 226/3/5
f 230/1/5 193/1/5 227/1/5
f 230/3/5 227/3/5 229/3/5
f 232/3/5 229/3/5 228/3/5
f 233/2/5 230/2/5 229/2/5
f 233/3/5 229/3/5 232/3/5
f 234/1/5 193/1/5 230/1/5
f 234/2/5 230/2/5 233/2/5
f 236/3/5 232/3/5 231/3/5
f 237/2/5 233/2/5 232/2/5
f 237/3/5 232/3/5 236/3/5
f 238/1/5 234/1/5 233/1/5
f 238/2/5 233/2/5 237/2/5
f 239/3/5 236/3/5 235/3/5
f 240/2/5 237/2/5 236/2/5
f 240/3/5 236/3/5 239/3/5
f 241/1/5 238/1/5 237/1/5
f 241/2/5 237/2/5 240/2/5
f 242/2/5 188/2/5 193/2/5
f 242/1/5 238/1/5 241/1/5
f 242/1/5 234/1/5 238/1/5
f 242/1/5 193/1/5 234/1/5
f 243/3/5 189/3/5 188/3/5
f 243/2/5 188/2/5 242/2/5
f 244/3/5 189/3/5 243/3/5
f 245/3/5 241/3/5 240/3/5
f 246/1/5 242/1/5 241/1/5
f 246/3/5 241/3/5 245/3/5
f 247/3/5 243/3/5 242/3/5
f 247/1/5 242/1/5 246/1/5
f 248/3/5 243/3/5 247/3/5
f 249/3/5 247/3/5 246/3/5
f 250/3/5 247/3/5 249/3/5
f 251/3/6 252/3/6 254/3/6
f 254/3/6 252/3/6 255/3/6
f 253/3/6 254/3/6 258/3/6
f 254/2/6 255/2/6 259/2/6
f 258/3/6 254/3/6 259/3/6
f 259/2/6 255/2/6 260/2/6
f 255/3/6 256/3/6 261/3/6
f 260/2/6 255/2/6 261/2/6
f 261/3/6 256/3/6 262/3/6
f 257/3/6 258/3/6 264/3/6
f 258/2/6 259/2/6 264/2/6
f 259/1/6 260/1/6 265/1/6
f 264/2/6 259/2/6 265/2/6
f 261/2/6 262/2/6 266/2/6
f 265/1/6 260/1/6 266/1/6
f 260/2/6 261/2/6 266/2/6
f 266/2/6 262/2/6 267/2/6
f 257/3/6 264/3/6 268/3/6
f 264/1/6 265/1/6 269/1/6
f 268/3/6 264/3/6 269/3/6
f 265/1/6 266/1/6 269/1/6
f 266/1/6 267/1/6 269/1/6
f 269/1/6 267/1/6 270/1/6
f 269/3/6 270/3/6 271/3/6
f 270/1/6 267/1/6 272/1/6
f 271/3/6 270/3/6 272/3/6
f 272/1/6 267/1/6 273/1/6
f 272/3/6 273/3/6 274/3/6
f 273/1/6 267/1/6 275/1/6
f 274/3/6 273/3/6 275/3/6
f 275/1/6 267/1/6 276/1/6
f 275/3/6 276/3/6 278/3/6
f 276/1/6 267/1/6 279/1/6
f 278/3/6 276/3/6 279/3/6
f 277/3/6 278/3/6 281/3/6
f 278/2/6 279/2/6 282/2/6
f 281/3/6 278/3/6 282/3/6
f 279/1/6 267/1/6 283/1/6
f 282/2/6 279/2/6 283/2/6
f 280/3/6 281/3/6 285/3/6
f 281/2/6 282/2/6 286/2/6
f 285/3/6 281/3/6 286/3/6
f 286/2/6 282/2/6 287/2/6
f 282/1/6 283/1/6 288/1/6
f 287/2/6 282/2/6 288/2/6
f 286/2/6 287/2/6 289/2/6
f 285/2/6 286/2/6 289/2/6
f 287/1/6 288/1/6 290/1/6
f 289/2/6 287/2/6 290/2/6
f 284/3/6 285/3/6 291/3/6
f 285/2/6 289/2/6 291/2/6
f 289/1/6 290/1/6 292/1/6
f 291/2/6 289/2/6 292/2/6
f 284/3/6 291/3/6 293/3/6
f 291/1/6 292/1/6 294/1/6
f 293/3/6 291/3/6 294/3/6
f 292/1/6 290/1/6 295/1/6
f 294/1/6 292/1/6 295/1/6
f 294/3/6 295/3/6 296/3/6
f 295/1/6 290/1/6 297/1/6
f 296/3/6 295/3/6 297/3/6
f 290/1/6 288/1/6 298/1/6
f 297/1/6 290/1/6 298/1/6
f 288/1/6 283/1/6 298/1/6
f 297/3/6 298/3/6 299/3/6
f 298/1/6 283/1/6 300/1/6
f 299/3/6 298/3/6 300/3/6
f 283/1/6 267/1/6 301/1/6
f 300/1/6 283/1/6 301/1/6
f 300/3/6 301/3/6 303/3/6
f 301/1/6 267/1/6 304/1/6
f 303/3/6 301/3/6 304/3/6
f 302/3/6 303/3/6 306/3/6
f 303/2/6 304/2/6 307/2/6
f 306/3/6 303/3/6 307/3/6
f 304/1/6 267/1/6 308/1/6
f 307/2/6 304/2/6 308/2/6
f 305/3/6 306/3/6 310/3/6
f 306/2/6 307/2/6 311/2/6
f 310/3/6 306/3/6 311/3/6
f 307/1/6 308/1/6 312/1/6
f 311/2/6 307/2/6 312/2/6
f 309/3/6 310/3/6 313/3/6
f 310/2/6 311/2/6 314/2/6
f 313/3/6 310/3/6 314/3/6
f 311/1/6 312/1/6 315/1/6
f 314/2/6 311/2/6 315/2/6
f 267/2/6 262/2/6 316/2/6
f 315/1/6 312/1/6 316/1/6
f 312/1/6 308/1/6 316/1/6
f 308/1/6 267/1/6 316/1/6
f 262/3/6 263/3/6 317/3/6
f 316/2/6 262/2/6 317/2/6
f 317/3/6 263/3/6 318/3/6
f 314/3/6 315/3/6 319/3/6
f 315/1/6 316/1/6 320/1/6
f 319/3/6 315/3/6 320/3/6
f 316/3/6 317/3/6 321/3/6
f 320/1/6 316/1/6 321/1/6
f 321/3/6 317/3/6 322/3/6
f 320/3/6 321/3/6 323/3/6
f 323/3/6 321/3/6 324/3/6
