# Blender 4.3.2
# www.blender.org
mtllib 3x3_tire_3.mtl
o Untitled
v -0.249999 -0.150000 0.050000
v -0.249999 -0.150000 -0.050000
v -0.249999 0.150000 0.050000
v -0.249999 0.150000 -0.050000
v -0.149999 -0.250000 0.050000
v -0.149999 -0.250000 -0.050000
v -0.149999 -0.150000 0.050000
v -0.149999 -0.150000 -0.050000
v -0.149999 0.150000 0.050000
v -0.149999 0.150000 -0.050000
v -0.149999 0.250000 0.050000
v -0.149999 0.250000 -0.050000
v 0.150001 -0.250000 0.050000
v 0.150001 -0.250000 -0.050000
v 0.150001 -0.150000 0.050000
v 0.150001 -0.150000 -0.050000
v 0.150001 0.150000 0.050000
v 0.150001 0.150000 -0.050000
v 0.150001 0.250000 0.050000
v 0.150001 0.250000 -0.050000
v 0.250001 -0.150000 0.050000
v 0.250001 -0.150000 -0.050000
v 0.250001 0.150000 0.050000
v 0.250001 0.150000 -0.050000
v -0.249999 -0.150000 0.050000
v -0.249999 0.150000 0.050000
v -0.149999 -0.250000 0.050000
v -0.149999 -0.150000 0.050000
v -0.149999 0.050000 0.050000
v -0.149999 0.150000 0.050000
v -0.149999 0.250000 0.050000
v -0.049999 -0.150000 0.050000
v -0.049999 -0.050000 0.050000
v -0.049999 0.050000 0.050000
v 0.050001 -0.050000 0.050000
v 0.050001 0.050000 0.050000
v 0.050001 0.150000 0.050000
v 0.150001 -0.250000 0.050000
v 0.150001 -0.150000 0.050000
v 0.150001 -0.050000 0.050000
v 0.150001 0.150000 0.050000
v 0.150001 0.250000 0.050000
v 0.250001 -0.150000 0.050000
v 0.250001 0.150000 0.050000
v -0.249999 -0.150000 -0.050000
v -0.249999 0.150000 -0.050000
v -0.149999 -0.250000 -0.050000
v -0.149999 -0.150000 -0.050000
v -0.149999 0.050000 -0.050000
v -0.149999 0.150000 -0.050000
v -0.149999 0.250000 -0.050000
v -0.049999 -0.150000 -0.050000
v -0.049999 -0.050000 -0.050000
v -0.049999 0.050000 -0.050000
v 0.050001 -0.050000 -0.050000
v 0.050001 0.050000 -0.050000
v 0.050001 0.150000 -0.050000
v 0.150001 -0.250000 -0.050000
v 0.150001 -0.150000 -0.050000
v 0.150001 -0.050000 -0.050000
v 0.150001 0.150000 -0.050000
v 0.150001 0.250000 -0.050000
v 0.250001 -0.150000 -0.050000
v 0.250001 0.150000 -0.050000
v -0.149999 -0.250000 0.050000
v 0.150001 -0.250000 0.050000
v -0.149999 -0.250000 -0.050000
v 0.150001 -0.250000 -0.050000
v -0.249999 -0.150000 0.050000
v -0.149999 -0.150000 0.050000
v 0.150001 -0.150000 0.050000
v 0.250001 -0.150000 0.050000
v -0.249999 -0.150000 -0.050000
v -0.149999 -0.150000 -0.050000
v 0.150001 -0.150000 -0.050000
v 0.250001 -0.150000 -0.050000
v -0.249999 0.150000 0.050000
v -0.149999 0.150000 0.050000
v 0.150001 0.150000 0.050000
v 0.250001 0.150000 0.050000
v -0.249999 0.150000 -0.050000
v -0.149999 0.150000 -0.050000
v 0.150001 0.150000 -0.050000
v 0.250001 0.150000 -0.050000
v -0.149999 0.250000 0.050000
v 0.150001 0.250000 0.050000
v -0.149999 0.250000 -0.050000
v 0.150001 0.250000 -0.050000
vn -1.0000 -0.0000 -0.0000
vn 1.0000 -0.0000 -0.0000
vn -0.0000 -0.0000 1.0000
vn -0.0000 -0.0000 -1.0000
vn -0.0000 -1.0000 -0.0000
vn -0.0000 1.0000 -0.0000
vt 0.994141 0.500000
vt 0.779297 0.500000
vt 0.841797 0.500000
vt 0.021484 0.500000
vt 0.748047 0.500000
s 1
usemtl palette.003
f 3/1/1 2/1/1 1/1/1
f 4/1/1 2/1/1 3/1/1
f 7/1/1 6/1/1 5/1/1
f 8/1/1 6/1/1 7/1/1
f 11/1/1 10/1/1 9/1/1
f 12/1/1 10/1/1 11/1/1
f 13/1/2 14/1/2 15/1/2
f 15/1/2 14/1/2 16/1/2
f 17/1/2 18/1/2 19/1/2
f 19/1/2 18/1/2 20/1/2
f 21/1/2 22/1/2 23/1/2
f 23/1/2 22/1/2 24/1/2
f 28/1/3 26/1/3 25/1/3
f 29/1/3 26/1/3 28/1/3
f 30/1/3 26/1/3 29/1/3
f 32/1/3 28/1/3 27/1/3
f 32/2/3 29/2/3 28/2/3
f 33/2/3 29/2/3 32/2/3
f 34/3/3 30/3/3 29/3/3
f 34/2/3 29/2/3 33/2/3
f 35/4/3 33/4/3 32/4/3
f 35/1/3 34/1/3 33/1/3
f 36/3/3 30/3/3 34/3/3
f 36/1/3 34/1/3 35/1/3
f 37/1/3 31/1/3 30/1/3
f 37/3/3 30/3/3 36/3/3
f 38/1/3 32/1/3 27/1/3
f 39/4/3 35/4/3 32/4/3
f 39/1/3 32/1/3 38/1/3
f 40/5/3 36/5/3 35/5/3
f 40/4/3 35/4/3 39/4/3
f 40/5/3 37/5/3 36/5/3
f 41/1/3 31/1/3 37/1/3
f 41/5/3 37/5/3 40/5/3
f 42/1/3 31/1/3 41/1/3
f 43/1/3 40/1/3 39/1/3
f 43/1/3 41/1/3 40/1/3
f 44/1/3 41/1/3 43/1/3
f 45/1/4 46/1/4 48/1/4
f 48/1/4 46/1/4 49/1/4
f 49/1/4 46/1/4 50/1/4
f 47/1/4 48/1/4 52/1/4
f 48/2/4 49/2/4 52/2/4
f 52/2/4 49/2/4 53/2/4
f 49/3/4 50/3/4 54/3/4
f 53/2/4 49/2/4 54/2/4
f 52/4/4 53/4/4 55/4/4
f 53/1/4 54/1/4 55/1/4
f 54/3/4 50/3/4 56/3/4
f 55/1/4 54/1/4 56/1/4
f 50/1/4 51/1/4 57/1/4
f 56/3/4 50/3/4 57/3/4
f 47/1/4 52/1/4 58/1/4
f 52/4/4 55/4/4 59/4/4
f 58/1/4 52/1/4 59/1/4
f 55/5/4 56/5/4 60/5/4
f 59/4/4 55/4/4 60/4/4
f 56/5/4 57/5/4 60/5/4
f 57/1/4 51/1/4 61/1/4
f 60/5/4 57/5/4 61/5/4
f 61/1/4 51/1/4 62/1/4
f 59/1/4 60/1/4 63/1/4
f 60/1/4 61/1/4 63/1/4
f 63/1/4 61/1/4 64/1/4
f 67/1/5 66/1/5 65/1/5
f 68/1/5 66/1/5 67/1/5
f 73/1/5 70/1/5 69/1/5
f 74/1/5 70/1/5 73/1/5
f 75/1/5 72/1/5 71/1/5
f 76/1/5 72/1/5 75/1/5
f 77/1/6 78/1/6 81/1/6
f 81/1/6 78/1/6 82/1/6
f 79/1/6 80/1/6 83/1/6
f 83/1/6 80/1/6 84/1/6
f 85/1/6 86/1/6 87/1/6
f 87/1/6 86/1/6 88/1/6
