# MagicaVoxel @ Ephtracy

# group
o 

# material
mtllib 3x3_tire_2.mtl
usemtl palette

# normals
vn -1 0 0
vn 1 0 0
vn 0 0 1
vn 0 0 -1
vn 0 -1 0
vn 0 1 0

# texcoords
vt 0.958984 0.5
vt 0.982422 0.5
vt 0.994141 0.5

# verts
v -1.5 0.1 0.6
v -1.5 0.1 0.5
v -1.5 0.4 0.6
v -1.5 0.4 0.5
v -1.4 0 0.6
v -1.4 0 0.5
v -1.4 0.1 0.6
v -1.4 0.1 0.5
v -1.4 0.4 0.6
v -1.4 0.4 0.5
v -1.4 0.5 0.6
v -1.4 0.5 0.5
v -1.1 0 0.6
v -1.1 0 0.5
v -1.1 0.1 0.6
v -1.1 0.1 0.5
v -1.1 0.4 0.6
v -1.1 0.4 0.5
v -1.1 0.5 0.6
v -1.1 0.5 0.5
v -1 0.1 0.6
v -1 0.1 0.5
v -1 0.4 0.6
v -1 0.4 0.5
v -1.5 0.1 0.6
v -1.5 0.4 0.6
v -1.4 0 0.6
v -1.4 0.1 0.6
v -1.4 0.2 0.6
v -1.4 0.4 0.6
v -1.4 0.5 0.6
v -1.3 0.2 0.6
v -1.3 0.3 0.6
v -1.2 0.2 0.6
v -1.2 0.3 0.6
v -1.1 0 0.6
v -1.1 0.1 0.6
v -1.1 0.3 0.6
v -1.1 0.4 0.6
v -1.1 0.5 0.6
v -1 0.1 0.6
v -1 0.4 0.6
v -1.5 0.1 0.5
v -1.5 0.4 0.5
v -1.4 0 0.5
v -1.4 0.1 0.5
v -1.4 0.2 0.5
v -1.4 0.4 0.5
v -1.4 0.5 0.5
v -1.3 0.2 0.5
v -1.3 0.3 0.5
v -1.2 0.2 0.5
v -1.2 0.3 0.5
v -1.1 0 0.5
v -1.1 0.1 0.5
v -1.1 0.3 0.5
v -1.1 0.4 0.5
v -1.1 0.5 0.5
v -1 0.1 0.5
v -1 0.4 0.5
v -1.4 0 0.6
v -1.1 0 0.6
v -1.4 0 0.5
v -1.1 0 0.5
v -1.5 0.1 0.6
v -1.4 0.1 0.6
v -1.1 0.1 0.6
v -1 0.1 0.6
v -1.5 0.1 0.5
v -1.4 0.1 0.5
v -1.1 0.1 0.5
v -1 0.1 0.5
v -1.5 0.4 0.6
v -1.4 0.4 0.6
v -1.1 0.4 0.6
v -1 0.4 0.6
v -1.5 0.4 0.5
v -1.4 0.4 0.5
v -1.1 0.4 0.5
v -1 0.4 0.5
v -1.4 0.5 0.6
v -1.1 0.5 0.6
v -1.4 0.5 0.5
v -1.1 0.5 0.5

# faces
f 3/3/1 2/3/1 1/3/1
f 4/3/1 2/3/1 3/3/1
f 7/3/1 6/3/1 5/3/1
f 8/3/1 6/3/1 7/3/1
f 11/3/1 10/3/1 9/3/1
f 12/3/1 10/3/1 11/3/1
f 13/3/2 14/3/2 15/3/2
f 15/3/2 14/3/2 16/3/2
f 17/3/2 18/3/2 19/3/2
f 19/3/2 18/3/2 20/3/2
f 21/3/2 22/3/2 23/3/2
f 23/3/2 22/3/2 24/3/2
f 28/3/3 26/3/3 25/3/3
f 29/3/3 26/3/3 28/3/3
f 30/3/3 26/3/3 29/3/3
f 32/2/3 29/2/3 28/2/3
f 32/1/3 30/1/3 29/1/3
f 33/1/3 30/1/3 32/1/3
f 34/2/3 32/2/3 28/2/3
f 34/3/3 33/3/3 32/3/3
f 35/1/3 30/1/3 33/1/3
f 35/3/3 33/3/3 34/3/3
f 36/3/3 28/3/3 27/3/3
f 37/2/3 34/2/3 28/2/3
f 37/3/3 28/3/3 36/3/3
f 37/2/3 35/2/3 34/2/3
f 38/1/3 30/1/3 35/1/3
f 38/2/3 35/2/3 37/2/3
f 39/3/3 31/3/3 30/3/3
f 39/1/3 30/1/3 38/1/3
f 40/3/3 31/3/3 39/3/3
f 41/3/3 38/3/3 37/3/3
f 41/3/3 39/3/3 38/3/3
f 42/3/3 39/3/3 41/3/3
f 43/3/4 44/3/4 46/3/4
f 46/3/4 44/3/4 47/3/4
f 47/3/4 44/3/4 48/3/4
f 46/2/4 47/2/4 50/2/4
f 47/1/4 48/1/4 50/1/4
f 50/1/4 48/1/4 51/1/4
f 46/2/4 50/2/4 52/2/4
f 50/3/4 51/3/4 52/3/4
f 51/1/4 48/1/4 53/1/4
f 52/3/4 51/3/4 53/3/4
f 45/3/4 46/3/4 54/3/4
f 46/2/4 52/2/4 55/2/4
f 54/3/4 46/3/4 55/3/4
f 52/2/4 53/2/4 55/2/4
f 53/1/4 48/1/4 56/1/4
f 55/2/4 53/2/4 56/2/4
f 48/3/4 49/3/4 57/3/4
f 56/1/4 48/1/4 57/1/4
f 57/3/4 49/3/4 58/3/4
f 55/3/4 56/3/4 59/3/4
f 56/3/4 57/3/4 59/3/4
f 59/3/4 57/3/4 60/3/4
f 63/3/5 62/3/5 61/3/5
f 64/3/5 62/3/5 63/3/5
f 69/3/5 66/3/5 65/3/5
f 70/3/5 66/3/5 69/3/5
f 71/3/5 68/3/5 67/3/5
f 72/3/5 68/3/5 71/3/5
f 73/3/6 74/3/6 77/3/6
f 77/3/6 74/3/6 78/3/6
f 75/3/6 76/3/6 79/3/6
f 79/3/6 76/3/6 80/3/6
f 81/3/6 82/3/6 83/3/6
f 83/3/6 82/3/6 84/3/6
