# MagicaVoxel @ Ephtracy

# group
o 

# material
mtllib 3x3_tire_3.mtl
usemtl palette

# normals
vn -1 0 0
vn 1 0 0
vn 0 0 1
vn 0 0 -1
vn 0 -1 0
vn 0 1 0

# texcoords
vt 0.0214844 0.5
vt 0.748047 0.5
vt 0.779297 0.5
vt 0.841797 0.5
vt 0.994141 0.5

# verts
v -1.5 0.1 0.6
v -1.5 0.1 0.5
v -1.5 0.4 0.6
v -1.5 0.4 0.5
v -1.4 0 0.6
v -1.4 0 0.5
v -1.4 0.1 0.6
v -1.4 0.1 0.5
v -1.4 0.4 0.6
v -1.4 0.4 0.5
v -1.4 0.5 0.6
v -1.4 0.5 0.5
v -1.1 0 0.6
v -1.1 0 0.5
v -1.1 0.1 0.6
v -1.1 0.1 0.5
v -1.1 0.4 0.6
v -1.1 0.4 0.5
v -1.1 0.5 0.6
v -1.1 0.5 0.5
v -1 0.1 0.6
v -1 0.1 0.5
v -1 0.4 0.6
v -1 0.4 0.5
v -1.5 0.1 0.6
v -1.5 0.4 0.6
v -1.4 0 0.6
v -1.4 0.1 0.6
v -1.4 0.3 0.6
v -1.4 0.4 0.6
v -1.4 0.5 0.6
v -1.3 0.1 0.6
v -1.3 0.2 0.6
v -1.3 0.3 0.6
v -1.2 0.2 0.6
v -1.2 0.3 0.6
v -1.2 0.4 0.6
v -1.1 0 0.6
v -1.1 0.1 0.6
v -1.1 0.2 0.6
v -1.1 0.4 0.6
v -1.1 0.5 0.6
v -1 0.1 0.6
v -1 0.4 0.6
v -1.5 0.1 0.5
v -1.5 0.4 0.5
v -1.4 0 0.5
v -1.4 0.1 0.5
v -1.4 0.3 0.5
v -1.4 0.4 0.5
v -1.4 0.5 0.5
v -1.3 0.1 0.5
v -1.3 0.2 0.5
v -1.3 0.3 0.5
v -1.2 0.2 0.5
v -1.2 0.3 0.5
v -1.2 0.4 0.5
v -1.1 0 0.5
v -1.1 0.1 0.5
v -1.1 0.2 0.5
v -1.1 0.4 0.5
v -1.1 0.5 0.5
v -1 0.1 0.5
v -1 0.4 0.5
v -1.4 0 0.6
v -1.1 0 0.6
v -1.4 0 0.5
v -1.1 0 0.5
v -1.5 0.1 0.6
v -1.4 0.1 0.6
v -1.1 0.1 0.6
v -1 0.1 0.6
v -1.5 0.1 0.5
v -1.4 0.1 0.5
v -1.1 0.1 0.5
v -1 0.1 0.5
v -1.5 0.4 0.6
v -1.4 0.4 0.6
v -1.1 0.4 0.6
v -1 0.4 0.6
v -1.5 0.4 0.5
v -1.4 0.4 0.5
v -1.1 0.4 0.5
v -1 0.4 0.5
v -1.4 0.5 0.6
v -1.1 0.5 0.6
v -1.4 0.5 0.5
v -1.1 0.5 0.5

# faces
f 3/5/1 2/5/1 1/5/1
f 4/5/1 2/5/1 3/5/1
f 7/5/1 6/5/1 5/5/1
f 8/5/1 6/5/1 7/5/1
f 11/5/1 10/5/1 9/5/1
f 12/5/1 10/5/1 11/5/1
f 13/5/2 14/5/2 15/5/2
f 15/5/2 14/5/2 16/5/2
f 17/5/2 18/5/2 19/5/2
f 19/5/2 18/5/2 20/5/2
f 21/5/2 22/5/2 23/5/2
f 23/5/2 22/5/2 24/5/2
f 28/5/3 26/5/3 25/5/3
f 29/5/3 26/5/3 28/5/3
f 30/5/3 26/5/3 29/5/3
f 32/5/3 28/5/3 27/5/3
f 32/3/3 29/3/3 28/3/3
f 33/3/3 29/3/3 32/3/3
f 34/4/3 30/4/3 29/4/3
f 34/3/3 29/3/3 33/3/3
f 35/1/3 33/1/3 32/1/3
f 35/5/3 34/5/3 33/5/3
f 36/4/3 30/4/3 34/4/3
f 36/5/3 34/5/3 35/5/3
f 37/5/3 31/5/3 30/5/3
f 37/4/3 30/4/3 36/4/3
f 38/5/3 32/5/3 27/5/3
f 39/1/3 35/1/3 32/1/3
f 39/5/3 32/5/3 38/5/3
f 40/2/3 36/2/3 35/2/3
f 40/1/3 35/1/3 39/1/3
f 40/2/3 37/2/3 36/2/3
f 41/5/3 31/5/3 37/5/3
f 41/2/3 37/2/3 40/2/3
f 42/5/3 31/5/3 41/5/3
f 43/5/3 40/5/3 39/5/3
f 43/5/3 41/5/3 40/5/3
f 44/5/3 41/5/3 43/5/3
f 45/5/4 46/5/4 48/5/4
f 48/5/4 46/5/4 49/5/4
f 49/5/4 46/5/4 50/5/4
f 47/5/4 48/5/4 52/5/4
f 48/3/4 49/3/4 52/3/4
f 52/3/4 49/3/4 53/3/4
f 49/4/4 50/4/4 54/4/4
f 53/3/4 49/3/4 54/3/4
f 52/1/4 53/1/4 55/1/4
f 53/5/4 54/5/4 55/5/4
f 54/4/4 50/4/4 56/4/4
f 55/5/4 54/5/4 56/5/4
f 50/5/4 51/5/4 57/5/4
f 56/4/4 50/4/4 57/4/4
f 47/5/4 52/5/4 58/5/4
f 52/1/4 55/1/4 59/1/4
f 58/5/4 52/5/4 59/5/4
f 55/2/4 56/2/4 60/2/4
f 59/1/4 55/1/4 60/1/4
f 56/2/4 57/2/4 60/2/4
f 57/5/4 51/5/4 61/5/4
f 60/2/4 57/2/4 61/2/4
f 61/5/4 51/5/4 62/5/4
f 59/5/4 60/5/4 63/5/4
f 60/5/4 61/5/4 63/5/4
f 63/5/4 61/5/4 64/5/4
f 67/5/5 66/5/5 65/5/5
f 68/5/5 66/5/5 67/5/5
f 73/5/5 70/5/5 69/5/5
f 74/5/5 70/5/5 73/5/5
f 75/5/5 72/5/5 71/5/5
f 76/5/5 72/5/5 75/5/5
f 77/5/6 78/5/6 81/5/6
f 81/5/6 78/5/6 82/5/6
f 79/5/6 80/5/6 83/5/6
f 83/5/6 80/5/6 84/5/6
f 85/5/6 86/5/6 87/5/6
f 87/5/6 86/5/6 88/5/6
