# MagicaVoxel @ Ephtracy

# group
o 

# material
mtllib banan2.mtl
usemtl palette

# normals
vn -1 0 0
vn 1 0 0
vn 0 0 1
vn 0 0 -1
vn 0 -1 0
vn 0 1 0

# texcoords
vt 0.0175781 0.5
vt 0.185547 0.5
vt 0.990234 0.5

# verts
v -1 0 0
v -1 0 -0.1
v -1 0.1 0
v -1 0.1 -0.1
v -0.8 0 0.2
v -0.8 0 0
v -0.8 0 -0.1
v -0.8 0 -0.2
v -0.8 0.1 0.2
v -0.8 0.1 0
v -0.8 0.1 -0.1
v -0.8 0.1 -0.2
v -0.8 0.1 -0.3
v -0.8 0.2 0
v -0.8 0.2 -0.1
v -0.8 0.2 -0.2
v -0.8 0.2 -0.3
v -0.8 0.3 0
v -0.8 0.3 -0.1
v -0.6 0 0.1
v -0.6 0 0
v -0.6 0.1 0.1
v -0.6 0.1 0
v -0.7 0 0.2
v -0.7 0 0
v -0.7 0 -0.1
v -0.7 0 -0.2
v -0.7 0.1 0.2
v -0.7 0.1 0
v -0.7 0.1 -0.1
v -0.7 0.1 -0.2
v -0.7 0.1 -0.3
v -0.7 0.2 0
v -0.7 0.2 -0.1
v -0.7 0.2 -0.2
v -0.7 0.2 -0.3
v -0.7 0.3 0
v -0.7 0.3 -0.1
v -0.6 0 0
v -0.6 0 -0.1
v -0.6 0.1 0
v -0.6 0.1 -0.1
v -0.5 0 0.1
v -0.5 0 0
v -0.5 0.1 0.1
v -0.5 0.1 0
v -0.8 0 0.2
v -0.8 0.1 0.2
v -0.7 0 0.2
v -0.7 0.1 0.2
v -0.6 0 0.1
v -0.6 0.1 0.1
v -0.5 0 0.1
v -0.5 0.1 0.1
v -1 0 0
v -1 0.1 0
v -0.9 0 0
v -0.9 0.1 0
v -0.8 0 0
v -0.8 0.1 0
v -0.8 0.2 0
v -0.8 0.3 0
v -0.7 0 0
v -0.7 0.1 0
v -0.7 0.2 0
v -0.7 0.3 0
v -0.6 0 0
v -0.6 0.1 0
v -0.8 0.1 -0.2
v -0.8 0.2 -0.2
v -0.7 0.1 -0.2
v -0.7 0.2 -0.2
v -0.6 0 0
v -0.6 0.1 0
v -0.5 0 0
v -0.5 0.1 0
v -1 0 -0.1
v -1 0.1 -0.1
v -0.9 0 -0.1
v -0.9 0.1 -0.1
v -0.8 0 -0.1
v -0.8 0.1 -0.1
v -0.8 0.2 -0.1
v -0.8 0.3 -0.1
v -0.7 0 -0.1
v -0.7 0.1 -0.1
v -0.7 0.2 -0.1
v -0.7 0.3 -0.1
v -0.6 0 -0.1
v -0.6 0.1 -0.1
v -0.8 0 -0.2
v -0.8 0.1 -0.2
v -0.7 0 -0.2
v -0.7 0.1 -0.2
v -0.8 0.1 -0.3
v -0.8 0.2 -0.3
v -0.7 0.1 -0.3
v -0.7 0.2 -0.3
v -0.8 0 0.2
v -0.7 0 0.2
v -0.6 0 0.1
v -0.5 0 0.1
v -1 0 0
v -0.9 0 0
v -0.8 0 0
v -0.7 0 0
v -0.6 0 0
v -0.5 0 0
v -1 0 -0.1
v -0.9 0 -0.1
v -0.8 0 -0.1
v -0.7 0 -0.1
v -0.6 0 -0.1
v -0.8 0 -0.2
v -0.7 0 -0.2
v -0.8 0.1 -0.2
v -0.7 0.1 -0.2
v -0.8 0.1 -0.3
v -0.7 0.1 -0.3
v -0.8 0.1 0.2
v -0.7 0.1 0.2
v -0.6 0.1 0.1
v -0.5 0.1 0.1
v -1 0.1 0
v -0.9 0.1 0
v -0.8 0.1 0
v -0.7 0.1 0
v -0.6 0.1 0
v -0.5 0.1 0
v -1 0.1 -0.1
v -0.9 0.1 -0.1
v -0.8 0.1 -0.1
v -0.7 0.1 -0.1
v -0.6 0.1 -0.1
v -0.8 0.1 -0.2
v -0.7 0.1 -0.2
v -0.8 0.2 -0.2
v -0.7 0.2 -0.2
v -0.8 0.2 -0.3
v -0.7 0.2 -0.3
v -0.8 0.3 0
v -0.7 0.3 0
v -0.8 0.3 -0.1
v -0.7 0.3 -0.1

# faces
f 3/2/1 2/2/1 1/2/1
f 4/2/1 2/2/1 3/2/1
f 9/1/1 6/1/1 5/1/1
f 10/1/1 6/1/1 9/1/1
f 11/2/1 8/2/1 7/2/1
f 12/2/1 8/2/1 11/2/1
f 14/1/1 11/1/1 10/1/1
f 15/1/1 11/1/1 14/1/1
f 16/2/1 13/2/1 12/2/1
f 17/2/1 13/2/1 16/2/1
f 18/3/1 15/3/1 14/3/1
f 19/3/1 15/3/1 18/3/1
f 22/1/1 21/1/1 20/1/1
f 23/1/1 21/1/1 22/1/1
f 24/1/2 25/1/2 28/1/2
f 28/1/2 25/1/2 29/1/2
f 26/2/2 27/2/2 30/2/2
f 30/2/2 27/2/2 31/2/2
f 29/1/2 30/1/2 33/1/2
f 33/1/2 30/1/2 34/1/2
f 31/2/2 32/2/2 35/2/2
f 35/2/2 32/2/2 36/2/2
f 33/3/2 34/3/2 37/3/2
f 37/3/2 34/3/2 38/3/2
f 39/1/2 40/1/2 41/1/2
f 41/1/2 40/1/2 42/1/2
f 43/1/2 44/1/2 45/1/2
f 45/1/2 44/1/2 46/1/2
f 49/1/3 48/1/3 47/1/3
f 50/1/3 48/1/3 49/1/3
f 53/1/3 52/1/3 51/1/3
f 54/1/3 52/1/3 53/1/3
f 57/2/3 56/2/3 55/2/3
f 58/2/3 56/2/3 57/2/3
f 59/1/3 58/1/3 57/1/3
f 60/1/3 58/1/3 59/1/3
f 64/1/3 61/1/3 60/1/3
f 65/3/3 62/3/3 61/3/3
f 65/1/3 61/1/3 64/1/3
f 66/3/3 62/3/3 65/3/3
f 67/1/3 64/1/3 63/1/3
f 68/1/3 64/1/3 67/1/3
f 71/2/3 70/2/3 69/2/3
f 72/2/3 70/2/3 71/2/3
f 73/1/4 74/1/4 75/1/4
f 75/1/4 74/1/4 76/1/4
f 77/2/4 78/2/4 79/2/4
f 79/2/4 78/2/4 80/2/4
f 79/1/4 80/1/4 81/1/4
f 81/1/4 80/1/4 82/1/4
f 82/1/4 83/1/4 86/1/4
f 83/3/4 84/3/4 87/3/4
f 86/1/4 83/1/4 87/1/4
f 87/3/4 84/3/4 88/3/4
f 85/1/4 86/1/4 89/1/4
f 89/1/4 86/1/4 90/1/4
f 91/2/4 92/2/4 93/2/4
f 93/2/4 92/2/4 94/2/4
f 95/2/4 96/2/4 97/2/4
f 97/2/4 96/2/4 98/2/4
f 105/1/5 100/1/5 99/1/5
f 106/1/5 100/1/5 105/1/5
f 107/1/5 102/1/5 101/1/5
f 108/1/5 102/1/5 107/1/5
f 109/2/5 104/2/5 103/2/5
f 110/1/5 106/1/5 105/1/5
f 110/2/5 104/2/5 109/2/5
f 110/1/5 105/1/5 104/1/5
f 110/1/5 107/1/5 106/1/5
f 111/1/5 107/1/5 110/1/5
f 112/1/5 107/1/5 111/1/5
f 113/1/5 107/1/5 112/1/5
f 114/2/5 112/2/5 111/2/5
f 115/2/5 112/2/5 114/2/5
f 118/2/5 117/2/5 116/2/5
f 119/2/5 117/2/5 118/2/5
f 120/1/6 121/1/6 126/1/6
f 126/1/6 121/1/6 127/1/6
f 122/1/6 123/1/6 128/1/6
f 128/1/6 123/1/6 129/1/6
f 124/2/6 125/2/6 130/2/6
f 125/1/6 126/1/6 131/1/6
f 130/2/6 125/2/6 131/2/6
f 131/1/6 126/1/6 132/1/6
f 127/1/6 128/1/6 133/1/6
f 133/1/6 128/1/6 134/1/6
f 132/2/6 133/2/6 135/2/6
f 135/2/6 133/2/6 136/2/6
f 137/2/6 138/2/6 139/2/6
f 139/2/6 138/2/6 140/2/6
f 141/3/6 142/3/6 143/3/6
f 143/3/6 142/3/6 144/3/6
