# MagicaVoxel @ Ephtracy

# group
o 

# material
mtllib banan.mtl
usemtl palette

# normals
vn -1 0 0
vn 1 0 0
vn 0 0 1
vn 0 0 -1
vn 0 -1 0
vn 0 1 0

# texcoords
vt 0.0175781 0.5
vt 0.185547 0.5
vt 0.990234 0.5

# verts
v -0.2 0.1 0
v -0.2 0.1 -0.1
v -0.2 0.2 0
v -0.2 0.2 -0.1
v -0.1 0 0
v -0.1 0 -0.2
v -0.1 0.1 0
v -0.1 0.1 -0.1
v -0.1 0.1 -0.2
v 0 0 0.1
v 0 0 0
v 0 0.1 0.2
v 0 0.1 0.1
v 0 0.1 0
v 0 0.1 -0.1
v 0 0.2 0.2
v 0 0.2 0.1
v 0 0.2 0
v 0 0.2 -0.1
v 0 0.3 0
v 0 0.3 -0.1
v -0.1 0.1 0
v -0.1 0.1 -0.1
v -0.1 0.2 0
v -0.1 0.2 -0.1
v 0.1 0 0.1
v 0.1 0 0
v 0.1 0 -0.1
v 0.1 0 -0.2
v 0.1 0.1 0.2
v 0.1 0.1 0.1
v 0.1 0.1 0
v 0.1 0.1 -0.1
v 0.1 0.1 -0.2
v 0.1 0.2 0.2
v 0.1 0.2 0.1
v 0.1 0.2 0
v 0.1 0.2 -0.1
v 0.1 0.3 0
v 0.1 0.3 -0.1
v 0.3 0 0
v 0.3 0 -0.1
v 0.3 0.1 0
v 0.3 0.1 -0.1
v 0 0.1 0.2
v 0 0.2 0.2
v 0.1 0.1 0.2
v 0.1 0.2 0.2
v 0 0 0.1
v 0 0.1 0.1
v 0.1 0 0.1
v 0.1 0.1 0.1
v -0.2 0.1 0
v -0.2 0.2 0
v -0.1 0 0
v -0.1 0.1 0
v -0.1 0.2 0
v 0 0 0
v 0 0.1 0
v 0 0.2 0
v 0 0.3 0
v 0.1 0 0
v 0.1 0.1 0
v 0.1 0.2 0
v 0.1 0.3 0
v 0.2 0 0
v 0.2 0.1 0
v 0.3 0 0
v 0.3 0.1 0
v 0 0.1 0.1
v 0 0.2 0.1
v 0.1 0.1 0.1
v 0.1 0.2 0.1
v -0.2 0.1 -0.1
v -0.2 0.2 -0.1
v -0.1 0.1 -0.1
v -0.1 0.2 -0.1
v 0 0.1 -0.1
v 0 0.2 -0.1
v 0 0.3 -0.1
v 0.1 0 -0.1
v 0.1 0.1 -0.1
v 0.1 0.2 -0.1
v 0.1 0.3 -0.1
v 0.2 0 -0.1
v 0.2 0.1 -0.1
v 0.3 0 -0.1
v 0.3 0.1 -0.1
v -0.1 0 -0.2
v -0.1 0.1 -0.2
v 0 0 -0.2
v 0 0.1 -0.2
v 0.1 0 -0.2
v 0.1 0.1 -0.2
v 0 0 0.1
v 0.1 0 0.1
v -0.1 0 0
v 0 0 0
v 0.1 0 0
v 0.2 0 0
v 0.3 0 0
v 0 0 -0.1
v 0.1 0 -0.1
v 0.2 0 -0.1
v 0.3 0 -0.1
v -0.1 0 -0.2
v 0 0 -0.2
v 0.1 0 -0.2
v 0 0.1 0.2
v 0.1 0.1 0.2
v 0 0.1 0.1
v 0.1 0.1 0.1
v -0.2 0.1 0
v -0.1 0.1 0
v -0.2 0.1 -0.1
v -0.1 0.1 -0.1
v 0 0.1 0.1
v 0.1 0.1 0.1
v -0.1 0.1 0
v 0 0.1 0
v 0.1 0.1 0
v 0.2 0.1 0
v 0.3 0.1 0
v -0.1 0.1 -0.1
v 0 0.1 -0.1
v 0.1 0.1 -0.1
v 0.2 0.1 -0.1
v 0.3 0.1 -0.1
v -0.1 0.1 -0.2
v 0 0.1 -0.2
v 0.1 0.1 -0.2
v 0 0.2 0.2
v 0.1 0.2 0.2
v 0 0.2 0.1
v 0.1 0.2 0.1
v -0.2 0.2 0
v -0.1 0.2 0
v -0.2 0.2 -0.1
v -0.1 0.2 -0.1
v 0 0.3 0
v 0.1 0.3 0
v 0 0.3 -0.1
v 0.1 0.3 -0.1

# faces
f 3/2/1 2/2/1 1/2/1
f 4/2/1 2/2/1 3/2/1
f 7/1/1 6/1/1 5/1/1
f 8/1/1 6/1/1 7/1/1
f 9/1/1 6/1/1 8/1/1
f 13/1/1 11/1/1 10/1/1
f 14/1/1 11/1/1 13/1/1
f 16/1/1 13/1/1 12/1/1
f 17/1/1 13/1/1 16/1/1
f 18/2/1 15/2/1 14/2/1
f 19/2/1 15/2/1 18/2/1
f 20/3/1 19/3/1 18/3/1
f 21/3/1 19/3/1 20/3/1
f 22/2/2 23/2/2 24/2/2
f 24/2/2 23/2/2 25/2/2
f 26/1/2 27/1/2 31/1/2
f 31/1/2 27/1/2 32/1/2
f 28/2/2 29/2/2 33/2/2
f 33/2/2 29/2/2 34/2/2
f 30/1/2 31/1/2 35/1/2
f 35/1/2 31/1/2 36/1/2
f 32/2/2 33/2/2 37/2/2
f 37/2/2 33/2/2 38/2/2
f 37/3/2 38/3/2 39/3/2
f 39/3/2 38/3/2 40/3/2
f 41/2/2 42/2/2 43/2/2
f 43/2/2 42/2/2 44/2/2
f 47/1/3 46/1/3 45/1/3
f 48/1/3 46/1/3 47/1/3
f 51/1/3 50/1/3 49/1/3
f 52/1/3 50/1/3 51/1/3
f 56/2/3 54/2/3 53/2/3
f 57/2/3 54/2/3 56/2/3
f 58/1/3 56/1/3 55/1/3
f 59/1/3 56/1/3 58/1/3
f 63/2/3 60/2/3 59/2/3
f 64/3/3 61/3/3 60/3/3
f 64/2/3 60/2/3 63/2/3
f 65/3/3 61/3/3 64/3/3
f 66/1/3 63/1/3 62/1/3
f 67/1/3 63/1/3 66/1/3
f 68/2/3 67/2/3 66/2/3
f 69/2/3 67/2/3 68/2/3
f 70/1/4 71/1/4 72/1/4
f 72/1/4 71/1/4 73/1/4
f 74/2/4 75/2/4 76/2/4
f 76/2/4 75/2/4 77/2/4
f 78/2/4 79/2/4 82/2/4
f 79/3/4 80/3/4 83/3/4
f 82/2/4 79/2/4 83/2/4
f 83/3/4 80/3/4 84/3/4
f 81/1/4 82/1/4 85/1/4
f 85/1/4 82/1/4 86/1/4
f 85/2/4 86/2/4 87/2/4
f 87/2/4 86/2/4 88/2/4
f 89/1/4 90/1/4 91/1/4
f 91/1/4 90/1/4 92/1/4
f 91/2/4 92/2/4 93/2/4
f 93/2/4 92/2/4 94/2/4
f 98/1/5 96/1/5 95/1/5
f 99/1/5 96/1/5 98/1/5
f 102/1/5 98/1/5 97/1/5
f 102/1/5 99/1/5 98/1/5
f 102/1/5 100/1/5 99/1/5
f 103/1/5 100/1/5 102/1/5
f 104/2/5 101/2/5 100/2/5
f 104/1/5 100/1/5 103/1/5
f 105/2/5 101/2/5 104/2/5
f 106/1/5 102/1/5 97/1/5
f 107/2/5 103/2/5 102/2/5
f 107/1/5 102/1/5 106/1/5
f 108/2/5 103/2/5 107/2/5
f 111/1/5 110/1/5 109/1/5
f 112/1/5 110/1/5 111/1/5
f 115/2/5 114/2/5 113/2/5
f 116/2/5 114/2/5 115/2/5
f 117/1/6 118/1/6 120/1/6
f 120/1/6 118/1/6 121/1/6
f 119/1/6 120/1/6 124/1/6
f 124/1/6 120/1/6 125/1/6
f 121/1/6 122/1/6 126/1/6
f 122/2/6 123/2/6 127/2/6
f 126/1/6 122/1/6 127/1/6
f 127/2/6 123/2/6 128/2/6
f 124/1/6 125/1/6 129/1/6
f 125/2/6 126/2/6 130/2/6
f 129/1/6 125/1/6 130/1/6
f 130/2/6 126/2/6 131/2/6
f 132/1/6 133/1/6 134/1/6
f 134/1/6 133/1/6 135/1/6
f 136/2/6 137/2/6 138/2/6
f 138/2/6 137/2/6 139/2/6
f 140/3/6 141/3/6 142/3/6
f 142/3/6 141/3/6 143/3/6
