# MagicaVoxel @ Ephtracy

# group
o 

# material
mtllib barrel.mtl
usemtl palette

# normals
vn -1 0 0
vn 1 0 0
vn 0 0 1
vn 0 0 -1
vn 0 -1 0
vn 0 1 0

# texcoords
vt 0.373047 0.5
vt 0.533203 0.5
vt 0.537109 0.5

# verts
v -0.2 0 0
v -0.2 0 -0.1
v -0.2 0.1 0.1
v -0.2 0.1 0
v -0.2 0.1 -0.1
v -0.2 0.1 -0.2
v -0.2 0.2 0.1
v -0.2 0.2 0
v -0.2 0.2 -0.1
v -0.2 0.2 -0.2
v -0.2 0.5 0.1
v -0.2 0.5 0
v -0.2 0.5 -0.1
v -0.2 0.5 -0.2
v -0.2 0.6 0.1
v -0.2 0.6 0
v -0.2 0.6 -0.1
v -0.2 0.6 -0.2
v -0.2 0.7 0
v -0.2 0.7 -0.1
v -0.1 0 0.1
v -0.1 0 0
v -0.1 0 -0.1
v -0.1 0 -0.2
v -0.1 0.1 0.2
v -0.1 0.1 0.1
v -0.1 0.1 0
v -0.1 0.1 -0.1
v -0.1 0.1 -0.2
v -0.1 0.1 -0.3
v -0.1 0.2 0.2
v -0.1 0.2 0.1
v -0.1 0.2 -0.2
v -0.1 0.2 -0.3
v -0.1 0.5 0.2
v -0.1 0.5 0.1
v -0.1 0.5 -0.2
v -0.1 0.5 -0.3
v -0.1 0.6 0.2
v -0.1 0.6 0.1
v -0.1 0.6 0
v -0.1 0.6 -0.1
v -0.1 0.6 -0.2
v -0.1 0.6 -0.3
v -0.1 0.7 0.1
v -0.1 0.7 0
v -0.1 0.7 -0.1
v -0.1 0.7 -0.2
v 0 0 0.2
v 0 0 0.1
v 0 0 -0.2
v 0 0 -0.3
v 0 0.1 0.2
v 0 0.1 0.1
v 0 0.1 -0.2
v 0 0.1 -0.3
v 0 0.6 0.2
v 0 0.6 0.1
v 0 0.6 -0.2
v 0 0.6 -0.3
v 0 0.7 0.2
v 0 0.7 0.1
v 0 0.7 -0.2
v 0 0.7 -0.3
v 0.1 0 0.2
v 0.1 0 0.1
v 0.1 0 -0.2
v 0.1 0 -0.3
v 0.1 0.1 0.2
v 0.1 0.1 0.1
v 0.1 0.1 -0.2
v 0.1 0.1 -0.3
v 0.1 0.6 0.2
v 0.1 0.6 0.1
v 0.1 0.6 -0.2
v 0.1 0.6 -0.3
v 0.1 0.7 0.2
v 0.1 0.7 0.1
v 0.1 0.7 -0.2
v 0.1 0.7 -0.3
v 0.2 0 0.1
v 0.2 0 0
v 0.2 0 -0.1
v 0.2 0 -0.2
v 0.2 0.1 0.2
v 0.2 0.1 0.1
v 0.2 0.1 0
v 0.2 0.1 -0.1
v 0.2 0.1 -0.2
v 0.2 0.1 -0.3
v 0.2 0.2 0.2
v 0.2 0.2 0.1
v 0.2 0.2 -0.2
v 0.2 0.2 -0.3
v 0.2 0.5 0.2
v 0.2 0.5 0.1
v 0.2 0.5 -0.2
v 0.2 0.5 -0.3
v 0.2 0.6 0.2
v 0.2 0.6 0.1
v 0.2 0.6 0
v 0.2 0.6 -0.1
v 0.2 0.6 -0.2
v 0.2 0.6 -0.3
v 0.2 0.7 0.1
v 0.2 0.7 0
v 0.2 0.7 -0.1
v 0.2 0.7 -0.2
v 0.3 0 0
v 0.3 0 -0.1
v 0.3 0.1 0.1
v 0.3 0.1 0
v 0.3 0.1 -0.1
v 0.3 0.1 -0.2
v 0.3 0.2 0.1
v 0.3 0.2 0
v 0.3 0.2 -0.1
v 0.3 0.2 -0.2
v 0.3 0.5 0.1
v 0.3 0.5 0
v 0.3 0.5 -0.1
v 0.3 0.5 -0.2
v 0.3 0.6 0.1
v 0.3 0.6 0
v 0.3 0.6 -0.1
v 0.3 0.6 -0.2
v 0.3 0.7 0
v 0.3 0.7 -0.1
v -0.1 0.1 0.2
v -0.1 0.2 0.2
v -0.1 0.5 0.2
v -0.1 0.6 0.2
v 0 0 0.2
v 0 0.1 0.2
v 0 0.2 0.2
v 0 0.5 0.2
v 0 0.6 0.2
v 0 0.7 0.2
v 0.1 0 0.2
v 0.1 0.1 0.2
v 0.1 0.2 0.2
v 0.1 0.5 0.2
v 0.1 0.6 0.2
v 0.1 0.7 0.2
v 0.2 0.1 0.2
v 0.2 0.2 0.2
v 0.2 0.5 0.2
v 0.2 0.6 0.2
v -0.2 0.1 0.1
v -0.2 0.2 0.1
v -0.2 0.5 0.1
v -0.2 0.6 0.1
v -0.1 0 0.1
v -0.1 0.1 0.1
v -0.1 0.2 0.1
v -0.1 0.5 0.1
v -0.1 0.6 0.1
v -0.1 0.7 0.1
v 0 0 0.1
v 0 0.1 0.1
v 0 0.6 0.1
v 0 0.7 0.1
v 0.1 0 0.1
v 0.1 0.1 0.1
v 0.1 0.6 0.1
v 0.1 0.7 0.1
v 0.2 0 0.1
v 0.2 0.1 0.1
v 0.2 0.2 0.1
v 0.2 0.5 0.1
v 0.2 0.6 0.1
v 0.2 0.7 0.1
v 0.3 0.1 0.1
v 0.3 0.2 0.1
v 0.3 0.5 0.1
v 0.3 0.6 0.1
v -0.2 0 0
v -0.2 0.1 0
v -0.2 0.6 0
v -0.2 0.7 0
v -0.1 0 0
v -0.1 0.1 0
v -0.1 0.6 0
v -0.1 0.7 0
v 0.2 0 0
v 0.2 0.1 0
v 0.2 0.6 0
v 0.2 0.7 0
v 0.3 0 0
v 0.3 0.1 0
v 0.3 0.6 0
v 0.3 0.7 0
v -0.2 0 -0.1
v -0.2 0.1 -0.1
v -0.2 0.6 -0.1
v -0.2 0.7 -0.1
v -0.1 0 -0.1
v -0.1 0.1 -0.1
v -0.1 0.6 -0.1
v -0.1 0.7 -0.1
v 0.2 0 -0.1
v 0.2 0.1 -0.1
v 0.2 0.6 -0.1
v 0.2 0.7 -0.1
v 0.3 0 -0.1
v 0.3 0.1 -0.1
v 0.3 0.6 -0.1
v 0.3 0.7 -0.1
v -0.2 0.1 -0.2
v -0.2 0.2 -0.2
v -0.2 0.5 -0.2
v -0.2 0.6 -0.2
v -0.1 0 -0.2
v -0.1 0.1 -0.2
v -0.1 0.2 -0.2
v -0.1 0.5 -0.2
v -0.1 0.6 -0.2
v -0.1 0.7 -0.2
v 0 0 -0.2
v 0 0.1 -0.2
v 0 0.6 -0.2
v 0 0.7 -0.2
v 0.1 0 -0.2
v 0.1 0.1 -0.2
v 0.1 0.6 -0.2
v 0.1 0.7 -0.2
v 0.2 0 -0.2
v 0.2 0.1 -0.2
v 0.2 0.2 -0.2
v 0.2 0.5 -0.2
v 0.2 0.6 -0.2
v 0.2 0.7 -0.2
v 0.3 0.1 -0.2
v 0.3 0.2 -0.2
v 0.3 0.5 -0.2
v 0.3 0.6 -0.2
v -0.1 0.1 -0.3
v -0.1 0.2 -0.3
v -0.1 0.5 -0.3
v -0.1 0.6 -0.3
v 0 0 -0.3
v 0 0.1 -0.3
v 0 0.2 -0.3
v 0 0.5 -0.3
v 0 0.6 -0.3
v 0 0.7 -0.3
v 0.1 0 -0.3
v 0.1 0.1 -0.3
v 0.1 0.2 -0.3
v 0.1 0.5 -0.3
v 0.1 0.6 -0.3
v 0.1 0.7 -0.3
v 0.2 0.1 -0.3
v 0.2 0.2 -0.3
v 0.2 0.5 -0.3
v 0.2 0.6 -0.3
v 0 0 0.2
v 0.1 0 0.2
v -0.1 0 0.1
v 0 0 0.1
v 0.1 0 0.1
v 0.2 0 0.1
v -0.2 0 0
v -0.1 0 0
v 0.2 0 0
v 0.3 0 0
v -0.2 0 -0.1
v -0.1 0 -0.1
v 0.2 0 -0.1
v 0.3 0 -0.1
v -0.1 0 -0.2
v 0 0 -0.2
v 0.1 0 -0.2
v 0.2 0 -0.2
v 0 0 -0.3
v 0.1 0 -0.3
v -0.1 0.1 0.2
v 0 0.1 0.2
v 0.1 0.1 0.2
v 0.2 0.1 0.2
v -0.2 0.1 0.1
v -0.1 0.1 0.1
v 0 0.1 0.1
v 0.1 0.1 0.1
v 0.2 0.1 0.1
v 0.3 0.1 0.1
v -0.2 0.1 0
v -0.1 0.1 0
v 0.2 0.1 0
v 0.3 0.1 0
v -0.2 0.1 -0.1
v -0.1 0.1 -0.1
v 0.2 0.1 -0.1
v 0.3 0.1 -0.1
v -0.2 0.1 -0.2
v -0.1 0.1 -0.2
v 0 0.1 -0.2
v 0.1 0.1 -0.2
v 0.2 0.1 -0.2
v 0.3 0.1 -0.2
v -0.1 0.1 -0.3
v 0 0.1 -0.3
v 0.1 0.1 -0.3
v 0.2 0.1 -0.3
v -0.1 0.6 0.2
v 0 0.6 0.2
v 0.1 0.6 0.2
v 0.2 0.6 0.2
v -0.2 0.6 0.1
v -0.1 0.6 0.1
v 0 0.6 0.1
v 0.1 0.6 0.1
v 0.2 0.6 0.1
v 0.3 0.6 0.1
v -0.2 0.6 0
v -0.1 0.6 0
v 0.2 0.6 0
v 0.3 0.6 0
v -0.2 0.6 -0.1
v -0.1 0.6 -0.1
v 0.2 0.6 -0.1
v 0.3 0.6 -0.1
v -0.2 0.6 -0.2
v -0.1 0.6 -0.2
v 0 0.6 -0.2
v 0.1 0.6 -0.2
v 0.2 0.6 -0.2
v 0.3 0.6 -0.2
v -0.1 0.6 -0.3
v 0 0.6 -0.3
v 0.1 0.6 -0.3
v 0.2 0.6 -0.3
v 0 0.7 0.2
v 0.1 0.7 0.2
v -0.1 0.7 0.1
v 0 0.7 0.1
v 0.1 0.7 0.1
v 0.2 0.7 0.1
v -0.2 0.7 0
v -0.1 0.7 0
v 0.2 0.7 0
v 0.3 0.7 0
v -0.2 0.7 -0.1
v -0.1 0.7 -0.1
v 0.2 0.7 -0.1
v 0.3 0.7 -0.1
v -0.1 0.7 -0.2
v 0 0.7 -0.2
v 0.1 0.7 -0.2
v 0.2 0.7 -0.2
v 0 0.7 -0.3
v 0.1 0.7 -0.3

# faces
f 4/1/1 2/1/1 1/1/1
f 5/1/1 2/1/1 4/1/1
f 7/3/1 4/3/1 3/3/1
f 7/3/1 6/3/1 5/3/1
f 7/3/1 5/3/1 4/3/1
f 8/3/1 6/3/1 7/3/1
f 9/3/1 6/3/1 8/3/1
f 10/3/1 6/3/1 9/3/1
f 11/2/1 8/2/1 7/2/1
f 12/1/1 9/1/1 8/1/1
f 12/2/1 8/2/1 11/2/1
f 13/2/1 10/2/1 9/2/1
f 13/1/1 9/1/1 12/1/1
f 14/2/1 10/2/1 13/2/1
f 15/3/1 12/3/1 11/3/1
f 15/3/1 13/3/1 12/3/1
f 15/3/1 14/3/1 13/3/1
f 16/3/1 14/3/1 15/3/1
f 17/3/1 14/3/1 16/3/1
f 18/3/1 14/3/1 17/3/1
f 19/1/1 17/1/1 16/1/1
f 20/1/1 17/1/1 19/1/1
f 26/2/1 22/2/1 21/2/1
f 27/2/1 22/2/1 26/2/1
f 28/2/1 24/2/1 23/2/1
f 29/2/1 24/2/1 28/2/1
f 31/3/1 26/3/1 25/3/1
f 32/3/1 26/3/1 31/3/1
f 33/3/1 30/3/1 29/3/1
f 34/3/1 30/3/1 33/3/1
f 35/2/1 32/2/1 31/2/1
f 36/2/1 32/2/1 35/2/1
f 37/2/1 34/2/1 33/2/1
f 38/2/1 34/2/1 37/2/1
f 39/3/1 36/3/1 35/3/1
f 40/3/1 36/3/1 39/3/1
f 43/3/1 38/3/1 37/3/1
f 44/3/1 38/3/1 43/3/1
f 45/2/1 41/2/1 40/2/1
f 46/2/1 41/2/1 45/2/1
f 47/2/1 43/2/1 42/2/1
f 48/2/1 43/2/1 47/2/1
f 53/1/1 50/1/1 49/1/1
f 54/1/1 50/1/1 53/1/1
f 55/1/1 52/1/1 51/1/1
f 56/1/1 52/1/1 55/1/1
f 61/1/1 58/1/1 57/1/1
f 62/1/1 58/1/1 61/1/1
f 63/1/1 60/1/1 59/1/1
f 64/1/1 60/1/1 63/1/1
f 65/1/2 66/1/2 69/1/2
f 69/1/2 66/1/2 70/1/2
f 67/1/2 68/1/2 71/1/2
f 71/1/2 68/1/2 72/1/2
f 73/1/2 74/1/2 77/1/2
f 77/1/2 74/1/2 78/1/2
f 75/1/2 76/1/2 79/1/2
f 79/1/2 76/1/2 80/1/2
f 81/2/2 82/2/2 86/2/2
f 86/2/2 82/2/2 87/2/2
f 83/2/2 84/2/2 88/2/2
f 88/2/2 84/2/2 89/2/2
f 85/3/2 86/3/2 91/3/2
f 91/3/2 86/3/2 92/3/2
f 89/3/2 90/3/2 93/3/2
f 93/3/2 90/3/2 94/3/2
f 91/2/2 92/2/2 95/2/2
f 95/2/2 92/2/2 96/2/2
f 93/2/2 94/2/2 97/2/2
f 97/2/2 94/2/2 98/2/2
f 95/3/2 96/3/2 99/3/2
f 99/3/2 96/3/2 100/3/2
f 97/3/2 98/3/2 103/3/2
f 103/3/2 98/3/2 104/3/2
f 100/2/2 101/2/2 105/2/2
f 105/2/2 101/2/2 106/2/2
f 102/2/2 103/2/2 107/2/2
f 107/2/2 103/2/2 108/2/2
f 109/1/2 110/1/2 112/1/2
f 112/1/2 110/1/2 113/1/2
f 111/3/2 112/3/2 115/3/2
f 113/3/2 114/3/2 115/3/2
f 112/3/2 113/3/2 115/3/2
f 115/3/2 114/3/2 116/3/2
f 116/3/2 114/3/2 117/3/2
f 117/3/2 114/3/2 118/3/2
f 115/2/2 116/2/2 119/2/2
f 116/1/2 117/1/2 120/1/2
f 119/2/2 116/2/2 120/2/2
f 117/2/2 118/2/2 121/2/2
f 120/1/2 117/1/2 121/1/2
f 121/2/2 118/2/2 122/2/2
f 119/3/2 120/3/2 123/3/2
f 120/3/2 121/3/2 123/3/2
f 121/3/2 122/3/2 123/3/2
f 123/3/2 122/3/2 124/3/2
f 124/3/2 122/3/2 125/3/2
f 125/3/2 122/3/2 126/3/2
f 124/1/2 125/1/2 127/1/2
f 127/1/2 125/1/2 128/1/2
f 134/3/3 130/3/3 129/3/3
f 135/2/3 131/2/3 130/2/3
f 135/3/3 130/3/3 134/3/3
f 136/3/3 132/3/3 131/3/3
f 136/2/3 131/2/3 135/2/3
f 137/3/3 132/3/3 136/3/3
f 139/1/3 134/1/3 133/1/3
f 140/3/3 135/3/3 134/3/3
f 140/1/3 134/1/3 139/1/3
f 141/1/3 136/1/3 135/1/3
f 141/3/3 135/3/3 140/3/3
f 142/3/3 137/3/3 136/3/3
f 142/1/3 136/1/3 141/1/3
f 143/1/3 138/1/3 137/1/3
f 143/3/3 137/3/3 142/3/3
f 144/1/3 138/1/3 143/1/3
f 145/3/3 141/3/3 140/3/3
f 146/2/3 142/2/3 141/2/3
f 146/3/3 141/3/3 145/3/3
f 147/3/3 143/3/3 142/3/3
f 147/2/3 142/2/3 146/2/3
f 148/3/3 143/3/3 147/3/3
f 154/3/3 150/3/3 149/3/3
f 155/2/3 151/2/3 150/2/3
f 155/3/3 150/3/3 154/3/3
f 156/3/3 152/3/3 151/3/3
f 156/2/3 151/2/3 155/2/3
f 157/3/3 152/3/3 156/3/3
f 159/2/3 154/2/3 153/2/3
f 160/2/3 154/2/3 159/2/3
f 161/2/3 158/2/3 157/2/3
f 162/2/3 158/2/3 161/2/3
f 167/2/3 164/2/3 163/2/3
f 168/2/3 164/2/3 167/2/3
f 171/2/3 166/2/3 165/2/3
f 172/2/3 166/2/3 171/2/3
f 173/3/3 169/3/3 168/3/3
f 174/2/3 170/2/3 169/2/3
f 174/3/3 169/3/3 173/3/3
f 175/3/3 171/3/3 170/3/3
f 175/2/3 170/2/3 174/2/3
f 176/3/3 171/3/3 175/3/3
f 181/1/3 178/1/3 177/1/3
f 182/1/3 178/1/3 181/1/3
f 183/1/3 180/1/3 179/1/3
f 184/1/3 180/1/3 183/1/3
f 189/1/3 186/1/3 185/1/3
f 190/1/3 186/1/3 189/1/3
f 191/1/3 188/1/3 187/1/3
f 192/1/3 188/1/3 191/1/3
f 193/1/4 194/1/4 197/1/4
f 197/1/4 194/1/4 198/1/4
f 195/1/4 196/1/4 199/1/4
f 199/1/4 196/1/4 200/1/4
f 201/1/4 202/1/4 205/1/4
f 205/1/4 202/1/4 206/1/4
f 203/1/4 204/1/4 207/1/4
f 207/1/4 204/1/4 208/1/4
f 209/3/4 210/3/4 214/3/4
f 210/2/4 211/2/4 215/2/4
f 214/3/4 210/3/4 215/3/4
f 211/3/4 212/3/4 216/3/4
f 215/2/4 211/2/4 216/2/4
f 216/3/4 212/3/4 217/3/4
f 213/2/4 214/2/4 219/2/4
f 219/2/4 214/2/4 220/2/4
f 217/2/4 218/2/4 221/2/4
f 221/2/4 218/2/4 222/2/4
f 223/2/4 224/2/4 227/2/4
f 227/2/4 224/2/4 228/2/4
f 225/2/4 226/2/4 231/2/4
f 231/2/4 226/2/4 232/2/4
f 228/3/4 229/3/4 233/3/4
f 229/2/4 230/2/4 234/2/4
f 233/3/4 229/3/4 234/3/4
f 230/3/4 231/3/4 235/3/4
f 234/2/4 230/2/4 235/2/4
f 235/3/4 231/3/4 236/3/4
f 237/3/4 238/3/4 242/3/4
f 238/2/4 239/2/4 243/2/4
f 242/3/4 238/3/4 243/3/4
f 239/3/4 240/3/4 244/3/4
f 243/2/4 239/2/4 244/2/4
f 244/3/4 240/3/4 245/3/4
f 241/1/4 242/1/4 247/1/4
f 242/3/4 243/3/4 248/3/4
f 247/1/4 242/1/4 248/1/4
f 243/1/4 244/1/4 249/1/4
f 248/3/4 243/3/4 249/3/4
f 244/3/4 245/3/4 250/3/4
f 249/1/4 244/1/4 250/1/4
f 245/1/4 246/1/4 251/1/4
f 250/3/4 245/3/4 251/3/4
f 251/1/4 246/1/4 252/1/4
f 248/3/4 249/3/4 253/3/4
f 249/2/4 250/2/4 254/2/4
f 253/3/4 249/3/4 254/3/4
f 250/3/4 251/3/4 255/3/4
f 254/2/4 250/2/4 255/2/4
f 255/3/4 251/3/4 256/3/4
f 260/1/5 258/1/5 257/1/5
f 261/1/5 258/1/5 260/1/5
f 264/2/5 260/2/5 259/2/5
f 264/2/5 262/2/5 261/2/5
f 264/2/5 261/2/5 260/2/5
f 265/2/5 262/2/5 264/2/5
f 267/1/5 264/1/5 263/1/5
f 268/2/5 265/2/5 264/2/5
f 268/1/5 264/1/5 267/1/5
f 269/1/5 266/1/5 265/1/5
f 269/2/5 265/2/5 268/2/5
f 270/1/5 266/1/5 269/1/5
f 271/2/5 269/2/5 268/2/5
f 272/2/5 269/2/5 271/2/5
f 273/2/5 269/2/5 272/2/5
f 274/2/5 269/2/5 273/2/5
f 275/1/5 273/1/5 272/1/5
f 276/1/5 273/1/5 275/1/5
f 282/3/5 278/3/5 277/3/5
f 283/3/5 278/3/5 282/3/5
f 284/3/5 280/3/5 279/3/5
f 285/3/5 280/3/5 284/3/5
f 287/3/5 282/3/5 281/3/5
f 288/3/5 282/3/5 287/3/5
f 289/3/5 286/3/5 285/3/5
f 290/3/5 286/3/5 289/3/5
f 295/3/5 292/3/5 291/3/5
f 296/3/5 292/3/5 295/3/5
f 299/3/5 294/3/5 293/3/5
f 300/3/5 294/3/5 299/3/5
f 301/3/5 297/3/5 296/3/5
f 302/3/5 297/3/5 301/3/5
f 303/3/5 299/3/5 298/3/5
f 304/3/5 299/3/5 303/3/5
f 305/3/6 306/3/6 310/3/6
f 310/3/6 306/3/6 311/3/6
f 307/3/6 308/3/6 312/3/6
f 312/3/6 308/3/6 313/3/6
f 309/3/6 310/3/6 315/3/6
f 315/3/6 310/3/6 316/3/6
f 313/3/6 314/3/6 317/3/6
f 317/3/6 314/3/6 318/3/6
f 319/3/6 320/3/6 323/3/6
f 323/3/6 320/3/6 324/3/6
f 321/3/6 322/3/6 327/3/6
f 327/3/6 322/3/6 328/3/6
f 324/3/6 325/3/6 329/3/6
f 329/3/6 325/3/6 330/3/6
f 326/3/6 327/3/6 331/3/6
f 331/3/6 327/3/6 332/3/6
f 333/1/6 334/1/6 336/1/6
f 336/1/6 334/1/6 337/1/6
f 335/2/6 336/2/6 340/2/6
f 337/2/6 338/2/6 340/2/6
f 336/2/6 337/2/6 340/2/6
f 340/2/6 338/2/6 341/2/6
f 339/1/6 340/1/6 343/1/6
f 340/2/6 341/2/6 344/2/6
f 343/1/6 340/1/6 344/1/6
f 341/1/6 342/1/6 345/1/6
f 344/2/6 341/2/6 345/2/6
f 345/1/6 342/1/6 346/1/6
f 344/2/6 345/2/6 347/2/6
f 347/2/6 345/2/6 348/2/6
f 348/2/6 345/2/6 349/2/6
f 349/2/6 345/2/6 350/2/6
f 348/1/6 349/1/6 351/1/6
f 351/1/6 349/1/6 352/1/6
