# MagicaVoxel @ Ephtracy

# group
o 

# material
mtllib bomba.mtl
usemtl palette

# normals
vn -1 0 0
vn 1 0 0
vn 0 0 1
vn 0 0 -1
vn 0 -1 0
vn 0 1 0

# texcoords
vt 0.978516 0.5
vt 0.986328 0.5
vt 0.990234 0.5
vt 0.994141 0.5

# verts
v -0.2 0.1 0.1
v -0.2 0.1 -0.1
v -0.2 0.3 0.1
v -0.2 0.3 -0.1
v -0.1 0 0.1
v -0.1 0 -0.1
v -0.1 0.1 0.2
v -0.1 0.1 0.1
v -0.1 0.1 -0.1
v -0.1 0.1 -0.2
v -0.1 0.2 -0.1
v -0.1 0.2 -0.2
v -0.1 0.3 0.2
v -0.1 0.3 0.1
v -0.1 0.3 -0.1
v -0.1 0.3 -0.2
v -0.1 0.4 0.1
v -0.1 0.4 -0.1
v -0.1 0.5 0
v -0.1 0.5 -0.1
v -0.1 0.6 0
v -0.1 0.6 -0.1
v 0 0.4 0.1
v 0 0.4 0
v 0 0.5 0.1
v 0 0.5 0
v 0 0.5 0
v 0 0.5 -0.1
v 0 0.6 0
v 0 0.6 -0.1
v 0.1 0 0.1
v 0.1 0 -0.1
v 0.1 0.1 0.2
v 0.1 0.1 0.1
v 0.1 0.1 -0.1
v 0.1 0.1 -0.2
v 0.1 0.3 0.2
v 0.1 0.3 0.1
v 0.1 0.3 -0.1
v 0.1 0.3 -0.2
v 0.1 0.4 0.1
v 0.1 0.4 0
v 0.1 0.4 -0.1
v 0.1 0.5 0.1
v 0.1 0.5 0
v 0.2 0.1 0.1
v 0.2 0.1 -0.1
v 0.2 0.3 0.1
v 0.2 0.3 -0.1
v -0.1 0.1 0.2
v -0.1 0.3 0.2
v 0.1 0.1 0.2
v 0.1 0.3 0.2
v -0.2 0.1 0.1
v -0.2 0.3 0.1
v -0.1 0 0.1
v -0.1 0.1 0.1
v -0.1 0.3 0.1
v -0.1 0.4 0.1
v 0 0.4 0.1
v 0 0.5 0.1
v 0.1 0 0.1
v 0.1 0.1 0.1
v 0.1 0.3 0.1
v 0.1 0.4 0.1
v 0.1 0.5 0.1
v 0.2 0.1 0.1
v 0.2 0.3 0.1
v -0.1 0.5 0
v -0.1 0.6 0
v 0 0.5 0
v 0 0.6 0
v 0 0.4 0
v 0 0.5 0
v 0.1 0.4 0
v 0.1 0.5 0
v -0.2 0.1 -0.1
v -0.2 0.3 -0.1
v -0.1 0 -0.1
v -0.1 0.1 -0.1
v -0.1 0.2 -0.1
v -0.1 0.3 -0.1
v -0.1 0.4 -0.1
v -0.1 0.5 -0.1
v -0.1 0.6 -0.1
v 0 0.3 -0.1
v 0 0.5 -0.1
v 0 0.6 -0.1
v 0.1 0 -0.1
v 0.1 0.1 -0.1
v 0.1 0.3 -0.1
v 0.1 0.4 -0.1
v 0.2 0.1 -0.1
v 0.2 0.3 -0.1
v -0.1 0.1 -0.2
v -0.1 0.2 -0.2
v -0.1 0.3 -0.2
v 0 0.2 -0.2
v 0 0.3 -0.2
v 0.1 0.1 -0.2
v 0.1 0.3 -0.2
v -0.1 0 0.1
v 0.1 0 0.1
v -0.1 0 -0.1
v 0.1 0 -0.1
v -0.1 0.1 0.2
v 0.1 0.1 0.2
v -0.2 0.1 0.1
v -0.1 0.1 0.1
v 0.1 0.1 0.1
v 0.2 0.1 0.1
v -0.2 0.1 -0.1
v -0.1 0.1 -0.1
v 0.1 0.1 -0.1
v 0.2 0.1 -0.1
v -0.1 0.1 -0.2
v 0.1 0.1 -0.2
v -0.1 0.5 0
v 0 0.5 0
v -0.1 0.5 -0.1
v 0 0.5 -0.1
v -0.1 0.3 0.2
v 0.1 0.3 0.2
v -0.2 0.3 0.1
v -0.1 0.3 0.1
v 0.1 0.3 0.1
v 0.2 0.3 0.1
v -0.2 0.3 -0.1
v -0.1 0.3 -0.1
v 0 0.3 -0.1
v 0.1 0.3 -0.1
v 0.2 0.3 -0.1
v -0.1 0.3 -0.2
v 0 0.3 -0.2
v 0.1 0.3 -0.2
v -0.1 0.4 0.1
v 0 0.4 0.1
v 0 0.4 0
v 0.1 0.4 0
v -0.1 0.4 -0.1
v 0.1 0.4 -0.1
v 0 0.5 0.1
v 0.1 0.5 0.1
v 0 0.5 0
v 0.1 0.5 0
v -0.1 0.6 0
v 0 0.6 0
v -0.1 0.6 -0.1
v 0 0.6 -0.1

# faces
f 3/4/1 2/4/1 1/4/1
f 4/4/1 2/4/1 3/4/1
f 8/4/1 6/4/1 5/4/1
f 9/4/1 6/4/1 8/4/1
f 11/4/1 10/4/1 9/4/1
f 12/4/1 10/4/1 11/4/1
f 13/4/1 8/4/1 7/4/1
f 14/4/1 8/4/1 13/4/1
f 15/1/1 12/1/1 11/1/1
f 16/1/1 12/1/1 15/1/1
f 17/4/1 15/4/1 14/4/1
f 18/4/1 15/4/1 17/4/1
f 21/2/1 20/2/1 19/2/1
f 22/2/1 20/2/1 21/2/1
f 25/3/1 24/3/1 23/3/1
f 26/3/1 24/3/1 25/3/1
f 27/2/2 28/2/2 29/2/2
f 29/2/2 28/2/2 30/2/2
f 31/4/2 32/4/2 34/4/2
f 34/4/2 32/4/2 35/4/2
f 33/4/2 34/4/2 37/4/2
f 37/4/2 34/4/2 38/4/2
f 35/4/2 36/4/2 39/4/2
f 39/4/2 36/4/2 40/4/2
f 38/4/2 39/4/2 41/4/2
f 41/4/2 39/4/2 42/4/2
f 42/4/2 39/4/2 43/4/2
f 41/3/2 42/3/2 44/3/2
f 44/3/2 42/3/2 45/3/2
f 46/4/2 47/4/2 48/4/2
f 48/4/2 47/4/2 49/4/2
f 52/4/3 51/4/3 50/4/3
f 53/4/3 51/4/3 52/4/3
f 57/4/3 55/4/3 54/4/3
f 58/4/3 55/4/3 57/4/3
f 60/4/3 59/4/3 58/4/3
f 62/4/3 57/4/3 56/4/3
f 63/4/3 57/4/3 62/4/3
f 64/4/3 60/4/3 58/4/3
f 65/3/3 61/3/3 60/3/3
f 65/4/3 60/4/3 64/4/3
f 66/3/3 61/3/3 65/3/3
f 67/4/3 64/4/3 63/4/3
f 68/4/3 64/4/3 67/4/3
f 71/2/3 70/2/3 69/2/3
f 72/2/3 70/2/3 71/2/3
f 73/3/4 74/3/4 75/3/4
f 75/3/4 74/3/4 76/3/4
f 77/4/4 78/4/4 80/4/4
f 80/4/4 78/4/4 81/4/4
f 81/4/4 78/4/4 82/4/4
f 82/4/4 83/4/4 86/4/4
f 84/2/4 85/2/4 87/2/4
f 87/2/4 85/2/4 88/2/4
f 79/4/4 80/4/4 89/4/4
f 89/4/4 80/4/4 90/4/4
f 86/4/4 83/4/4 91/4/4
f 91/4/4 83/4/4 92/4/4
f 90/4/4 91/4/4 93/4/4
f 93/4/4 91/4/4 94/4/4
f 95/4/4 96/4/4 98/4/4
f 96/1/4 97/1/4 98/1/4
f 98/1/4 97/1/4 99/1/4
f 95/4/4 98/4/4 100/4/4
f 98/4/4 99/4/4 100/4/4
f 100/4/4 99/4/4 101/4/4
f 104/4/5 103/4/5 102/4/5
f 105/4/5 103/4/5 104/4/5
f 109/4/5 107/4/5 106/4/5
f 110/4/5 107/4/5 109/4/5
f 112/4/5 109/4/5 108/4/5
f 113/4/5 109/4/5 112/4/5
f 114/4/5 111/4/5 110/4/5
f 115/4/5 111/4/5 114/4/5
f 116/4/5 114/4/5 113/4/5
f 117/4/5 114/4/5 116/4/5
f 120/2/5 119/2/5 118/2/5
f 121/2/5 119/2/5 120/2/5
f 122/4/6 123/4/6 125/4/6
f 125/4/6 123/4/6 126/4/6
f 124/4/6 125/4/6 128/4/6
f 128/4/6 125/4/6 129/4/6
f 126/4/6 127/4/6 131/4/6
f 131/4/6 127/4/6 132/4/6
f 129/1/6 130/1/6 133/1/6
f 130/4/6 131/4/6 134/4/6
f 133/1/6 130/1/6 134/1/6
f 134/4/6 131/4/6 135/4/6
f 136/4/6 137/4/6 138/4/6
f 136/4/6 138/4/6 140/4/6
f 138/4/6 139/4/6 140/4/6
f 140/4/6 139/4/6 141/4/6
f 142/3/6 143/3/6 144/3/6
f 144/3/6 143/3/6 145/3/6
f 146/2/6 147/2/6 148/2/6
f 148/2/6 147/2/6 149/2/6
