# MagicaVoxel @ Ephtracy

# group
o 

# material
mtllib bramaSlupek.mtl
usemtl palette

# normals
vn -1 0 0
vn 1 0 0
vn 0 0 1
vn 0 0 -1
vn 0 -1 0
vn 0 1 0

# texcoords
vt 0.974609 0.5
vt 0.978516 0.5
vt 0.982422 0.5
vt 0.986328 0.5
vt 0.990234 0.5

# verts
v -0.2 0 0.2
v -0.2 0 -0.3
v -0.2 0.2 0.2
v -0.2 0.2 0
v -0.2 0.2 -0.1
v -0.2 0.2 -0.3
v -0.2 0.3 0
v -0.2 0.3 -0.1
v -0.2 0.3 -0.2
v -0.2 0.3 -0.3
v -0.2 0.4 0.2
v -0.2 0.4 0.1
v -0.2 0.4 -0.2
v -0.2 0.4 -0.3
v -0.2 0.5 0.2
v -0.2 0.5 0.1
v -0.2 0.6 0.2
v -0.2 0.6 0.1
v -0.2 0.7 0.2
v -0.2 0.7 0.1
v -0.2 0.7 0
v -0.2 0.7 -0.2
v -0.2 0.8 0.1
v -0.2 0.8 0
v -0.2 0.8 -0.2
v -0.2 0.9 0.2
v -0.2 0.9 0.1
v -0.2 0.9 0
v -0.2 1 -0.1
v -0.2 1 -0.2
v -0.2 1.1 0.2
v -0.2 1.1 0.1
v -0.2 1.1 -0.1
v -0.2 1.1 -0.2
v -0.2 1.2 0.2
v -0.2 1.2 0.1
v -0.2 1.2 -0.1
v -0.2 1.2 -0.2
v -0.2 1.3 0.1
v -0.2 1.3 0
v -0.2 1.3 -0.1
v -0.2 1.3 -0.2
v -0.2 1.3 -0.3
v -0.2 1.4 -0.2
v -0.2 1.4 -0.3
v -0.2 1.6 0.1
v -0.2 1.6 0
v -0.2 1.6 -0.2
v -0.2 1.6 -0.3
v -0.2 1.7 0.2
v -0.2 1.7 0.1
v -0.2 1.7 -0.2
v -0.2 1.7 -0.3
v -0.2 1.8 0.2
v -0.2 1.8 0.1
v -0.2 1.9 -0.1
v -0.2 1.9 -0.2
v -0.2 2 0.2
v -0.2 2 0.1
v -0.2 2 -0.1
v -0.2 2 -0.2
v -0.2 2.1 0.2
v -0.2 2.1 0.1
v -0.2 2.1 -0.3
v -0.2 2.2 0.2
v -0.2 2.2 -0.3
v -0.1 0.7 0.2
v -0.1 0.7 0.1
v -0.1 0.8 0.1
v -0.1 0.9 0.2
v -0.1 0.9 0.1
v 0 1.5 -0.2
v 0 1.5 -0.3
v 0 1.6 -0.2
v 0 1.6 -0.3
v 0.1 1.1 0.2
v 0.1 1.1 0.1
v 0.1 1.2 0.2
v 0.1 1.2 0.1
v 0.1 1.6 -0.2
v 0.1 1.6 -0.3
v 0.1 1.7 -0.2
v 0.1 1.7 -0.3
v 0.2 0.5 -0.2
v 0.2 0.5 -0.3
v 0.2 0.6 -0.2
v 0.2 0.6 -0.3
v -0.1 1.5 -0.2
v -0.1 1.5 -0.3
v -0.1 1.6 -0.2
v -0.1 1.6 -0.3
v 0 1.1 0.2
v 0 1.1 0.1
v 0 1.2 0.2
v 0 1.2 0.1
v 0 1.6 -0.2
v 0 1.6 -0.3
v 0 1.7 -0.2
v 0 1.7 -0.3
v 0.1 0.5 -0.2
v 0.1 0.5 -0.3
v 0.1 0.6 -0.2
v 0.1 0.6 -0.3
v 0.2 1.1 0.1
v 0.2 1.1 0
v 0.2 1.3 0.1
v 0.2 1.3 0
v 0.3 0 0.2
v 0.3 0 -0.3
v 0.3 0.2 0.2
v 0.3 0.2 -0.3
v 0.3 0.3 0.1
v 0.3 0.3 -0.1
v 0.3 0.4 0.1
v 0.3 0.4 -0.1
v 0.3 0.4 -0.2
v 0.3 0.4 -0.3
v 0.3 0.5 -0.2
v 0.3 0.5 -0.3
v 0.3 0.6 0.2
v 0.3 0.6 0.1
v 0.3 0.6 0
v 0.3 0.6 -0.2
v 0.3 0.7 0
v 0.3 0.7 -0.2
v 0.3 0.9 0.2
v 0.3 0.9 0.1
v 0.3 0.9 -0.1
v 0.3 0.9 -0.3
v 0.3 1 0.1
v 0.3 1 0
v 0.3 1 -0.1
v 0.3 1 -0.3
v 0.3 1.1 0.1
v 0.3 1.1 0
v 0.3 1.1 -0.2
v 0.3 1.1 -0.3
v 0.3 1.3 0.2
v 0.3 1.3 0.1
v 0.3 1.3 0
v 0.3 1.3 -0.2
v 0.3 1.3 -0.3
v 0.3 1.4 0.2
v 0.3 1.4 0.1
v 0.3 1.4 -0.2
v 0.3 1.4 -0.3
v 0.3 1.5 0.1
v 0.3 1.5 -0.1
v 0.3 1.6 0.1
v 0.3 1.6 -0.1
v 0.3 1.7 -0.2
v 0.3 1.7 -0.3
v 0.3 1.8 0.2
v 0.3 1.8 0.1
v 0.3 1.9 0.2
v 0.3 1.9 0.1
v 0.3 2 0
v 0.3 2 -0.3
v 0.3 2.1 0.2
v 0.3 2.1 0
v 0.3 2.1 -0.3
v 0.3 2.2 0.2
v 0.3 2.2 -0.3
v -0.2 0 0.2
v -0.2 0.2 0.2
v -0.2 0.4 0.2
v -0.2 0.5 0.2
v -0.2 0.6 0.2
v -0.2 0.7 0.2
v -0.2 0.9 0.2
v -0.2 1.1 0.2
v -0.2 1.2 0.2
v -0.2 1.7 0.2
v -0.2 1.8 0.2
v -0.2 2 0.2
v -0.2 2.1 0.2
v -0.2 2.2 0.2
v -0.1 0.4 0.2
v -0.1 0.5 0.2
v -0.1 0.6 0.2
v -0.1 0.7 0.2
v -0.1 0.9 0.2
v -0.1 1.5 0.2
v -0.1 1.6 0.2
v -0.1 1.7 0.2
v -0.1 1.8 0.2
v 0 0.2 0.2
v 0 0.3 0.2
v 0 0.8 0.2
v 0 0.9 0.2
v 0 1.1 0.2
v 0 1.2 0.2
v 0 2 0.2
v 0 2.1 0.2
v 0.1 0.4 0.2
v 0.1 0.5 0.2
v 0.1 0.6 0.2
v 0.1 0.7 0.2
v 0.1 0.8 0.2
v 0.1 0.9 0.2
v 0.1 1 0.2
v 0.1 1.1 0.2
v 0.1 1.2 0.2
v 0.1 1.5 0.2
v 0.1 1.6 0.2
v 0.1 1.7 0.2
v 0.1 1.8 0.2
v 0.1 1.9 0.2
v 0.2 0.2 0.2
v 0.2 0.3 0.2
v 0.2 0.4 0.2
v 0.2 0.5 0.2
v 0.2 0.7 0.2
v 0.2 0.9 0.2
v 0.2 1 0.2
v 0.2 1.3 0.2
v 0.2 1.4 0.2
v 0.2 1.6 0.2
v 0.2 1.7 0.2
v 0.3 0 0.2
v 0.3 0.2 0.2
v 0.3 0.6 0.2
v 0.3 0.9 0.2
v 0.3 1.3 0.2
v 0.3 1.4 0.2
v 0.3 1.8 0.2
v 0.3 1.9 0.2
v 0.3 2.1 0.2
v 0.3 2.2 0.2
v -0.2 0.7 0.1
v -0.2 0.8 0.1
v -0.2 0.9 0.1
v -0.1 0.7 0.1
v -0.1 0.8 0.1
v -0.1 0.9 0.1
v 0 1.1 0.1
v 0 1.2 0.1
v 0.1 1.1 0.1
v 0.1 1.2 0.1
v 0.2 1.1 0
v 0.2 1.3 0
v 0.3 1.1 0
v 0.3 1.3 0
v 0.2 1.1 0.1
v 0.2 1.3 0.1
v 0.3 1.1 0.1
v 0.3 1.3 0.1
v -0.1 1.5 -0.2
v -0.1 1.6 -0.2
v 0 1.5 -0.2
v 0 1.6 -0.2
v 0 1.7 -0.2
v 0.1 0.5 -0.2
v 0.1 0.6 -0.2
v 0.1 1.6 -0.2
v 0.1 1.7 -0.2
v 0.2 0.5 -0.2
v 0.2 0.6 -0.2
v -0.2 0 -0.3
v -0.2 0.2 -0.3
v -0.2 0.3 -0.3
v -0.2 0.4 -0.3
v -0.2 1.3 -0.3
v -0.2 1.4 -0.3
v -0.2 1.6 -0.3
v -0.2 1.7 -0.3
v -0.2 2.1 -0.3
v -0.2 2.2 -0.3
v -0.1 0.2 -0.3
v -0.1 0.3 -0.3
v -0.1 0.4 -0.3
v -0.1 0.7 -0.3
v -0.1 0.8 -0.3
v -0.1 1 -0.3
v -0.1 1.1 -0.3
v -0.1 1.3 -0.3
v -0.1 1.4 -0.3
v -0.1 1.5 -0.3
v -0.1 1.6 -0.3
v -0.1 1.7 -0.3
v -0.1 1.8 -0.3
v -0.1 1.9 -0.3
v 0 0.2 -0.3
v 0 0.3 -0.3
v 0 0.4 -0.3
v 0 0.5 -0.3
v 0 1 -0.3
v 0 1.1 -0.3
v 0 1.3 -0.3
v 0 1.5 -0.3
v 0 1.6 -0.3
v 0 1.7 -0.3
v 0.1 0.5 -0.3
v 0.1 0.6 -0.3
v 0.1 0.7 -0.3
v 0.1 0.8 -0.3
v 0.1 1.3 -0.3
v 0.1 1.4 -0.3
v 0.1 1.6 -0.3
v 0.1 1.7 -0.3
v 0.1 1.8 -0.3
v 0.1 1.9 -0.3
v 0.2 0.5 -0.3
v 0.2 0.6 -0.3
v 0.2 0.9 -0.3
v 0.2 1 -0.3
v 0.2 1.1 -0.3
v 0.2 1.3 -0.3
v 0.2 1.5 -0.3
v 0.2 1.7 -0.3
v 0.2 2 -0.3
v 0.2 2.1 -0.3
v 0.3 0 -0.3
v 0.3 0.2 -0.3
v 0.3 0.4 -0.3
v 0.3 0.5 -0.3
v 0.3 0.9 -0.3
v 0.3 1 -0.3
v 0.3 1.1 -0.3
v 0.3 1.3 -0.3
v 0.3 1.4 -0.3
v 0.3 1.7 -0.3
v 0.3 2 -0.3
v 0.3 2.1 -0.3
v 0.3 2.2 -0.3
v -0.2 0 0.2
v 0.3 0 0.2
v -0.2 0 -0.3
v 0.3 0 -0.3
v 0.1 0.6 -0.2
v 0.2 0.6 -0.2
v 0.1 0.6 -0.3
v 0.2 0.6 -0.3
v -0.2 0.9 0.2
v -0.1 0.9 0.2
v -0.2 0.9 0.1
v -0.1 0.9 0.1
v 0 1.2 0.2
v 0.1 1.2 0.2
v 0 1.2 0.1
v 0.1 1.2 0.1
v 0.2 1.3 0.1
v 0.3 1.3 0.1
v 0.2 1.3 0
v 0.3 1.3 0
v -0.1 1.6 -0.2
v 0 1.6 -0.2
v -0.1 1.6 -0.3
v 0 1.6 -0.3
v 0 1.7 -0.2
v 0.1 1.7 -0.2
v 0 1.7 -0.3
v 0.1 1.7 -0.3
v 0.1 0.5 -0.2
v 0.2 0.5 -0.2
v 0.1 0.5 -0.3
v 0.2 0.5 -0.3
v -0.2 0.7 0.2
v -0.1 0.7 0.2
v -0.2 0.7 0.1
v -0.1 0.7 0.1
v 0 1.1 0.2
v 0.1 1.1 0.2
v 0 1.1 0.1
v 0.1 1.1 0.1
v 0.2 1.1 0.1
v 0.3 1.1 0.1
v 0.2 1.1 0
v 0.3 1.1 0
v -0.1 1.5 -0.2
v 0 1.5 -0.2
v -0.1 1.5 -0.3
v 0 1.5 -0.3
v 0 1.6 -0.2
v 0.1 1.6 -0.2
v 0 1.6 -0.3
v 0.1 1.6 -0.3
v -0.2 2.2 0.2
v 0.3 2.2 0.2
v -0.2 2.2 -0.3
v 0.3 2.2 -0.3

# faces
f 3/1/1 2/1/1 1/1/1
f 4/1/1 2/1/1 3/1/1
f 5/1/1 2/1/1 4/1/1
f 6/1/1 2/1/1 5/1/1
f 7/4/1 4/4/1 3/4/1
f 7/3/1 5/3/1 4/3/1
f 8/4/1 6/4/1 5/4/1
f 8/3/1 5/3/1 7/3/1
f 9/4/1 6/4/1 8/4/1
f 10/4/1 6/4/1 9/4/1
f 11/4/1 7/4/1 3/4/1
f 11/4/1 8/4/1 7/4/1
f 11/4/1 9/4/1 8/4/1
f 12/4/1 9/4/1 11/4/1
f 13/2/1 10/2/1 9/2/1
f 13/4/1 9/4/1 12/4/1
f 14/2/1 10/2/1 13/2/1
f 15/3/1 12/3/1 11/3/1
f 16/4/1 13/4/1 12/4/1
f 16/3/1 12/3/1 15/3/1
f 16/4/1 14/4/1 13/4/1
f 17/4/1 16/4/1 15/4/1
f 18/4/1 14/4/1 16/4/1
f 18/4/1 16/4/1 17/4/1
f 19/2/1 18/2/1 17/2/1
f 20/4/1 14/4/1 18/4/1
f 20/2/1 18/2/1 19/2/1
f 21/4/1 14/4/1 20/4/1
f 22/4/1 14/4/1 21/4/1
f 23/4/1 21/4/1 20/4/1
f 24/2/1 22/2/1 21/2/1
f 24/4/1 21/4/1 23/4/1
f 25/4/1 14/4/1 22/4/1
f 25/2/1 22/2/1 24/2/1
f 27/2/1 24/2/1 23/2/1
f 28/4/1 25/4/1 24/4/1
f 28/2/1 24/2/1 27/2/1
f 29/4/1 27/4/1 26/4/1
f 29/4/1 25/4/1 28/4/1
f 29/4/1 28/4/1 27/4/1
f 30/4/1 14/4/1 25/4/1
f 30/4/1 25/4/1 29/4/1
f 31/4/1 29/4/1 26/4/1
f 32/4/1 29/4/1 31/4/1
f 33/2/1 30/2/1 29/2/1
f 33/4/1 29/4/1 32/4/1
f 34/4/1 14/4/1 30/4/1
f 34/2/1 30/2/1 33/2/1
f 35/3/1 32/3/1 31/3/1
f 36/4/1 33/4/1 32/4/1
f 36/3/1 32/3/1 35/3/1
f 36/4/1 34/4/1 33/4/1
f 37/4/1 34/4/1 36/4/1
f 38/4/1 14/4/1 34/4/1
f 38/4/1 34/4/1 37/4/1
f 39/4/1 37/4/1 36/4/1
f 39/4/1 36/4/1 35/4/1
f 40/4/1 37/4/1 39/4/1
f 41/3/1 38/3/1 37/3/1
f 41/4/1 37/4/1 40/4/1
f 42/4/1 14/4/1 38/4/1
f 42/3/1 38/3/1 41/3/1
f 43/4/1 14/4/1 42/4/1
f 44/4/1 41/4/1 40/4/1
f 44/4/1 42/4/1 41/4/1
f 44/3/1 43/3/1 42/3/1
f 45/3/1 43/3/1 44/3/1
f 46/3/1 40/3/1 39/3/1
f 46/4/1 39/4/1 35/4/1
f 47/4/1 45/4/1 44/4/1
f 47/3/1 40/3/1 46/3/1
f 47/4/1 44/4/1 40/4/1
f 48/4/1 45/4/1 47/4/1
f 49/4/1 45/4/1 48/4/1
f 50/4/1 46/4/1 35/4/1
f 50/4/1 47/4/1 46/4/1
f 50/4/1 48/4/1 47/4/1
f 51/4/1 48/4/1 50/4/1
f 52/2/1 49/2/1 48/2/1
f 52/4/1 48/4/1 51/4/1
f 53/2/1 49/2/1 52/2/1
f 54/2/1 51/2/1 50/2/1
f 55/4/1 52/4/1 51/4/1
f 55/2/1 51/2/1 54/2/1
f 55/4/1 53/4/1 52/4/1
f 56/4/1 55/4/1 54/4/1
f 56/4/1 53/4/1 55/4/1
f 57/4/1 53/4/1 56/4/1
f 58/4/1 56/4/1 54/4/1
f 59/4/1 56/4/1 58/4/1
f 60/3/1 57/3/1 56/3/1
f 60/4/1 56/4/1 59/4/1
f 61/4/1 53/4/1 57/4/1
f 61/3/1 57/3/1 60/3/1
f 62/3/1 59/3/1 58/3/1
f 63/4/1 60/4/1 59/4/1
f 63/3/1 59/3/1 62/3/1
f 63/4/1 61/4/1 60/4/1
f 64/4/1 53/4/1 61/4/1
f 64/4/1 61/4/1 63/4/1
f 65/5/1 63/5/1 62/5/1
f 65/5/1 64/5/1 63/5/1
f 66/5/1 64/5/1 65/5/1
f 69/4/1 68/4/1 67/4/1
f 70/4/1 69/4/1 67/4/1
f 71/4/1 69/4/1 70/4/1
f 74/4/1 73/4/1 72/4/1
f 75/4/1 73/4/1 74/4/1
f 78/4/1 77/4/1 76/4/1
f 79/4/1 77/4/1 78/4/1
f 82/4/1 81/4/1 80/4/1
f 83/4/1 81/4/1 82/4/1
f 86/4/1 85/4/1 84/4/1
f 87/4/1 85/4/1 86/4/1
f 88/4/2 89/4/2 90/4/2
f 90/4/2 89/4/2 91/4/2
f 92/3/2 93/3/2 94/3/2
f 94/3/2 93/3/2 95/3/2
f 96/4/2 97/4/2 98/4/2
f 98/4/2 97/4/2 99/4/2
f 100/4/2 101/4/2 102/4/2
f 102/4/2 101/4/2 103/4/2
f 104/4/2 105/4/2 106/4/2
f 106/4/2 105/4/2 107/4/2
f 108/1/2 109/1/2 110/1/2
f 110/1/2 109/1/2 111/1/2
f 110/4/2 111/4/2 112/4/2
f 112/4/2 111/4/2 113/4/2
f 110/4/2 112/4/2 114/4/2
f 112/2/2 113/2/2 114/2/2
f 113/4/2 111/4/2 115/4/2
f 114/2/2 113/2/2 115/2/2
f 115/4/2 111/4/2 116/4/2
f 116/4/2 111/4/2 117/4/2
f 114/4/2 115/4/2 118/4/2
f 115/4/2 116/4/2 118/4/2
f 116/3/2 117/3/2 118/3/2
f 118/3/2 117/3/2 119/3/2
f 110/4/2 114/4/2 120/4/2
f 114/4/2 118/4/2 120/4/2
f 118/4/2 119/4/2 120/4/2
f 120/4/2 119/4/2 121/4/2
f 121/4/2 119/4/2 122/4/2
f 122/4/2 119/4/2 123/4/2
f 121/4/2 122/4/2 124/4/2
f 122/2/2 123/2/2 124/2/2
f 123/4/2 119/4/2 125/4/2
f 124/2/2 123/2/2 125/2/2
f 120/3/2 121/3/2 126/3/2
f 121/4/2 124/4/2 127/4/2
f 126/3/2 121/3/2 127/3/2
f 124/4/2 125/4/2 127/4/2
f 127/4/2 125/4/2 128/4/2
f 125/4/2 119/4/2 129/4/2
f 128/4/2 125/4/2 129/4/2
f 127/4/2 128/4/2 130/4/2
f 126/4/2 127/4/2 130/4/2
f 130/4/2 128/4/2 131/4/2
f 128/3/2 129/3/2 132/3/2
f 131/4/2 128/4/2 132/4/2
f 132/3/2 129/3/2 133/3/2
f 130/2/2 131/2/2 134/2/2
f 126/4/2 130/4/2 134/4/2
f 132/4/2 133/4/2 135/4/2
f 134/2/2 131/2/2 135/2/2
f 131/4/2 132/4/2 135/4/2
f 135/4/2 133/4/2 136/4/2
f 136/4/2 133/4/2 137/4/2
f 126/4/2 134/4/2 138/4/2
f 138/4/2 134/4/2 139/4/2
f 135/4/2 136/4/2 140/4/2
f 136/2/2 137/2/2 141/2/2
f 140/4/2 136/4/2 141/4/2
f 141/2/2 137/2/2 142/2/2
f 138/3/2 139/3/2 143/3/2
f 139/4/2 140/4/2 144/4/2
f 143/3/2 139/3/2 144/3/2
f 140/4/2 141/4/2 144/4/2
f 141/4/2 142/4/2 144/4/2
f 144/4/2 142/4/2 145/4/2
f 145/4/2 142/4/2 146/4/2
f 143/4/2 144/4/2 147/4/2
f 144/4/2 145/4/2 147/4/2
f 147/4/2 145/4/2 148/4/2
f 143/4/2 147/4/2 149/4/2
f 147/2/2 148/2/2 149/2/2
f 148/4/2 145/4/2 150/4/2
f 149/2/2 148/2/2 150/2/2
f 145/3/2 146/3/2 151/3/2
f 150/4/2 145/4/2 151/4/2
f 149/4/2 150/4/2 151/4/2
f 151/3/2 146/3/2 152/3/2
f 143/4/2 149/4/2 153/4/2
f 149/4/2 151/4/2 153/4/2
f 151/4/2 152/4/2 153/4/2
f 153/4/2 152/4/2 154/4/2
f 153/2/2 154/2/2 155/2/2
f 154/4/2 152/4/2 156/4/2
f 155/2/2 154/2/2 156/2/2
f 155/4/2 156/4/2 157/4/2
f 156/4/2 152/4/2 157/4/2
f 157/4/2 152/4/2 158/4/2
f 155/4/2 157/4/2 159/4/2
f 157/2/2 158/2/2 160/2/2
f 159/4/2 157/4/2 160/4/2
f 160/2/2 158/2/2 161/2/2
f 159/5/2 160/5/2 162/5/2
f 160/5/2 161/5/2 162/5/2
f 162/5/2 161/5/2 163/5/2
f 178/4/3 166/4/3 165/4/3
f 178/3/3 167/3/3 166/3/3
f 179/4/3 168/4/3 167/4/3
f 179/3/3 167/3/3 178/3/3
f 180/2/3 169/2/3 168/2/3
f 180/4/3 168/4/3 179/4/3
f 181/2/3 169/2/3 180/2/3
f 182/4/3 171/4/3 170/4/3
f 183/4/3 173/4/3 172/4/3
f 184/4/3 173/4/3 183/4/3
f 185/2/3 174/2/3 173/2/3
f 185/4/3 173/4/3 184/4/3
f 186/4/3 175/4/3 174/4/3
f 186/2/3 174/2/3 185/2/3
f 187/1/3 165/1/3 164/1/3
f 187/4/3 178/4/3 165/4/3
f 187/4/3 179/4/3 178/4/3
f 187/4/3 181/4/3 180/4/3
f 187/4/3 182/4/3 181/4/3
f 187/4/3 180/4/3 179/4/3
f 188/4/3 182/4/3 187/4/3
f 189/4/3 182/4/3 188/4/3
f 190/4/3 171/4/3 182/4/3
f 190/4/3 182/4/3 189/4/3
f 191/3/3 172/3/3 171/3/3
f 191/4/3 171/4/3 190/4/3
f 192/4/3 183/4/3 172/4/3
f 192/3/3 172/3/3 191/3/3
f 193/4/3 175/4/3 186/4/3
f 193/3/3 176/3/3 175/3/3
f 193/4/3 186/4/3 185/4/3
f 193/4/3 185/4/3 184/4/3
f 194/5/3 177/5/3 176/5/3
f 194/3/3 176/3/3 193/3/3
f 195/4/3 189/4/3 188/4/3
f 196/4/3 189/4/3 195/4/3
f 197/4/3 189/4/3 196/4/3
f 198/4/3 189/4/3 197/4/3
f 199/2/3 190/2/3 189/2/3
f 199/4/3 189/4/3 198/4/3
f 200/4/3 191/4/3 190/4/3
f 200/2/3 190/2/3 199/2/3
f 201/4/3 191/4/3 200/4/3
f 202/4/3 191/4/3 201/4/3
f 203/4/3 183/4/3 192/4/3
f 204/3/3 184/3/3 183/3/3
f 204/4/3 183/4/3 203/4/3
f 205/4/3 193/4/3 184/4/3
f 205/3/3 184/3/3 204/3/3
f 205/4/3 194/4/3 193/4/3
f 206/4/3 194/4/3 205/4/3
f 207/4/3 194/4/3 206/4/3
f 208/4/3 194/4/3 207/4/3
f 209/2/3 188/2/3 187/2/3
f 209/1/3 187/1/3 164/1/3
f 210/4/3 195/4/3 188/4/3
f 210/2/3 188/2/3 209/2/3
f 211/3/3 196/3/3 195/3/3
f 211/4/3 195/4/3 210/4/3
f 212/4/3 197/4/3 196/4/3
f 212/3/3 196/3/3 211/3/3
f 213/4/3 199/4/3 198/4/3
f 213/3/3 198/3/3 197/3/3
f 213/4/3 200/4/3 199/4/3
f 214/2/3 201/2/3 200/2/3
f 214/4/3 200/4/3 213/4/3
f 215/4/3 202/4/3 201/4/3
f 215/2/3 201/2/3 214/2/3
f 215/4/3 204/4/3 203/4/3
f 215/4/3 203/4/3 202/4/3
f 215/4/3 205/4/3 204/4/3
f 216/4/3 205/4/3 215/4/3
f 217/4/3 205/4/3 216/4/3
f 218/3/3 206/3/3 205/3/3
f 218/4/3 205/4/3 217/4/3
f 219/4/3 207/4/3 206/4/3
f 219/3/3 206/3/3 218/3/3
f 220/1/3 209/1/3 164/1/3
f 221/4/3 212/4/3 211/4/3
f 221/1/3 209/1/3 220/1/3
f 221/4/3 210/4/3 209/4/3
f 221/4/3 211/4/3 210/4/3
f 222/3/3 214/3/3 213/3/3
f 222/4/3 212/4/3 221/4/3
f 222/4/3 197/4/3 212/4/3
f 222/3/3 213/3/3 197/3/3
f 223/4/3 215/4/3 214/4/3
f 223/3/3 214/3/3 222/3/3
f 223/4/3 216/4/3 215/4/3
f 224/3/3 217/3/3 216/3/3
f 224/4/3 216/4/3 223/4/3
f 225/4/3 218/4/3 217/4/3
f 225/3/3 217/3/3 224/3/3
f 225/4/3 219/4/3 218/4/3
f 226/2/3 208/2/3 207/2/3
f 226/4/3 219/4/3 225/4/3
f 226/4/3 207/4/3 219/4/3
f 227/4/3 194/4/3 208/4/3
f 227/2/3 208/2/3 226/2/3
f 228/5/3 177/5/3 194/5/3
f 228/4/3 194/4/3 227/4/3
f 229/5/3 177/5/3 228/5/3
f 233/4/3 231/4/3 230/4/3
f 234/2/3 232/2/3 231/2/3
f 234/4/3 231/4/3 233/4/3
f 235/2/3 232/2/3 234/2/3
f 238/4/3 237/4/3 236/4/3
f 239/4/3 237/4/3 238/4/3
f 242/4/3 241/4/3 240/4/3
f 243/4/3 241/4/3 242/4/3
f 244/4/4 245/4/4 246/4/4
f 246/4/4 245/4/4 247/4/4
f 248/4/4 249/4/4 250/4/4
f 250/4/4 249/4/4 251/4/4
f 251/4/4 252/4/4 255/4/4
f 255/4/4 252/4/4 256/4/4
f 253/4/4 254/4/4 257/4/4
f 257/4/4 254/4/4 258/4/4
f 259/1/4 260/1/4 269/1/4
f 260/4/4 261/4/4 269/4/4
f 261/2/4 262/2/4 270/2/4
f 269/4/4 261/4/4 270/4/4
f 262/4/4 263/4/4 271/4/4
f 270/2/4 262/2/4 271/2/4
f 271/4/4 263/4/4 272/4/4
f 272/4/4 263/4/4 273/4/4
f 273/4/4 263/4/4 274/4/4
f 274/4/4 263/4/4 275/4/4
f 263/3/4 264/3/4 276/3/4
f 275/4/4 263/4/4 276/4/4
f 264/4/4 265/4/4 277/4/4
f 276/3/4 264/3/4 277/3/4
f 277/4/4 265/4/4 278/4/4
f 265/2/4 266/2/4 279/2/4
f 278/4/4 265/4/4 279/4/4
f 266/4/4 267/4/4 280/4/4
f 279/2/4 266/2/4 280/2/4
f 280/4/4 267/4/4 281/4/4
f 281/4/4 267/4/4 282/4/4
f 259/1/4 269/1/4 283/1/4
f 269/2/4 270/2/4 283/2/4
f 270/4/4 271/4/4 284/4/4
f 283/2/4 270/2/4 284/2/4
f 271/4/4 272/4/4 284/4/4
f 284/4/4 272/4/4 285/4/4
f 285/4/4 272/4/4 286/4/4
f 274/2/4 275/2/4 287/2/4
f 273/4/4 274/4/4 287/4/4
f 275/4/4 276/4/4 288/4/4
f 287/2/4 275/2/4 288/2/4
f 277/4/4 278/4/4 288/4/4
f 276/4/4 277/4/4 288/4/4
f 288/4/4 278/4/4 289/4/4
f 289/4/4 278/4/4 290/4/4
f 280/4/4 281/4/4 291/4/4
f 279/4/4 280/4/4 291/4/4
f 291/4/4 281/4/4 292/4/4
f 286/4/4 272/4/4 293/4/4
f 285/3/4 286/3/4 293/3/4
f 293/4/4 272/4/4 294/4/4
f 272/3/4 273/3/4 295/3/4
f 294/4/4 272/4/4 295/4/4
f 273/4/4 287/4/4 296/4/4
f 295/3/4 273/3/4 296/3/4
f 288/4/4 289/4/4 296/4/4
f 287/4/4 288/4/4 296/4/4
f 289/3/4 290/3/4 297/3/4
f 296/4/4 289/4/4 297/4/4
f 297/3/4 290/3/4 298/3/4
f 290/4/4 291/4/4 299/4/4
f 292/4/4 281/4/4 300/4/4
f 281/2/4 282/2/4 301/2/4
f 300/4/4 281/4/4 301/4/4
f 282/4/4 267/4/4 302/4/4
f 301/2/4 282/2/4 302/2/4
f 285/3/4 293/3/4 303/3/4
f 295/4/4 296/4/4 304/4/4
f 294/4/4 295/4/4 304/4/4
f 296/4/4 297/4/4 304/4/4
f 297/4/4 298/4/4 304/4/4
f 304/4/4 298/4/4 305/4/4
f 305/4/4 298/4/4 306/4/4
f 306/4/4 298/4/4 307/4/4
f 307/4/4 298/4/4 308/4/4
f 300/4/4 301/4/4 309/4/4
f 299/4/4 300/4/4 309/4/4
f 290/4/4 299/4/4 309/4/4
f 301/4/4 302/4/4 309/4/4
f 298/3/4 290/3/4 309/3/4
f 309/4/4 302/4/4 310/4/4
f 302/4/4 267/4/4 311/4/4
f 310/4/4 302/4/4 311/4/4
f 267/5/4 268/5/4 312/5/4
f 311/4/4 267/4/4 312/4/4
f 259/1/4 283/1/4 313/1/4
f 284/4/4 285/4/4 314/4/4
f 313/1/4 283/1/4 314/1/4
f 283/4/4 284/4/4 314/4/4
f 285/3/4 303/3/4 315/3/4
f 314/4/4 285/4/4 315/4/4
f 304/4/4 305/4/4 316/4/4
f 315/3/4 303/3/4 316/3/4
f 303/4/4 304/4/4 316/4/4
f 305/3/4 306/3/4 317/3/4
f 316/4/4 305/4/4 317/4/4
f 306/4/4 307/4/4 318/4/4
f 317/3/4 306/3/4 318/3/4
f 307/2/4 308/2/4 319/2/4
f 318/4/4 307/4/4 319/4/4
f 308/4/4 298/4/4 320/4/4
f 319/2/4 308/2/4 320/2/4
f 309/3/4 310/3/4 321/3/4
f 320/4/4 298/4/4 321/4/4
f 298/3/4 309/3/4 321/3/4
f 310/4/4 311/4/4 322/4/4
f 321/3/4 310/3/4 322/3/4
f 311/2/4 312/2/4 323/2/4
f 322/4/4 311/4/4 323/4/4
f 312/5/4 268/5/4 324/5/4
f 323/2/4 312/2/4 324/2/4
f 324/5/4 268/5/4 325/5/4
f 328/1/5 327/1/5 326/1/5
f 329/1/5 327/1/5 328/1/5
f 332/4/5 331/4/5 330/4/5
f 333/4/5 331/4/5 332/4/5
f 336/4/5 335/4/5 334/4/5
f 337/4/5 335/4/5 336/4/5
f 340/4/5 339/4/5 338/4/5
f 341/4/5 339/4/5 340/4/5
f 344/4/5 343/4/5 342/4/5
f 345/4/5 343/4/5 344/4/5
f 348/4/5 347/4/5 346/4/5
f 349/4/5 347/4/5 348/4/5
f 352/4/5 351/4/5 350/4/5
f 353/4/5 351/4/5 352/4/5
f 354/3/6 355/3/6 356/3/6
f 356/3/6 355/3/6 357/3/6
f 358/2/6 359/2/6 360/2/6
f 360/2/6 359/2/6 361/2/6
f 362/4/6 363/4/6 364/4/6
f 364/4/6 363/4/6 365/4/6
f 366/2/6 367/2/6 368/2/6
f 368/2/6 367/2/6 369/2/6
f 370/4/6 371/4/6 372/4/6
f 372/4/6 371/4/6 373/4/6
f 374/4/6 375/4/6 376/4/6
f 376/4/6 375/4/6 377/4/6
f 378/5/6 379/5/6 380/5/6
f 380/5/6 379/5/6 381/5/6
