# MagicaVoxel @ Ephtracy

# group
o 

# material
mtllib case_8.mtl
usemtl palette

# normals
vn -1 0 0
vn 1 0 0
vn 0 0 1
vn 0 0 -1
vn 0 -1 0
vn 0 1 0

# texcoords
vt 0.978516 0.5
vt 0.994141 0.5

# verts
v -3.2 0 -0.1
v -3.2 0 -3.2
v -3.2 0.1 -9.68575e-08
v -3.2 0.1 -0.1
v -3.2 0.4 -0.9
v -3.2 0.4 -1.5
v -3.2 0.4 -2.1
v -3.2 0.4 -2.7
v -3.2 1 -0.9
v -3.2 1 -1.5
v -3.2 1 -2.1
v -3.2 1 -2.7
v -3.2 1.6 -0.9
v -3.2 1.6 -1.5
v -3.2 1.6 -2.1
v -3.2 1.6 -2.7
v -3.2 2.2 -0.9
v -3.2 2.2 -1.5
v -3.2 2.2 -2.1
v -3.2 2.2 -2.7
v -3.2 2.8 -0.9
v -3.2 2.8 -1.5
v -3.2 2.8 -2.1
v -3.2 2.8 -2.7
v -3.2 3.4 -0.9
v -3.2 3.4 -1.5
v -3.2 3.4 -2.1
v -3.2 3.4 -2.7
v -3.2 5.4 -0.9
v -3.2 5.4 -1.5
v -3.2 5.4 -2.1
v -3.2 5.4 -2.7
v -3.2 6 -0.9
v -3.2 6 -1.5
v -3.2 6 -2.1
v -3.2 6 -2.7
v -3.2 6.6 -0.9
v -3.2 6.6 -1.5
v -3.2 6.6 -2.1
v -3.2 6.6 -2.7
v -3.2 7.2 -0.9
v -3.2 7.2 -1.5
v -3.2 7.2 -2.1
v -3.2 7.2 -2.7
v -3.2 7.8 -0.9
v -3.2 7.8 -1.5
v -3.2 7.8 -2.1
v -3.2 7.8 -2.7
v -3.2 8.4 -0.9
v -3.2 8.4 -1.5
v -3.2 8.4 -2.1
v -3.2 8.4 -2.7
v -3.2 8.6 -9.68575e-08
v -3.2 8.6 -3.2
v -3.1 0.1 -9.68575e-08
v -3.1 0.1 -0.1
v -3.1 8.6 -9.68575e-08
v -3.1 8.6 -0.1
v -3 0 -0.1
v -3 0 -0.2
v -3 8.6 -0.1
v -3 8.6 -0.2
v -2.9 0 -0.2
v -2.9 0 -0.3
v -2.9 8.6 -0.2
v -2.9 8.6 -0.3
v -2.8 0 -0.3
v -2.8 0 -0.4
v -2.8 8.6 -0.3
v -2.8 8.6 -0.4
v -2.7 0 -0.4
v -2.7 0 -0.5
v -2.7 8.6 -0.4
v -2.7 8.6 -0.5
v -2.6 0 -0.5
v -2.6 0 -0.6
v -2.6 8.6 -0.5
v -2.6 8.6 -0.6
v -2.5 0 -0.6
v -2.5 0 -0.7
v -2.5 8.6 -0.6
v -2.5 8.6 -0.7
v -2.4 0 -0.7
v -2.4 0 -0.8
v -2.4 8.6 -0.7
v -2.4 8.6 -0.8
v -2.3 0 -0.8
v -2.3 0 -0.9
v -2.3 8.6 -0.8
v -2.3 8.6 -0.9
v -2.2 0 -0.9
v -2.2 0 -1
v -2.2 8.6 -0.9
v -2.2 8.6 -1
v -2.1 0 -1
v -2.1 0 -1.1
v -2.1 8.6 -1
v -2.1 8.6 -1.1
v -2 0 -1.1
v -2 0 -1.2
v -2 8.6 -1.1
v -2 8.6 -1.2
v -1.9 0 -1.2
v -1.9 0 -1.3
v -1.9 8.6 -1.2
v -1.9 8.6 -1.3
v -1.8 0 -1.3
v -1.8 0 -1.4
v -1.8 8.6 -1.3
v -1.8 8.6 -1.4
v -1.7 0 -1.4
v -1.7 0 -1.5
v -1.7 8.6 -1.4
v -1.7 8.6 -1.5
v -1.6 0 -1.5
v -1.6 0 -1.6
v -1.6 8.6 -1.5
v -1.6 8.6 -1.6
v -1.5 0 -1.6
v -1.5 0 -1.7
v -1.5 8.6 -1.6
v -1.5 8.6 -1.7
v -1.4 0 -1.7
v -1.4 0 -1.8
v -1.4 8.6 -1.7
v -1.4 8.6 -1.8
v -1.3 0 -1.8
v -1.3 0 -1.9
v -1.3 8.6 -1.8
v -1.3 8.6 -1.9
v -1.2 0 -1.9
v -1.2 0 -2
v -1.2 8.6 -1.9
v -1.2 8.6 -2
v -1.1 0 -2
v -1.1 0 -2.1
v -1.1 8.6 -2
v -1.1 8.6 -2.1
v -1 0 -2.1
v -1 0 -2.2
v -1 8.6 -2.1
v -1 8.6 -2.2
v -0.9 0 -2.2
v -0.9 0 -2.3
v -0.9 8.6 -2.2
v -0.9 8.6 -2.3
v -0.8 0 -2.3
v -0.8 0 -2.4
v -0.8 8.6 -2.3
v -0.8 8.6 -2.4
v -0.7 0 -2.4
v -0.7 0 -2.5
v -0.7 8.6 -2.4
v -0.7 8.6 -2.5
v -0.6 0 -2.5
v -0.6 0 -2.6
v -0.6 8.6 -2.5
v -0.6 8.6 -2.6
v -0.5 0 -2.6
v -0.5 0 -2.7
v -0.5 8.6 -2.6
v -0.5 8.6 -2.7
v -0.4 0 -2.7
v -0.4 0 -2.8
v -0.4 8.6 -2.7
v -0.4 8.6 -2.8
v -0.3 0 -2.8
v -0.3 0 -2.9
v -0.3 8.6 -2.8
v -0.3 8.6 -2.9
v -0.2 0 -2.9
v -0.2 0 -3
v -0.2 8.6 -2.9
v -0.2 8.6 -3
v -0.0999999 0 -3
v -0.0999999 0 -3.1
v -0.0999999 8.6 -3
v -0.0999999 8.6 -3.1
v 0 0 -3.1
v 0 0 -3.2
v 0 8.6 -3.1
v 0 8.6 -3.2
v -3.2 0.1 -9.68575e-08
v -3.2 8.6 -9.68575e-08
v -3.1 0.1 -9.68575e-08
v -3.1 8.6 -9.68575e-08
v -3.2 0 -0.1
v -3.2 0.1 -0.1
v -3.1 0.1 -0.1
v -3.1 8.6 -0.1
v -3 0 -0.1
v -3 8.6 -0.1
v -3 0 -0.2
v -3 8.6 -0.2
v -2.9 0 -0.2
v -2.9 8.6 -0.2
v -2.9 0 -0.3
v -2.9 8.6 -0.3
v -2.8 0 -0.3
v -2.8 8.6 -0.3
v -2.8 0 -0.4
v -2.8 8.6 -0.4
v -2.7 0 -0.4
v -2.7 8.6 -0.4
v -2.7 0 -0.5
v -2.7 8.6 -0.5
v -2.6 0 -0.5
v -2.6 8.6 -0.5
v -2.6 0 -0.6
v -2.6 8.6 -0.6
v -2.5 0 -0.6
v -2.5 8.6 -0.6
v -2.5 0 -0.7
v -2.5 8.6 -0.7
v -2.4 0 -0.7
v -2.4 8.6 -0.7
v -2.4 0 -0.8
v -2.4 8.6 -0.8
v -2.3 0 -0.8
v -2.3 8.6 -0.8
v -2.3 0 -0.9
v -2.3 8.6 -0.9
v -2.2 0 -0.9
v -2.2 8.6 -0.9
v -2.2 0 -1
v -2.2 8.6 -1
v -2.1 0 -1
v -2.1 8.6 -1
v -2.1 0 -1.1
v -2.1 8.6 -1.1
v -2 0 -1.1
v -2 8.6 -1.1
v -2 0 -1.2
v -2 8.6 -1.2
v -1.9 0 -1.2
v -1.9 8.6 -1.2
v -1.9 0 -1.3
v -1.9 8.6 -1.3
v -1.8 0 -1.3
v -1.8 8.6 -1.3
v -1.8 0 -1.4
v -1.8 8.6 -1.4
v -1.7 0 -1.4
v -1.7 8.6 -1.4
v -1.7 0 -1.5
v -1.7 8.6 -1.5
v -1.6 0 -1.5
v -1.6 8.6 -1.5
v -1.6 0 -1.6
v -1.6 8.6 -1.6
v -1.5 0 -1.6
v -1.5 8.6 -1.6
v -1.5 0 -1.7
v -1.5 8.6 -1.7
v -1.4 0 -1.7
v -1.4 8.6 -1.7
v -1.4 0 -1.8
v -1.4 8.6 -1.8
v -1.3 0 -1.8
v -1.3 8.6 -1.8
v -1.3 0 -1.9
v -1.3 8.6 -1.9
v -1.2 0 -1.9
v -1.2 8.6 -1.9
v -1.2 0 -2
v -1.2 8.6 -2
v -1.1 0 -2
v -1.1 8.6 -2
v -1.1 0 -2.1
v -1.1 8.6 -2.1
v -1 0 -2.1
v -1 8.6 -2.1
v -1 0 -2.2
v -1 8.6 -2.2
v -0.9 0 -2.2
v -0.9 8.6 -2.2
v -0.9 0 -2.3
v -0.9 8.6 -2.3
v -0.8 0 -2.3
v -0.8 8.6 -2.3
v -0.8 0 -2.4
v -0.8 8.6 -2.4
v -0.7 0 -2.4
v -0.7 8.6 -2.4
v -0.7 0 -2.5
v -0.7 8.6 -2.5
v -0.6 0 -2.5
v -0.6 8.6 -2.5
v -0.6 0 -2.6
v -0.6 8.6 -2.6
v -0.5 0 -2.6
v -0.5 8.6 -2.6
v -0.5 0 -2.7
v -0.5 8.6 -2.7
v -0.4 0 -2.7
v -0.4 8.6 -2.7
v -0.4 0 -2.8
v -0.4 8.6 -2.8
v -0.3 0 -2.8
v -0.3 8.6 -2.8
v -0.3 0 -2.9
v -0.3 8.6 -2.9
v -0.2 0 -2.9
v -0.2 8.6 -2.9
v -0.2 0 -3
v -0.2 8.6 -3
v -0.0999999 0 -3
v -0.0999999 8.6 -3
v -0.0999999 0 -3.1
v -0.0999999 8.6 -3.1
v 0 0 -3.1
v 0 8.6 -3.1
v -3.2 0 -3.2
v -3.2 8.6 -3.2
v 0 0 -3.2
v 0 8.6 -3.2
v -3.2 0 -0.1
v -3 0 -0.1
v -3 0 -0.2
v -2.9 0 -0.2
v -2.9 0 -0.3
v -2.8 0 -0.3
v -2.8 0 -0.4
v -2.7 0 -0.4
v -2.7 0 -0.5
v -2.6 0 -0.5
v -2.6 0 -0.6
v -2.5 0 -0.6
v -2.5 0 -0.7
v -2.4 0 -0.7
v -2.4 0 -0.8
v -2.3 0 -0.8
v -2.3 0 -0.9
v -2.2 0 -0.9
v -2.2 0 -1
v -2.1 0 -1
v -2.1 0 -1.1
v -2 0 -1.1
v -2 0 -1.2
v -1.9 0 -1.2
v -1.9 0 -1.3
v -1.8 0 -1.3
v -1.8 0 -1.4
v -1.7 0 -1.4
v -1.7 0 -1.5
v -1.6 0 -1.5
v -1.6 0 -1.6
v -1.5 0 -1.6
v -1.5 0 -1.7
v -1.4 0 -1.7
v -1.4 0 -1.8
v -1.3 0 -1.8
v -1.3 0 -1.9
v -1.2 0 -1.9
v -1.2 0 -2
v -1.1 0 -2
v -1.1 0 -2.1
v -1 0 -2.1
v -1 0 -2.2
v -0.9 0 -2.2
v -0.9 0 -2.3
v -0.8 0 -2.3
v -0.8 0 -2.4
v -0.7 0 -2.4
v -0.7 0 -2.5
v -0.6 0 -2.5
v -0.6 0 -2.6
v -0.5 0 -2.6
v -0.5 0 -2.7
v -0.4 0 -2.7
v -0.4 0 -2.8
v -0.3 0 -2.8
v -0.3 0 -2.9
v -0.2 0 -2.9
v -0.2 0 -3
v -0.0999999 0 -3
v -0.0999999 0 -3.1
v 0 0 -3.1
v -3.2 0 -3.2
v 0 0 -3.2
v -3.2 0.1 -9.68575e-08
v -3.1 0.1 -9.68575e-08
v -3.2 0.1 -0.1
v -3.1 0.1 -0.1
v -3.2 8.6 -9.68575e-08
v -3.1 8.6 -9.68575e-08
v -3.1 8.6 -0.1
v -3 8.6 -0.1
v -3 8.6 -0.2
v -2.9 8.6 -0.2
v -2.9 8.6 -0.3
v -2.8 8.6 -0.3
v -2.8 8.6 -0.4
v -2.7 8.6 -0.4
v -2.7 8.6 -0.5
v -2.6 8.6 -0.5
v -2.6 8.6 -0.6
v -2.5 8.6 -0.6
v -2.5 8.6 -0.7
v -2.4 8.6 -0.7
v -2.4 8.6 -0.8
v -2.3 8.6 -0.8
v -2.3 8.6 -0.9
v -2.2 8.6 -0.9
v -2.2 8.6 -1
v -2.1 8.6 -1
v -2.1 8.6 -1.1
v -2 8.6 -1.1
v -2 8.6 -1.2
v -1.9 8.6 -1.2
v -1.9 8.6 -1.3
v -1.8 8.6 -1.3
v -1.8 8.6 -1.4
v -1.7 8.6 -1.4
v -1.7 8.6 -1.5
v -1.6 8.6 -1.5
v -1.6 8.6 -1.6
v -1.5 8.6 -1.6
v -1.5 8.6 -1.7
v -1.4 8.6 -1.7
v -1.4 8.6 -1.8
v -1.3 8.6 -1.8
v -1.3 8.6 -1.9
v -1.2 8.6 -1.9
v -1.2 8.6 -2
v -1.1 8.6 -2
v -1.1 8.6 -2.1
v -1 8.6 -2.1
v -1 8.6 -2.2
v -0.9 8.6 -2.2
v -0.9 8.6 -2.3
v -0.8 8.6 -2.3
v -0.8 8.6 -2.4
v -0.7 8.6 -2.4
v -0.7 8.6 -2.5
v -0.6 8.6 -2.5
v -0.6 8.6 -2.6
v -0.5 8.6 -2.6
v -0.5 8.6 -2.7
v -0.4 8.6 -2.7
v -0.4 8.6 -2.8
v -0.3 8.6 -2.8
v -0.3 8.6 -2.9
v -0.2 8.6 -2.9
v -0.2 8.6 -3
v -0.0999999 8.6 -3
v -0.0999999 8.6 -3.1
v 0 8.6 -3.1
v -3.2 8.6 -3.2
v 0 8.6 -3.2

# faces
f 4/1/1 2/1/1 1/1/1
f 5/1/1 2/1/1 4/1/1
f 5/1/1 4/1/1 3/1/1
f 6/1/1 2/1/1 5/1/1
f 7/1/1 2/1/1 6/1/1
f 8/1/1 2/1/1 7/1/1
f 9/1/1 5/1/1 3/1/1
f 9/2/1 6/2/1 5/2/1
f 10/1/1 7/1/1 6/1/1
f 10/2/1 6/2/1 9/2/1
f 11/2/1 8/2/1 7/2/1
f 11/1/1 7/1/1 10/1/1
f 12/1/1 2/1/1 8/1/1
f 12/2/1 8/2/1 11/2/1
f 13/1/1 11/1/1 10/1/1
f 13/1/1 10/1/1 9/1/1
f 13/1/1 12/1/1 11/1/1
f 13/1/1 9/1/1 3/1/1
f 14/1/1 12/1/1 13/1/1
f 15/1/1 12/1/1 14/1/1
f 16/1/1 2/1/1 12/1/1
f 16/1/1 12/1/1 15/1/1
f 17/1/1 13/1/1 3/1/1
f 17/2/1 14/2/1 13/2/1
f 18/1/1 15/1/1 14/1/1
f 18/2/1 14/2/1 17/2/1
f 19/2/1 16/2/1 15/2/1
f 19/1/1 15/1/1 18/1/1
f 20/1/1 2/1/1 16/1/1
f 20/2/1 16/2/1 19/2/1
f 21/1/1 17/1/1 3/1/1
f 21/1/1 19/1/1 18/1/1
f 21/1/1 20/1/1 19/1/1
f 21/1/1 18/1/1 17/1/1
f 22/1/1 20/1/1 21/1/1
f 23/1/1 20/1/1 22/1/1
f 24/1/1 2/1/1 20/1/1
f 24/1/1 20/1/1 23/1/1
f 25/1/1 21/1/1 3/1/1
f 25/2/1 22/2/1 21/2/1
f 26/1/1 23/1/1 22/1/1
f 26/2/1 22/2/1 25/2/1
f 27/2/1 24/2/1 23/2/1
f 27/1/1 23/1/1 26/1/1
f 28/1/1 2/1/1 24/1/1
f 28/2/1 24/2/1 27/2/1
f 29/1/1 25/1/1 3/1/1
f 29/1/1 27/1/1 26/1/1
f 29/1/1 28/1/1 27/1/1
f 29/1/1 26/1/1 25/1/1
f 30/1/1 28/1/1 29/1/1
f 31/1/1 28/1/1 30/1/1
f 32/1/1 2/1/1 28/1/1
f 32/1/1 28/1/1 31/1/1
f 33/1/1 29/1/1 3/1/1
f 33/2/1 30/2/1 29/2/1
f 34/1/1 31/1/1 30/1/1
f 34/2/1 30/2/1 33/2/1
f 35/2/1 32/2/1 31/2/1
f 35/1/1 31/1/1 34/1/1
f 36/1/1 2/1/1 32/1/1
f 36/2/1 32/2/1 35/2/1
f 37/1/1 33/1/1 3/1/1
f 37/1/1 35/1/1 34/1/1
f 37/1/1 36/1/1 35/1/1
f 37/1/1 34/1/1 33/1/1
f 38/1/1 36/1/1 37/1/1
f 39/1/1 36/1/1 38/1/1
f 40/1/1 2/1/1 36/1/1
f 40/1/1 36/1/1 39/1/1
f 41/1/1 37/1/1 3/1/1
f 41/2/1 38/2/1 37/2/1
f 42/1/1 39/1/1 38/1/1
f 42/2/1 38/2/1 41/2/1
f 43/2/1 40/2/1 39/2/1
f 43/1/1 39/1/1 42/1/1
f 44/1/1 2/1/1 40/1/1
f 44/2/1 40/2/1 43/2/1
f 45/1/1 41/1/1 3/1/1
f 45/1/1 43/1/1 42/1/1
f 45/1/1 44/1/1 43/1/1
f 45/1/1 42/1/1 41/1/1
f 46/1/1 44/1/1 45/1/1
f 47/1/1 44/1/1 46/1/1
f 48/1/1 2/1/1 44/1/1
f 48/1/1 44/1/1 47/1/1
f 49/1/1 45/1/1 3/1/1
f 49/2/1 46/2/1 45/2/1
f 50/1/1 47/1/1 46/1/1
f 50/2/1 46/2/1 49/2/1
f 51/2/1 48/2/1 47/2/1
f 51/1/1 47/1/1 50/1/1
f 52/1/1 2/1/1 48/1/1
f 52/2/1 48/2/1 51/2/1
f 53/1/1 49/1/1 3/1/1
f 53/1/1 51/1/1 50/1/1
f 53/1/1 52/1/1 51/1/1
f 53/1/1 50/1/1 49/1/1
f 54/1/1 2/1/1 52/1/1
f 54/1/1 52/1/1 53/1/1
f 55/1/2 56/1/2 57/1/2
f 57/1/2 56/1/2 58/1/2
f 59/1/2 60/1/2 61/1/2
f 61/1/2 60/1/2 62/1/2
f 63/1/2 64/1/2 65/1/2
f 65/1/2 64/1/2 66/1/2
f 67/1/2 68/1/2 69/1/2
f 69/1/2 68/1/2 70/1/2
f 71/1/2 72/1/2 73/1/2
f 73/1/2 72/1/2 74/1/2
f 75/1/2 76/1/2 77/1/2
f 77/1/2 76/1/2 78/1/2
f 79/1/2 80/1/2 81/1/2
f 81/1/2 80/1/2 82/1/2
f 83/1/2 84/1/2 85/1/2
f 85/1/2 84/1/2 86/1/2
f 87/1/2 88/1/2 89/1/2
f 89/1/2 88/1/2 90/1/2
f 91/1/2 92/1/2 93/1/2
f 93/1/2 92/1/2 94/1/2
f 95/1/2 96/1/2 97/1/2
f 97/1/2 96/1/2 98/1/2
f 99/1/2 100/1/2 101/1/2
f 101/1/2 100/1/2 102/1/2
f 103/1/2 104/1/2 105/1/2
f 105/1/2 104/1/2 106/1/2
f 107/1/2 108/1/2 109/1/2
f 109/1/2 108/1/2 110/1/2
f 111/1/2 112/1/2 113/1/2
f 113/1/2 112/1/2 114/1/2
f 115/1/2 116/1/2 117/1/2
f 117/1/2 116/1/2 118/1/2
f 119/1/2 120/1/2 121/1/2
f 121/1/2 120/1/2 122/1/2
f 123/1/2 124/1/2 125/1/2
f 125/1/2 124/1/2 126/1/2
f 127/1/2 128/1/2 129/1/2
f 129/1/2 128/1/2 130/1/2
f 131/1/2 132/1/2 133/1/2
f 133/1/2 132/1/2 134/1/2
f 135/1/2 136/1/2 137/1/2
f 137/1/2 136/1/2 138/1/2
f 139/1/2 140/1/2 141/1/2
f 141/1/2 140/1/2 142/1/2
f 143/1/2 144/1/2 145/1/2
f 145/1/2 144/1/2 146/1/2
f 147/1/2 148/1/2 149/1/2
f 149/1/2 148/1/2 150/1/2
f 151/1/2 152/1/2 153/1/2
f 153/1/2 152/1/2 154/1/2
f 155/1/2 156/1/2 157/1/2
f 157/1/2 156/1/2 158/1/2
f 159/1/2 160/1/2 161/1/2
f 161/1/2 160/1/2 162/1/2
f 163/1/2 164/1/2 165/1/2
f 165/1/2 164/1/2 166/1/2
f 167/1/2 168/1/2 169/1/2
f 169/1/2 168/1/2 170/1/2
f 171/1/2 172/1/2 173/1/2
f 173/1/2 172/1/2 174/1/2
f 175/1/2 176/1/2 177/1/2
f 177/1/2 176/1/2 178/1/2
f 179/1/2 180/1/2 181/1/2
f 181/1/2 180/1/2 182/1/2
f 185/1/3 184/1/3 183/1/3
f 186/1/3 184/1/3 185/1/3
f 189/1/3 188/1/3 187/1/3
f 191/1/3 189/1/3 187/1/3
f 191/1/3 190/1/3 189/1/3
f 192/1/3 190/1/3 191/1/3
f 195/1/3 194/1/3 193/1/3
f 196/1/3 194/1/3 195/1/3
f 199/1/3 198/1/3 197/1/3
f 200/1/3 198/1/3 199/1/3
f 203/1/3 202/1/3 201/1/3
f 204/1/3 202/1/3 203/1/3
f 207/1/3 206/1/3 205/1/3
f 208/1/3 206/1/3 207/1/3
f 211/1/3 210/1/3 209/1/3
f 212/1/3 210/1/3 211/1/3
f 215/1/3 214/1/3 213/1/3
f 216/1/3 214/1/3 215/1/3
f 219/1/3 218/1/3 217/1/3
f 220/1/3 218/1/3 219/1/3
f 223/1/3 222/1/3 221/1/3
f 224/1/3 222/1/3 223/1/3
f 227/1/3 226/1/3 225/1/3
f 228/1/3 226/1/3 227/1/3
f 231/1/3 230/1/3 229/1/3
f 232/1/3 230/1/3 231/1/3
f 235/1/3 234/1/3 233/1/3
f 236/1/3 234/1/3 235/1/3
f 239/1/3 238/1/3 237/1/3
f 240/1/3 238/1/3 239/1/3
f 243/1/3 242/1/3 241/1/3
f 244/1/3 242/1/3 243/1/3
f 247/1/3 246/1/3 245/1/3
f 248/1/3 246/1/3 247/1/3
f 251/1/3 250/1/3 249/1/3
f 252/1/3 250/1/3 251/1/3
f 255/1/3 254/1/3 253/1/3
f 256/1/3 254/1/3 255/1/3
f 259/1/3 258/1/3 257/1/3
f 260/1/3 258/1/3 259/1/3
f 263/1/3 262/1/3 261/1/3
f 264/1/3 262/1/3 263/1/3
f 267/1/3 266/1/3 265/1/3
f 268/1/3 266/1/3 267/1/3
f 271/1/3 270/1/3 269/1/3
f 272/1/3 270/1/3 271/1/3
f 275/1/3 274/1/3 273/1/3
f 276/1/3 274/1/3 275/1/3
f 279/1/3 278/1/3 277/1/3
f 280/1/3 278/1/3 279/1/3
f 283/1/3 282/1/3 281/1/3
f 284/1/3 282/1/3 283/1/3
f 287/1/3 286/1/3 285/1/3
f 288/1/3 286/1/3 287/1/3
f 291/1/3 290/1/3 289/1/3
f 292/1/3 290/1/3 291/1/3
f 295/1/3 294/1/3 293/1/3
f 296/1/3 294/1/3 295/1/3
f 299/1/3 298/1/3 297/1/3
f 300/1/3 298/1/3 299/1/3
f 303/1/3 302/1/3 301/1/3
f 304/1/3 302/1/3 303/1/3
f 307/1/3 306/1/3 305/1/3
f 308/1/3 306/1/3 307/1/3
f 311/1/3 310/1/3 309/1/3
f 312/1/3 310/1/3 311/1/3
f 313/1/4 314/1/4 315/1/4
f 315/1/4 314/1/4 316/1/4
f 319/1/5 318/1/5 317/1/5
f 321/1/5 320/1/5 319/1/5
f 323/1/5 322/1/5 321/1/5
f 325/1/5 324/1/5 323/1/5
f 327/1/5 326/1/5 325/1/5
f 329/1/5 328/1/5 327/1/5
f 331/1/5 330/1/5 329/1/5
f 333/1/5 332/1/5 331/1/5
f 335/1/5 334/1/5 333/1/5
f 337/1/5 336/1/5 335/1/5
f 339/1/5 338/1/5 337/1/5
f 341/1/5 340/1/5 339/1/5
f 343/1/5 342/1/5 341/1/5
f 345/1/5 344/1/5 343/1/5
f 347/1/5 346/1/5 345/1/5
f 349/1/5 348/1/5 347/1/5
f 351/1/5 350/1/5 349/1/5
f 353/1/5 352/1/5 351/1/5
f 355/1/5 354/1/5 353/1/5
f 357/1/5 356/1/5 355/1/5
f 359/1/5 358/1/5 357/1/5
f 361/1/5 360/1/5 359/1/5
f 363/1/5 362/1/5 361/1/5
f 365/1/5 364/1/5 363/1/5
f 367/1/5 366/1/5 365/1/5
f 369/1/5 368/1/5 367/1/5
f 371/1/5 370/1/5 369/1/5
f 373/1/5 372/1/5 371/1/5
f 375/1/5 374/1/5 373/1/5
f 377/1/5 376/1/5 375/1/5
f 379/1/5 319/1/5 317/1/5
f 379/1/5 378/1/5 377/1/5
f 379/1/5 377/1/5 375/1/5
f 379/1/5 375/1/5 373/1/5
f 379/1/5 373/1/5 371/1/5
f 379/1/5 371/1/5 369/1/5
f 379/1/5 369/1/5 367/1/5
f 379/1/5 367/1/5 365/1/5
f 379/1/5 365/1/5 363/1/5
f 379/1/5 363/1/5 361/1/5
f 379/1/5 361/1/5 359/1/5
f 379/1/5 359/1/5 357/1/5
f 379/1/5 357/1/5 355/1/5
f 379/1/5 355/1/5 353/1/5
f 379/1/5 353/1/5 351/1/5
f 379/1/5 351/1/5 349/1/5
f 379/1/5 349/1/5 347/1/5
f 379/1/5 347/1/5 345/1/5
f 379/1/5 345/1/5 343/1/5
f 379/1/5 343/1/5 341/1/5
f 379/1/5 341/1/5 339/1/5
f 379/1/5 339/1/5 337/1/5
f 379/1/5 337/1/5 335/1/5
f 379/1/5 335/1/5 333/1/5
f 379/1/5 333/1/5 331/1/5
f 379/1/5 331/1/5 329/1/5
f 379/1/5 329/1/5 327/1/5
f 379/1/5 327/1/5 325/1/5
f 379/1/5 325/1/5 323/1/5
f 379/1/5 323/1/5 321/1/5
f 379/1/5 321/1/5 319/1/5
f 380/1/5 378/1/5 379/1/5
f 383/1/5 382/1/5 381/1/5
f 384/1/5 382/1/5 383/1/5
f 385/1/6 386/1/6 387/1/6
f 387/1/6 388/1/6 389/1/6
f 389/1/6 390/1/6 391/1/6
f 391/1/6 392/1/6 393/1/6
f 393/1/6 394/1/6 395/1/6
f 395/1/6 396/1/6 397/1/6
f 397/1/6 398/1/6 399/1/6
f 399/1/6 400/1/6 401/1/6
f 401/1/6 402/1/6 403/1/6
f 403/1/6 404/1/6 405/1/6
f 405/1/6 406/1/6 407/1/6
f 407/1/6 408/1/6 409/1/6
f 409/1/6 410/1/6 411/1/6
f 411/1/6 412/1/6 413/1/6
f 413/1/6 414/1/6 415/1/6
f 415/1/6 416/1/6 417/1/6
f 417/1/6 418/1/6 419/1/6
f 419/1/6 420/1/6 421/1/6
f 421/1/6 422/1/6 423/1/6
f 423/1/6 424/1/6 425/1/6
f 425/1/6 426/1/6 427/1/6
f 427/1/6 428/1/6 429/1/6
f 429/1/6 430/1/6 431/1/6
f 431/1/6 432/1/6 433/1/6
f 433/1/6 434/1/6 435/1/6
f 435/1/6 436/1/6 437/1/6
f 437/1/6 438/1/6 439/1/6
f 439/1/6 440/1/6 441/1/6
f 441/1/6 442/1/6 443/1/6
f 443/1/6 444/1/6 445/1/6
f 445/1/6 446/1/6 447/1/6
f 385/1/6 387/1/6 449/1/6
f 447/1/6 448/1/6 449/1/6
f 445/1/6 447/1/6 449/1/6
f 443/1/6 445/1/6 449/1/6
f 441/1/6 443/1/6 449/1/6
f 439/1/6 441/1/6 449/1/6
f 437/1/6 439/1/6 449/1/6
f 435/1/6 437/1/6 449/1/6
f 433/1/6 435/1/6 449/1/6
f 431/1/6 433/1/6 449/1/6
f 429/1/6 431/1/6 449/1/6
f 427/1/6 429/1/6 449/1/6
f 425/1/6 427/1/6 449/1/6
f 423/1/6 425/1/6 449/1/6
f 421/1/6 423/1/6 449/1/6
f 419/1/6 421/1/6 449/1/6
f 417/1/6 419/1/6 449/1/6
f 415/1/6 417/1/6 449/1/6
f 413/1/6 415/1/6 449/1/6
f 411/1/6 413/1/6 449/1/6
f 409/1/6 411/1/6 449/1/6
f 407/1/6 409/1/6 449/1/6
f 405/1/6 407/1/6 449/1/6
f 403/1/6 405/1/6 449/1/6
f 401/1/6 403/1/6 449/1/6
f 399/1/6 401/1/6 449/1/6
f 397/1/6 399/1/6 449/1/6
f 395/1/6 397/1/6 449/1/6
f 393/1/6 395/1/6 449/1/6
f 391/1/6 393/1/6 449/1/6
f 389/1/6 391/1/6 449/1/6
f 387/1/6 389/1/6 449/1/6
f 449/1/6 448/1/6 450/1/6
