# Blender 4.3.2
# www.blender.org
mtllib case_8.mtl
o Untitled
v -3.200000 0.000001 -0.100000
v -3.200000 0.000000 -3.200000
v -3.200000 0.400001 -0.900000
v -3.200000 0.400000 -1.500000
v -3.200000 0.400000 -2.100000
v -3.200000 0.400000 -2.700000
v -3.200000 1.000000 -0.900000
v -3.200000 1.000000 -1.500000
v -3.200000 1.000000 -2.100000
v -3.200000 1.000000 -2.700000
v -3.200000 1.600001 -0.900000
v -3.200000 1.600001 -1.500000
v -3.200000 1.600001 -2.100000
v -3.200000 1.600000 -2.700000
v -3.200000 2.200001 -0.900000
v -3.200000 2.200001 -1.500000
v -3.200000 2.200000 -2.100000
v -3.200000 2.200000 -2.700000
v -3.200000 2.800000 -0.900000
v -3.200000 2.800000 -1.500000
v -3.200000 2.800000 -2.100000
v -3.200000 2.800000 -2.700000
v -3.200000 3.400001 -0.900000
v -3.200000 3.400001 -1.500000
v -3.200000 3.400000 -2.100000
v -3.200000 3.400000 -2.700000
v -3.200000 5.400001 -0.900001
v -3.200000 5.400001 -1.500000
v -3.200000 5.400001 -2.100000
v -3.200000 5.400001 -2.700000
v -3.200000 6.000000 -0.900001
v -3.200000 6.000000 -1.500000
v -3.200000 6.000000 -2.100000
v -3.200000 6.000000 -2.700000
v -3.200000 6.600000 -0.900001
v -3.200000 6.600000 -1.500000
v -3.200000 6.600000 -2.100000
v -3.200000 6.600000 -2.700000
v -3.200000 7.200000 -0.900001
v -3.200000 7.200000 -1.500001
v -3.200000 7.200000 -2.100000
v -3.200000 7.200000 -2.700000
v -3.200000 7.800001 -0.900001
v -3.200000 7.800001 -1.500001
v -3.200000 7.800001 -2.100000
v -3.200000 7.800001 -2.700000
v -3.200000 8.400001 -0.900001
v -3.200000 8.400001 -1.500001
v -3.200000 8.400001 -2.100001
v -3.200000 8.400001 -2.700001
v -3.200000 8.600001 -0.100001
v -3.200000 8.600001 -3.200001
v -3.100000 0.000001 -0.100000
v -3.100000 0.000001 -0.200000
v -3.100000 8.600001 -0.100001
v -3.100000 8.600001 -0.200000
v -3.000000 0.000001 -0.200000
v -3.000000 0.000001 -0.300000
v -3.000000 8.600001 -0.200000
v -3.000000 8.600001 -0.300001
v -2.900000 0.000001 -0.300000
v -2.900000 0.000001 -0.400000
v -2.900000 8.600001 -0.300001
v -2.900000 8.600001 -0.400001
v -2.800000 0.000001 -0.400000
v -2.800000 0.000001 -0.500000
v -2.800000 8.600001 -0.400001
v -2.800000 8.600001 -0.500001
v -2.700000 0.000001 -0.500000
v -2.700000 0.000001 -0.600000
v -2.700000 8.600001 -0.500001
v -2.700000 8.600001 -0.600001
v -2.600000 0.000001 -0.600000
v -2.600000 0.000001 -0.700000
v -2.600000 8.600001 -0.600001
v -2.600000 8.600001 -0.700000
v -2.500000 0.000001 -0.700000
v -2.500000 0.000001 -0.800000
v -2.500000 8.600001 -0.700000
v -2.500000 8.600001 -0.800001
v -2.400000 0.000001 -0.800000
v -2.400000 0.000000 -0.900000
v -2.400000 8.600001 -0.800001
v -2.400000 8.600001 -0.900001
v -2.300000 0.000000 -0.900000
v -2.300000 0.000000 -1.000000
v -2.300000 8.600001 -0.900001
v -2.300000 8.600001 -1.000001
v -2.200000 0.000000 -1.000000
v -2.200000 0.000000 -1.100000
v -2.200000 8.600001 -1.000001
v -2.200000 8.600001 -1.100001
v -2.100000 0.000000 -1.100000
v -2.100000 0.000000 -1.200000
v -2.100000 8.600001 -1.100001
v -2.100000 8.600001 -1.200000
v -2.000000 0.000000 -1.200000
v -2.000000 0.000000 -1.300000
v -2.000000 8.600001 -1.200000
v -2.000000 8.600001 -1.300001
v -1.900000 0.000000 -1.300000
v -1.900000 0.000000 -1.400000
v -1.900000 8.600001 -1.300001
v -1.900000 8.600001 -1.400001
v -1.800000 0.000000 -1.400000
v -1.800000 0.000000 -1.500000
v -1.800000 8.600001 -1.400001
v -1.800000 8.600001 -1.500001
v -1.700000 0.000000 -1.500000
v -1.700000 0.000000 -1.600000
v -1.700000 8.600001 -1.500001
v -1.700000 8.600001 -1.600001
v -1.600000 0.000000 -1.600000
v -1.600000 0.000000 -1.700000
v -1.600000 8.600001 -1.600001
v -1.600000 8.600001 -1.700000
v -1.500000 0.000000 -1.700000
v -1.500000 0.000000 -1.800000
v -1.500000 8.600001 -1.700000
v -1.500000 8.600001 -1.800001
v -1.400000 0.000000 -1.800000
v -1.400000 0.000000 -1.900000
v -1.400000 8.600001 -1.800001
v -1.400000 8.600001 -1.900001
v -1.300000 0.000000 -1.900000
v -1.300000 0.000000 -2.000000
v -1.300000 8.600001 -1.900001
v -1.300000 8.600001 -2.000001
v -1.200000 0.000000 -2.000000
v -1.200000 0.000000 -2.100000
v -1.200000 8.600001 -2.000001
v -1.200000 8.600001 -2.100001
v -1.100000 0.000000 -2.100000
v -1.100000 0.000000 -2.200000
v -1.100000 8.600001 -2.100001
v -1.100000 8.600001 -2.200001
v -1.000000 0.000000 -2.200000
v -1.000000 0.000000 -2.300000
v -1.000000 8.600001 -2.200001
v -1.000000 8.600001 -2.300001
v -0.900000 0.000000 -2.300000
v -0.900000 0.000000 -2.400000
v -0.900000 8.600001 -2.300001
v -0.900000 8.600001 -2.400001
v -0.800000 0.000000 -2.400000
v -0.800000 0.000000 -2.500000
v -0.800000 8.600001 -2.400001
v -0.800000 8.600001 -2.500001
v -0.700000 0.000000 -2.500000
v -0.700000 0.000000 -2.600000
v -0.700000 8.600001 -2.500001
v -0.700000 8.600001 -2.600001
v -0.600000 0.000000 -2.600000
v -0.600000 0.000000 -2.700000
v -0.600000 8.600001 -2.600001
v -0.600000 8.600001 -2.700001
v -0.500000 0.000000 -2.700000
v -0.500000 0.000000 -2.800000
v -0.500000 8.600001 -2.700001
v -0.500000 8.600001 -2.800001
v -0.400000 0.000000 -2.800000
v -0.400000 0.000000 -2.900000
v -0.400000 8.600001 -2.800001
v -0.400000 8.600001 -2.900001
v -0.300000 0.000000 -2.900000
v -0.300000 0.000000 -3.000000
v -0.300000 8.600001 -2.900001
v -0.300000 8.600001 -3.000001
v -0.200000 0.000000 -3.000000
v -0.200000 0.000000 -3.100000
v -0.200000 8.600001 -3.000001
v -0.200000 8.600001 -3.100001
v -0.100000 0.000000 -3.100000
v -0.100000 0.000000 -3.200000
v -0.100000 8.600001 -3.100001
v -0.100000 8.600001 -3.200001
v -3.200000 0.000001 -0.100000
v -3.200000 8.600001 -0.100001
v -3.100000 0.000001 -0.100000
v -3.100000 8.600001 -0.100001
v -3.100000 0.000001 -0.200000
v -3.100000 8.600001 -0.200000
v -3.000000 0.000001 -0.200000
v -3.000000 8.600001 -0.200000
v -3.000000 0.000001 -0.300000
v -3.000000 8.600001 -0.300001
v -2.900000 0.000001 -0.300000
v -2.900000 8.600001 -0.300001
v -2.900000 0.000001 -0.400000
v -2.900000 8.600001 -0.400001
v -2.800000 0.000001 -0.400000
v -2.800000 8.600001 -0.400001
v -2.800000 0.000001 -0.500000
v -2.800000 8.600001 -0.500001
v -2.700000 0.000001 -0.500000
v -2.700000 8.600001 -0.500001
v -2.700000 0.000001 -0.600000
v -2.700000 8.600001 -0.600001
v -2.600000 0.000001 -0.600000
v -2.600000 8.600001 -0.600001
v -2.600000 0.000001 -0.700000
v -2.600000 8.600001 -0.700000
v -2.500000 0.000001 -0.700000
v -2.500000 8.600001 -0.700000
v -2.500000 0.000001 -0.800000
v -2.500000 8.600001 -0.800001
v -2.400000 0.000001 -0.800000
v -2.400000 8.600001 -0.800001
v -2.400000 0.000000 -0.900000
v -2.400000 8.600001 -0.900001
v -2.300000 0.000000 -0.900000
v -2.300000 8.600001 -0.900001
v -2.300000 0.000000 -1.000000
v -2.300000 8.600001 -1.000001
v -2.200000 0.000000 -1.000000
v -2.200000 8.600001 -1.000001
v -2.200000 0.000000 -1.100000
v -2.200000 8.600001 -1.100001
v -2.100000 0.000000 -1.100000
v -2.100000 8.600001 -1.100001
v -2.100000 0.000000 -1.200000
v -2.100000 8.600001 -1.200000
v -2.000000 0.000000 -1.200000
v -2.000000 8.600001 -1.200000
v -2.000000 0.000000 -1.300000
v -2.000000 8.600001 -1.300001
v -1.900000 0.000000 -1.300000
v -1.900000 8.600001 -1.300001
v -1.900000 0.000000 -1.400000
v -1.900000 8.600001 -1.400001
v -1.800000 0.000000 -1.400000
v -1.800000 8.600001 -1.400001
v -1.800000 0.000000 -1.500000
v -1.800000 8.600001 -1.500001
v -1.700000 0.000000 -1.500000
v -1.700000 8.600001 -1.500001
v -1.700000 0.000000 -1.600000
v -1.700000 8.600001 -1.600001
v -1.600000 0.000000 -1.600000
v -1.600000 8.600001 -1.600001
v -1.600000 0.000000 -1.700000
v -1.600000 8.600001 -1.700000
v -1.500000 0.000000 -1.700000
v -1.500000 8.600001 -1.700000
v -1.500000 0.000000 -1.800000
v -1.500000 8.600001 -1.800001
v -1.400000 0.000000 -1.800000
v -1.400000 8.600001 -1.800001
v -1.400000 0.000000 -1.900000
v -1.400000 8.600001 -1.900001
v -1.300000 0.000000 -1.900000
v -1.300000 8.600001 -1.900001
v -1.300000 0.000000 -2.000000
v -1.300000 8.600001 -2.000001
v -1.200000 0.000000 -2.000000
v -1.200000 8.600001 -2.000001
v -1.200000 0.000000 -2.100000
v -1.200000 8.600001 -2.100001
v -1.100000 0.000000 -2.100000
v -1.100000 8.600001 -2.100001
v -1.100000 0.000000 -2.200000
v -1.100000 8.600001 -2.200001
v -1.000000 0.000000 -2.200000
v -1.000000 8.600001 -2.200001
v -1.000000 0.000000 -2.300000
v -1.000000 8.600001 -2.300001
v -0.900000 0.000000 -2.300000
v -0.900000 8.600001 -2.300001
v -0.900000 0.000000 -2.400000
v -0.900000 8.600001 -2.400001
v -0.800000 0.000000 -2.400000
v -0.800000 8.600001 -2.400001
v -0.800000 0.000000 -2.500000
v -0.800000 8.600001 -2.500001
v -0.700000 0.000000 -2.500000
v -0.700000 8.600001 -2.500001
v -0.700000 0.000000 -2.600000
v -0.700000 8.600001 -2.600001
v -0.600000 0.000000 -2.600000
v -0.600000 8.600001 -2.600001
v -0.600000 0.000000 -2.700000
v -0.600000 8.600001 -2.700001
v -0.500000 0.000000 -2.700000
v -0.500000 8.600001 -2.700001
v -0.500000 0.000000 -2.800000
v -0.500000 8.600001 -2.800001
v -0.400000 0.000000 -2.800000
v -0.400000 8.600001 -2.800001
v -0.400000 0.000000 -2.900000
v -0.400000 8.600001 -2.900001
v -0.300000 0.000000 -2.900000
v -0.300000 8.600001 -2.900001
v -0.300000 0.000000 -3.000000
v -0.300000 8.600001 -3.000001
v -0.200000 0.000000 -3.000000
v -0.200000 8.600001 -3.000001
v -0.200000 0.000000 -3.100000
v -0.200000 8.600001 -3.100001
v -0.100000 0.000000 -3.100000
v -0.100000 8.600001 -3.100001
v -3.200000 0.000000 -3.200000
v -3.200000 8.600001 -3.200001
v -0.100000 0.000000 -3.200000
v -0.100000 8.600001 -3.200001
v -3.200000 0.000001 -0.100000
v -3.100000 0.000001 -0.100000
v -3.100000 0.000001 -0.200000
v -3.000000 0.000001 -0.200000
v -3.000000 0.000001 -0.300000
v -2.900000 0.000001 -0.300000
v -2.900000 0.000001 -0.400000
v -2.800000 0.000001 -0.400000
v -2.800000 0.000001 -0.500000
v -2.700000 0.000001 -0.500000
v -2.700000 0.000001 -0.600000
v -2.600000 0.000001 -0.600000
v -2.600000 0.000001 -0.700000
v -2.500000 0.000001 -0.700000
v -2.500000 0.000001 -0.800000
v -2.400000 0.000001 -0.800000
v -2.400000 0.000000 -0.900000
v -2.300000 0.000000 -0.900000
v -2.300000 0.000000 -1.000000
v -2.200000 0.000000 -1.000000
v -2.200000 0.000000 -1.100000
v -2.100000 0.000000 -1.100000
v -2.100000 0.000000 -1.200000
v -2.000000 0.000000 -1.200000
v -2.000000 0.000000 -1.300000
v -1.900000 0.000000 -1.300000
v -1.900000 0.000000 -1.400000
v -1.800000 0.000000 -1.400000
v -1.800000 0.000000 -1.500000
v -1.700000 0.000000 -1.500000
v -1.700000 0.000000 -1.600000
v -1.600000 0.000000 -1.600000
v -1.600000 0.000000 -1.700000
v -1.500000 0.000000 -1.700000
v -1.500000 0.000000 -1.800000
v -1.400000 0.000000 -1.800000
v -1.400000 0.000000 -1.900000
v -1.300000 0.000000 -1.900000
v -1.300000 0.000000 -2.000000
v -1.200000 0.000000 -2.000000
v -1.200000 0.000000 -2.100000
v -1.100000 0.000000 -2.100000
v -1.100000 0.000000 -2.200000
v -1.000000 0.000000 -2.200000
v -1.000000 0.000000 -2.300000
v -0.900000 0.000000 -2.300000
v -0.900000 0.000000 -2.400000
v -0.800000 0.000000 -2.400000
v -0.800000 0.000000 -2.500000
v -0.700000 0.000000 -2.500000
v -0.700000 0.000000 -2.600000
v -0.600000 0.000000 -2.600000
v -0.600000 0.000000 -2.700000
v -0.500000 0.000000 -2.700000
v -0.500000 0.000000 -2.800000
v -0.400000 0.000000 -2.800000
v -0.400000 0.000000 -2.900000
v -0.300000 0.000000 -2.900000
v -0.300000 0.000000 -3.000000
v -0.200000 0.000000 -3.000000
v -0.200000 0.000000 -3.100000
v -0.100000 0.000000 -3.100000
v -3.200000 0.000000 -3.200000
v -0.100000 0.000000 -3.200000
v -3.200000 8.600001 -0.100001
v -3.100000 8.600001 -0.100001
v -3.100000 8.600001 -0.200000
v -3.000000 8.600001 -0.200000
v -3.000000 8.600001 -0.300001
v -2.900000 8.600001 -0.300001
v -2.900000 8.600001 -0.400001
v -2.800000 8.600001 -0.400001
v -2.800000 8.600001 -0.500001
v -2.700000 8.600001 -0.500001
v -2.700000 8.600001 -0.600001
v -2.600000 8.600001 -0.600001
v -2.600000 8.600001 -0.700000
v -2.500000 8.600001 -0.700000
v -2.500000 8.600001 -0.800001
v -2.400000 8.600001 -0.800001
v -2.400000 8.600001 -0.900001
v -2.300000 8.600001 -0.900001
v -2.300000 8.600001 -1.000001
v -2.200000 8.600001 -1.000001
v -2.200000 8.600001 -1.100001
v -2.100000 8.600001 -1.100001
v -2.100000 8.600001 -1.200000
v -2.000000 8.600001 -1.200000
v -2.000000 8.600001 -1.300001
v -1.900000 8.600001 -1.300001
v -1.900000 8.600001 -1.400001
v -1.800000 8.600001 -1.400001
v -1.800000 8.600001 -1.500001
v -1.700000 8.600001 -1.500001
v -1.700000 8.600001 -1.600001
v -1.600000 8.600001 -1.600001
v -1.600000 8.600001 -1.700000
v -1.500000 8.600001 -1.700000
v -1.500000 8.600001 -1.800001
v -1.400000 8.600001 -1.800001
v -1.400000 8.600001 -1.900001
v -1.300000 8.600001 -1.900001
v -1.300000 8.600001 -2.000001
v -1.200000 8.600001 -2.000001
v -1.200000 8.600001 -2.100001
v -1.100000 8.600001 -2.100001
v -1.100000 8.600001 -2.200001
v -1.000000 8.600001 -2.200001
v -1.000000 8.600001 -2.300001
v -0.900000 8.600001 -2.300001
v -0.900000 8.600001 -2.400001
v -0.800000 8.600001 -2.400001
v -0.800000 8.600001 -2.500001
v -0.700000 8.600001 -2.500001
v -0.700000 8.600001 -2.600001
v -0.600000 8.600001 -2.600001
v -0.600000 8.600001 -2.700001
v -0.500000 8.600001 -2.700001
v -0.500000 8.600001 -2.800001
v -0.400000 8.600001 -2.800001
v -0.400000 8.600001 -2.900001
v -0.300000 8.600001 -2.900001
v -0.300000 8.600001 -3.000001
v -0.200000 8.600001 -3.000001
v -0.200000 8.600001 -3.100001
v -0.100000 8.600001 -3.100001
v -3.200000 8.600001 -3.200001
v -0.100000 8.600001 -3.200001
vn -1.0000 -0.0000 -0.0000
vn 1.0000 -0.0000 -0.0000
vn -0.0000 -0.0000 1.0000
vn -0.0000 -0.0000 -1.0000
vn -0.0000 -1.0000 -0.0000
vn -0.0000 1.0000 -0.0000
vt 0.978516 0.500000
vt 0.994141 0.500000
s 1
usemtl palette.016
f 3/1/1 2/1/1 1/1/1
f 4/1/1 2/1/1 3/1/1
f 5/1/1 2/1/1 4/1/1
f 6/1/1 2/1/1 5/1/1
f 7/1/1 3/1/1 1/1/1
f 7/2/1 4/2/1 3/2/1
f 8/1/1 5/1/1 4/1/1
f 8/2/1 4/2/1 7/2/1
f 9/2/1 6/2/1 5/2/1
f 9/1/1 5/1/1 8/1/1
f 10/1/1 2/1/1 6/1/1
f 10/2/1 6/2/1 9/2/1
f 11/1/1 9/1/1 8/1/1
f 11/1/1 8/1/1 7/1/1
f 11/1/1 10/1/1 9/1/1
f 11/1/1 7/1/1 1/1/1
f 12/1/1 10/1/1 11/1/1
f 13/1/1 10/1/1 12/1/1
f 14/1/1 2/1/1 10/1/1
f 14/1/1 10/1/1 13/1/1
f 15/1/1 11/1/1 1/1/1
f 15/2/1 12/2/1 11/2/1
f 16/1/1 13/1/1 12/1/1
f 16/2/1 12/2/1 15/2/1
f 17/2/1 14/2/1 13/2/1
f 17/1/1 13/1/1 16/1/1
f 18/1/1 2/1/1 14/1/1
f 18/2/1 14/2/1 17/2/1
f 19/1/1 15/1/1 1/1/1
f 19/1/1 17/1/1 16/1/1
f 19/1/1 18/1/1 17/1/1
f 19/1/1 16/1/1 15/1/1
f 20/1/1 18/1/1 19/1/1
f 21/1/1 18/1/1 20/1/1
f 22/1/1 2/1/1 18/1/1
f 22/1/1 18/1/1 21/1/1
f 23/1/1 19/1/1 1/1/1
f 23/2/1 20/2/1 19/2/1
f 24/1/1 21/1/1 20/1/1
f 24/2/1 20/2/1 23/2/1
f 25/2/1 22/2/1 21/2/1
f 25/1/1 21/1/1 24/1/1
f 26/1/1 2/1/1 22/1/1
f 26/2/1 22/2/1 25/2/1
f 27/1/1 23/1/1 1/1/1
f 27/1/1 25/1/1 24/1/1
f 27/1/1 26/1/1 25/1/1
f 27/1/1 24/1/1 23/1/1
f 28/1/1 26/1/1 27/1/1
f 29/1/1 26/1/1 28/1/1
f 30/1/1 2/1/1 26/1/1
f 30/1/1 26/1/1 29/1/1
f 31/1/1 27/1/1 1/1/1
f 31/2/1 28/2/1 27/2/1
f 32/1/1 29/1/1 28/1/1
f 32/2/1 28/2/1 31/2/1
f 33/2/1 30/2/1 29/2/1
f 33/1/1 29/1/1 32/1/1
f 34/1/1 2/1/1 30/1/1
f 34/2/1 30/2/1 33/2/1
f 35/1/1 31/1/1 1/1/1
f 35/1/1 33/1/1 32/1/1
f 35/1/1 34/1/1 33/1/1
f 35/1/1 32/1/1 31/1/1
f 36/1/1 34/1/1 35/1/1
f 37/1/1 34/1/1 36/1/1
f 38/1/1 2/1/1 34/1/1
f 38/1/1 34/1/1 37/1/1
f 39/1/1 35/1/1 1/1/1
f 39/2/1 36/2/1 35/2/1
f 40/1/1 37/1/1 36/1/1
f 40/2/1 36/2/1 39/2/1
f 41/2/1 38/2/1 37/2/1
f 41/1/1 37/1/1 40/1/1
f 42/1/1 2/1/1 38/1/1
f 42/2/1 38/2/1 41/2/1
f 43/1/1 39/1/1 1/1/1
f 43/1/1 41/1/1 40/1/1
f 43/1/1 42/1/1 41/1/1
f 43/1/1 40/1/1 39/1/1
f 44/1/1 42/1/1 43/1/1
f 45/1/1 42/1/1 44/1/1
f 46/1/1 2/1/1 42/1/1
f 46/1/1 42/1/1 45/1/1
f 47/1/1 43/1/1 1/1/1
f 47/2/1 44/2/1 43/2/1
f 48/1/1 45/1/1 44/1/1
f 48/2/1 44/2/1 47/2/1
f 49/2/1 46/2/1 45/2/1
f 49/1/1 45/1/1 48/1/1
f 50/1/1 2/1/1 46/1/1
f 50/2/1 46/2/1 49/2/1
f 51/1/1 47/1/1 1/1/1
f 51/1/1 49/1/1 48/1/1
f 51/1/1 50/1/1 49/1/1
f 51/1/1 48/1/1 47/1/1
f 52/1/1 2/1/1 50/1/1
f 52/1/1 50/1/1 51/1/1
f 53/1/2 54/1/2 55/1/2
f 55/1/2 54/1/2 56/1/2
f 57/1/2 58/1/2 59/1/2
f 59/1/2 58/1/2 60/1/2
f 61/1/2 62/1/2 63/1/2
f 63/1/2 62/1/2 64/1/2
f 65/1/2 66/1/2 67/1/2
f 67/1/2 66/1/2 68/1/2
f 69/1/2 70/1/2 71/1/2
f 71/1/2 70/1/2 72/1/2
f 73/1/2 74/1/2 75/1/2
f 75/1/2 74/1/2 76/1/2
f 77/1/2 78/1/2 79/1/2
f 79/1/2 78/1/2 80/1/2
f 81/1/2 82/1/2 83/1/2
f 83/1/2 82/1/2 84/1/2
f 85/1/2 86/1/2 87/1/2
f 87/1/2 86/1/2 88/1/2
f 89/1/2 90/1/2 91/1/2
f 91/1/2 90/1/2 92/1/2
f 93/1/2 94/1/2 95/1/2
f 95/1/2 94/1/2 96/1/2
f 97/1/2 98/1/2 99/1/2
f 99/1/2 98/1/2 100/1/2
f 101/1/2 102/1/2 103/1/2
f 103/1/2 102/1/2 104/1/2
f 105/1/2 106/1/2 107/1/2
f 107/1/2 106/1/2 108/1/2
f 109/1/2 110/1/2 111/1/2
f 111/1/2 110/1/2 112/1/2
f 113/1/2 114/1/2 115/1/2
f 115/1/2 114/1/2 116/1/2
f 117/1/2 118/1/2 119/1/2
f 119/1/2 118/1/2 120/1/2
f 121/1/2 122/1/2 123/1/2
f 123/1/2 122/1/2 124/1/2
f 125/1/2 126/1/2 127/1/2
f 127/1/2 126/1/2 128/1/2
f 129/1/2 130/1/2 131/1/2
f 131/1/2 130/1/2 132/1/2
f 133/1/2 134/1/2 135/1/2
f 135/1/2 134/1/2 136/1/2
f 137/1/2 138/1/2 139/1/2
f 139/1/2 138/1/2 140/1/2
f 141/1/2 142/1/2 143/1/2
f 143/1/2 142/1/2 144/1/2
f 145/1/2 146/1/2 147/1/2
f 147/1/2 146/1/2 148/1/2
f 149/1/2 150/1/2 151/1/2
f 151/1/2 150/1/2 152/1/2
f 153/1/2 154/1/2 155/1/2
f 155/1/2 154/1/2 156/1/2
f 157/1/2 158/1/2 159/1/2
f 159/1/2 158/1/2 160/1/2
f 161/1/2 162/1/2 163/1/2
f 163/1/2 162/1/2 164/1/2
f 165/1/2 166/1/2 167/1/2
f 167/1/2 166/1/2 168/1/2
f 169/1/2 170/1/2 171/1/2
f 171/1/2 170/1/2 172/1/2
f 173/1/2 174/1/2 175/1/2
f 175/1/2 174/1/2 176/1/2
f 179/1/3 178/1/3 177/1/3
f 180/1/3 178/1/3 179/1/3
f 183/1/3 182/1/3 181/1/3
f 184/1/3 182/1/3 183/1/3
f 187/1/3 186/1/3 185/1/3
f 188/1/3 186/1/3 187/1/3
f 191/1/3 190/1/3 189/1/3
f 192/1/3 190/1/3 191/1/3
f 195/1/3 194/1/3 193/1/3
f 196/1/3 194/1/3 195/1/3
f 199/1/3 198/1/3 197/1/3
f 200/1/3 198/1/3 199/1/3
f 203/1/3 202/1/3 201/1/3
f 204/1/3 202/1/3 203/1/3
f 207/1/3 206/1/3 205/1/3
f 208/1/3 206/1/3 207/1/3
f 211/1/3 210/1/3 209/1/3
f 212/1/3 210/1/3 211/1/3
f 215/1/3 214/1/3 213/1/3
f 216/1/3 214/1/3 215/1/3
f 219/1/3 218/1/3 217/1/3
f 220/1/3 218/1/3 219/1/3
f 223/1/3 222/1/3 221/1/3
f 224/1/3 222/1/3 223/1/3
f 227/1/3 226/1/3 225/1/3
f 228/1/3 226/1/3 227/1/3
f 231/1/3 230/1/3 229/1/3
f 232/1/3 230/1/3 231/1/3
f 235/1/3 234/1/3 233/1/3
f 236/1/3 234/1/3 235/1/3
f 239/1/3 238/1/3 237/1/3
f 240/1/3 238/1/3 239/1/3
f 243/1/3 242/1/3 241/1/3
f 244/1/3 242/1/3 243/1/3
f 247/1/3 246/1/3 245/1/3
f 248/1/3 246/1/3 247/1/3
f 251/1/3 250/1/3 249/1/3
f 252/1/3 250/1/3 251/1/3
f 255/1/3 254/1/3 253/1/3
f 256/1/3 254/1/3 255/1/3
f 259/1/3 258/1/3 257/1/3
f 260/1/3 258/1/3 259/1/3
f 263/1/3 262/1/3 261/1/3
f 264/1/3 262/1/3 263/1/3
f 267/1/3 266/1/3 265/1/3
f 268/1/3 266/1/3 267/1/3
f 271/1/3 270/1/3 269/1/3
f 272/1/3 270/1/3 271/1/3
f 275/1/3 274/1/3 273/1/3
f 276/1/3 274/1/3 275/1/3
f 279/1/3 278/1/3 277/1/3
f 280/1/3 278/1/3 279/1/3
f 283/1/3 282/1/3 281/1/3
f 284/1/3 282/1/3 283/1/3
f 287/1/3 286/1/3 285/1/3
f 288/1/3 286/1/3 287/1/3
f 291/1/3 290/1/3 289/1/3
f 292/1/3 290/1/3 291/1/3
f 295/1/3 294/1/3 293/1/3
f 296/1/3 294/1/3 295/1/3
f 299/1/3 298/1/3 297/1/3
f 300/1/3 298/1/3 299/1/3
f 301/1/4 302/1/4 303/1/4
f 303/1/4 302/1/4 304/1/4
f 307/1/5 306/1/5 305/1/5
f 309/1/5 308/1/5 307/1/5
f 311/1/5 310/1/5 309/1/5
f 313/1/5 312/1/5 311/1/5
f 315/1/5 314/1/5 313/1/5
f 317/1/5 316/1/5 315/1/5
f 319/1/5 318/1/5 317/1/5
f 321/1/5 320/1/5 319/1/5
f 323/1/5 322/1/5 321/1/5
f 325/1/5 324/1/5 323/1/5
f 327/1/5 326/1/5 325/1/5
f 329/1/5 328/1/5 327/1/5
f 331/1/5 330/1/5 329/1/5
f 333/1/5 332/1/5 331/1/5
f 335/1/5 334/1/5 333/1/5
f 337/1/5 336/1/5 335/1/5
f 339/1/5 338/1/5 337/1/5
f 341/1/5 340/1/5 339/1/5
f 343/1/5 342/1/5 341/1/5
f 345/1/5 344/1/5 343/1/5
f 347/1/5 346/1/5 345/1/5
f 349/1/5 348/1/5 347/1/5
f 351/1/5 350/1/5 349/1/5
f 353/1/5 352/1/5 351/1/5
f 355/1/5 354/1/5 353/1/5
f 357/1/5 356/1/5 355/1/5
f 359/1/5 358/1/5 357/1/5
f 361/1/5 360/1/5 359/1/5
f 363/1/5 362/1/5 361/1/5
f 365/1/5 364/1/5 363/1/5
f 367/1/5 307/1/5 305/1/5
f 367/1/5 366/1/5 365/1/5
f 367/1/5 365/1/5 363/1/5
f 367/1/5 363/1/5 361/1/5
f 367/1/5 361/1/5 359/1/5
f 367/1/5 359/1/5 357/1/5
f 367/1/5 357/1/5 355/1/5
f 367/1/5 355/1/5 353/1/5
f 367/1/5 353/1/5 351/1/5
f 367/1/5 351/1/5 349/1/5
f 367/1/5 349/1/5 347/1/5
f 367/1/5 347/1/5 345/1/5
f 367/1/5 345/1/5 343/1/5
f 367/1/5 343/1/5 341/1/5
f 367/1/5 341/1/5 339/1/5
f 367/1/5 339/1/5 337/1/5
f 367/1/5 337/1/5 335/1/5
f 367/1/5 335/1/5 333/1/5
f 367/1/5 333/1/5 331/1/5
f 367/1/5 331/1/5 329/1/5
f 367/1/5 329/1/5 327/1/5
f 367/1/5 327/1/5 325/1/5
f 367/1/5 325/1/5 323/1/5
f 367/1/5 323/1/5 321/1/5
f 367/1/5 321/1/5 319/1/5
f 367/1/5 319/1/5 317/1/5
f 367/1/5 317/1/5 315/1/5
f 367/1/5 315/1/5 313/1/5
f 367/1/5 313/1/5 311/1/5
f 367/1/5 311/1/5 309/1/5
f 367/1/5 309/1/5 307/1/5
f 368/1/5 366/1/5 367/1/5
f 369/1/6 370/1/6 371/1/6
f 371/1/6 372/1/6 373/1/6
f 373/1/6 374/1/6 375/1/6
f 375/1/6 376/1/6 377/1/6
f 377/1/6 378/1/6 379/1/6
f 379/1/6 380/1/6 381/1/6
f 381/1/6 382/1/6 383/1/6
f 383/1/6 384/1/6 385/1/6
f 385/1/6 386/1/6 387/1/6
f 387/1/6 388/1/6 389/1/6
f 389/1/6 390/1/6 391/1/6
f 391/1/6 392/1/6 393/1/6
f 393/1/6 394/1/6 395/1/6
f 395/1/6 396/1/6 397/1/6
f 397/1/6 398/1/6 399/1/6
f 399/1/6 400/1/6 401/1/6
f 401/1/6 402/1/6 403/1/6
f 403/1/6 404/1/6 405/1/6
f 405/1/6 406/1/6 407/1/6
f 407/1/6 408/1/6 409/1/6
f 409/1/6 410/1/6 411/1/6
f 411/1/6 412/1/6 413/1/6
f 413/1/6 414/1/6 415/1/6
f 415/1/6 416/1/6 417/1/6
f 417/1/6 418/1/6 419/1/6
f 419/1/6 420/1/6 421/1/6
f 421/1/6 422/1/6 423/1/6
f 423/1/6 424/1/6 425/1/6
f 425/1/6 426/1/6 427/1/6
f 427/1/6 428/1/6 429/1/6
f 369/1/6 371/1/6 431/1/6
f 429/1/6 430/1/6 431/1/6
f 427/1/6 429/1/6 431/1/6
f 425/1/6 427/1/6 431/1/6
f 423/1/6 425/1/6 431/1/6
f 421/1/6 423/1/6 431/1/6
f 419/1/6 421/1/6 431/1/6
f 417/1/6 419/1/6 431/1/6
f 415/1/6 417/1/6 431/1/6
f 413/1/6 415/1/6 431/1/6
f 411/1/6 413/1/6 431/1/6
f 409/1/6 411/1/6 431/1/6
f 407/1/6 409/1/6 431/1/6
f 405/1/6 407/1/6 431/1/6
f 403/1/6 405/1/6 431/1/6
f 401/1/6 403/1/6 431/1/6
f 399/1/6 401/1/6 431/1/6
f 397/1/6 399/1/6 431/1/6
f 395/1/6 397/1/6 431/1/6
f 393/1/6 395/1/6 431/1/6
f 391/1/6 393/1/6 431/1/6
f 389/1/6 391/1/6 431/1/6
f 387/1/6 389/1/6 431/1/6
f 385/1/6 387/1/6 431/1/6
f 383/1/6 385/1/6 431/1/6
f 381/1/6 383/1/6 431/1/6
f 379/1/6 381/1/6 431/1/6
f 377/1/6 379/1/6 431/1/6
f 375/1/6 377/1/6 431/1/6
f 373/1/6 375/1/6 431/1/6
f 371/1/6 373/1/6 431/1/6
f 431/1/6 430/1/6 432/1/6
