# Blender 4.3.2
# www.blender.org
mtllib case_6.mtl
o Untitled
v 3.200000 0.000000 3.200000
v 0.000000 0.000000 3.200000
v 3.199999 8.600000 3.200000
v -0.000002 8.600000 3.200000
v 3.200000 0.000000 -3.200000
v -0.000000 0.000000 -3.200000
v 3.199998 8.600000 -3.200000
v -0.000002 8.600000 -3.200000
v 3.200000 0.000000 3.200000
v 3.199999 8.600000 3.200000
v 3.200000 0.000000 -3.200000
v 3.199998 8.600000 -3.200000
v 0.000000 0.000000 3.200000
v -0.000002 8.600000 3.200000
v 0.000000 1.300000 2.700000
v -0.000000 1.900000 2.700000
v -0.000000 2.500000 2.700000
v -0.000000 3.100000 2.700000
v -0.000000 3.700000 2.700000
v -0.000000 4.300000 2.700000
v -0.000000 4.900000 2.700000
v -0.000000 5.500000 2.700000
v -0.000001 6.100000 2.700000
v -0.000001 6.700000 2.700000
v -0.000001 7.300000 2.700000
v -0.000001 7.900000 2.700000
v -0.000000 1.300000 2.100000
v -0.000000 1.900000 2.100000
v -0.000000 2.500000 2.100000
v -0.000000 3.100000 2.100000
v -0.000000 3.700000 2.100000
v -0.000000 4.300000 2.100000
v -0.000000 4.900000 2.100000
v -0.000000 5.500000 2.100000
v -0.000001 6.100000 2.100000
v -0.000001 6.700000 2.100000
v -0.000001 7.300000 2.100000
v -0.000002 7.900000 2.100000
v -0.000000 1.300000 1.500000
v -0.000000 1.900000 1.500000
v -0.000000 2.500000 1.500000
v -0.000000 3.100000 1.500000
v -0.000000 3.700000 1.500000
v -0.000000 4.300000 1.500000
v -0.000000 4.900000 1.500000
v -0.000000 5.500000 1.500000
v -0.000001 6.100000 1.500000
v -0.000001 6.700000 1.500000
v -0.000001 7.300000 1.500000
v -0.000002 7.900000 1.500000
v -0.000000 1.300000 0.900000
v -0.000000 1.900000 0.900000
v -0.000000 2.500000 0.900000
v -0.000000 3.100000 0.900000
v -0.000000 3.700000 0.900000
v -0.000000 4.300000 0.900000
v -0.000000 4.900000 0.900000
v -0.000000 5.500000 0.900000
v -0.000001 6.100000 0.900000
v -0.000001 6.700000 0.900000
v -0.000002 7.300000 0.900000
v -0.000002 7.900000 0.900000
v -0.000000 1.300000 0.300000
v -0.000000 1.900000 0.300000
v -0.000000 2.500000 0.300000
v -0.000000 3.100000 0.300000
v -0.000000 3.700000 0.300000
v -0.000000 4.300000 0.300000
v -0.000000 4.900000 0.300000
v -0.000000 5.500000 0.300000
v -0.000001 6.100000 0.300000
v -0.000001 6.700000 0.300000
v -0.000002 7.300000 0.300000
v -0.000002 7.900000 0.300000
v -0.000000 1.300000 -0.300000
v -0.000000 1.900000 -0.300000
v -0.000000 2.500000 -0.300000
v -0.000000 3.100000 -0.300000
v -0.000000 3.700000 -0.300000
v -0.000000 4.300000 -0.300000
v -0.000000 4.900000 -0.300000
v -0.000000 5.500000 -0.300000
v -0.000001 6.100000 -0.300000
v -0.000002 6.700000 -0.300000
v -0.000002 7.300000 -0.300000
v -0.000002 7.900000 -0.300000
v -0.000000 1.300000 -0.900000
v -0.000000 1.900000 -0.900000
v -0.000000 2.500000 -0.900000
v -0.000000 3.100000 -0.900000
v -0.000000 3.700000 -0.900000
v -0.000000 4.300000 -0.900000
v -0.000000 4.900000 -0.900000
v -0.000000 5.500000 -0.900000
v -0.000001 6.100000 -0.900000
v -0.000002 6.700000 -0.900000
v -0.000002 7.300000 -0.900000
v -0.000002 7.900000 -0.900000
v -0.000000 1.300000 -1.500000
v -0.000000 1.900000 -1.500000
v -0.000000 2.500000 -1.500000
v -0.000000 3.100000 -1.500000
v -0.000000 3.700000 -1.500000
v -0.000000 4.300000 -1.500000
v -0.000000 4.900000 -1.500000
v -0.000000 5.500000 -1.500000
v -0.000002 6.100000 -1.500000
v -0.000002 6.700000 -1.500000
v -0.000002 7.300000 -1.500000
v -0.000002 7.900000 -1.500000
v -0.000000 1.300000 -2.100000
v -0.000000 1.900000 -2.100000
v -0.000000 2.500000 -2.100000
v -0.000000 3.100000 -2.100000
v -0.000000 3.700000 -2.100000
v -0.000000 4.300000 -2.100000
v -0.000000 4.900000 -2.100000
v -0.000001 5.500000 -2.100000
v -0.000002 6.100000 -2.100000
v -0.000002 6.700000 -2.100000
v -0.000002 7.300000 -2.100000
v -0.000002 7.900000 -2.100000
v -0.000000 1.300000 -2.700000
v -0.000000 1.900000 -2.700000
v -0.000000 2.500000 -2.700000
v -0.000000 3.100000 -2.700000
v -0.000000 3.700000 -2.700000
v -0.000000 4.300000 -2.700000
v -0.000000 4.900000 -2.700000
v -0.000001 5.500000 -2.700000
v -0.000002 6.100000 -2.700000
v -0.000002 6.700000 -2.700000
v -0.000002 7.300000 -2.700000
v -0.000002 7.900000 -2.700000
v -0.000000 0.000000 -3.200000
v -0.000002 8.600000 -3.200000
v 3.200000 0.000000 3.200000
v 3.200000 0.000000 -3.200000
v 0.000000 0.000000 3.200000
v -0.000000 0.000000 -3.200000
v 3.199999 8.600000 3.200000
v 3.199998 8.600000 -3.200000
v -0.000002 8.600000 3.200000
v -0.000002 8.600000 -3.200000
vn -0.0000 -0.0000 1.0000
vn -0.0000 -0.0000 -1.0000
vn 1.0000 -0.0000 -0.0000
vn -1.0000 -0.0000 -0.0000
vn -0.0000 -1.0000 -0.0000
vn -0.0000 1.0000 -0.0000
vt 0.978516 0.500000
vt 0.994141 0.500000
s 1
usemtl palette.014
f 3/1/1 2/1/1 1/1/1
f 4/1/1 2/1/1 3/1/1
f 5/1/2 6/1/2 7/1/2
f 7/1/2 6/1/2 8/1/2
f 11/1/3 10/1/3 9/1/3
f 12/1/3 10/1/3 11/1/3
f 13/1/4 14/1/4 15/1/4
f 15/1/4 14/1/4 16/1/4
f 16/1/4 14/1/4 17/1/4
f 17/1/4 14/1/4 18/1/4
f 18/1/4 14/1/4 19/1/4
f 19/1/4 14/1/4 20/1/4
f 20/1/4 14/1/4 21/1/4
f 21/1/4 14/1/4 22/1/4
f 22/1/4 14/1/4 23/1/4
f 23/1/4 14/1/4 24/1/4
f 24/1/4 14/1/4 25/1/4
f 25/1/4 14/1/4 26/1/4
f 13/1/4 15/1/4 27/1/4
f 15/2/4 16/2/4 27/2/4
f 16/1/4 17/1/4 28/1/4
f 27/2/4 16/2/4 28/2/4
f 17/2/4 18/2/4 29/2/4
f 28/1/4 17/1/4 29/1/4
f 18/1/4 19/1/4 30/1/4
f 29/2/4 18/2/4 30/2/4
f 19/2/4 20/2/4 31/2/4
f 30/1/4 19/1/4 31/1/4
f 20/1/4 21/1/4 32/1/4
f 31/2/4 20/2/4 32/2/4
f 21/2/4 22/2/4 33/2/4
f 32/1/4 21/1/4 33/1/4
f 22/1/4 23/1/4 34/1/4
f 33/2/4 22/2/4 34/2/4
f 23/2/4 24/2/4 35/2/4
f 34/1/4 23/1/4 35/1/4
f 24/1/4 25/1/4 36/1/4
f 35/2/4 24/2/4 36/2/4
f 25/2/4 26/2/4 37/2/4
f 36/1/4 25/1/4 37/1/4
f 26/1/4 14/1/4 38/1/4
f 37/2/4 26/2/4 38/2/4
f 36/1/4 37/1/4 39/1/4
f 35/1/4 36/1/4 39/1/4
f 37/1/4 38/1/4 39/1/4
f 34/1/4 35/1/4 39/1/4
f 33/1/4 34/1/4 39/1/4
f 32/1/4 33/1/4 39/1/4
f 31/1/4 32/1/4 39/1/4
f 30/1/4 31/1/4 39/1/4
f 29/1/4 30/1/4 39/1/4
f 28/1/4 29/1/4 39/1/4
f 27/1/4 28/1/4 39/1/4
f 13/1/4 27/1/4 39/1/4
f 39/1/4 38/1/4 40/1/4
f 40/1/4 38/1/4 41/1/4
f 41/1/4 38/1/4 42/1/4
f 42/1/4 38/1/4 43/1/4
f 43/1/4 38/1/4 44/1/4
f 44/1/4 38/1/4 45/1/4
f 45/1/4 38/1/4 46/1/4
f 46/1/4 38/1/4 47/1/4
f 47/1/4 38/1/4 48/1/4
f 48/1/4 38/1/4 49/1/4
f 38/1/4 14/1/4 50/1/4
f 49/1/4 38/1/4 50/1/4
f 13/1/4 39/1/4 51/1/4
f 39/2/4 40/2/4 51/2/4
f 40/1/4 41/1/4 52/1/4
f 51/2/4 40/2/4 52/2/4
f 41/2/4 42/2/4 53/2/4
f 52/1/4 41/1/4 53/1/4
f 42/1/4 43/1/4 54/1/4
f 53/2/4 42/2/4 54/2/4
f 43/2/4 44/2/4 55/2/4
f 54/1/4 43/1/4 55/1/4
f 44/1/4 45/1/4 56/1/4
f 55/2/4 44/2/4 56/2/4
f 45/2/4 46/2/4 57/2/4
f 56/1/4 45/1/4 57/1/4
f 46/1/4 47/1/4 58/1/4
f 57/2/4 46/2/4 58/2/4
f 47/2/4 48/2/4 59/2/4
f 58/1/4 47/1/4 59/1/4
f 48/1/4 49/1/4 60/1/4
f 59/2/4 48/2/4 60/2/4
f 49/2/4 50/2/4 61/2/4
f 60/1/4 49/1/4 61/1/4
f 50/1/4 14/1/4 62/1/4
f 61/2/4 50/2/4 62/2/4
f 58/1/4 59/1/4 63/1/4
f 60/1/4 61/1/4 63/1/4
f 61/1/4 62/1/4 63/1/4
f 57/1/4 58/1/4 63/1/4
f 56/1/4 57/1/4 63/1/4
f 55/1/4 56/1/4 63/1/4
f 54/1/4 55/1/4 63/1/4
f 53/1/4 54/1/4 63/1/4
f 52/1/4 53/1/4 63/1/4
f 51/1/4 52/1/4 63/1/4
f 13/1/4 51/1/4 63/1/4
f 59/1/4 60/1/4 63/1/4
f 63/1/4 62/1/4 64/1/4
f 64/1/4 62/1/4 65/1/4
f 65/1/4 62/1/4 66/1/4
f 66/1/4 62/1/4 67/1/4
f 67/1/4 62/1/4 68/1/4
f 68/1/4 62/1/4 69/1/4
f 69/1/4 62/1/4 70/1/4
f 70/1/4 62/1/4 71/1/4
f 71/1/4 62/1/4 72/1/4
f 72/1/4 62/1/4 73/1/4
f 62/1/4 14/1/4 74/1/4
f 73/1/4 62/1/4 74/1/4
f 13/1/4 63/1/4 75/1/4
f 63/2/4 64/2/4 75/2/4
f 64/1/4 65/1/4 76/1/4
f 75/2/4 64/2/4 76/2/4
f 65/2/4 66/2/4 77/2/4
f 76/1/4 65/1/4 77/1/4
f 66/1/4 67/1/4 78/1/4
f 77/2/4 66/2/4 78/2/4
f 67/2/4 68/2/4 79/2/4
f 78/1/4 67/1/4 79/1/4
f 68/1/4 69/1/4 80/1/4
f 79/2/4 68/2/4 80/2/4
f 69/2/4 70/2/4 81/2/4
f 80/1/4 69/1/4 81/1/4
f 70/1/4 71/1/4 82/1/4
f 81/2/4 70/2/4 82/2/4
f 71/2/4 72/2/4 83/2/4
f 82/1/4 71/1/4 83/1/4
f 72/1/4 73/1/4 84/1/4
f 83/2/4 72/2/4 84/2/4
f 73/2/4 74/2/4 85/2/4
f 84/1/4 73/1/4 85/1/4
f 74/1/4 14/1/4 86/1/4
f 85/2/4 74/2/4 86/2/4
f 82/1/4 83/1/4 87/1/4
f 84/1/4 85/1/4 87/1/4
f 85/1/4 86/1/4 87/1/4
f 81/1/4 82/1/4 87/1/4
f 80/1/4 81/1/4 87/1/4
f 79/1/4 80/1/4 87/1/4
f 78/1/4 79/1/4 87/1/4
f 77/1/4 78/1/4 87/1/4
f 76/1/4 77/1/4 87/1/4
f 75/1/4 76/1/4 87/1/4
f 13/1/4 75/1/4 87/1/4
f 83/1/4 84/1/4 87/1/4
f 87/1/4 86/1/4 88/1/4
f 88/1/4 86/1/4 89/1/4
f 89/1/4 86/1/4 90/1/4
f 90/1/4 86/1/4 91/1/4
f 91/1/4 86/1/4 92/1/4
f 92/1/4 86/1/4 93/1/4
f 93/1/4 86/1/4 94/1/4
f 94/1/4 86/1/4 95/1/4
f 95/1/4 86/1/4 96/1/4
f 96/1/4 86/1/4 97/1/4
f 86/1/4 14/1/4 98/1/4
f 97/1/4 86/1/4 98/1/4
f 13/1/4 87/1/4 99/1/4
f 87/2/4 88/2/4 99/2/4
f 88/1/4 89/1/4 100/1/4
f 99/2/4 88/2/4 100/2/4
f 89/2/4 90/2/4 101/2/4
f 100/1/4 89/1/4 101/1/4
f 90/1/4 91/1/4 102/1/4
f 101/2/4 90/2/4 102/2/4
f 91/2/4 92/2/4 103/2/4
f 102/1/4 91/1/4 103/1/4
f 92/1/4 93/1/4 104/1/4
f 103/2/4 92/2/4 104/2/4
f 93/2/4 94/2/4 105/2/4
f 104/1/4 93/1/4 105/1/4
f 94/1/4 95/1/4 106/1/4
f 105/2/4 94/2/4 106/2/4
f 95/2/4 96/2/4 107/2/4
f 106/1/4 95/1/4 107/1/4
f 96/1/4 97/1/4 108/1/4
f 107/2/4 96/2/4 108/2/4
f 97/2/4 98/2/4 109/2/4
f 108/1/4 97/1/4 109/1/4
f 98/1/4 14/1/4 110/1/4
f 109/2/4 98/2/4 110/2/4
f 106/1/4 107/1/4 111/1/4
f 108/1/4 109/1/4 111/1/4
f 109/1/4 110/1/4 111/1/4
f 105/1/4 106/1/4 111/1/4
f 104/1/4 105/1/4 111/1/4
f 103/1/4 104/1/4 111/1/4
f 102/1/4 103/1/4 111/1/4
f 101/1/4 102/1/4 111/1/4
f 100/1/4 101/1/4 111/1/4
f 99/1/4 100/1/4 111/1/4
f 13/1/4 99/1/4 111/1/4
f 107/1/4 108/1/4 111/1/4
f 111/1/4 110/1/4 112/1/4
f 112/1/4 110/1/4 113/1/4
f 113/1/4 110/1/4 114/1/4
f 114/1/4 110/1/4 115/1/4
f 115/1/4 110/1/4 116/1/4
f 116/1/4 110/1/4 117/1/4
f 117/1/4 110/1/4 118/1/4
f 118/1/4 110/1/4 119/1/4
f 119/1/4 110/1/4 120/1/4
f 120/1/4 110/1/4 121/1/4
f 110/1/4 14/1/4 122/1/4
f 121/1/4 110/1/4 122/1/4
f 13/1/4 111/1/4 123/1/4
f 111/2/4 112/2/4 123/2/4
f 112/1/4 113/1/4 124/1/4
f 123/2/4 112/2/4 124/2/4
f 113/2/4 114/2/4 125/2/4
f 124/1/4 113/1/4 125/1/4
f 114/1/4 115/1/4 126/1/4
f 125/2/4 114/2/4 126/2/4
f 115/2/4 116/2/4 127/2/4
f 126/1/4 115/1/4 127/1/4
f 116/1/4 117/1/4 128/1/4
f 127/2/4 116/2/4 128/2/4
f 117/2/4 118/2/4 129/2/4
f 128/1/4 117/1/4 129/1/4
f 118/1/4 119/1/4 130/1/4
f 129/2/4 118/2/4 130/2/4
f 119/2/4 120/2/4 131/2/4
f 130/1/4 119/1/4 131/1/4
f 120/1/4 121/1/4 132/1/4
f 131/2/4 120/2/4 132/2/4
f 121/2/4 122/2/4 133/2/4
f 132/1/4 121/1/4 133/1/4
f 122/1/4 14/1/4 134/1/4
f 133/2/4 122/2/4 134/2/4
f 130/1/4 131/1/4 135/1/4
f 132/1/4 133/1/4 135/1/4
f 133/1/4 134/1/4 135/1/4
f 129/1/4 130/1/4 135/1/4
f 128/1/4 129/1/4 135/1/4
f 127/1/4 128/1/4 135/1/4
f 126/1/4 127/1/4 135/1/4
f 125/1/4 126/1/4 135/1/4
f 124/1/4 125/1/4 135/1/4
f 123/1/4 124/1/4 135/1/4
f 13/1/4 123/1/4 135/1/4
f 131/1/4 132/1/4 135/1/4
f 134/1/4 14/1/4 136/1/4
f 135/1/4 134/1/4 136/1/4
f 139/1/5 138/1/5 137/1/5
f 140/1/5 138/1/5 139/1/5
f 141/1/6 142/1/6 143/1/6
f 143/1/6 142/1/6 144/1/6
