# MagicaVoxel @ Ephtracy

# group
o 

# material
mtllib dziura2.mtl
usemtl palette

# normals
vn -1 0 0
vn 1 0 0
vn 0 0 1
vn 0 0 -1
vn 0 -1 0
vn 0 1 0

# texcoords
vt 0.974609 0.5
vt 0.978516 0.5
vt 0.982422 0.5
vt 0.986328 0.5

# verts
v -0.6 0.1 0
v -0.6 0.1 -0.2
v -0.6 0.2 0
v -0.6 0.2 -0.2
v -0.5 0 0
v -0.5 0 -0.2
v -0.5 0.1 0.2
v -0.5 0.1 0.1
v -0.5 0.1 0
v -0.5 0.1 -0.2
v -0.5 0.1 -0.4
v -0.5 0.2 0.2
v -0.5 0.2 0.1
v -0.5 0.2 0
v -0.5 0.2 -0.2
v -0.5 0.2 -0.4
v -0.4 0 0.2
v -0.4 0 0.1
v -0.4 0 0
v -0.4 0 -0.2
v -0.4 0 -0.3
v -0.4 0.1 0.4
v -0.4 0.1 0.3
v -0.4 0.1 0.2
v -0.4 0.1 0.1
v -0.4 0.1 0
v -0.4 0.1 -0.2
v -0.4 0.1 -0.3
v -0.4 0.1 -0.4
v -0.4 0.1 -0.5
v -0.4 0.2 0.4
v -0.4 0.2 0.3
v -0.4 0.2 0.2
v -0.4 0.2 -0.4
v -0.4 0.2 -0.5
v -0.3 0 0.3
v -0.3 0 0.2
v -0.3 0 -0.3
v -0.3 0 -0.4
v -0.3 0.1 0.3
v -0.3 0.1 0.2
v -0.3 0.1 -0.3
v -0.3 0.1 -0.4
v -0.2 0 0.4
v -0.2 0 0.3
v -0.2 0.1 0.5
v -0.2 0.1 0.4
v -0.2 0.1 0.3
v -0.2 0.2 0.5
v -0.2 0.2 0.4
v 0.1 0.1 -0.3
v 0.1 0.1 -0.4
v 0.1 0.2 -0.3
v 0.1 0.2 -0.4
v 0.3 0.1 0.4
v 0.3 0.1 0.3
v 0.3 0.1 -0.2
v 0.3 0.1 -0.3
v 0.3 0.2 0.4
v 0.3 0.2 0.3
v 0.3 0.2 -0.2
v 0.3 0.2 -0.3
v 0.4 0.1 0.3
v 0.4 0.1 0.2
v 0.4 0.1 -0.1
v 0.4 0.1 -0.2
v 0.4 0.2 0.3
v 0.4 0.2 0.2
v 0.4 0.2 -0.1
v 0.4 0.2 -0.2
v 0.5 0.1 0.1
v 0.5 0.1 0
v 0.5 0.1 -0.1
v 0.5 0.2 0.1
v 0.5 0.2 0
v 0.5 0.2 -0.1
v 0.6 0.1 0.2
v 0.6 0.1 0.1
v 0.6 0.2 0.2
v 0.6 0.2 0.1
v -0.5 0.1 0
v -0.5 0.1 -0.2
v -0.5 0.2 0
v -0.5 0.2 -0.2
v -0.4 0.1 0.2
v -0.4 0.1 0.1
v -0.4 0.1 0
v -0.4 0.1 -0.2
v -0.4 0.1 -0.3
v -0.4 0.2 0.2
v -0.4 0.2 0.1
v -0.4 0.2 0
v -0.4 0.2 -0.2
v -0.4 0.2 -0.3
v -0.3 0.1 0.3
v -0.3 0.1 0.2
v -0.3 0.1 -0.3
v -0.3 0.1 -0.4
v -0.3 0.2 0.3
v -0.3 0.2 0.2
v -0.3 0.2 -0.3
v -0.3 0.2 -0.4
v -0.2 0.1 0.4
v -0.2 0.1 0.3
v -0.2 0.2 0.4
v -0.2 0.2 0.3
v 0.1 0 -0.3
v 0.1 0 -0.4
v 0.1 0.1 -0.3
v 0.1 0.1 -0.4
v 0.1 0.1 -0.5
v 0.1 0.2 -0.4
v 0.1 0.2 -0.5
v 0.3 0 0.4
v 0.3 0 0.3
v 0.3 0.1 0.5
v 0.3 0.1 0.4
v 0.3 0.1 0.3
v 0.3 0.1 -0.3
v 0.3 0.1 -0.4
v 0.3 0.2 0.5
v 0.3 0.2 0.4
v 0.3 0.2 -0.3
v 0.3 0.2 -0.4
v 0.4 0 0.3
v 0.4 0 0.2
v 0.4 0 -0.1
v 0.4 0 -0.2
v 0.4 0 -0.3
v 0.4 0.1 0.4
v 0.4 0.1 0.3
v 0.4 0.1 0.2
v 0.4 0.1 -0.1
v 0.4 0.1 -0.2
v 0.4 0.1 -0.3
v 0.4 0.2 0.4
v 0.4 0.2 0.3
v 0.4 0.2 -0.2
v 0.4 0.2 -0.3
v 0.5 0 0.1
v 0.5 0 0
v 0.5 0 -0.1
v 0.5 0.1 0.1
v 0.5 0.1 0
v 0.5 0.1 -0.1
v 0.5 0.1 -0.2
v 0.5 0.2 -0.1
v 0.5 0.2 -0.2
v 0.6 0 0.2
v 0.6 0 0.1
v 0.6 0.1 0.3
v 0.6 0.1 0.2
v 0.6 0.1 0.1
v 0.6 0.1 0
v 0.6 0.1 -0.1
v 0.6 0.2 0.3
v 0.6 0.2 0.2
v 0.6 0.2 0.1
v 0.6 0.2 0
v 0.6 0.2 -0.1
v 0.7 0.1 0.2
v 0.7 0.1 0.1
v 0.7 0.2 0.2
v 0.7 0.2 0.1
v -0.2 0.1 0.5
v -0.2 0.2 0.5
v 0.1 0.1 0.5
v 0.1 0.2 0.5
v 0.3 0.1 0.5
v 0.3 0.2 0.5
v -0.4 0.1 0.4
v -0.4 0.2 0.4
v -0.3 0.1 0.4
v -0.3 0.2 0.4
v -0.2 0 0.4
v -0.2 0.1 0.4
v -0.2 0.2 0.4
v -0.1 0 0.4
v -0.1 0.1 0.4
v -5.96046e-08 0 0.4
v -5.96046e-08 0.1 0.4
v 0.1 0.1 0.4
v 0.3 0 0.4
v 0.3 0.1 0.4
v 0.3 0.2 0.4
v 0.4 0.1 0.4
v 0.4 0.2 0.4
v -0.3 0 0.3
v -0.3 0.1 0.3
v -0.2 0 0.3
v -0.2 0.1 0.3
v 0.3 0 0.3
v 0.3 0.1 0.3
v 0.4 0 0.3
v 0.4 0.1 0.3
v 0.4 0.2 0.3
v 0.6 0.1 0.3
v 0.6 0.2 0.3
v -0.5 0.1 0.2
v -0.5 0.2 0.2
v -0.4 0 0.2
v -0.4 0.1 0.2
v -0.4 0.2 0.2
v -0.3 0 0.2
v -0.3 0.1 0.2
v 0.4 0 0.2
v 0.4 0.1 0.2
v 0.6 0 0.2
v 0.6 0.1 0.2
v 0.6 0.2 0.2
v 0.7 0.1 0.2
v 0.7 0.2 0.2
v 0.5 0.1 0.1
v 0.5 0.2 0.1
v 0.6 0.1 0.1
v 0.6 0.2 0.1
v -0.6 0.1 0
v -0.6 0.2 0
v -0.5 0 0
v -0.5 0.1 0
v -0.5 0.2 0
v -0.4 0 0
v -0.4 0.1 0
v 0.4 0.1 -0.1
v 0.4 0.2 -0.1
v 0.5 0.1 -0.1
v 0.5 0.2 -0.1
v -0.5 0.1 -0.2
v -0.5 0.2 -0.2
v -0.4 0.1 -0.2
v -0.4 0.2 -0.2
v 0.3 0.1 -0.2
v 0.3 0.2 -0.2
v 0.4 0.1 -0.2
v 0.4 0.2 -0.2
v -0.4 0.1 -0.3
v -0.4 0.2 -0.3
v -0.3 0.1 -0.3
v -0.3 0.2 -0.3
v 0.1 0.1 -0.3
v 0.1 0.2 -0.3
v 0.2 0.1 -0.3
v 0.2 0.2 -0.3
v 0.3 0.1 -0.3
v 0.3 0.2 -0.3
v -0.3 0.1 -0.4
v -0.3 0.2 -0.4
v -0.1 0.1 -0.4
v -0.1 0.2 -0.4
v 0.1 0.1 -0.4
v 0.1 0.2 -0.4
v -0.2 0.1 0.4
v -0.2 0.2 0.4
v -0.1 0.1 0.4
v -5.96046e-08 0.1 0.4
v 0.1 0.1 0.4
v 0.1 0.2 0.4
v 0.3 0.1 0.4
v 0.3 0.2 0.4
v -0.3 0.1 0.3
v -0.3 0.2 0.3
v -0.2 0.1 0.3
v -0.2 0.2 0.3
v 0.3 0.1 0.3
v 0.3 0.2 0.3
v 0.4 0.1 0.3
v 0.4 0.2 0.3
v -0.4 0.1 0.2
v -0.4 0.2 0.2
v -0.3 0.1 0.2
v -0.3 0.2 0.2
v 0.4 0.1 0.2
v 0.4 0.2 0.2
v 0.6 0.1 0.2
v 0.6 0.2 0.2
v 0.5 0 0.1
v 0.5 0.1 0.1
v 0.6 0 0.1
v 0.6 0.1 0.1
v 0.6 0.2 0.1
v 0.7 0.1 0.1
v 0.7 0.2 0.1
v -0.5 0.1 0
v -0.5 0.2 0
v -0.4 0.1 0
v -0.4 0.2 0
v 0.4 0 -0.1
v 0.4 0.1 -0.1
v 0.5 0 -0.1
v 0.5 0.1 -0.1
v 0.5 0.2 -0.1
v 0.6 0.1 -0.1
v 0.6 0.2 -0.1
v -0.6 0.1 -0.2
v -0.6 0.2 -0.2
v -0.5 0 -0.2
v -0.5 0.1 -0.2
v -0.5 0.2 -0.2
v -0.4 0 -0.2
v -0.4 0.1 -0.2
v 0.4 0.1 -0.2
v 0.4 0.2 -0.2
v 0.5 0.1 -0.2
v 0.5 0.2 -0.2
v -0.4 0 -0.3
v -0.4 0.1 -0.3
v -0.3 0 -0.3
v -0.3 0.1 -0.3
v 0.1 0 -0.3
v 0.1 0.1 -0.3
v 0.2 0.1 -0.3
v 0.3 0.1 -0.3
v 0.3 0.2 -0.3
v 0.4 0 -0.3
v 0.4 0.1 -0.3
v 0.4 0.2 -0.3
v -0.5 0.1 -0.4
v -0.5 0.2 -0.4
v -0.4 0.1 -0.4
v -0.4 0.2 -0.4
v -0.3 0 -0.4
v -0.3 0.1 -0.4
v -0.1 0.1 -0.4
v 0.1 0 -0.4
v 0.1 0.1 -0.4
v 0.1 0.2 -0.4
v 0.2 0.1 -0.4
v 0.2 0.2 -0.4
v 0.3 0.1 -0.4
v 0.3 0.2 -0.4
v -0.4 0.1 -0.5
v -0.4 0.2 -0.5
v -0.3 0.1 -0.5
v -0.3 0.2 -0.5
v -0.1 0.1 -0.5
v -0.1 0.2 -0.5
v 0.1 0.1 -0.5
v 0.1 0.2 -0.5
v -0.2 0 0.4
v -0.1 0 0.4
v -5.96046e-08 0 0.4
v 0.3 0 0.4
v -0.3 0 0.3
v -0.2 0 0.3
v -0.1 0 0.3
v -5.96046e-08 0 0.3
v 0.2 0 0.3
v 0.3 0 0.3
v 0.4 0 0.3
v -0.4 0 0.2
v -0.3 0 0.2
v -0.2 0 0.2
v -0.1 0 0.2
v -5.96046e-08 0 0.2
v 0.1 0 0.2
v 0.2 0 0.2
v 0.3 0 0.2
v 0.4 0 0.2
v 0.6 0 0.2
v -0.4 0 0.1
v -0.3 0 0.1
v -0.2 0 0.1
v -0.1 0 0.1
v -5.96046e-08 0 0.1
v 0.1 0 0.1
v 0.2 0 0.1
v 0.3 0 0.1
v 0.4 0 0.1
v 0.5 0 0.1
v 0.6 0 0.1
v -0.5 0 0
v -0.4 0 0
v -0.3 0 0
v -0.2 0 0
v -0.1 0 0
v 0.2 0 0
v 0.3 0 0
v 0.4 0 0
v 0.5 0 0
v -0.4 0 -0.1
v -0.3 0 -0.1
v -0.2 0 -0.1
v -0.1 0 -0.1
v -5.96046e-08 0 -0.1
v 0.1 0 -0.1
v 0.2 0 -0.1
v 0.3 0 -0.1
v 0.4 0 -0.1
v 0.5 0 -0.1
v -0.5 0 -0.2
v -0.4 0 -0.2
v -0.3 0 -0.2
v -0.2 0 -0.2
v -0.1 0 -0.2
v -5.96046e-08 0 -0.2
v 0.1 0 -0.2
v 0.4 0 -0.2
v -0.4 0 -0.3
v -0.3 0 -0.3
v -0.2 0 -0.3
v -0.1 0 -0.3
v -5.96046e-08 0 -0.3
v 0.1 0 -0.3
v 0.4 0 -0.3
v -0.3 0 -0.4
v 0.1 0 -0.4
v -0.2 0.1 0.5
v 0.1 0.1 0.5
v 0.3 0.1 0.5
v -0.4 0.1 0.4
v -0.3 0.1 0.4
v -0.2 0.1 0.4
v -0.1 0.1 0.4
v -5.96046e-08 0.1 0.4
v 0.1 0.1 0.4
v 0.3 0.1 0.4
v 0.4 0.1 0.4
v -0.4 0.1 0.3
v -0.3 0.1 0.3
v -0.2 0.1 0.3
v 0.3 0.1 0.3
v 0.4 0.1 0.3
v 0.6 0.1 0.3
v -0.5 0.1 0.2
v -0.4 0.1 0.2
v -0.3 0.1 0.2
v 0.4 0.1 0.2
v 0.6 0.1 0.2
v 0.7 0.1 0.2
v -0.5 0.1 0.1
v -0.4 0.1 0.1
v 0.5 0.1 0.1
v 0.6 0.1 0.1
v 0.7 0.1 0.1
v -0.6 0.1 0
v -0.5 0.1 0
v -0.4 0.1 0
v 0.5 0.1 0
v 0.6 0.1 0
v 0.4 0.1 -0.1
v 0.5 0.1 -0.1
v 0.6 0.1 -0.1
v -0.6 0.1 -0.2
v -0.5 0.1 -0.2
v -0.4 0.1 -0.2
v 0.4 0.1 -0.2
v 0.5 0.1 -0.2
v -0.4 0.1 -0.3
v -0.3 0.1 -0.3
v 0.1 0.1 -0.3
v 0.2 0.1 -0.3
v 0.3 0.1 -0.3
v -0.5 0.1 -0.4
v -0.4 0.1 -0.4
v -0.3 0.1 -0.4
v -0.1 0.1 -0.4
v 0.1 0.1 -0.4
v 0.2 0.1 -0.4
v 0.3 0.1 -0.4
v -0.4 0.1 -0.5
v -0.3 0.1 -0.5
v -0.1 0.1 -0.5
v 0.1 0.1 -0.5
v -0.2 0.1 0.4
v -0.1 0.1 0.4
v -5.96046e-08 0.1 0.4
v 0.1 0.1 0.4
v 0.3 0.1 0.4
v -0.3 0.1 0.3
v -0.2 0.1 0.3
v -0.1 0.1 0.3
v -5.96046e-08 0.1 0.3
v 0.2 0.1 0.3
v 0.3 0.1 0.3
v 0.4 0.1 0.3
v -0.4 0.1 0.2
v -0.3 0.1 0.2
v -0.2 0.1 0.2
v -0.1 0.1 0.2
v -5.96046e-08 0.1 0.2
v 0.1 0.1 0.2
v 0.2 0.1 0.2
v 0.3 0.1 0.2
v 0.4 0.1 0.2
v 0.6 0.1 0.2
v -0.4 0.1 0.1
v -0.3 0.1 0.1
v -0.2 0.1 0.1
v -0.1 0.1 0.1
v -5.96046e-08 0.1 0.1
v 0.1 0.1 0.1
v 0.2 0.1 0.1
v 0.3 0.1 0.1
v 0.4 0.1 0.1
v 0.5 0.1 0.1
v 0.6 0.1 0.1
v -0.5 0.1 0
v -0.4 0.1 0
v -0.3 0.1 0
v -0.2 0.1 0
v -0.1 0.1 0
v 0.2 0.1 0
v 0.3 0.1 0
v 0.4 0.1 0
v 0.5 0.1 0
v -0.4 0.1 -0.1
v -0.3 0.1 -0.1
v -0.2 0.1 -0.1
v -0.1 0.1 -0.1
v -5.96046e-08 0.1 -0.1
v 0.1 0.1 -0.1
v 0.2 0.1 -0.1
v 0.3 0.1 -0.1
v 0.4 0.1 -0.1
v 0.5 0.1 -0.1
v -0.5 0.1 -0.2
v -0.4 0.1 -0.2
v -0.3 0.1 -0.2
v -0.2 0.1 -0.2
v -0.1 0.1 -0.2
v -5.96046e-08 0.1 -0.2
v 0.1 0.1 -0.2
v 0.3 0.1 -0.2
v 0.4 0.1 -0.2
v -0.4 0.1 -0.3
v -0.3 0.1 -0.3
v -0.2 0.1 -0.3
v -0.1 0.1 -0.3
v -5.96046e-08 0.1 -0.3
v 0.1 0.1 -0.3
v 0.2 0.1 -0.3
v 0.3 0.1 -0.3
v -0.3 0.1 -0.4
v -0.1 0.1 -0.4
v 0.1 0.1 -0.4
v -0.2 0.2 0.5
v 0.1 0.2 0.5
v 0.3 0.2 0.5
v -0.4 0.2 0.4
v -0.3 0.2 0.4
v -0.2 0.2 0.4
v 0.1 0.2 0.4
v 0.3 0.2 0.4
v 0.4 0.2 0.4
v -0.4 0.2 0.3
v -0.3 0.2 0.3
v -0.2 0.2 0.3
v 0.3 0.2 0.3
v 0.4 0.2 0.3
v 0.6 0.2 0.3
v -0.5 0.2 0.2
v -0.4 0.2 0.2
v -0.3 0.2 0.2
v 0.4 0.2 0.2
v 0.6 0.2 0.2
v 0.7 0.2 0.2
v -0.5 0.2 0.1
v -0.4 0.2 0.1
v 0.5 0.2 0.1
v 0.6 0.2 0.1
v 0.7 0.2 0.1
v -0.6 0.2 0
v -0.5 0.2 0
v -0.4 0.2 0
v 0.5 0.2 0
v 0.6 0.2 0
v 0.4 0.2 -0.1
v 0.5 0.2 -0.1
v 0.6 0.2 -0.1
v -0.6 0.2 -0.2
v -0.5 0.2 -0.2
v -0.4 0.2 -0.2
v 0.3 0.2 -0.2
v 0.4 0.2 -0.2
v 0.5 0.2 -0.2
v -0.4 0.2 -0.3
v -0.3 0.2 -0.3
v 0.1 0.2 -0.3
v 0.2 0.2 -0.3
v 0.3 0.2 -0.3
v 0.4 0.2 -0.3
v -0.5 0.2 -0.4
v -0.4 0.2 -0.4
v -0.3 0.2 -0.4
v -0.1 0.2 -0.4
v 0.1 0.2 -0.4
v 0.2 0.2 -0.4
v 0.3 0.2 -0.4
v -0.4 0.2 -0.5
v -0.3 0.2 -0.5
v -0.1 0.2 -0.5
v 0.1 0.2 -0.5

# faces
f 3/2/1 2/2/1 1/2/1
f 4/2/1 2/2/1 3/2/1
f 9/4/1 6/4/1 5/4/1
f 10/4/1 6/4/1 9/4/1
f 12/4/1 8/4/1 7/4/1
f 13/2/1 9/2/1 8/2/1
f 13/4/1 8/4/1 12/4/1
f 14/2/1 9/2/1 13/2/1
f 15/3/1 11/3/1 10/3/1
f 16/3/1 11/3/1 15/3/1
f 24/2/1 18/2/1 17/2/1
f 25/1/1 19/1/1 18/1/1
f 25/2/1 18/2/1 24/2/1
f 26/1/1 19/1/1 25/1/1
f 27/2/1 21/2/1 20/2/1
f 28/2/1 21/2/1 27/2/1
f 31/1/1 23/1/1 22/1/1
f 32/2/1 24/2/1 23/2/1
f 32/1/1 23/1/1 31/1/1
f 33/2/1 24/2/1 32/2/1
f 34/3/1 30/3/1 29/3/1
f 35/3/1 30/3/1 34/3/1
f 40/4/1 37/4/1 36/4/1
f 41/4/1 37/4/1 40/4/1
f 42/4/1 39/4/1 38/4/1
f 43/4/1 39/4/1 42/4/1
f 47/4/1 45/4/1 44/4/1
f 48/4/1 45/4/1 47/4/1
f 49/1/1 47/1/1 46/1/1
f 50/1/1 47/1/1 49/1/1
f 53/1/1 52/1/1 51/1/1
f 54/1/1 52/1/1 53/1/1
f 59/3/1 56/3/1 55/3/1
f 60/3/1 56/3/1 59/3/1
f 61/2/1 58/2/1 57/2/1
f 62/2/1 58/2/1 61/2/1
f 67/2/1 64/2/1 63/2/1
f 68/2/1 64/2/1 67/2/1
f 69/4/1 66/4/1 65/4/1
f 70/4/1 66/4/1 69/4/1
f 74/1/1 72/1/1 71/1/1
f 75/2/1 73/2/1 72/2/1
f 75/1/1 72/1/1 74/1/1
f 76/2/1 73/2/1 75/2/1
f 79/1/1 78/1/1 77/1/1
f 80/1/1 78/1/1 79/1/1
f 81/2/2 82/2/2 83/2/2
f 83/2/2 82/2/2 84/2/2
f 85/4/2 86/4/2 90/4/2
f 86/2/2 87/2/2 91/2/2
f 90/4/2 86/4/2 91/4/2
f 91/2/2 87/2/2 92/2/2
f 88/3/2 89/3/2 93/3/2
f 93/3/2 89/3/2 94/3/2
f 95/2/2 96/2/2 99/2/2
f 99/2/2 96/2/2 100/2/2
f 97/3/2 98/3/2 101/3/2
f 101/3/2 98/3/2 102/3/2
f 103/2/2 104/2/2 105/2/2
f 105/2/2 104/2/2 106/2/2
f 107/4/2 108/4/2 109/4/2
f 109/4/2 108/4/2 110/4/2
f 110/1/2 111/1/2 112/1/2
f 112/1/2 111/1/2 113/1/2
f 114/4/2 115/4/2 117/4/2
f 117/4/2 115/4/2 118/4/2
f 116/3/2 117/3/2 121/3/2
f 121/3/2 117/3/2 122/3/2
f 119/2/2 120/2/2 123/2/2
f 123/2/2 120/2/2 124/2/2
f 125/4/2 126/4/2 131/4/2
f 131/4/2 126/4/2 132/4/2
f 127/3/2 128/3/2 133/3/2
f 128/4/2 129/4/2 134/4/2
f 133/3/2 128/3/2 134/3/2
f 134/4/2 129/4/2 135/4/2
f 130/3/2 131/3/2 136/3/2
f 136/3/2 131/3/2 137/3/2
f 134/2/2 135/2/2 138/2/2
f 138/2/2 135/2/2 139/2/2
f 140/2/2 141/2/2 143/2/2
f 141/4/2 142/4/2 144/4/2
f 143/2/2 141/2/2 144/2/2
f 144/4/2 142/4/2 145/4/2
f 145/4/2 146/4/2 147/4/2
f 147/4/2 146/4/2 148/4/2
f 149/4/2 150/4/2 152/4/2
f 152/4/2 150/4/2 153/4/2
f 151/2/2 152/2/2 156/2/2
f 156/2/2 152/2/2 157/2/2
f 153/1/2 154/1/2 158/1/2
f 154/2/2 155/2/2 159/2/2
f 158/1/2 154/1/2 159/1/2
f 159/2/2 155/2/2 160/2/2
f 161/1/2 162/1/2 163/1/2
f 163/1/2 162/1/2 164/1/2
f 167/1/3 166/1/3 165/1/3
f 168/1/3 166/1/3 167/1/3
f 169/3/3 168/3/3 167/3/3
f 170/3/3 168/3/3 169/3/3
f 173/1/3 172/1/3 171/1/3
f 174/1/3 172/1/3 173/1/3
f 176/2/3 174/2/3 173/2/3
f 177/2/3 174/2/3 176/2/3
f 178/4/3 176/4/3 175/4/3
f 179/4/3 176/4/3 178/4/3
f 180/2/3 179/2/3 178/2/3
f 181/2/3 179/2/3 180/2/3
f 182/4/3 181/4/3 180/4/3
f 183/4/3 182/4/3 180/4/3
f 184/4/3 182/4/3 183/4/3
f 186/3/3 185/3/3 184/3/3
f 187/3/3 185/3/3 186/3/3
f 190/4/3 189/4/3 188/4/3
f 191/4/3 189/4/3 190/4/3
f 194/4/3 193/4/3 192/4/3
f 195/4/3 193/4/3 194/4/3
f 197/2/3 196/2/3 195/2/3
f 198/2/3 196/2/3 197/2/3
f 202/4/3 200/4/3 199/4/3
f 203/4/3 200/4/3 202/4/3
f 204/2/3 202/2/3 201/2/3
f 205/2/3 202/2/3 204/2/3
f 208/4/3 207/4/3 206/4/3
f 209/4/3 207/4/3 208/4/3
f 211/1/3 210/1/3 209/1/3
f 212/1/3 210/1/3 211/1/3
f 215/1/3 214/1/3 213/1/3
f 216/1/3 214/1/3 215/1/3
f 220/2/3 218/2/3 217/2/3
f 221/2/3 218/2/3 220/2/3
f 222/4/3 220/4/3 219/4/3
f 223/4/3 220/4/3 222/4/3
f 226/4/3 225/4/3 224/4/3
f 227/4/3 225/4/3 226/4/3
f 230/3/3 229/3/3 228/3/3
f 231/3/3 229/3/3 230/3/3
f 234/2/3 233/2/3 232/2/3
f 235/2/3 233/2/3 234/2/3
f 238/3/3 237/3/3 236/3/3
f 239/3/3 237/3/3 238/3/3
f 242/1/3 241/1/3 240/1/3
f 243/1/3 241/1/3 242/1/3
f 244/2/3 243/2/3 242/2/3
f 245/2/3 243/2/3 244/2/3
f 248/2/3 247/2/3 246/2/3
f 249/2/3 247/2/3 248/2/3
f 250/1/3 249/1/3 248/1/3
f 251/1/3 249/1/3 250/1/3
f 252/1/4 253/1/4 254/1/4
f 254/1/4 253/1/4 255/1/4
f 255/1/4 253/1/4 256/1/4
f 256/1/4 253/1/4 257/1/4
f 256/3/4 257/3/4 258/3/4
f 258/3/4 257/3/4 259/3/4
f 260/2/4 261/2/4 262/2/4
f 262/2/4 261/2/4 263/2/4
f 264/3/4 265/3/4 266/3/4
f 266/3/4 265/3/4 267/3/4
f 268/2/4 269/2/4 270/2/4
f 270/2/4 269/2/4 271/2/4
f 272/2/4 273/2/4 274/2/4
f 274/2/4 273/2/4 275/2/4
f 276/4/4 277/4/4 278/4/4
f 278/4/4 277/4/4 279/4/4
f 279/1/4 280/1/4 281/1/4
f 281/1/4 280/1/4 282/1/4
f 283/2/4 284/2/4 285/2/4
f 285/2/4 284/2/4 286/2/4
f 287/4/4 288/4/4 289/4/4
f 289/4/4 288/4/4 290/4/4
f 290/2/4 291/2/4 292/2/4
f 292/2/4 291/2/4 293/2/4
f 294/2/4 295/2/4 297/2/4
f 297/2/4 295/2/4 298/2/4
f 296/4/4 297/4/4 299/4/4
f 299/4/4 297/4/4 300/4/4
f 301/4/4 302/4/4 303/4/4
f 303/4/4 302/4/4 304/4/4
f 305/2/4 306/2/4 307/2/4
f 307/2/4 306/2/4 308/2/4
f 309/4/4 310/4/4 311/4/4
f 309/4/4 311/4/4 312/4/4
f 309/4/4 312/4/4 314/4/4
f 312/2/4 313/2/4 315/2/4
f 314/4/4 312/4/4 315/4/4
f 315/2/4 313/2/4 316/2/4
f 317/3/4 318/3/4 319/3/4
f 319/3/4 318/3/4 320/3/4
f 321/4/4 322/4/4 323/4/4
f 321/4/4 323/4/4 324/4/4
f 324/4/4 323/4/4 325/4/4
f 325/1/4 326/1/4 327/1/4
f 327/1/4 326/1/4 328/1/4
f 327/2/4 328/2/4 329/2/4
f 329/2/4 328/2/4 330/2/4
f 331/3/4 332/3/4 333/3/4
f 333/3/4 332/3/4 334/3/4
f 333/2/4 334/2/4 335/2/4
f 335/2/4 334/2/4 336/2/4
f 335/1/4 336/1/4 337/1/4
f 337/1/4 336/1/4 338/1/4
f 344/4/5 340/4/5 339/4/5
f 345/2/5 341/2/5 340/2/5
f 345/4/5 340/4/5 344/4/5
f 346/4/5 342/4/5 341/4/5
f 346/2/5 341/2/5 345/2/5
f 347/4/5 342/4/5 346/4/5
f 348/4/5 342/4/5 347/4/5
f 351/4/5 344/4/5 343/4/5
f 352/2/5 345/2/5 344/2/5
f 352/4/5 344/4/5 351/4/5
f 353/1/5 346/1/5 345/1/5
f 353/2/5 345/2/5 352/2/5
f 354/2/5 347/2/5 346/2/5
f 354/1/5 346/1/5 353/1/5
f 355/2/5 347/2/5 354/2/5
f 356/4/5 349/4/5 348/4/5
f 356/2/5 347/2/5 355/2/5
f 356/4/5 348/4/5 347/4/5
f 357/4/5 349/4/5 356/4/5
f 358/4/5 349/4/5 357/4/5
f 360/2/5 351/2/5 350/2/5
f 361/3/5 352/3/5 351/3/5
f 361/2/5 351/2/5 360/2/5
f 362/1/5 353/1/5 352/1/5
f 362/3/5 352/3/5 361/3/5
f 363/3/5 354/3/5 353/3/5
f 363/1/5 353/1/5 362/1/5
f 364/2/5 355/2/5 354/2/5
f 364/3/5 354/3/5 363/3/5
f 365/1/5 356/1/5 355/1/5
f 365/2/5 355/2/5 364/2/5
f 366/4/5 357/4/5 356/4/5
f 366/1/5 356/1/5 365/1/5
f 367/2/5 358/2/5 357/2/5
f 367/4/5 357/4/5 366/4/5
f 368/4/5 359/4/5 358/4/5
f 368/2/5 358/2/5 367/2/5
f 369/4/5 359/4/5 368/4/5
f 370/4/5 359/4/5 369/4/5
f 372/1/5 361/1/5 360/1/5
f 373/4/5 363/4/5 362/4/5
f 373/4/5 362/4/5 361/4/5
f 373/1/5 361/1/5 372/1/5
f 374/4/5 363/4/5 373/4/5
f 375/3/5 364/3/5 363/3/5
f 375/4/5 363/4/5 374/4/5
f 375/3/5 365/3/5 364/3/5
f 376/3/5 367/3/5 366/3/5
f 376/1/5 366/1/5 365/1/5
f 377/2/5 368/2/5 367/2/5
f 377/3/5 367/3/5 376/3/5
f 377/2/5 369/2/5 368/2/5
f 378/2/5 369/2/5 377/2/5
f 379/2/5 369/2/5 378/2/5
f 380/4/5 372/4/5 371/4/5
f 380/3/5 373/3/5 372/3/5
f 381/2/5 374/2/5 373/2/5
f 381/3/5 373/3/5 380/3/5
f 382/3/5 375/3/5 374/3/5
f 382/2/5 374/2/5 381/2/5
f 383/3/5 365/3/5 375/3/5
f 383/3/5 375/3/5 382/3/5
f 384/3/5 365/3/5 383/3/5
f 385/1/5 376/1/5 365/1/5
f 385/3/5 365/3/5 384/3/5
f 386/4/5 377/4/5 376/4/5
f 386/1/5 376/1/5 385/1/5
f 387/2/5 378/2/5 377/2/5
f 387/4/5 377/4/5 386/4/5
f 388/4/5 379/4/5 378/4/5
f 388/2/5 378/2/5 387/2/5
f 389/4/5 379/4/5 388/4/5
f 390/4/5 380/4/5 371/4/5
f 390/4/5 381/4/5 380/4/5
f 391/4/5 381/4/5 390/4/5
f 392/3/5 382/3/5 381/3/5
f 392/4/5 381/4/5 391/4/5
f 392/3/5 383/3/5 382/3/5
f 393/3/5 383/3/5 392/3/5
f 394/4/5 384/4/5 383/4/5
f 394/3/5 383/3/5 393/3/5
f 395/1/5 385/1/5 384/1/5
f 395/4/5 384/4/5 394/4/5
f 396/3/5 387/3/5 386/3/5
f 396/1/5 385/1/5 395/1/5
f 396/3/5 388/3/5 387/3/5
f 396/3/5 386/3/5 385/3/5
f 397/3/5 388/3/5 396/3/5
f 398/2/5 392/2/5 391/2/5
f 398/2/5 393/2/5 392/2/5
f 399/2/5 393/2/5 398/2/5
f 400/4/5 394/4/5 393/4/5
f 400/2/5 393/2/5 399/2/5
f 401/2/5 395/2/5 394/2/5
f 401/4/5 394/4/5 400/4/5
f 402/4/5 397/4/5 396/4/5
f 402/2/5 395/2/5 401/2/5
f 402/4/5 396/4/5 395/4/5
f 403/4/5 397/4/5 402/4/5
f 404/4/5 397/4/5 403/4/5
f 405/4/5 400/4/5 399/4/5
f 405/4/5 401/4/5 400/4/5
f 405/4/5 403/4/5 402/4/5
f 405/4/5 402/4/5 401/4/5
f 406/4/5 403/4/5 405/4/5
f 412/1/5 408/1/5 407/1/5
f 413/1/5 408/1/5 412/1/5
f 414/1/5 408/1/5 413/1/5
f 415/3/5 409/3/5 408/3/5
f 415/1/5 408/1/5 414/1/5
f 416/3/5 409/3/5 415/3/5
f 418/1/5 411/1/5 410/1/5
f 419/2/5 412/2/5 411/2/5
f 419/1/5 411/1/5 418/1/5
f 420/2/5 412/2/5 419/2/5
f 421/3/5 417/3/5 416/3/5
f 422/3/5 417/3/5 421/3/5
f 425/2/5 419/2/5 418/2/5
f 426/2/5 419/2/5 425/2/5
f 427/2/5 423/2/5 422/2/5
f 428/2/5 423/2/5 427/2/5
f 430/4/5 425/4/5 424/4/5
f 431/4/5 425/4/5 430/4/5
f 433/1/5 429/1/5 428/1/5
f 434/1/5 429/1/5 433/1/5
f 436/2/5 431/2/5 430/2/5
f 437/2/5 431/2/5 436/2/5
f 438/1/5 433/1/5 432/1/5
f 439/1/5 433/1/5 438/1/5
f 441/2/5 439/2/5 438/2/5
f 442/2/5 439/2/5 441/2/5
f 443/2/5 436/2/5 435/2/5
f 444/2/5 436/2/5 443/2/5
f 446/4/5 441/4/5 440/4/5
f 447/4/5 441/4/5 446/4/5
f 448/3/5 445/3/5 444/3/5
f 453/3/5 448/3/5 444/3/5
f 453/3/5 449/3/5 448/3/5
f 454/3/5 449/3/5 453/3/5
f 455/3/5 449/3/5 454/3/5
f 457/1/5 451/1/5 450/1/5
f 458/2/5 452/2/5 451/2/5
f 458/1/5 451/1/5 457/1/5
f 459/2/5 452/2/5 458/2/5
f 460/3/5 455/3/5 454/3/5
f 461/2/5 456/2/5 455/2/5
f 461/3/5 455/3/5 460/3/5
f 462/1/5 457/1/5 456/1/5
f 462/2/5 456/2/5 461/2/5
f 463/1/5 457/1/5 462/1/5
f 464/4/6 465/4/6 470/4/6
f 465/2/6 466/2/6 471/2/6
f 470/4/6 465/4/6 471/4/6
f 467/4/6 468/4/6 472/4/6
f 471/2/6 466/2/6 472/2/6
f 466/4/6 467/4/6 472/4/6
f 472/4/6 468/4/6 473/4/6
f 473/4/6 468/4/6 474/4/6
f 469/4/6 470/4/6 477/4/6
f 470/2/6 471/2/6 478/2/6
f 477/4/6 470/4/6 478/4/6
f 471/1/6 472/1/6 479/1/6
f 478/2/6 471/2/6 479/2/6
f 472/2/6 473/2/6 480/2/6
f 479/1/6 472/1/6 480/1/6
f 480/2/6 473/2/6 481/2/6
f 474/4/6 475/4/6 482/4/6
f 481/2/6 473/2/6 482/2/6
f 473/4/6 474/4/6 482/4/6
f 482/4/6 475/4/6 483/4/6
f 483/4/6 475/4/6 484/4/6
f 476/2/6 477/2/6 486/2/6
f 477/3/6 478/3/6 487/3/6
f 486/2/6 477/2/6 487/2/6
f 478/1/6 479/1/6 488/1/6
f 487/3/6 478/3/6 488/3/6
f 479/3/6 480/3/6 489/3/6
f 488/1/6 479/1/6 489/1/6
f 480/2/6 481/2/6 490/2/6
f 489/3/6 480/3/6 490/3/6
f 481/1/6 482/1/6 491/1/6
f 490/2/6 481/2/6 491/2/6
f 482/4/6 483/4/6 492/4/6
f 491/1/6 482/1/6 492/1/6
f 483/2/6 484/2/6 493/2/6
f 492/4/6 483/4/6 493/4/6
f 484/4/6 485/4/6 494/4/6
f 493/2/6 484/2/6 494/2/6
f 494/4/6 485/4/6 495/4/6
f 495/4/6 485/4/6 496/4/6
f 486/1/6 487/1/6 498/1/6
f 488/4/6 489/4/6 499/4/6
f 487/4/6 488/4/6 499/4/6
f 498/1/6 487/1/6 499/1/6
f 499/4/6 489/4/6 500/4/6
f 489/3/6 490/3/6 501/3/6
f 500/4/6 489/4/6 501/4/6
f 490/3/6 491/3/6 501/3/6
f 492/3/6 493/3/6 502/3/6
f 491/1/6 492/1/6 502/1/6
f 493/2/6 494/2/6 503/2/6
f 502/3/6 493/3/6 503/3/6
f 494/2/6 495/2/6 503/2/6
f 503/2/6 495/2/6 504/2/6
f 504/2/6 495/2/6 505/2/6
f 497/4/6 498/4/6 506/4/6
f 498/3/6 499/3/6 506/3/6
f 499/2/6 500/2/6 507/2/6
f 506/3/6 499/3/6 507/3/6
f 500/3/6 501/3/6 508/3/6
f 507/2/6 500/2/6 508/2/6
f 501/3/6 491/3/6 509/3/6
f 508/3/6 501/3/6 509/3/6
f 509/3/6 491/3/6 510/3/6
f 491/1/6 502/1/6 511/1/6
f 510/3/6 491/3/6 511/3/6
f 502/4/6 503/4/6 512/4/6
f 511/1/6 502/1/6 512/1/6
f 503/2/6 504/2/6 513/2/6
f 512/4/6 503/4/6 513/4/6
f 504/4/6 505/4/6 514/4/6
f 513/2/6 504/2/6 514/2/6
f 514/4/6 505/4/6 515/4/6
f 497/4/6 506/4/6 516/4/6
f 506/4/6 507/4/6 516/4/6
f 516/4/6 507/4/6 517/4/6
f 507/3/6 508/3/6 518/3/6
f 517/4/6 507/4/6 518/4/6
f 508/3/6 509/3/6 518/3/6
f 518/3/6 509/3/6 519/3/6
f 509/4/6 510/4/6 520/4/6
f 519/3/6 509/3/6 520/3/6
f 510/1/6 511/1/6 521/1/6
f 520/4/6 510/4/6 521/4/6
f 512/3/6 513/3/6 522/3/6
f 521/1/6 511/1/6 522/1/6
f 513/3/6 514/3/6 522/3/6
f 511/3/6 512/3/6 522/3/6
f 522/3/6 514/3/6 523/3/6
f 523/3/6 514/3/6 524/3/6
f 517/2/6 518/2/6 525/2/6
f 518/2/6 519/2/6 525/2/6
f 525/2/6 519/2/6 526/2/6
f 519/4/6 520/4/6 527/4/6
f 526/2/6 519/2/6 527/2/6
f 520/2/6 521/2/6 528/2/6
f 527/4/6 520/4/6 528/4/6
f 522/4/6 523/4/6 529/4/6
f 528/2/6 521/2/6 529/2/6
f 521/4/6 522/4/6 529/4/6
f 529/4/6 523/4/6 530/4/6
f 530/4/6 523/4/6 531/4/6
f 531/4/6 523/4/6 532/4/6
f 526/4/6 527/4/6 533/4/6
f 527/4/6 528/4/6 533/4/6
f 529/4/6 530/4/6 533/4/6
f 528/4/6 529/4/6 533/4/6
f 533/4/6 530/4/6 534/4/6
f 534/4/6 530/4/6 535/4/6
f 536/1/6 537/1/6 541/1/6
f 537/3/6 538/3/6 542/3/6
f 541/1/6 537/1/6 542/1/6
f 542/3/6 538/3/6 543/3/6
f 539/1/6 540/1/6 545/1/6
f 540/2/6 541/2/6 546/2/6
f 545/1/6 540/1/6 546/1/6
f 546/2/6 541/2/6 547/2/6
f 543/3/6 544/3/6 548/3/6
f 548/3/6 544/3/6 549/3/6
f 545/2/6 546/2/6 552/2/6
f 552/2/6 546/2/6 553/2/6
f 549/2/6 550/2/6 554/2/6
f 554/2/6 550/2/6 555/2/6
f 551/4/6 552/4/6 557/4/6
f 557/4/6 552/4/6 558/4/6
f 555/1/6 556/1/6 560/1/6
f 560/1/6 556/1/6 561/1/6
f 557/2/6 558/2/6 563/2/6
f 563/2/6 558/2/6 564/2/6
f 559/1/6 560/1/6 565/1/6
f 565/1/6 560/1/6 566/1/6
f 565/2/6 566/2/6 568/2/6
f 568/2/6 566/2/6 569/2/6
f 562/2/6 563/2/6 570/2/6
f 570/2/6 563/2/6 571/2/6
f 567/4/6 568/4/6 574/4/6
f 574/4/6 568/4/6 575/4/6
f 571/3/6 572/3/6 576/3/6
f 573/2/6 574/2/6 580/2/6
f 580/2/6 574/2/6 581/2/6
f 571/3/6 576/3/6 582/3/6
f 576/3/6 577/3/6 582/3/6
f 582/3/6 577/3/6 583/3/6
f 583/3/6 577/3/6 584/3/6
f 578/1/6 579/1/6 586/1/6
f 579/2/6 580/2/6 587/2/6
f 586/1/6 579/1/6 587/1/6
f 587/2/6 580/2/6 588/2/6
f 583/3/6 584/3/6 589/3/6
f 584/2/6 585/2/6 590/2/6
f 589/3/6 584/3/6 590/3/6
f 585/1/6 586/1/6 591/1/6
f 590/2/6 585/2/6 591/2/6
f 591/1/6 586/1/6 592/1/6
