# MagicaVoxel @ Ephtracy

# group
o 

# material
mtllib kamien1.mtl
usemtl palette

# normals
vn -1 0 0
vn 1 0 0
vn 0 0 1
vn 0 0 -1
vn 0 -1 0
vn 0 1 0

# texcoords
vt 0.974609 0.5
vt 0.978516 0.5
vt 0.982422 0.5

# verts
v -0.2 0 0
v -0.2 0 -0.1
v -0.2 0.1 0
v -0.2 0.1 -0.1
v -0.1 0 0.1
v -0.1 0 0
v -0.1 0.1 0.1
v -0.1 0.1 0
v -0.1 0.1 -0.1
v -0.1 0.2 0
v -0.1 0.2 -0.1
v 0 0 0.2
v 0 0 0.1
v 0 0 -0.1
v 0 0 -0.2
v 0 0.1 0.2
v 0 0.1 0.1
v 0 0.1 0
v 0 0.1 -0.1
v 0 0.1 -0.2
v 0 0.2 0.1
v 0 0.2 0
v 0.1 0 0.2
v 0.1 0 0.1
v 0.1 0 -0.1
v 0.1 0 -0.2
v 0.1 0.1 0.2
v 0.1 0.1 0.1
v 0.1 0.1 0
v 0.1 0.1 -0.1
v 0.1 0.1 -0.2
v 0.1 0.2 0.1
v 0.1 0.2 -0.1
v 0.2 0 0.1
v 0.2 0 0
v 0.2 0 -0.1
v 0.2 0.1 0.1
v 0.2 0.1 0
v 0.2 0.1 -0.1
v 0 0 0.2
v 0 0.1 0.2
v 0.1 0 0.2
v 0.1 0.1 0.2
v -0.1 0 0.1
v -0.1 0.1 0.1
v 0 0 0.1
v 0 0.1 0.1
v 0 0.2 0.1
v 0.1 0 0.1
v 0.1 0.1 0.1
v 0.1 0.2 0.1
v 0.2 0 0.1
v 0.2 0.1 0.1
v -0.2 0 0
v -0.2 0.1 0
v -0.1 0 0
v -0.1 0.1 0
v -0.1 0.2 0
v 0 0.1 0
v 0 0.2 0
v -0.2 0 -0.1
v -0.2 0.1 -0.1
v -0.1 0 -0.1
v -0.1 0.1 -0.1
v -0.1 0.2 -0.1
v 0 0 -0.1
v 0 0.1 -0.1
v 0 0.2 -0.1
v 0.1 0 -0.1
v 0.1 0.1 -0.1
v 0.1 0.2 -0.1
v 0.2 0 -0.1
v 0.2 0.1 -0.1
v 0 0 -0.2
v 0 0.1 -0.2
v 0.1 0 -0.2
v 0.1 0.1 -0.2
v 0 0 0.2
v 0.1 0 0.2
v -0.1 0 0.1
v 0 0 0.1
v 0.1 0 0.1
v 0.2 0 0.1
v -0.2 0 0
v -0.1 0 0
v 0.1 0 0
v 0.2 0 0
v -0.2 0 -0.1
v -0.1 0 -0.1
v 0 0 -0.1
v 0.1 0 -0.1
v 0.2 0 -0.1
v 0 0 -0.2
v 0.1 0 -0.2
v 0 0.1 0.2
v 0.1 0.1 0.2
v -0.1 0.1 0.1
v 0 0.1 0.1
v 0.1 0.1 0.1
v 0.2 0.1 0.1
v -0.2 0.1 0
v -0.1 0.1 0
v 0 0.1 0
v 0.1 0.1 0
v 0.2 0.1 0
v -0.2 0.1 -0.1
v -0.1 0.1 -0.1
v 0 0.1 -0.1
v 0.1 0.1 -0.1
v 0.2 0.1 -0.1
v 0 0.1 -0.2
v 0.1 0.1 -0.2
v 0 0.2 0.1
v 0.1 0.2 0.1
v -0.1 0.2 0
v 0 0.2 0
v -0.1 0.2 -0.1
v 0 0.2 -0.1
v 0.1 0.2 -0.1

# faces
f 3/1/1 2/1/1 1/1/1
f 4/1/1 2/1/1 3/1/1
f 7/3/1 6/3/1 5/3/1
f 8/3/1 6/3/1 7/3/1
f 10/2/1 9/2/1 8/2/1
f 11/2/1 9/2/1 10/2/1
f 16/3/1 13/3/1 12/3/1
f 17/3/1 13/3/1 16/3/1
f 19/1/1 15/1/1 14/1/1
f 20/1/1 15/1/1 19/1/1
f 21/1/1 18/1/1 17/1/1
f 22/1/1 18/1/1 21/1/1
f 23/3/2 24/3/2 27/3/2
f 27/3/2 24/3/2 28/3/2
f 25/1/2 26/1/2 30/1/2
f 30/1/2 26/1/2 31/1/2
f 28/1/2 29/1/2 32/1/2
f 29/1/2 30/1/2 32/1/2
f 32/1/2 30/1/2 33/1/2
f 34/1/2 35/1/2 37/1/2
f 35/3/2 36/3/2 38/3/2
f 37/1/2 35/1/2 38/1/2
f 38/3/2 36/3/2 39/3/2
f 42/3/3 41/3/3 40/3/3
f 43/3/3 41/3/3 42/3/3
f 46/3/3 45/3/3 44/3/3
f 47/3/3 45/3/3 46/3/3
f 50/1/3 48/1/3 47/1/3
f 51/1/3 48/1/3 50/1/3
f 52/1/3 50/1/3 49/1/3
f 53/1/3 50/1/3 52/1/3
f 56/1/3 55/1/3 54/1/3
f 57/1/3 55/1/3 56/1/3
f 59/2/3 58/2/3 57/2/3
f 60/2/3 58/2/3 59/2/3
f 61/1/4 62/1/4 63/1/4
f 63/1/4 62/1/4 64/1/4
f 63/3/4 64/3/4 66/3/4
f 64/2/4 65/2/4 67/2/4
f 66/3/4 64/3/4 67/3/4
f 67/2/4 65/2/4 68/2/4
f 67/1/4 68/1/4 70/1/4
f 70/1/4 68/1/4 71/1/4
f 69/3/4 70/3/4 72/3/4
f 72/3/4 70/3/4 73/3/4
f 74/1/4 75/1/4 76/1/4
f 76/1/4 75/1/4 77/1/4
f 81/3/5 79/3/5 78/3/5
f 82/3/5 79/3/5 81/3/5
f 85/3/5 81/3/5 80/3/5
f 86/1/5 83/1/5 82/1/5
f 86/2/5 82/2/5 81/2/5
f 87/1/5 83/1/5 86/1/5
f 88/1/5 85/1/5 84/1/5
f 89/3/5 81/3/5 85/3/5
f 89/1/5 85/1/5 88/1/5
f 90/2/5 86/2/5 81/2/5
f 90/3/5 81/3/5 89/3/5
f 91/3/5 87/3/5 86/3/5
f 91/2/5 86/2/5 90/2/5
f 92/3/5 87/3/5 91/3/5
f 93/1/5 91/1/5 90/1/5
f 94/1/5 91/1/5 93/1/5
f 95/3/6 96/3/6 98/3/6
f 98/3/6 96/3/6 99/3/6
f 97/3/6 98/3/6 102/3/6
f 102/3/6 98/3/6 103/3/6
f 99/1/6 100/1/6 104/1/6
f 104/1/6 100/1/6 105/1/6
f 101/1/6 102/1/6 106/1/6
f 106/1/6 102/1/6 107/1/6
f 104/3/6 105/3/6 109/3/6
f 109/3/6 105/3/6 110/3/6
f 108/1/6 109/1/6 111/1/6
f 111/1/6 109/1/6 112/1/6
f 113/1/6 114/1/6 116/1/6
f 115/2/6 116/2/6 117/2/6
f 116/1/6 114/1/6 118/1/6
f 117/2/6 116/2/6 118/2/6
f 118/1/6 114/1/6 119/1/6
