# MagicaVoxel @ Ephtracy

# group
o 

# material
mtllib pickup_tire_2.mtl
usemtl palette

# normals
vn -1 0 0
vn 1 0 0
vn 0 0 1
vn 0 0 -1
vn 0 -1 0
vn 0 1 0

# texcoords
vt 0.958984 0.5
vt 0.966797 0.5
vt 0.978516 0.5
vt 0.986328 0.5
vt 0.994141 0.5

# verts
v -1.6 0.3 0.6
v -1.6 0.3 0.3
v -1.6 0.6 0.6
v -1.6 0.6 0.3
v -1.5 0.1 0.6
v -1.5 0.1 0.3
v -1.5 0.3 0.6
v -1.5 0.3 0.3
v -1.5 0.6 0.6
v -1.5 0.6 0.3
v -1.5 0.8 0.6
v -1.5 0.8 0.3
v -1.3 0 0.6
v -1.3 0 0.3
v -1.3 0.1 0.6
v -1.3 0.1 0.3
v -1.3 0.8 0.6
v -1.3 0.8 0.3
v -1.3 0.9 0.6
v -1.3 0.9 0.3
v -1 0 0.6
v -1 0 0.3
v -1 0.1 0.6
v -1 0.1 0.3
v -1 0.8 0.6
v -1 0.8 0.3
v -1 0.9 0.6
v -1 0.9 0.3
v -0.8 0.1 0.6
v -0.8 0.1 0.3
v -0.8 0.3 0.6
v -0.8 0.3 0.3
v -0.8 0.6 0.6
v -0.8 0.6 0.3
v -0.8 0.8 0.6
v -0.8 0.8 0.3
v -0.7 0.3 0.6
v -0.7 0.3 0.3
v -0.7 0.6 0.6
v -0.7 0.6 0.3
v -1.6 0.3 0.6
v -1.6 0.6 0.6
v -1.5 0.1 0.6
v -1.5 0.3 0.6
v -1.5 0.6 0.6
v -1.5 0.8 0.6
v -1.4 0.3 0.6
v -1.4 0.4 0.6
v -1.4 0.5 0.6
v -1.4 0.6 0.6
v -1.3 0 0.6
v -1.3 0.1 0.6
v -1.3 0.2 0.6
v -1.3 0.3 0.6
v -1.3 0.4 0.6
v -1.3 0.5 0.6
v -1.3 0.6 0.6
v -1.3 0.7 0.6
v -1.3 0.8 0.6
v -1.3 0.9 0.6
v -1.2 0.2 0.6
v -1.2 0.3 0.6
v -1.2 0.6 0.6
v -1.2 0.7 0.6
v -1.1 0.2 0.6
v -1.1 0.3 0.6
v -1.1 0.6 0.6
v -1.1 0.7 0.6
v -1 0 0.6
v -1 0.1 0.6
v -1 0.2 0.6
v -1 0.3 0.6
v -1 0.4 0.6
v -1 0.5 0.6
v -1 0.6 0.6
v -1 0.7 0.6
v -1 0.8 0.6
v -1 0.9 0.6
v -0.9 0.3 0.6
v -0.9 0.4 0.6
v -0.9 0.5 0.6
v -0.9 0.6 0.6
v -0.8 0.1 0.6
v -0.8 0.3 0.6
v -0.8 0.6 0.6
v -0.8 0.8 0.6
v -0.7 0.3 0.6
v -0.7 0.6 0.6
v -1.6 0.3 0.3
v -1.6 0.6 0.3
v -1.5 0.1 0.3
v -1.5 0.3 0.3
v -1.5 0.6 0.3
v -1.5 0.8 0.3
v -1.4 0.3 0.3
v -1.4 0.4 0.3
v -1.4 0.5 0.3
v -1.4 0.6 0.3
v -1.3 0 0.3
v -1.3 0.1 0.3
v -1.3 0.2 0.3
v -1.3 0.3 0.3
v -1.3 0.4 0.3
v -1.3 0.5 0.3
v -1.3 0.6 0.3
v -1.3 0.7 0.3
v -1.3 0.8 0.3
v -1.3 0.9 0.3
v -1.2 0.2 0.3
v -1.2 0.3 0.3
v -1.2 0.6 0.3
v -1.2 0.7 0.3
v -1.1 0.2 0.3
v -1.1 0.3 0.3
v -1.1 0.6 0.3
v -1.1 0.7 0.3
v -1 0 0.3
v -1 0.1 0.3
v -1 0.2 0.3
v -1 0.3 0.3
v -1 0.4 0.3
v -1 0.5 0.3
v -1 0.6 0.3
v -1 0.7 0.3
v -1 0.8 0.3
v -1 0.9 0.3
v -0.9 0.3 0.3
v -0.9 0.4 0.3
v -0.9 0.5 0.3
v -0.9 0.6 0.3
v -0.8 0.1 0.3
v -0.8 0.3 0.3
v -0.8 0.6 0.3
v -0.8 0.8 0.3
v -0.7 0.3 0.3
v -0.7 0.6 0.3
v -1.3 0 0.6
v -1 0 0.6
v -1.3 0 0.3
v -1 0 0.3
v -1.5 0.1 0.6
v -1.3 0.1 0.6
v -1 0.1 0.6
v -0.8 0.1 0.6
v -1.5 0.1 0.3
v -1.3 0.1 0.3
v -1 0.1 0.3
v -0.8 0.1 0.3
v -1.6 0.3 0.6
v -1.5 0.3 0.6
v -0.8 0.3 0.6
v -0.7 0.3 0.6
v -1.6 0.3 0.3
v -1.5 0.3 0.3
v -0.8 0.3 0.3
v -0.7 0.3 0.3
v -1.6 0.6 0.6
v -1.5 0.6 0.6
v -0.8 0.6 0.6
v -0.7 0.6 0.6
v -1.6 0.6 0.3
v -1.5 0.6 0.3
v -0.8 0.6 0.3
v -0.7 0.6 0.3
v -1.5 0.8 0.6
v -1.3 0.8 0.6
v -1 0.8 0.6
v -0.8 0.8 0.6
v -1.5 0.8 0.3
v -1.3 0.8 0.3
v -1 0.8 0.3
v -0.8 0.8 0.3
v -1.3 0.9 0.6
v -1 0.9 0.6
v -1.3 0.9 0.3
v -1 0.9 0.3

# faces
f 3/5/1 2/5/1 1/5/1
f 4/5/1 2/5/1 3/5/1
f 7/5/1 6/5/1 5/5/1
f 8/5/1 6/5/1 7/5/1
f 11/5/1 10/5/1 9/5/1
f 12/5/1 10/5/1 11/5/1
f 15/5/1 14/5/1 13/5/1
f 16/5/1 14/5/1 15/5/1
f 19/5/1 18/5/1 17/5/1
f 20/5/1 18/5/1 19/5/1
f 21/5/2 22/5/2 23/5/2
f 23/5/2 22/5/2 24/5/2
f 25/5/2 26/5/2 27/5/2
f 27/5/2 26/5/2 28/5/2
f 29/5/2 30/5/2 31/5/2
f 31/5/2 30/5/2 32/5/2
f 33/5/2 34/5/2 35/5/2
f 35/5/2 34/5/2 36/5/2
f 37/5/2 38/5/2 39/5/2
f 39/5/2 38/5/2 40/5/2
f 44/5/3 42/5/3 41/5/3
f 45/5/3 42/5/3 44/5/3
f 47/5/3 44/5/3 43/5/3
f 47/5/3 46/5/3 45/5/3
f 47/5/3 45/5/3 44/5/3
f 48/5/3 46/5/3 47/5/3
f 49/5/3 46/5/3 48/5/3
f 50/5/3 46/5/3 49/5/3
f 52/5/3 47/5/3 43/5/3
f 53/5/3 47/5/3 52/5/3
f 54/3/3 48/3/3 47/3/3
f 54/5/3 47/5/3 53/5/3
f 55/4/3 49/4/3 48/4/3
f 55/3/3 48/3/3 54/3/3
f 56/3/3 50/3/3 49/3/3
f 56/4/3 49/4/3 55/4/3
f 57/5/3 46/5/3 50/5/3
f 57/3/3 50/3/3 56/3/3
f 58/5/3 46/5/3 57/5/3
f 59/5/3 46/5/3 58/5/3
f 61/5/3 53/5/3 52/5/3
f 61/3/3 54/3/3 53/3/3
f 61/5/3 52/5/3 51/5/3
f 62/4/3 56/4/3 55/4/3
f 62/3/3 54/3/3 61/3/3
f 62/4/3 55/4/3 54/4/3
f 62/4/3 57/4/3 56/4/3
f 63/3/3 58/3/3 57/3/3
f 63/4/3 57/4/3 62/4/3
f 64/5/3 60/5/3 59/5/3
f 64/3/3 58/3/3 63/3/3
f 64/5/3 59/5/3 58/5/3
f 65/5/3 61/5/3 51/5/3
f 65/4/3 63/4/3 62/4/3
f 65/4/3 64/4/3 63/4/3
f 65/4/3 62/4/3 61/4/3
f 66/4/3 64/4/3 65/4/3
f 67/4/3 64/4/3 66/4/3
f 68/5/3 60/5/3 64/5/3
f 68/4/3 64/4/3 67/4/3
f 69/5/3 65/5/3 51/5/3
f 70/5/3 65/5/3 69/5/3
f 71/3/3 66/3/3 65/3/3
f 71/5/3 65/5/3 70/5/3
f 72/4/3 67/4/3 66/4/3
f 72/3/3 66/3/3 71/3/3
f 73/4/3 67/4/3 72/4/3
f 74/4/3 67/4/3 73/4/3
f 75/3/3 68/3/3 67/3/3
f 75/4/3 67/4/3 74/4/3
f 76/5/3 60/5/3 68/5/3
f 76/3/3 68/3/3 75/3/3
f 77/5/3 60/5/3 76/5/3
f 78/5/3 60/5/3 77/5/3
f 79/5/3 71/5/3 70/5/3
f 79/5/3 72/5/3 71/5/3
f 79/3/3 73/3/3 72/3/3
f 80/4/3 74/4/3 73/4/3
f 80/3/3 73/3/3 79/3/3
f 81/3/3 75/3/3 74/3/3
f 81/4/3 74/4/3 80/4/3
f 82/5/3 77/5/3 76/5/3
f 82/3/3 75/3/3 81/3/3
f 82/5/3 76/5/3 75/5/3
f 83/5/3 80/5/3 79/5/3
f 83/5/3 81/5/3 80/5/3
f 83/5/3 82/5/3 81/5/3
f 83/5/3 79/5/3 70/5/3
f 84/5/3 82/5/3 83/5/3
f 85/5/3 77/5/3 82/5/3
f 85/5/3 82/5/3 84/5/3
f 86/5/3 77/5/3 85/5/3
f 87/5/3 85/5/3 84/5/3
f 88/5/3 85/5/3 87/5/3
f 89/5/4 90/5/4 92/5/4
f 92/5/4 90/5/4 93/5/4
f 91/5/4 92/5/4 95/5/4
f 93/5/4 94/5/4 95/5/4
f 92/5/4 93/5/4 95/5/4
f 95/5/4 94/5/4 96/5/4
f 96/5/4 94/5/4 97/5/4
f 97/5/4 94/5/4 98/5/4
f 91/5/4 95/5/4 100/5/4
f 100/5/4 95/5/4 101/5/4
f 95/3/4 96/3/4 102/3/4
f 101/5/4 95/5/4 102/5/4
f 96/4/4 97/4/4 103/4/4
f 102/3/4 96/3/4 103/3/4
f 97/3/4 98/3/4 104/3/4
f 103/4/4 97/4/4 104/4/4
f 98/5/4 94/5/4 105/5/4
f 104/3/4 98/3/4 105/3/4
f 105/5/4 94/5/4 106/5/4
f 106/5/4 94/5/4 107/5/4
f 100/5/4 101/5/4 109/5/4
f 101/3/4 102/3/4 109/3/4
f 99/5/4 100/5/4 109/5/4
f 103/4/4 104/4/4 110/4/4
f 109/3/4 102/3/4 110/3/4
f 102/4/4 103/4/4 110/4/4
f 104/4/4 105/4/4 110/4/4
f 105/3/4 106/3/4 111/3/4
f 110/4/4 105/4/4 111/4/4
f 107/5/4 108/5/4 112/5/4
f 111/3/4 106/3/4 112/3/4
f 106/5/4 107/5/4 112/5/4
f 99/5/4 109/5/4 113/5/4
f 110/4/4 111/4/4 113/4/4
f 111/4/4 112/4/4 113/4/4
f 109/4/4 110/4/4 113/4/4
f 113/4/4 112/4/4 114/4/4
f 114/4/4 112/4/4 115/4/4
f 112/5/4 108/5/4 116/5/4
f 115/4/4 112/4/4 116/4/4
f 99/5/4 113/5/4 117/5/4
f 117/5/4 113/5/4 118/5/4
f 113/3/4 114/3/4 119/3/4
f 118/5/4 113/5/4 119/5/4
f 114/4/4 115/4/4 120/4/4
f 119/3/4 114/3/4 120/3/4
f 120/4/4 115/4/4 121/4/4
f 121/4/4 115/4/4 122/4/4
f 115/3/4 116/3/4 123/3/4
f 122/4/4 115/4/4 123/4/4
f 116/5/4 108/5/4 124/5/4
f 123/3/4 116/3/4 124/3/4
f 124/5/4 108/5/4 125/5/4
f 125/5/4 108/5/4 126/5/4
f 118/5/4 119/5/4 127/5/4
f 119/5/4 120/5/4 127/5/4
f 120/3/4 121/3/4 127/3/4
f 121/4/4 122/4/4 128/4/4
f 127/3/4 121/3/4 128/3/4
f 122/3/4 123/3/4 129/3/4
f 128/4/4 122/4/4 129/4/4
f 124/5/4 125/5/4 130/5/4
f 129/3/4 123/3/4 130/3/4
f 123/5/4 124/5/4 130/5/4
f 127/5/4 128/5/4 131/5/4
f 128/5/4 129/5/4 131/5/4
f 129/5/4 130/5/4 131/5/4
f 118/5/4 127/5/4 131/5/4
f 131/5/4 130/5/4 132/5/4
f 130/5/4 125/5/4 133/5/4
f 132/5/4 130/5/4 133/5/4
f 133/5/4 125/5/4 134/5/4
f 132/5/4 133/5/4 135/5/4
f 135/5/4 133/5/4 136/5/4
f 139/5/5 138/5/5 137/5/5
f 140/5/5 138/5/5 139/5/5
f 145/5/5 142/5/5 141/5/5
f 146/5/5 142/5/5 145/5/5
f 147/5/5 144/5/5 143/5/5
f 148/5/5 144/5/5 147/5/5
f 153/5/5 150/5/5 149/5/5
f 154/5/5 150/5/5 153/5/5
f 155/5/5 152/5/5 151/5/5
f 156/5/5 152/5/5 155/5/5
f 157/5/6 158/5/6 161/5/6
f 161/5/6 158/5/6 162/5/6
f 159/5/6 160/5/6 163/5/6
f 163/5/6 160/5/6 164/5/6
f 165/5/6 166/5/6 169/5/6
f 169/5/6 166/5/6 170/5/6
f 167/5/6 168/5/6 171/5/6
f 171/5/6 168/5/6 172/5/6
f 173/5/6 174/5/6 175/5/6
f 175/5/6 174/5/6 176/5/6
