# MagicaVoxel @ Ephtracy

# group
o 

# material
mtllib pickup_tire_3.mtl
usemtl palette

# normals
vn -1 0 0
vn 1 0 0
vn 0 0 1
vn 0 0 -1
vn 0 -1 0
vn 0 1 0

# texcoords
vt 0.958984 0.5
vt 0.966797 0.5
vt 0.970703 0.5
vt 0.978516 0.5
vt 0.994141 0.5

# verts
v -1.6 0.3 0.6
v -1.6 0.3 0.3
v -1.6 0.6 0.6
v -1.6 0.6 0.3
v -1.5 0.1 0.6
v -1.5 0.1 0.3
v -1.5 0.3 0.6
v -1.5 0.3 0.3
v -1.5 0.6 0.6
v -1.5 0.6 0.3
v -1.5 0.8 0.6
v -1.5 0.8 0.3
v -1.3 0 0.6
v -1.3 0 0.3
v -1.3 0.1 0.6
v -1.3 0.1 0.3
v -1.3 0.8 0.6
v -1.3 0.8 0.3
v -1.3 0.9 0.6
v -1.3 0.9 0.3
v -1 0 0.6
v -1 0 0.3
v -1 0.1 0.6
v -1 0.1 0.3
v -1 0.8 0.6
v -1 0.8 0.3
v -1 0.9 0.6
v -1 0.9 0.3
v -0.8 0.1 0.6
v -0.8 0.1 0.3
v -0.8 0.3 0.6
v -0.8 0.3 0.3
v -0.8 0.6 0.6
v -0.8 0.6 0.3
v -0.8 0.8 0.6
v -0.8 0.8 0.3
v -0.7 0.3 0.6
v -0.7 0.3 0.3
v -0.7 0.6 0.6
v -0.7 0.6 0.3
v -1.6 0.3 0.6
v -1.6 0.6 0.6
v -1.5 0.1 0.6
v -1.5 0.3 0.6
v -1.5 0.6 0.6
v -1.5 0.8 0.6
v -1.4 0.3 0.6
v -1.4 0.6 0.6
v -1.3 0 0.6
v -1.3 0.1 0.6
v -1.3 0.2 0.6
v -1.3 0.3 0.6
v -1.3 0.6 0.6
v -1.3 0.7 0.6
v -1.3 0.8 0.6
v -1.3 0.9 0.6
v -1 0 0.6
v -1 0.1 0.6
v -1 0.2 0.6
v -1 0.3 0.6
v -1 0.6 0.6
v -1 0.7 0.6
v -1 0.8 0.6
v -1 0.9 0.6
v -0.9 0.3 0.6
v -0.9 0.6 0.6
v -0.8 0.1 0.6
v -0.8 0.3 0.6
v -0.8 0.6 0.6
v -0.8 0.8 0.6
v -0.7 0.3 0.6
v -0.7 0.6 0.6
v -1.6 0.3 0.3
v -1.6 0.6 0.3
v -1.5 0.1 0.3
v -1.5 0.3 0.3
v -1.5 0.6 0.3
v -1.5 0.8 0.3
v -1.4 0.3 0.3
v -1.4 0.6 0.3
v -1.3 0 0.3
v -1.3 0.1 0.3
v -1.3 0.2 0.3
v -1.3 0.3 0.3
v -1.3 0.6 0.3
v -1.3 0.7 0.3
v -1.3 0.8 0.3
v -1.3 0.9 0.3
v -1 0 0.3
v -1 0.1 0.3
v -1 0.2 0.3
v -1 0.3 0.3
v -1 0.6 0.3
v -1 0.7 0.3
v -1 0.8 0.3
v -1 0.9 0.3
v -0.9 0.3 0.3
v -0.9 0.6 0.3
v -0.8 0.1 0.3
v -0.8 0.3 0.3
v -0.8 0.6 0.3
v -0.8 0.8 0.3
v -0.7 0.3 0.3
v -0.7 0.6 0.3
v -1.3 0 0.6
v -1 0 0.6
v -1.3 0 0.3
v -1 0 0.3
v -1.5 0.1 0.6
v -1.3 0.1 0.6
v -1 0.1 0.6
v -0.8 0.1 0.6
v -1.5 0.1 0.3
v -1.3 0.1 0.3
v -1 0.1 0.3
v -0.8 0.1 0.3
v -1.6 0.3 0.6
v -1.5 0.3 0.6
v -0.8 0.3 0.6
v -0.7 0.3 0.6
v -1.6 0.3 0.3
v -1.5 0.3 0.3
v -0.8 0.3 0.3
v -0.7 0.3 0.3
v -1.6 0.6 0.6
v -1.5 0.6 0.6
v -0.8 0.6 0.6
v -0.7 0.6 0.6
v -1.6 0.6 0.3
v -1.5 0.6 0.3
v -0.8 0.6 0.3
v -0.7 0.6 0.3
v -1.5 0.8 0.6
v -1.3 0.8 0.6
v -1 0.8 0.6
v -0.8 0.8 0.6
v -1.5 0.8 0.3
v -1.3 0.8 0.3
v -1 0.8 0.3
v -0.8 0.8 0.3
v -1.3 0.9 0.6
v -1 0.9 0.6
v -1.3 0.9 0.3
v -1 0.9 0.3

# faces
f 3/5/1 2/5/1 1/5/1
f 4/5/1 2/5/1 3/5/1
f 7/5/1 6/5/1 5/5/1
f 8/5/1 6/5/1 7/5/1
f 11/5/1 10/5/1 9/5/1
f 12/5/1 10/5/1 11/5/1
f 15/5/1 14/5/1 13/5/1
f 16/5/1 14/5/1 15/5/1
f 19/5/1 18/5/1 17/5/1
f 20/5/1 18/5/1 19/5/1
f 21/5/2 22/5/2 23/5/2
f 23/5/2 22/5/2 24/5/2
f 25/5/2 26/5/2 27/5/2
f 27/5/2 26/5/2 28/5/2
f 29/5/2 30/5/2 31/5/2
f 31/5/2 30/5/2 32/5/2
f 33/5/2 34/5/2 35/5/2
f 35/5/2 34/5/2 36/5/2
f 37/5/2 38/5/2 39/5/2
f 39/5/2 38/5/2 40/5/2
f 44/5/3 42/5/3 41/5/3
f 45/5/3 42/5/3 44/5/3
f 47/5/3 44/5/3 43/5/3
f 47/5/3 46/5/3 45/5/3
f 47/5/3 45/5/3 44/5/3
f 48/5/3 46/5/3 47/5/3
f 50/5/3 47/5/3 43/5/3
f 51/5/3 47/5/3 50/5/3
f 52/3/3 48/3/3 47/3/3
f 52/5/3 47/5/3 51/5/3
f 53/5/3 46/5/3 48/5/3
f 53/3/3 48/3/3 52/3/3
f 54/5/3 46/5/3 53/5/3
f 55/5/3 46/5/3 54/5/3
f 57/5/3 51/5/3 50/5/3
f 57/5/3 50/5/3 49/5/3
f 58/5/3 51/5/3 57/5/3
f 59/3/3 52/3/3 51/3/3
f 59/5/3 51/5/3 58/5/3
f 59/3/3 53/3/3 52/3/3
f 59/3/3 54/3/3 53/3/3
f 60/3/3 54/3/3 59/3/3
f 61/3/3 54/3/3 60/3/3
f 62/5/3 56/5/3 55/5/3
f 62/3/3 54/3/3 61/3/3
f 62/5/3 55/5/3 54/5/3
f 63/5/3 56/5/3 62/5/3
f 64/5/3 56/5/3 63/5/3
f 65/3/3 61/3/3 60/3/3
f 65/5/3 60/5/3 59/5/3
f 65/5/3 59/5/3 58/5/3
f 66/5/3 63/5/3 62/5/3
f 66/3/3 61/3/3 65/3/3
f 66/5/3 62/5/3 61/5/3
f 67/5/3 65/5/3 58/5/3
f 67/5/3 66/5/3 65/5/3
f 68/5/3 66/5/3 67/5/3
f 69/5/3 63/5/3 66/5/3
f 69/5/3 66/5/3 68/5/3
f 70/5/3 63/5/3 69/5/3
f 71/5/3 69/5/3 68/5/3
f 72/5/3 69/5/3 71/5/3
f 73/5/4 74/5/4 76/5/4
f 76/5/4 74/5/4 77/5/4
f 75/5/4 76/5/4 79/5/4
f 77/5/4 78/5/4 79/5/4
f 76/5/4 77/5/4 79/5/4
f 79/5/4 78/5/4 80/5/4
f 75/5/4 79/5/4 82/5/4
f 82/5/4 79/5/4 83/5/4
f 79/3/4 80/3/4 84/3/4
f 83/5/4 79/5/4 84/5/4
f 80/5/4 78/5/4 85/5/4
f 84/3/4 80/3/4 85/3/4
f 85/5/4 78/5/4 86/5/4
f 86/5/4 78/5/4 87/5/4
f 82/5/4 83/5/4 89/5/4
f 81/5/4 82/5/4 89/5/4
f 89/5/4 83/5/4 90/5/4
f 83/3/4 84/3/4 91/3/4
f 90/5/4 83/5/4 91/5/4
f 84/3/4 85/3/4 91/3/4
f 85/3/4 86/3/4 91/3/4
f 91/3/4 86/3/4 92/3/4
f 92/3/4 86/3/4 93/3/4
f 87/5/4 88/5/4 94/5/4
f 93/3/4 86/3/4 94/3/4
f 86/5/4 87/5/4 94/5/4
f 94/5/4 88/5/4 95/5/4
f 95/5/4 88/5/4 96/5/4
f 92/3/4 93/3/4 97/3/4
f 91/5/4 92/5/4 97/5/4
f 90/5/4 91/5/4 97/5/4
f 94/5/4 95/5/4 98/5/4
f 97/3/4 93/3/4 98/3/4
f 93/5/4 94/5/4 98/5/4
f 90/5/4 97/5/4 99/5/4
f 97/5/4 98/5/4 99/5/4
f 99/5/4 98/5/4 100/5/4
f 98/5/4 95/5/4 101/5/4
f 100/5/4 98/5/4 101/5/4
f 101/5/4 95/5/4 102/5/4
f 100/5/4 101/5/4 103/5/4
f 103/5/4 101/5/4 104/5/4
f 107/5/5 106/5/5 105/5/5
f 108/5/5 106/5/5 107/5/5
f 113/5/5 110/5/5 109/5/5
f 114/5/5 110/5/5 113/5/5
f 115/5/5 112/5/5 111/5/5
f 116/5/5 112/5/5 115/5/5
f 121/5/5 118/5/5 117/5/5
f 122/5/5 118/5/5 121/5/5
f 123/5/5 120/5/5 119/5/5
f 124/5/5 120/5/5 123/5/5
f 125/5/6 126/5/6 129/5/6
f 129/5/6 126/5/6 130/5/6
f 127/5/6 128/5/6 131/5/6
f 131/5/6 128/5/6 132/5/6
f 133/5/6 134/5/6 137/5/6
f 137/5/6 134/5/6 138/5/6
f 135/5/6 136/5/6 139/5/6
f 139/5/6 136/5/6 140/5/6
f 141/5/6 142/5/6 143/5/6
f 143/5/6 142/5/6 144/5/6
