# Blender 4.3.2
# www.blender.org
mtllib pickup_tire_2.mtl
o Untitled.050
v -0.449999 0.300000 0.150000
v -0.449999 0.300000 -0.150000
v -0.449999 0.600000 0.150000
v -0.449999 0.600000 -0.150000
v -0.349999 0.100000 0.150000
v -0.349999 0.100000 -0.150000
v -0.349999 0.300000 0.150000
v -0.349999 0.300000 -0.150000
v -0.349999 0.600000 0.150000
v -0.349999 0.600000 -0.150000
v -0.349999 0.800000 0.150000
v -0.349999 0.800000 -0.150000
v -0.149999 0.000000 0.150000
v -0.149999 -0.000000 -0.150000
v -0.149999 0.100000 0.150000
v -0.149999 0.100000 -0.150000
v -0.149999 0.800000 0.150000
v -0.149999 0.800000 -0.150000
v -0.149999 0.900000 0.150000
v -0.149999 0.900000 -0.150000
v 0.150001 0.000000 0.150000
v 0.150001 -0.000000 -0.150000
v 0.150001 0.100000 0.150000
v 0.150001 0.100000 -0.150000
v 0.150001 0.800000 0.150000
v 0.150001 0.800000 -0.150000
v 0.150001 0.900000 0.150000
v 0.150001 0.900000 -0.150000
v 0.350001 0.100000 0.150000
v 0.350001 0.100000 -0.150000
v 0.350001 0.300000 0.150000
v 0.350001 0.300000 -0.150000
v 0.350001 0.600000 0.150000
v 0.350001 0.600000 -0.150000
v 0.350001 0.800000 0.150000
v 0.350001 0.800000 -0.150000
v 0.450001 0.300000 0.150000
v 0.450001 0.300000 -0.150000
v 0.450001 0.600000 0.150000
v 0.450001 0.600000 -0.150000
v -0.449999 0.300000 0.150000
v -0.449999 0.600000 0.150000
v -0.349999 0.100000 0.150000
v -0.349999 0.300000 0.150000
v -0.349999 0.600000 0.150000
v -0.349999 0.800000 0.150000
v -0.249999 0.300000 0.150000
v -0.249999 0.600000 0.150000
v -0.149999 0.000000 0.150000
v -0.149999 0.100000 0.150000
v -0.149999 0.200000 0.150000
v -0.149999 0.300000 0.150000
v -0.149999 0.400000 0.150000
v -0.149999 0.500000 0.150000
v -0.149999 0.600000 0.150000
v -0.149999 0.700000 0.150000
v -0.149999 0.800000 0.150000
v -0.149999 0.900000 0.150000
v -0.049999 0.300000 0.150000
v -0.049999 0.400000 0.150000
v -0.049999 0.500000 0.150000
v -0.049999 0.600000 0.150000
v 0.050001 0.300000 0.150000
v 0.050001 0.400000 0.150000
v 0.050001 0.500000 0.150000
v 0.050001 0.600000 0.150000
v 0.150001 0.000000 0.150000
v 0.150001 0.100000 0.150000
v 0.150001 0.200000 0.150000
v 0.150001 0.300000 0.150000
v 0.150001 0.400000 0.150000
v 0.150001 0.500000 0.150000
v 0.150001 0.600000 0.150000
v 0.150001 0.700000 0.150000
v 0.150001 0.800000 0.150000
v 0.150001 0.900000 0.150000
v 0.250001 0.300000 0.150000
v 0.250001 0.600000 0.150000
v 0.350001 0.100000 0.150000
v 0.350001 0.300000 0.150000
v 0.350001 0.600000 0.150000
v 0.350001 0.800000 0.150000
v 0.450001 0.300000 0.150000
v 0.450001 0.600000 0.150000
v -0.449999 0.300000 -0.150000
v -0.449999 0.600000 -0.150000
v -0.349999 0.100000 -0.150000
v -0.349999 0.300000 -0.150000
v -0.349999 0.600000 -0.150000
v -0.349999 0.800000 -0.150000
v -0.249999 0.300000 -0.150000
v -0.249999 0.600000 -0.150000
v -0.149999 -0.000000 -0.150000
v -0.149999 0.100000 -0.150000
v -0.149999 0.200000 -0.150000
v -0.149999 0.300000 -0.150000
v -0.149999 0.400000 -0.150000
v -0.149999 0.500000 -0.150000
v -0.149999 0.600000 -0.150000
v -0.149999 0.700000 -0.150000
v -0.149999 0.800000 -0.150000
v -0.149999 0.900000 -0.150000
v -0.049999 0.300000 -0.150000
v -0.049999 0.400000 -0.150000
v -0.049999 0.500000 -0.150000
v -0.049999 0.600000 -0.150000
v 0.050001 0.300000 -0.150000
v 0.050001 0.400000 -0.150000
v 0.050001 0.500000 -0.150000
v 0.050001 0.600000 -0.150000
v 0.150001 -0.000000 -0.150000
v 0.150001 0.100000 -0.150000
v 0.150001 0.200000 -0.150000
v 0.150001 0.300000 -0.150000
v 0.150001 0.400000 -0.150000
v 0.150001 0.500000 -0.150000
v 0.150001 0.600000 -0.150000
v 0.150001 0.700000 -0.150000
v 0.150001 0.800000 -0.150000
v 0.150001 0.900000 -0.150000
v 0.250001 0.300000 -0.150000
v 0.250001 0.600000 -0.150000
v 0.350001 0.100000 -0.150000
v 0.350001 0.300000 -0.150000
v 0.350001 0.600000 -0.150000
v 0.350001 0.800000 -0.150000
v 0.450001 0.300000 -0.150000
v 0.450001 0.600000 -0.150000
v -0.149999 0.000000 0.150000
v 0.150001 0.000000 0.150000
v -0.149999 -0.000000 -0.150000
v 0.150001 -0.000000 -0.150000
v -0.349999 0.100000 0.150000
v -0.149999 0.100000 0.150000
v 0.150001 0.100000 0.150000
v 0.350001 0.100000 0.150000
v -0.349999 0.100000 -0.150000
v -0.149999 0.100000 -0.150000
v 0.150001 0.100000 -0.150000
v 0.350001 0.100000 -0.150000
v -0.449999 0.300000 0.150000
v -0.349999 0.300000 0.150000
v 0.350001 0.300000 0.150000
v 0.450001 0.300000 0.150000
v -0.449999 0.300000 -0.150000
v -0.349999 0.300000 -0.150000
v 0.350001 0.300000 -0.150000
v 0.450001 0.300000 -0.150000
v -0.449999 0.600000 0.150000
v -0.349999 0.600000 0.150000
v 0.350001 0.600000 0.150000
v 0.450001 0.600000 0.150000
v -0.449999 0.600000 -0.150000
v -0.349999 0.600000 -0.150000
v 0.350001 0.600000 -0.150000
v 0.450001 0.600000 -0.150000
v -0.349999 0.800000 0.150000
v -0.149999 0.800000 0.150000
v 0.150001 0.800000 0.150000
v 0.350001 0.800000 0.150000
v -0.349999 0.800000 -0.150000
v -0.149999 0.800000 -0.150000
v 0.150001 0.800000 -0.150000
v 0.350001 0.800000 -0.150000
v -0.149999 0.900000 0.150000
v 0.150001 0.900000 0.150000
v -0.149999 0.900000 -0.150000
v 0.150001 0.900000 -0.150000
vn -1.0000 -0.0000 -0.0000
vn 1.0000 -0.0000 -0.0000
vn -0.0000 -0.0000 1.0000
vn -0.0000 -0.0000 -1.0000
vn -0.0000 -1.0000 -0.0000
vn -0.0000 1.0000 -0.0000
vt 0.994141 0.500000
vt 0.978516 0.500000
vt 0.966797 0.500000
vt 0.958984 0.500000
s 1
usemtl palette.049
f 3/1/1 2/1/1 1/1/1
f 4/1/1 2/1/1 3/1/1
f 7/1/1 6/1/1 5/1/1
f 8/1/1 6/1/1 7/1/1
f 11/1/1 10/1/1 9/1/1
f 12/1/1 10/1/1 11/1/1
f 15/1/1 14/1/1 13/1/1
f 16/1/1 14/1/1 15/1/1
f 19/1/1 18/1/1 17/1/1
f 20/1/1 18/1/1 19/1/1
f 21/1/2 22/1/2 23/1/2
f 23/1/2 22/1/2 24/1/2
f 25/1/2 26/1/2 27/1/2
f 27/1/2 26/1/2 28/1/2
f 29/1/2 30/1/2 31/1/2
f 31/1/2 30/1/2 32/1/2
f 33/1/2 34/1/2 35/1/2
f 35/1/2 34/1/2 36/1/2
f 37/1/2 38/1/2 39/1/2
f 39/1/2 38/1/2 40/1/2
f 44/1/3 42/1/3 41/1/3
f 45/1/3 42/1/3 44/1/3
f 47/1/3 44/1/3 43/1/3
f 47/1/3 46/1/3 45/1/3
f 47/1/3 45/1/3 44/1/3
f 48/1/3 46/1/3 47/1/3
f 50/1/3 47/1/3 43/1/3
f 51/1/3 47/1/3 50/1/3
f 52/2/3 48/2/3 47/2/3
f 52/1/3 47/1/3 51/1/3
f 53/2/3 48/2/3 52/2/3
f 54/2/3 48/2/3 53/2/3
f 55/1/3 46/1/3 48/1/3
f 55/2/3 48/2/3 54/2/3
f 56/1/3 46/1/3 55/1/3
f 57/1/3 46/1/3 56/1/3
f 59/2/3 52/2/3 51/2/3
f 59/3/3 53/3/3 52/3/3
f 60/4/3 54/4/3 53/4/3
f 60/3/3 53/3/3 59/3/3
f 61/3/3 55/3/3 54/3/3
f 61/4/3 54/4/3 60/4/3
f 62/2/3 56/2/3 55/2/3
f 62/3/3 55/3/3 61/3/3
f 63/2/3 59/2/3 51/2/3
f 63/4/3 60/4/3 59/4/3
f 64/3/3 61/3/3 60/3/3
f 64/4/3 60/4/3 63/4/3
f 65/4/3 62/4/3 61/4/3
f 65/3/3 61/3/3 64/3/3
f 66/2/3 56/2/3 62/2/3
f 66/4/3 62/4/3 65/4/3
f 67/1/3 51/1/3 50/1/3
f 67/1/3 50/1/3 49/1/3
f 68/1/3 51/1/3 67/1/3
f 69/2/3 63/2/3 51/2/3
f 69/1/3 51/1/3 68/1/3
f 70/3/3 64/3/3 63/3/3
f 70/2/3 63/2/3 69/2/3
f 71/4/3 65/4/3 64/4/3
f 71/3/3 64/3/3 70/3/3
f 72/3/3 66/3/3 65/3/3
f 72/4/3 65/4/3 71/4/3
f 73/2/3 56/2/3 66/2/3
f 73/3/3 66/3/3 72/3/3
f 74/1/3 58/1/3 57/1/3
f 74/2/3 56/2/3 73/2/3
f 74/1/3 57/1/3 56/1/3
f 75/1/3 58/1/3 74/1/3
f 76/1/3 58/1/3 75/1/3
f 77/1/3 70/1/3 69/1/3
f 77/2/3 72/2/3 71/2/3
f 77/2/3 71/2/3 70/2/3
f 77/2/3 73/2/3 72/2/3
f 77/1/3 69/1/3 68/1/3
f 78/1/3 75/1/3 74/1/3
f 78/2/3 73/2/3 77/2/3
f 78/1/3 74/1/3 73/1/3
f 79/1/3 77/1/3 68/1/3
f 79/1/3 78/1/3 77/1/3
f 80/1/3 78/1/3 79/1/3
f 81/1/3 75/1/3 78/1/3
f 81/1/3 78/1/3 80/1/3
f 82/1/3 75/1/3 81/1/3
f 83/1/3 81/1/3 80/1/3
f 84/1/3 81/1/3 83/1/3
f 85/1/4 86/1/4 88/1/4
f 88/1/4 86/1/4 89/1/4
f 87/1/4 88/1/4 91/1/4
f 89/1/4 90/1/4 91/1/4
f 88/1/4 89/1/4 91/1/4
f 91/1/4 90/1/4 92/1/4
f 87/1/4 91/1/4 94/1/4
f 94/1/4 91/1/4 95/1/4
f 91/2/4 92/2/4 96/2/4
f 95/1/4 91/1/4 96/1/4
f 96/2/4 92/2/4 97/2/4
f 97/2/4 92/2/4 98/2/4
f 92/1/4 90/1/4 99/1/4
f 98/2/4 92/2/4 99/2/4
f 99/1/4 90/1/4 100/1/4
f 100/1/4 90/1/4 101/1/4
f 95/2/4 96/2/4 103/2/4
f 96/3/4 97/3/4 103/3/4
f 97/4/4 98/4/4 104/4/4
f 103/3/4 97/3/4 104/3/4
f 98/3/4 99/3/4 105/3/4
f 104/4/4 98/4/4 105/4/4
f 99/2/4 100/2/4 106/2/4
f 105/3/4 99/3/4 106/3/4
f 95/2/4 103/2/4 107/2/4
f 103/4/4 104/4/4 107/4/4
f 104/3/4 105/3/4 108/3/4
f 107/4/4 104/4/4 108/4/4
f 105/4/4 106/4/4 109/4/4
f 108/3/4 105/3/4 109/3/4
f 106/2/4 100/2/4 110/2/4
f 109/4/4 106/4/4 110/4/4
f 94/1/4 95/1/4 111/1/4
f 93/1/4 94/1/4 111/1/4
f 111/1/4 95/1/4 112/1/4
f 95/2/4 107/2/4 113/2/4
f 112/1/4 95/1/4 113/1/4
f 107/3/4 108/3/4 114/3/4
f 113/2/4 107/2/4 114/2/4
f 108/4/4 109/4/4 115/4/4
f 114/3/4 108/3/4 115/3/4
f 109/3/4 110/3/4 116/3/4
f 115/4/4 109/4/4 116/4/4
f 110/2/4 100/2/4 117/2/4
f 116/3/4 110/3/4 117/3/4
f 101/1/4 102/1/4 118/1/4
f 117/2/4 100/2/4 118/2/4
f 100/1/4 101/1/4 118/1/4
f 118/1/4 102/1/4 119/1/4
f 119/1/4 102/1/4 120/1/4
f 113/1/4 114/1/4 121/1/4
f 115/2/4 116/2/4 121/2/4
f 114/2/4 115/2/4 121/2/4
f 116/2/4 117/2/4 121/2/4
f 112/1/4 113/1/4 121/1/4
f 118/1/4 119/1/4 122/1/4
f 121/2/4 117/2/4 122/2/4
f 117/1/4 118/1/4 122/1/4
f 112/1/4 121/1/4 123/1/4
f 121/1/4 122/1/4 123/1/4
f 123/1/4 122/1/4 124/1/4
f 122/1/4 119/1/4 125/1/4
f 124/1/4 122/1/4 125/1/4
f 125/1/4 119/1/4 126/1/4
f 124/1/4 125/1/4 127/1/4
f 127/1/4 125/1/4 128/1/4
f 131/1/5 130/1/5 129/1/5
f 132/1/5 130/1/5 131/1/5
f 137/1/5 134/1/5 133/1/5
f 138/1/5 134/1/5 137/1/5
f 139/1/5 136/1/5 135/1/5
f 140/1/5 136/1/5 139/1/5
f 145/1/5 142/1/5 141/1/5
f 146/1/5 142/1/5 145/1/5
f 147/1/5 144/1/5 143/1/5
f 148/1/5 144/1/5 147/1/5
f 149/1/6 150/1/6 153/1/6
f 153/1/6 150/1/6 154/1/6
f 151/1/6 152/1/6 155/1/6
f 155/1/6 152/1/6 156/1/6
f 157/1/6 158/1/6 161/1/6
f 161/1/6 158/1/6 162/1/6
f 159/1/6 160/1/6 163/1/6
f 163/1/6 160/1/6 164/1/6
f 165/1/6 166/1/6 167/1/6
f 167/1/6 166/1/6 168/1/6
o Untitled.052
v -0.449999 -0.150000 0.150000
v -0.449999 -0.150000 -0.150000
v -0.449999 0.150000 0.150000
v -0.449999 0.150000 -0.150000
v -0.349999 -0.350000 0.150000
v -0.349999 -0.350000 -0.150000
v -0.349999 -0.150000 0.150000
v -0.349999 -0.150000 -0.150000
v -0.349999 0.150000 0.150000
v -0.349999 0.150000 -0.150000
v -0.349999 0.350000 0.150000
v -0.349999 0.350000 -0.150000
v -0.149999 -0.450000 0.150000
v -0.149999 -0.450000 -0.150000
v -0.149999 -0.350000 0.150000
v -0.149999 -0.350000 -0.150000
v -0.149999 0.350000 0.150000
v -0.149999 0.350000 -0.150000
v -0.149999 0.450000 0.150000
v -0.149999 0.450000 -0.150000
v 0.150001 -0.450000 0.150000
v 0.150001 -0.450000 -0.150000
v 0.150001 -0.350000 0.150000
v 0.150001 -0.350000 -0.150000
v 0.150001 0.350000 0.150000
v 0.150001 0.350000 -0.150000
v 0.150001 0.450000 0.150000
v 0.150001 0.450000 -0.150000
v 0.350001 -0.350000 0.150000
v 0.350001 -0.350000 -0.150000
v 0.350001 -0.150000 0.150000
v 0.350001 -0.150000 -0.150000
v 0.350001 0.150000 0.150000
v 0.350001 0.150000 -0.150000
v 0.350001 0.350000 0.150000
v 0.350001 0.350000 -0.150000
v 0.450001 -0.150000 0.150000
v 0.450001 -0.150000 -0.150000
v 0.450001 0.150000 0.150000
v 0.450001 0.150000 -0.150000
v -0.449999 -0.150000 0.150000
v -0.449999 0.150000 0.150000
v -0.349999 -0.350000 0.150000
v -0.349999 -0.150000 0.150000
v -0.349999 0.150000 0.150000
v -0.349999 0.350000 0.150000
v -0.249999 -0.150000 0.150000
v -0.249999 0.150000 0.150000
v -0.149999 -0.450000 0.150000
v -0.149999 -0.350000 0.150000
v -0.149999 -0.250000 0.150000
v -0.149999 -0.150000 0.150000
v -0.149999 0.150000 0.150000
v -0.149999 0.250000 0.150000
v -0.149999 0.350000 0.150000
v -0.149999 0.450000 0.150000
v 0.150001 -0.450000 0.150000
v 0.150001 -0.350000 0.150000
v 0.150001 -0.250000 0.150000
v 0.150001 -0.150000 0.150000
v 0.150001 0.150000 0.150000
v 0.150001 0.250000 0.150000
v 0.150001 0.350000 0.150000
v 0.150001 0.450000 0.150000
v 0.250001 -0.150000 0.150000
v 0.250001 0.150000 0.150000
v 0.350001 -0.350000 0.150000
v 0.350001 -0.150000 0.150000
v 0.350001 0.150000 0.150000
v 0.350001 0.350000 0.150000
v 0.450001 -0.150000 0.150000
v 0.450001 0.150000 0.150000
v -0.449999 -0.150000 -0.150000
v -0.449999 0.150000 -0.150000
v -0.349999 -0.350000 -0.150000
v -0.349999 -0.150000 -0.150000
v -0.349999 0.150000 -0.150000
v -0.349999 0.350000 -0.150000
v -0.249999 -0.150000 -0.150000
v -0.249999 0.150000 -0.150000
v -0.149999 -0.450000 -0.150000
v -0.149999 -0.350000 -0.150000
v -0.149999 -0.250000 -0.150000
v -0.149999 -0.150000 -0.150000
v -0.149999 0.150000 -0.150000
v -0.149999 0.250000 -0.150000
v -0.149999 0.350000 -0.150000
v -0.149999 0.450000 -0.150000
v 0.150001 -0.450000 -0.150000
v 0.150001 -0.350000 -0.150000
v 0.150001 -0.250000 -0.150000
v 0.150001 -0.150000 -0.150000
v 0.150001 0.150000 -0.150000
v 0.150001 0.250000 -0.150000
v 0.150001 0.350000 -0.150000
v 0.150001 0.450000 -0.150000
v 0.250001 -0.150000 -0.150000
v 0.250001 0.150000 -0.150000
v 0.350001 -0.350000 -0.150000
v 0.350001 -0.150000 -0.150000
v 0.350001 0.150000 -0.150000
v 0.350001 0.350000 -0.150000
v 0.450001 -0.150000 -0.150000
v 0.450001 0.150000 -0.150000
v -0.149999 -0.450000 0.150000
v 0.150001 -0.450000 0.150000
v -0.149999 -0.450000 -0.150000
v 0.150001 -0.450000 -0.150000
v -0.349999 -0.350000 0.150000
v -0.149999 -0.350000 0.150000
v 0.150001 -0.350000 0.150000
v 0.350001 -0.350000 0.150000
v -0.349999 -0.350000 -0.150000
v -0.149999 -0.350000 -0.150000
v 0.150001 -0.350000 -0.150000
v 0.350001 -0.350000 -0.150000
v -0.449999 -0.150000 0.150000
v -0.349999 -0.150000 0.150000
v 0.350001 -0.150000 0.150000
v 0.450001 -0.150000 0.150000
v -0.449999 -0.150000 -0.150000
v -0.349999 -0.150000 -0.150000
v 0.350001 -0.150000 -0.150000
v 0.450001 -0.150000 -0.150000
v -0.449999 0.150000 0.150000
v -0.349999 0.150000 0.150000
v 0.350001 0.150000 0.150000
v 0.450001 0.150000 0.150000
v -0.449999 0.150000 -0.150000
v -0.349999 0.150000 -0.150000
v 0.350001 0.150000 -0.150000
v 0.450001 0.150000 -0.150000
v -0.349999 0.350000 0.150000
v -0.149999 0.350000 0.150000
v 0.150001 0.350000 0.150000
v 0.350001 0.350000 0.150000
v -0.349999 0.350000 -0.150000
v -0.149999 0.350000 -0.150000
v 0.150001 0.350000 -0.150000
v 0.350001 0.350000 -0.150000
v -0.149999 0.450000 0.150000
v 0.150001 0.450000 0.150000
v -0.149999 0.450000 -0.150000
v 0.150001 0.450000 -0.150000
vn -1.0000 -0.0000 -0.0000
vn 1.0000 -0.0000 -0.0000
vn -0.0000 -0.0000 1.0000
vn -0.0000 -0.0000 -1.0000
vn -0.0000 -1.0000 -0.0000
vn -0.0000 1.0000 -0.0000
vt 0.994141 0.500000
vt 0.970703 0.500000
s 1
usemtl palette.051
f 171/5/7 170/5/7 169/5/7
f 172/5/7 170/5/7 171/5/7
f 175/5/7 174/5/7 173/5/7
f 176/5/7 174/5/7 175/5/7
f 179/5/7 178/5/7 177/5/7
f 180/5/7 178/5/7 179/5/7
f 183/5/7 182/5/7 181/5/7
f 184/5/7 182/5/7 183/5/7
f 187/5/7 186/5/7 185/5/7
f 188/5/7 186/5/7 187/5/7
f 189/5/8 190/5/8 191/5/8
f 191/5/8 190/5/8 192/5/8
f 193/5/8 194/5/8 195/5/8
f 195/5/8 194/5/8 196/5/8
f 197/5/8 198/5/8 199/5/8
f 199/5/8 198/5/8 200/5/8
f 201/5/8 202/5/8 203/5/8
f 203/5/8 202/5/8 204/5/8
f 205/5/8 206/5/8 207/5/8
f 207/5/8 206/5/8 208/5/8
f 212/5/9 210/5/9 209/5/9
f 213/5/9 210/5/9 212/5/9
f 215/5/9 212/5/9 211/5/9
f 215/5/9 214/5/9 213/5/9
f 215/5/9 213/5/9 212/5/9
f 216/5/9 214/5/9 215/5/9
f 218/5/9 215/5/9 211/5/9
f 219/5/9 215/5/9 218/5/9
f 220/6/9 216/6/9 215/6/9
f 220/5/9 215/5/9 219/5/9
f 221/5/9 214/5/9 216/5/9
f 221/6/9 216/6/9 220/6/9
f 222/5/9 214/5/9 221/5/9
f 223/5/9 214/5/9 222/5/9
f 225/5/9 219/5/9 218/5/9
f 225/5/9 218/5/9 217/5/9
f 226/5/9 219/5/9 225/5/9
f 227/6/9 220/6/9 219/6/9
f 227/5/9 219/5/9 226/5/9
f 227/6/9 221/6/9 220/6/9
f 227/6/9 222/6/9 221/6/9
f 228/6/9 222/6/9 227/6/9
f 229/6/9 222/6/9 228/6/9
f 230/5/9 224/5/9 223/5/9
f 230/6/9 222/6/9 229/6/9
f 230/5/9 223/5/9 222/5/9
f 231/5/9 224/5/9 230/5/9
f 232/5/9 224/5/9 231/5/9
f 233/6/9 229/6/9 228/6/9
f 233/5/9 228/5/9 227/5/9
f 233/5/9 227/5/9 226/5/9
f 234/5/9 231/5/9 230/5/9
f 234/6/9 229/6/9 233/6/9
f 234/5/9 230/5/9 229/5/9
f 235/5/9 233/5/9 226/5/9
f 235/5/9 234/5/9 233/5/9
f 236/5/9 234/5/9 235/5/9
f 237/5/9 231/5/9 234/5/9
f 237/5/9 234/5/9 236/5/9
f 238/5/9 231/5/9 237/5/9
f 239/5/9 237/5/9 236/5/9
f 240/5/9 237/5/9 239/5/9
f 241/5/10 242/5/10 244/5/10
f 244/5/10 242/5/10 245/5/10
f 243/5/10 244/5/10 247/5/10
f 245/5/10 246/5/10 247/5/10
f 244/5/10 245/5/10 247/5/10
f 247/5/10 246/5/10 248/5/10
f 243/5/10 247/5/10 250/5/10
f 250/5/10 247/5/10 251/5/10
f 247/6/10 248/6/10 252/6/10
f 251/5/10 247/5/10 252/5/10
f 248/5/10 246/5/10 253/5/10
f 252/6/10 248/6/10 253/6/10
f 253/5/10 246/5/10 254/5/10
f 254/5/10 246/5/10 255/5/10
f 250/5/10 251/5/10 257/5/10
f 249/5/10 250/5/10 257/5/10
f 257/5/10 251/5/10 258/5/10
f 251/6/10 252/6/10 259/6/10
f 258/5/10 251/5/10 259/5/10
f 252/6/10 253/6/10 259/6/10
f 253/6/10 254/6/10 259/6/10
f 259/6/10 254/6/10 260/6/10
f 260/6/10 254/6/10 261/6/10
f 255/5/10 256/5/10 262/5/10
f 261/6/10 254/6/10 262/6/10
f 254/5/10 255/5/10 262/5/10
f 262/5/10 256/5/10 263/5/10
f 263/5/10 256/5/10 264/5/10
f 260/6/10 261/6/10 265/6/10
f 259/5/10 260/5/10 265/5/10
f 258/5/10 259/5/10 265/5/10
f 262/5/10 263/5/10 266/5/10
f 265/6/10 261/6/10 266/6/10
f 261/5/10 262/5/10 266/5/10
f 258/5/10 265/5/10 267/5/10
f 265/5/10 266/5/10 267/5/10
f 267/5/10 266/5/10 268/5/10
f 266/5/10 263/5/10 269/5/10
f 268/5/10 266/5/10 269/5/10
f 269/5/10 263/5/10 270/5/10
f 268/5/10 269/5/10 271/5/10
f 271/5/10 269/5/10 272/5/10
f 275/5/11 274/5/11 273/5/11
f 276/5/11 274/5/11 275/5/11
f 281/5/11 278/5/11 277/5/11
f 282/5/11 278/5/11 281/5/11
f 283/5/11 280/5/11 279/5/11
f 284/5/11 280/5/11 283/5/11
f 289/5/11 286/5/11 285/5/11
f 290/5/11 286/5/11 289/5/11
f 291/5/11 288/5/11 287/5/11
f 292/5/11 288/5/11 291/5/11
f 293/5/12 294/5/12 297/5/12
f 297/5/12 294/5/12 298/5/12
f 295/5/12 296/5/12 299/5/12
f 299/5/12 296/5/12 300/5/12
f 301/5/12 302/5/12 305/5/12
f 305/5/12 302/5/12 306/5/12
f 303/5/12 304/5/12 307/5/12
f 307/5/12 304/5/12 308/5/12
f 309/5/12 310/5/12 311/5/12
f 311/5/12 310/5/12 312/5/12
