# MagicaVoxel @ Ephtracy

# group
o 

# material
mtllib plamaWody.mtl
usemtl palette

# normals
vn -1 0 0
vn 1 0 0
vn 0 0 1
vn 0 0 -1
vn 0 -1 0
vn 0 1 0

# texcoords
vt 0.611328 0.5
vt 0.634766 0.5
vt 0.638672 0.5
vt 0.658203 0.5
vt 0.662109 0.5
vt 0.779297 0.5

# verts
v -0.6 0 0.1
v -0.6 0 0
v -0.6 0 -0.1
v -0.6 0.1 0.1
v -0.6 0.1 0
v -0.6 0.1 -0.1
v -0.5 0 0.2
v -0.5 0 0.1
v -0.5 0 -0.1
v -0.5 0 -0.2
v -0.5 0.1 0.2
v -0.5 0.1 0.1
v -0.5 0.1 -0.1
v -0.5 0.1 -0.2
v -0.4 0 0.3
v -0.4 0 0.2
v -0.4 0.1 0.3
v -0.4 0.1 0.2
v -0.3 0 0.4
v -0.3 0 0.3
v -0.3 0 -0.2
v -0.3 0 -0.3
v -0.3 0.1 0.4
v -0.3 0.1 0.3
v -0.3 0.1 -0.2
v -0.3 0.1 -0.3
v -0.1 0 0.5
v -0.1 0 0.4
v -0.1 0 -0.3
v -0.1 0 -0.4
v -0.1 0 -0.5
v -0.1 0.1 0.5
v -0.1 0.1 0.4
v -0.1 0.1 -0.3
v -0.1 0.1 -0.4
v -0.1 0.1 -0.5
v -5.96046e-08 0 -0.5
v -5.96046e-08 0 -0.6
v -5.96046e-08 0.1 -0.5
v -5.96046e-08 0.1 -0.6
v 0.1 0 0.5
v 0.1 0 0.4
v 0.1 0.1 0.5
v 0.1 0.1 0.4
v 0.2 0 -0.5
v 0.2 0 -0.6
v 0.2 0.1 -0.5
v 0.2 0.1 -0.6
v 0.3 0 0.4
v 0.3 0 0.3
v 0.3 0 -0.4
v 0.3 0 -0.5
v 0.3 0.1 0.4
v 0.3 0.1 0.3
v 0.3 0.1 -0.4
v 0.3 0.1 -0.5
v 0.4 0 0.3
v 0.4 0 0.2
v 0.4 0 -0.2
v 0.4 0 -0.3
v 0.4 0 -0.4
v 0.4 0.1 0.3
v 0.4 0.1 0.2
v 0.4 0.1 -0.2
v 0.4 0.1 -0.3
v 0.4 0.1 -0.4
v 0.5 0 0.2
v 0.5 0 0.1
v 0.5 0 0
v 0.5 0 -0.1
v 0.5 0 -0.2
v 0.5 0.1 0.2
v 0.5 0.1 0.1
v 0.5 0.1 0
v 0.5 0.1 -0.1
v 0.5 0.1 -0.2
v 0.6 0 0.1
v 0.6 0 0
v 0.6 0.1 0.1
v 0.6 0.1 0
v -0.1 0 0.5
v -0.1 0.1 0.5
v -5.96046e-08 0 0.5
v -5.96046e-08 0.1 0.5
v 0.1 0 0.5
v 0.1 0.1 0.5
v -0.3 0 0.4
v -0.3 0.1 0.4
v -0.2 0 0.4
v -0.2 0.1 0.4
v -0.1 0 0.4
v -0.1 0.1 0.4
v 0.1 0 0.4
v 0.1 0.1 0.4
v 0.2 0 0.4
v 0.2 0.1 0.4
v 0.3 0 0.4
v 0.3 0.1 0.4
v -0.4 0 0.3
v -0.4 0.1 0.3
v -0.3 0 0.3
v -0.3 0.1 0.3
v 0.3 0 0.3
v 0.3 0.1 0.3
v 0.4 0 0.3
v 0.4 0.1 0.3
v -0.5 0 0.2
v -0.5 0.1 0.2
v -0.4 0 0.2
v -0.4 0.1 0.2
v 0.4 0 0.2
v 0.4 0.1 0.2
v 0.5 0 0.2
v 0.5 0.1 0.2
v -0.6 0 0.1
v -0.6 0.1 0.1
v -0.5 0 0.1
v -0.5 0.1 0.1
v 0.5 0 0.1
v 0.5 0.1 0.1
v 0.6 0 0.1
v 0.6 0.1 0.1
v 0.5 0 0
v 0.5 0.1 0
v 0.6 0 0
v 0.6 0.1 0
v -0.6 0 -0.1
v -0.6 0.1 -0.1
v -0.5 0 -0.1
v -0.5 0.1 -0.1
v -0.5 0 -0.2
v -0.5 0.1 -0.2
v -0.4 0 -0.2
v -0.4 0.1 -0.2
v -0.3 0 -0.2
v -0.3 0.1 -0.2
v 0.4 0 -0.2
v 0.4 0.1 -0.2
v 0.5 0 -0.2
v 0.5 0.1 -0.2
v -0.3 0 -0.3
v -0.3 0.1 -0.3
v -0.2 0 -0.3
v -0.2 0.1 -0.3
v -0.1 0 -0.3
v -0.1 0.1 -0.3
v 0.3 0 -0.4
v 0.3 0.1 -0.4
v 0.4 0 -0.4
v 0.4 0.1 -0.4
v -0.1 0 -0.5
v -0.1 0.1 -0.5
v -5.96046e-08 0 -0.5
v -5.96046e-08 0.1 -0.5
v 0.2 0 -0.5
v 0.2 0.1 -0.5
v 0.3 0 -0.5
v 0.3 0.1 -0.5
v -5.96046e-08 0 -0.6
v -5.96046e-08 0.1 -0.6
v 0.1 0 -0.6
v 0.1 0.1 -0.6
v 0.2 0 -0.6
v 0.2 0.1 -0.6
v -0.1 0 0.5
v -5.96046e-08 0 0.5
v 0.1 0 0.5
v -0.3 0 0.4
v -0.2 0 0.4
v -0.1 0 0.4
v -5.96046e-08 0 0.4
v 0.1 0 0.4
v 0.2 0 0.4
v 0.3 0 0.4
v -0.4 0 0.3
v -0.3 0 0.3
v -0.1 0 0.3
v 0.1 0 0.3
v 0.2 0 0.3
v 0.3 0 0.3
v 0.4 0 0.3
v -0.5 0 0.2
v -0.4 0 0.2
v -0.3 0 0.2
v -0.2 0 0.2
v -0.1 0 0.2
v -5.96046e-08 0 0.2
v 0.1 0 0.2
v 0.2 0 0.2
v 0.3 0 0.2
v 0.4 0 0.2
v 0.5 0 0.2
v -0.6 0 0.1
v -0.5 0 0.1
v -0.4 0 0.1
v -0.3 0 0.1
v -5.96046e-08 0 0.1
v 0.1 0 0.1
v 0.3 0 0.1
v 0.4 0 0.1
v 0.5 0 0.1
v 0.6 0 0.1
v -0.6 0 0
v -0.5 0 0
v -0.4 0 0
v -0.3 0 0
v -0.2 0 0
v -0.1 0 0
v -5.96046e-08 0 0
v 0.1 0 0
v 0.2 0 0
v 0.3 0 0
v 0.4 0 0
v 0.5 0 0
v 0.6 0 0
v -0.6 0 -0.1
v -0.5 0 -0.1
v -0.4 0 -0.1
v -0.3 0 -0.1
v -0.2 0 -0.1
v -0.1 0 -0.1
v -5.96046e-08 0 -0.1
v 0.1 0 -0.1
v 0.2 0 -0.1
v 0.3 0 -0.1
v 0.4 0 -0.1
v 0.5 0 -0.1
v -0.5 0 -0.2
v -0.4 0 -0.2
v -0.3 0 -0.2
v -0.2 0 -0.2
v -0.1 0 -0.2
v -5.96046e-08 0 -0.2
v 0.1 0 -0.2
v 0.2 0 -0.2
v 0.3 0 -0.2
v 0.4 0 -0.2
v 0.5 0 -0.2
v -0.3 0 -0.3
v -0.2 0 -0.3
v -0.1 0 -0.3
v -5.96046e-08 0 -0.3
v 0.1 0 -0.3
v 0.2 0 -0.3
v 0.3 0 -0.3
v 0.4 0 -0.3
v -0.1 0 -0.4
v -5.96046e-08 0 -0.4
v 0.1 0 -0.4
v 0.2 0 -0.4
v 0.3 0 -0.4
v 0.4 0 -0.4
v -0.1 0 -0.5
v -5.96046e-08 0 -0.5
v 0.1 0 -0.5
v 0.2 0 -0.5
v 0.3 0 -0.5
v -5.96046e-08 0 -0.6
v 0.1 0 -0.6
v 0.2 0 -0.6
v -0.1 0.1 0.5
v -5.96046e-08 0.1 0.5
v 0.1 0.1 0.5
v -0.3 0.1 0.4
v -0.2 0.1 0.4
v -0.1 0.1 0.4
v -5.96046e-08 0.1 0.4
v 0.1 0.1 0.4
v 0.2 0.1 0.4
v 0.3 0.1 0.4
v -0.4 0.1 0.3
v -0.3 0.1 0.3
v -0.1 0.1 0.3
v 0.1 0.1 0.3
v 0.2 0.1 0.3
v 0.3 0.1 0.3
v 0.4 0.1 0.3
v -0.5 0.1 0.2
v -0.4 0.1 0.2
v -0.3 0.1 0.2
v -0.2 0.1 0.2
v -0.1 0.1 0.2
v -5.96046e-08 0.1 0.2
v 0.1 0.1 0.2
v 0.2 0.1 0.2
v 0.3 0.1 0.2
v 0.4 0.1 0.2
v 0.5 0.1 0.2
v -0.6 0.1 0.1
v -0.5 0.1 0.1
v -0.4 0.1 0.1
v -0.3 0.1 0.1
v -5.96046e-08 0.1 0.1
v 0.1 0.1 0.1
v 0.3 0.1 0.1
v 0.4 0.1 0.1
v 0.5 0.1 0.1
v 0.6 0.1 0.1
v -0.6 0.1 0
v -0.5 0.1 0
v -0.4 0.1 0
v -0.3 0.1 0
v -0.2 0.1 0
v -0.1 0.1 0
v -5.96046e-08 0.1 0
v 0.1 0.1 0
v 0.2 0.1 0
v 0.3 0.1 0
v 0.4 0.1 0
v 0.5 0.1 0
v 0.6 0.1 0
v -0.6 0.1 -0.1
v -0.5 0.1 -0.1
v -0.4 0.1 -0.1
v -0.3 0.1 -0.1
v -0.2 0.1 -0.1
v -0.1 0.1 -0.1
v -5.96046e-08 0.1 -0.1
v 0.1 0.1 -0.1
v 0.2 0.1 -0.1
v 0.3 0.1 -0.1
v 0.4 0.1 -0.1
v 0.5 0.1 -0.1
v -0.5 0.1 -0.2
v -0.4 0.1 -0.2
v -0.3 0.1 -0.2
v -0.2 0.1 -0.2
v -0.1 0.1 -0.2
v -5.96046e-08 0.1 -0.2
v 0.1 0.1 -0.2
v 0.2 0.1 -0.2
v 0.3 0.1 -0.2
v 0.4 0.1 -0.2
v 0.5 0.1 -0.2
v -0.3 0.1 -0.3
v -0.2 0.1 -0.3
v -0.1 0.1 -0.3
v -5.96046e-08 0.1 -0.3
v 0.1 0.1 -0.3
v 0.2 0.1 -0.3
v 0.3 0.1 -0.3
v 0.4 0.1 -0.3
v -0.1 0.1 -0.4
v -5.96046e-08 0.1 -0.4
v 0.1 0.1 -0.4
v 0.2 0.1 -0.4
v 0.3 0.1 -0.4
v 0.4 0.1 -0.4
v -0.1 0.1 -0.5
v -5.96046e-08 0.1 -0.5
v 0.1 0.1 -0.5
v 0.2 0.1 -0.5
v 0.3 0.1 -0.5
v -5.96046e-08 0.1 -0.6
v 0.1 0.1 -0.6
v 0.2 0.1 -0.6

# faces
f 4/6/1 2/6/1 1/6/1
f 5/5/1 3/5/1 2/5/1
f 5/6/1 2/6/1 4/6/1
f 6/5/1 3/5/1 5/5/1
f 11/6/1 8/6/1 7/6/1
f 12/6/1 8/6/1 11/6/1
f 13/5/1 10/5/1 9/5/1
f 14/5/1 10/5/1 13/5/1
f 17/6/1 16/6/1 15/6/1
f 18/6/1 16/6/1 17/6/1
f 23/6/1 20/6/1 19/6/1
f 24/6/1 20/6/1 23/6/1
f 25/4/1 22/4/1 21/4/1
f 26/4/1 22/4/1 25/4/1
f 32/3/1 28/3/1 27/3/1
f 33/3/1 28/3/1 32/3/1
f 34/6/1 30/6/1 29/6/1
f 35/4/1 31/4/1 30/4/1
f 35/6/1 30/6/1 34/6/1
f 36/4/1 31/4/1 35/4/1
f 39/5/1 38/5/1 37/5/1
f 40/5/1 38/5/1 39/5/1
f 41/2/2 42/2/2 43/2/2
f 43/2/2 42/2/2 44/2/2
f 45/6/2 46/6/2 47/6/2
f 47/6/2 46/6/2 48/6/2
f 49/5/2 50/5/2 53/5/2
f 53/5/2 50/5/2 54/5/2
f 51/5/2 52/5/2 55/5/2
f 55/5/2 52/5/2 56/5/2
f 57/5/2 58/5/2 62/5/2
f 62/5/2 58/5/2 63/5/2
f 59/6/2 60/6/2 64/6/2
f 60/5/2 61/5/2 65/5/2
f 64/6/2 60/6/2 65/6/2
f 65/5/2 61/5/2 66/5/2
f 67/6/2 68/6/2 72/6/2
f 72/6/2 68/6/2 73/6/2
f 69/5/2 70/5/2 74/5/2
f 70/6/2 71/6/2 75/6/2
f 74/5/2 70/5/2 75/5/2
f 75/6/2 71/6/2 76/6/2
f 77/5/2 78/5/2 79/5/2
f 79/5/2 78/5/2 80/5/2
f 83/3/3 82/3/3 81/3/3
f 84/3/3 82/3/3 83/3/3
f 85/2/3 84/2/3 83/2/3
f 86/2/3 84/2/3 85/2/3
f 89/6/3 88/6/3 87/6/3
f 90/6/3 88/6/3 89/6/3
f 91/2/3 90/2/3 89/2/3
f 92/2/3 90/2/3 91/2/3
f 95/4/3 94/4/3 93/4/3
f 96/4/3 94/4/3 95/4/3
f 97/5/3 96/5/3 95/5/3
f 98/5/3 96/5/3 97/5/3
f 101/6/3 100/6/3 99/6/3
f 102/6/3 100/6/3 101/6/3
f 105/5/3 104/5/3 103/5/3
f 106/5/3 104/5/3 105/5/3
f 109/6/3 108/6/3 107/6/3
f 110/6/3 108/6/3 109/6/3
f 113/6/3 112/6/3 111/6/3
f 114/6/3 112/6/3 113/6/3
f 117/6/3 116/6/3 115/6/3
f 118/6/3 116/6/3 117/6/3
f 121/5/3 120/5/3 119/5/3
f 122/5/3 120/5/3 121/5/3
f 123/5/4 124/5/4 125/5/4
f 125/5/4 124/5/4 126/5/4
f 127/5/4 128/5/4 129/5/4
f 129/5/4 128/5/4 130/5/4
f 131/5/4 132/5/4 133/5/4
f 133/5/4 132/5/4 134/5/4
f 133/3/4 134/3/4 135/3/4
f 135/3/4 134/3/4 136/3/4
f 137/6/4 138/6/4 139/6/4
f 139/6/4 138/6/4 140/6/4
f 141/4/4 142/4/4 143/4/4
f 143/4/4 142/4/4 144/4/4
f 143/5/4 144/5/4 145/5/4
f 145/5/4 144/5/4 146/5/4
f 147/5/4 148/5/4 149/5/4
f 149/5/4 148/5/4 150/5/4
f 151/4/4 152/4/4 153/4/4
f 153/4/4 152/4/4 154/4/4
f 155/5/4 156/5/4 157/5/4
f 157/5/4 156/5/4 158/5/4
f 159/5/4 160/5/4 161/5/4
f 161/5/4 160/5/4 162/5/4
f 161/6/4 162/6/4 163/6/4
f 163/6/4 162/6/4 164/6/4
f 170/3/5 166/3/5 165/3/5
f 171/2/5 167/2/5 166/2/5
f 171/3/5 166/3/5 170/3/5
f 172/2/5 167/2/5 171/2/5
f 176/6/5 169/6/5 168/6/5
f 177/2/5 170/2/5 169/2/5
f 177/2/5 171/2/5 170/2/5
f 177/2/5 172/2/5 171/2/5
f 178/4/5 173/4/5 172/4/5
f 178/2/5 172/2/5 177/2/5
f 179/5/5 174/5/5 173/5/5
f 179/4/5 173/4/5 178/4/5
f 180/5/5 174/5/5 179/5/5
f 183/6/5 176/6/5 175/6/5
f 184/6/5 169/6/5 176/6/5
f 184/6/5 176/6/5 183/6/5
f 185/2/5 177/2/5 169/2/5
f 185/6/5 169/6/5 184/6/5
f 186/1/5 178/1/5 177/1/5
f 186/2/5 177/2/5 185/2/5
f 187/1/5 178/1/5 186/1/5
f 188/2/5 179/2/5 178/2/5
f 188/1/5 178/1/5 187/1/5
f 189/4/5 180/4/5 179/4/5
f 189/2/5 179/2/5 188/2/5
f 190/5/5 181/5/5 180/5/5
f 190/4/5 180/4/5 189/4/5
f 191/5/5 181/5/5 190/5/5
f 194/6/5 183/6/5 182/6/5
f 195/1/5 184/1/5 183/1/5
f 195/6/5 183/6/5 194/6/5
f 196/2/5 185/2/5 184/2/5
f 196/1/5 184/1/5 195/1/5
f 197/6/5 189/6/5 188/6/5
f 197/2/5 187/2/5 186/2/5
f 197/6/5 188/6/5 187/6/5
f 197/6/5 190/6/5 189/6/5
f 198/6/5 190/6/5 197/6/5
f 199/1/5 191/1/5 190/1/5
f 199/6/5 190/6/5 198/6/5
f 200/6/5 192/6/5 191/6/5
f 200/1/5 191/1/5 199/1/5
f 201/6/5 192/6/5 200/6/5
f 203/6/5 195/6/5 194/6/5
f 203/6/5 194/6/5 193/6/5
f 203/6/5 196/6/5 195/6/5
f 204/6/5 196/6/5 203/6/5
f 205/6/5 196/6/5 204/6/5
f 206/2/5 185/2/5 196/2/5
f 206/6/5 196/6/5 205/6/5
f 207/3/5 186/3/5 185/3/5
f 207/2/5 185/2/5 206/2/5
f 208/2/5 197/2/5 186/2/5
f 208/3/5 186/3/5 207/3/5
f 209/3/5 198/3/5 197/3/5
f 209/2/5 197/2/5 208/2/5
f 210/1/5 199/1/5 198/1/5
f 210/3/5 198/3/5 209/3/5
f 211/1/5 199/1/5 210/1/5
f 212/4/5 200/4/5 199/4/5
f 212/1/5 199/1/5 211/1/5
f 213/6/5 201/6/5 200/6/5
f 213/4/5 200/4/5 212/4/5
f 214/5/5 202/5/5 201/5/5
f 214/6/5 201/6/5 213/6/5
f 215/5/5 202/5/5 214/5/5
f 216/5/5 204/5/5 203/5/5
f 217/1/5 205/1/5 204/1/5
f 217/5/5 204/5/5 216/5/5
f 218/2/5 206/2/5 205/2/5
f 218/1/5 205/1/5 217/1/5
f 219/1/5 208/1/5 207/1/5
f 219/2/5 206/2/5 218/2/5
f 219/1/5 207/1/5 206/1/5
f 220/1/5 208/1/5 219/1/5
f 221/3/5 209/3/5 208/3/5
f 221/1/5 208/1/5 220/1/5
f 221/3/5 210/3/5 209/3/5
f 222/3/5 210/3/5 221/3/5
f 223/6/5 211/6/5 210/6/5
f 223/3/5 210/3/5 222/3/5
f 224/2/5 212/2/5 211/2/5
f 224/6/5 211/6/5 223/6/5
f 225/3/5 213/3/5 212/3/5
f 225/2/5 212/2/5 224/2/5
f 226/5/5 214/5/5 213/5/5
f 226/3/5 213/3/5 225/3/5
f 227/5/5 214/5/5 226/5/5
f 228/5/5 218/5/5 217/5/5
f 229/3/5 219/3/5 218/3/5
f 229/5/5 218/5/5 228/5/5
f 230/6/5 220/6/5 219/6/5
f 230/3/5 219/3/5 229/3/5
f 231/3/5 221/3/5 220/3/5
f 231/6/5 220/6/5 230/6/5
f 232/2/5 222/2/5 221/2/5
f 232/3/5 221/3/5 231/3/5
f 233/1/5 224/1/5 223/1/5
f 233/2/5 222/2/5 232/2/5
f 233/1/5 223/1/5 222/1/5
f 234/1/5 224/1/5 233/1/5
f 235/2/5 225/2/5 224/2/5
f 235/1/5 224/1/5 234/1/5
f 236/1/5 226/1/5 225/1/5
f 236/2/5 225/2/5 235/2/5
f 237/6/5 227/6/5 226/6/5
f 237/1/5 226/1/5 236/1/5
f 238/6/5 227/6/5 237/6/5
f 239/4/5 231/4/5 230/4/5
f 240/5/5 232/5/5 231/5/5
f 240/4/5 231/4/5 239/4/5
f 241/6/5 233/6/5 232/6/5
f 241/5/5 232/5/5 240/5/5
f 242/2/5 234/2/5 233/2/5
f 242/6/5 233/6/5 241/6/5
f 243/6/5 235/6/5 234/6/5
f 243/2/5 234/2/5 242/2/5
f 244/4/5 236/4/5 235/4/5
f 244/6/5 235/6/5 243/6/5
f 245/6/5 237/6/5 236/6/5
f 245/4/5 236/4/5 244/4/5
f 246/6/5 237/6/5 245/6/5
f 247/6/5 242/6/5 241/6/5
f 248/1/5 243/1/5 242/1/5
f 248/6/5 242/6/5 247/6/5
f 249/2/5 244/2/5 243/2/5
f 249/1/5 243/1/5 248/1/5
f 250/1/5 245/1/5 244/1/5
f 250/2/5 244/2/5 249/2/5
f 251/5/5 246/5/5 245/5/5
f 251/1/5 245/1/5 250/1/5
f 252/5/5 246/5/5 251/5/5
f 253/4/5 248/4/5 247/4/5
f 254/2/5 249/2/5 248/2/5
f 254/4/5 248/4/5 253/4/5
f 255/5/5 250/5/5 249/5/5
f 255/2/5 249/2/5 254/2/5
f 255/5/5 251/5/5 250/5/5
f 256/5/5 251/5/5 255/5/5
f 257/5/5 251/5/5 256/5/5
f 258/5/5 255/5/5 254/5/5
f 259/6/5 256/6/5 255/6/5
f 259/5/5 255/5/5 258/5/5
f 260/6/5 256/6/5 259/6/5
f 261/3/6 262/3/6 266/3/6
f 262/2/6 263/2/6 267/2/6
f 266/3/6 262/3/6 267/3/6
f 267/2/6 263/2/6 268/2/6
f 264/6/6 265/6/6 272/6/6
f 265/2/6 266/2/6 273/2/6
f 266/2/6 267/2/6 273/2/6
f 267/2/6 268/2/6 273/2/6
f 268/4/6 269/4/6 274/4/6
f 273/2/6 268/2/6 274/2/6
f 269/5/6 270/5/6 275/5/6
f 274/4/6 269/4/6 275/4/6
f 275/5/6 270/5/6 276/5/6
f 271/6/6 272/6/6 279/6/6
f 272/6/6 265/6/6 280/6/6
f 279/6/6 272/6/6 280/6/6
f 265/2/6 273/2/6 281/2/6
f 280/6/6 265/6/6 281/6/6
f 273/1/6 274/1/6 282/1/6
f 281/2/6 273/2/6 282/2/6
f 282/1/6 274/1/6 283/1/6
f 274/2/6 275/2/6 284/2/6
f 283/1/6 274/1/6 284/1/6
f 275/4/6 276/4/6 285/4/6
f 284/2/6 275/2/6 285/2/6
f 276/5/6 277/5/6 286/5/6
f 285/4/6 276/4/6 286/4/6
f 286/5/6 277/5/6 287/5/6
f 278/6/6 279/6/6 290/6/6
f 279/1/6 280/1/6 291/1/6
f 290/6/6 279/6/6 291/6/6
f 280/2/6 281/2/6 292/2/6
f 291/1/6 280/1/6 292/1/6
f 284/6/6 285/6/6 293/6/6
f 282/2/6 283/2/6 293/2/6
f 283/6/6 284/6/6 293/6/6
f 285/6/6 286/6/6 293/6/6
f 293/6/6 286/6/6 294/6/6
f 286/1/6 287/1/6 295/1/6
f 294/6/6 286/6/6 295/6/6
f 287/6/6 288/6/6 296/6/6
f 295/1/6 287/1/6 296/1/6
f 296/6/6 288/6/6 297/6/6
f 290/6/6 291/6/6 299/6/6
f 289/6/6 290/6/6 299/6/6
f 291/6/6 292/6/6 299/6/6
f 299/6/6 292/6/6 300/6/6
f 300/6/6 292/6/6 301/6/6
f 292/2/6 281/2/6 302/2/6
f 301/6/6 292/6/6 302/6/6
f 281/3/6 282/3/6 303/3/6
f 302/2/6 281/2/6 303/2/6
f 282/2/6 293/2/6 304/2/6
f 303/3/6 282/3/6 304/3/6
f 293/3/6 294/3/6 305/3/6
f 304/2/6 293/2/6 305/2/6
f 294/1/6 295/1/6 306/1/6
f 305/3/6 294/3/6 306/3/6
f 306/1/6 295/1/6 307/1/6
f 295/4/6 296/4/6 308/4/6
f 307/1/6 295/1/6 308/1/6
f 296/6/6 297/6/6 309/6/6
f 308/4/6 296/4/6 309/4/6
f 297/5/6 298/5/6 310/5/6
f 309/6/6 297/6/6 310/6/6
f 310/5/6 298/5/6 311/5/6
f 299/5/6 300/5/6 312/5/6
f 300/1/6 301/1/6 313/1/6
f 312/5/6 300/5/6 313/5/6
f 301/2/6 302/2/6 314/2/6
f 313/1/6 301/1/6 314/1/6
f 303/1/6 304/1/6 315/1/6
f 314/2/6 302/2/6 315/2/6
f 302/1/6 303/1/6 315/1/6
f 315/1/6 304/1/6 316/1/6
f 304/3/6 305/3/6 317/3/6
f 316/1/6 304/1/6 317/1/6
f 305/3/6 306/3/6 317/3/6
f 317/3/6 306/3/6 318/3/6
f 306/6/6 307/6/6 319/6/6
f 318/3/6 306/3/6 319/3/6
f 307/2/6 308/2/6 320/2/6
f 319/6/6 307/6/6 320/6/6
f 308/3/6 309/3/6 321/3/6
f 320/2/6 308/2/6 321/2/6
f 309/5/6 310/5/6 322/5/6
f 321/3/6 309/3/6 322/3/6
f 322/5/6 310/5/6 323/5/6
f 313/5/6 314/5/6 324/5/6
f 314/3/6 315/3/6 325/3/6
f 324/5/6 314/5/6 325/5/6
f 315/6/6 316/6/6 326/6/6
f 325/3/6 315/3/6 326/3/6
f 316/3/6 317/3/6 327/3/6
f 326/6/6 316/6/6 327/6/6
f 317/2/6 318/2/6 328/2/6
f 327/3/6 317/3/6 328/3/6
f 319/1/6 320/1/6 329/1/6
f 328/2/6 318/2/6 329/2/6
f 318/1/6 319/1/6 329/1/6
f 329/1/6 320/1/6 330/1/6
f 320/2/6 321/2/6 331/2/6
f 330/1/6 320/1/6 331/1/6
f 321/1/6 322/1/6 332/1/6
f 331/2/6 321/2/6 332/2/6
f 322/6/6 323/6/6 333/6/6
f 332/1/6 322/1/6 333/1/6
f 333/6/6 323/6/6 334/6/6
f 326/4/6 327/4/6 335/4/6
f 327/5/6 328/5/6 336/5/6
f 335/4/6 327/4/6 336/4/6
f 328/6/6 329/6/6 337/6/6
f 336/5/6 328/5/6 337/5/6
f 329/2/6 330/2/6 338/2/6
f 337/6/6 329/6/6 338/6/6
f 330/6/6 331/6/6 339/6/6
f 338/2/6 330/2/6 339/2/6
f 331/4/6 332/4/6 340/4/6
f 339/6/6 331/6/6 340/6/6
f 332/6/6 333/6/6 341/6/6
f 340/4/6 332/4/6 341/4/6
f 341/6/6 333/6/6 342/6/6
f 337/6/6 338/6/6 343/6/6
f 338/1/6 339/1/6 344/1/6
f 343/6/6 338/6/6 344/6/6
f 339/2/6 340/2/6 345/2/6
f 344/1/6 339/1/6 345/1/6
f 340/1/6 341/1/6 346/1/6
f 345/2/6 340/2/6 346/2/6
f 341/5/6 342/5/6 347/5/6
f 346/1/6 341/1/6 347/1/6
f 347/5/6 342/5/6 348/5/6
f 343/4/6 344/4/6 349/4/6
f 344/2/6 345/2/6 350/2/6
f 349/4/6 344/4/6 350/4/6
f 345/5/6 346/5/6 351/5/6
f 350/2/6 345/2/6 351/2/6
f 346/5/6 347/5/6 351/5/6
f 351/5/6 347/5/6 352/5/6
f 352/5/6 347/5/6 353/5/6
f 350/5/6 351/5/6 354/5/6
f 351/6/6 352/6/6 355/6/6
f 354/5/6 351/5/6 355/5/6
f 355/6/6 352/6/6 356/6/6
