# MagicaVoxel @ Ephtracy

# group
o 

# material
mtllib progZwalniajacy.mtl
usemtl palette

# normals
vn -1 0 0
vn 1 0 0
vn 0 0 1
vn 0 0 -1
vn 0 -1 0
vn 0 1 0

# texcoords
vt 0.0175781 0.5
vt 0.986328 0.5

# verts
v -0.8 0 0.1
v -0.8 0 -0.1
v -0.8 0.1 0.1
v -0.8 0.1 -0.1
v -0.7 0 0.2
v -0.7 0 0.1
v -0.7 0 -0.1
v -0.7 0 -0.2
v -0.7 0.1 0.2
v -0.7 0.1 0.1
v -0.7 0.1 -0.1
v -0.7 0.1 -0.2
v -0.7 0.2 0.1
v -0.7 0.2 -0.1
v 0.8 0 0.2
v 0.8 0 0.1
v 0.8 0 -0.1
v 0.8 0 -0.2
v 0.8 0.1 0.2
v 0.8 0.1 0.1
v 0.8 0.1 -0.1
v 0.8 0.1 -0.2
v 0.8 0.2 0.1
v 0.8 0.2 -0.1
v 0.9 0 0.1
v 0.9 0 -0.1
v 0.9 0.1 0.1
v 0.9 0.1 -0.1
v -0.7 0 0.2
v -0.7 0.1 0.2
v -0.6 0 0.2
v -0.6 0.1 0.2
v -0.5 0 0.2
v -0.5 0.1 0.2
v -0.4 0 0.2
v -0.4 0.1 0.2
v -0.3 0 0.2
v -0.3 0.1 0.2
v -0.2 0 0.2
v -0.2 0.1 0.2
v -0.1 0 0.2
v -0.1 0.1 0.2
v 0 0 0.2
v 0 0.1 0.2
v 0.1 0 0.2
v 0.1 0.1 0.2
v 0.2 0 0.2
v 0.2 0.1 0.2
v 0.3 0 0.2
v 0.3 0.1 0.2
v 0.4 0 0.2
v 0.4 0.1 0.2
v 0.5 0 0.2
v 0.5 0.1 0.2
v 0.6 0 0.2
v 0.6 0.1 0.2
v 0.7 0 0.2
v 0.7 0.1 0.2
v 0.8 0 0.2
v 0.8 0.1 0.2
v -0.8 0 0.1
v -0.8 0.1 0.1
v -0.7 0 0.1
v -0.7 0.1 0.1
v -0.7 0.2 0.1
v -0.6 0.1 0.1
v -0.6 0.2 0.1
v -0.5 0.1 0.1
v -0.5 0.2 0.1
v -0.4 0.1 0.1
v -0.4 0.2 0.1
v -0.3 0.1 0.1
v -0.3 0.2 0.1
v -0.2 0.1 0.1
v -0.2 0.2 0.1
v -0.1 0.1 0.1
v -0.1 0.2 0.1
v 0 0.1 0.1
v 0 0.2 0.1
v 0.1 0.1 0.1
v 0.1 0.2 0.1
v 0.2 0.1 0.1
v 0.2 0.2 0.1
v 0.3 0.1 0.1
v 0.3 0.2 0.1
v 0.4 0.1 0.1
v 0.4 0.2 0.1
v 0.5 0.1 0.1
v 0.5 0.2 0.1
v 0.6 0.1 0.1
v 0.6 0.2 0.1
v 0.7 0.1 0.1
v 0.7 0.2 0.1
v 0.8 0 0.1
v 0.8 0.1 0.1
v 0.8 0.2 0.1
v 0.9 0 0.1
v 0.9 0.1 0.1
v -0.8 0 -0.1
v -0.8 0.1 -0.1
v -0.7 0 -0.1
v -0.7 0.1 -0.1
v -0.7 0.2 -0.1
v -0.6 0.1 -0.1
v -0.6 0.2 -0.1
v -0.5 0.1 -0.1
v -0.5 0.2 -0.1
v -0.4 0.1 -0.1
v -0.4 0.2 -0.1
v -0.3 0.1 -0.1
v -0.3 0.2 -0.1
v -0.2 0.1 -0.1
v -0.2 0.2 -0.1
v -0.1 0.1 -0.1
v -0.1 0.2 -0.1
v 0 0.1 -0.1
v 0 0.2 -0.1
v 0.1 0.1 -0.1
v 0.1 0.2 -0.1
v 0.2 0.1 -0.1
v 0.2 0.2 -0.1
v 0.3 0.1 -0.1
v 0.3 0.2 -0.1
v 0.4 0.1 -0.1
v 0.4 0.2 -0.1
v 0.5 0.1 -0.1
v 0.5 0.2 -0.1
v 0.6 0.1 -0.1
v 0.6 0.2 -0.1
v 0.7 0.1 -0.1
v 0.7 0.2 -0.1
v 0.8 0 -0.1
v 0.8 0.1 -0.1
v 0.8 0.2 -0.1
v 0.9 0 -0.1
v 0.9 0.1 -0.1
v -0.7 0 -0.2
v -0.7 0.1 -0.2
v -0.6 0 -0.2
v -0.6 0.1 -0.2
v -0.5 0 -0.2
v -0.5 0.1 -0.2
v -0.4 0 -0.2
v -0.4 0.1 -0.2
v -0.3 0 -0.2
v -0.3 0.1 -0.2
v -0.2 0 -0.2
v -0.2 0.1 -0.2
v -0.1 0 -0.2
v -0.1 0.1 -0.2
v 0 0 -0.2
v 0 0.1 -0.2
v 0.1 0 -0.2
v 0.1 0.1 -0.2
v 0.2 0 -0.2
v 0.2 0.1 -0.2
v 0.3 0 -0.2
v 0.3 0.1 -0.2
v 0.4 0 -0.2
v 0.4 0.1 -0.2
v 0.5 0 -0.2
v 0.5 0.1 -0.2
v 0.6 0 -0.2
v 0.6 0.1 -0.2
v 0.7 0 -0.2
v 0.7 0.1 -0.2
v 0.8 0 -0.2
v 0.8 0.1 -0.2
v -0.7 0 0.2
v -0.6 0 0.2
v -0.5 0 0.2
v -0.4 0 0.2
v -0.3 0 0.2
v -0.2 0 0.2
v -0.1 0 0.2
v 0 0 0.2
v 0.1 0 0.2
v 0.2 0 0.2
v 0.3 0 0.2
v 0.4 0 0.2
v 0.5 0 0.2
v 0.6 0 0.2
v 0.7 0 0.2
v 0.8 0 0.2
v -0.8 0 0.1
v -0.7 0 0.1
v -0.6 0 0.1
v -0.5 0 0.1
v -0.4 0 0.1
v -0.3 0 0.1
v -0.2 0 0.1
v -0.1 0 0.1
v 0 0 0.1
v 0.1 0 0.1
v 0.2 0 0.1
v 0.3 0 0.1
v 0.4 0 0.1
v 0.5 0 0.1
v 0.6 0 0.1
v 0.7 0 0.1
v 0.8 0 0.1
v 0.9 0 0.1
v -0.8 0 -0.1
v -0.7 0 -0.1
v -0.6 0 -0.1
v -0.5 0 -0.1
v -0.4 0 -0.1
v -0.3 0 -0.1
v -0.2 0 -0.1
v -0.1 0 -0.1
v 0 0 -0.1
v 0.1 0 -0.1
v 0.2 0 -0.1
v 0.3 0 -0.1
v 0.4 0 -0.1
v 0.5 0 -0.1
v 0.6 0 -0.1
v 0.7 0 -0.1
v 0.8 0 -0.1
v 0.9 0 -0.1
v -0.7 0 -0.2
v -0.6 0 -0.2
v -0.5 0 -0.2
v -0.4 0 -0.2
v -0.3 0 -0.2
v -0.2 0 -0.2
v -0.1 0 -0.2
v 0 0 -0.2
v 0.1 0 -0.2
v 0.2 0 -0.2
v 0.3 0 -0.2
v 0.4 0 -0.2
v 0.5 0 -0.2
v 0.6 0 -0.2
v 0.7 0 -0.2
v 0.8 0 -0.2
v -0.7 0.1 0.2
v -0.6 0.1 0.2
v -0.5 0.1 0.2
v -0.4 0.1 0.2
v -0.3 0.1 0.2
v -0.2 0.1 0.2
v -0.1 0.1 0.2
v 0 0.1 0.2
v 0.1 0.1 0.2
v 0.2 0.1 0.2
v 0.3 0.1 0.2
v 0.4 0.1 0.2
v 0.5 0.1 0.2
v 0.6 0.1 0.2
v 0.7 0.1 0.2
v 0.8 0.1 0.2
v -0.8 0.1 0.1
v -0.7 0.1 0.1
v -0.6 0.1 0.1
v -0.5 0.1 0.1
v -0.4 0.1 0.1
v -0.3 0.1 0.1
v -0.2 0.1 0.1
v -0.1 0.1 0.1
v 0 0.1 0.1
v 0.1 0.1 0.1
v 0.2 0.1 0.1
v 0.3 0.1 0.1
v 0.4 0.1 0.1
v 0.5 0.1 0.1
v 0.6 0.1 0.1
v 0.7 0.1 0.1
v 0.8 0.1 0.1
v 0.9 0.1 0.1
v -0.8 0.1 -0.1
v -0.7 0.1 -0.1
v -0.6 0.1 -0.1
v -0.5 0.1 -0.1
v -0.4 0.1 -0.1
v -0.3 0.1 -0.1
v -0.2 0.1 -0.1
v -0.1 0.1 -0.1
v 0 0.1 -0.1
v 0.1 0.1 -0.1
v 0.2 0.1 -0.1
v 0.3 0.1 -0.1
v 0.4 0.1 -0.1
v 0.5 0.1 -0.1
v 0.6 0.1 -0.1
v 0.7 0.1 -0.1
v 0.8 0.1 -0.1
v 0.9 0.1 -0.1
v -0.7 0.1 -0.2
v -0.6 0.1 -0.2
v -0.5 0.1 -0.2
v -0.4 0.1 -0.2
v -0.3 0.1 -0.2
v -0.2 0.1 -0.2
v -0.1 0.1 -0.2
v 0 0.1 -0.2
v 0.1 0.1 -0.2
v 0.2 0.1 -0.2
v 0.3 0.1 -0.2
v 0.4 0.1 -0.2
v 0.5 0.1 -0.2
v 0.6 0.1 -0.2
v 0.7 0.1 -0.2
v 0.8 0.1 -0.2
v -0.7 0.2 0.1
v -0.6 0.2 0.1
v -0.5 0.2 0.1
v -0.4 0.2 0.1
v -0.3 0.2 0.1
v -0.2 0.2 0.1
v -0.1 0.2 0.1
v 0 0.2 0.1
v 0.1 0.2 0.1
v 0.2 0.2 0.1
v 0.3 0.2 0.1
v 0.4 0.2 0.1
v 0.5 0.2 0.1
v 0.6 0.2 0.1
v 0.7 0.2 0.1
v 0.8 0.2 0.1
v -0.7 0.2 -0.1
v -0.6 0.2 -0.1
v -0.5 0.2 -0.1
v -0.4 0.2 -0.1
v -0.3 0.2 -0.1
v -0.2 0.2 -0.1
v -0.1 0.2 -0.1
v 0 0.2 -0.1
v 0.1 0.2 -0.1
v 0.2 0.2 -0.1
v 0.3 0.2 -0.1
v 0.4 0.2 -0.1
v 0.5 0.2 -0.1
v 0.6 0.2 -0.1
v 0.7 0.2 -0.1
v 0.8 0.2 -0.1

# faces
f 3/2/1 2/2/1 1/2/1
f 4/2/1 2/2/1 3/2/1
f 9/2/1 6/2/1 5/2/1
f 10/2/1 6/2/1 9/2/1
f 11/2/1 8/2/1 7/2/1
f 12/2/1 8/2/1 11/2/1
f 13/2/1 11/2/1 10/2/1
f 14/2/1 11/2/1 13/2/1
f 15/2/2 16/2/2 19/2/2
f 19/2/2 16/2/2 20/2/2
f 17/2/2 18/2/2 21/2/2
f 21/2/2 18/2/2 22/2/2
f 20/2/2 21/2/2 23/2/2
f 23/2/2 21/2/2 24/2/2
f 25/2/2 26/2/2 27/2/2
f 27/2/2 26/2/2 28/2/2
f 31/2/3 30/2/3 29/2/3
f 32/2/3 30/2/3 31/2/3
f 33/1/3 32/1/3 31/1/3
f 34/1/3 32/1/3 33/1/3
f 35/2/3 34/2/3 33/2/3
f 36/2/3 34/2/3 35/2/3
f 37/1/3 36/1/3 35/1/3
f 38/1/3 36/1/3 37/1/3
f 39/2/3 38/2/3 37/2/3
f 40/2/3 38/2/3 39/2/3
f 41/1/3 40/1/3 39/1/3
f 42/1/3 40/1/3 41/1/3
f 43/2/3 42/2/3 41/2/3
f 44/2/3 42/2/3 43/2/3
f 45/1/3 44/1/3 43/1/3
f 46/1/3 44/1/3 45/1/3
f 47/2/3 46/2/3 45/2/3
f 48/2/3 46/2/3 47/2/3
f 49/1/3 48/1/3 47/1/3
f 50/1/3 48/1/3 49/1/3
f 51/2/3 50/2/3 49/2/3
f 52/2/3 50/2/3 51/2/3
f 53/1/3 52/1/3 51/1/3
f 54/1/3 52/1/3 53/1/3
f 55/2/3 54/2/3 53/2/3
f 56/2/3 54/2/3 55/2/3
f 57/1/3 56/1/3 55/1/3
f 58/1/3 56/1/3 57/1/3
f 59/2/3 58/2/3 57/2/3
f 60/2/3 58/2/3 59/2/3
f 63/2/3 62/2/3 61/2/3
f 64/2/3 62/2/3 63/2/3
f 66/2/3 65/2/3 64/2/3
f 67/2/3 65/2/3 66/2/3
f 68/1/3 67/1/3 66/1/3
f 69/1/3 67/1/3 68/1/3
f 70/2/3 69/2/3 68/2/3
f 71/2/3 69/2/3 70/2/3
f 72/1/3 71/1/3 70/1/3
f 73/1/3 71/1/3 72/1/3
f 74/2/3 73/2/3 72/2/3
f 75/2/3 73/2/3 74/2/3
f 76/1/3 75/1/3 74/1/3
f 77/1/3 75/1/3 76/1/3
f 78/2/3 77/2/3 76/2/3
f 79/2/3 77/2/3 78/2/3
f 80/1/3 79/1/3 78/1/3
f 81/1/3 79/1/3 80/1/3
f 82/2/3 81/2/3 80/2/3
f 83/2/3 81/2/3 82/2/3
f 84/1/3 83/1/3 82/1/3
f 85/1/3 83/1/3 84/1/3
f 86/2/3 85/2/3 84/2/3
f 87/2/3 85/2/3 86/2/3
f 88/1/3 87/1/3 86/1/3
f 89/1/3 87/1/3 88/1/3
f 90/2/3 89/2/3 88/2/3
f 91/2/3 89/2/3 90/2/3
f 92/1/3 91/1/3 90/1/3
f 93/1/3 91/1/3 92/1/3
f 95/2/3 93/2/3 92/2/3
f 96/2/3 93/2/3 95/2/3
f 97/2/3 95/2/3 94/2/3
f 98/2/3 95/2/3 97/2/3
f 99/2/4 100/2/4 101/2/4
f 101/2/4 100/2/4 102/2/4
f 102/2/4 103/2/4 104/2/4
f 104/2/4 103/2/4 105/2/4
f 104/1/4 105/1/4 106/1/4
f 106/1/4 105/1/4 107/1/4
f 106/2/4 107/2/4 108/2/4
f 108/2/4 107/2/4 109/2/4
f 108/1/4 109/1/4 110/1/4
f 110/1/4 109/1/4 111/1/4
f 110/2/4 111/2/4 112/2/4
f 112/2/4 111/2/4 113/2/4
f 112/1/4 113/1/4 114/1/4
f 114/1/4 113/1/4 115/1/4
f 114/2/4 115/2/4 116/2/4
f 116/2/4 115/2/4 117/2/4
f 116/1/4 117/1/4 118/1/4
f 118/1/4 117/1/4 119/1/4
f 118/2/4 119/2/4 120/2/4
f 120/2/4 119/2/4 121/2/4
f 120/1/4 121/1/4 122/1/4
f 122/1/4 121/1/4 123/1/4
f 122/2/4 123/2/4 124/2/4
f 124/2/4 123/2/4 125/2/4
f 124/1/4 125/1/4 126/1/4
f 126/1/4 125/1/4 127/1/4
f 126/2/4 127/2/4 128/2/4
f 128/2/4 127/2/4 129/2/4
f 128/1/4 129/1/4 130/1/4
f 130/1/4 129/1/4 131/1/4
f 130/2/4 131/2/4 133/2/4
f 133/2/4 131/2/4 134/2/4
f 132/2/4 133/2/4 135/2/4
f 135/2/4 133/2/4 136/2/4
f 137/2/4 138/2/4 139/2/4
f 139/2/4 138/2/4 140/2/4
f 139/1/4 140/1/4 141/1/4
f 141/1/4 140/1/4 142/1/4
f 141/2/4 142/2/4 143/2/4
f 143/2/4 142/2/4 144/2/4
f 143/1/4 144/1/4 145/1/4
f 145/1/4 144/1/4 146/1/4
f 145/2/4 146/2/4 147/2/4
f 147/2/4 146/2/4 148/2/4
f 147/1/4 148/1/4 149/1/4
f 149/1/4 148/1/4 150/1/4
f 149/2/4 150/2/4 151/2/4
f 151/2/4 150/2/4 152/2/4
f 151/1/4 152/1/4 153/1/4
f 153/1/4 152/1/4 154/1/4
f 153/2/4 154/2/4 155/2/4
f 155/2/4 154/2/4 156/2/4
f 155/1/4 156/1/4 157/1/4
f 157/1/4 156/1/4 158/1/4
f 157/2/4 158/2/4 159/2/4
f 159/2/4 158/2/4 160/2/4
f 159/1/4 160/1/4 161/1/4
f 161/1/4 160/1/4 162/1/4
f 161/2/4 162/2/4 163/2/4
f 163/2/4 162/2/4 164/2/4
f 163/1/4 164/1/4 165/1/4
f 165/1/4 164/1/4 166/1/4
f 165/2/4 166/2/4 167/2/4
f 167/2/4 166/2/4 168/2/4
f 186/2/5 170/2/5 169/2/5
f 187/1/5 171/1/5 170/1/5
f 187/2/5 170/2/5 186/2/5
f 188/2/5 172/2/5 171/2/5
f 188/1/5 171/1/5 187/1/5
f 189/1/5 173/1/5 172/1/5
f 189/2/5 172/2/5 188/2/5
f 190/2/5 174/2/5 173/2/5
f 190/1/5 173/1/5 189/1/5
f 191/1/5 175/1/5 174/1/5
f 191/2/5 174/2/5 190/2/5
f 192/2/5 176/2/5 175/2/5
f 192/1/5 175/1/5 191/1/5
f 193/1/5 177/1/5 176/1/5
f 193/2/5 176/2/5 192/2/5
f 194/2/5 178/2/5 177/2/5
f 194/1/5 177/1/5 193/1/5
f 195/1/5 179/1/5 178/1/5
f 195/2/5 178/2/5 194/2/5
f 196/2/5 180/2/5 179/2/5
f 196/1/5 179/1/5 195/1/5
f 197/1/5 181/1/5 180/1/5
f 197/2/5 180/2/5 196/2/5
f 198/2/5 182/2/5 181/2/5
f 198/1/5 181/1/5 197/1/5
f 199/1/5 183/1/5 182/1/5
f 199/2/5 182/2/5 198/2/5
f 200/2/5 184/2/5 183/2/5
f 200/1/5 183/1/5 199/1/5
f 201/2/5 184/2/5 200/2/5
f 203/2/5 199/2/5 198/2/5
f 203/2/5 202/2/5 201/2/5
f 203/2/5 201/2/5 200/2/5
f 203/2/5 200/2/5 199/2/5
f 203/2/5 186/2/5 185/2/5
f 203/2/5 198/2/5 197/2/5
f 203/2/5 197/2/5 196/2/5
f 203/2/5 196/2/5 195/2/5
f 203/2/5 195/2/5 194/2/5
f 203/2/5 194/2/5 193/2/5
f 203/2/5 193/2/5 192/2/5
f 203/2/5 192/2/5 191/2/5
f 203/2/5 191/2/5 190/2/5
f 203/2/5 190/2/5 189/2/5
f 203/2/5 189/2/5 188/2/5
f 203/2/5 188/2/5 187/2/5
f 203/2/5 187/2/5 186/2/5
f 204/2/5 202/2/5 203/2/5
f 205/2/5 202/2/5 204/2/5
f 206/2/5 202/2/5 205/2/5
f 207/2/5 202/2/5 206/2/5
f 208/2/5 202/2/5 207/2/5
f 209/2/5 202/2/5 208/2/5
f 210/2/5 202/2/5 209/2/5
f 211/2/5 202/2/5 210/2/5
f 212/2/5 202/2/5 211/2/5
f 213/2/5 202/2/5 212/2/5
f 214/2/5 202/2/5 213/2/5
f 215/2/5 202/2/5 214/2/5
f 216/2/5 202/2/5 215/2/5
f 217/2/5 202/2/5 216/2/5
f 218/2/5 202/2/5 217/2/5
f 219/2/5 202/2/5 218/2/5
f 220/2/5 202/2/5 219/2/5
f 221/2/5 205/2/5 204/2/5
f 222/1/5 206/1/5 205/1/5
f 222/2/5 205/2/5 221/2/5
f 223/2/5 207/2/5 206/2/5
f 223/1/5 206/1/5 222/1/5
f 224/1/5 208/1/5 207/1/5
f 224/2/5 207/2/5 223/2/5
f 225/2/5 209/2/5 208/2/5
f 225/1/5 208/1/5 224/1/5
f 226/1/5 210/1/5 209/1/5
f 226/2/5 209/2/5 225/2/5
f 227/2/5 211/2/5 210/2/5
f 227/1/5 210/1/5 226/1/5
f 228/1/5 212/1/5 211/1/5
f 228/2/5 211/2/5 227/2/5
f 229/2/5 213/2/5 212/2/5
f 229/1/5 212/1/5 228/1/5
f 230/1/5 214/1/5 213/1/5
f 230/2/5 213/2/5 229/2/5
f 231/2/5 215/2/5 214/2/5
f 231/1/5 214/1/5 230/1/5
f 232/1/5 216/1/5 215/1/5
f 232/2/5 215/2/5 231/2/5
f 233/2/5 217/2/5 216/2/5
f 233/1/5 216/1/5 232/1/5
f 234/1/5 218/1/5 217/1/5
f 234/2/5 217/2/5 233/2/5
f 235/2/5 219/2/5 218/2/5
f 235/1/5 218/1/5 234/1/5
f 236/2/5 219/2/5 235/2/5
f 237/2/6 238/2/6 254/2/6
f 238/1/6 239/1/6 255/1/6
f 254/2/6 238/2/6 255/2/6
f 239/2/6 240/2/6 256/2/6
f 255/1/6 239/1/6 256/1/6
f 240/1/6 241/1/6 257/1/6
f 256/2/6 240/2/6 257/2/6
f 241/2/6 242/2/6 258/2/6
f 257/1/6 241/1/6 258/1/6
f 242/1/6 243/1/6 259/1/6
f 258/2/6 242/2/6 259/2/6
f 243/2/6 244/2/6 260/2/6
f 259/1/6 243/1/6 260/1/6
f 244/1/6 245/1/6 261/1/6
f 260/2/6 244/2/6 261/2/6
f 245/2/6 246/2/6 262/2/6
f 261/1/6 245/1/6 262/1/6
f 246/1/6 247/1/6 263/1/6
f 262/2/6 246/2/6 263/2/6
f 247/2/6 248/2/6 264/2/6
f 263/1/6 247/1/6 264/1/6
f 248/1/6 249/1/6 265/1/6
f 264/2/6 248/2/6 265/2/6
f 249/2/6 250/2/6 266/2/6
f 265/1/6 249/1/6 266/1/6
f 250/1/6 251/1/6 267/1/6
f 266/2/6 250/2/6 267/2/6
f 251/2/6 252/2/6 268/2/6
f 267/1/6 251/1/6 268/1/6
f 268/2/6 252/2/6 269/2/6
f 253/2/6 254/2/6 271/2/6
f 271/2/6 254/2/6 272/2/6
f 269/2/6 270/2/6 287/2/6
f 287/2/6 270/2/6 288/2/6
f 272/2/6 273/2/6 289/2/6
f 273/1/6 274/1/6 290/1/6
f 289/2/6 273/2/6 290/2/6
f 274/2/6 275/2/6 291/2/6
f 290/1/6 274/1/6 291/1/6
f 275/1/6 276/1/6 292/1/6
f 291/2/6 275/2/6 292/2/6
f 276/2/6 277/2/6 293/2/6
f 292/1/6 276/1/6 293/1/6
f 277/1/6 278/1/6 294/1/6
f 293/2/6 277/2/6 294/2/6
f 278/2/6 279/2/6 295/2/6
f 294/1/6 278/1/6 295/1/6
f 279/1/6 280/1/6 296/1/6
f 295/2/6 279/2/6 296/2/6
f 280/2/6 281/2/6 297/2/6
f 296/1/6 280/1/6 297/1/6
f 281/1/6 282/1/6 298/1/6
f 297/2/6 281/2/6 298/2/6
f 282/2/6 283/2/6 299/2/6
f 298/1/6 282/1/6 299/1/6
f 283/1/6 284/1/6 300/1/6
f 299/2/6 283/2/6 300/2/6
f 284/2/6 285/2/6 301/2/6
f 300/1/6 284/1/6 301/1/6
f 285/1/6 286/1/6 302/1/6
f 301/2/6 285/2/6 302/2/6
f 286/2/6 287/2/6 303/2/6
f 302/1/6 286/1/6 303/1/6
f 303/2/6 287/2/6 304/2/6
f 305/2/6 306/2/6 321/2/6
f 306/1/6 307/1/6 322/1/6
f 321/2/6 306/2/6 322/2/6
f 307/2/6 308/2/6 323/2/6
f 322/1/6 307/1/6 323/1/6
f 308/1/6 309/1/6 324/1/6
f 323/2/6 308/2/6 324/2/6
f 309/2/6 310/2/6 325/2/6
f 324/1/6 309/1/6 325/1/6
f 310/1/6 311/1/6 326/1/6
f 325/2/6 310/2/6 326/2/6
f 311/2/6 312/2/6 327/2/6
f 326/1/6 311/1/6 327/1/6
f 312/1/6 313/1/6 328/1/6
f 327/2/6 312/2/6 328/2/6
f 313/2/6 314/2/6 329/2/6
f 328/1/6 313/1/6 329/1/6
f 314/1/6 315/1/6 330/1/6
f 329/2/6 314/2/6 330/2/6
f 315/2/6 316/2/6 331/2/6
f 330/1/6 315/1/6 331/1/6
f 316/1/6 317/1/6 332/1/6
f 331/2/6 316/2/6 332/2/6
f 317/2/6 318/2/6 333/2/6
f 332/1/6 317/1/6 333/1/6
f 318/1/6 319/1/6 334/1/6
f 333/2/6 318/2/6 334/2/6
f 319/2/6 320/2/6 335/2/6
f 334/1/6 319/1/6 335/1/6
f 335/2/6 320/2/6 336/2/6
