# Blender 4.2.3 LTS
# www.blender.org
mtllib Untitled.077.mtl
o Untitled.077
v -0.817021 4.400000 -0.043617
v -0.817021 4.400000 -0.143617
v -0.817021 4.500000 -0.043617
v -0.817021 4.500000 -0.143617
v -0.517021 4.000000 0.056383
v -0.517021 4.000000 -0.043617
v -0.517021 4.400000 -0.043617
v -0.517021 4.500000 -0.043617
v -0.517021 4.900000 0.056383
v -0.517021 4.900000 -0.043617
v -0.317021 4.200000 0.156383
v -0.317021 4.200000 0.056383
v -0.317021 4.300000 0.156383
v -0.317021 4.300000 0.056383
v -0.317021 4.400000 0.156383
v -0.317021 4.400000 0.056383
v -0.317021 4.500000 0.156383
v -0.317021 4.500000 0.056383
v -0.317021 4.600000 0.156383
v -0.317021 4.600000 0.056383
v -0.317021 4.700000 0.156383
v -0.317021 4.700000 0.056383
v 1.182979 0.000000 -0.043617
v 1.182979 0.000000 -0.143617
v 1.182979 0.800000 -0.043617
v 1.182979 0.800000 -0.143617
v 1.182979 4.400000 -0.043617
v 1.182979 4.400000 -0.143617
v -0.117021 4.200000 0.156383
v -0.117021 4.200000 0.056383
v -0.117021 4.300000 0.156383
v -0.117021 4.300000 0.056383
v -0.117021 4.400000 0.156383
v -0.117021 4.400000 0.056383
v -0.117021 4.500000 0.156383
v -0.117021 4.500000 0.056383
v -0.117021 4.600000 0.156383
v -0.117021 4.600000 0.056383
v -0.117021 4.700000 0.156383
v -0.117021 4.700000 0.056383
v 0.082979 4.000000 0.056383
v 0.082979 4.000000 -0.043617
v 0.082979 4.400000 -0.043617
v 0.082979 4.500000 -0.043617
v 0.082979 4.900000 0.056383
v 0.082979 4.900000 -0.043617
v 1.382979 0.000000 -0.043617
v 1.382979 0.000000 -0.143617
v 1.382979 0.800000 -0.043617
v 1.382979 0.800000 -0.143617
v 1.382979 4.500000 -0.043617
v 1.382979 4.500000 -0.143617
v -0.317021 4.200000 0.156383
v -0.317021 4.300000 0.156383
v -0.317021 4.400000 0.156383
v -0.317021 4.500000 0.156383
v -0.317021 4.600000 0.156383
v -0.317021 4.700000 0.156383
v -0.117021 4.200000 0.156383
v -0.117021 4.300000 0.156383
v -0.117021 4.400000 0.156383
v -0.117021 4.500000 0.156383
v -0.117021 4.600000 0.156383
v -0.117021 4.700000 0.156383
v -0.517021 4.000000 0.056383
v -0.517021 4.900000 0.056383
v -0.317021 4.200000 0.056383
v -0.317021 4.300000 0.056383
v -0.317021 4.400000 0.056383
v -0.317021 4.500000 0.056383
v -0.317021 4.600000 0.056383
v -0.317021 4.700000 0.056383
v -0.117021 4.200000 0.056383
v -0.117021 4.300000 0.056383
v -0.117021 4.400000 0.056383
v -0.117021 4.500000 0.056383
v -0.117021 4.600000 0.056383
v -0.117021 4.700000 0.056383
v 0.082979 4.000000 0.056383
v 0.082979 4.900000 0.056383
v -0.817021 4.400000 -0.043617
v -0.817021 4.500000 -0.043617
v -0.517021 4.400000 -0.043617
v -0.517021 4.500000 -0.043617
v 0.082979 4.400000 -0.043617
v 0.082979 4.500000 -0.043617
v 1.182979 0.000000 -0.043617
v 1.182979 0.800000 -0.043617
v 1.182979 4.400000 -0.043617
v 1.382979 0.000000 -0.043617
v 1.382979 0.800000 -0.043617
v 1.382979 4.500000 -0.043617
v -0.517021 4.000000 -0.043617
v -0.517021 4.400000 -0.043617
v -0.517021 4.500000 -0.043617
v -0.517021 4.900000 -0.043617
v -0.417021 4.400000 -0.043617
v -0.417021 4.500000 -0.043617
v -0.317021 4.400000 -0.043617
v -0.317021 4.500000 -0.043617
v -0.117021 4.400000 -0.043617
v -0.117021 4.500000 -0.043617
v -0.017021 4.400000 -0.043617
v -0.017021 4.500000 -0.043617
v 0.082979 4.000000 -0.043617
v 0.082979 4.400000 -0.043617
v 0.082979 4.500000 -0.043617
v 0.082979 4.900000 -0.043617
v -0.817021 4.400000 -0.143617
v -0.817021 4.500000 -0.143617
v -0.417021 4.400000 -0.143617
v -0.417021 4.500000 -0.143617
v -0.317021 4.400000 -0.143617
v -0.317021 4.500000 -0.143617
v -0.117021 4.400000 -0.143617
v -0.117021 4.500000 -0.143617
v -0.017021 4.400000 -0.143617
v -0.017021 4.500000 -0.143617
v 1.182979 0.000000 -0.143617
v 1.182979 0.800000 -0.143617
v 1.182979 4.400000 -0.143617
v 1.382979 0.000000 -0.143617
v 1.382979 0.800000 -0.143617
v 1.382979 4.500000 -0.143617
v 1.182979 0.000000 -0.043617
v 1.382979 0.000000 -0.043617
v 1.182979 0.000000 -0.143617
v 1.382979 0.000000 -0.143617
v -0.517021 4.000000 0.056383
v 0.082979 4.000000 0.056383
v -0.517021 4.000000 -0.043617
v 0.082979 4.000000 -0.043617
v -0.317021 4.200000 0.156383
v -0.117021 4.200000 0.156383
v -0.317021 4.200000 0.056383
v -0.117021 4.200000 0.056383
v -0.317021 4.400000 0.156383
v -0.117021 4.400000 0.156383
v -0.317021 4.400000 0.056383
v -0.117021 4.400000 0.056383
v -0.817021 4.400000 -0.043617
v -0.517021 4.400000 -0.043617
v -0.417021 4.400000 -0.043617
v -0.317021 4.400000 -0.043617
v -0.117021 4.400000 -0.043617
v -0.017021 4.400000 -0.043617
v 0.082979 4.400000 -0.043617
v 1.182979 4.400000 -0.043617
v -0.817021 4.400000 -0.143617
v -0.417021 4.400000 -0.143617
v -0.317021 4.400000 -0.143617
v -0.117021 4.400000 -0.143617
v -0.017021 4.400000 -0.143617
v 1.182979 4.400000 -0.143617
v -0.317021 4.600000 0.156383
v -0.117021 4.600000 0.156383
v -0.317021 4.600000 0.056383
v -0.117021 4.600000 0.056383
v -0.317021 4.300000 0.156383
v -0.117021 4.300000 0.156383
v -0.317021 4.300000 0.056383
v -0.117021 4.300000 0.056383
v -0.317021 4.500000 0.156383
v -0.117021 4.500000 0.156383
v -0.317021 4.500000 0.056383
v -0.117021 4.500000 0.056383
v -0.817021 4.500000 -0.043617
v -0.517021 4.500000 -0.043617
v -0.417021 4.500000 -0.043617
v -0.317021 4.500000 -0.043617
v -0.117021 4.500000 -0.043617
v -0.017021 4.500000 -0.043617
v 0.082979 4.500000 -0.043617
v 1.382979 4.500000 -0.043617
v -0.817021 4.500000 -0.143617
v -0.417021 4.500000 -0.143617
v -0.317021 4.500000 -0.143617
v -0.117021 4.500000 -0.143617
v -0.017021 4.500000 -0.143617
v 1.382979 4.500000 -0.143617
v -0.317021 4.700000 0.156383
v -0.117021 4.700000 0.156383
v -0.317021 4.700000 0.056383
v -0.117021 4.700000 0.056383
v -0.517021 4.900000 0.056383
v 0.082979 4.900000 0.056383
v -0.517021 4.900000 -0.043617
v 0.082979 4.900000 -0.043617
vn -1.0000 -0.0000 -0.0000
vn 1.0000 -0.0000 -0.0000
vn -0.0000 -0.0000 1.0000
vn -0.0000 -0.0000 -1.0000
vn -0.0000 -1.0000 -0.0000
vn -0.0000 1.0000 -0.0000
vt 0.978516 0.500000
vt 0.990234 0.500000
vt 0.767578 0.500000
vt 0.181641 0.500000
vt 0.849609 0.500000
vt 0.986328 0.500000
vt 0.970703 0.500000
s 0
usemtl palette.076
f 3/1/1 2/1/1 1/1/1
f 4/1/1 2/1/1 3/1/1
f 7/2/1 6/2/1 5/2/1
f 8/2/1 7/2/1 5/2/1
f 9/2/1 8/2/1 5/2/1
f 10/2/1 8/2/1 9/2/1
f 13/3/1 12/3/1 11/3/1
f 14/3/1 12/3/1 13/3/1
f 17/4/1 16/4/1 15/4/1
f 18/4/1 16/4/1 17/4/1
f 21/5/1 20/5/1 19/5/1
f 22/5/1 20/5/1 21/5/1
f 25/6/1 24/6/1 23/6/1
f 26/6/1 24/6/1 25/6/1
f 27/1/1 26/1/1 25/1/1
f 28/1/1 26/1/1 27/1/1
f 29/3/2 30/3/2 31/3/2
f 31/3/2 30/3/2 32/3/2
f 33/4/2 34/4/2 35/4/2
f 35/4/2 34/4/2 36/4/2
f 37/5/2 38/5/2 39/5/2
f 39/5/2 38/5/2 40/5/2
f 41/2/2 42/2/2 43/2/2
f 41/2/2 43/2/2 44/2/2
f 41/2/2 44/2/2 45/2/2
f 45/2/2 44/2/2 46/2/2
f 47/6/2 48/6/2 49/6/2
f 49/6/2 48/6/2 50/6/2
f 49/1/2 50/1/2 51/1/2
f 51/1/2 50/1/2 52/1/2
f 59/3/3 54/3/3 53/3/3
f 60/3/3 54/3/3 59/3/3
f 61/4/3 56/4/3 55/4/3
f 62/4/3 56/4/3 61/4/3
f 63/5/3 58/5/3 57/5/3
f 64/5/3 58/5/3 63/5/3
f 67/2/3 66/2/3 65/2/3
f 68/2/3 66/2/3 67/2/3
f 69/2/3 66/2/3 68/2/3
f 70/2/3 66/2/3 69/2/3
f 71/2/3 66/2/3 70/2/3
f 72/2/3 66/2/3 71/2/3
f 73/2/3 67/2/3 65/2/3
f 74/2/3 69/2/3 68/2/3
f 75/2/3 69/2/3 74/2/3
f 76/2/3 71/2/3 70/2/3
f 77/2/3 71/2/3 76/2/3
f 78/2/3 66/2/3 72/2/3
f 79/2/3 77/2/3 76/2/3
f 79/2/3 78/2/3 77/2/3
f 79/2/3 75/2/3 74/2/3
f 79/2/3 73/2/3 65/2/3
f 79/2/3 76/2/3 75/2/3
f 79/2/3 74/2/3 73/2/3
f 80/2/3 66/2/3 78/2/3
f 80/2/3 78/2/3 79/2/3
f 83/1/3 82/1/3 81/1/3
f 84/1/3 82/1/3 83/1/3
f 89/1/3 86/1/3 85/1/3
f 90/6/3 88/6/3 87/6/3
f 91/1/3 89/1/3 88/1/3
f 91/6/3 88/6/3 90/6/3
f 92/1/3 86/1/3 89/1/3
f 92/1/3 89/1/3 91/1/3
f 93/2/4 94/2/4 97/2/4
f 95/2/4 96/2/4 98/2/4
f 93/2/4 97/2/4 99/2/4
f 98/2/4 96/2/4 100/2/4
f 93/2/4 99/2/4 101/2/4
f 100/2/4 96/2/4 102/2/4
f 93/2/4 101/2/4 103/2/4
f 102/2/4 96/2/4 104/2/4
f 93/2/4 103/2/4 105/2/4
f 105/2/4 103/2/4 106/2/4
f 104/2/4 96/2/4 107/2/4
f 107/2/4 96/2/4 108/2/4
f 109/1/4 110/1/4 111/1/4
f 111/1/4 110/1/4 112/1/4
f 111/7/4 112/7/4 113/7/4
f 113/7/4 112/7/4 114/7/4
f 113/1/4 114/1/4 115/1/4
f 115/1/4 114/1/4 116/1/4
f 115/7/4 116/7/4 117/7/4
f 117/7/4 116/7/4 118/7/4
f 117/1/4 118/1/4 121/1/4
f 119/6/4 120/6/4 122/6/4
f 120/1/4 121/1/4 123/1/4
f 122/6/4 120/6/4 123/6/4
f 121/1/4 118/1/4 124/1/4
f 123/1/4 121/1/4 124/1/4
f 127/6/5 126/6/5 125/6/5
f 128/6/5 126/6/5 127/6/5
f 131/2/5 130/2/5 129/2/5
f 132/2/5 130/2/5 131/2/5
f 135/3/5 134/3/5 133/3/5
f 136/3/5 134/3/5 135/3/5
f 139/4/5 138/4/5 137/4/5
f 140/4/5 138/4/5 139/4/5
f 149/1/5 142/1/5 141/1/5
f 149/1/5 143/1/5 142/1/5
f 150/7/5 144/7/5 143/7/5
f 150/1/5 143/1/5 149/1/5
f 151/1/5 145/1/5 144/1/5
f 151/7/5 144/7/5 150/7/5
f 152/7/5 146/7/5 145/7/5
f 152/1/5 145/1/5 151/1/5
f 153/1/5 148/1/5 147/1/5
f 153/7/5 146/7/5 152/7/5
f 153/1/5 147/1/5 146/1/5
f 154/1/5 148/1/5 153/1/5
f 157/5/5 156/5/5 155/5/5
f 158/5/5 156/5/5 157/5/5
f 159/3/6 160/3/6 161/3/6
f 161/3/6 160/3/6 162/3/6
f 163/4/6 164/4/6 165/4/6
f 165/4/6 164/4/6 166/4/6
f 167/1/6 168/1/6 175/1/6
f 168/1/6 169/1/6 175/1/6
f 169/7/6 170/7/6 176/7/6
f 175/1/6 169/1/6 176/1/6
f 170/1/6 171/1/6 177/1/6
f 176/7/6 170/7/6 177/7/6
f 171/7/6 172/7/6 178/7/6
f 177/1/6 171/1/6 178/1/6
f 173/1/6 174/1/6 179/1/6
f 178/7/6 172/7/6 179/7/6
f 172/1/6 173/1/6 179/1/6
f 179/1/6 174/1/6 180/1/6
f 181/5/6 182/5/6 183/5/6
f 183/5/6 182/5/6 184/5/6
f 185/2/6 186/2/6 187/2/6
f 187/2/6 186/2/6 188/2/6
