# MagicaVoxel @ Ephtracy

# group
o 

# material
mtllib zaspa2.mtl
usemtl palette

# normals
vn -1 0 0
vn 1 0 0
vn 0 0 1
vn 0 0 -1
vn 0 -1 0
vn 0 1 0

# texcoords
vt 0.779297 0.5
vt 0.958984 0.5
vt 0.962891 0.5
vt 0.966797 0.5

# verts
v -0.3 0 0.5
v -0.3 0 0.3
v -0.3 0.1 0.5
v -0.3 0.1 0.3
v -0.2 0 0.6
v -0.2 0 0.5
v -0.2 0.1 0.6
v -0.2 0.1 0.5
v -0.2 0.1 0.4
v -0.2 0.2 0.5
v -0.2 0.2 0.4
v -0.1 0 0.3
v -0.1 0 0.2
v -0.1 0.1 0.6
v -0.1 0.1 0.5
v -0.1 0.1 0.4
v -0.1 0.1 0.3
v -0.1 0.1 0.2
v -0.1 0.2 0.6
v -0.1 0.2 0.5
v -0.1 0.2 0.4
v -0.1 0.2 0.3
v 0 0.1 0.6
v 0 0.1 0.5
v 0 0.2 0.6
v 0 0.2 0.5
v 0.2 0 0.6
v 0.2 0 0.5
v 0.2 0 0.3
v 0.2 0 0.2
v 0.2 0.1 0.6
v 0.2 0.1 0.5
v 0.2 0.1 0.4
v 0.2 0.1 0.3
v 0.2 0.1 0.2
v 0.2 0.2 0.5
v 0.2 0.2 0.4
v 0.2 0.2 0.3
v 0.3 0 0.5
v 0.3 0 0.4
v 0.3 0 0.3
v 0.3 0.1 0.5
v 0.3 0.1 0.4
v 0.3 0.1 0.3
v -0.2 0 0.6
v -0.2 0.1 0.6
v -0.1 0 0.6
v -0.1 0.1 0.6
v -0.1 0.2 0.6
v 0 0.1 0.6
v 0 0.2 0.6
v 0.1 0 0.6
v 0.1 0.1 0.6
v 0.2 0 0.6
v 0.2 0.1 0.6
v -0.3 0 0.5
v -0.3 0.1 0.5
v -0.2 0 0.5
v -0.2 0.1 0.5
v -0.2 0.2 0.5
v -0.1 0.1 0.5
v -0.1 0.2 0.5
v 0 0.1 0.5
v 0 0.2 0.5
v 0.1 0.1 0.5
v 0.2 0 0.5
v 0.2 0.1 0.5
v 0.2 0.2 0.5
v 0.3 0 0.5
v 0.3 0.1 0.5
v -0.2 0.1 0.4
v -0.2 0.2 0.4
v -0.1 0.1 0.4
v -0.1 0.2 0.4
v -0.3 0 0.3
v -0.3 0.1 0.3
v -0.2 0 0.3
v -0.2 0.1 0.3
v -0.1 0 0.3
v -0.1 0.1 0.3
v -0.1 0.2 0.3
v 0.1 0.1 0.3
v 0.1 0.2 0.3
v 0.2 0 0.3
v 0.2 0.1 0.3
v 0.2 0.2 0.3
v 0.3 0 0.3
v 0.3 0.1 0.3
v -0.1 0 0.2
v -0.1 0.1 0.2
v 0.1 0 0.2
v 0.1 0.1 0.2
v 0.2 0 0.2
v 0.2 0.1 0.2
v -0.2 0 0.6
v -0.1 0 0.6
v 0.1 0 0.6
v 0.2 0 0.6
v -0.3 0 0.5
v -0.2 0 0.5
v -0.1 0 0.5
v 0 0 0.5
v 0.1 0 0.5
v 0.2 0 0.5
v 0.3 0 0.5
v -0.2 0 0.4
v -0.1 0 0.4
v 0.1 0 0.4
v 0.2 0 0.4
v 0.3 0 0.4
v -0.3 0 0.3
v -0.2 0 0.3
v -0.1 0 0.3
v 0 0 0.3
v 0.1 0 0.3
v 0.2 0 0.3
v 0.3 0 0.3
v -0.1 0 0.2
v 0.1 0 0.2
v 0.2 0 0.2
v -0.2 0.1 0.6
v -0.1 0.1 0.6
v 0 0.1 0.6
v 0.1 0.1 0.6
v 0.2 0.1 0.6
v -0.3 0.1 0.5
v -0.2 0.1 0.5
v -0.1 0.1 0.5
v 0 0.1 0.5
v 0.1 0.1 0.5
v 0.2 0.1 0.5
v 0.3 0.1 0.5
v -0.2 0.1 0.4
v -0.1 0.1 0.4
v 0.2 0.1 0.4
v 0.3 0.1 0.4
v -0.3 0.1 0.3
v -0.2 0.1 0.3
v -0.1 0.1 0.3
v 0.1 0.1 0.3
v 0.2 0.1 0.3
v 0.3 0.1 0.3
v -0.1 0.1 0.2
v 0.1 0.1 0.2
v 0.2 0.1 0.2
v -0.1 0.2 0.6
v 0 0.2 0.6
v -0.2 0.2 0.5
v -0.1 0.2 0.5
v 0 0.2 0.5
v 0.2 0.2 0.5
v -0.2 0.2 0.4
v -0.1 0.2 0.4
v 0 0.2 0.4
v 0.1 0.2 0.4
v 0.2 0.2 0.4
v -0.1 0.2 0.3
v 0.1 0.2 0.3
v 0.2 0.2 0.3

# faces
f 3/3/1 2/3/1 1/3/1
f 4/3/1 2/3/1 3/3/1
f 7/3/1 6/3/1 5/3/1
f 8/3/1 6/3/1 7/3/1
f 10/2/1 9/2/1 8/2/1
f 11/2/1 9/2/1 10/2/1
f 17/2/1 13/2/1 12/2/1
f 18/2/1 13/2/1 17/2/1
f 19/2/1 15/2/1 14/2/1
f 20/2/1 15/2/1 19/2/1
f 21/3/1 17/3/1 16/3/1
f 22/3/1 17/3/1 21/3/1
f 23/2/2 24/2/2 25/2/2
f 25/2/2 24/2/2 26/2/2
f 27/3/2 28/3/2 31/3/2
f 31/3/2 28/3/2 32/3/2
f 29/4/2 30/4/2 34/4/2
f 34/4/2 30/4/2 35/4/2
f 32/3/2 33/3/2 36/3/2
f 33/2/2 34/2/2 37/2/2
f 36/3/2 33/3/2 37/3/2
f 37/2/2 34/2/2 38/2/2
f 39/1/2 40/1/2 42/1/2
f 40/2/2 41/2/2 43/2/2
f 42/1/2 40/1/2 43/1/2
f 43/2/2 41/2/2 44/2/2
f 47/3/3 46/3/3 45/3/3
f 48/3/3 46/3/3 47/3/3
f 50/4/3 48/4/3 47/4/3
f 50/2/3 49/2/3 48/2/3
f 51/2/3 49/2/3 50/2/3
f 52/4/3 50/4/3 47/4/3
f 53/4/3 50/4/3 52/4/3
f 54/3/3 53/3/3 52/3/3
f 55/3/3 53/3/3 54/3/3
f 58/3/3 57/3/3 56/3/3
f 59/3/3 57/3/3 58/3/3
f 61/2/3 60/2/3 59/2/3
f 62/2/3 60/2/3 61/2/3
f 65/3/3 64/3/3 63/3/3
f 67/3/3 64/3/3 65/3/3
f 68/3/3 64/3/3 67/3/3
f 69/1/3 67/1/3 66/1/3
f 70/1/3 67/1/3 69/1/3
f 71/2/4 72/2/4 73/2/4
f 73/2/4 72/2/4 74/2/4
f 75/3/4 76/3/4 77/3/4
f 77/3/4 76/3/4 78/3/4
f 77/2/4 78/2/4 79/2/4
f 79/2/4 78/2/4 80/2/4
f 80/3/4 81/3/4 82/3/4
f 82/3/4 81/3/4 83/3/4
f 82/2/4 83/2/4 85/2/4
f 85/2/4 83/2/4 86/2/4
f 84/2/4 85/2/4 87/2/4
f 87/2/4 85/2/4 88/2/4
f 89/2/4 90/2/4 91/2/4
f 91/2/4 90/2/4 92/2/4
f 91/4/4 92/4/4 93/4/4
f 93/4/4 92/4/4 94/4/4
f 100/3/5 96/3/5 95/3/5
f 101/4/5 97/4/5 96/4/5
f 101/3/5 96/3/5 100/3/5
f 102/4/5 97/4/5 101/4/5
f 103/3/5 98/3/5 97/3/5
f 103/4/5 97/4/5 102/4/5
f 104/3/5 98/3/5 103/3/5
f 106/3/5 100/3/5 99/3/5
f 106/3/5 101/3/5 100/3/5
f 107/2/5 102/2/5 101/2/5
f 107/3/5 101/3/5 106/3/5
f 108/1/5 105/1/5 104/1/5
f 108/1/5 104/1/5 103/1/5
f 108/4/5 103/4/5 102/4/5
f 109/1/5 105/1/5 108/1/5
f 110/1/5 105/1/5 109/1/5
f 111/3/5 106/3/5 99/3/5
f 112/2/5 107/2/5 106/2/5
f 112/3/5 106/3/5 111/3/5
f 113/2/5 102/2/5 107/2/5
f 113/2/5 107/2/5 112/2/5
f 114/4/5 108/4/5 102/4/5
f 114/2/5 102/2/5 113/2/5
f 114/4/5 109/4/5 108/4/5
f 115/4/5 109/4/5 114/4/5
f 116/2/5 110/2/5 109/2/5
f 116/4/5 109/4/5 115/4/5
f 117/2/5 110/2/5 116/2/5
f 118/2/5 115/2/5 114/2/5
f 118/2/5 114/2/5 113/2/5
f 119/4/5 116/4/5 115/4/5
f 119/2/5 115/2/5 118/2/5
f 120/4/5 116/4/5 119/4/5
f 121/3/6 122/3/6 127/3/6
f 127/3/6 122/3/6 128/3/6
f 123/4/6 124/4/6 129/4/6
f 124/3/6 125/3/6 130/3/6
f 129/4/6 124/4/6 130/4/6
f 130/3/6 125/3/6 131/3/6
f 126/3/6 127/3/6 133/3/6
f 131/1/6 132/1/6 135/1/6
f 135/1/6 132/1/6 136/1/6
f 126/3/6 133/3/6 137/3/6
f 133/2/6 134/2/6 138/2/6
f 137/3/6 133/3/6 138/3/6
f 138/2/6 134/2/6 139/2/6
f 135/2/6 136/2/6 141/2/6
f 141/2/6 136/2/6 142/2/6
f 139/2/6 140/2/6 143/2/6
f 140/4/6 141/4/6 144/4/6
f 143/2/6 140/2/6 144/2/6
f 144/4/6 141/4/6 145/4/6
f 146/2/6 147/2/6 149/2/6
f 149/2/6 147/2/6 150/2/6
f 148/2/6 149/2/6 152/2/6
f 149/2/6 150/2/6 152/2/6
f 152/2/6 150/2/6 153/2/6
f 150/3/6 151/3/6 154/3/6
f 153/2/6 150/2/6 154/2/6
f 154/3/6 151/3/6 155/3/6
f 155/3/6 151/3/6 156/3/6
f 153/3/6 154/3/6 157/3/6
f 154/3/6 155/3/6 157/3/6
f 155/2/6 156/2/6 158/2/6
f 157/3/6 155/3/6 158/3/6
f 158/2/6 156/2/6 159/2/6
