# MagicaVoxel @ Ephtracy

# group
o 

# material
mtllib zaspa1.mtl
usemtl palette

# normals
vn -1 0 0
vn 1 0 0
vn 0 0 1
vn 0 0 -1
vn 0 -1 0
vn 0 1 0

# texcoords
vt 0.779297 0.5
vt 0.958984 0.5
vt 0.962891 0.5
vt 0.966797 0.5

# verts
v -0.3 0 -0.1
v -0.3 0 -0.2
v -0.3 0.1 -0.1
v -0.3 0.1 -0.2
v -0.2 0 0
v -0.2 0 -0.1
v -0.2 0.1 0
v -0.2 0.1 -0.1
v -0.1 0 0.2
v -0.1 0 0
v -0.1 0 -0.2
v -0.1 0 -0.3
v -0.1 0 -0.4
v -0.1 0 -0.5
v -0.1 0.1 0.2
v -0.1 0.1 0
v -0.1 0.1 -0.1
v -0.1 0.1 -0.2
v -0.1 0.1 -0.3
v -0.1 0.1 -0.4
v -0.1 0.1 -0.5
v -0.1 0.2 0
v -0.1 0.2 -0.1
v -0.1 0.2 -0.2
v 0 0 0.3
v 0 0 0.2
v 0 0 -0.3
v 0 0 -0.4
v 0 0 -0.5
v 0 0 -0.6
v 0 0.1 0.3
v 0 0.1 0.2
v 0 0.1 0.1
v 0 0.1 0
v 0 0.1 -0.2
v 0 0.1 -0.3
v 0 0.1 -0.4
v 0 0.1 -0.5
v 0 0.1 -0.6
v 0 0.2 0.1
v 0 0.2 0
v 0 0.2 -0.2
v 0 0.2 -0.3
v 0.1 0.1 -0.3
v 0.1 0.1 -0.5
v 0.1 0.2 -0.3
v 0.1 0.2 -0.5
v 0.2 0 -0.6
v 0.2 0 -0.7
v 0.2 0.1 -0.6
v 0.2 0.1 -0.7
v 0.6 0 -0.4
v 0.6 0 -0.5
v 0.6 0.1 -0.4
v 0.6 0.1 -0.5
v 0.7 0 -0.3
v 0.7 0 -0.4
v 0.7 0 -0.5
v 0.7 0 -0.6
v 0.7 0.1 -0.3
v 0.7 0.1 -0.4
v 0.7 0.1 -0.5
v 0.7 0.1 -0.6
v 0.1 0 0.3
v 0.1 0 0.2
v 0.1 0.1 0.3
v 0.1 0.1 0.2
v 0.1 0.1 0.1
v 0.1 0.1 0
v 0.1 0.2 0.1
v 0.1 0.2 0
v 0.2 0 0.2
v 0.2 0 0.1
v 0.2 0.1 0.2
v 0.2 0.1 0.1
v 0.3 0 -0.5
v 0.3 0 -0.7
v 0.3 0.1 0
v 0.3 0.1 -0.1
v 0.3 0.1 -0.4
v 0.3 0.1 -0.5
v 0.3 0.1 -0.7
v 0.3 0.2 0
v 0.3 0.2 -0.1
v 0.3 0.2 -0.4
v 0.3 0.2 -0.5
v 0.4 0 0.1
v 0.4 0 0
v 0.4 0 -0.1
v 0.4 0 -0.4
v 0.4 0 -0.5
v 0.4 0.1 0.1
v 0.4 0.1 0
v 0.4 0.1 -0.1
v 0.4 0.1 -0.2
v 0.4 0.1 -0.4
v 0.4 0.1 -0.5
v 0.4 0.2 -0.1
v 0.4 0.2 -0.2
v 0.4 0.2 -0.4
v 0.5 0 -0.1
v 0.5 0 -0.4
v 0.5 0.1 -0.1
v 0.5 0.1 -0.4
v 0.8 0 -0.3
v 0.8 0 -0.4
v 0.8 0 -0.5
v 0.8 0.1 -0.3
v 0.8 0.1 -0.4
v 0.8 0.1 -0.5
v 0.9 0 -0.5
v 0.9 0 -0.6
v 0.9 0.1 -0.5
v 0.9 0.1 -0.6
v 0 0 0.3
v 0 0.1 0.3
v 0.1 0 0.3
v 0.1 0.1 0.3
v -0.1 0 0.2
v -0.1 0.1 0.2
v 0 0 0.2
v 0 0.1 0.2
v 0.1 0 0.2
v 0.1 0.1 0.2
v 0.2 0 0.2
v 0.2 0.1 0.2
v 0 0.1 0.1
v 0 0.2 0.1
v 0.1 0.1 0.1
v 0.1 0.2 0.1
v 0.2 0 0.1
v 0.2 0.1 0.1
v 0.3 0 0.1
v 0.3 0.1 0.1
v 0.4 0 0.1
v 0.4 0.1 0.1
v -0.2 0 0
v -0.2 0.1 0
v -0.1 0 0
v -0.1 0.1 0
v -0.1 0.2 0
v 0 0.1 0
v 0 0.2 0
v 0.1 0.1 0
v 0.1 0.2 0
v 0.2 0.1 0
v 0.2 0.2 0
v 0.3 0.1 0
v 0.3 0.2 0
v -0.3 0 -0.1
v -0.3 0.1 -0.1
v -0.2 0 -0.1
v -0.2 0.1 -0.1
v 0.3 0.1 -0.1
v 0.3 0.2 -0.1
v 0.4 0 -0.1
v 0.4 0.1 -0.1
v 0.4 0.2 -0.1
v 0.5 0 -0.1
v 0.5 0.1 -0.1
v 0.7 0 -0.3
v 0.7 0.1 -0.3
v 0.8 0 -0.3
v 0.8 0.1 -0.3
v -0.1 0 -0.4
v -0.1 0.1 -0.4
v 0 0 -0.4
v 0 0.1 -0.4
v 0.6 0 -0.4
v 0.6 0.1 -0.4
v 0.7 0 -0.4
v 0.7 0.1 -0.4
v 0.8 0 -0.5
v 0.8 0.1 -0.5
v 0.9 0 -0.5
v 0.9 0.1 -0.5
v -0.3 0 -0.2
v -0.3 0.1 -0.2
v -0.2 0 -0.2
v -0.2 0.1 -0.2
v -0.1 0 -0.2
v -0.1 0.1 -0.2
v -0.1 0.2 -0.2
v 0 0.1 -0.2
v 0 0.2 -0.2
v -0.1 0 -0.3
v -0.1 0.1 -0.3
v 0 0 -0.3
v 0 0.1 -0.3
v 0 0.2 -0.3
v 0.1 0.1 -0.3
v 0.1 0.2 -0.3
v 0.3 0.1 -0.4
v 0.3 0.2 -0.4
v 0.4 0 -0.4
v 0.4 0.1 -0.4
v 0.4 0.2 -0.4
v 0.5 0 -0.4
v 0.5 0.1 -0.4
v -0.1 0 -0.5
v -0.1 0.1 -0.5
v 0 0 -0.5
v 0 0.1 -0.5
v 0.1 0.1 -0.5
v 0.1 0.2 -0.5
v 0.2 0.1 -0.5
v 0.2 0.2 -0.5
v 0.3 0 -0.5
v 0.3 0.1 -0.5
v 0.3 0.2 -0.5
v 0.4 0 -0.5
v 0.4 0.1 -0.5
v 0.6 0 -0.5
v 0.6 0.1 -0.5
v 0.7 0 -0.5
v 0.7 0.1 -0.5
v 0 0 -0.6
v 0 0.1 -0.6
v 0.1 0 -0.6
v 0.1 0.1 -0.6
v 0.2 0 -0.6
v 0.2 0.1 -0.6
v 0.7 0 -0.6
v 0.7 0.1 -0.6
v 0.9 0 -0.6
v 0.9 0.1 -0.6
v 0.2 0 -0.7
v 0.2 0.1 -0.7
v 0.3 0 -0.7
v 0.3 0.1 -0.7
v 0 0 0.3
v 0.1 0 0.3
v -0.1 0 0.2
v 0 0 0.2
v 0.1 0 0.2
v 0.2 0 0.2
v 0 0 0.1
v 0.1 0 0.1
v 0.2 0 0.1
v 0.3 0 0.1
v 0.4 0 0.1
v -0.2 0 0
v -0.1 0 0
v 0.3 0 0
v 0.4 0 0
v -0.3 0 -0.1
v -0.2 0 -0.1
v -0.1 0 -0.1
v 0 0 -0.1
v 0.3 0 -0.1
v 0.4 0 -0.1
v 0.5 0 -0.1
v -0.3 0 -0.2
v -0.2 0 -0.2
v -0.1 0 -0.2
v 0 0 -0.2
v -0.1 0 -0.3
v 0 0 -0.3
v 0.1 0 -0.3
v 0.2 0 -0.3
v 0.3 0 -0.3
v 0.7 0 -0.3
v 0.8 0 -0.3
v -0.1 0 -0.4
v 0 0 -0.4
v 0.3 0 -0.4
v 0.4 0 -0.4
v 0.5 0 -0.4
v 0.6 0 -0.4
v 0.7 0 -0.4
v 0.8 0 -0.4
v -0.1 0 -0.5
v 0 0 -0.5
v 0.1 0 -0.5
v 0.3 0 -0.5
v 0.4 0 -0.5
v 0.6 0 -0.5
v 0.7 0 -0.5
v 0.8 0 -0.5
v 0.9 0 -0.5
v 0 0 -0.6
v 0.1 0 -0.6
v 0.2 0 -0.6
v 0.7 0 -0.6
v 0.9 0 -0.6
v 0.2 0 -0.7
v 0.3 0 -0.7
v 0 0.1 0.3
v 0.1 0.1 0.3
v -0.1 0.1 0.2
v 0 0.1 0.2
v 0.1 0.1 0.2
v 0.2 0.1 0.2
v 0 0.1 0.1
v 0.1 0.1 0.1
v 0.2 0.1 0.1
v 0.3 0.1 0.1
v 0.4 0.1 0.1
v -0.2 0.1 0
v -0.1 0.1 0
v 0 0.1 0
v 0.1 0.1 0
v 0.2 0.1 0
v 0.3 0.1 0
v 0.4 0.1 0
v -0.3 0.1 -0.1
v -0.2 0.1 -0.1
v -0.1 0.1 -0.1
v 0.3 0.1 -0.1
v 0.4 0.1 -0.1
v 0.5 0.1 -0.1
v -0.3 0.1 -0.2
v -0.2 0.1 -0.2
v -0.1 0.1 -0.2
v 0 0.1 -0.2
v 0.4 0.1 -0.2
v -0.1 0.1 -0.3
v 0 0.1 -0.3
v 0.1 0.1 -0.3
v 0.7 0.1 -0.3
v 0.8 0.1 -0.3
v -0.1 0.1 -0.4
v 0 0.1 -0.4
v 0.3 0.1 -0.4
v 0.4 0.1 -0.4
v 0.5 0.1 -0.4
v 0.6 0.1 -0.4
v 0.7 0.1 -0.4
v 0.8 0.1 -0.4
v -0.1 0.1 -0.5
v 0 0.1 -0.5
v 0.1 0.1 -0.5
v 0.2 0.1 -0.5
v 0.3 0.1 -0.5
v 0.4 0.1 -0.5
v 0.6 0.1 -0.5
v 0.7 0.1 -0.5
v 0.8 0.1 -0.5
v 0.9 0.1 -0.5
v 0 0.1 -0.6
v 0.1 0.1 -0.6
v 0.2 0.1 -0.6
v 0.7 0.1 -0.6
v 0.9 0.1 -0.6
v 0.2 0.1 -0.7
v 0.3 0.1 -0.7
v 0 0.2 0.1
v 0.1 0.2 0.1
v -0.1 0.2 0
v 0 0.2 0
v 0.1 0.2 0
v 0.2 0.2 0
v 0.3 0.2 0
v -0.1 0.2 -0.1
v 0 0.2 -0.1
v 0.2 0.2 -0.1
v 0.3 0.2 -0.1
v 0.4 0.2 -0.1
v -0.1 0.2 -0.2
v 0 0.2 -0.2
v 0.1 0.2 -0.2
v 0.3 0.2 -0.2
v 0.4 0.2 -0.2
v 0 0.2 -0.3
v 0.1 0.2 -0.3
v 0.2 0.2 -0.3
v 0.3 0.2 -0.4
v 0.4 0.2 -0.4
v 0.1 0.2 -0.5
v 0.2 0.2 -0.5
v 0.3 0.2 -0.5

# faces
f 3/2/1 2/2/1 1/2/1
f 4/2/1 2/2/1 3/2/1
f 7/2/1 6/2/1 5/2/1
f 8/2/1 6/2/1 7/2/1
f 15/3/1 10/3/1 9/3/1
f 16/3/1 10/3/1 15/3/1
f 18/4/1 12/4/1 11/4/1
f 19/4/1 12/4/1 18/4/1
f 20/1/1 14/1/1 13/1/1
f 21/1/1 14/1/1 20/1/1
f 22/4/1 17/4/1 16/4/1
f 23/2/1 18/2/1 17/2/1
f 23/4/1 17/4/1 22/4/1
f 24/2/1 18/2/1 23/2/1
f 31/3/1 26/3/1 25/3/1
f 32/3/1 26/3/1 31/3/1
f 36/4/1 28/4/1 27/4/1
f 37/4/1 28/4/1 36/4/1
f 38/3/1 30/3/1 29/3/1
f 39/3/1 30/3/1 38/3/1
f 40/2/1 34/2/1 33/2/1
f 41/2/1 34/2/1 40/2/1
f 42/2/1 36/2/1 35/2/1
f 43/2/1 36/2/1 42/2/1
f 46/3/1 45/3/1 44/3/1
f 47/3/1 45/3/1 46/3/1
f 50/4/1 49/4/1 48/4/1
f 51/4/1 49/4/1 50/4/1
f 54/2/1 53/2/1 52/2/1
f 55/2/1 53/2/1 54/2/1
f 60/3/1 57/3/1 56/3/1
f 61/3/1 57/3/1 60/3/1
f 62/2/1 59/2/1 58/2/1
f 63/2/1 59/2/1 62/2/1
f 64/3/2 65/3/2 66/3/2
f 66/3/2 65/3/2 67/3/2
f 68/2/2 69/2/2 70/2/2
f 70/2/2 69/2/2 71/2/2
f 72/2/2 73/2/2 74/2/2
f 74/2/2 73/2/2 75/2/2
f 76/4/2 77/4/2 81/4/2
f 81/4/2 77/4/2 82/4/2
f 78/3/2 79/3/2 83/3/2
f 83/3/2 79/3/2 84/3/2
f 80/2/2 81/2/2 85/2/2
f 85/2/2 81/2/2 86/2/2
f 87/1/2 88/1/2 92/1/2
f 88/4/2 89/4/2 93/4/2
f 92/1/2 88/1/2 93/1/2
f 93/4/2 89/4/2 94/4/2
f 90/4/2 91/4/2 96/4/2
f 96/4/2 91/4/2 97/4/2
f 94/1/2 95/1/2 98/1/2
f 95/2/2 96/2/2 99/2/2
f 98/1/2 95/1/2 99/1/2
f 99/2/2 96/2/2 100/2/2
f 101/3/2 102/3/2 103/3/2
f 103/3/2 102/3/2 104/3/2
f 105/3/2 106/3/2 108/3/2
f 106/2/2 107/2/2 109/2/2
f 108/3/2 106/3/2 109/3/2
f 109/2/2 107/2/2 110/2/2
f 111/2/2 112/2/2 113/2/2
f 113/2/2 112/2/2 114/2/2
f 117/3/3 116/3/3 115/3/3
f 118/3/3 116/3/3 117/3/3
f 121/3/3 120/3/3 119/3/3
f 122/3/3 120/3/3 121/3/3
f 125/2/3 124/2/3 123/2/3
f 126/2/3 124/2/3 125/2/3
f 129/2/3 128/2/3 127/2/3
f 130/2/3 128/2/3 129/2/3
f 133/3/3 132/3/3 131/3/3
f 134/3/3 132/3/3 133/3/3
f 135/1/3 134/1/3 133/1/3
f 136/1/3 134/1/3 135/1/3
f 139/2/3 138/2/3 137/2/3
f 140/2/3 138/2/3 139/2/3
f 142/4/3 141/4/3 140/4/3
f 143/4/3 141/4/3 142/4/3
f 146/2/3 145/2/3 144/2/3
f 147/2/3 145/2/3 146/2/3
f 148/3/3 147/3/3 146/3/3
f 149/3/3 147/3/3 148/3/3
f 152/2/3 151/2/3 150/2/3
f 153/2/3 151/2/3 152/2/3
f 157/1/3 155/1/3 154/1/3
f 158/1/3 155/1/3 157/1/3
f 159/3/3 157/3/3 156/3/3
f 160/3/3 157/3/3 159/3/3
f 163/3/3 162/3/3 161/3/3
f 164/3/3 162/3/3 163/3/3
f 167/1/3 166/1/3 165/1/3
f 168/1/3 166/1/3 167/1/3
f 171/2/3 170/2/3 169/2/3
f 172/2/3 170/2/3 171/2/3
f 175/2/3 174/2/3 173/2/3
f 176/2/3 174/2/3 175/2/3
f 177/2/4 178/2/4 179/2/4
f 179/2/4 178/2/4 180/2/4
f 179/4/4 180/4/4 181/4/4
f 181/4/4 180/4/4 182/4/4
f 182/2/4 183/2/4 184/2/4
f 184/2/4 183/2/4 185/2/4
f 186/4/4 187/4/4 188/4/4
f 188/4/4 187/4/4 189/4/4
f 189/2/4 190/2/4 191/2/4
f 191/2/4 190/2/4 192/2/4
f 193/2/4 194/2/4 196/2/4
f 196/2/4 194/2/4 197/2/4
f 195/3/4 196/3/4 198/3/4
f 198/3/4 196/3/4 199/3/4
f 200/1/4 201/1/4 202/1/4
f 202/1/4 201/1/4 203/1/4
f 204/3/4 205/3/4 206/3/4
f 206/3/4 205/3/4 207/3/4
f 206/2/4 207/2/4 209/2/4
f 209/2/4 207/2/4 210/2/4
f 208/4/4 209/4/4 211/4/4
f 211/4/4 209/4/4 212/4/4
f 213/2/4 214/2/4 215/2/4
f 215/2/4 214/2/4 216/2/4
f 217/3/4 218/3/4 219/3/4
f 219/3/4 218/3/4 220/3/4
f 219/2/4 220/2/4 221/2/4
f 221/2/4 220/2/4 222/2/4
f 223/2/4 224/2/4 225/2/4
f 225/2/4 224/2/4 226/2/4
f 227/4/4 228/4/4 229/4/4
f 229/4/4 228/4/4 230/4/4
f 234/3/5 232/3/5 231/3/5
f 235/3/5 232/3/5 234/3/5
f 237/3/5 234/3/5 233/3/5
f 237/3/5 235/3/5 234/3/5
f 238/2/5 236/2/5 235/2/5
f 238/3/5 235/3/5 237/3/5
f 239/2/5 236/2/5 238/2/5
f 243/3/5 237/3/5 233/3/5
f 244/1/5 241/1/5 240/1/5
f 244/3/5 240/3/5 239/3/5
f 245/1/5 241/1/5 244/1/5
f 247/2/5 243/2/5 242/2/5
f 248/3/5 237/3/5 243/3/5
f 248/2/5 243/2/5 247/2/5
f 249/2/5 238/2/5 237/2/5
f 249/3/5 237/3/5 248/3/5
f 249/2/5 239/2/5 238/2/5
f 250/3/5 244/3/5 239/3/5
f 250/4/5 245/4/5 244/4/5
f 251/4/5 245/4/5 250/4/5
f 253/2/5 247/2/5 246/2/5
f 254/4/5 248/4/5 247/4/5
f 254/2/5 247/2/5 253/2/5
f 255/2/5 249/2/5 248/2/5
f 255/4/5 248/4/5 254/4/5
f 256/2/5 239/2/5 249/2/5
f 256/2/5 249/2/5 255/2/5
f 257/4/5 256/4/5 255/4/5
f 258/2/5 239/2/5 256/2/5
f 258/4/5 256/4/5 257/4/5
f 259/2/5 239/2/5 258/2/5
f 260/3/5 251/3/5 250/3/5
f 260/2/5 239/2/5 259/2/5
f 260/3/5 252/3/5 251/3/5
f 260/3/5 250/3/5 239/3/5
f 261/3/5 252/3/5 260/3/5
f 265/4/5 259/4/5 258/4/5
f 266/3/5 252/3/5 261/3/5
f 266/4/5 261/4/5 260/4/5
f 267/3/5 252/3/5 266/3/5
f 268/3/5 252/3/5 267/3/5
f 270/3/5 263/3/5 262/3/5
f 271/3/5 263/3/5 270/3/5
f 272/1/5 265/1/5 264/1/5
f 273/4/5 259/4/5 265/4/5
f 273/1/5 265/1/5 272/1/5
f 274/2/5 260/2/5 259/2/5
f 274/4/5 259/4/5 273/4/5
f 275/4/5 266/4/5 260/4/5
f 275/4/5 267/4/5 266/4/5
f 276/4/5 267/4/5 275/4/5
f 277/2/5 271/2/5 270/2/5
f 277/2/5 270/2/5 269/2/5
f 278/2/5 271/2/5 277/2/5
f 279/2/5 271/2/5 278/2/5
f 281/3/5 274/3/5 273/3/5
f 282/2/5 260/2/5 274/2/5
f 282/3/5 274/3/5 281/3/5
f 283/4/5 275/4/5 260/4/5
f 283/2/5 260/2/5 282/2/5
f 284/2/5 279/2/5 278/2/5
f 284/2/5 280/2/5 279/2/5
f 285/2/5 280/2/5 284/2/5
f 286/4/5 275/4/5 283/4/5
f 287/4/5 275/4/5 286/4/5
f 288/3/6 289/3/6 291/3/6
f 291/3/6 289/3/6 292/3/6
f 290/3/6 291/3/6 294/3/6
f 291/3/6 292/3/6 294/3/6
f 292/2/6 293/2/6 295/2/6
f 294/3/6 292/3/6 295/3/6
f 295/2/6 293/2/6 296/2/6
f 290/3/6 294/3/6 300/3/6
f 300/3/6 294/3/6 301/3/6
f 295/2/6 296/2/6 302/2/6
f 296/3/6 297/3/6 303/3/6
f 302/2/6 296/2/6 303/2/6
f 297/1/6 298/1/6 304/1/6
f 303/3/6 297/3/6 304/3/6
f 304/1/6 298/1/6 305/1/6
f 299/2/6 300/2/6 307/2/6
f 307/2/6 300/2/6 308/2/6
f 304/4/6 305/4/6 309/4/6
f 309/4/6 305/4/6 310/4/6
f 306/2/6 307/2/6 312/2/6
f 307/4/6 308/4/6 313/4/6
f 312/2/6 307/2/6 313/2/6
f 313/4/6 308/4/6 314/4/6
f 310/3/6 311/3/6 316/3/6
f 314/4/6 315/4/6 317/4/6
f 317/4/6 315/4/6 318/4/6
f 318/4/6 319/4/6 323/4/6
f 316/3/6 311/3/6 325/3/6
f 325/3/6 311/3/6 326/3/6
f 320/3/6 321/3/6 328/3/6
f 328/3/6 321/3/6 329/3/6
f 322/1/6 323/1/6 330/1/6
f 323/4/6 319/4/6 331/4/6
f 330/1/6 323/1/6 331/1/6
f 331/4/6 319/4/6 332/4/6
f 324/4/6 325/4/6 334/4/6
f 334/4/6 325/4/6 335/4/6
f 328/2/6 329/2/6 336/2/6
f 327/2/6 328/2/6 336/2/6
f 336/2/6 329/2/6 337/2/6
f 337/2/6 329/2/6 338/2/6
f 331/3/6 332/3/6 340/3/6
f 332/2/6 333/2/6 341/2/6
f 340/3/6 332/3/6 341/3/6
f 333/4/6 334/4/6 342/4/6
f 341/2/6 333/2/6 342/2/6
f 337/2/6 338/2/6 343/2/6
f 338/2/6 339/2/6 343/2/6
f 343/2/6 339/2/6 344/2/6
f 342/4/6 334/4/6 345/4/6
f 345/4/6 334/4/6 346/4/6
f 347/2/6 348/2/6 350/2/6
f 350/2/6 348/2/6 351/2/6
f 349/4/6 350/4/6 354/4/6
f 350/4/6 351/4/6 354/4/6
f 354/4/6 351/4/6 355/4/6
f 352/3/6 353/3/6 356/3/6
f 351/2/6 352/2/6 356/2/6
f 356/3/6 353/3/6 357/3/6
f 354/2/6 355/2/6 359/2/6
f 355/4/6 351/4/6 360/4/6
f 359/2/6 355/2/6 360/2/6
f 351/2/6 356/2/6 361/2/6
f 360/4/6 351/4/6 361/4/6
f 356/2/6 357/2/6 361/2/6
f 357/1/6 358/1/6 362/1/6
f 361/2/6 357/2/6 362/2/6
f 362/1/6 358/1/6 363/1/6
f 360/2/6 361/2/6 364/2/6
f 362/2/6 363/2/6 364/2/6
f 361/2/6 362/2/6 364/2/6
f 364/2/6 363/2/6 365/2/6
f 365/2/6 363/2/6 366/2/6
f 366/2/6 363/2/6 367/2/6
f 367/2/6 363/2/6 368/2/6
f 365/3/6 366/3/6 369/3/6
f 366/2/6 367/2/6 370/2/6
f 369/3/6 366/3/6 370/3/6
f 370/2/6 367/2/6 371/2/6
