# Blender 4.2.3 LTS
# www.blender.org
mtllib Untitled.097.mtl
o Untitled.097
v -0.306918 0.000000 0.077987
v -0.306918 0.000000 -0.122013
v -0.306918 0.100000 0.077987
v -0.306918 0.100000 -0.122013
v -0.206918 0.000000 0.177987
v -0.206918 0.000000 0.077987
v -0.206918 0.100000 0.177987
v -0.206918 0.100000 0.077987
v -0.206918 0.100000 -0.022013
v -0.206918 0.200000 0.077987
v -0.206918 0.200000 -0.022013
v -0.106918 0.000000 -0.122013
v -0.106918 0.000000 -0.222013
v -0.106918 0.100000 0.177987
v -0.106918 0.100000 0.077987
v -0.106918 0.100000 -0.022013
v -0.106918 0.100000 -0.122013
v -0.106918 0.100000 -0.222013
v -0.106918 0.200000 0.177987
v -0.106918 0.200000 0.077987
v -0.106918 0.200000 -0.022013
v -0.106918 0.200000 -0.122013
v -0.006918 0.100000 0.177987
v -0.006918 0.100000 0.077987
v -0.006918 0.200000 0.177987
v -0.006918 0.200000 0.077987
v 0.193082 0.000000 0.177987
v 0.193082 0.000000 0.077987
v 0.193082 0.000000 -0.122013
v 0.193082 0.000000 -0.222013
v 0.193082 0.100000 0.177987
v 0.193082 0.100000 0.077987
v 0.193082 0.100000 -0.022013
v 0.193082 0.100000 -0.122013
v 0.193082 0.100000 -0.222013
v 0.193082 0.200000 0.077987
v 0.193082 0.200000 -0.022013
v 0.193082 0.200000 -0.122013
v 0.293082 0.000000 0.077987
v 0.293082 0.000000 -0.022013
v 0.293082 0.000000 -0.122013
v 0.293082 0.100000 0.077987
v 0.293082 0.100000 -0.022013
v 0.293082 0.100000 -0.122013
v -0.206918 0.000000 0.177987
v -0.206918 0.100000 0.177987
v -0.106918 0.000000 0.177987
v -0.106918 0.100000 0.177987
v -0.106918 0.200000 0.177987
v -0.006918 0.100000 0.177987
v -0.006918 0.200000 0.177987
v 0.093082 0.000000 0.177987
v 0.093082 0.100000 0.177987
v 0.193082 0.000000 0.177987
v 0.193082 0.100000 0.177987
v -0.306918 0.000000 0.077987
v -0.306918 0.100000 0.077987
v -0.206918 0.000000 0.077987
v -0.206918 0.100000 0.077987
v -0.206918 0.200000 0.077987
v -0.106918 0.100000 0.077987
v -0.106918 0.200000 0.077987
v -0.006918 0.100000 0.077987
v -0.006918 0.200000 0.077987
v 0.093082 0.100000 0.077987
v 0.193082 0.000000 0.077987
v 0.193082 0.100000 0.077987
v 0.193082 0.200000 0.077987
v 0.293082 0.000000 0.077987
v 0.293082 0.100000 0.077987
v -0.206918 0.100000 -0.022013
v -0.206918 0.200000 -0.022013
v -0.106918 0.100000 -0.022013
v -0.106918 0.200000 -0.022013
v -0.306918 0.000000 -0.122013
v -0.306918 0.100000 -0.122013
v -0.206918 0.000000 -0.122013
v -0.206918 0.100000 -0.122013
v -0.106918 0.000000 -0.122013
v -0.106918 0.100000 -0.122013
v -0.106918 0.200000 -0.122013
v 0.093082 0.100000 -0.122013
v 0.093082 0.200000 -0.122013
v 0.193082 0.000000 -0.122013
v 0.193082 0.100000 -0.122013
v 0.193082 0.200000 -0.122013
v 0.293082 0.000000 -0.122013
v 0.293082 0.100000 -0.122013
v -0.106918 0.000000 -0.222013
v -0.106918 0.100000 -0.222013
v 0.093082 0.000000 -0.222013
v 0.093082 0.100000 -0.222013
v 0.193082 0.000000 -0.222013
v 0.193082 0.100000 -0.222013
v -0.206918 0.000000 0.177987
v -0.106918 0.000000 0.177987
v 0.093082 0.000000 0.177987
v 0.193082 0.000000 0.177987
v -0.306918 0.000000 0.077987
v -0.206918 0.000000 0.077987
v -0.106918 0.000000 0.077987
v -0.006918 0.000000 0.077987
v 0.093082 0.000000 0.077987
v 0.193082 0.000000 0.077987
v 0.293082 0.000000 0.077987
v -0.206918 0.000000 -0.022013
v -0.106918 0.000000 -0.022013
v 0.093082 0.000000 -0.022013
v 0.193082 0.000000 -0.022013
v 0.293082 0.000000 -0.022013
v -0.306918 0.000000 -0.122013
v -0.206918 0.000000 -0.122013
v -0.106918 0.000000 -0.122013
v -0.006918 0.000000 -0.122013
v 0.093082 0.000000 -0.122013
v 0.193082 0.000000 -0.122013
v 0.293082 0.000000 -0.122013
v -0.106918 0.000000 -0.222013
v 0.093082 0.000000 -0.222013
v 0.193082 0.000000 -0.222013
v -0.206918 0.100000 0.177987
v -0.106918 0.100000 0.177987
v -0.006918 0.100000 0.177987
v 0.093082 0.100000 0.177987
v 0.193082 0.100000 0.177987
v -0.306918 0.100000 0.077987
v -0.206918 0.100000 0.077987
v -0.106918 0.100000 0.077987
v -0.006918 0.100000 0.077987
v 0.093082 0.100000 0.077987
v 0.193082 0.100000 0.077987
v 0.293082 0.100000 0.077987
v -0.206918 0.100000 -0.022013
v -0.106918 0.100000 -0.022013
v 0.193082 0.100000 -0.022013
v 0.293082 0.100000 -0.022013
v -0.306918 0.100000 -0.122013
v -0.206918 0.100000 -0.122013
v -0.106918 0.100000 -0.122013
v 0.093082 0.100000 -0.122013
v 0.193082 0.100000 -0.122013
v 0.293082 0.100000 -0.122013
v -0.106918 0.100000 -0.222013
v 0.093082 0.100000 -0.222013
v 0.193082 0.100000 -0.222013
v -0.106918 0.200000 0.177987
v -0.006918 0.200000 0.177987
v -0.206918 0.200000 0.077987
v -0.106918 0.200000 0.077987
v -0.006918 0.200000 0.077987
v 0.193082 0.200000 0.077987
v -0.206918 0.200000 -0.022013
v -0.106918 0.200000 -0.022013
v -0.006918 0.200000 -0.022013
v 0.093082 0.200000 -0.022013
v 0.193082 0.200000 -0.022013
v -0.106918 0.200000 -0.122013
v 0.093082 0.200000 -0.122013
v 0.193082 0.200000 -0.122013
vn -1.0000 -0.0000 -0.0000
vn 1.0000 -0.0000 -0.0000
vn -0.0000 -0.0000 1.0000
vn -0.0000 -0.0000 -1.0000
vn -0.0000 -1.0000 -0.0000
vn -0.0000 1.0000 -0.0000
vt 0.962891 0.500000
vt 0.958984 0.500000
vt 0.966797 0.500000
vt 0.779297 0.500000
s 0
usemtl palette.096
f 3/1/1 2/1/1 1/1/1
f 4/1/1 2/1/1 3/1/1
f 7/1/1 6/1/1 5/1/1
f 8/1/1 6/1/1 7/1/1
f 10/2/1 9/2/1 8/2/1
f 11/2/1 9/2/1 10/2/1
f 17/2/1 13/2/1 12/2/1
f 18/2/1 13/2/1 17/2/1
f 19/2/1 15/2/1 14/2/1
f 20/2/1 15/2/1 19/2/1
f 21/1/1 17/1/1 16/1/1
f 22/1/1 17/1/1 21/1/1
f 23/2/2 24/2/2 25/2/2
f 25/2/2 24/2/2 26/2/2
f 27/1/2 28/1/2 31/1/2
f 31/1/2 28/1/2 32/1/2
f 29/3/2 30/3/2 34/3/2
f 34/3/2 30/3/2 35/3/2
f 32/1/2 33/1/2 36/1/2
f 33/2/2 34/2/2 37/2/2
f 36/1/2 33/1/2 37/1/2
f 37/2/2 34/2/2 38/2/2
f 39/4/2 40/4/2 42/4/2
f 40/2/2 41/2/2 43/2/2
f 42/4/2 40/4/2 43/4/2
f 43/2/2 41/2/2 44/2/2
f 47/1/3 46/1/3 45/1/3
f 48/1/3 46/1/3 47/1/3
f 50/3/3 48/3/3 47/3/3
f 50/2/3 49/2/3 48/2/3
f 51/2/3 49/2/3 50/2/3
f 52/3/3 50/3/3 47/3/3
f 53/3/3 50/3/3 52/3/3
f 54/1/3 53/1/3 52/1/3
f 55/1/3 53/1/3 54/1/3
f 58/1/3 57/1/3 56/1/3
f 59/1/3 57/1/3 58/1/3
f 61/2/3 60/2/3 59/2/3
f 62/2/3 60/2/3 61/2/3
f 65/1/3 64/1/3 63/1/3
f 67/1/3 64/1/3 65/1/3
f 68/1/3 64/1/3 67/1/3
f 69/4/3 67/4/3 66/4/3
f 70/4/3 67/4/3 69/4/3
f 71/2/4 72/2/4 73/2/4
f 73/2/4 72/2/4 74/2/4
f 75/1/4 76/1/4 77/1/4
f 77/1/4 76/1/4 78/1/4
f 77/2/4 78/2/4 79/2/4
f 79/2/4 78/2/4 80/2/4
f 80/1/4 81/1/4 82/1/4
f 82/1/4 81/1/4 83/1/4
f 82/2/4 83/2/4 85/2/4
f 85/2/4 83/2/4 86/2/4
f 84/2/4 85/2/4 87/2/4
f 87/2/4 85/2/4 88/2/4
f 89/2/4 90/2/4 91/2/4
f 91/2/4 90/2/4 92/2/4
f 91/3/4 92/3/4 93/3/4
f 93/3/4 92/3/4 94/3/4
f 100/1/5 96/1/5 95/1/5
f 101/3/5 97/3/5 96/3/5
f 101/1/5 96/1/5 100/1/5
f 102/3/5 97/3/5 101/3/5
f 103/1/5 98/1/5 97/1/5
f 103/3/5 97/3/5 102/3/5
f 104/1/5 98/1/5 103/1/5
f 106/1/5 100/1/5 99/1/5
f 106/1/5 101/1/5 100/1/5
f 107/2/5 102/2/5 101/2/5
f 107/1/5 101/1/5 106/1/5
f 108/4/5 105/4/5 104/4/5
f 108/4/5 104/4/5 103/4/5
f 108/3/5 103/3/5 102/3/5
f 109/4/5 105/4/5 108/4/5
f 110/4/5 105/4/5 109/4/5
f 111/1/5 106/1/5 99/1/5
f 112/2/5 107/2/5 106/2/5
f 112/1/5 106/1/5 111/1/5
f 113/2/5 102/2/5 107/2/5
f 113/2/5 107/2/5 112/2/5
f 114/3/5 108/3/5 102/3/5
f 114/2/5 102/2/5 113/2/5
f 114/3/5 109/3/5 108/3/5
f 115/3/5 109/3/5 114/3/5
f 116/2/5 110/2/5 109/2/5
f 116/3/5 109/3/5 115/3/5
f 117/2/5 110/2/5 116/2/5
f 118/2/5 115/2/5 114/2/5
f 118/2/5 114/2/5 113/2/5
f 119/3/5 116/3/5 115/3/5
f 119/2/5 115/2/5 118/2/5
f 120/3/5 116/3/5 119/3/5
f 121/1/6 122/1/6 127/1/6
f 127/1/6 122/1/6 128/1/6
f 123/3/6 124/3/6 129/3/6
f 124/1/6 125/1/6 130/1/6
f 129/3/6 124/3/6 130/3/6
f 130/1/6 125/1/6 131/1/6
f 126/1/6 127/1/6 133/1/6
f 131/4/6 132/4/6 135/4/6
f 135/4/6 132/4/6 136/4/6
f 126/1/6 133/1/6 137/1/6
f 133/2/6 134/2/6 138/2/6
f 137/1/6 133/1/6 138/1/6
f 138/2/6 134/2/6 139/2/6
f 135/2/6 136/2/6 141/2/6
f 141/2/6 136/2/6 142/2/6
f 139/2/6 140/2/6 143/2/6
f 140/3/6 141/3/6 144/3/6
f 143/2/6 140/2/6 144/2/6
f 144/3/6 141/3/6 145/3/6
f 146/2/6 147/2/6 149/2/6
f 149/2/6 147/2/6 150/2/6
f 148/2/6 149/2/6 152/2/6
f 149/2/6 150/2/6 152/2/6
f 152/2/6 150/2/6 153/2/6
f 150/1/6 151/1/6 154/1/6
f 153/2/6 150/2/6 154/2/6
f 154/1/6 151/1/6 155/1/6
f 155/1/6 151/1/6 156/1/6
f 153/1/6 154/1/6 157/1/6
f 154/1/6 155/1/6 157/1/6
f 155/2/6 156/2/6 158/2/6
f 157/1/6 155/1/6 158/1/6
f 158/2/6 156/2/6 159/2/6
