# MagicaVoxel @ Ephtracy

# group
o 

# material
mtllib zaspaRozjechana.mtl
usemtl palette

# normals
vn -1 0 0
vn 1 0 0
vn 0 0 1
vn 0 0 -1
vn 0 -1 0
vn 0 1 0

# texcoords
vt 0.779297 0.5
vt 0.958984 0.5
vt 0.962891 0.5
vt 0.966797 0.5
vt 0.970703 0.5

# verts
v -0.7 0 0.1
v -0.7 0 5.96046e-08
v -0.7 0 -0.1
v -0.7 0.1 0.1
v -0.7 0.1 5.96046e-08
v -0.7 0.1 -0.1
v -0.6 0 0.2
v -0.6 0 0.1
v -0.6 0 -0.1
v -0.6 0 -0.2
v -0.6 0.1 0.2
v -0.6 0.1 0.1
v -0.6 0.1 -0.1
v -0.6 0.1 -0.2
v -0.5 0 0.5
v -0.5 0 0.2
v -0.5 0 -0.2
v -0.5 0 -0.3
v -0.5 0 -0.4
v -0.5 0.1 0.5
v -0.5 0.1 0.2
v -0.5 0.1 -0.2
v -0.5 0.1 -0.3
v -0.5 0.1 -0.4
v -0.4 0 0.6
v -0.4 0 0.5
v -0.4 0.1 0.6
v -0.4 0.1 0.5
v 0.3 0 -0.1
v 0.3 0 -0.2
v 0.3 0.1 -0.1
v 0.3 0.1 -0.2
v 0.4 0 -0.2
v 0.4 0 -0.3
v 0.4 0.1 -0.2
v 0.4 0.1 -0.3
v -0.1 0 0.6
v -0.1 0 0.5
v -0.1 0.1 0.6
v -0.1 0.1 0.5
v 0 0 -0.3
v 0 0 -0.4
v 0 0.1 -0.3
v 0 0.1 -0.4
v 0.1 0 0.5
v 0.1 0 0.4
v 0.1 0 0.3
v 0.1 0 -0.2
v 0.1 0 -0.3
v 0.1 0.1 0.5
v 0.1 0.1 0.4
v 0.1 0.1 0.3
v 0.1 0.1 -0.2
v 0.1 0.1 -0.3
v 0.2 0 -0.1
v 0.2 0 -0.2
v 0.2 0.1 -0.1
v 0.2 0.1 -0.2
v 0.3 0 0.3
v 0.3 0 0.2
v 0.3 0 5.96046e-08
v 0.3 0 -0.1
v 0.3 0.1 0.3
v 0.3 0.1 0.2
v 0.3 0.1 5.96046e-08
v 0.3 0.1 -0.1
v 0.4 0 0.2
v 0.4 0 5.96046e-08
v 0.4 0.1 0.2
v 0.4 0.1 5.96046e-08
v 0.5 0 -0.1
v 0.5 0 -0.2
v 0.5 0.1 -0.1
v 0.5 0.1 -0.2
v 0.6 0 -0.2
v 0.6 0 -0.3
v 0.6 0.1 -0.2
v 0.6 0.1 -0.3
v -0.4 0 0.6
v -0.4 0.1 0.6
v -0.3 0 0.6
v -0.3 0.1 0.6
v -0.2 0 0.6
v -0.2 0.1 0.6
v -0.1 0 0.6
v -0.1 0.1 0.6
v -0.5 0 0.5
v -0.5 0.1 0.5
v -0.4 0 0.5
v -0.4 0.1 0.5
v -0.1 0 0.5
v -0.1 0.1 0.5
v 0 0 0.5
v 0 0.1 0.5
v 0.1 0 0.5
v 0.1 0.1 0.5
v 0.1 0 0.3
v 0.1 0.1 0.3
v 0.2 0 0.3
v 0.2 0.1 0.3
v 0.3 0 0.3
v 0.3 0.1 0.3
v -0.6 0 0.2
v -0.6 0.1 0.2
v -0.5 0 0.2
v -0.5 0.1 0.2
v 0.3 0 0.2
v 0.3 0.1 0.2
v 0.4 0 0.2
v 0.4 0.1 0.2
v -0.7 0 0.1
v -0.7 0.1 0.1
v -0.6 0 0.1
v -0.6 0.1 0.1
v 0.3 0 -0.1
v 0.3 0.1 -0.1
v 0.4 0 -0.1
v 0.4 0.1 -0.1
v 0.5 0 -0.1
v 0.5 0.1 -0.1
v 0.5 0 -0.2
v 0.5 0.1 -0.2
v 0.6 0 -0.2
v 0.6 0.1 -0.2
v 0.3 0 5.96046e-08
v 0.3 0.1 5.96046e-08
v 0.4 0 5.96046e-08
v 0.4 0.1 5.96046e-08
v -0.7 0 -0.1
v -0.7 0.1 -0.1
v -0.6 0 -0.1
v -0.6 0.1 -0.1
v 0.2 0 -0.1
v 0.2 0.1 -0.1
v 0.3 0 -0.1
v 0.3 0.1 -0.1
v -0.6 0 -0.2
v -0.6 0.1 -0.2
v -0.5 0 -0.2
v -0.5 0.1 -0.2
v 0.1 0 -0.2
v 0.1 0.1 -0.2
v 0.2 0 -0.2
v 0.2 0.1 -0.2
v 0.3 0 -0.2
v 0.3 0.1 -0.2
v 0.4 0 -0.2
v 0.4 0.1 -0.2
v 0 0 -0.3
v 0 0.1 -0.3
v 0.1 0 -0.3
v 0.1 0.1 -0.3
v 0.4 0 -0.3
v 0.4 0.1 -0.3
v 0.6 0 -0.3
v 0.6 0.1 -0.3
v -0.5 0 -0.4
v -0.5 0.1 -0.4
v -0.4 0 -0.4
v -0.4 0.1 -0.4
v -0.3 0 -0.4
v -0.3 0.1 -0.4
v -0.2 0 -0.4
v -0.2 0.1 -0.4
v 0 0 -0.4
v 0 0.1 -0.4
v -0.4 0 0.6
v -0.3 0 0.6
v -0.2 0 0.6
v -0.1 0 0.6
v -0.5 0 0.5
v -0.4 0 0.5
v -0.3 0 0.5
v -0.2 0 0.5
v -0.1 0 0.5
v 0 0 0.5
v 0.1 0 0.5
v -0.3 0 0.4
v -0.2 0 0.4
v -0.1 0 0.4
v 0 0 0.4
v 0.1 0 0.4
v -0.4 0 0.3
v -0.3 0 0.3
v -0.2 0 0.3
v -0.1 0 0.3
v 0 0 0.3
v 0.1 0 0.3
v 0.2 0 0.3
v 0.3 0 0.3
v -0.6 0 0.2
v -0.5 0 0.2
v -0.4 0 0.2
v -0.3 0 0.2
v -0.2 0 0.2
v -0.1 0 0.2
v 0 0 0.2
v 0.2 0 0.2
v 0.3 0 0.2
v 0.4 0 0.2
v -0.7 0 0.1
v -0.6 0 0.1
v -0.5 0 0.1
v -0.4 0 0.1
v -0.3 0 0.1
v -0.2 0 0.1
v -0.1 0 0.1
v 0 0 0.1
v 0.1 0 0.1
v 0.2 0 0.1
v 0.3 0 0.1
v -0.7 0 5.96046e-08
v -0.6 0 5.96046e-08
v -0.5 0 5.96046e-08
v -0.3 0 5.96046e-08
v -0.2 0 5.96046e-08
v -0.1 0 5.96046e-08
v 0 0 5.96046e-08
v 0.1 0 5.96046e-08
v 0.2 0 5.96046e-08
v 0.3 0 5.96046e-08
v 0.4 0 5.96046e-08
v -0.7 0 -0.1
v -0.6 0 -0.1
v -0.5 0 -0.1
v -0.4 0 -0.1
v -0.3 0 -0.1
v -0.2 0 -0.1
v -0.1 0 -0.1
v 0.1 0 -0.1
v 0.2 0 -0.1
v 0.3 0 -0.1
v 0.4 0 -0.1
v 0.5 0 -0.1
v -0.6 0 -0.2
v -0.5 0 -0.2
v -0.4 0 -0.2
v -0.3 0 -0.2
v -0.2 0 -0.2
v -0.1 0 -0.2
v 0 0 -0.2
v 0.1 0 -0.2
v 0.2 0 -0.2
v 0.3 0 -0.2
v 0.4 0 -0.2
v 0.5 0 -0.2
v 0.6 0 -0.2
v -0.5 0 -0.3
v -0.4 0 -0.3
v -0.3 0 -0.3
v -0.2 0 -0.3
v -0.1 0 -0.3
v 0 0 -0.3
v 0.1 0 -0.3
v 0.4 0 -0.3
v 0.6 0 -0.3
v -0.5 0 -0.4
v -0.4 0 -0.4
v -0.3 0 -0.4
v -0.2 0 -0.4
v 0 0 -0.4
v -0.4 0.1 0.6
v -0.3 0.1 0.6
v -0.2 0.1 0.6
v -0.1 0.1 0.6
v -0.5 0.1 0.5
v -0.4 0.1 0.5
v -0.3 0.1 0.5
v -0.2 0.1 0.5
v -0.1 0.1 0.5
v 0 0.1 0.5
v 0.1 0.1 0.5
v -0.3 0.1 0.4
v -0.2 0.1 0.4
v -0.1 0.1 0.4
v 0 0.1 0.4
v 0.1 0.1 0.4
v -0.4 0.1 0.3
v -0.3 0.1 0.3
v -0.2 0.1 0.3
v -0.1 0.1 0.3
v 0 0.1 0.3
v 0.1 0.1 0.3
v 0.2 0.1 0.3
v 0.3 0.1 0.3
v -0.6 0.1 0.2
v -0.5 0.1 0.2
v -0.4 0.1 0.2
v -0.3 0.1 0.2
v -0.2 0.1 0.2
v -0.1 0.1 0.2
v 0 0.1 0.2
v 0.2 0.1 0.2
v 0.3 0.1 0.2
v 0.4 0.1 0.2
v -0.7 0.1 0.1
v -0.6 0.1 0.1
v -0.5 0.1 0.1
v -0.4 0.1 0.1
v -0.3 0.1 0.1
v -0.2 0.1 0.1
v -0.1 0.1 0.1
v 0 0.1 0.1
v 0.1 0.1 0.1
v 0.2 0.1 0.1
v 0.3 0.1 0.1
v -0.7 0.1 5.96046e-08
v -0.6 0.1 5.96046e-08
v -0.5 0.1 5.96046e-08
v -0.3 0.1 5.96046e-08
v -0.2 0.1 5.96046e-08
v -0.1 0.1 5.96046e-08
v 0 0.1 5.96046e-08
v 0.1 0.1 5.96046e-08
v 0.2 0.1 5.96046e-08
v 0.3 0.1 5.96046e-08
v 0.4 0.1 5.96046e-08
v -0.7 0.1 -0.1
v -0.6 0.1 -0.1
v -0.5 0.1 -0.1
v -0.4 0.1 -0.1
v -0.3 0.1 -0.1
v -0.2 0.1 -0.1
v -0.1 0.1 -0.1
v 0.1 0.1 -0.1
v 0.2 0.1 -0.1
v 0.3 0.1 -0.1
v 0.4 0.1 -0.1
v 0.5 0.1 -0.1
v -0.6 0.1 -0.2
v -0.5 0.1 -0.2
v -0.4 0.1 -0.2
v -0.3 0.1 -0.2
v -0.2 0.1 -0.2
v -0.1 0.1 -0.2
v 0 0.1 -0.2
v 0.1 0.1 -0.2
v 0.2 0.1 -0.2
v 0.3 0.1 -0.2
v 0.4 0.1 -0.2
v 0.5 0.1 -0.2
v 0.6 0.1 -0.2
v -0.5 0.1 -0.3
v -0.4 0.1 -0.3
v -0.3 0.1 -0.3
v -0.2 0.1 -0.3
v -0.1 0.1 -0.3
v 0 0.1 -0.3
v 0.1 0.1 -0.3
v 0.4 0.1 -0.3
v 0.6 0.1 -0.3
v -0.5 0.1 -0.4
v -0.4 0.1 -0.4
v -0.3 0.1 -0.4
v -0.2 0.1 -0.4
v 0 0.1 -0.4

# faces
f 4/2/1 2/2/1 1/2/1
f 5/3/1 3/3/1 2/3/1
f 5/2/1 2/2/1 4/2/1
f 6/3/1 3/3/1 5/3/1
f 11/2/1 8/2/1 7/2/1
f 12/2/1 8/2/1 11/2/1
f 13/3/1 10/3/1 9/3/1
f 14/3/1 10/3/1 13/3/1
f 20/2/1 16/2/1 15/2/1
f 21/2/1 16/2/1 20/2/1
f 22/3/1 18/3/1 17/3/1
f 23/2/1 19/2/1 18/2/1
f 23/3/1 18/3/1 22/3/1
f 24/2/1 19/2/1 23/2/1
f 27/2/1 26/2/1 25/2/1
f 28/2/1 26/2/1 27/2/1
f 31/2/1 30/2/1 29/2/1
f 32/2/1 30/2/1 31/2/1
f 35/2/1 34/2/1 33/2/1
f 36/2/1 34/2/1 35/2/1
f 37/2/2 38/2/2 39/2/2
f 39/2/2 38/2/2 40/2/2
f 41/4/2 42/4/2 43/4/2
f 43/4/2 42/4/2 44/4/2
f 45/4/2 46/4/2 50/4/2
f 46/1/2 47/1/2 51/1/2
f 50/4/2 46/4/2 51/4/2
f 51/1/2 47/1/2 52/1/2
f 48/4/2 49/4/2 53/4/2
f 53/4/2 49/4/2 54/4/2
f 55/2/2 56/2/2 57/2/2
f 57/2/2 56/2/2 58/2/2
f 59/2/2 60/2/2 63/2/2
f 63/2/2 60/2/2 64/2/2
f 61/2/2 62/2/2 65/2/2
f 65/2/2 62/2/2 66/2/2
f 67/2/2 68/2/2 69/2/2
f 69/2/2 68/2/2 70/2/2
f 71/3/2 72/3/2 73/3/2
f 73/3/2 72/3/2 74/3/2
f 75/2/2 76/2/2 77/2/2
f 77/2/2 76/2/2 78/2/2
f 81/2/3 80/2/3 79/2/3
f 82/2/3 80/2/3 81/2/3
f 83/3/3 82/3/3 81/3/3
f 84/3/3 82/3/3 83/3/3
f 85/2/3 84/2/3 83/2/3
f 86/2/3 84/2/3 85/2/3
f 89/2/3 88/2/3 87/2/3
f 90/2/3 88/2/3 89/2/3
f 93/5/3 92/5/3 91/5/3
f 94/5/3 92/5/3 93/5/3
f 95/4/3 94/4/3 93/4/3
f 96/4/3 94/4/3 95/4/3
f 99/4/3 98/4/3 97/4/3
f 100/4/3 98/4/3 99/4/3
f 101/2/3 100/2/3 99/2/3
f 102/2/3 100/2/3 101/2/3
f 105/2/3 104/2/3 103/2/3
f 106/2/3 104/2/3 105/2/3
f 109/2/3 108/2/3 107/2/3
f 110/2/3 108/2/3 109/2/3
f 113/2/3 112/2/3 111/2/3
f 114/2/3 112/2/3 113/2/3
f 117/2/3 116/2/3 115/2/3
f 118/2/3 116/2/3 117/2/3
f 119/3/3 118/3/3 117/3/3
f 120/3/3 118/3/3 119/3/3
f 123/2/3 122/2/3 121/2/3
f 124/2/3 122/2/3 123/2/3
f 125/2/4 126/2/4 127/2/4
f 127/2/4 126/2/4 128/2/4
f 129/3/4 130/3/4 131/3/4
f 131/3/4 130/3/4 132/3/4
f 133/2/4 134/2/4 135/2/4
f 135/2/4 134/2/4 136/2/4
f 137/3/4 138/3/4 139/3/4
f 139/3/4 138/3/4 140/3/4
f 141/2/4 142/2/4 143/2/4
f 143/2/4 142/2/4 144/2/4
f 145/2/4 146/2/4 147/2/4
f 147/2/4 146/2/4 148/2/4
f 149/4/4 150/4/4 151/4/4
f 151/4/4 150/4/4 152/4/4
f 153/2/4 154/2/4 155/2/4
f 155/2/4 154/2/4 156/2/4
f 157/2/4 158/2/4 159/2/4
f 159/2/4 158/2/4 160/2/4
f 159/4/4 160/4/4 161/4/4
f 161/4/4 160/4/4 162/4/4
f 161/5/4 162/5/4 163/5/4
f 163/5/4 162/5/4 164/5/4
f 163/4/4 164/4/4 165/4/4
f 165/4/4 164/4/4 166/4/4
f 172/2/5 168/2/5 167/2/5
f 173/3/5 169/3/5 168/3/5
f 173/2/5 168/2/5 172/2/5
f 174/2/5 170/2/5 169/2/5
f 174/3/5 169/3/5 173/3/5
f 175/2/5 170/2/5 174/2/5
f 178/3/5 173/3/5 172/3/5
f 178/3/5 174/3/5 173/3/5
f 179/5/5 176/5/5 175/5/5
f 179/3/5 174/3/5 178/3/5
f 179/5/5 175/5/5 174/5/5
f 180/5/5 176/5/5 179/5/5
f 181/4/5 177/4/5 176/4/5
f 181/5/5 176/5/5 180/5/5
f 182/4/5 177/4/5 181/4/5
f 183/2/5 172/2/5 171/2/5
f 183/3/5 178/3/5 172/3/5
f 184/4/5 180/4/5 179/4/5
f 184/3/5 178/3/5 183/3/5
f 184/4/5 179/4/5 178/4/5
f 185/4/5 180/4/5 184/4/5
f 186/5/5 181/5/5 180/5/5
f 186/4/5 180/4/5 185/4/5
f 187/1/5 182/1/5 181/1/5
f 187/5/5 181/5/5 186/5/5
f 188/1/5 182/1/5 187/1/5
f 192/2/5 183/2/5 171/2/5
f 193/5/5 185/5/5 184/5/5
f 193/5/5 184/5/5 183/5/5
f 193/2/5 183/2/5 192/2/5
f 194/5/5 185/5/5 193/5/5
f 195/4/5 186/4/5 185/4/5
f 195/5/5 185/5/5 194/5/5
f 196/3/5 187/3/5 186/3/5
f 196/4/5 186/4/5 195/4/5
f 197/4/5 188/4/5 187/4/5
f 197/3/5 187/3/5 196/3/5
f 197/4/5 189/4/5 188/4/5
f 198/2/5 190/2/5 189/2/5
f 198/4/5 189/4/5 197/4/5
f 199/2/5 190/2/5 198/2/5
f 202/2/5 192/2/5 191/2/5
f 203/4/5 194/4/5 193/4/5
f 203/4/5 193/4/5 192/4/5
f 203/2/5 192/2/5 202/2/5
f 204/4/5 194/4/5 203/4/5
f 205/5/5 195/5/5 194/5/5
f 205/4/5 194/4/5 204/4/5
f 206/2/5 196/2/5 195/2/5
f 206/5/5 195/5/5 205/5/5
f 207/3/5 197/3/5 196/3/5
f 207/2/5 196/2/5 206/2/5
f 208/5/5 198/5/5 197/5/5
f 208/3/5 197/3/5 207/3/5
f 209/5/5 198/5/5 208/5/5
f 210/2/5 200/2/5 199/2/5
f 210/5/5 198/5/5 209/5/5
f 210/2/5 199/2/5 198/2/5
f 211/2/5 200/2/5 210/2/5
f 212/2/5 202/2/5 201/2/5
f 213/5/5 204/5/5 203/5/5
f 213/2/5 202/2/5 212/2/5
f 213/5/5 203/5/5 202/5/5
f 214/5/5 204/5/5 213/5/5
f 215/2/5 206/2/5 205/2/5
f 215/4/5 205/4/5 204/4/5
f 215/2/5 207/2/5 206/2/5
f 216/2/5 207/2/5 215/2/5
f 217/4/5 209/4/5 208/4/5
f 217/2/5 207/2/5 216/2/5
f 217/4/5 208/4/5 207/4/5
f 218/4/5 209/4/5 217/4/5
f 219/5/5 210/5/5 209/5/5
f 219/4/5 209/4/5 218/4/5
f 220/4/5 211/4/5 210/4/5
f 220/5/5 210/5/5 219/5/5
f 221/2/5 200/2/5 211/2/5
f 221/4/5 211/4/5 220/4/5
f 222/2/5 200/2/5 221/2/5
f 223/3/5 213/3/5 212/3/5
f 224/4/5 214/4/5 213/4/5
f 224/3/5 213/3/5 223/3/5
f 225/5/5 204/5/5 214/5/5
f 225/4/5 214/4/5 224/4/5
f 226/4/5 216/4/5 215/4/5
f 226/5/5 204/5/5 225/5/5
f 226/4/5 215/4/5 204/4/5
f 227/4/5 216/4/5 226/4/5
f 228/5/5 218/5/5 217/5/5
f 228/4/5 216/4/5 227/4/5
f 228/5/5 217/5/5 216/5/5
f 229/5/5 218/5/5 228/5/5
f 230/3/5 220/3/5 219/3/5
f 230/4/5 219/4/5 218/4/5
f 231/2/5 221/2/5 220/2/5
f 231/3/5 220/3/5 230/3/5
f 232/2/5 221/2/5 231/2/5
f 235/3/5 225/3/5 224/3/5
f 235/3/5 226/3/5 225/3/5
f 236/3/5 226/3/5 235/3/5
f 237/1/5 227/1/5 226/1/5
f 237/3/5 226/3/5 236/3/5
f 238/4/5 229/4/5 228/4/5
f 238/1/5 227/1/5 237/1/5
f 238/4/5 228/4/5 227/4/5
f 239/4/5 229/4/5 238/4/5
f 240/5/5 218/5/5 229/5/5
f 240/4/5 229/4/5 239/4/5
f 241/4/5 230/4/5 218/4/5
f 241/5/5 218/5/5 240/5/5
f 242/2/5 231/2/5 230/2/5
f 242/4/5 230/4/5 241/4/5
f 243/2/5 231/2/5 242/2/5
f 244/2/5 233/2/5 232/2/5
f 245/3/5 234/3/5 233/3/5
f 245/2/5 233/2/5 244/2/5
f 246/3/5 234/3/5 245/3/5
f 248/3/5 237/3/5 236/3/5
f 249/5/5 239/5/5 238/5/5
f 249/3/5 237/3/5 248/3/5
f 249/5/5 238/5/5 237/5/5
f 250/5/5 239/5/5 249/5/5
f 251/2/5 240/2/5 239/2/5
f 251/5/5 239/5/5 250/5/5
f 252/4/5 241/4/5 240/4/5
f 252/2/5 240/2/5 251/2/5
f 252/4/5 242/4/5 241/4/5
f 253/4/5 242/4/5 252/4/5
f 254/4/5 242/4/5 253/4/5
f 255/2/5 247/2/5 246/2/5
f 255/2/5 246/2/5 245/2/5
f 256/2/5 247/2/5 255/2/5
f 257/2/5 249/2/5 248/2/5
f 258/4/5 250/4/5 249/4/5
f 258/2/5 249/2/5 257/2/5
f 259/5/5 251/5/5 250/5/5
f 259/4/5 250/4/5 258/4/5
f 260/4/5 253/4/5 252/4/5
f 260/5/5 251/5/5 259/5/5
f 260/4/5 252/4/5 251/4/5
f 261/4/5 253/4/5 260/4/5
f 262/2/6 263/2/6 267/2/6
f 263/3/6 264/3/6 268/3/6
f 267/2/6 263/2/6 268/2/6
f 264/2/6 265/2/6 269/2/6
f 268/3/6 264/3/6 269/3/6
f 269/2/6 265/2/6 270/2/6
f 267/3/6 268/3/6 273/3/6
f 268/3/6 269/3/6 273/3/6
f 270/5/6 271/5/6 274/5/6
f 273/3/6 269/3/6 274/3/6
f 269/5/6 270/5/6 274/5/6
f 274/5/6 271/5/6 275/5/6
f 271/4/6 272/4/6 276/4/6
f 275/5/6 271/5/6 276/5/6
f 276/4/6 272/4/6 277/4/6
f 266/2/6 267/2/6 278/2/6
f 267/3/6 273/3/6 278/3/6
f 274/4/6 275/4/6 279/4/6
f 278/3/6 273/3/6 279/3/6
f 273/4/6 274/4/6 279/4/6
f 279/4/6 275/4/6 280/4/6
f 275/5/6 276/5/6 281/5/6
f 280/4/6 275/4/6 281/4/6
f 276/1/6 277/1/6 282/1/6
f 281/5/6 276/5/6 282/5/6
f 282/1/6 277/1/6 283/1/6
f 266/2/6 278/2/6 287/2/6
f 279/5/6 280/5/6 288/5/6
f 278/5/6 279/5/6 288/5/6
f 287/2/6 278/2/6 288/2/6
f 288/5/6 280/5/6 289/5/6
f 280/4/6 281/4/6 290/4/6
f 289/5/6 280/5/6 290/5/6
f 281/3/6 282/3/6 291/3/6
f 290/4/6 281/4/6 291/4/6
f 282/4/6 283/4/6 292/4/6
f 291/3/6 282/3/6 292/3/6
f 283/4/6 284/4/6 292/4/6
f 284/2/6 285/2/6 293/2/6
f 292/4/6 284/4/6 293/4/6
f 293/2/6 285/2/6 294/2/6
f 286/2/6 287/2/6 297/2/6
f 288/4/6 289/4/6 298/4/6
f 287/4/6 288/4/6 298/4/6
f 297/2/6 287/2/6 298/2/6
f 298/4/6 289/4/6 299/4/6
f 289/5/6 290/5/6 300/5/6
f 299/4/6 289/4/6 300/4/6
f 290/2/6 291/2/6 301/2/6
f 300/5/6 290/5/6 301/5/6
f 291/3/6 292/3/6 302/3/6
f 301/2/6 291/2/6 302/2/6
f 292/5/6 293/5/6 303/5/6
f 302/3/6 292/3/6 303/3/6
f 303/5/6 293/5/6 304/5/6
f 294/2/6 295/2/6 305/2/6
f 304/5/6 293/5/6 305/5/6
f 293/2/6 294/2/6 305/2/6
f 305/2/6 295/2/6 306/2/6
f 296/2/6 297/2/6 307/2/6
f 298/5/6 299/5/6 308/5/6
f 307/2/6 297/2/6 308/2/6
f 297/5/6 298/5/6 308/5/6
f 308/5/6 299/5/6 309/5/6
f 300/2/6 301/2/6 310/2/6
f 299/4/6 300/4/6 310/4/6
f 301/2/6 302/2/6 310/2/6
f 310/2/6 302/2/6 311/2/6
f 303/4/6 304/4/6 312/4/6
f 311/2/6 302/2/6 312/2/6
f 302/4/6 303/4/6 312/4/6
f 312/4/6 304/4/6 313/4/6
f 304/5/6 305/5/6 314/5/6
f 313/4/6 304/4/6 314/4/6
f 305/4/6 306/4/6 315/4/6
f 314/5/6 305/5/6 315/5/6
f 306/2/6 295/2/6 316/2/6
f 315/4/6 306/4/6 316/4/6
f 316/2/6 295/2/6 317/2/6
f 307/3/6 308/3/6 318/3/6
f 308/4/6 309/4/6 319/4/6
f 318/3/6 308/3/6 319/3/6
f 309/5/6 299/5/6 320/5/6
f 319/4/6 309/4/6 320/4/6
f 310/4/6 311/4/6 321/4/6
f 320/5/6 299/5/6 321/5/6
f 299/4/6 310/4/6 321/4/6
f 321/4/6 311/4/6 322/4/6
f 312/5/6 313/5/6 323/5/6
f 322/4/6 311/4/6 323/4/6
f 311/5/6 312/5/6 323/5/6
f 323/5/6 313/5/6 324/5/6
f 314/3/6 315/3/6 325/3/6
f 313/4/6 314/4/6 325/4/6
f 315/2/6 316/2/6 326/2/6
f 325/3/6 315/3/6 326/3/6
f 326/2/6 316/2/6 327/2/6
f 319/3/6 320/3/6 330/3/6
f 320/3/6 321/3/6 330/3/6
f 330/3/6 321/3/6 331/3/6
f 321/1/6 322/1/6 332/1/6
f 331/3/6 321/3/6 332/3/6
f 323/4/6 324/4/6 333/4/6
f 332/1/6 322/1/6 333/1/6
f 322/4/6 323/4/6 333/4/6
f 333/4/6 324/4/6 334/4/6
f 324/5/6 313/5/6 335/5/6
f 334/4/6 324/4/6 335/4/6
f 313/4/6 325/4/6 336/4/6
f 335/5/6 313/5/6 336/5/6
f 325/2/6 326/2/6 337/2/6
f 336/4/6 325/4/6 337/4/6
f 337/2/6 326/2/6 338/2/6
f 327/2/6 328/2/6 339/2/6
f 328/3/6 329/3/6 340/3/6
f 339/2/6 328/2/6 340/2/6
f 340/3/6 329/3/6 341/3/6
f 331/3/6 332/3/6 343/3/6
f 333/5/6 334/5/6 344/5/6
f 343/3/6 332/3/6 344/3/6
f 332/5/6 333/5/6 344/5/6
f 344/5/6 334/5/6 345/5/6
f 334/2/6 335/2/6 346/2/6
f 345/5/6 334/5/6 346/5/6
f 335/4/6 336/4/6 347/4/6
f 346/2/6 335/2/6 347/2/6
f 336/4/6 337/4/6 347/4/6
f 347/4/6 337/4/6 348/4/6
f 348/4/6 337/4/6 349/4/6
f 341/2/6 342/2/6 350/2/6
f 340/2/6 341/2/6 350/2/6
f 350/2/6 342/2/6 351/2/6
f 343/2/6 344/2/6 352/2/6
f 344/4/6 345/4/6 353/4/6
f 352/2/6 344/2/6 353/2/6
f 345/5/6 346/5/6 354/5/6
f 353/4/6 345/4/6 354/4/6
f 347/4/6 348/4/6 355/4/6
f 354/5/6 346/5/6 355/5/6
f 346/4/6 347/4/6 355/4/6
f 355/4/6 348/4/6 356/4/6
