# Blender 4.2.3 LTS
# www.blender.org
mtllib Untitled.102.mtl
o Untitled.102
v -0.350000 2.000000 0.086364
v -0.350000 2.000000 -0.013636
v -0.350000 2.900000 0.086364
v -0.350000 2.900000 -0.013636
v -0.050000 0.000000 -0.013636
v -0.050000 0.000000 -0.113636
v -0.050000 2.000000 -0.013636
v -0.050000 2.400000 -0.013636
v -0.050000 2.500000 -0.013636
v -0.050000 2.700000 -0.013636
v -0.050000 2.700000 -0.113636
v 0.050000 0.000000 -0.013636
v 0.050000 0.000000 -0.113636
v 0.050000 2.000000 -0.013636
v 0.050000 2.400000 -0.013636
v 0.050000 2.500000 -0.013636
v 0.050000 2.700000 -0.013636
v 0.050000 2.700000 -0.113636
v 0.350000 2.000000 0.086364
v 0.350000 2.000000 -0.013636
v 0.350000 2.900000 0.086364
v 0.350000 2.900000 -0.013636
v -0.350000 2.000000 0.086364
v -0.350000 2.900000 0.086364
v -0.250000 2.100000 0.086364
v -0.250000 2.800000 0.086364
v -0.150000 2.100000 0.086364
v -0.150000 2.400000 0.086364
v -0.150000 2.500000 0.086364
v -0.150000 2.700000 0.086364
v 0.150000 2.400000 0.086364
v 0.150000 2.500000 0.086364
v 0.150000 2.700000 0.086364
v 0.150000 2.800000 0.086364
v 0.250000 2.500000 0.086364
v 0.250000 2.700000 0.086364
v 0.350000 2.000000 0.086364
v 0.350000 2.900000 0.086364
v -0.050000 0.000000 -0.013636
v -0.050000 2.000000 -0.013636
v 0.050000 0.000000 -0.013636
v 0.050000 2.000000 -0.013636
v -0.350000 2.000000 -0.013636
v -0.350000 2.900000 -0.013636
v -0.250000 2.100000 -0.013636
v -0.250000 2.800000 -0.013636
v -0.150000 2.100000 -0.013636
v -0.150000 2.400000 -0.013636
v -0.150000 2.500000 -0.013636
v -0.150000 2.700000 -0.013636
v -0.050000 2.000000 -0.013636
v -0.050000 2.400000 -0.013636
v -0.050000 2.500000 -0.013636
v -0.050000 2.700000 -0.013636
v 0.050000 2.000000 -0.013636
v 0.050000 2.400000 -0.013636
v 0.050000 2.500000 -0.013636
v 0.050000 2.700000 -0.013636
v 0.150000 2.400000 -0.013636
v 0.150000 2.500000 -0.013636
v 0.150000 2.700000 -0.013636
v 0.150000 2.800000 -0.013636
v 0.250000 2.500000 -0.013636
v 0.250000 2.700000 -0.013636
v 0.350000 2.000000 -0.013636
v 0.350000 2.900000 -0.013636
v -0.050000 0.000000 -0.113636
v -0.050000 2.700000 -0.113636
v 0.050000 0.000000 -0.113636
v 0.050000 2.700000 -0.113636
v -0.050000 0.000000 -0.013636
v 0.050000 0.000000 -0.013636
v -0.050000 0.000000 -0.113636
v 0.050000 0.000000 -0.113636
v -0.350000 2.000000 0.086364
v 0.350000 2.000000 0.086364
v -0.350000 2.000000 -0.013636
v -0.050000 2.000000 -0.013636
v 0.050000 2.000000 -0.013636
v 0.350000 2.000000 -0.013636
v -0.050000 2.700000 -0.013636
v 0.050000 2.700000 -0.013636
v -0.050000 2.700000 -0.113636
v 0.050000 2.700000 -0.113636
v -0.350000 2.900000 0.086364
v 0.350000 2.900000 0.086364
v -0.350000 2.900000 -0.013636
v 0.350000 2.900000 -0.013636
vn -1.0000 -0.0000 -0.0000
vn 1.0000 -0.0000 -0.0000
vn -0.0000 -0.0000 1.0000
vn -0.0000 -0.0000 -1.0000
vn -0.0000 -1.0000 -0.0000
vn -0.0000 1.0000 -0.0000
vt 0.931641 0.500000
vt 0.974609 0.500000
vt 0.958984 0.500000
s 0
usemtl palette.101
f 3/1/1 2/1/1 1/1/1
f 4/1/1 2/1/1 3/1/1
f 7/2/1 6/2/1 5/2/1
f 8/2/1 6/2/1 7/2/1
f 9/2/1 6/2/1 8/2/1
f 10/2/1 6/2/1 9/2/1
f 11/2/1 6/2/1 10/2/1
f 12/2/2 13/2/2 14/2/2
f 14/2/2 13/2/2 15/2/2
f 15/2/2 13/2/2 16/2/2
f 16/2/2 13/2/2 17/2/2
f 17/2/2 13/2/2 18/2/2
f 19/1/2 20/1/2 21/1/2
f 21/1/2 20/1/2 22/1/2
f 25/1/3 24/1/3 23/1/3
f 26/1/3 24/1/3 25/1/3
f 27/1/3 25/1/3 23/1/3
f 27/3/3 26/3/3 25/3/3
f 28/3/3 26/3/3 27/3/3
f 29/3/3 26/3/3 28/3/3
f 30/3/3 26/3/3 29/3/3
f 31/1/3 28/1/3 27/1/3
f 31/3/3 29/3/3 28/3/3
f 32/1/3 30/1/3 29/1/3
f 32/3/3 29/3/3 31/3/3
f 33/3/3 26/3/3 30/3/3
f 33/1/3 30/1/3 32/1/3
f 34/1/3 24/1/3 26/1/3
f 34/3/3 26/3/3 33/3/3
f 35/3/3 33/3/3 32/3/3
f 35/1/3 32/1/3 31/1/3
f 36/1/3 34/1/3 33/1/3
f 36/3/3 33/3/3 35/3/3
f 37/1/3 27/1/3 23/1/3
f 37/1/3 35/1/3 31/1/3
f 37/1/3 36/1/3 35/1/3
f 37/1/3 31/1/3 27/1/3
f 38/1/3 24/1/3 34/1/3
f 38/1/3 36/1/3 37/1/3
f 38/1/3 34/1/3 36/1/3
f 41/2/3 40/2/3 39/2/3
f 42/2/3 40/2/3 41/2/3
f 43/1/4 44/1/4 45/1/4
f 45/1/4 44/1/4 46/1/4
f 43/1/4 45/1/4 47/1/4
f 45/3/4 46/3/4 47/3/4
f 47/3/4 46/3/4 48/3/4
f 48/3/4 46/3/4 49/3/4
f 49/3/4 46/3/4 50/3/4
f 43/1/4 47/1/4 51/1/4
f 47/1/4 48/1/4 51/1/4
f 48/3/4 49/3/4 52/3/4
f 51/1/4 48/1/4 52/1/4
f 49/1/4 50/1/4 53/1/4
f 52/3/4 49/3/4 53/3/4
f 50/3/4 46/3/4 54/3/4
f 53/1/4 50/1/4 54/1/4
f 54/3/4 46/3/4 58/3/4
f 56/3/4 57/3/4 59/3/4
f 55/1/4 56/1/4 59/1/4
f 57/1/4 58/1/4 60/1/4
f 59/3/4 57/3/4 60/3/4
f 58/3/4 46/3/4 61/3/4
f 60/1/4 58/1/4 61/1/4
f 46/1/4 44/1/4 62/1/4
f 61/3/4 46/3/4 62/3/4
f 60/3/4 61/3/4 63/3/4
f 59/1/4 60/1/4 63/1/4
f 61/1/4 62/1/4 64/1/4
f 63/3/4 61/3/4 64/3/4
f 55/1/4 59/1/4 65/1/4
f 59/1/4 63/1/4 65/1/4
f 63/1/4 64/1/4 65/1/4
f 62/1/4 44/1/4 66/1/4
f 65/1/4 64/1/4 66/1/4
f 64/1/4 62/1/4 66/1/4
f 67/2/4 68/2/4 69/2/4
f 69/2/4 68/2/4 70/2/4
f 73/2/5 72/2/5 71/2/5
f 74/2/5 72/2/5 73/2/5
f 77/1/5 76/1/5 75/1/5
f 78/1/5 76/1/5 77/1/5
f 79/1/5 76/1/5 78/1/5
f 80/1/5 76/1/5 79/1/5
f 81/2/6 82/2/6 83/2/6
f 83/2/6 82/2/6 84/2/6
f 85/1/6 86/1/6 87/1/6
f 87/1/6 86/1/6 88/1/6
