# MagicaVoxel @ Ephtracy

# group
o 

# material
mtllib znakPierszenstwa.mtl
usemtl palette

# normals
vn -1 0 0
vn 1 0 0
vn 0 0 1
vn 0 0 -1
vn 0 -1 0
vn 0 1 0

# texcoords
vt 0.181641 0.5
vt 0.841797 0.5
vt 0.974609 0.5

# verts
v -2.2 2.6 0.9
v -2.2 2.6 0.8
v -2.2 2.8 0.9
v -2.2 2.8 0.8
v -2.1 2.4 0.9
v -2.1 2.4 0.8
v -2.1 2.6 0.9
v -2.1 2.6 0.8
v -2 2.3 0.9
v -2 2.3 0.8
v -2 2.4 0.9
v -2 2.4 0.8
v -1.9 2.2 0.9
v -1.9 2.2 0.8
v -1.9 2.3 0.9
v -1.9 2.3 0.8
v -1.8 0 0.8
v -1.8 0 0.7
v -1.8 2.1 0.9
v -1.8 2.1 0.8
v -1.8 2.2 0.9
v -1.8 2.2 0.8
v -1.8 2.3 0.8
v -1.8 2.7 0.8
v -1.8 2.7 0.7
v -1.7 0 0.8
v -1.7 0 0.7
v -1.7 2.1 0.9
v -1.7 2.1 0.8
v -1.7 2.2 0.9
v -1.7 2.2 0.8
v -1.7 2.3 0.8
v -1.7 2.7 0.8
v -1.7 2.7 0.7
v -1.6 2.2 0.9
v -1.6 2.2 0.8
v -1.6 2.3 0.9
v -1.6 2.3 0.8
v -1.5 2.3 0.9
v -1.5 2.3 0.8
v -1.5 2.4 0.9
v -1.5 2.4 0.8
v -1.4 2.4 0.9
v -1.4 2.4 0.8
v -1.4 2.6 0.9
v -1.4 2.6 0.8
v -1.3 2.6 0.9
v -1.3 2.6 0.8
v -1.3 2.8 0.9
v -1.3 2.8 0.8
v -2.2 2.6 0.9
v -2.2 2.8 0.9
v -2.1 2.4 0.9
v -2.1 2.6 0.9
v -2.1 2.7 0.9
v -2 2.3 0.9
v -2 2.4 0.9
v -2 2.6 0.9
v -1.9 2.2 0.9
v -1.9 2.3 0.9
v -1.9 2.4 0.9
v -1.8 2.1 0.9
v -1.8 2.2 0.9
v -1.8 2.3 0.9
v -1.7 2.1 0.9
v -1.7 2.2 0.9
v -1.7 2.3 0.9
v -1.6 2.2 0.9
v -1.6 2.3 0.9
v -1.6 2.4 0.9
v -1.5 2.3 0.9
v -1.5 2.4 0.9
v -1.5 2.6 0.9
v -1.4 2.4 0.9
v -1.4 2.6 0.9
v -1.4 2.7 0.9
v -1.3 2.6 0.9
v -1.3 2.8 0.9
v -1.8 0 0.8
v -1.8 2.1 0.8
v -1.7 0 0.8
v -1.7 2.1 0.8
v -2.2 2.6 0.8
v -2.2 2.8 0.8
v -2.1 2.4 0.8
v -2.1 2.6 0.8
v -2.1 2.7 0.8
v -2 2.3 0.8
v -2 2.4 0.8
v -2 2.6 0.8
v -1.9 2.2 0.8
v -1.9 2.3 0.8
v -1.9 2.4 0.8
v -1.8 2.2 0.8
v -1.8 2.3 0.8
v -1.8 2.7 0.8
v -1.7 2.2 0.8
v -1.7 2.3 0.8
v -1.7 2.7 0.8
v -1.6 2.2 0.8
v -1.6 2.3 0.8
v -1.6 2.4 0.8
v -1.5 2.3 0.8
v -1.5 2.4 0.8
v -1.5 2.6 0.8
v -1.4 2.4 0.8
v -1.4 2.6 0.8
v -1.4 2.7 0.8
v -1.3 2.6 0.8
v -1.3 2.8 0.8
v -1.8 0 0.7
v -1.8 2.7 0.7
v -1.7 0 0.7
v -1.7 2.7 0.7
v -1.8 0 0.8
v -1.7 0 0.8
v -1.8 0 0.7
v -1.7 0 0.7
v -1.8 2.1 0.9
v -1.7 2.1 0.9
v -1.8 2.1 0.8
v -1.7 2.1 0.8
v -1.9 2.2 0.9
v -1.8 2.2 0.9
v -1.7 2.2 0.9
v -1.6 2.2 0.9
v -1.9 2.2 0.8
v -1.8 2.2 0.8
v -1.7 2.2 0.8
v -1.6 2.2 0.8
v -2 2.3 0.9
v -1.9 2.3 0.9
v -1.6 2.3 0.9
v -1.5 2.3 0.9
v -2 2.3 0.8
v -1.9 2.3 0.8
v -1.6 2.3 0.8
v -1.5 2.3 0.8
v -2.1 2.4 0.9
v -2 2.4 0.9
v -1.5 2.4 0.9
v -1.4 2.4 0.9
v -2.1 2.4 0.8
v -2 2.4 0.8
v -1.5 2.4 0.8
v -1.4 2.4 0.8
v -2.2 2.6 0.9
v -2.1 2.6 0.9
v -1.4 2.6 0.9
v -1.3 2.6 0.9
v -2.2 2.6 0.8
v -2.1 2.6 0.8
v -1.4 2.6 0.8
v -1.3 2.6 0.8
v -1.8 2.7 0.8
v -1.7 2.7 0.8
v -1.8 2.7 0.7
v -1.7 2.7 0.7
v -2.2 2.8 0.9
v -1.3 2.8 0.9
v -2.2 2.8 0.8
v -1.3 2.8 0.8

# faces
f 3/2/1 2/2/1 1/2/1
f 4/2/1 2/2/1 3/2/1
f 7/2/1 6/2/1 5/2/1
f 8/2/1 6/2/1 7/2/1
f 11/2/1 10/2/1 9/2/1
f 12/2/1 10/2/1 11/2/1
f 15/2/1 14/2/1 13/2/1
f 16/2/1 14/2/1 15/2/1
f 20/3/1 18/3/1 17/3/1
f 21/2/1 20/2/1 19/2/1
f 22/3/1 18/3/1 20/3/1
f 22/2/1 20/2/1 21/2/1
f 23/3/1 18/3/1 22/3/1
f 24/3/1 18/3/1 23/3/1
f 25/3/1 18/3/1 24/3/1
f 26/3/2 27/3/2 29/3/2
f 28/2/2 29/2/2 30/2/2
f 29/3/2 27/3/2 31/3/2
f 30/2/2 29/2/2 31/2/2
f 31/3/2 27/3/2 32/3/2
f 32/3/2 27/3/2 33/3/2
f 33/3/2 27/3/2 34/3/2
f 35/2/2 36/2/2 37/2/2
f 37/2/2 36/2/2 38/2/2
f 39/2/2 40/2/2 41/2/2
f 41/2/2 40/2/2 42/2/2
f 43/2/2 44/2/2 45/2/2
f 45/2/2 44/2/2 46/2/2
f 47/2/2 48/2/2 49/2/2
f 49/2/2 48/2/2 50/2/2
f 54/2/3 52/2/3 51/2/3
f 55/2/3 52/2/3 54/2/3
f 57/2/3 54/2/3 53/2/3
f 58/1/3 55/1/3 54/1/3
f 58/2/3 54/2/3 57/2/3
f 60/2/3 57/2/3 56/2/3
f 61/1/3 58/1/3 57/1/3
f 61/2/3 57/2/3 60/2/3
f 63/2/3 60/2/3 59/2/3
f 64/1/3 61/1/3 60/1/3
f 64/2/3 60/2/3 63/2/3
f 65/2/3 63/2/3 62/2/3
f 66/1/3 64/1/3 63/1/3
f 66/2/3 63/2/3 65/2/3
f 67/1/3 61/1/3 64/1/3
f 67/1/3 64/1/3 66/1/3
f 68/2/3 67/2/3 66/2/3
f 69/1/3 61/1/3 67/1/3
f 69/2/3 67/2/3 68/2/3
f 70/1/3 58/1/3 61/1/3
f 70/1/3 61/1/3 69/1/3
f 71/2/3 70/2/3 69/2/3
f 72/1/3 58/1/3 70/1/3
f 72/2/3 70/2/3 71/2/3
f 73/1/3 55/1/3 58/1/3
f 73/1/3 58/1/3 72/1/3
f 74/2/3 73/2/3 72/2/3
f 75/1/3 55/1/3 73/1/3
f 75/2/3 73/2/3 74/2/3
f 76/2/3 52/2/3 55/2/3
f 76/1/3 55/1/3 75/1/3
f 77/2/3 76/2/3 75/2/3
f 78/2/3 52/2/3 76/2/3
f 78/2/3 76/2/3 77/2/3
f 81/3/3 80/3/3 79/3/3
f 82/3/3 80/3/3 81/3/3
f 83/2/4 84/2/4 86/2/4
f 86/2/4 84/2/4 87/2/4
f 85/2/4 86/2/4 89/2/4
f 86/1/4 87/1/4 90/1/4
f 89/2/4 86/2/4 90/2/4
f 88/2/4 89/2/4 92/2/4
f 89/1/4 90/1/4 93/1/4
f 92/2/4 89/2/4 93/2/4
f 91/2/4 92/2/4 94/2/4
f 92/1/4 93/1/4 95/1/4
f 94/2/4 92/2/4 95/2/4
f 87/2/4 84/2/4 96/2/4
f 95/1/4 93/1/4 96/1/4
f 90/1/4 87/1/4 96/1/4
f 93/1/4 90/1/4 96/1/4
f 96/2/4 84/2/4 99/2/4
f 97/2/4 98/2/4 100/2/4
f 98/1/4 99/1/4 101/1/4
f 100/2/4 98/2/4 101/2/4
f 101/1/4 99/1/4 102/1/4
f 101/2/4 102/2/4 103/2/4
f 102/1/4 99/1/4 104/1/4
f 103/2/4 102/2/4 104/2/4
f 104/1/4 99/1/4 105/1/4
f 104/2/4 105/2/4 106/2/4
f 105/1/4 99/1/4 107/1/4
f 106/2/4 105/2/4 107/2/4
f 99/2/4 84/2/4 108/2/4
f 107/1/4 99/1/4 108/1/4
f 107/2/4 108/2/4 109/2/4
f 108/2/4 84/2/4 110/2/4
f 109/2/4 108/2/4 110/2/4
f 111/3/4 112/3/4 113/3/4
f 113/3/4 112/3/4 114/3/4
f 117/3/5 116/3/5 115/3/5
f 118/3/5 116/3/5 117/3/5
f 121/2/5 120/2/5 119/2/5
f 122/2/5 120/2/5 121/2/5
f 127/2/5 124/2/5 123/2/5
f 128/2/5 124/2/5 127/2/5
f 129/2/5 126/2/5 125/2/5
f 130/2/5 126/2/5 129/2/5
f 135/2/5 132/2/5 131/2/5
f 136/2/5 132/2/5 135/2/5
f 137/2/5 134/2/5 133/2/5
f 138/2/5 134/2/5 137/2/5
f 143/2/5 140/2/5 139/2/5
f 144/2/5 140/2/5 143/2/5
f 145/2/5 142/2/5 141/2/5
f 146/2/5 142/2/5 145/2/5
f 151/2/5 148/2/5 147/2/5
f 152/2/5 148/2/5 151/2/5
f 153/2/5 150/2/5 149/2/5
f 154/2/5 150/2/5 153/2/5
f 155/3/6 156/3/6 157/3/6
f 157/3/6 156/3/6 158/3/6
f 159/2/6 160/2/6 161/2/6
f 161/2/6 160/2/6 162/2/6
