# Blender 4.2.3 LTS
# www.blender.org
mtllib Untitled.103.mtl
o Untitled.103
v -0.450000 2.600000 0.065432
v -0.450000 2.600000 -0.034568
v -0.450000 2.800000 0.065432
v -0.450000 2.800000 -0.034568
v -0.350000 2.400000 0.065432
v -0.350000 2.400000 -0.034568
v -0.350000 2.600000 0.065432
v -0.350000 2.600000 -0.034568
v -0.250000 2.300000 0.065432
v -0.250000 2.300000 -0.034568
v -0.250000 2.400000 0.065432
v -0.250000 2.400000 -0.034568
v -0.150000 2.200000 0.065432
v -0.150000 2.200000 -0.034568
v -0.150000 2.300000 0.065432
v -0.150000 2.300000 -0.034568
v -0.050000 0.000000 -0.034568
v -0.050000 0.000000 -0.134568
v -0.050000 2.100000 0.065432
v -0.050000 2.100000 -0.034568
v -0.050000 2.200000 0.065432
v -0.050000 2.200000 -0.034568
v -0.050000 2.300000 -0.034568
v -0.050000 2.700000 -0.034568
v -0.050000 2.700000 -0.134568
v 0.050000 0.000000 -0.034568
v 0.050000 0.000000 -0.134568
v 0.050000 2.100000 0.065432
v 0.050000 2.100000 -0.034568
v 0.050000 2.200000 0.065432
v 0.050000 2.200000 -0.034568
v 0.050000 2.300000 -0.034568
v 0.050000 2.700000 -0.034568
v 0.050000 2.700000 -0.134568
v 0.150000 2.200000 0.065432
v 0.150000 2.200000 -0.034568
v 0.150000 2.300000 0.065432
v 0.150000 2.300000 -0.034568
v 0.250000 2.300000 0.065432
v 0.250000 2.300000 -0.034568
v 0.250000 2.400000 0.065432
v 0.250000 2.400000 -0.034568
v 0.350000 2.400000 0.065432
v 0.350000 2.400000 -0.034568
v 0.350000 2.600000 0.065432
v 0.350000 2.600000 -0.034568
v 0.450000 2.600000 0.065432
v 0.450000 2.600000 -0.034568
v 0.450000 2.800000 0.065432
v 0.450000 2.800000 -0.034568
v -0.450000 2.600000 0.065432
v -0.450000 2.800000 0.065432
v -0.350000 2.400000 0.065432
v -0.350000 2.600000 0.065432
v -0.350000 2.700000 0.065432
v -0.250000 2.300000 0.065432
v -0.250000 2.400000 0.065432
v -0.250000 2.600000 0.065432
v -0.150000 2.200000 0.065432
v -0.150000 2.300000 0.065432
v -0.150000 2.400000 0.065432
v -0.050000 2.100000 0.065432
v -0.050000 2.200000 0.065432
v -0.050000 2.300000 0.065432
v 0.050000 2.100000 0.065432
v 0.050000 2.200000 0.065432
v 0.050000 2.300000 0.065432
v 0.150000 2.200000 0.065432
v 0.150000 2.300000 0.065432
v 0.150000 2.400000 0.065432
v 0.250000 2.300000 0.065432
v 0.250000 2.400000 0.065432
v 0.250000 2.600000 0.065432
v 0.350000 2.400000 0.065432
v 0.350000 2.600000 0.065432
v 0.350000 2.700000 0.065432
v 0.450000 2.600000 0.065432
v 0.450000 2.800000 0.065432
v -0.050000 0.000000 -0.034568
v -0.050000 2.100000 -0.034568
v 0.050000 0.000000 -0.034568
v 0.050000 2.100000 -0.034568
v -0.450000 2.600000 -0.034568
v -0.450000 2.800000 -0.034568
v -0.350000 2.400000 -0.034568
v -0.350000 2.600000 -0.034568
v -0.350000 2.700000 -0.034568
v -0.250000 2.300000 -0.034568
v -0.250000 2.400000 -0.034568
v -0.250000 2.600000 -0.034568
v -0.150000 2.200000 -0.034568
v -0.150000 2.300000 -0.034568
v -0.150000 2.400000 -0.034568
v -0.050000 2.200000 -0.034568
v -0.050000 2.300000 -0.034568
v -0.050000 2.700000 -0.034568
v 0.050000 2.200000 -0.034568
v 0.050000 2.300000 -0.034568
v 0.050000 2.700000 -0.034568
v 0.150000 2.200000 -0.034568
v 0.150000 2.300000 -0.034568
v 0.150000 2.400000 -0.034568
v 0.250000 2.300000 -0.034568
v 0.250000 2.400000 -0.034568
v 0.250000 2.600000 -0.034568
v 0.350000 2.400000 -0.034568
v 0.350000 2.600000 -0.034568
v 0.350000 2.700000 -0.034568
v 0.450000 2.600000 -0.034568
v 0.450000 2.800000 -0.034568
v -0.050000 0.000000 -0.134568
v -0.050000 2.700000 -0.134568
v 0.050000 0.000000 -0.134568
v 0.050000 2.700000 -0.134568
v -0.050000 0.000000 -0.034568
v 0.050000 0.000000 -0.034568
v -0.050000 0.000000 -0.134568
v 0.050000 0.000000 -0.134568
v -0.050000 2.100000 0.065432
v 0.050000 2.100000 0.065432
v -0.050000 2.100000 -0.034568
v 0.050000 2.100000 -0.034568
v -0.150000 2.200000 0.065432
v -0.050000 2.200000 0.065432
v 0.050000 2.200000 0.065432
v 0.150000 2.200000 0.065432
v -0.150000 2.200000 -0.034568
v -0.050000 2.200000 -0.034568
v 0.050000 2.200000 -0.034568
v 0.150000 2.200000 -0.034568
v -0.250000 2.300000 0.065432
v -0.150000 2.300000 0.065432
v 0.150000 2.300000 0.065432
v 0.250000 2.300000 0.065432
v -0.250000 2.300000 -0.034568
v -0.150000 2.300000 -0.034568
v 0.150000 2.300000 -0.034568
v 0.250000 2.300000 -0.034568
v -0.350000 2.400000 0.065432
v -0.250000 2.400000 0.065432
v 0.250000 2.400000 0.065432
v 0.350000 2.400000 0.065432
v -0.350000 2.400000 -0.034568
v -0.250000 2.400000 -0.034568
v 0.250000 2.400000 -0.034568
v 0.350000 2.400000 -0.034568
v -0.450000 2.600000 0.065432
v -0.350000 2.600000 0.065432
v 0.350000 2.600000 0.065432
v 0.450000 2.600000 0.065432
v -0.450000 2.600000 -0.034568
v -0.350000 2.600000 -0.034568
v 0.350000 2.600000 -0.034568
v 0.450000 2.600000 -0.034568
v -0.050000 2.700000 -0.034568
v 0.050000 2.700000 -0.034568
v -0.050000 2.700000 -0.134568
v 0.050000 2.700000 -0.134568
v -0.450000 2.800000 0.065432
v 0.450000 2.800000 0.065432
v -0.450000 2.800000 -0.034568
v 0.450000 2.800000 -0.034568
vn -1.0000 -0.0000 -0.0000
vn 1.0000 -0.0000 -0.0000
vn -0.0000 -0.0000 1.0000
vn -0.0000 -0.0000 -1.0000
vn -0.0000 -1.0000 -0.0000
vn -0.0000 1.0000 -0.0000
vt 0.841797 0.500000
vt 0.974609 0.500000
vt 0.181641 0.500000
s 0
usemtl palette.102
f 3/1/1 2/1/1 1/1/1
f 4/1/1 2/1/1 3/1/1
f 7/1/1 6/1/1 5/1/1
f 8/1/1 6/1/1 7/1/1
f 11/1/1 10/1/1 9/1/1
f 12/1/1 10/1/1 11/1/1
f 15/1/1 14/1/1 13/1/1
f 16/1/1 14/1/1 15/1/1
f 20/2/1 18/2/1 17/2/1
f 21/1/1 20/1/1 19/1/1
f 22/2/1 18/2/1 20/2/1
f 22/1/1 20/1/1 21/1/1
f 23/2/1 18/2/1 22/2/1
f 24/2/1 18/2/1 23/2/1
f 25/2/1 18/2/1 24/2/1
f 26/2/2 27/2/2 29/2/2
f 28/1/2 29/1/2 30/1/2
f 29/2/2 27/2/2 31/2/2
f 30/1/2 29/1/2 31/1/2
f 31/2/2 27/2/2 32/2/2
f 32/2/2 27/2/2 33/2/2
f 33/2/2 27/2/2 34/2/2
f 35/1/2 36/1/2 37/1/2
f 37/1/2 36/1/2 38/1/2
f 39/1/2 40/1/2 41/1/2
f 41/1/2 40/1/2 42/1/2
f 43/1/2 44/1/2 45/1/2
f 45/1/2 44/1/2 46/1/2
f 47/1/2 48/1/2 49/1/2
f 49/1/2 48/1/2 50/1/2
f 54/1/3 52/1/3 51/1/3
f 55/1/3 52/1/3 54/1/3
f 57/1/3 54/1/3 53/1/3
f 58/3/3 55/3/3 54/3/3
f 58/1/3 54/1/3 57/1/3
f 60/1/3 57/1/3 56/1/3
f 61/3/3 58/3/3 57/3/3
f 61/1/3 57/1/3 60/1/3
f 63/1/3 60/1/3 59/1/3
f 64/3/3 61/3/3 60/3/3
f 64/1/3 60/1/3 63/1/3
f 65/1/3 63/1/3 62/1/3
f 66/3/3 64/3/3 63/3/3
f 66/1/3 63/1/3 65/1/3
f 67/3/3 61/3/3 64/3/3
f 67/3/3 64/3/3 66/3/3
f 68/1/3 67/1/3 66/1/3
f 69/3/3 61/3/3 67/3/3
f 69/1/3 67/1/3 68/1/3
f 70/3/3 58/3/3 61/3/3
f 70/3/3 61/3/3 69/3/3
f 71/1/3 70/1/3 69/1/3
f 72/3/3 58/3/3 70/3/3
f 72/1/3 70/1/3 71/1/3
f 73/3/3 55/3/3 58/3/3
f 73/3/3 58/3/3 72/3/3
f 74/1/3 73/1/3 72/1/3
f 75/3/3 55/3/3 73/3/3
f 75/1/3 73/1/3 74/1/3
f 76/1/3 52/1/3 55/1/3
f 76/3/3 55/3/3 75/3/3
f 77/1/3 76/1/3 75/1/3
f 78/1/3 52/1/3 76/1/3
f 78/1/3 76/1/3 77/1/3
f 81/2/3 80/2/3 79/2/3
f 82/2/3 80/2/3 81/2/3
f 83/1/4 84/1/4 86/1/4
f 86/1/4 84/1/4 87/1/4
f 85/1/4 86/1/4 89/1/4
f 86/3/4 87/3/4 90/3/4
f 89/1/4 86/1/4 90/1/4
f 88/1/4 89/1/4 92/1/4
f 89/3/4 90/3/4 93/3/4
f 92/1/4 89/1/4 93/1/4
f 91/1/4 92/1/4 94/1/4
f 92/3/4 93/3/4 95/3/4
f 94/1/4 92/1/4 95/1/4
f 87/1/4 84/1/4 96/1/4
f 95/3/4 93/3/4 96/3/4
f 90/3/4 87/3/4 96/3/4
f 93/3/4 90/3/4 96/3/4
f 96/1/4 84/1/4 99/1/4
f 97/1/4 98/1/4 100/1/4
f 98/3/4 99/3/4 101/3/4
f 100/1/4 98/1/4 101/1/4
f 101/3/4 99/3/4 102/3/4
f 101/1/4 102/1/4 103/1/4
f 102/3/4 99/3/4 104/3/4
f 103/1/4 102/1/4 104/1/4
f 104/3/4 99/3/4 105/3/4
f 104/1/4 105/1/4 106/1/4
f 105/3/4 99/3/4 107/3/4
f 106/1/4 105/1/4 107/1/4
f 99/1/4 84/1/4 108/1/4
f 107/3/4 99/3/4 108/3/4
f 107/1/4 108/1/4 109/1/4
f 108/1/4 84/1/4 110/1/4
f 109/1/4 108/1/4 110/1/4
f 111/2/4 112/2/4 113/2/4
f 113/2/4 112/2/4 114/2/4
f 117/2/5 116/2/5 115/2/5
f 118/2/5 116/2/5 117/2/5
f 121/1/5 120/1/5 119/1/5
f 122/1/5 120/1/5 121/1/5
f 127/1/5 124/1/5 123/1/5
f 128/1/5 124/1/5 127/1/5
f 129/1/5 126/1/5 125/1/5
f 130/1/5 126/1/5 129/1/5
f 135/1/5 132/1/5 131/1/5
f 136/1/5 132/1/5 135/1/5
f 137/1/5 134/1/5 133/1/5
f 138/1/5 134/1/5 137/1/5
f 143/1/5 140/1/5 139/1/5
f 144/1/5 140/1/5 143/1/5
f 145/1/5 142/1/5 141/1/5
f 146/1/5 142/1/5 145/1/5
f 151/1/5 148/1/5 147/1/5
f 152/1/5 148/1/5 151/1/5
f 153/1/5 150/1/5 149/1/5
f 154/1/5 150/1/5 153/1/5
f 155/2/6 156/2/6 157/2/6
f 157/2/6 156/2/6 158/2/6
f 159/1/6 160/1/6 161/1/6
f 161/1/6 160/1/6 162/1/6
