# MagicaVoxel @ Ephtracy

# group
o 

# material
mtllib znakParking.mtl
usemtl palette

# normals
vn -1 0 0
vn 1 0 0
vn 0 0 1
vn 0 0 -1
vn 0 -1 0
vn 0 1 0

# texcoords
vt 0.931641 0.5
vt 0.958984 0.5
vt 0.974609 0.5

# verts
v -0.3 2 0.1
v -0.3 2 0
v -0.3 2.9 0.1
v -0.3 2.9 0
v 0 0 0
v 0 0 -0.1
v 0 2 0
v 0 2.4 0
v 0 2.5 0
v 0 2.7 0
v 0 2.7 -0.1
v 0.1 0 0
v 0.1 0 -0.1
v 0.1 2 0
v 0.1 2.4 0
v 0.1 2.5 0
v 0.1 2.7 0
v 0.1 2.7 -0.1
v 0.4 2 0.1
v 0.4 2 0
v 0.4 2.9 0.1
v 0.4 2.9 0
v -0.3 2 0.1
v -0.3 2.9 0.1
v -0.2 2.1 0.1
v -0.2 2.8 0.1
v -0.1 2.1 0.1
v -0.1 2.4 0.1
v -0.1 2.5 0.1
v -0.1 2.7 0.1
v 0.2 2.4 0.1
v 0.2 2.5 0.1
v 0.2 2.7 0.1
v 0.2 2.8 0.1
v 0.3 2.5 0.1
v 0.3 2.7 0.1
v 0.4 2 0.1
v 0.4 2.9 0.1
v 0 0 0
v 0 2 0
v 0.1 0 0
v 0.1 2 0
v -0.3 2 0
v -0.3 2.9 0
v -0.2 2.1 0
v -0.2 2.8 0
v -0.1 2.1 0
v -0.1 2.4 0
v -0.1 2.5 0
v -0.1 2.7 0
v 0 2 0
v 0 2.4 0
v 0 2.5 0
v 0 2.7 0
v 0.1 2 0
v 0.1 2.4 0
v 0.1 2.5 0
v 0.1 2.7 0
v 0.2 2.4 0
v 0.2 2.5 0
v 0.2 2.7 0
v 0.2 2.8 0
v 0.3 2.5 0
v 0.3 2.7 0
v 0.4 2 0
v 0.4 2.9 0
v 0 0 -0.1
v 0 2.7 -0.1
v 0.1 0 -0.1
v 0.1 2.7 -0.1
v 0 0 0
v 0.1 0 0
v 0 0 -0.1
v 0.1 0 -0.1
v -0.3 2 0.1
v 0.4 2 0.1
v -0.3 2 0
v 0 2 0
v 0.1 2 0
v 0.4 2 0
v 0 2.7 0
v 0.1 2.7 0
v 0 2.7 -0.1
v 0.1 2.7 -0.1
v -0.3 2.9 0.1
v 0.4 2.9 0.1
v -0.3 2.9 0
v 0.4 2.9 0

# faces
f 3/1/1 2/1/1 1/1/1
f 4/1/1 2/1/1 3/1/1
f 7/3/1 6/3/1 5/3/1
f 8/3/1 6/3/1 7/3/1
f 9/3/1 6/3/1 8/3/1
f 10/3/1 6/3/1 9/3/1
f 11/3/1 6/3/1 10/3/1
f 12/3/2 13/3/2 14/3/2
f 14/3/2 13/3/2 15/3/2
f 15/3/2 13/3/2 16/3/2
f 16/3/2 13/3/2 17/3/2
f 17/3/2 13/3/2 18/3/2
f 19/1/2 20/1/2 21/1/2
f 21/1/2 20/1/2 22/1/2
f 25/1/3 24/1/3 23/1/3
f 26/1/3 24/1/3 25/1/3
f 27/1/3 25/1/3 23/1/3
f 27/2/3 26/2/3 25/2/3
f 28/2/3 26/2/3 27/2/3
f 29/2/3 26/2/3 28/2/3
f 30/2/3 26/2/3 29/2/3
f 31/1/3 28/1/3 27/1/3
f 31/2/3 29/2/3 28/2/3
f 32/1/3 30/1/3 29/1/3
f 32/2/3 29/2/3 31/2/3
f 33/2/3 26/2/3 30/2/3
f 33/1/3 30/1/3 32/1/3
f 34/1/3 24/1/3 26/1/3
f 34/2/3 26/2/3 33/2/3
f 35/2/3 33/2/3 32/2/3
f 35/1/3 32/1/3 31/1/3
f 36/1/3 34/1/3 33/1/3
f 36/2/3 33/2/3 35/2/3
f 37/1/3 27/1/3 23/1/3
f 37/1/3 35/1/3 31/1/3
f 37/1/3 36/1/3 35/1/3
f 37/1/3 31/1/3 27/1/3
f 38/1/3 24/1/3 34/1/3
f 38/1/3 36/1/3 37/1/3
f 38/1/3 34/1/3 36/1/3
f 41/3/3 40/3/3 39/3/3
f 42/3/3 40/3/3 41/3/3
f 43/1/4 44/1/4 45/1/4
f 45/1/4 44/1/4 46/1/4
f 43/1/4 45/1/4 47/1/4
f 45/2/4 46/2/4 47/2/4
f 47/2/4 46/2/4 48/2/4
f 48/2/4 46/2/4 49/2/4
f 49/2/4 46/2/4 50/2/4
f 43/1/4 47/1/4 51/1/4
f 47/1/4 48/1/4 51/1/4
f 48/2/4 49/2/4 52/2/4
f 51/1/4 48/1/4 52/1/4
f 49/1/4 50/1/4 53/1/4
f 52/2/4 49/2/4 53/2/4
f 50/2/4 46/2/4 54/2/4
f 53/1/4 50/1/4 54/1/4
f 54/2/4 46/2/4 58/2/4
f 56/2/4 57/2/4 59/2/4
f 55/1/4 56/1/4 59/1/4
f 57/1/4 58/1/4 60/1/4
f 59/2/4 57/2/4 60/2/4
f 58/2/4 46/2/4 61/2/4
f 60/1/4 58/1/4 61/1/4
f 46/1/4 44/1/4 62/1/4
f 61/2/4 46/2/4 62/2/4
f 60/2/4 61/2/4 63/2/4
f 59/1/4 60/1/4 63/1/4
f 61/1/4 62/1/4 64/1/4
f 63/2/4 61/2/4 64/2/4
f 55/1/4 59/1/4 65/1/4
f 59/1/4 63/1/4 65/1/4
f 63/1/4 64/1/4 65/1/4
f 62/1/4 44/1/4 66/1/4
f 65/1/4 64/1/4 66/1/4
f 64/1/4 62/1/4 66/1/4
f 67/3/4 68/3/4 69/3/4
f 69/3/4 68/3/4 70/3/4
f 73/3/5 72/3/5 71/3/5
f 74/3/5 72/3/5 73/3/5
f 77/1/5 76/1/5 75/1/5
f 78/1/5 76/1/5 77/1/5
f 79/1/5 76/1/5 78/1/5
f 80/1/5 76/1/5 79/1/5
f 81/3/6 82/3/6 83/3/6
f 83/3/6 82/3/6 84/3/6
f 85/1/6 86/1/6 87/1/6
f 87/1/6 86/1/6 88/1/6
