# MagicaVoxel @ Ephtracy

# group
o 

# material
mtllib barierkaWyscigowa.mtl
usemtl palette

# normals
vn -1 0 0
vn 1 0 0
vn 0 0 1
vn 0 0 -1
vn 0 -1 0
vn 0 1 0

# texcoords
vt 0.841797 0.5
vt 0.916016 0.5
vt 0.955078 0.5
vt 0.958984 0.5

# verts
v -2 0 0.1
v -2 0 0
v -2 0.4 0.2
v -2 0.4 0.1
v -2 0.4 0
v -2 0.4 -0.1
v -2 0.5 0.1
v -2 0.5 0
v -2 0.5 -0.1
v -2 0.6 0.2
v -2 0.6 0.1
v -2 0.6 -0.1
v -1.2 0 0.1
v -1.2 0 0
v -1.2 0.4 0.2
v -1.2 0.4 0.1
v -1.2 0.4 0
v -1.2 0.4 -0.1
v -1.2 0.5 0.2
v -1.2 0.5 0.1
v -1.2 0.5 0
v -1.2 0.6 0.2
v -1.2 0.6 0
v -1.2 0.6 -0.1
v -2 0.4 0.2
v -2 0.6 0.2
v -1.9 0.4 0.2
v -1.9 0.5 0.2
v -1.8 0.5 0.2
v -1.8 0.6 0.2
v -1.7 0.4 0.2
v -1.7 0.5 0.2
v -1.6 0.5 0.2
v -1.6 0.6 0.2
v -1.5 0.4 0.2
v -1.5 0.5 0.2
v -1.4 0.5 0.2
v -1.4 0.6 0.2
v -1.3 0.4 0.2
v -1.3 0.5 0.2
v -1.2 0.4 0.2
v -1.2 0.5 0.2
v -1.2 0.6 0.2
v -2 0 0.1
v -2 0.4 0.1
v -1.9 0.4 0.1
v -1.7 0.4 0.1
v -1.5 0.4 0.1
v -1.3 0.4 0.1
v -1.2 0 0.1
v -1.2 0.4 0.1
v -2 0 0
v -2 0.4 0
v -1.9 0.4 0
v -1.7 0.4 0
v -1.5 0.4 0
v -1.3 0.4 0
v -1.2 0 0
v -1.2 0.4 0
v -2 0.4 -0.1
v -2 0.5 -0.1
v -2 0.6 -0.1
v -1.9 0.4 -0.1
v -1.9 0.5 -0.1
v -1.8 0.5 -0.1
v -1.8 0.6 -0.1
v -1.7 0.4 -0.1
v -1.7 0.5 -0.1
v -1.6 0.5 -0.1
v -1.6 0.6 -0.1
v -1.5 0.4 -0.1
v -1.5 0.5 -0.1
v -1.4 0.5 -0.1
v -1.4 0.6 -0.1
v -1.3 0.4 -0.1
v -1.3 0.5 -0.1
v -1.2 0.4 -0.1
v -1.2 0.6 -0.1
v -2 0 0.1
v -1.2 0 0.1
v -2 0 0
v -1.2 0 0
v -2 0.4 0.2
v -1.9 0.4 0.2
v -1.7 0.4 0.2
v -1.5 0.4 0.2
v -1.3 0.4 0.2
v -1.2 0.4 0.2
v -2 0.4 0.1
v -1.9 0.4 0.1
v -1.7 0.4 0.1
v -1.5 0.4 0.1
v -1.3 0.4 0.1
v -1.2 0.4 0.1
v -2 0.4 0
v -1.9 0.4 0
v -1.7 0.4 0
v -1.5 0.4 0
v -1.3 0.4 0
v -1.2 0.4 0
v -2 0.4 -0.1
v -1.9 0.4 -0.1
v -1.7 0.4 -0.1
v -1.5 0.4 -0.1
v -1.3 0.4 -0.1
v -1.2 0.4 -0.1
v -2 0.6 0.2
v -1.8 0.6 0.2
v -1.6 0.6 0.2
v -1.4 0.6 0.2
v -1.2 0.6 0.2
v -2 0.6 0.1
v -1.9 0.6 0.1
v -1.8 0.6 0.1
v -1.7 0.6 0.1
v -1.6 0.6 0.1
v -1.5 0.6 0.1
v -1.4 0.6 0.1
v -1.3 0.6 0.1
v -1.9 0.6 0
v -1.8 0.6 0
v -1.7 0.6 0
v -1.6 0.6 0
v -1.5 0.6 0
v -1.4 0.6 0
v -1.3 0.6 0
v -1.2 0.6 0
v -2 0.6 -0.1
v -1.8 0.6 -0.1
v -1.6 0.6 -0.1
v -1.4 0.6 -0.1
v -1.2 0.6 -0.1

# faces
f 4/2/1 2/2/1 1/2/1
f 5/2/1 2/2/1 4/2/1
f 7/4/1 4/4/1 3/4/1
f 7/3/1 5/3/1 4/3/1
f 8/4/1 6/4/1 5/4/1
f 8/3/1 5/3/1 7/3/1
f 9/4/1 6/4/1 8/4/1
f 10/4/1 7/4/1 3/4/1
f 11/1/1 8/1/1 7/1/1
f 11/4/1 7/4/1 10/4/1
f 11/1/1 9/1/1 8/1/1
f 12/1/1 9/1/1 11/1/1
f 13/2/2 14/2/2 16/2/2
f 16/2/2 14/2/2 17/2/2
f 15/4/2 16/4/2 19/4/2
f 16/3/2 17/3/2 20/3/2
f 19/4/2 16/4/2 20/4/2
f 17/4/2 18/4/2 21/4/2
f 20/3/2 17/3/2 21/3/2
f 19/1/2 20/1/2 22/1/2
f 20/1/2 21/1/2 22/1/2
f 21/4/2 18/4/2 23/4/2
f 22/1/2 21/1/2 23/1/2
f 23/4/2 18/4/2 24/4/2
f 27/4/3 26/4/3 25/4/3
f 28/4/3 26/4/3 27/4/3
f 29/1/3 28/1/3 27/1/3
f 29/4/3 26/4/3 28/4/3
f 30/4/3 26/4/3 29/4/3
f 31/1/3 29/1/3 27/1/3
f 31/1/3 30/1/3 29/1/3
f 32/1/3 30/1/3 31/1/3
f 33/4/3 32/4/3 31/4/3
f 33/1/3 30/1/3 32/1/3
f 34/1/3 30/1/3 33/1/3
f 35/4/3 33/4/3 31/4/3
f 35/4/3 34/4/3 33/4/3
f 36/4/3 34/4/3 35/4/3
f 37/1/3 36/1/3 35/1/3
f 37/4/3 34/4/3 36/4/3
f 38/4/3 34/4/3 37/4/3
f 39/1/3 37/1/3 35/1/3
f 39/1/3 38/1/3 37/1/3
f 40/1/3 38/1/3 39/1/3
f 41/4/3 40/4/3 39/4/3
f 42/1/3 38/1/3 40/1/3
f 42/4/3 40/4/3 41/4/3
f 43/1/3 38/1/3 42/1/3
f 46/2/3 45/2/3 44/2/3
f 47/2/3 46/2/3 44/2/3
f 48/2/3 47/2/3 44/2/3
f 49/2/3 48/2/3 44/2/3
f 50/2/3 49/2/3 44/2/3
f 51/2/3 49/2/3 50/2/3
f 52/2/4 53/2/4 54/2/4
f 52/2/4 54/2/4 55/2/4
f 52/2/4 55/2/4 56/2/4
f 52/2/4 56/2/4 57/2/4
f 52/2/4 57/2/4 58/2/4
f 58/2/4 57/2/4 59/2/4
f 60/4/4 61/4/4 63/4/4
f 61/1/4 62/1/4 64/1/4
f 63/4/4 61/4/4 64/4/4
f 63/1/4 64/1/4 65/1/4
f 64/1/4 62/1/4 65/1/4
f 65/1/4 62/1/4 66/1/4
f 63/1/4 65/1/4 67/1/4
f 65/4/4 66/4/4 68/4/4
f 67/1/4 65/1/4 68/1/4
f 67/4/4 68/4/4 69/4/4
f 68/4/4 66/4/4 69/4/4
f 69/4/4 66/4/4 70/4/4
f 67/4/4 69/4/4 71/4/4
f 69/1/4 70/1/4 72/1/4
f 71/4/4 69/4/4 72/4/4
f 71/1/4 72/1/4 73/1/4
f 72/1/4 70/1/4 73/1/4
f 73/1/4 70/1/4 74/1/4
f 71/1/4 73/1/4 75/1/4
f 73/4/4 74/4/4 76/4/4
f 75/1/4 73/1/4 76/1/4
f 75/4/4 76/4/4 77/4/4
f 76/4/4 74/4/4 78/4/4
f 77/4/4 76/4/4 78/4/4
f 81/2/5 80/2/5 79/2/5
f 82/2/5 80/2/5 81/2/5
f 89/4/5 84/4/5 83/4/5
f 90/1/5 85/1/5 84/1/5
f 90/4/5 84/4/5 89/4/5
f 91/4/5 86/4/5 85/4/5
f 91/1/5 85/1/5 90/1/5
f 92/1/5 87/1/5 86/1/5
f 92/4/5 86/4/5 91/4/5
f 93/4/5 88/4/5 87/4/5
f 93/1/5 87/1/5 92/1/5
f 94/4/5 88/4/5 93/4/5
f 101/4/5 96/4/5 95/4/5
f 102/1/5 97/1/5 96/1/5
f 102/4/5 96/4/5 101/4/5
f 103/4/5 98/4/5 97/4/5
f 103/1/5 97/1/5 102/1/5
f 104/1/5 99/1/5 98/1/5
f 104/4/5 98/4/5 103/4/5
f 105/4/5 100/4/5 99/4/5
f 105/1/5 99/1/5 104/1/5
f 106/4/5 100/4/5 105/4/5
f 107/4/6 108/4/6 112/4/6
f 112/4/6 108/4/6 113/4/6
f 108/1/6 109/1/6 114/1/6
f 113/4/6 108/4/6 114/4/6
f 114/1/6 109/1/6 115/1/6
f 109/4/6 110/4/6 116/4/6
f 115/1/6 109/1/6 116/1/6
f 116/4/6 110/4/6 117/4/6
f 110/1/6 111/1/6 118/1/6
f 117/4/6 110/4/6 118/4/6
f 118/1/6 111/1/6 119/1/6
f 112/1/6 113/1/6 120/1/6
f 114/4/6 115/4/6 120/4/6
f 113/4/6 114/4/6 120/4/6
f 120/4/6 115/4/6 121/4/6
f 116/1/6 117/1/6 122/1/6
f 121/4/6 115/4/6 122/4/6
f 115/1/6 116/1/6 122/1/6
f 122/1/6 117/1/6 123/1/6
f 118/4/6 119/4/6 124/4/6
f 123/1/6 117/1/6 124/1/6
f 117/4/6 118/4/6 124/4/6
f 124/4/6 119/4/6 125/4/6
f 119/1/6 111/1/6 126/1/6
f 125/4/6 119/4/6 126/4/6
f 126/1/6 111/1/6 127/1/6
f 120/1/6 121/1/6 128/1/6
f 112/1/6 120/1/6 128/1/6
f 122/4/6 123/4/6 129/4/6
f 128/1/6 121/1/6 129/1/6
f 121/4/6 122/4/6 129/4/6
f 124/1/6 125/1/6 130/1/6
f 129/4/6 123/4/6 130/4/6
f 123/1/6 124/1/6 130/1/6
f 125/4/6 126/4/6 131/4/6
f 130/1/6 125/1/6 131/1/6
f 126/4/6 127/4/6 131/4/6
f 131/4/6 127/4/6 132/4/6
