# MagicaVoxel @ Ephtracy

# group
o 

# material
mtllib dziura1.mtl
usemtl palette

# normals
vn -1 0 0
vn 1 0 0
vn 0 0 1
vn 0 0 -1
vn 0 -1 0
vn 0 1 0

# texcoords
vt 0.974609 0.5
vt 0.978516 0.5
vt 0.982422 0.5
vt 0.986328 0.5

# verts
v -0.5 0.1 0.4
v -0.5 0.1 0.3
v -0.5 0.1 0.2
v -0.5 0.2 0.4
v -0.5 0.2 0.3
v -0.5 0.2 0.2
v -0.4 0 0.4
v -0.4 0 0.3
v -0.4 0 0.2
v -0.4 0.1 0.5
v -0.4 0.1 0.4
v -0.4 0.1 0.3
v -0.4 0.1 0.2
v -0.4 0.1 0.1
v -0.4 0.1 0
v -0.4 0.2 0.5
v -0.4 0.2 0.4
v -0.4 0.2 0.2
v -0.4 0.2 0.1
v -0.4 0.2 0
v -0.3 0 0.2
v -0.3 0 0
v -0.3 0.1 0.2
v -0.3 0.1 0.1
v -0.3 0.1 0
v -0.3 0.1 -0.1
v -0.3 0.2 0
v -0.3 0.2 -0.1
v -0.1 0.1 0.4
v -0.1 0.1 0.3
v -0.1 0.2 0.4
v -0.1 0.2 0.3
v 0 0.1 0.1
v 0 0.1 0
v 0 0.2 0.1
v 0 0.2 0
v 0.1 0.1 0.3
v 0.1 0.1 0.2
v 0.1 0.1 0.1
v 0.1 0.2 0.3
v 0.1 0.2 0.2
v 0.1 0.2 0.1
v -0.4 0.1 0.4
v -0.4 0.1 0.3
v -0.4 0.1 0.2
v -0.4 0.2 0.4
v -0.4 0.2 0.3
v -0.4 0.2 0.2
v -0.3 0.1 0.2
v -0.3 0.1 0.1
v -0.3 0.1 0
v -0.3 0.2 0.2
v -0.3 0.2 0.1
v -0.3 0.2 0
v -0.1 0 0.4
v -0.1 0 0.3
v -0.1 0.1 0.5
v -0.1 0.1 0.4
v -0.1 0.1 0.3
v -0.1 0.2 0.5
v -0.1 0.2 0.4
v 0 0 0.1
v 0 0 0
v 0 0.1 0.1
v 0 0.1 0
v 0 0.1 -0.1
v 0 0.2 0
v 0 0.2 -0.1
v 0.1 0 0.3
v 0.1 0 0.1
v 0.1 0.1 0.4
v 0.1 0.1 0.3
v 0.1 0.1 0.2
v 0.1 0.1 0.1
v 0.1 0.1 0
v 0.1 0.2 0.4
v 0.1 0.2 0.3
v 0.1 0.2 0.1
v 0.1 0.2 0
v 0.2 0.1 0.3
v 0.2 0.1 0.2
v 0.2 0.1 0.1
v 0.2 0.2 0.3
v 0.2 0.2 0.2
v 0.2 0.2 0.1
v -0.4 0.1 0.5
v -0.4 0.2 0.5
v -0.2 0.1 0.5
v -0.2 0.2 0.5
v -0.1 0.1 0.5
v -0.1 0.2 0.5
v -0.5 0.1 0.4
v -0.5 0.2 0.4
v -0.4 0 0.4
v -0.4 0.1 0.4
v -0.4 0.2 0.4
v -0.3 0 0.4
v -0.3 0.1 0.4
v -0.2 0 0.4
v -0.2 0.1 0.4
v -0.1 0 0.4
v -0.1 0.1 0.4
v -0.1 0.2 0.4
v 0.1 0.1 0.4
v 0.1 0.2 0.4
v -0.1 0 0.3
v -0.1 0.1 0.3
v 0.1 0 0.3
v 0.1 0.1 0.3
v 0.1 0.2 0.3
v 0.2 0.1 0.3
v 0.2 0.2 0.3
v -0.4 0.1 0.2
v -0.4 0.2 0.2
v -0.3 0.1 0.2
v -0.3 0.2 0.2
v 0 0.1 0.1
v 0 0.2 0.1
v 0.1 0.1 0.1
v 0.1 0.2 0.1
v -0.3 0.1 0
v -0.3 0.2 0
v -0.2 0.1 0
v -0.1 0.1 0
v -0.1 0.2 0
v 0 0.1 0
v 0 0.2 0
v -0.4 0.1 0.4
v -0.4 0.2 0.4
v -0.3 0.1 0.4
v -0.2 0.1 0.4
v -0.2 0.2 0.4
v -0.1 0.1 0.4
v -0.1 0.2 0.4
v -0.1 0.1 0.3
v -0.1 0.2 0.3
v 0.1 0.1 0.3
v 0.1 0.2 0.3
v -0.5 0.1 0.2
v -0.5 0.2 0.2
v -0.4 0 0.2
v -0.4 0.1 0.2
v -0.4 0.2 0.2
v -0.3 0 0.2
v -0.3 0.1 0.2
v 0 0 0.1
v 0 0.1 0.1
v 0.1 0 0.1
v 0.1 0.1 0.1
v 0.1 0.2 0.1
v 0.2 0.1 0.1
v 0.2 0.2 0.1
v -0.4 0.1 0
v -0.4 0.2 0
v -0.3 0 0
v -0.3 0.1 0
v -0.3 0.2 0
v -0.2 0 0
v -0.2 0.1 0
v -0.1 0 0
v -0.1 0.1 0
v 0 0 0
v 0 0.1 0
v 0 0.2 0
v 0.1 0.1 0
v 0.1 0.2 0
v -0.3 0.1 -0.1
v -0.3 0.2 -0.1
v -0.1 0.1 -0.1
v -0.1 0.2 -0.1
v 0 0.1 -0.1
v 0 0.2 -0.1
v -0.4 0 0.4
v -0.3 0 0.4
v -0.2 0 0.4
v -0.1 0 0.4
v -0.4 0 0.3
v -0.3 0 0.3
v -0.2 0 0.3
v -0.1 0 0.3
v 0.1 0 0.3
v -0.4 0 0.2
v -0.3 0 0.2
v -0.2 0 0.2
v -0.1 0 0.2
v 0 0 0.2
v -0.2 0 0.1
v -0.1 0 0.1
v 0 0 0.1
v 0.1 0 0.1
v -0.3 0 0
v -0.2 0 0
v -0.1 0 0
v 0 0 0
v -0.4 0.1 0.5
v -0.2 0.1 0.5
v -0.1 0.1 0.5
v -0.5 0.1 0.4
v -0.4 0.1 0.4
v -0.3 0.1 0.4
v -0.2 0.1 0.4
v -0.1 0.1 0.4
v 0.1 0.1 0.4
v -0.5 0.1 0.3
v -0.4 0.1 0.3
v -0.1 0.1 0.3
v 0.1 0.1 0.3
v 0.2 0.1 0.3
v -0.5 0.1 0.2
v -0.4 0.1 0.2
v -0.3 0.1 0.2
v 0.1 0.1 0.2
v 0.2 0.1 0.2
v -0.4 0.1 0.1
v -0.3 0.1 0.1
v 0 0.1 0.1
v 0.1 0.1 0.1
v 0.2 0.1 0.1
v -0.4 0.1 0
v -0.3 0.1 0
v -0.2 0.1 0
v -0.1 0.1 0
v 0 0.1 0
v 0.1 0.1 0
v -0.3 0.1 -0.1
v -0.1 0.1 -0.1
v 0 0.1 -0.1
v -0.4 0.1 0.4
v -0.3 0.1 0.4
v -0.2 0.1 0.4
v -0.1 0.1 0.4
v -0.4 0.1 0.3
v -0.3 0.1 0.3
v -0.2 0.1 0.3
v -0.1 0.1 0.3
v 0.1 0.1 0.3
v -0.4 0.1 0.2
v -0.3 0.1 0.2
v -0.2 0.1 0.2
v -0.1 0.1 0.2
v 0 0.1 0.2
v 0.1 0.1 0.2
v -0.3 0.1 0.1
v -0.2 0.1 0.1
v -0.1 0.1 0.1
v 0 0.1 0.1
v 0.1 0.1 0.1
v -0.3 0.1 0
v -0.2 0.1 0
v -0.1 0.1 0
v 0 0.1 0
v -0.4 0.2 0.5
v -0.2 0.2 0.5
v -0.1 0.2 0.5
v -0.5 0.2 0.4
v -0.4 0.2 0.4
v -0.2 0.2 0.4
v -0.1 0.2 0.4
v 0.1 0.2 0.4
v -0.5 0.2 0.3
v -0.4 0.2 0.3
v -0.1 0.2 0.3
v 0.1 0.2 0.3
v 0.2 0.2 0.3
v -0.5 0.2 0.2
v -0.4 0.2 0.2
v -0.3 0.2 0.2
v 0.1 0.2 0.2
v 0.2 0.2 0.2
v -0.4 0.2 0.1
v -0.3 0.2 0.1
v 0 0.2 0.1
v 0.1 0.2 0.1
v 0.2 0.2 0.1
v -0.4 0.2 0
v -0.3 0.2 0
v -0.1 0.2 0
v 0 0.2 0
v 0.1 0.2 0
v -0.3 0.2 -0.1
v -0.1 0.2 -0.1
v 0 0.2 -0.1

# faces
f 4/2/1 2/2/1 1/2/1
f 5/3/1 3/3/1 2/3/1
f 5/2/1 2/2/1 4/2/1
f 6/3/1 3/3/1 5/3/1
f 11/4/1 8/4/1 7/4/1
f 12/2/1 9/2/1 8/2/1
f 12/4/1 8/4/1 11/4/1
f 13/2/1 9/2/1 12/2/1
f 16/2/1 11/2/1 10/2/1
f 17/2/1 11/2/1 16/2/1
f 18/3/1 14/3/1 13/3/1
f 19/2/1 15/2/1 14/2/1
f 19/3/1 14/3/1 18/3/1
f 20/2/1 15/2/1 19/2/1
f 23/1/1 22/1/1 21/1/1
f 24/1/1 22/1/1 23/1/1
f 25/1/1 22/1/1 24/1/1
f 27/4/1 26/4/1 25/4/1
f 28/4/1 26/4/1 27/4/1
f 31/3/1 30/3/1 29/3/1
f 32/3/1 30/3/1 31/3/1
f 35/3/1 34/3/1 33/3/1
f 36/3/1 34/3/1 35/3/1
f 40/4/1 38/4/1 37/4/1
f 41/3/1 39/3/1 38/3/1
f 41/4/1 38/4/1 40/4/1
f 42/3/1 39/3/1 41/3/1
f 43/2/2 44/2/2 46/2/2
f 44/3/2 45/3/2 47/3/2
f 46/2/2 44/2/2 47/2/2
f 47/3/2 45/3/2 48/3/2
f 49/3/2 50/3/2 52/3/2
f 50/2/2 51/2/2 53/2/2
f 52/3/2 50/3/2 53/3/2
f 53/2/2 51/2/2 54/2/2
f 55/4/2 56/4/2 58/4/2
f 58/4/2 56/4/2 59/4/2
f 57/3/2 58/3/2 60/3/2
f 60/3/2 58/3/2 61/3/2
f 62/2/2 63/2/2 64/2/2
f 64/2/2 63/2/2 65/2/2
f 65/3/2 66/3/2 67/3/2
f 67/3/2 66/3/2 68/3/2
f 69/3/2 70/3/2 72/3/2
f 72/3/2 70/3/2 73/3/2
f 73/3/2 70/3/2 74/3/2
f 71/3/2 72/3/2 76/3/2
f 76/3/2 72/3/2 77/3/2
f 74/3/2 75/3/2 78/3/2
f 78/3/2 75/3/2 79/3/2
f 80/4/2 81/4/2 83/4/2
f 81/3/2 82/3/2 84/3/2
f 83/4/2 81/4/2 84/4/2
f 84/3/2 82/3/2 85/3/2
f 88/2/3 87/2/3 86/2/3
f 89/2/3 87/2/3 88/2/3
f 90/3/3 89/3/3 88/3/3
f 91/3/3 89/3/3 90/3/3
f 95/2/3 93/2/3 92/2/3
f 96/2/3 93/2/3 95/2/3
f 97/4/3 95/4/3 94/4/3
f 98/4/3 95/4/3 97/4/3
f 99/3/3 98/3/3 97/3/3
f 100/3/3 98/3/3 99/3/3
f 101/4/3 100/4/3 99/4/3
f 102/4/3 100/4/3 101/4/3
f 104/3/3 103/3/3 102/3/3
f 105/3/3 103/3/3 104/3/3
f 108/3/3 107/3/3 106/3/3
f 109/3/3 107/3/3 108/3/3
f 111/4/3 110/4/3 109/4/3
f 112/4/3 110/4/3 111/4/3
f 115/3/3 114/3/3 113/3/3
f 116/3/3 114/3/3 115/3/3
f 119/3/3 118/3/3 117/3/3
f 120/3/3 118/3/3 119/3/3
f 123/4/3 122/4/3 121/4/3
f 124/4/3 122/4/3 123/4/3
f 125/4/3 122/4/3 124/4/3
f 126/3/3 125/3/3 124/3/3
f 127/3/3 125/3/3 126/3/3
f 128/2/4 129/2/4 130/2/4
f 130/2/4 129/2/4 131/2/4
f 131/2/4 129/2/4 132/2/4
f 131/3/4 132/3/4 133/3/4
f 133/3/4 132/3/4 134/3/4
f 135/3/4 136/3/4 137/3/4
f 137/3/4 136/3/4 138/3/4
f 139/3/4 140/3/4 142/3/4
f 142/3/4 140/3/4 143/3/4
f 141/2/4 142/2/4 144/2/4
f 144/2/4 142/2/4 145/2/4
f 146/3/4 147/3/4 148/3/4
f 148/3/4 147/3/4 149/3/4
f 149/3/4 150/3/4 151/3/4
f 151/3/4 150/3/4 152/3/4
f 153/2/4 154/2/4 156/2/4
f 156/2/4 154/2/4 157/2/4
f 155/1/4 156/1/4 158/1/4
f 158/1/4 156/1/4 159/1/4
f 158/3/4 159/3/4 160/3/4
f 160/3/4 159/3/4 161/3/4
f 160/2/4 161/2/4 162/2/4
f 162/2/4 161/2/4 163/2/4
f 163/3/4 164/3/4 165/3/4
f 165/3/4 164/3/4 166/3/4
f 167/4/4 168/4/4 169/4/4
f 169/4/4 168/4/4 170/4/4
f 169/3/4 170/3/4 171/3/4
f 171/3/4 170/3/4 172/3/4
f 177/4/5 174/4/5 173/4/5
f 178/3/5 175/3/5 174/3/5
f 178/4/5 174/4/5 177/4/5
f 179/4/5 176/4/5 175/4/5
f 179/3/5 175/3/5 178/3/5
f 180/4/5 176/4/5 179/4/5
f 182/2/5 178/2/5 177/2/5
f 183/1/5 179/1/5 178/1/5
f 183/2/5 178/2/5 182/2/5
f 184/4/5 180/4/5 179/4/5
f 184/1/5 179/1/5 183/1/5
f 185/3/5 181/3/5 180/3/5
f 185/4/5 180/4/5 184/4/5
f 186/3/5 181/3/5 185/3/5
f 187/1/5 184/1/5 183/1/5
f 187/2/5 185/2/5 184/2/5
f 188/4/5 186/4/5 185/4/5
f 188/2/5 185/2/5 187/2/5
f 189/3/5 181/3/5 186/3/5
f 189/4/5 186/4/5 188/4/5
f 190/3/5 181/3/5 189/3/5
f 191/1/5 187/1/5 183/1/5
f 192/3/5 188/3/5 187/3/5
f 192/1/5 187/1/5 191/1/5
f 193/2/5 189/2/5 188/2/5
f 193/3/5 188/3/5 192/3/5
f 194/2/5 189/2/5 193/2/5
f 199/2/5 196/2/5 195/2/5
f 200/2/5 196/2/5 199/2/5
f 201/3/5 197/3/5 196/3/5
f 201/2/5 196/2/5 200/2/5
f 202/3/5 197/3/5 201/3/5
f 204/2/5 199/2/5 198/2/5
f 205/2/5 199/2/5 204/2/5
f 206/3/5 203/3/5 202/3/5
f 207/3/5 203/3/5 206/3/5
f 209/3/5 205/3/5 204/3/5
f 210/3/5 205/3/5 209/3/5
f 212/4/5 208/4/5 207/4/5
f 213/4/5 208/4/5 212/4/5
f 214/3/5 211/3/5 210/3/5
f 215/3/5 211/3/5 214/3/5
f 217/3/5 213/3/5 212/3/5
f 218/3/5 213/3/5 217/3/5
f 219/2/5 215/2/5 214/2/5
f 220/2/5 215/2/5 219/2/5
f 223/3/5 217/3/5 216/3/5
f 224/3/5 217/3/5 223/3/5
f 225/4/5 222/4/5 221/4/5
f 225/4/5 221/4/5 220/4/5
f 226/3/5 223/3/5 222/3/5
f 226/4/5 222/4/5 225/4/5
f 227/3/5 223/3/5 226/3/5
f 228/4/6 229/4/6 232/4/6
f 229/3/6 230/3/6 233/3/6
f 232/4/6 229/4/6 233/4/6
f 230/4/6 231/4/6 234/4/6
f 233/3/6 230/3/6 234/3/6
f 234/4/6 231/4/6 235/4/6
f 232/2/6 233/2/6 237/2/6
f 233/1/6 234/1/6 238/1/6
f 237/2/6 233/2/6 238/2/6
f 234/4/6 235/4/6 239/4/6
f 238/1/6 234/1/6 239/1/6
f 235/3/6 236/3/6 240/3/6
f 239/4/6 235/4/6 240/4/6
f 240/3/6 236/3/6 241/3/6
f 241/3/6 236/3/6 242/3/6
f 238/1/6 239/1/6 243/1/6
f 239/2/6 240/2/6 244/2/6
f 243/1/6 239/1/6 244/1/6
f 240/4/6 241/4/6 245/4/6
f 244/2/6 240/2/6 245/2/6
f 241/3/6 242/3/6 246/3/6
f 245/4/6 241/4/6 246/4/6
f 246/3/6 242/3/6 247/3/6
f 243/1/6 244/1/6 248/1/6
f 244/3/6 245/3/6 249/3/6
f 248/1/6 244/1/6 249/1/6
f 245/2/6 246/2/6 250/2/6
f 249/3/6 245/3/6 250/3/6
f 250/2/6 246/2/6 251/2/6
f 252/2/6 253/2/6 256/2/6
f 253/3/6 254/3/6 257/3/6
f 256/2/6 253/2/6 257/2/6
f 257/3/6 254/3/6 258/3/6
f 255/2/6 256/2/6 260/2/6
f 260/2/6 256/2/6 261/2/6
f 258/3/6 259/3/6 262/3/6
f 262/3/6 259/3/6 263/3/6
f 260/3/6 261/3/6 265/3/6
f 265/3/6 261/3/6 266/3/6
f 263/4/6 264/4/6 268/4/6
f 268/4/6 264/4/6 269/4/6
f 266/3/6 267/3/6 270/3/6
f 270/3/6 267/3/6 271/3/6
f 268/3/6 269/3/6 273/3/6
f 273/3/6 269/3/6 274/3/6
f 270/2/6 271/2/6 275/2/6
f 275/2/6 271/2/6 276/2/6
f 272/3/6 273/3/6 278/3/6
f 278/3/6 273/3/6 279/3/6
f 276/4/6 277/4/6 280/4/6
f 277/3/6 278/3/6 281/3/6
f 280/4/6 277/4/6 281/4/6
f 281/3/6 278/3/6 282/3/6
